%TF.GenerationSoftware,KiCad,Pcbnew,8.0.1*%
%TF.CreationDate,2024-04-03T11:04:11+02:00*%
%TF.ProjectId,dcload-interface-board,64636c6f-6164-42d6-996e-746572666163,rev?*%
%TF.SameCoordinates,Original*%
%TF.FileFunction,Soldermask,Bot*%
%TF.FilePolarity,Negative*%
%FSLAX46Y46*%
G04 Gerber Fmt 4.6, Leading zero omitted, Abs format (unit mm)*
G04 Created by KiCad (PCBNEW 8.0.1) date 2024-04-03 11:04:11*
%MOMM*%
%LPD*%
G01*
G04 APERTURE LIST*
G04 Aperture macros list*
%AMRoundRect*
0 Rectangle with rounded corners*
0 $1 Rounding radius*
0 $2 $3 $4 $5 $6 $7 $8 $9 X,Y pos of 4 corners*
0 Add a 4 corners polygon primitive as box body*
4,1,4,$2,$3,$4,$5,$6,$7,$8,$9,$2,$3,0*
0 Add four circle primitives for the rounded corners*
1,1,$1+$1,$2,$3*
1,1,$1+$1,$4,$5*
1,1,$1+$1,$6,$7*
1,1,$1+$1,$8,$9*
0 Add four rect primitives between the rounded corners*
20,1,$1+$1,$2,$3,$4,$5,0*
20,1,$1+$1,$4,$5,$6,$7,0*
20,1,$1+$1,$6,$7,$8,$9,0*
20,1,$1+$1,$8,$9,$2,$3,0*%
G04 Aperture macros list end*
%ADD10C,3.200000*%
%ADD11C,1.700000*%
%ADD12O,1.700000X1.700000*%
%ADD13O,2.900000X3.700000*%
%ADD14C,1.600000*%
%ADD15RoundRect,0.300000X-0.600000X0.300000X-0.600000X-0.300000X0.600000X-0.300000X0.600000X0.300000X0*%
%ADD16RoundRect,0.218750X0.218750X0.256250X-0.218750X0.256250X-0.218750X-0.256250X0.218750X-0.256250X0*%
%ADD17RoundRect,0.300000X0.600000X-0.300000X0.600000X0.300000X-0.600000X0.300000X-0.600000X-0.300000X0*%
%ADD18RoundRect,0.135000X-0.135000X-0.185000X0.135000X-0.185000X0.135000X0.185000X-0.135000X0.185000X0*%
G04 APERTURE END LIST*
D10*
%TO.C,H4*%
X103250000Y-78250000D03*
%TD*%
D11*
%TO.C,J100*%
X122500000Y-112000000D03*
D12*
X119960000Y-112000000D03*
X117420000Y-112000000D03*
X114880000Y-112000000D03*
X112340000Y-112000000D03*
X109800000Y-112000000D03*
%TD*%
D10*
%TO.C,H5*%
X144750000Y-78250000D03*
%TD*%
%TO.C,H2*%
X144750000Y-53250000D03*
%TD*%
%TO.C,H1*%
X103250000Y-111000000D03*
%TD*%
D11*
%TO.C,J102*%
X122500000Y-106920000D03*
D12*
X119960000Y-106920000D03*
X117420000Y-106920000D03*
X114880000Y-106920000D03*
X112340000Y-106920000D03*
X109800000Y-106920000D03*
%TD*%
D10*
%TO.C,H6*%
X103250000Y-53250000D03*
%TD*%
D11*
%TO.C,J200*%
X138800000Y-112000000D03*
D12*
X136260000Y-112000000D03*
X133720000Y-112000000D03*
X131180000Y-112000000D03*
%TD*%
D11*
%TO.C,J101*%
X122500000Y-109460000D03*
D12*
X119960000Y-109460000D03*
X117420000Y-109460000D03*
X114880000Y-109460000D03*
X112340000Y-109460000D03*
X109800000Y-109460000D03*
%TD*%
D11*
%TO.C,J103*%
X122500000Y-104380000D03*
D12*
X119960000Y-104380000D03*
X117420000Y-104380000D03*
X114880000Y-104380000D03*
X112340000Y-104380000D03*
X109800000Y-104380000D03*
%TD*%
D11*
%TO.C,J201*%
X102500000Y-97880000D03*
D12*
X102500000Y-100420000D03*
X102500000Y-102960000D03*
X102500000Y-105500000D03*
%TD*%
D10*
%TO.C,H3*%
X144750000Y-111000000D03*
%TD*%
D13*
%TO.C,SW506*%
X105200000Y-92000000D03*
X116600000Y-92000000D03*
D14*
X113400000Y-99500000D03*
X108400000Y-99500000D03*
X110900000Y-99500000D03*
X113400000Y-85000000D03*
X108400000Y-85000000D03*
%TD*%
D15*
%TO.C,SW504*%
X137050000Y-101350000D03*
X137050000Y-105850000D03*
X145950000Y-101350000D03*
X145950000Y-105850000D03*
%TD*%
D16*
%TO.C,D500*%
X130302500Y-108500000D03*
X128727500Y-108500000D03*
%TD*%
D17*
%TO.C,SW500*%
X137050000Y-87850000D03*
X137050000Y-83350000D03*
X145950000Y-87850000D03*
X145950000Y-83350000D03*
%TD*%
%TO.C,SW503*%
X133950000Y-92350000D03*
X125050000Y-96850000D03*
X133950000Y-96850000D03*
X125050000Y-92350000D03*
%TD*%
%TO.C,SW502*%
X137050000Y-92350000D03*
X137050000Y-96850000D03*
X145950000Y-96850000D03*
X145950000Y-92350000D03*
%TD*%
D15*
%TO.C,SW505*%
X125050000Y-101350000D03*
X133950000Y-105850000D03*
X133950000Y-101350000D03*
X125050000Y-105850000D03*
%TD*%
D17*
%TO.C,SW501*%
X125050000Y-87850000D03*
X133950000Y-83350000D03*
X125050000Y-83350000D03*
X133950000Y-87850000D03*
%TD*%
D18*
%TO.C,R505*%
X125990000Y-108500000D03*
X127010000Y-108500000D03*
%TD*%
M02*
