M48
; DRILL file {KiCad 8.0.1} date 2024-04-03T11:03:55+0200
; FORMAT={-:-/ absolute / metric / decimal}
; #@! TF.CreationDate,2024-04-03T11:03:55+02:00
; #@! TF.GenerationSoftware,Kicad,Pcbnew,8.0.1
; #@! TF.FileFunction,Plated,1,2,PTH
FMAT,2
METRIC
; #@! TA.AperFunction,Plated,PTH,ViaDrill
T1C0.250
; #@! TA.AperFunction,Plated,PTH,ViaDrill
T2C0.400
; #@! TA.AperFunction,Plated,PTH,ComponentDrill
T3C1.000
; #@! TA.AperFunction,Plated,PTH,ComponentDrill
T4C1.900
%
G90
G05
T1
X102.5Y-83.0
X102.5Y-89.0
X102.5Y-95.5
X105.0Y-58.0
X105.0Y-68.0
X107.5Y-103.0
X107.5Y-108.0
X107.5Y-113.0
X109.4Y-94.1
X111.7Y-92.25
X111.71Y-96.9
X112.58Y-65.7
X112.58Y-66.55
X112.6Y-67.4
X113.85Y-72.15
X114.0Y-94.1
X114.2Y-68.25
X114.55Y-72.15
X115.7Y-85.6
X115.85Y-98.3
X116.0Y-79.0
X116.8Y-65.85
X117.35Y-102.8
X119.6Y-85.6
X120.0Y-90.0
X120.0Y-98.0
X121.6Y-84.8
X121.6Y-89.6
X121.7Y-97.0
X122.0Y-79.0
X123.25Y-98.9
X123.55Y-89.6
X123.7Y-82.75
X123.7Y-85.6
X123.85Y-65.72
X124.4Y-98.9
X124.86Y-80.975
X125.0Y-58.0
X125.05Y-65.72
X125.35Y-87.0
X125.35Y-89.65
X125.35Y-90.45
X126.0Y-80.975
X126.2Y-94.7
X126.307Y-90.992
X126.65Y-92.9
X126.75Y-89.6
X126.8Y-98.8
X126.9Y-87.4
X127.89Y-81.9
X127.9Y-88.4
X128.0Y-79.0
X128.29Y-94.8
X128.3Y-84.131
X128.3Y-93.0
X128.3Y-107.35
X128.7Y-67.929
X128.78Y-64.85
X128.9Y-81.9
X128.9Y-87.4
X128.9Y-89.4
X129.0Y-97.0
X129.06Y-90.835
X129.1Y-84.0
X129.25Y-72.15
X129.4Y-94.8
X129.6Y-64.85
X129.6Y-67.1
X129.6Y-67.95
X129.9Y-81.9
X129.9Y-90.9
X129.95Y-72.15
X130.05Y-107.35
X130.4Y-86.4
X130.4Y-90.2
X130.42Y-64.85
X130.5Y-67.95
X130.825Y-84.125
X130.9Y-93.55
X130.91Y-81.9
X131.3Y-85.1
X132.11Y-85.6
X132.125Y-83.675
X132.125Y-84.6
X132.3Y-89.2
X133.95Y-91.2
X134.0Y-79.0
X134.3Y-89.2
X134.4Y-83.55
X134.4Y-84.45
X135.0Y-95.0
X135.85Y-102.35
X135.9Y-87.8
X136.2Y-96.25
X136.65Y-103.2
X137.0Y-97.05
X137.0Y-104.45
X137.05Y-91.2
X137.95Y-102.7
X139.45Y-101.35
X140.0Y-105.5
X145.0Y-58.0
X145.0Y-68.0
T2
X133.0Y-98.15
X133.0Y-99.2
X134.4Y-98.35
T3
X102.5Y-97.88
X102.5Y-100.42
X102.5Y-102.96
X102.5Y-105.5
X108.4Y-85.0
X108.4Y-99.5
X109.8Y-104.38
X109.8Y-106.92
X109.8Y-109.46
X109.8Y-112.0
X110.9Y-99.5
X112.34Y-104.38
X112.34Y-106.92
X112.34Y-109.46
X112.34Y-112.0
X113.4Y-85.0
X113.4Y-99.5
X114.88Y-104.38
X114.88Y-106.92
X114.88Y-109.46
X114.88Y-112.0
X117.42Y-104.38
X117.42Y-106.92
X117.42Y-109.46
X117.42Y-112.0
X119.96Y-104.38
X119.96Y-106.92
X119.96Y-109.46
X119.96Y-112.0
X122.5Y-104.38
X122.5Y-106.92
X122.5Y-109.46
X122.5Y-112.0
X131.18Y-112.0
X133.72Y-112.0
X136.26Y-112.0
X138.8Y-112.0
T4
G00X105.2Y-92.4
M15
G01X105.2Y-91.6
M16
G05
G00X116.6Y-92.4
M15
G01X116.6Y-91.6
M16
G05
M30
