%TF.GenerationSoftware,KiCad,Pcbnew,8.0.1*%
%TF.CreationDate,2024-04-03T11:04:11+02:00*%
%TF.ProjectId,dcload-interface-board,64636c6f-6164-42d6-996e-746572666163,rev?*%
%TF.SameCoordinates,Original*%
%TF.FileFunction,Copper,L2,Bot*%
%TF.FilePolarity,Positive*%
%FSLAX46Y46*%
G04 Gerber Fmt 4.6, Leading zero omitted, Abs format (unit mm)*
G04 Created by KiCad (PCBNEW 8.0.1) date 2024-04-03 11:04:11*
%MOMM*%
%LPD*%
G01*
G04 APERTURE LIST*
G04 Aperture macros list*
%AMRoundRect*
0 Rectangle with rounded corners*
0 $1 Rounding radius*
0 $2 $3 $4 $5 $6 $7 $8 $9 X,Y pos of 4 corners*
0 Add a 4 corners polygon primitive as box body*
4,1,4,$2,$3,$4,$5,$6,$7,$8,$9,$2,$3,0*
0 Add four circle primitives for the rounded corners*
1,1,$1+$1,$2,$3*
1,1,$1+$1,$4,$5*
1,1,$1+$1,$6,$7*
1,1,$1+$1,$8,$9*
0 Add four rect primitives between the rounded corners*
20,1,$1+$1,$2,$3,$4,$5,0*
20,1,$1+$1,$4,$5,$6,$7,0*
20,1,$1+$1,$6,$7,$8,$9,0*
20,1,$1+$1,$8,$9,$2,$3,0*%
G04 Aperture macros list end*
%TA.AperFunction,ComponentPad*%
%ADD10C,1.700000*%
%TD*%
%TA.AperFunction,ComponentPad*%
%ADD11O,1.700000X1.700000*%
%TD*%
%TA.AperFunction,ComponentPad*%
%ADD12O,2.900000X3.700000*%
%TD*%
%TA.AperFunction,ComponentPad*%
%ADD13C,1.600000*%
%TD*%
%TA.AperFunction,SMDPad,CuDef*%
%ADD14RoundRect,0.300000X-0.600000X0.300000X-0.600000X-0.300000X0.600000X-0.300000X0.600000X0.300000X0*%
%TD*%
%TA.AperFunction,SMDPad,CuDef*%
%ADD15RoundRect,0.218750X0.218750X0.256250X-0.218750X0.256250X-0.218750X-0.256250X0.218750X-0.256250X0*%
%TD*%
%TA.AperFunction,SMDPad,CuDef*%
%ADD16RoundRect,0.300000X0.600000X-0.300000X0.600000X0.300000X-0.600000X0.300000X-0.600000X-0.300000X0*%
%TD*%
%TA.AperFunction,SMDPad,CuDef*%
%ADD17RoundRect,0.135000X-0.135000X-0.185000X0.135000X-0.185000X0.135000X0.185000X-0.135000X0.185000X0*%
%TD*%
%TA.AperFunction,ViaPad*%
%ADD18C,0.600000*%
%TD*%
%TA.AperFunction,ViaPad*%
%ADD19C,0.800000*%
%TD*%
%TA.AperFunction,Conductor*%
%ADD20C,0.500000*%
%TD*%
%TA.AperFunction,Conductor*%
%ADD21C,0.300000*%
%TD*%
%TA.AperFunction,Conductor*%
%ADD22C,0.200000*%
%TD*%
G04 APERTURE END LIST*
D10*
%TO.P,J100,1,Pin_1*%
%TO.N,VCC*%
X122500000Y-112000000D03*
D11*
%TO.P,J100,2,Pin_2*%
%TO.N,GND*%
X119960000Y-112000000D03*
%TO.P,J100,3,Pin_3*%
%TO.N,/CMD_SS_0*%
X117420000Y-112000000D03*
%TO.P,J100,4,Pin_4*%
%TO.N,/CMD_CLK*%
X114880000Y-112000000D03*
%TO.P,J100,5,Pin_5*%
%TO.N,/CMD_MISO*%
X112340000Y-112000000D03*
%TO.P,J100,6,Pin_6*%
%TO.N,/CMD_MOSI*%
X109800000Y-112000000D03*
%TD*%
D10*
%TO.P,J102,1,Pin_1*%
%TO.N,VCC*%
X122500000Y-106920000D03*
D11*
%TO.P,J102,2,Pin_2*%
%TO.N,GND*%
X119960000Y-106920000D03*
%TO.P,J102,3,Pin_3*%
%TO.N,/CMD_SS_2*%
X117420000Y-106920000D03*
%TO.P,J102,4,Pin_4*%
%TO.N,/CMD_CLK*%
X114880000Y-106920000D03*
%TO.P,J102,5,Pin_5*%
%TO.N,/CMD_MISO*%
X112340000Y-106920000D03*
%TO.P,J102,6,Pin_6*%
%TO.N,/CMD_MOSI*%
X109800000Y-106920000D03*
%TD*%
D10*
%TO.P,J200,1,Pin_1*%
%TO.N,+3V3*%
X138800000Y-112000000D03*
D11*
%TO.P,J200,2,Pin_2*%
%TO.N,/2. MCU/SWDIO*%
X136260000Y-112000000D03*
%TO.P,J200,3,Pin_3*%
%TO.N,/2. MCU/SWCLK*%
X133720000Y-112000000D03*
%TO.P,J200,4,Pin_4*%
%TO.N,GND*%
X131180000Y-112000000D03*
%TD*%
D10*
%TO.P,J101,1,Pin_1*%
%TO.N,VCC*%
X122500000Y-109460000D03*
D11*
%TO.P,J101,2,Pin_2*%
%TO.N,GND*%
X119960000Y-109460000D03*
%TO.P,J101,3,Pin_3*%
%TO.N,/CMD_SS_1*%
X117420000Y-109460000D03*
%TO.P,J101,4,Pin_4*%
%TO.N,/CMD_CLK*%
X114880000Y-109460000D03*
%TO.P,J101,5,Pin_5*%
%TO.N,/CMD_MISO*%
X112340000Y-109460000D03*
%TO.P,J101,6,Pin_6*%
%TO.N,/CMD_MOSI*%
X109800000Y-109460000D03*
%TD*%
D10*
%TO.P,J103,1,Pin_1*%
%TO.N,VCC*%
X122500000Y-104380000D03*
D11*
%TO.P,J103,2,Pin_2*%
%TO.N,GND*%
X119960000Y-104380000D03*
%TO.P,J103,3,Pin_3*%
%TO.N,/CMD_SS_3*%
X117420000Y-104380000D03*
%TO.P,J103,4,Pin_4*%
%TO.N,/CMD_CLK*%
X114880000Y-104380000D03*
%TO.P,J103,5,Pin_5*%
%TO.N,/CMD_MISO*%
X112340000Y-104380000D03*
%TO.P,J103,6,Pin_6*%
%TO.N,/CMD_MOSI*%
X109800000Y-104380000D03*
%TD*%
D10*
%TO.P,J201,1,Pin_1*%
%TO.N,+3V3*%
X102500000Y-97880000D03*
D11*
%TO.P,J201,2,Pin_2*%
%TO.N,/2. MCU/UART_TX*%
X102500000Y-100420000D03*
%TO.P,J201,3,Pin_3*%
%TO.N,/2. MCU/UART_RX*%
X102500000Y-102960000D03*
%TO.P,J201,4,Pin_4*%
%TO.N,GND*%
X102500000Y-105500000D03*
%TD*%
D12*
%TO.P,SW506,1*%
%TO.N,N/C*%
X105200000Y-92000000D03*
X116600000Y-92000000D03*
D13*
%TO.P,SW506,A,A*%
%TO.N,Net-(R500-Pad1)*%
X113400000Y-99500000D03*
%TO.P,SW506,B,B*%
%TO.N,Net-(R502-Pad1)*%
X108400000Y-99500000D03*
%TO.P,SW506,C,C*%
%TO.N,GND*%
X110900000Y-99500000D03*
%TO.P,SW506,S1,S1*%
%TO.N,/2. MCU/ENCODER_KEY*%
X113400000Y-85000000D03*
%TO.P,SW506,S2,S2*%
%TO.N,GND*%
X108400000Y-85000000D03*
%TD*%
D14*
%TO.P,SW504,1,1*%
%TO.N,/2. MCU/KEY_MENU*%
X137050000Y-101350000D03*
%TO.P,SW504,2,2*%
%TO.N,GND*%
X137050000Y-105850000D03*
%TO.P,SW504,3*%
%TO.N,N/C*%
X145950000Y-101350000D03*
%TO.P,SW504,4*%
X145950000Y-105850000D03*
%TD*%
D15*
%TO.P,D500,1,K*%
%TO.N,/2. MCU/EN_LED*%
X130302500Y-108500000D03*
%TO.P,D500,2,A*%
%TO.N,Net-(D500-A)*%
X128727500Y-108500000D03*
%TD*%
D16*
%TO.P,SW500,1,1*%
%TO.N,/2. MCU/KEY_MODE*%
X137050000Y-87850000D03*
%TO.P,SW500,2,2*%
%TO.N,GND*%
X137050000Y-83350000D03*
%TO.P,SW500,3*%
%TO.N,N/C*%
X145950000Y-87850000D03*
%TO.P,SW500,4*%
X145950000Y-83350000D03*
%TD*%
%TO.P,SW503,1,1*%
%TO.N,/2. MCU/KEY_SEQ_EN*%
X133950000Y-92350000D03*
%TO.P,SW503,2,2*%
%TO.N,GND*%
X125050000Y-96850000D03*
%TO.P,SW503,3*%
%TO.N,N/C*%
X133950000Y-96850000D03*
%TO.P,SW503,4*%
X125050000Y-92350000D03*
%TD*%
%TO.P,SW502,1,1*%
%TO.N,/2. MCU/KEY_SEQ*%
X137050000Y-92350000D03*
%TO.P,SW502,2,2*%
%TO.N,GND*%
X137050000Y-96850000D03*
%TO.P,SW502,3*%
%TO.N,N/C*%
X145950000Y-96850000D03*
%TO.P,SW502,4*%
X145950000Y-92350000D03*
%TD*%
D14*
%TO.P,SW505,1,1*%
%TO.N,/2. MCU/KEY_EN*%
X125050000Y-101350000D03*
%TO.P,SW505,2,2*%
%TO.N,GND*%
X133950000Y-105850000D03*
%TO.P,SW505,3*%
%TO.N,N/C*%
X133950000Y-101350000D03*
%TO.P,SW505,4*%
X125050000Y-105850000D03*
%TD*%
D16*
%TO.P,SW501,1,1*%
%TO.N,/2. MCU/KEY_SET*%
X125050000Y-87850000D03*
%TO.P,SW501,2,2*%
%TO.N,GND*%
X133950000Y-83350000D03*
X125050000Y-83350000D03*
%TO.P,SW501,3*%
%TO.N,N/C*%
X133950000Y-87850000D03*
%TD*%
D17*
%TO.P,R505,1*%
%TO.N,+3V3*%
X125990000Y-108500000D03*
%TO.P,R505,2*%
%TO.N,Net-(D500-A)*%
X127010000Y-108500000D03*
%TD*%
D18*
%TO.N,GND*%
X105000000Y-68000000D03*
X145000000Y-68000000D03*
X125000000Y-58000000D03*
X145000000Y-58000000D03*
X105000000Y-58000000D03*
%TO.N,+3V3*%
X130825000Y-84125000D03*
X115700000Y-85600000D03*
X123700000Y-85600000D03*
X123550000Y-89600000D03*
X119600000Y-85600000D03*
X132300000Y-89200000D03*
X126000000Y-80975000D03*
X128700000Y-67929283D03*
X132125000Y-84600000D03*
X130500000Y-67950000D03*
X128300000Y-93000000D03*
X129600000Y-67950000D03*
X129100000Y-84000000D03*
X131300000Y-85100000D03*
D19*
X134400000Y-98350000D03*
X133000000Y-98150000D03*
X133000000Y-99200000D03*
D18*
X111710000Y-96900000D03*
X129600000Y-67100000D03*
X128300000Y-84130879D03*
X132125000Y-83675000D03*
X125050000Y-65720000D03*
X132110000Y-85600000D03*
%TO.N,GND*%
X112580000Y-65700000D03*
X134400000Y-83550000D03*
X128300000Y-107350000D03*
X128780000Y-64850000D03*
X109400000Y-94100000D03*
X135850000Y-102350000D03*
X107500000Y-108000000D03*
X121600000Y-89600000D03*
X112600000Y-67400000D03*
X123850000Y-65720000D03*
X114550000Y-72150000D03*
X127900000Y-88400000D03*
X107500000Y-113000000D03*
X129000000Y-97000000D03*
X121600000Y-84800000D03*
X136200000Y-96250000D03*
X113850000Y-72150000D03*
X128900000Y-81900000D03*
X117350000Y-102800000D03*
X116800000Y-65850000D03*
X114000000Y-94100000D03*
X112580000Y-66550000D03*
X123700000Y-82750000D03*
X128900000Y-87400000D03*
X129250000Y-72150000D03*
X107500000Y-103000000D03*
X128000000Y-79000000D03*
X128290000Y-94800000D03*
X124400000Y-98900000D03*
X120000000Y-90000000D03*
X140000000Y-105500000D03*
X126650000Y-92900000D03*
X120000000Y-98000000D03*
X126750000Y-89600000D03*
X124860000Y-80975000D03*
X122000000Y-79000000D03*
X116000000Y-79000000D03*
X123250000Y-98900000D03*
X134000000Y-79000000D03*
X128900000Y-89400000D03*
X130400000Y-90200000D03*
X126800000Y-98800000D03*
X130050000Y-107350000D03*
X102500000Y-83000000D03*
X137000000Y-104450000D03*
X126900000Y-87400000D03*
X127890000Y-81900000D03*
X111700000Y-92250000D03*
X130400000Y-86400000D03*
X121700000Y-97000000D03*
X102500000Y-95500000D03*
X135000000Y-95000000D03*
X102500000Y-89000000D03*
X129600000Y-64850000D03*
X136650000Y-103200000D03*
X114200000Y-68250000D03*
X134300000Y-89200000D03*
X129950000Y-72150000D03*
X130420000Y-64850000D03*
X129900000Y-81900000D03*
X134400000Y-84450000D03*
X126200000Y-94700000D03*
X137000000Y-97050000D03*
X130910000Y-81900000D03*
X129400000Y-94800000D03*
X137950000Y-102700000D03*
%TO.N,/2. MCU/SWDIO*%
X129900000Y-90900000D03*
%TO.N,/2. MCU/SWCLK*%
X129059792Y-90834792D03*
%TO.N,/2. MCU/KEY_SET*%
X125350000Y-87000000D03*
%TO.N,/2. MCU/KEY_SEQ*%
X137050000Y-91200000D03*
%TO.N,/2. MCU/KEY_SEQ_EN*%
X133950000Y-91200000D03*
%TO.N,/2. MCU/KEY_MENU*%
X139450000Y-101350000D03*
%TO.N,/CMD_CLK*%
X115850000Y-98300000D03*
%TO.N,/CMD_SS_1*%
X125350000Y-90450000D03*
%TO.N,/CMD_SS_3*%
X125350000Y-89650000D03*
%TO.N,/2. MCU/EN_LED*%
X130900000Y-93550000D03*
%TO.N,/2. MCU/KEY_MODE*%
X135900000Y-87800000D03*
%TO.N,/2. MCU/KEY_EN*%
X126307073Y-90991963D03*
%TD*%
D20*
%TO.N,+3V3*%
X115700000Y-85600000D02*
X119600000Y-85600000D01*
X139700000Y-98350000D02*
X134400000Y-98350000D01*
X115700000Y-85600000D02*
X112700000Y-88600000D01*
X112700000Y-88600000D02*
X112700000Y-95910000D01*
X102500000Y-97880000D02*
X103480000Y-96900000D01*
D21*
X127150000Y-88800000D02*
X128300000Y-89950000D01*
D22*
X125990000Y-107510000D02*
X127600000Y-105900000D01*
X125990000Y-108500000D02*
X125990000Y-107510000D01*
D20*
X112700000Y-95910000D02*
X111710000Y-96900000D01*
X103480000Y-96900000D02*
X111710000Y-96900000D01*
X138800000Y-112000000D02*
X141100000Y-109700000D01*
X141100000Y-109700000D02*
X141100000Y-99750000D01*
D21*
X124400000Y-88800000D02*
X127150000Y-88800000D01*
D20*
X119600000Y-85600000D02*
X123700000Y-85600000D01*
D22*
X127600000Y-105900000D02*
X127600000Y-93700000D01*
D21*
X123600000Y-89600000D02*
X124400000Y-88800000D01*
X128300000Y-89950000D02*
X128300000Y-93000000D01*
D20*
X141100000Y-99750000D02*
X139700000Y-98350000D01*
D22*
X127600000Y-93700000D02*
X128300000Y-93000000D01*
%TO.N,GND*%
X123823498Y-82750000D02*
X124125000Y-82750000D01*
X124125000Y-82750000D02*
X124725000Y-83350000D01*
X124725000Y-83350000D02*
X125050000Y-83350000D01*
%TO.N,Net-(D500-A)*%
X127010000Y-108500000D02*
X128727500Y-108500000D01*
%TO.N,/2. MCU/SWDIO*%
X131950000Y-109550000D02*
X132800000Y-110400000D01*
X131950000Y-92950000D02*
X131950000Y-109550000D01*
X134660000Y-110400000D02*
X136260000Y-112000000D01*
X132800000Y-110400000D02*
X134660000Y-110400000D01*
X129900000Y-90900000D02*
X131950000Y-92950000D01*
%TO.N,/2. MCU/SWCLK*%
X131500000Y-93300000D02*
X131500000Y-109780000D01*
X131500000Y-109780000D02*
X133720000Y-112000000D01*
X129059792Y-90859792D02*
X131500000Y-93300000D01*
X129059792Y-90834792D02*
X129059792Y-90859792D01*
%TO.N,/2. MCU/KEY_SET*%
X125350000Y-87000000D02*
X125350000Y-87550000D01*
X125350000Y-87550000D02*
X125050000Y-87850000D01*
%TO.N,/2. MCU/KEY_SEQ*%
X137050000Y-91200000D02*
X137050000Y-92350000D01*
%TO.N,/2. MCU/KEY_SEQ_EN*%
X133950000Y-91200000D02*
X133950000Y-92350000D01*
%TO.N,/2. MCU/KEY_MENU*%
X139450000Y-101350000D02*
X137050000Y-101350000D01*
%TO.N,/CMD_CLK*%
X115850000Y-103410000D02*
X114880000Y-104380000D01*
X115850000Y-98300000D02*
X115850000Y-103410000D01*
%TO.N,/CMD_SS_1*%
X118750000Y-96050000D02*
X118750000Y-108130000D01*
X124350000Y-90450000D02*
X118750000Y-96050000D01*
X118750000Y-108130000D02*
X117420000Y-109460000D01*
X125350000Y-90450000D02*
X124350000Y-90450000D01*
%TO.N,/CMD_SS_3*%
X125050000Y-89950000D02*
X124200000Y-89950000D01*
X125350000Y-89650000D02*
X125050000Y-89950000D01*
X124200000Y-89950000D02*
X118250000Y-95900000D01*
X118250000Y-103550000D02*
X117420000Y-104380000D01*
X118250000Y-95900000D02*
X118250000Y-103550000D01*
%TO.N,/2. MCU/EN_LED*%
X130900000Y-93550000D02*
X131050000Y-93700000D01*
X131050000Y-93700000D02*
X131050000Y-107752500D01*
X131050000Y-107752500D02*
X130302500Y-108500000D01*
%TO.N,/2. MCU/KEY_MODE*%
X137000000Y-87800000D02*
X137050000Y-87850000D01*
X135900000Y-87800000D02*
X137000000Y-87800000D01*
%TO.N,/2. MCU/KEY_EN*%
X123300000Y-101350000D02*
X125050000Y-101350000D01*
X122500000Y-92950000D02*
X122500000Y-100550000D01*
X124458037Y-90991963D02*
X122500000Y-92950000D01*
X122500000Y-100550000D02*
X123300000Y-101350000D01*
X126307073Y-90991963D02*
X124458037Y-90991963D01*
%TD*%
%TA.AperFunction,Conductor*%
%TO.N,GND*%
G36*
X130636391Y-85424407D02*
G01*
X130646472Y-85432806D01*
X131319337Y-86073629D01*
X131513776Y-86258809D01*
X131542874Y-86312632D01*
X131544500Y-86330499D01*
X131544500Y-89258992D01*
X131544703Y-89264157D01*
X131545134Y-89275123D01*
X131546353Y-89290602D01*
X131546354Y-89290607D01*
X131568115Y-89367769D01*
X131568117Y-89367775D01*
X131595894Y-89422291D01*
X131633681Y-89474300D01*
X131633683Y-89474302D01*
X131633686Y-89474306D01*
X131875694Y-89716314D01*
X131875707Y-89716326D01*
X131875714Y-89716333D01*
X131887534Y-89727260D01*
X131887544Y-89727269D01*
X131899357Y-89737358D01*
X131969315Y-89776536D01*
X132027506Y-89795443D01*
X132040206Y-89797454D01*
X132091004Y-89805500D01*
X132091008Y-89805500D01*
X132553632Y-89805500D01*
X132556759Y-89805305D01*
X132579025Y-89803925D01*
X132579032Y-89803924D01*
X132579034Y-89803924D01*
X132584960Y-89803185D01*
X132603301Y-89800902D01*
X132687395Y-89770881D01*
X132739173Y-89738282D01*
X132787555Y-89695936D01*
X132984924Y-89459093D01*
X132989195Y-89453791D01*
X132993234Y-89448604D01*
X133026536Y-89385850D01*
X133045443Y-89327659D01*
X133051312Y-89290602D01*
X133055500Y-89264160D01*
X133055500Y-88716924D01*
X133074407Y-88658733D01*
X133123907Y-88622769D01*
X133185093Y-88622769D01*
X133189070Y-88624156D01*
X133242517Y-88644091D01*
X133302127Y-88650500D01*
X134597872Y-88650499D01*
X134657483Y-88644091D01*
X134724907Y-88618943D01*
X134792329Y-88593797D01*
X134792329Y-88593796D01*
X134792331Y-88593796D01*
X134907546Y-88507546D01*
X134993796Y-88392331D01*
X134997988Y-88381093D01*
X135044089Y-88257488D01*
X135044090Y-88257485D01*
X135044091Y-88257483D01*
X135050500Y-88197873D01*
X135050499Y-87502128D01*
X135044091Y-87442517D01*
X135024165Y-87389095D01*
X135021547Y-87327966D01*
X135055359Y-87276972D01*
X135112687Y-87255591D01*
X135116925Y-87255500D01*
X135492775Y-87255500D01*
X135550966Y-87274407D01*
X135586930Y-87323907D01*
X135586930Y-87385093D01*
X135567595Y-87419330D01*
X135547502Y-87442520D01*
X135474622Y-87526628D01*
X135414834Y-87657543D01*
X135394353Y-87799997D01*
X135394353Y-87800002D01*
X135414834Y-87942456D01*
X135474622Y-88073371D01*
X135474623Y-88073373D01*
X135568872Y-88182143D01*
X135568873Y-88182144D01*
X135686111Y-88257488D01*
X135689947Y-88259953D01*
X135796403Y-88291211D01*
X135828035Y-88300499D01*
X135828036Y-88300499D01*
X135828039Y-88300500D01*
X135903216Y-88300500D01*
X135961407Y-88319407D01*
X135995974Y-88364904D01*
X136006203Y-88392330D01*
X136006204Y-88392332D01*
X136092450Y-88507541D01*
X136092454Y-88507546D01*
X136092457Y-88507548D01*
X136092458Y-88507549D01*
X136207670Y-88593797D01*
X136342511Y-88644089D01*
X136342512Y-88644089D01*
X136342517Y-88644091D01*
X136402127Y-88650500D01*
X137697872Y-88650499D01*
X137757483Y-88644091D01*
X137810904Y-88624165D01*
X137872032Y-88621546D01*
X137923027Y-88655357D01*
X137944409Y-88712684D01*
X137944500Y-88716924D01*
X137944500Y-91483075D01*
X137925593Y-91541266D01*
X137876093Y-91577230D01*
X137814907Y-91577230D01*
X137810915Y-91575837D01*
X137757483Y-91555909D01*
X137757479Y-91555908D01*
X137757477Y-91555908D01*
X137726249Y-91552550D01*
X137697873Y-91549500D01*
X137697870Y-91549500D01*
X137601780Y-91549500D01*
X137543589Y-91530593D01*
X137507625Y-91481093D01*
X137507625Y-91419907D01*
X137508786Y-91416542D01*
X137516364Y-91395788D01*
X137516365Y-91395786D01*
X137517402Y-91389563D01*
X137525003Y-91364707D01*
X137535165Y-91342456D01*
X137535165Y-91342455D01*
X137535166Y-91342452D01*
X137546253Y-91265336D01*
X137555647Y-91200002D01*
X137555647Y-91199997D01*
X137535165Y-91057543D01*
X137505214Y-90991960D01*
X137475377Y-90926627D01*
X137381128Y-90817857D01*
X137381127Y-90817856D01*
X137381126Y-90817855D01*
X137260057Y-90740049D01*
X137260054Y-90740047D01*
X137260053Y-90740047D01*
X137260050Y-90740046D01*
X137121964Y-90699500D01*
X137121961Y-90699500D01*
X136978039Y-90699500D01*
X136978035Y-90699500D01*
X136839949Y-90740046D01*
X136839942Y-90740049D01*
X136718873Y-90817855D01*
X136624622Y-90926628D01*
X136564834Y-91057543D01*
X136544353Y-91199997D01*
X136544353Y-91200002D01*
X136564833Y-91342452D01*
X136564835Y-91342457D01*
X136575098Y-91364931D01*
X136582875Y-91390887D01*
X136583633Y-91395779D01*
X136583635Y-91395787D01*
X136591215Y-91416546D01*
X136593413Y-91477692D01*
X136559250Y-91528451D01*
X136501775Y-91549436D01*
X136498221Y-91549500D01*
X136402132Y-91549500D01*
X136402129Y-91549500D01*
X136402128Y-91549501D01*
X136394949Y-91550272D01*
X136342519Y-91555908D01*
X136342514Y-91555909D01*
X136207670Y-91606202D01*
X136092458Y-91692450D01*
X136092450Y-91692458D01*
X136006202Y-91807670D01*
X135955910Y-91942511D01*
X135955908Y-91942522D01*
X135949500Y-92002129D01*
X135949500Y-92697866D01*
X135949501Y-92697870D01*
X135955908Y-92757480D01*
X135955909Y-92757485D01*
X136006202Y-92892329D01*
X136092450Y-93007541D01*
X136092454Y-93007546D01*
X136092457Y-93007548D01*
X136092458Y-93007549D01*
X136207670Y-93093797D01*
X136342511Y-93144089D01*
X136342512Y-93144089D01*
X136342517Y-93144091D01*
X136402127Y-93150500D01*
X137697872Y-93150499D01*
X137757483Y-93144091D01*
X137810904Y-93124165D01*
X137872032Y-93121546D01*
X137923027Y-93155357D01*
X137944409Y-93212684D01*
X137944500Y-93216924D01*
X137944500Y-96492182D01*
X137944794Y-96503170D01*
X137944795Y-96503191D01*
X137944856Y-96504327D01*
X137944998Y-96509624D01*
X137944998Y-97181557D01*
X137944431Y-97192134D01*
X137943856Y-97197485D01*
X137938181Y-97221504D01*
X137916553Y-97279492D01*
X137903048Y-97304225D01*
X137869270Y-97349346D01*
X137849346Y-97369270D01*
X137804225Y-97403048D01*
X137779492Y-97416554D01*
X137721508Y-97438180D01*
X137697514Y-97443852D01*
X137692148Y-97444430D01*
X137681546Y-97444999D01*
X136409652Y-97444999D01*
X136404389Y-97444859D01*
X136404199Y-97444849D01*
X136403143Y-97444792D01*
X136394061Y-97444550D01*
X136392169Y-97444500D01*
X136392162Y-97444500D01*
X135116925Y-97444500D01*
X135058734Y-97425593D01*
X135022770Y-97376093D01*
X135022770Y-97314907D01*
X135024166Y-97310904D01*
X135026657Y-97304225D01*
X135044091Y-97257483D01*
X135050500Y-97197873D01*
X135050499Y-96502128D01*
X135044091Y-96442517D01*
X135044089Y-96442511D01*
X134993797Y-96307670D01*
X134907549Y-96192458D01*
X134907548Y-96192457D01*
X134907546Y-96192454D01*
X134899745Y-96186614D01*
X134792329Y-96106202D01*
X134657488Y-96055910D01*
X134657483Y-96055909D01*
X134657481Y-96055908D01*
X134657477Y-96055908D01*
X134626249Y-96052550D01*
X134597873Y-96049500D01*
X134597870Y-96049500D01*
X133302133Y-96049500D01*
X133302129Y-96049500D01*
X133302128Y-96049501D01*
X133294949Y-96050272D01*
X133242519Y-96055908D01*
X133242514Y-96055909D01*
X133107670Y-96106202D01*
X132992458Y-96192450D01*
X132992450Y-96192458D01*
X132906202Y-96307670D01*
X132855910Y-96442511D01*
X132855908Y-96442522D01*
X132849500Y-96502126D01*
X132849500Y-97197866D01*
X132849501Y-97197870D01*
X132855908Y-97257480D01*
X132855908Y-97257481D01*
X132877661Y-97315804D01*
X132880280Y-97376933D01*
X132846468Y-97427927D01*
X132811774Y-97445682D01*
X132732230Y-97468115D01*
X132732224Y-97468117D01*
X132677708Y-97495894D01*
X132625699Y-97533681D01*
X132625694Y-97533685D01*
X132625694Y-97533686D01*
X132419501Y-97739878D01*
X132364987Y-97767654D01*
X132304555Y-97758083D01*
X132261290Y-97714818D01*
X132250500Y-97669873D01*
X132250500Y-92910437D01*
X132250499Y-92910435D01*
X132245647Y-92892329D01*
X132230021Y-92834011D01*
X132190460Y-92765489D01*
X132182448Y-92757477D01*
X132134511Y-92709539D01*
X132134511Y-92709540D01*
X132122837Y-92697866D01*
X132849500Y-92697866D01*
X132849501Y-92697870D01*
X132855908Y-92757480D01*
X132855909Y-92757485D01*
X132906202Y-92892329D01*
X132992450Y-93007541D01*
X132992454Y-93007546D01*
X132992457Y-93007548D01*
X132992458Y-93007549D01*
X133107670Y-93093797D01*
X133242511Y-93144089D01*
X133242512Y-93144089D01*
X133242517Y-93144091D01*
X133302127Y-93150500D01*
X134597872Y-93150499D01*
X134657483Y-93144091D01*
X134724907Y-93118943D01*
X134792329Y-93093797D01*
X134792329Y-93093796D01*
X134792331Y-93093796D01*
X134907546Y-93007546D01*
X134993796Y-92892331D01*
X135015550Y-92834007D01*
X135044089Y-92757488D01*
X135044090Y-92757485D01*
X135044091Y-92757483D01*
X135050500Y-92697873D01*
X135050499Y-92002128D01*
X135044091Y-91942517D01*
X135030139Y-91905110D01*
X134993797Y-91807670D01*
X134907549Y-91692458D01*
X134907548Y-91692457D01*
X134907546Y-91692454D01*
X134907541Y-91692450D01*
X134792329Y-91606202D01*
X134657488Y-91555910D01*
X134657483Y-91555909D01*
X134657481Y-91555908D01*
X134657477Y-91555908D01*
X134626249Y-91552550D01*
X134597873Y-91549500D01*
X134597870Y-91549500D01*
X134501780Y-91549500D01*
X134443589Y-91530593D01*
X134407625Y-91481093D01*
X134407625Y-91419907D01*
X134408786Y-91416542D01*
X134416364Y-91395788D01*
X134416365Y-91395786D01*
X134417402Y-91389563D01*
X134425003Y-91364707D01*
X134435165Y-91342456D01*
X134435165Y-91342455D01*
X134435166Y-91342452D01*
X134446253Y-91265336D01*
X134455647Y-91200002D01*
X134455647Y-91199997D01*
X134435165Y-91057543D01*
X134405214Y-90991960D01*
X134375377Y-90926627D01*
X134281128Y-90817857D01*
X134281127Y-90817856D01*
X134281126Y-90817855D01*
X134160057Y-90740049D01*
X134160054Y-90740047D01*
X134160053Y-90740047D01*
X134160050Y-90740046D01*
X134021964Y-90699500D01*
X134021961Y-90699500D01*
X133878039Y-90699500D01*
X133878035Y-90699500D01*
X133739949Y-90740046D01*
X133739942Y-90740049D01*
X133618873Y-90817855D01*
X133524622Y-90926628D01*
X133464834Y-91057543D01*
X133444353Y-91199997D01*
X133444353Y-91200002D01*
X133464833Y-91342452D01*
X133464835Y-91342457D01*
X133475098Y-91364931D01*
X133482875Y-91390887D01*
X133483633Y-91395779D01*
X133483635Y-91395787D01*
X133491215Y-91416546D01*
X133493413Y-91477692D01*
X133459250Y-91528451D01*
X133401775Y-91549436D01*
X133398221Y-91549500D01*
X133302132Y-91549500D01*
X133302129Y-91549500D01*
X133302128Y-91549501D01*
X133294949Y-91550272D01*
X133242519Y-91555908D01*
X133242514Y-91555909D01*
X133107670Y-91606202D01*
X132992458Y-91692450D01*
X132992450Y-91692458D01*
X132906202Y-91807670D01*
X132855910Y-91942511D01*
X132855908Y-91942522D01*
X132849500Y-92002129D01*
X132849500Y-92697866D01*
X132122837Y-92697866D01*
X130584510Y-91159539D01*
X130564746Y-91131281D01*
X130530454Y-91057543D01*
X130368213Y-90708673D01*
X130368211Y-90708670D01*
X130368210Y-90708668D01*
X130358867Y-90695588D01*
X130349373Y-90679172D01*
X130325377Y-90626627D01*
X130231128Y-90517857D01*
X130231127Y-90517856D01*
X130231126Y-90517855D01*
X130110057Y-90440049D01*
X130110054Y-90440047D01*
X130110053Y-90440047D01*
X130110050Y-90440046D01*
X129971964Y-90399500D01*
X129971961Y-90399500D01*
X129828039Y-90399500D01*
X129828035Y-90399500D01*
X129689949Y-90440046D01*
X129689942Y-90440049D01*
X129563029Y-90521611D01*
X129503854Y-90537166D01*
X129446837Y-90514967D01*
X129434687Y-90503158D01*
X129390921Y-90452650D01*
X129390919Y-90452648D01*
X129269849Y-90374841D01*
X129269846Y-90374839D01*
X129269845Y-90374839D01*
X129269842Y-90374838D01*
X129131756Y-90334292D01*
X129131753Y-90334292D01*
X128987831Y-90334292D01*
X128987827Y-90334292D01*
X128849741Y-90374838D01*
X128849734Y-90374841D01*
X128803023Y-90404861D01*
X128743848Y-90420416D01*
X128686832Y-90398217D01*
X128653752Y-90346744D01*
X128650500Y-90321577D01*
X128650500Y-89903857D01*
X128647886Y-89894100D01*
X128626614Y-89814712D01*
X128621296Y-89805500D01*
X128618640Y-89800899D01*
X128618640Y-89800898D01*
X128580473Y-89734792D01*
X128580471Y-89734790D01*
X128580470Y-89734788D01*
X127365212Y-88519530D01*
X127285288Y-88473386D01*
X127196144Y-88449500D01*
X127196142Y-88449500D01*
X126215060Y-88449500D01*
X126156869Y-88430593D01*
X126120905Y-88381093D01*
X126120905Y-88319907D01*
X126122302Y-88315904D01*
X126144089Y-88257488D01*
X126144090Y-88257485D01*
X126144091Y-88257483D01*
X126150500Y-88197873D01*
X126150499Y-87502128D01*
X126144091Y-87442517D01*
X126135443Y-87419331D01*
X126093797Y-87307670D01*
X126007549Y-87192458D01*
X126007548Y-87192457D01*
X126007546Y-87192454D01*
X126007541Y-87192450D01*
X125892448Y-87106291D01*
X125857195Y-87056282D01*
X125853785Y-87012948D01*
X125855647Y-87000000D01*
X125835165Y-86857543D01*
X125775377Y-86726627D01*
X125691180Y-86629458D01*
X125667363Y-86573100D01*
X125681222Y-86513505D01*
X125695992Y-86494628D01*
X126756125Y-85434496D01*
X126810642Y-85406719D01*
X126826129Y-85405500D01*
X130578200Y-85405500D01*
X130636391Y-85424407D01*
G37*
%TD.AperFunction*%
%TA.AperFunction,Conductor*%
G36*
X147708691Y-50269407D02*
G01*
X147744655Y-50318907D01*
X147749500Y-50349500D01*
X147749500Y-113650500D01*
X147730593Y-113708691D01*
X147681093Y-113744655D01*
X147650500Y-113749500D01*
X100349500Y-113749500D01*
X100291309Y-113730593D01*
X100255345Y-113681093D01*
X100250500Y-113650500D01*
X100250500Y-111121551D01*
X101395500Y-111121551D01*
X101427230Y-111362563D01*
X101427230Y-111362568D01*
X101490149Y-111597387D01*
X101583178Y-111821979D01*
X101685959Y-112000003D01*
X101704731Y-112032516D01*
X101852722Y-112225380D01*
X102024620Y-112397278D01*
X102217484Y-112545269D01*
X102428016Y-112666819D01*
X102428017Y-112666819D01*
X102428020Y-112666821D01*
X102620165Y-112746410D01*
X102652612Y-112759850D01*
X102887429Y-112822769D01*
X103128450Y-112854500D01*
X103128451Y-112854500D01*
X103371549Y-112854500D01*
X103371550Y-112854500D01*
X103612571Y-112822769D01*
X103847388Y-112759850D01*
X104071984Y-112666819D01*
X104282516Y-112545269D01*
X104475380Y-112397278D01*
X104647278Y-112225380D01*
X104795269Y-112032516D01*
X104814040Y-112000003D01*
X108744417Y-112000003D01*
X108764698Y-112205929D01*
X108764699Y-112205934D01*
X108824768Y-112403954D01*
X108922316Y-112586452D01*
X108988273Y-112666821D01*
X109053590Y-112746410D01*
X109053595Y-112746414D01*
X109213547Y-112877683D01*
X109213548Y-112877683D01*
X109213550Y-112877685D01*
X109396046Y-112975232D01*
X109533997Y-113017078D01*
X109594065Y-113035300D01*
X109594070Y-113035301D01*
X109799997Y-113055583D01*
X109800000Y-113055583D01*
X109800003Y-113055583D01*
X110005929Y-113035301D01*
X110005934Y-113035300D01*
X110203954Y-112975232D01*
X110386450Y-112877685D01*
X110546410Y-112746410D01*
X110677685Y-112586450D01*
X110775232Y-112403954D01*
X110835300Y-112205934D01*
X110835301Y-112205929D01*
X110855583Y-112000003D01*
X111284417Y-112000003D01*
X111304698Y-112205929D01*
X111304699Y-112205934D01*
X111364768Y-112403954D01*
X111462316Y-112586452D01*
X111528273Y-112666821D01*
X111593590Y-112746410D01*
X111593595Y-112746414D01*
X111753547Y-112877683D01*
X111753548Y-112877683D01*
X111753550Y-112877685D01*
X111936046Y-112975232D01*
X112073997Y-113017078D01*
X112134065Y-113035300D01*
X112134070Y-113035301D01*
X112339997Y-113055583D01*
X112340000Y-113055583D01*
X112340003Y-113055583D01*
X112545929Y-113035301D01*
X112545934Y-113035300D01*
X112743954Y-112975232D01*
X112926450Y-112877685D01*
X113086410Y-112746410D01*
X113217685Y-112586450D01*
X113315232Y-112403954D01*
X113375300Y-112205934D01*
X113375301Y-112205929D01*
X113395583Y-112000003D01*
X113824417Y-112000003D01*
X113844698Y-112205929D01*
X113844699Y-112205934D01*
X113904768Y-112403954D01*
X114002316Y-112586452D01*
X114068273Y-112666821D01*
X114133590Y-112746410D01*
X114133595Y-112746414D01*
X114293547Y-112877683D01*
X114293548Y-112877683D01*
X114293550Y-112877685D01*
X114476046Y-112975232D01*
X114613997Y-113017078D01*
X114674065Y-113035300D01*
X114674070Y-113035301D01*
X114879997Y-113055583D01*
X114880000Y-113055583D01*
X114880003Y-113055583D01*
X115085929Y-113035301D01*
X115085934Y-113035300D01*
X115283954Y-112975232D01*
X115466450Y-112877685D01*
X115626410Y-112746410D01*
X115757685Y-112586450D01*
X115855232Y-112403954D01*
X115915300Y-112205934D01*
X115915301Y-112205929D01*
X115935583Y-112000003D01*
X116364417Y-112000003D01*
X116384698Y-112205929D01*
X116384699Y-112205934D01*
X116444768Y-112403954D01*
X116542316Y-112586452D01*
X116608273Y-112666821D01*
X116673590Y-112746410D01*
X116673595Y-112746414D01*
X116833547Y-112877683D01*
X116833548Y-112877683D01*
X116833550Y-112877685D01*
X117016046Y-112975232D01*
X117153997Y-113017078D01*
X117214065Y-113035300D01*
X117214070Y-113035301D01*
X117419997Y-113055583D01*
X117420000Y-113055583D01*
X117420003Y-113055583D01*
X117625929Y-113035301D01*
X117625934Y-113035300D01*
X117823954Y-112975232D01*
X118006450Y-112877685D01*
X118166410Y-112746410D01*
X118297685Y-112586450D01*
X118395232Y-112403954D01*
X118455300Y-112205934D01*
X118455301Y-112205929D01*
X118475583Y-112000003D01*
X121444417Y-112000003D01*
X121464698Y-112205929D01*
X121464699Y-112205934D01*
X121524768Y-112403954D01*
X121622316Y-112586452D01*
X121688273Y-112666821D01*
X121753590Y-112746410D01*
X121753595Y-112746414D01*
X121913547Y-112877683D01*
X121913548Y-112877683D01*
X121913550Y-112877685D01*
X122096046Y-112975232D01*
X122233997Y-113017078D01*
X122294065Y-113035300D01*
X122294070Y-113035301D01*
X122499997Y-113055583D01*
X122500000Y-113055583D01*
X122500003Y-113055583D01*
X122705929Y-113035301D01*
X122705934Y-113035300D01*
X122903954Y-112975232D01*
X123086450Y-112877685D01*
X123246410Y-112746410D01*
X123377685Y-112586450D01*
X123475232Y-112403954D01*
X123535300Y-112205934D01*
X123535301Y-112205929D01*
X123555583Y-112000003D01*
X123555583Y-111999996D01*
X123535301Y-111794070D01*
X123535300Y-111794065D01*
X123489220Y-111642159D01*
X123475232Y-111596046D01*
X123377685Y-111413550D01*
X123335845Y-111362568D01*
X123246414Y-111253595D01*
X123246410Y-111253590D01*
X123246404Y-111253585D01*
X123086452Y-111122316D01*
X122903954Y-111024768D01*
X122705934Y-110964699D01*
X122705929Y-110964698D01*
X122500003Y-110944417D01*
X122499997Y-110944417D01*
X122294070Y-110964698D01*
X122294065Y-110964699D01*
X122096045Y-111024768D01*
X121913547Y-111122316D01*
X121753595Y-111253585D01*
X121753585Y-111253595D01*
X121622316Y-111413547D01*
X121524768Y-111596045D01*
X121464699Y-111794065D01*
X121464698Y-111794070D01*
X121444417Y-111999996D01*
X121444417Y-112000003D01*
X118475583Y-112000003D01*
X118475583Y-111999996D01*
X118455301Y-111794070D01*
X118455300Y-111794065D01*
X118409220Y-111642159D01*
X118395232Y-111596046D01*
X118297685Y-111413550D01*
X118255845Y-111362568D01*
X118166414Y-111253595D01*
X118166410Y-111253590D01*
X118166404Y-111253585D01*
X118006452Y-111122316D01*
X117823954Y-111024768D01*
X117625934Y-110964699D01*
X117625929Y-110964698D01*
X117420003Y-110944417D01*
X117419997Y-110944417D01*
X117214070Y-110964698D01*
X117214065Y-110964699D01*
X117016045Y-111024768D01*
X116833547Y-111122316D01*
X116673595Y-111253585D01*
X116673585Y-111253595D01*
X116542316Y-111413547D01*
X116444768Y-111596045D01*
X116384699Y-111794065D01*
X116384698Y-111794070D01*
X116364417Y-111999996D01*
X116364417Y-112000003D01*
X115935583Y-112000003D01*
X115935583Y-111999996D01*
X115915301Y-111794070D01*
X115915300Y-111794065D01*
X115869220Y-111642159D01*
X115855232Y-111596046D01*
X115757685Y-111413550D01*
X115715845Y-111362568D01*
X115626414Y-111253595D01*
X115626410Y-111253590D01*
X115626404Y-111253585D01*
X115466452Y-111122316D01*
X115283954Y-111024768D01*
X115085934Y-110964699D01*
X115085929Y-110964698D01*
X114880003Y-110944417D01*
X114879997Y-110944417D01*
X114674070Y-110964698D01*
X114674065Y-110964699D01*
X114476045Y-111024768D01*
X114293547Y-111122316D01*
X114133595Y-111253585D01*
X114133585Y-111253595D01*
X114002316Y-111413547D01*
X113904768Y-111596045D01*
X113844699Y-111794065D01*
X113844698Y-111794070D01*
X113824417Y-111999996D01*
X113824417Y-112000003D01*
X113395583Y-112000003D01*
X113395583Y-111999996D01*
X113375301Y-111794070D01*
X113375300Y-111794065D01*
X113329220Y-111642159D01*
X113315232Y-111596046D01*
X113217685Y-111413550D01*
X113175845Y-111362568D01*
X113086414Y-111253595D01*
X113086410Y-111253590D01*
X113086404Y-111253585D01*
X112926452Y-111122316D01*
X112743954Y-111024768D01*
X112545934Y-110964699D01*
X112545929Y-110964698D01*
X112340003Y-110944417D01*
X112339997Y-110944417D01*
X112134070Y-110964698D01*
X112134065Y-110964699D01*
X111936045Y-111024768D01*
X111753547Y-111122316D01*
X111593595Y-111253585D01*
X111593585Y-111253595D01*
X111462316Y-111413547D01*
X111364768Y-111596045D01*
X111304699Y-111794065D01*
X111304698Y-111794070D01*
X111284417Y-111999996D01*
X111284417Y-112000003D01*
X110855583Y-112000003D01*
X110855583Y-111999996D01*
X110835301Y-111794070D01*
X110835300Y-111794065D01*
X110789220Y-111642159D01*
X110775232Y-111596046D01*
X110677685Y-111413550D01*
X110635845Y-111362568D01*
X110546414Y-111253595D01*
X110546410Y-111253590D01*
X110546404Y-111253585D01*
X110386452Y-111122316D01*
X110203954Y-111024768D01*
X110005934Y-110964699D01*
X110005929Y-110964698D01*
X109800003Y-110944417D01*
X109799997Y-110944417D01*
X109594070Y-110964698D01*
X109594065Y-110964699D01*
X109396045Y-111024768D01*
X109213547Y-111122316D01*
X109053595Y-111253585D01*
X109053585Y-111253595D01*
X108922316Y-111413547D01*
X108824768Y-111596045D01*
X108764699Y-111794065D01*
X108764698Y-111794070D01*
X108744417Y-111999996D01*
X108744417Y-112000003D01*
X104814040Y-112000003D01*
X104916819Y-111821984D01*
X105009850Y-111597388D01*
X105072769Y-111362571D01*
X105104500Y-111121550D01*
X105104500Y-110878450D01*
X105072769Y-110637429D01*
X105009850Y-110402612D01*
X104982956Y-110337685D01*
X104916821Y-110178020D01*
X104888305Y-110128629D01*
X104795269Y-109967484D01*
X104647278Y-109774620D01*
X104475380Y-109602722D01*
X104381362Y-109530579D01*
X104289387Y-109460003D01*
X108744417Y-109460003D01*
X108764698Y-109665929D01*
X108764699Y-109665934D01*
X108824768Y-109863954D01*
X108922316Y-110046452D01*
X108989756Y-110128628D01*
X109053590Y-110206410D01*
X109053595Y-110206414D01*
X109213547Y-110337683D01*
X109213548Y-110337683D01*
X109213550Y-110337685D01*
X109396046Y-110435232D01*
X109533997Y-110477078D01*
X109594065Y-110495300D01*
X109594070Y-110495301D01*
X109799997Y-110515583D01*
X109800000Y-110515583D01*
X109800003Y-110515583D01*
X110005929Y-110495301D01*
X110005934Y-110495300D01*
X110203954Y-110435232D01*
X110386450Y-110337685D01*
X110546410Y-110206410D01*
X110677685Y-110046450D01*
X110775232Y-109863954D01*
X110835300Y-109665934D01*
X110835301Y-109665929D01*
X110855583Y-109460003D01*
X111284417Y-109460003D01*
X111304698Y-109665929D01*
X111304699Y-109665934D01*
X111364768Y-109863954D01*
X111462316Y-110046452D01*
X111529756Y-110128628D01*
X111593590Y-110206410D01*
X111593595Y-110206414D01*
X111753547Y-110337683D01*
X111753548Y-110337683D01*
X111753550Y-110337685D01*
X111936046Y-110435232D01*
X112073997Y-110477078D01*
X112134065Y-110495300D01*
X112134070Y-110495301D01*
X112339997Y-110515583D01*
X112340000Y-110515583D01*
X112340003Y-110515583D01*
X112545929Y-110495301D01*
X112545934Y-110495300D01*
X112743954Y-110435232D01*
X112926450Y-110337685D01*
X113086410Y-110206410D01*
X113217685Y-110046450D01*
X113315232Y-109863954D01*
X113375300Y-109665934D01*
X113375301Y-109665929D01*
X113395583Y-109460003D01*
X113824417Y-109460003D01*
X113844698Y-109665929D01*
X113844699Y-109665934D01*
X113904768Y-109863954D01*
X114002316Y-110046452D01*
X114069756Y-110128628D01*
X114133590Y-110206410D01*
X114133595Y-110206414D01*
X114293547Y-110337683D01*
X114293548Y-110337683D01*
X114293550Y-110337685D01*
X114476046Y-110435232D01*
X114613997Y-110477078D01*
X114674065Y-110495300D01*
X114674070Y-110495301D01*
X114879997Y-110515583D01*
X114880000Y-110515583D01*
X114880003Y-110515583D01*
X115085929Y-110495301D01*
X115085934Y-110495300D01*
X115283954Y-110435232D01*
X115466450Y-110337685D01*
X115626410Y-110206410D01*
X115757685Y-110046450D01*
X115855232Y-109863954D01*
X115915300Y-109665934D01*
X115915301Y-109665929D01*
X115935583Y-109460003D01*
X115935583Y-109459996D01*
X115915301Y-109254070D01*
X115915300Y-109254065D01*
X115891992Y-109177230D01*
X115855232Y-109056046D01*
X115757685Y-108873550D01*
X115752380Y-108867086D01*
X115650413Y-108742838D01*
X115626410Y-108713590D01*
X115626404Y-108713585D01*
X115466452Y-108582316D01*
X115283954Y-108484768D01*
X115085934Y-108424699D01*
X115085929Y-108424698D01*
X114880003Y-108404417D01*
X114879997Y-108404417D01*
X114674070Y-108424698D01*
X114674065Y-108424699D01*
X114476045Y-108484768D01*
X114293547Y-108582316D01*
X114133595Y-108713585D01*
X114133585Y-108713595D01*
X114002316Y-108873547D01*
X113904768Y-109056045D01*
X113844699Y-109254065D01*
X113844698Y-109254070D01*
X113824417Y-109459996D01*
X113824417Y-109460003D01*
X113395583Y-109460003D01*
X113395583Y-109459996D01*
X113375301Y-109254070D01*
X113375300Y-109254065D01*
X113351992Y-109177230D01*
X113315232Y-109056046D01*
X113217685Y-108873550D01*
X113212380Y-108867086D01*
X113110413Y-108742838D01*
X113086410Y-108713590D01*
X113086404Y-108713585D01*
X112926452Y-108582316D01*
X112743954Y-108484768D01*
X112545934Y-108424699D01*
X112545929Y-108424698D01*
X112340003Y-108404417D01*
X112339997Y-108404417D01*
X112134070Y-108424698D01*
X112134065Y-108424699D01*
X111936045Y-108484768D01*
X111753547Y-108582316D01*
X111593595Y-108713585D01*
X111593585Y-108713595D01*
X111462316Y-108873547D01*
X111364768Y-109056045D01*
X111304699Y-109254065D01*
X111304698Y-109254070D01*
X111284417Y-109459996D01*
X111284417Y-109460003D01*
X110855583Y-109460003D01*
X110855583Y-109459996D01*
X110835301Y-109254070D01*
X110835300Y-109254065D01*
X110811992Y-109177230D01*
X110775232Y-109056046D01*
X110677685Y-108873550D01*
X110672380Y-108867086D01*
X110570413Y-108742838D01*
X110546410Y-108713590D01*
X110546404Y-108713585D01*
X110386452Y-108582316D01*
X110203954Y-108484768D01*
X110005934Y-108424699D01*
X110005929Y-108424698D01*
X109800003Y-108404417D01*
X109799997Y-108404417D01*
X109594070Y-108424698D01*
X109594065Y-108424699D01*
X109396045Y-108484768D01*
X109213547Y-108582316D01*
X109053595Y-108713585D01*
X109053585Y-108713595D01*
X108922316Y-108873547D01*
X108824768Y-109056045D01*
X108764699Y-109254065D01*
X108764698Y-109254070D01*
X108744417Y-109459996D01*
X108744417Y-109460003D01*
X104289387Y-109460003D01*
X104282515Y-109454730D01*
X104071979Y-109333178D01*
X103847387Y-109240149D01*
X103687001Y-109197174D01*
X103612571Y-109177231D01*
X103612568Y-109177230D01*
X103612566Y-109177230D01*
X103371551Y-109145500D01*
X103371550Y-109145500D01*
X103128450Y-109145500D01*
X103128448Y-109145500D01*
X102887436Y-109177230D01*
X102887431Y-109177230D01*
X102652612Y-109240149D01*
X102428020Y-109333178D01*
X102217484Y-109454730D01*
X102024623Y-109602719D01*
X101852719Y-109774623D01*
X101704730Y-109967484D01*
X101583178Y-110178020D01*
X101490149Y-110402612D01*
X101427230Y-110637431D01*
X101427230Y-110637436D01*
X101395500Y-110878448D01*
X101395500Y-111121551D01*
X100250500Y-111121551D01*
X100250500Y-106920003D01*
X108744417Y-106920003D01*
X108764698Y-107125929D01*
X108764699Y-107125934D01*
X108824768Y-107323954D01*
X108922316Y-107506452D01*
X108997570Y-107598149D01*
X109053590Y-107666410D01*
X109082838Y-107690413D01*
X109213547Y-107797683D01*
X109213548Y-107797683D01*
X109213550Y-107797685D01*
X109396046Y-107895232D01*
X109533997Y-107937078D01*
X109594065Y-107955300D01*
X109594070Y-107955301D01*
X109799997Y-107975583D01*
X109800000Y-107975583D01*
X109800003Y-107975583D01*
X110005929Y-107955301D01*
X110005934Y-107955300D01*
X110203954Y-107895232D01*
X110386450Y-107797685D01*
X110546410Y-107666410D01*
X110677685Y-107506450D01*
X110775232Y-107323954D01*
X110835300Y-107125934D01*
X110835301Y-107125929D01*
X110855583Y-106920003D01*
X111284417Y-106920003D01*
X111304698Y-107125929D01*
X111304699Y-107125934D01*
X111364768Y-107323954D01*
X111462316Y-107506452D01*
X111537570Y-107598149D01*
X111593590Y-107666410D01*
X111622838Y-107690413D01*
X111753547Y-107797683D01*
X111753548Y-107797683D01*
X111753550Y-107797685D01*
X111936046Y-107895232D01*
X112073997Y-107937078D01*
X112134065Y-107955300D01*
X112134070Y-107955301D01*
X112339997Y-107975583D01*
X112340000Y-107975583D01*
X112340003Y-107975583D01*
X112545929Y-107955301D01*
X112545934Y-107955300D01*
X112743954Y-107895232D01*
X112926450Y-107797685D01*
X113086410Y-107666410D01*
X113217685Y-107506450D01*
X113315232Y-107323954D01*
X113375300Y-107125934D01*
X113375301Y-107125929D01*
X113395583Y-106920003D01*
X113824417Y-106920003D01*
X113844698Y-107125929D01*
X113844699Y-107125934D01*
X113904768Y-107323954D01*
X114002316Y-107506452D01*
X114077570Y-107598149D01*
X114133590Y-107666410D01*
X114162838Y-107690413D01*
X114293547Y-107797683D01*
X114293548Y-107797683D01*
X114293550Y-107797685D01*
X114476046Y-107895232D01*
X114613997Y-107937078D01*
X114674065Y-107955300D01*
X114674070Y-107955301D01*
X114879997Y-107975583D01*
X114880000Y-107975583D01*
X114880003Y-107975583D01*
X115085929Y-107955301D01*
X115085934Y-107955300D01*
X115283954Y-107895232D01*
X115466450Y-107797685D01*
X115626410Y-107666410D01*
X115757685Y-107506450D01*
X115855232Y-107323954D01*
X115915300Y-107125934D01*
X115915301Y-107125929D01*
X115935583Y-106920003D01*
X115935583Y-106919996D01*
X115915301Y-106714070D01*
X115915300Y-106714065D01*
X115878817Y-106593796D01*
X115855232Y-106516046D01*
X115757685Y-106333550D01*
X115695260Y-106257485D01*
X115626414Y-106173595D01*
X115626410Y-106173590D01*
X115626404Y-106173585D01*
X115466452Y-106042316D01*
X115283954Y-105944768D01*
X115085934Y-105884699D01*
X115085929Y-105884698D01*
X114880003Y-105864417D01*
X114879997Y-105864417D01*
X114674070Y-105884698D01*
X114674065Y-105884699D01*
X114476045Y-105944768D01*
X114293547Y-106042316D01*
X114133595Y-106173585D01*
X114133585Y-106173595D01*
X114002316Y-106333547D01*
X113904768Y-106516045D01*
X113844699Y-106714065D01*
X113844698Y-106714070D01*
X113824417Y-106919996D01*
X113824417Y-106920003D01*
X113395583Y-106920003D01*
X113395583Y-106919996D01*
X113375301Y-106714070D01*
X113375300Y-106714065D01*
X113338817Y-106593796D01*
X113315232Y-106516046D01*
X113217685Y-106333550D01*
X113155260Y-106257485D01*
X113086414Y-106173595D01*
X113086410Y-106173590D01*
X113086404Y-106173585D01*
X112926452Y-106042316D01*
X112743954Y-105944768D01*
X112545934Y-105884699D01*
X112545929Y-105884698D01*
X112340003Y-105864417D01*
X112339997Y-105864417D01*
X112134070Y-105884698D01*
X112134065Y-105884699D01*
X111936045Y-105944768D01*
X111753547Y-106042316D01*
X111593595Y-106173585D01*
X111593585Y-106173595D01*
X111462316Y-106333547D01*
X111364768Y-106516045D01*
X111304699Y-106714065D01*
X111304698Y-106714070D01*
X111284417Y-106919996D01*
X111284417Y-106920003D01*
X110855583Y-106920003D01*
X110855583Y-106919996D01*
X110835301Y-106714070D01*
X110835300Y-106714065D01*
X110798817Y-106593796D01*
X110775232Y-106516046D01*
X110677685Y-106333550D01*
X110615260Y-106257485D01*
X110546414Y-106173595D01*
X110546410Y-106173590D01*
X110546404Y-106173585D01*
X110386452Y-106042316D01*
X110203954Y-105944768D01*
X110005934Y-105884699D01*
X110005929Y-105884698D01*
X109800003Y-105864417D01*
X109799997Y-105864417D01*
X109594070Y-105884698D01*
X109594065Y-105884699D01*
X109396045Y-105944768D01*
X109213547Y-106042316D01*
X109053595Y-106173585D01*
X109053585Y-106173595D01*
X108922316Y-106333547D01*
X108824768Y-106516045D01*
X108764699Y-106714065D01*
X108764698Y-106714070D01*
X108744417Y-106919996D01*
X108744417Y-106920003D01*
X100250500Y-106920003D01*
X100250500Y-104380003D01*
X108744417Y-104380003D01*
X108764698Y-104585929D01*
X108764699Y-104585934D01*
X108824768Y-104783954D01*
X108922316Y-104966452D01*
X108995732Y-105055910D01*
X109053590Y-105126410D01*
X109053595Y-105126414D01*
X109213547Y-105257683D01*
X109213548Y-105257683D01*
X109213550Y-105257685D01*
X109396046Y-105355232D01*
X109533997Y-105397078D01*
X109594065Y-105415300D01*
X109594070Y-105415301D01*
X109799997Y-105435583D01*
X109800000Y-105435583D01*
X109800003Y-105435583D01*
X110005929Y-105415301D01*
X110005934Y-105415300D01*
X110203954Y-105355232D01*
X110386450Y-105257685D01*
X110546410Y-105126410D01*
X110677685Y-104966450D01*
X110775232Y-104783954D01*
X110835300Y-104585934D01*
X110835301Y-104585929D01*
X110855583Y-104380003D01*
X111284417Y-104380003D01*
X111304698Y-104585929D01*
X111304699Y-104585934D01*
X111364768Y-104783954D01*
X111462316Y-104966452D01*
X111535732Y-105055910D01*
X111593590Y-105126410D01*
X111593595Y-105126414D01*
X111753547Y-105257683D01*
X111753548Y-105257683D01*
X111753550Y-105257685D01*
X111936046Y-105355232D01*
X112073997Y-105397078D01*
X112134065Y-105415300D01*
X112134070Y-105415301D01*
X112339997Y-105435583D01*
X112340000Y-105435583D01*
X112340003Y-105435583D01*
X112545929Y-105415301D01*
X112545934Y-105415300D01*
X112743954Y-105355232D01*
X112926450Y-105257685D01*
X113086410Y-105126410D01*
X113217685Y-104966450D01*
X113315232Y-104783954D01*
X113375300Y-104585934D01*
X113375301Y-104585929D01*
X113395583Y-104380003D01*
X113824417Y-104380003D01*
X113844698Y-104585929D01*
X113844699Y-104585934D01*
X113904768Y-104783954D01*
X114002316Y-104966452D01*
X114075732Y-105055910D01*
X114133590Y-105126410D01*
X114133595Y-105126414D01*
X114293547Y-105257683D01*
X114293548Y-105257683D01*
X114293550Y-105257685D01*
X114476046Y-105355232D01*
X114613997Y-105397078D01*
X114674065Y-105415300D01*
X114674070Y-105415301D01*
X114879997Y-105435583D01*
X114880000Y-105435583D01*
X114880003Y-105435583D01*
X115085929Y-105415301D01*
X115085934Y-105415300D01*
X115283954Y-105355232D01*
X115466450Y-105257685D01*
X115626410Y-105126410D01*
X115757685Y-104966450D01*
X115855232Y-104783954D01*
X115915300Y-104585934D01*
X115915301Y-104585929D01*
X115935583Y-104380003D01*
X115935583Y-104379996D01*
X115915301Y-104174070D01*
X115915300Y-104174065D01*
X115867225Y-104015583D01*
X115855232Y-103976046D01*
X115838880Y-103945455D01*
X115828123Y-103885223D01*
X115854824Y-103830171D01*
X115856125Y-103828845D01*
X116090460Y-103594511D01*
X116093317Y-103589562D01*
X116130021Y-103525989D01*
X116150500Y-103449562D01*
X116150500Y-98967547D01*
X116156505Y-98933591D01*
X116185117Y-98855231D01*
X116316364Y-98495789D01*
X116317402Y-98489563D01*
X116325003Y-98464707D01*
X116335165Y-98442456D01*
X116335165Y-98442455D01*
X116335166Y-98442452D01*
X116355647Y-98300000D01*
X116335165Y-98157543D01*
X116275377Y-98026627D01*
X116181128Y-97917857D01*
X116181127Y-97917856D01*
X116181126Y-97917855D01*
X116060057Y-97840049D01*
X116060054Y-97840047D01*
X116060053Y-97840047D01*
X116060050Y-97840046D01*
X115921964Y-97799500D01*
X115921961Y-97799500D01*
X115778039Y-97799500D01*
X115778035Y-97799500D01*
X115639949Y-97840046D01*
X115639942Y-97840049D01*
X115518873Y-97917855D01*
X115424622Y-98026628D01*
X115364834Y-98157543D01*
X115344353Y-98299997D01*
X115344353Y-98300002D01*
X115364833Y-98442452D01*
X115364835Y-98442457D01*
X115375098Y-98464931D01*
X115382875Y-98490887D01*
X115383633Y-98495779D01*
X115383634Y-98495781D01*
X115383635Y-98495786D01*
X115445091Y-98664093D01*
X115543495Y-98933591D01*
X115549500Y-98967547D01*
X115549500Y-103244521D01*
X115530593Y-103302712D01*
X115520503Y-103314525D01*
X115431215Y-103403812D01*
X115376698Y-103431589D01*
X115316266Y-103422017D01*
X115314544Y-103421118D01*
X115283959Y-103404770D01*
X115283954Y-103404768D01*
X115085934Y-103344699D01*
X115085929Y-103344698D01*
X114880003Y-103324417D01*
X114879997Y-103324417D01*
X114674070Y-103344698D01*
X114674065Y-103344699D01*
X114476045Y-103404768D01*
X114293547Y-103502316D01*
X114133595Y-103633585D01*
X114133585Y-103633595D01*
X114002316Y-103793547D01*
X113904768Y-103976045D01*
X113844699Y-104174065D01*
X113844698Y-104174070D01*
X113824417Y-104379996D01*
X113824417Y-104380003D01*
X113395583Y-104380003D01*
X113395583Y-104379996D01*
X113375301Y-104174070D01*
X113375300Y-104174065D01*
X113327225Y-104015583D01*
X113315232Y-103976046D01*
X113217685Y-103793550D01*
X113146171Y-103706410D01*
X113086414Y-103633595D01*
X113086410Y-103633590D01*
X113086404Y-103633585D01*
X112926452Y-103502316D01*
X112743954Y-103404768D01*
X112545934Y-103344699D01*
X112545929Y-103344698D01*
X112340003Y-103324417D01*
X112339997Y-103324417D01*
X112134070Y-103344698D01*
X112134065Y-103344699D01*
X111936045Y-103404768D01*
X111753547Y-103502316D01*
X111593595Y-103633585D01*
X111593585Y-103633595D01*
X111462316Y-103793547D01*
X111364768Y-103976045D01*
X111304699Y-104174065D01*
X111304698Y-104174070D01*
X111284417Y-104379996D01*
X111284417Y-104380003D01*
X110855583Y-104380003D01*
X110855583Y-104379996D01*
X110835301Y-104174070D01*
X110835300Y-104174065D01*
X110787225Y-104015583D01*
X110775232Y-103976046D01*
X110677685Y-103793550D01*
X110606171Y-103706410D01*
X110546414Y-103633595D01*
X110546410Y-103633590D01*
X110546404Y-103633585D01*
X110386452Y-103502316D01*
X110203954Y-103404768D01*
X110005934Y-103344699D01*
X110005929Y-103344698D01*
X109800003Y-103324417D01*
X109799997Y-103324417D01*
X109594070Y-103344698D01*
X109594065Y-103344699D01*
X109396045Y-103404768D01*
X109213547Y-103502316D01*
X109053595Y-103633585D01*
X109053585Y-103633595D01*
X108922316Y-103793547D01*
X108824768Y-103976045D01*
X108764699Y-104174065D01*
X108764698Y-104174070D01*
X108744417Y-104379996D01*
X108744417Y-104380003D01*
X100250500Y-104380003D01*
X100250500Y-102960003D01*
X101444417Y-102960003D01*
X101464698Y-103165929D01*
X101464699Y-103165934D01*
X101524768Y-103363954D01*
X101622316Y-103546452D01*
X101753585Y-103706404D01*
X101753590Y-103706410D01*
X101753595Y-103706414D01*
X101913547Y-103837683D01*
X101913548Y-103837683D01*
X101913550Y-103837685D01*
X102096046Y-103935232D01*
X102230580Y-103976042D01*
X102294065Y-103995300D01*
X102294070Y-103995301D01*
X102499997Y-104015583D01*
X102500000Y-104015583D01*
X102500003Y-104015583D01*
X102705929Y-103995301D01*
X102705934Y-103995300D01*
X102903954Y-103935232D01*
X103086450Y-103837685D01*
X103246410Y-103706410D01*
X103377685Y-103546450D01*
X103475232Y-103363954D01*
X103535300Y-103165934D01*
X103535301Y-103165929D01*
X103555583Y-102960003D01*
X103555583Y-102959996D01*
X103535301Y-102754070D01*
X103535300Y-102754065D01*
X103517078Y-102693997D01*
X103475232Y-102556046D01*
X103377685Y-102373550D01*
X103246410Y-102213590D01*
X103246404Y-102213585D01*
X103086452Y-102082316D01*
X102903954Y-101984768D01*
X102705934Y-101924699D01*
X102705929Y-101924698D01*
X102500003Y-101904417D01*
X102499997Y-101904417D01*
X102294070Y-101924698D01*
X102294065Y-101924699D01*
X102096045Y-101984768D01*
X101913547Y-102082316D01*
X101753595Y-102213585D01*
X101753585Y-102213595D01*
X101622316Y-102373547D01*
X101524768Y-102556045D01*
X101464699Y-102754065D01*
X101464698Y-102754070D01*
X101444417Y-102959996D01*
X101444417Y-102960003D01*
X100250500Y-102960003D01*
X100250500Y-100420003D01*
X101444417Y-100420003D01*
X101464698Y-100625929D01*
X101464699Y-100625934D01*
X101524768Y-100823954D01*
X101622316Y-101006452D01*
X101655909Y-101047385D01*
X101753590Y-101166410D01*
X101753595Y-101166414D01*
X101913547Y-101297683D01*
X101913548Y-101297683D01*
X101913550Y-101297685D01*
X102096046Y-101395232D01*
X102233997Y-101437078D01*
X102294065Y-101455300D01*
X102294070Y-101455301D01*
X102499997Y-101475583D01*
X102500000Y-101475583D01*
X102500003Y-101475583D01*
X102705929Y-101455301D01*
X102705934Y-101455300D01*
X102903954Y-101395232D01*
X103086450Y-101297685D01*
X103246410Y-101166410D01*
X103377685Y-101006450D01*
X103475232Y-100823954D01*
X103535300Y-100625934D01*
X103535301Y-100625929D01*
X103555583Y-100420003D01*
X103555583Y-100419996D01*
X103535301Y-100214070D01*
X103535300Y-100214065D01*
X103511163Y-100134496D01*
X103475232Y-100016046D01*
X103377685Y-99833550D01*
X103246410Y-99673590D01*
X103172219Y-99612703D01*
X103086452Y-99542316D01*
X103007291Y-99500003D01*
X107394659Y-99500003D01*
X107413974Y-99696126D01*
X107413975Y-99696129D01*
X107471187Y-99884730D01*
X107471188Y-99884732D01*
X107541377Y-100016045D01*
X107564090Y-100058538D01*
X107564092Y-100058540D01*
X107564093Y-100058542D01*
X107689112Y-100210878D01*
X107689121Y-100210887D01*
X107841457Y-100335906D01*
X107841462Y-100335910D01*
X107932407Y-100384521D01*
X107998775Y-100419996D01*
X108015273Y-100428814D01*
X108203868Y-100486024D01*
X108203870Y-100486024D01*
X108203873Y-100486025D01*
X108399997Y-100505341D01*
X108400000Y-100505341D01*
X108400003Y-100505341D01*
X108596126Y-100486025D01*
X108596127Y-100486024D01*
X108596132Y-100486024D01*
X108784727Y-100428814D01*
X108958538Y-100335910D01*
X109110883Y-100210883D01*
X109235910Y-100058538D01*
X109328814Y-99884727D01*
X109386024Y-99696132D01*
X109388245Y-99673590D01*
X109405341Y-99500003D01*
X112394659Y-99500003D01*
X112413974Y-99696126D01*
X112413975Y-99696129D01*
X112471187Y-99884730D01*
X112471188Y-99884732D01*
X112541377Y-100016045D01*
X112564090Y-100058538D01*
X112564092Y-100058540D01*
X112564093Y-100058542D01*
X112689112Y-100210878D01*
X112689121Y-100210887D01*
X112841457Y-100335906D01*
X112841462Y-100335910D01*
X112932407Y-100384521D01*
X112998775Y-100419996D01*
X113015273Y-100428814D01*
X113203868Y-100486024D01*
X113203870Y-100486024D01*
X113203873Y-100486025D01*
X113399997Y-100505341D01*
X113400000Y-100505341D01*
X113400003Y-100505341D01*
X113596126Y-100486025D01*
X113596127Y-100486024D01*
X113596132Y-100486024D01*
X113784727Y-100428814D01*
X113958538Y-100335910D01*
X114110883Y-100210883D01*
X114235910Y-100058538D01*
X114328814Y-99884727D01*
X114386024Y-99696132D01*
X114388245Y-99673590D01*
X114405341Y-99500003D01*
X114405341Y-99499996D01*
X114386025Y-99303873D01*
X114386024Y-99303870D01*
X114386024Y-99303868D01*
X114328814Y-99115273D01*
X114235910Y-98941462D01*
X114231085Y-98935583D01*
X114110887Y-98789121D01*
X114110878Y-98789112D01*
X113958542Y-98664093D01*
X113958540Y-98664092D01*
X113958538Y-98664090D01*
X113917618Y-98642218D01*
X113784732Y-98571188D01*
X113784730Y-98571187D01*
X113596129Y-98513975D01*
X113596126Y-98513974D01*
X113400003Y-98494659D01*
X113399997Y-98494659D01*
X113203873Y-98513974D01*
X113203870Y-98513975D01*
X113015269Y-98571187D01*
X113015267Y-98571188D01*
X112841467Y-98664087D01*
X112841457Y-98664093D01*
X112689121Y-98789112D01*
X112689112Y-98789121D01*
X112564093Y-98941457D01*
X112564087Y-98941467D01*
X112471188Y-99115267D01*
X112471187Y-99115269D01*
X112413975Y-99303870D01*
X112413974Y-99303873D01*
X112394659Y-99499996D01*
X112394659Y-99500003D01*
X109405341Y-99500003D01*
X109405341Y-99499996D01*
X109386025Y-99303873D01*
X109386024Y-99303870D01*
X109386024Y-99303868D01*
X109328814Y-99115273D01*
X109235910Y-98941462D01*
X109231085Y-98935583D01*
X109110887Y-98789121D01*
X109110878Y-98789112D01*
X108958542Y-98664093D01*
X108958540Y-98664092D01*
X108958538Y-98664090D01*
X108917618Y-98642218D01*
X108784732Y-98571188D01*
X108784730Y-98571187D01*
X108596129Y-98513975D01*
X108596126Y-98513974D01*
X108400003Y-98494659D01*
X108399997Y-98494659D01*
X108203873Y-98513974D01*
X108203870Y-98513975D01*
X108015269Y-98571187D01*
X108015267Y-98571188D01*
X107841467Y-98664087D01*
X107841457Y-98664093D01*
X107689121Y-98789112D01*
X107689112Y-98789121D01*
X107564093Y-98941457D01*
X107564087Y-98941467D01*
X107471188Y-99115267D01*
X107471187Y-99115269D01*
X107413975Y-99303870D01*
X107413974Y-99303873D01*
X107394659Y-99499996D01*
X107394659Y-99500003D01*
X103007291Y-99500003D01*
X102903954Y-99444768D01*
X102705934Y-99384699D01*
X102705929Y-99384698D01*
X102500003Y-99364417D01*
X102499997Y-99364417D01*
X102294070Y-99384698D01*
X102294065Y-99384699D01*
X102096045Y-99444768D01*
X101913547Y-99542316D01*
X101753595Y-99673585D01*
X101753585Y-99673595D01*
X101622316Y-99833547D01*
X101524768Y-100016045D01*
X101464699Y-100214065D01*
X101464698Y-100214070D01*
X101444417Y-100419996D01*
X101444417Y-100420003D01*
X100250500Y-100420003D01*
X100250500Y-97880003D01*
X101444417Y-97880003D01*
X101464698Y-98085929D01*
X101464699Y-98085934D01*
X101524768Y-98283954D01*
X101622316Y-98466452D01*
X101753585Y-98626404D01*
X101753590Y-98626410D01*
X101753595Y-98626414D01*
X101913547Y-98757683D01*
X101913548Y-98757683D01*
X101913550Y-98757685D01*
X102096046Y-98855232D01*
X102233997Y-98897078D01*
X102294065Y-98915300D01*
X102294070Y-98915301D01*
X102499997Y-98935583D01*
X102500000Y-98935583D01*
X102500003Y-98935583D01*
X102705929Y-98915301D01*
X102705934Y-98915300D01*
X102903954Y-98855232D01*
X103086450Y-98757685D01*
X103246410Y-98626410D01*
X103377685Y-98466450D01*
X103475232Y-98283954D01*
X103535300Y-98085934D01*
X103535301Y-98085929D01*
X103555583Y-97880003D01*
X103555583Y-97879996D01*
X103535301Y-97674070D01*
X103535300Y-97674069D01*
X103535300Y-97674066D01*
X103507776Y-97583330D01*
X103508977Y-97522160D01*
X103532507Y-97484594D01*
X103637607Y-97379496D01*
X103692124Y-97351719D01*
X103707610Y-97350500D01*
X111457712Y-97350500D01*
X111493083Y-97358195D01*
X111493153Y-97357958D01*
X111496468Y-97358931D01*
X111498838Y-97359447D01*
X111499943Y-97359951D01*
X111499944Y-97359951D01*
X111499947Y-97359953D01*
X111610211Y-97392329D01*
X111638035Y-97400499D01*
X111638036Y-97400499D01*
X111638039Y-97400500D01*
X111638041Y-97400500D01*
X111781959Y-97400500D01*
X111781961Y-97400500D01*
X111920053Y-97359953D01*
X112041128Y-97282143D01*
X112135377Y-97173373D01*
X112179776Y-97076151D01*
X112199821Y-97047280D01*
X113060489Y-96186614D01*
X113094731Y-96127304D01*
X113119799Y-96083886D01*
X113150500Y-95969309D01*
X113150500Y-92529900D01*
X114949500Y-92529900D01*
X114990138Y-92786488D01*
X115067789Y-93025471D01*
X115070421Y-93033572D01*
X115126733Y-93144090D01*
X115188074Y-93264479D01*
X115188366Y-93265051D01*
X115341069Y-93475229D01*
X115524771Y-93658931D01*
X115734949Y-93811634D01*
X115966428Y-93929579D01*
X116213507Y-94009860D01*
X116213508Y-94009860D01*
X116213511Y-94009861D01*
X116470100Y-94050500D01*
X116470103Y-94050500D01*
X116729900Y-94050500D01*
X116986488Y-94009861D01*
X116986489Y-94009860D01*
X116986493Y-94009860D01*
X117233572Y-93929579D01*
X117465051Y-93811634D01*
X117675229Y-93658931D01*
X117858931Y-93475229D01*
X118011634Y-93265051D01*
X118129579Y-93033572D01*
X118209860Y-92786493D01*
X118214454Y-92757488D01*
X118250500Y-92529900D01*
X118250500Y-91470099D01*
X118209861Y-91213511D01*
X118192325Y-91159539D01*
X118129579Y-90966428D01*
X118011634Y-90734949D01*
X117858931Y-90524771D01*
X117675229Y-90341069D01*
X117465051Y-90188366D01*
X117465050Y-90188365D01*
X117465048Y-90188364D01*
X117336508Y-90122870D01*
X117233572Y-90070421D01*
X117233569Y-90070420D01*
X117233567Y-90070419D01*
X116986488Y-89990138D01*
X116729900Y-89949500D01*
X116729897Y-89949500D01*
X116470103Y-89949500D01*
X116470100Y-89949500D01*
X116213511Y-89990138D01*
X115966432Y-90070419D01*
X115734951Y-90188364D01*
X115524772Y-90341068D01*
X115341068Y-90524772D01*
X115188364Y-90734951D01*
X115070419Y-90966432D01*
X114990138Y-91213511D01*
X114949500Y-91470099D01*
X114949500Y-92529900D01*
X113150500Y-92529900D01*
X113150500Y-88827611D01*
X113169407Y-88769420D01*
X113179496Y-88757607D01*
X114494592Y-87442511D01*
X115845609Y-86091493D01*
X115887718Y-86066510D01*
X115910053Y-86059953D01*
X115910056Y-86059950D01*
X115910059Y-86059950D01*
X115911166Y-86059445D01*
X115913538Y-86058928D01*
X115916849Y-86057957D01*
X115916918Y-86058193D01*
X115952288Y-86050500D01*
X119347712Y-86050500D01*
X119383083Y-86058195D01*
X119383153Y-86057958D01*
X119386468Y-86058931D01*
X119388838Y-86059447D01*
X119389943Y-86059951D01*
X119389944Y-86059951D01*
X119389947Y-86059953D01*
X119503939Y-86093423D01*
X119528035Y-86100499D01*
X119528036Y-86100499D01*
X119528039Y-86100500D01*
X119528041Y-86100500D01*
X119671959Y-86100500D01*
X119671961Y-86100500D01*
X119810053Y-86059953D01*
X119810056Y-86059950D01*
X119811162Y-86059447D01*
X119813531Y-86058931D01*
X119816847Y-86057958D01*
X119816916Y-86058195D01*
X119852288Y-86050500D01*
X122668872Y-86050500D01*
X122727063Y-86069407D01*
X122738876Y-86079496D01*
X122965503Y-86306123D01*
X122993280Y-86360640D01*
X122994499Y-86376127D01*
X122994499Y-89650506D01*
X122994500Y-89650510D01*
X122996791Y-89681100D01*
X123001190Y-89710311D01*
X123001660Y-89713276D01*
X123036322Y-89797909D01*
X123036323Y-89797911D01*
X123036324Y-89797912D01*
X123071532Y-89847952D01*
X123113538Y-89891252D01*
X123116298Y-89894098D01*
X123116298Y-89894099D01*
X123182886Y-89944039D01*
X123198305Y-89958408D01*
X123218869Y-89982140D01*
X123218872Y-89982143D01*
X123319414Y-90046756D01*
X123325256Y-90050817D01*
X123408009Y-90112882D01*
X123408024Y-90112892D01*
X123408025Y-90112893D01*
X123410856Y-90114832D01*
X123422606Y-90122878D01*
X123427463Y-90125905D01*
X123466846Y-90172731D01*
X123471184Y-90233762D01*
X123445101Y-90279926D01*
X118065489Y-95659540D01*
X118065488Y-95659539D01*
X118009539Y-95715489D01*
X117969980Y-95784007D01*
X117969978Y-95784011D01*
X117949500Y-95860435D01*
X117949500Y-103309366D01*
X117930593Y-103367557D01*
X117881093Y-103403521D01*
X117821762Y-103404103D01*
X117625934Y-103344699D01*
X117625929Y-103344698D01*
X117420003Y-103324417D01*
X117419997Y-103324417D01*
X117214070Y-103344698D01*
X117214065Y-103344699D01*
X117016045Y-103404768D01*
X116833547Y-103502316D01*
X116673595Y-103633585D01*
X116673585Y-103633595D01*
X116542316Y-103793547D01*
X116444768Y-103976045D01*
X116384699Y-104174065D01*
X116384698Y-104174070D01*
X116364417Y-104379996D01*
X116364417Y-104380003D01*
X116384698Y-104585929D01*
X116384699Y-104585934D01*
X116444768Y-104783954D01*
X116542316Y-104966452D01*
X116615732Y-105055910D01*
X116673590Y-105126410D01*
X116673595Y-105126414D01*
X116833547Y-105257683D01*
X116833548Y-105257683D01*
X116833550Y-105257685D01*
X117016046Y-105355232D01*
X117153997Y-105397078D01*
X117214065Y-105415300D01*
X117214070Y-105415301D01*
X117419997Y-105435583D01*
X117420000Y-105435583D01*
X117420003Y-105435583D01*
X117625929Y-105415301D01*
X117625934Y-105415300D01*
X117823954Y-105355232D01*
X118006450Y-105257685D01*
X118166410Y-105126410D01*
X118273972Y-104995343D01*
X118325503Y-104962357D01*
X118386582Y-104965959D01*
X118433879Y-105004774D01*
X118449500Y-105058149D01*
X118449500Y-106241850D01*
X118430593Y-106300041D01*
X118381093Y-106336005D01*
X118319907Y-106336005D01*
X118273972Y-106304655D01*
X118166414Y-106173595D01*
X118166410Y-106173590D01*
X118166404Y-106173585D01*
X118006452Y-106042316D01*
X117823954Y-105944768D01*
X117625934Y-105884699D01*
X117625929Y-105884698D01*
X117420003Y-105864417D01*
X117419997Y-105864417D01*
X117214070Y-105884698D01*
X117214065Y-105884699D01*
X117016045Y-105944768D01*
X116833547Y-106042316D01*
X116673595Y-106173585D01*
X116673585Y-106173595D01*
X116542316Y-106333547D01*
X116444768Y-106516045D01*
X116384699Y-106714065D01*
X116384698Y-106714070D01*
X116364417Y-106919996D01*
X116364417Y-106920003D01*
X116384698Y-107125929D01*
X116384699Y-107125934D01*
X116444768Y-107323954D01*
X116542316Y-107506452D01*
X116617570Y-107598149D01*
X116673590Y-107666410D01*
X116702838Y-107690413D01*
X116833547Y-107797683D01*
X116833548Y-107797683D01*
X116833550Y-107797685D01*
X117016046Y-107895232D01*
X117153997Y-107937078D01*
X117214065Y-107955300D01*
X117214070Y-107955301D01*
X117419997Y-107975583D01*
X117420000Y-107975583D01*
X117420003Y-107975583D01*
X117625929Y-107955301D01*
X117625934Y-107955300D01*
X117823954Y-107895232D01*
X118006450Y-107797685D01*
X118166410Y-107666410D01*
X118273972Y-107535343D01*
X118325503Y-107502357D01*
X118386582Y-107505959D01*
X118433879Y-107544774D01*
X118449500Y-107598149D01*
X118449500Y-107964520D01*
X118430593Y-108022711D01*
X118420503Y-108034524D01*
X117971214Y-108483812D01*
X117916698Y-108511589D01*
X117856266Y-108502018D01*
X117854583Y-108501139D01*
X117823954Y-108484768D01*
X117625934Y-108424699D01*
X117625929Y-108424698D01*
X117420003Y-108404417D01*
X117419997Y-108404417D01*
X117214070Y-108424698D01*
X117214065Y-108424699D01*
X117016045Y-108484768D01*
X116833547Y-108582316D01*
X116673595Y-108713585D01*
X116673585Y-108713595D01*
X116542316Y-108873547D01*
X116444768Y-109056045D01*
X116384699Y-109254065D01*
X116384698Y-109254070D01*
X116364417Y-109459996D01*
X116364417Y-109460003D01*
X116384698Y-109665929D01*
X116384699Y-109665934D01*
X116444768Y-109863954D01*
X116542316Y-110046452D01*
X116609756Y-110128628D01*
X116673590Y-110206410D01*
X116673595Y-110206414D01*
X116833547Y-110337683D01*
X116833548Y-110337683D01*
X116833550Y-110337685D01*
X117016046Y-110435232D01*
X117153997Y-110477078D01*
X117214065Y-110495300D01*
X117214070Y-110495301D01*
X117419997Y-110515583D01*
X117420000Y-110515583D01*
X117420003Y-110515583D01*
X117625929Y-110495301D01*
X117625934Y-110495300D01*
X117823954Y-110435232D01*
X118006450Y-110337685D01*
X118166410Y-110206410D01*
X118297685Y-110046450D01*
X118395232Y-109863954D01*
X118455300Y-109665934D01*
X118455301Y-109665929D01*
X118475583Y-109460003D01*
X121444417Y-109460003D01*
X121464698Y-109665929D01*
X121464699Y-109665934D01*
X121524768Y-109863954D01*
X121622316Y-110046452D01*
X121689756Y-110128628D01*
X121753590Y-110206410D01*
X121753595Y-110206414D01*
X121913547Y-110337683D01*
X121913548Y-110337683D01*
X121913550Y-110337685D01*
X122096046Y-110435232D01*
X122233997Y-110477078D01*
X122294065Y-110495300D01*
X122294070Y-110495301D01*
X122499997Y-110515583D01*
X122500000Y-110515583D01*
X122500003Y-110515583D01*
X122705929Y-110495301D01*
X122705934Y-110495300D01*
X122903954Y-110435232D01*
X123086450Y-110337685D01*
X123246410Y-110206410D01*
X123377685Y-110046450D01*
X123475232Y-109863954D01*
X123535300Y-109665934D01*
X123535301Y-109665929D01*
X123555583Y-109460003D01*
X123555583Y-109459996D01*
X123535301Y-109254070D01*
X123535300Y-109254065D01*
X123511992Y-109177230D01*
X123475232Y-109056046D01*
X123377685Y-108873550D01*
X123372380Y-108867086D01*
X123270413Y-108742838D01*
X123246410Y-108713590D01*
X123246404Y-108713585D01*
X123086452Y-108582316D01*
X122903954Y-108484768D01*
X122705934Y-108424699D01*
X122705929Y-108424698D01*
X122500003Y-108404417D01*
X122499997Y-108404417D01*
X122294070Y-108424698D01*
X122294065Y-108424699D01*
X122096045Y-108484768D01*
X121913547Y-108582316D01*
X121753595Y-108713585D01*
X121753585Y-108713595D01*
X121622316Y-108873547D01*
X121524768Y-109056045D01*
X121464699Y-109254065D01*
X121464698Y-109254070D01*
X121444417Y-109459996D01*
X121444417Y-109460003D01*
X118475583Y-109460003D01*
X118475583Y-109459996D01*
X118455301Y-109254070D01*
X118455300Y-109254065D01*
X118431992Y-109177230D01*
X118395232Y-109056046D01*
X118395229Y-109056040D01*
X118378881Y-109025454D01*
X118368125Y-108965221D01*
X118394827Y-108910170D01*
X118396134Y-108908835D01*
X118990460Y-108314511D01*
X119030021Y-108245989D01*
X119050500Y-108169562D01*
X119050500Y-106920003D01*
X121444417Y-106920003D01*
X121464698Y-107125929D01*
X121464699Y-107125934D01*
X121524768Y-107323954D01*
X121622316Y-107506452D01*
X121697570Y-107598149D01*
X121753590Y-107666410D01*
X121782838Y-107690413D01*
X121913547Y-107797683D01*
X121913548Y-107797683D01*
X121913550Y-107797685D01*
X122096046Y-107895232D01*
X122233997Y-107937078D01*
X122294065Y-107955300D01*
X122294070Y-107955301D01*
X122499997Y-107975583D01*
X122500000Y-107975583D01*
X122500003Y-107975583D01*
X122705929Y-107955301D01*
X122705934Y-107955300D01*
X122903954Y-107895232D01*
X123086450Y-107797685D01*
X123246410Y-107666410D01*
X123377685Y-107506450D01*
X123475232Y-107323954D01*
X123535300Y-107125934D01*
X123535301Y-107125929D01*
X123555583Y-106920003D01*
X123555583Y-106919996D01*
X123535301Y-106714070D01*
X123535300Y-106714065D01*
X123498817Y-106593796D01*
X123475232Y-106516046D01*
X123377685Y-106333550D01*
X123315260Y-106257485D01*
X123266332Y-106197866D01*
X123949500Y-106197866D01*
X123949501Y-106197870D01*
X123955908Y-106257480D01*
X123955909Y-106257485D01*
X124006202Y-106392329D01*
X124092450Y-106507541D01*
X124092454Y-106507546D01*
X124092457Y-106507548D01*
X124092458Y-106507549D01*
X124207670Y-106593797D01*
X124342511Y-106644089D01*
X124342512Y-106644089D01*
X124342517Y-106644091D01*
X124402127Y-106650500D01*
X125697872Y-106650499D01*
X125757483Y-106644091D01*
X125824907Y-106618943D01*
X125892329Y-106593797D01*
X125892329Y-106593796D01*
X125892331Y-106593796D01*
X126007546Y-106507546D01*
X126093796Y-106392331D01*
X126144091Y-106257483D01*
X126150500Y-106197873D01*
X126150499Y-105502128D01*
X126144091Y-105442517D01*
X126111536Y-105355232D01*
X126093797Y-105307670D01*
X126007549Y-105192458D01*
X126007548Y-105192457D01*
X126007546Y-105192454D01*
X126007541Y-105192450D01*
X125892329Y-105106202D01*
X125757488Y-105055910D01*
X125757483Y-105055909D01*
X125757481Y-105055908D01*
X125757477Y-105055908D01*
X125726249Y-105052550D01*
X125697873Y-105049500D01*
X125697870Y-105049500D01*
X124402133Y-105049500D01*
X124402129Y-105049500D01*
X124402128Y-105049501D01*
X124394949Y-105050272D01*
X124342519Y-105055908D01*
X124342514Y-105055909D01*
X124207670Y-105106202D01*
X124092458Y-105192450D01*
X124092450Y-105192458D01*
X124006202Y-105307670D01*
X123955910Y-105442511D01*
X123955908Y-105442522D01*
X123949500Y-105502129D01*
X123949500Y-106197866D01*
X123266332Y-106197866D01*
X123246414Y-106173595D01*
X123246410Y-106173590D01*
X123246404Y-106173585D01*
X123086452Y-106042316D01*
X122903954Y-105944768D01*
X122705934Y-105884699D01*
X122705929Y-105884698D01*
X122500003Y-105864417D01*
X122499997Y-105864417D01*
X122294070Y-105884698D01*
X122294065Y-105884699D01*
X122096045Y-105944768D01*
X121913547Y-106042316D01*
X121753595Y-106173585D01*
X121753585Y-106173595D01*
X121622316Y-106333547D01*
X121524768Y-106516045D01*
X121464699Y-106714065D01*
X121464698Y-106714070D01*
X121444417Y-106919996D01*
X121444417Y-106920003D01*
X119050500Y-106920003D01*
X119050500Y-104380003D01*
X121444417Y-104380003D01*
X121464698Y-104585929D01*
X121464699Y-104585934D01*
X121524768Y-104783954D01*
X121622316Y-104966452D01*
X121695732Y-105055910D01*
X121753590Y-105126410D01*
X121753595Y-105126414D01*
X121913547Y-105257683D01*
X121913548Y-105257683D01*
X121913550Y-105257685D01*
X122096046Y-105355232D01*
X122233997Y-105397078D01*
X122294065Y-105415300D01*
X122294070Y-105415301D01*
X122499997Y-105435583D01*
X122500000Y-105435583D01*
X122500003Y-105435583D01*
X122705929Y-105415301D01*
X122705934Y-105415300D01*
X122903954Y-105355232D01*
X123086450Y-105257685D01*
X123246410Y-105126410D01*
X123377685Y-104966450D01*
X123475232Y-104783954D01*
X123535300Y-104585934D01*
X123535301Y-104585929D01*
X123555583Y-104380003D01*
X123555583Y-104379996D01*
X123535301Y-104174070D01*
X123535300Y-104174065D01*
X123487225Y-104015583D01*
X123475232Y-103976046D01*
X123377685Y-103793550D01*
X123306171Y-103706410D01*
X123246414Y-103633595D01*
X123246410Y-103633590D01*
X123246404Y-103633585D01*
X123086452Y-103502316D01*
X122903954Y-103404768D01*
X122705934Y-103344699D01*
X122705929Y-103344698D01*
X122500003Y-103324417D01*
X122499997Y-103324417D01*
X122294070Y-103344698D01*
X122294065Y-103344699D01*
X122096045Y-103404768D01*
X121913547Y-103502316D01*
X121753595Y-103633585D01*
X121753585Y-103633595D01*
X121622316Y-103793547D01*
X121524768Y-103976045D01*
X121464699Y-104174065D01*
X121464698Y-104174070D01*
X121444417Y-104379996D01*
X121444417Y-104380003D01*
X119050500Y-104380003D01*
X119050500Y-96215479D01*
X119069407Y-96157288D01*
X119079496Y-96145475D01*
X122030496Y-93194475D01*
X122085013Y-93166698D01*
X122145445Y-93176269D01*
X122188710Y-93219534D01*
X122199500Y-93264479D01*
X122199500Y-100589564D01*
X122219978Y-100665988D01*
X122238533Y-100698125D01*
X122238534Y-100698128D01*
X122259535Y-100734505D01*
X122259538Y-100734508D01*
X122259540Y-100734511D01*
X123059540Y-101534511D01*
X123059539Y-101534511D01*
X123115489Y-101590460D01*
X123184007Y-101630019D01*
X123184011Y-101630021D01*
X123260435Y-101650499D01*
X123260437Y-101650500D01*
X123260438Y-101650500D01*
X123339562Y-101650500D01*
X123855481Y-101650500D01*
X123913672Y-101669407D01*
X123949636Y-101718907D01*
X123953914Y-101738921D01*
X123955908Y-101757480D01*
X123955909Y-101757485D01*
X124006202Y-101892329D01*
X124030435Y-101924700D01*
X124092454Y-102007546D01*
X124092457Y-102007548D01*
X124092458Y-102007549D01*
X124207670Y-102093797D01*
X124342511Y-102144089D01*
X124342512Y-102144089D01*
X124342517Y-102144091D01*
X124402127Y-102150500D01*
X125697872Y-102150499D01*
X125757483Y-102144091D01*
X125824907Y-102118943D01*
X125892329Y-102093797D01*
X125892329Y-102093796D01*
X125892331Y-102093796D01*
X126007546Y-102007546D01*
X126093796Y-101892331D01*
X126144091Y-101757483D01*
X126150500Y-101697873D01*
X126150499Y-101002128D01*
X126144091Y-100942517D01*
X126124521Y-100890046D01*
X126093797Y-100807670D01*
X126007549Y-100692458D01*
X126007548Y-100692457D01*
X126007546Y-100692454D01*
X126007541Y-100692450D01*
X125892329Y-100606202D01*
X125757488Y-100555910D01*
X125757483Y-100555909D01*
X125757481Y-100555908D01*
X125757477Y-100555908D01*
X125726249Y-100552550D01*
X125697873Y-100549500D01*
X125697870Y-100549500D01*
X124402133Y-100549500D01*
X124402129Y-100549500D01*
X124402128Y-100549501D01*
X124394949Y-100550272D01*
X124342519Y-100555908D01*
X124342514Y-100555909D01*
X124207670Y-100606202D01*
X124092458Y-100692450D01*
X124092450Y-100692458D01*
X124006202Y-100807670D01*
X123955910Y-100942511D01*
X123955908Y-100942521D01*
X123953913Y-100961083D01*
X123928893Y-101016919D01*
X123875833Y-101047385D01*
X123855480Y-101049500D01*
X123465479Y-101049500D01*
X123407288Y-101030593D01*
X123395475Y-101020504D01*
X122829496Y-100454525D01*
X122801719Y-100400008D01*
X122800500Y-100384521D01*
X122800500Y-93115478D01*
X122819407Y-93057287D01*
X122829490Y-93045480D01*
X123780498Y-92094471D01*
X123835013Y-92066696D01*
X123895445Y-92076267D01*
X123938710Y-92119532D01*
X123949500Y-92164477D01*
X123949500Y-92697866D01*
X123949501Y-92697870D01*
X123955908Y-92757480D01*
X123955909Y-92757485D01*
X124006202Y-92892329D01*
X124092450Y-93007541D01*
X124092454Y-93007546D01*
X124092457Y-93007548D01*
X124092458Y-93007549D01*
X124207670Y-93093797D01*
X124342511Y-93144089D01*
X124342512Y-93144089D01*
X124342517Y-93144091D01*
X124402127Y-93150500D01*
X125697872Y-93150499D01*
X125757483Y-93144091D01*
X125824907Y-93118943D01*
X125892329Y-93093797D01*
X125892329Y-93093796D01*
X125892331Y-93093796D01*
X126007546Y-93007546D01*
X126093796Y-92892331D01*
X126115550Y-92834007D01*
X126144089Y-92757488D01*
X126144090Y-92757485D01*
X126144091Y-92757483D01*
X126150500Y-92697873D01*
X126150499Y-92002128D01*
X126144091Y-91942517D01*
X126130139Y-91905110D01*
X126093797Y-91807670D01*
X126007549Y-91692458D01*
X126007548Y-91692457D01*
X126007546Y-91692454D01*
X126007541Y-91692450D01*
X125892329Y-91606202D01*
X125757488Y-91555910D01*
X125757483Y-91555909D01*
X125757481Y-91555908D01*
X125757477Y-91555908D01*
X125726249Y-91552550D01*
X125697873Y-91549500D01*
X125697870Y-91549500D01*
X124564476Y-91549500D01*
X124506285Y-91530593D01*
X124470321Y-91481093D01*
X124470321Y-91419907D01*
X124494471Y-91380499D01*
X124553513Y-91321458D01*
X124608030Y-91293682D01*
X124623515Y-91292463D01*
X125859990Y-91292463D01*
X125918181Y-91311370D01*
X125934806Y-91326630D01*
X125975945Y-91374106D01*
X126097020Y-91451916D01*
X126184806Y-91477692D01*
X126235108Y-91492462D01*
X126235109Y-91492462D01*
X126235112Y-91492463D01*
X126235114Y-91492463D01*
X126379032Y-91492463D01*
X126379034Y-91492463D01*
X126517126Y-91451916D01*
X126638201Y-91374106D01*
X126732450Y-91265336D01*
X126792238Y-91134420D01*
X126812720Y-90991963D01*
X126809049Y-90966432D01*
X126792238Y-90849506D01*
X126742249Y-90740047D01*
X126732450Y-90718590D01*
X126638201Y-90609820D01*
X126638200Y-90609819D01*
X126638199Y-90609818D01*
X126517130Y-90532012D01*
X126517127Y-90532010D01*
X126517126Y-90532010D01*
X126517123Y-90532009D01*
X126379037Y-90491463D01*
X126379034Y-90491463D01*
X126235112Y-90491463D01*
X126235108Y-90491463D01*
X126097022Y-90532009D01*
X126097015Y-90532012D01*
X126000448Y-90594072D01*
X125941273Y-90609627D01*
X125884256Y-90587428D01*
X125851177Y-90535955D01*
X125848933Y-90496699D01*
X125855647Y-90450002D01*
X125855647Y-90449997D01*
X125835165Y-90307543D01*
X125775377Y-90176628D01*
X125775377Y-90176627D01*
X125721828Y-90114828D01*
X125698012Y-90058473D01*
X125711870Y-89998877D01*
X125721820Y-89985180D01*
X125775377Y-89923373D01*
X125835165Y-89792457D01*
X125846982Y-89710267D01*
X125855647Y-89650002D01*
X125855647Y-89649997D01*
X125835165Y-89507543D01*
X125808248Y-89448604D01*
X125775377Y-89376627D01*
X125760966Y-89359996D01*
X125721398Y-89314331D01*
X125697580Y-89257972D01*
X125711439Y-89198376D01*
X125757680Y-89158309D01*
X125796217Y-89150500D01*
X126963810Y-89150500D01*
X127022001Y-89169407D01*
X127033814Y-89179496D01*
X127920504Y-90066186D01*
X127948281Y-90120703D01*
X127949500Y-90136190D01*
X127949500Y-92603287D01*
X127930593Y-92661478D01*
X127925320Y-92668117D01*
X127874623Y-92726626D01*
X127814834Y-92857543D01*
X127794353Y-92999996D01*
X127794353Y-92999997D01*
X127794353Y-93000000D01*
X127797442Y-93021483D01*
X127787007Y-93081772D01*
X127769453Y-93105574D01*
X127415489Y-93459539D01*
X127359539Y-93515489D01*
X127319980Y-93584007D01*
X127319978Y-93584011D01*
X127299500Y-93660435D01*
X127299500Y-105734521D01*
X127280593Y-105792712D01*
X127270504Y-105804525D01*
X125805489Y-107269540D01*
X125805488Y-107269539D01*
X125749539Y-107325489D01*
X125709980Y-107394007D01*
X125709978Y-107394011D01*
X125689500Y-107470435D01*
X125689500Y-107965024D01*
X125670593Y-108023215D01*
X125660504Y-108035028D01*
X125659597Y-108035934D01*
X125659596Y-108035935D01*
X125582955Y-108112576D01*
X125575933Y-108119598D01*
X125525932Y-108226824D01*
X125525932Y-108226825D01*
X125519500Y-108275685D01*
X125519500Y-108724314D01*
X125525932Y-108773174D01*
X125525932Y-108773175D01*
X125575933Y-108880401D01*
X125575934Y-108880402D01*
X125575935Y-108880404D01*
X125659596Y-108964065D01*
X125659597Y-108964065D01*
X125659598Y-108964066D01*
X125766824Y-109014067D01*
X125766825Y-109014067D01*
X125766827Y-109014068D01*
X125815684Y-109020500D01*
X125815685Y-109020500D01*
X126164314Y-109020500D01*
X126164316Y-109020500D01*
X126213173Y-109014068D01*
X126320404Y-108964065D01*
X126404065Y-108880404D01*
X126410275Y-108867085D01*
X126452003Y-108822337D01*
X126512064Y-108810662D01*
X126567517Y-108836519D01*
X126589724Y-108867084D01*
X126595935Y-108880404D01*
X126679596Y-108964065D01*
X126679597Y-108964065D01*
X126679598Y-108964066D01*
X126786824Y-109014067D01*
X126786825Y-109014067D01*
X126786827Y-109014068D01*
X126835684Y-109020500D01*
X126835685Y-109020500D01*
X127184314Y-109020500D01*
X127184316Y-109020500D01*
X127233173Y-109014068D01*
X127340404Y-108964065D01*
X127424065Y-108880404D01*
X127434671Y-108857660D01*
X127476399Y-108812912D01*
X127524395Y-108800500D01*
X128006728Y-108800500D01*
X128064919Y-108819407D01*
X128100883Y-108868907D01*
X128104509Y-108884009D01*
X128105049Y-108887421D01*
X128142388Y-108960701D01*
X128165342Y-109005751D01*
X128259249Y-109099658D01*
X128377580Y-109159951D01*
X128444130Y-109170491D01*
X128475751Y-109175500D01*
X128475754Y-109175500D01*
X128979249Y-109175500D01*
X129007803Y-109170976D01*
X129077420Y-109159951D01*
X129195751Y-109099658D01*
X129289658Y-109005751D01*
X129349951Y-108887420D01*
X129365500Y-108789246D01*
X129365500Y-108210754D01*
X129349951Y-108112580D01*
X129289658Y-107994249D01*
X129195751Y-107900342D01*
X129185720Y-107895231D01*
X129077423Y-107840050D01*
X129077420Y-107840049D01*
X129052876Y-107836161D01*
X128979249Y-107824500D01*
X128979246Y-107824500D01*
X128475754Y-107824500D01*
X128475751Y-107824500D01*
X128377580Y-107840049D01*
X128377576Y-107840050D01*
X128259250Y-107900341D01*
X128165341Y-107994250D01*
X128105049Y-108112578D01*
X128104509Y-108115991D01*
X128102940Y-108119068D01*
X128102642Y-108119988D01*
X128102496Y-108119940D01*
X128076729Y-108170506D01*
X128022211Y-108198282D01*
X128006728Y-108199500D01*
X127524395Y-108199500D01*
X127466204Y-108180593D01*
X127434671Y-108142340D01*
X127424066Y-108119598D01*
X127424065Y-108119597D01*
X127424065Y-108119596D01*
X127340404Y-108035935D01*
X127340402Y-108035934D01*
X127340401Y-108035933D01*
X127233175Y-107985932D01*
X127191995Y-107980511D01*
X127184316Y-107979500D01*
X126835684Y-107979500D01*
X126828005Y-107980511D01*
X126786825Y-107985932D01*
X126786824Y-107985932D01*
X126679598Y-108035933D01*
X126595933Y-108119598D01*
X126589724Y-108132915D01*
X126547995Y-108177663D01*
X126487934Y-108189337D01*
X126432482Y-108163478D01*
X126410276Y-108132915D01*
X126404066Y-108119598D01*
X126404065Y-108119597D01*
X126404065Y-108119596D01*
X126320404Y-108035935D01*
X126320402Y-108035934D01*
X126319496Y-108035028D01*
X126291719Y-107980511D01*
X126290500Y-107965024D01*
X126290500Y-107675478D01*
X126309407Y-107617287D01*
X126319490Y-107605480D01*
X127840460Y-106084511D01*
X127880021Y-106015989D01*
X127900500Y-105939562D01*
X127900500Y-93865477D01*
X127919407Y-93807286D01*
X127929484Y-93795486D01*
X128195475Y-93529494D01*
X128249990Y-93501719D01*
X128265477Y-93500500D01*
X128371959Y-93500500D01*
X128371961Y-93500500D01*
X128510053Y-93459953D01*
X128631128Y-93382143D01*
X128725377Y-93273373D01*
X128785165Y-93142457D01*
X128795506Y-93070534D01*
X128805647Y-93000002D01*
X128805647Y-92999997D01*
X128785165Y-92857543D01*
X128752715Y-92786488D01*
X128725377Y-92726627D01*
X128721019Y-92721597D01*
X128674680Y-92668117D01*
X128650863Y-92611757D01*
X128650500Y-92603287D01*
X128650500Y-91348007D01*
X128669407Y-91289816D01*
X128718907Y-91253852D01*
X128780093Y-91253852D01*
X128803023Y-91264722D01*
X128803978Y-91265336D01*
X128849739Y-91294745D01*
X128856179Y-91297686D01*
X128856123Y-91297806D01*
X128860909Y-91299693D01*
X128946010Y-91342457D01*
X129225842Y-91483075D01*
X129276425Y-91508493D01*
X129301977Y-91526948D01*
X130709690Y-92934661D01*
X130737467Y-92989178D01*
X130727896Y-93049610D01*
X130693210Y-93087949D01*
X130568872Y-93167857D01*
X130474622Y-93276628D01*
X130414834Y-93407543D01*
X130394353Y-93549997D01*
X130394353Y-93550002D01*
X130414834Y-93692456D01*
X130461881Y-93795473D01*
X130474623Y-93823373D01*
X130566650Y-93929579D01*
X130568873Y-93932144D01*
X130689940Y-94009949D01*
X130689942Y-94009950D01*
X130689947Y-94009953D01*
X130689951Y-94009954D01*
X130691624Y-94010718D01*
X130692761Y-94011762D01*
X130695903Y-94013781D01*
X130695553Y-94014324D01*
X130736702Y-94052089D01*
X130749500Y-94100773D01*
X130749500Y-107587021D01*
X130730593Y-107645212D01*
X130720504Y-107657025D01*
X130582025Y-107795504D01*
X130527508Y-107823281D01*
X130512021Y-107824500D01*
X130050751Y-107824500D01*
X129952580Y-107840049D01*
X129952576Y-107840050D01*
X129834250Y-107900341D01*
X129740341Y-107994250D01*
X129680050Y-108112576D01*
X129680049Y-108112580D01*
X129670875Y-108170506D01*
X129664500Y-108210754D01*
X129664500Y-108789246D01*
X129678937Y-108880402D01*
X129680049Y-108887419D01*
X129680050Y-108887423D01*
X129717388Y-108960701D01*
X129740342Y-109005751D01*
X129834249Y-109099658D01*
X129952580Y-109159951D01*
X130019130Y-109170491D01*
X130050751Y-109175500D01*
X130050754Y-109175500D01*
X130554249Y-109175500D01*
X130582803Y-109170976D01*
X130652420Y-109159951D01*
X130770751Y-109099658D01*
X130864658Y-109005751D01*
X130924951Y-108887420D01*
X130940500Y-108789246D01*
X130940500Y-108327979D01*
X130959407Y-108269788D01*
X130969496Y-108257975D01*
X131030496Y-108196975D01*
X131085013Y-108169198D01*
X131145445Y-108178769D01*
X131188710Y-108222034D01*
X131199500Y-108266979D01*
X131199500Y-109819564D01*
X131219978Y-109895988D01*
X131219980Y-109895992D01*
X131259538Y-109964508D01*
X131259540Y-109964511D01*
X132006319Y-110711290D01*
X132743812Y-111448783D01*
X132771589Y-111503300D01*
X132762018Y-111563732D01*
X132761120Y-111565453D01*
X132744769Y-111596044D01*
X132744766Y-111596052D01*
X132684699Y-111794065D01*
X132684698Y-111794070D01*
X132664417Y-111999996D01*
X132664417Y-112000003D01*
X132684698Y-112205929D01*
X132684699Y-112205934D01*
X132744768Y-112403954D01*
X132842316Y-112586452D01*
X132908273Y-112666821D01*
X132973590Y-112746410D01*
X132973595Y-112746414D01*
X133133547Y-112877683D01*
X133133548Y-112877683D01*
X133133550Y-112877685D01*
X133316046Y-112975232D01*
X133453997Y-113017078D01*
X133514065Y-113035300D01*
X133514070Y-113035301D01*
X133719997Y-113055583D01*
X133720000Y-113055583D01*
X133720003Y-113055583D01*
X133925929Y-113035301D01*
X133925934Y-113035300D01*
X134123954Y-112975232D01*
X134306450Y-112877685D01*
X134466410Y-112746410D01*
X134597685Y-112586450D01*
X134695232Y-112403954D01*
X134755300Y-112205934D01*
X134755301Y-112205929D01*
X134775583Y-112000003D01*
X134775583Y-111999996D01*
X134755301Y-111794070D01*
X134755300Y-111794065D01*
X134709220Y-111642159D01*
X134695232Y-111596046D01*
X134597685Y-111413550D01*
X134555845Y-111362568D01*
X134466414Y-111253595D01*
X134466410Y-111253590D01*
X134466404Y-111253585D01*
X134306452Y-111122316D01*
X134123954Y-111024768D01*
X133925934Y-110964699D01*
X133925929Y-110964698D01*
X133720003Y-110944417D01*
X133719997Y-110944417D01*
X133514070Y-110964698D01*
X133514065Y-110964699D01*
X133316052Y-111024766D01*
X133316049Y-111024766D01*
X133316046Y-111024768D01*
X133316044Y-111024768D01*
X133316044Y-111024769D01*
X133285453Y-111041120D01*
X133225220Y-111051874D01*
X133170169Y-111025171D01*
X133168783Y-111023812D01*
X133014475Y-110869504D01*
X132986698Y-110814987D01*
X132996269Y-110754555D01*
X133039534Y-110711290D01*
X133084479Y-110700500D01*
X134494521Y-110700500D01*
X134552712Y-110719407D01*
X134564525Y-110729496D01*
X135283812Y-111448783D01*
X135311589Y-111503300D01*
X135302018Y-111563732D01*
X135301120Y-111565453D01*
X135284769Y-111596044D01*
X135284766Y-111596052D01*
X135224699Y-111794065D01*
X135224698Y-111794070D01*
X135204417Y-111999996D01*
X135204417Y-112000003D01*
X135224698Y-112205929D01*
X135224699Y-112205934D01*
X135284768Y-112403954D01*
X135382316Y-112586452D01*
X135448273Y-112666821D01*
X135513590Y-112746410D01*
X135513595Y-112746414D01*
X135673547Y-112877683D01*
X135673548Y-112877683D01*
X135673550Y-112877685D01*
X135856046Y-112975232D01*
X135993997Y-113017078D01*
X136054065Y-113035300D01*
X136054070Y-113035301D01*
X136259997Y-113055583D01*
X136260000Y-113055583D01*
X136260003Y-113055583D01*
X136465929Y-113035301D01*
X136465934Y-113035300D01*
X136663954Y-112975232D01*
X136846450Y-112877685D01*
X137006410Y-112746410D01*
X137137685Y-112586450D01*
X137235232Y-112403954D01*
X137295300Y-112205934D01*
X137295301Y-112205929D01*
X137315583Y-112000003D01*
X137315583Y-111999996D01*
X137295301Y-111794070D01*
X137295300Y-111794065D01*
X137249220Y-111642159D01*
X137235232Y-111596046D01*
X137137685Y-111413550D01*
X137095845Y-111362568D01*
X137006414Y-111253595D01*
X137006410Y-111253590D01*
X137006404Y-111253585D01*
X136846452Y-111122316D01*
X136663954Y-111024768D01*
X136465934Y-110964699D01*
X136465929Y-110964698D01*
X136260003Y-110944417D01*
X136259997Y-110944417D01*
X136054070Y-110964698D01*
X136054065Y-110964699D01*
X135856052Y-111024766D01*
X135856049Y-111024766D01*
X135856046Y-111024768D01*
X135856044Y-111024768D01*
X135856044Y-111024769D01*
X135825453Y-111041120D01*
X135765220Y-111051874D01*
X135710169Y-111025171D01*
X135708783Y-111023812D01*
X135322400Y-110637429D01*
X134844511Y-110159540D01*
X134830164Y-110151257D01*
X134790970Y-110128628D01*
X134790970Y-110128627D01*
X134790968Y-110128627D01*
X134775990Y-110119979D01*
X134775988Y-110119978D01*
X134699564Y-110099500D01*
X134699562Y-110099500D01*
X132965479Y-110099500D01*
X132907288Y-110080593D01*
X132895475Y-110070504D01*
X132279496Y-109454525D01*
X132251719Y-109400008D01*
X132250500Y-109384521D01*
X132250500Y-101697866D01*
X132849500Y-101697866D01*
X132849501Y-101697870D01*
X132855908Y-101757480D01*
X132855909Y-101757485D01*
X132906202Y-101892329D01*
X132930435Y-101924700D01*
X132992454Y-102007546D01*
X132992457Y-102007548D01*
X132992458Y-102007549D01*
X133107670Y-102093797D01*
X133242511Y-102144089D01*
X133242512Y-102144089D01*
X133242517Y-102144091D01*
X133302127Y-102150500D01*
X134597872Y-102150499D01*
X134657483Y-102144091D01*
X134724907Y-102118943D01*
X134792329Y-102093797D01*
X134792329Y-102093796D01*
X134792331Y-102093796D01*
X134907546Y-102007546D01*
X134993796Y-101892331D01*
X135044091Y-101757483D01*
X135050500Y-101697873D01*
X135050500Y-101697866D01*
X135949500Y-101697866D01*
X135949501Y-101697870D01*
X135955908Y-101757480D01*
X135955909Y-101757485D01*
X136006202Y-101892329D01*
X136030435Y-101924700D01*
X136092454Y-102007546D01*
X136092457Y-102007548D01*
X136092458Y-102007549D01*
X136207670Y-102093797D01*
X136342511Y-102144089D01*
X136342512Y-102144089D01*
X136342517Y-102144091D01*
X136402127Y-102150500D01*
X137697872Y-102150499D01*
X137757483Y-102144091D01*
X137824907Y-102118943D01*
X137892329Y-102093797D01*
X137892329Y-102093796D01*
X137892331Y-102093796D01*
X138007546Y-102007546D01*
X138093796Y-101892331D01*
X138144091Y-101757483D01*
X138146087Y-101738916D01*
X138171107Y-101683081D01*
X138224167Y-101652615D01*
X138244520Y-101650500D01*
X138782454Y-101650500D01*
X138816409Y-101656504D01*
X139254209Y-101816363D01*
X139265843Y-101818302D01*
X139277436Y-101820959D01*
X139378039Y-101850500D01*
X139378040Y-101850500D01*
X139521959Y-101850500D01*
X139521961Y-101850500D01*
X139660053Y-101809953D01*
X139781128Y-101732143D01*
X139875377Y-101623373D01*
X139935165Y-101492457D01*
X139955647Y-101350000D01*
X139948125Y-101297685D01*
X139935165Y-101207543D01*
X139875377Y-101076628D01*
X139875377Y-101076627D01*
X139781128Y-100967857D01*
X139781127Y-100967856D01*
X139781126Y-100967855D01*
X139660057Y-100890049D01*
X139660054Y-100890047D01*
X139660053Y-100890047D01*
X139660050Y-100890046D01*
X139521964Y-100849500D01*
X139521961Y-100849500D01*
X139378039Y-100849500D01*
X139378037Y-100849500D01*
X139378033Y-100849501D01*
X139276515Y-100879308D01*
X139263793Y-100882149D01*
X139254220Y-100883633D01*
X139254218Y-100883633D01*
X138816408Y-101043495D01*
X138782452Y-101049500D01*
X138244519Y-101049500D01*
X138186328Y-101030593D01*
X138150364Y-100981093D01*
X138146086Y-100961079D01*
X138144091Y-100942522D01*
X138144091Y-100942517D01*
X138124521Y-100890046D01*
X138093797Y-100807670D01*
X138007549Y-100692458D01*
X138007548Y-100692457D01*
X138007546Y-100692454D01*
X138007541Y-100692450D01*
X137892329Y-100606202D01*
X137757488Y-100555910D01*
X137757483Y-100555909D01*
X137757481Y-100555908D01*
X137757477Y-100555908D01*
X137726249Y-100552550D01*
X137697873Y-100549500D01*
X137697870Y-100549500D01*
X136402133Y-100549500D01*
X136402129Y-100549500D01*
X136402128Y-100549501D01*
X136394949Y-100550272D01*
X136342519Y-100555908D01*
X136342514Y-100555909D01*
X136207670Y-100606202D01*
X136092458Y-100692450D01*
X136092450Y-100692458D01*
X136006202Y-100807670D01*
X135955910Y-100942511D01*
X135955908Y-100942522D01*
X135949500Y-101002129D01*
X135949500Y-101697866D01*
X135050500Y-101697866D01*
X135050499Y-101002128D01*
X135044091Y-100942517D01*
X135024521Y-100890046D01*
X134993797Y-100807670D01*
X134907549Y-100692458D01*
X134907548Y-100692457D01*
X134907546Y-100692454D01*
X134907541Y-100692450D01*
X134792329Y-100606202D01*
X134657488Y-100555910D01*
X134657483Y-100555909D01*
X134657481Y-100555908D01*
X134657477Y-100555908D01*
X134626249Y-100552550D01*
X134597873Y-100549500D01*
X134597870Y-100549500D01*
X133302133Y-100549500D01*
X133302129Y-100549500D01*
X133302128Y-100549501D01*
X133294949Y-100550272D01*
X133242519Y-100555908D01*
X133242514Y-100555909D01*
X133107670Y-100606202D01*
X132992458Y-100692450D01*
X132992450Y-100692458D01*
X132906202Y-100807670D01*
X132855910Y-100942511D01*
X132855908Y-100942522D01*
X132849500Y-101002129D01*
X132849500Y-101697866D01*
X132250500Y-101697866D01*
X132250500Y-99706858D01*
X132269407Y-99648667D01*
X132318907Y-99612703D01*
X132380093Y-99612703D01*
X132409854Y-99628383D01*
X132948015Y-100042354D01*
X132950230Y-100044034D01*
X132952400Y-100045657D01*
X133011979Y-100076536D01*
X133070170Y-100095443D01*
X133082870Y-100097454D01*
X133133668Y-100105500D01*
X133133672Y-100105500D01*
X140123871Y-100105500D01*
X140182062Y-100124407D01*
X140193874Y-100134496D01*
X140620503Y-100561124D01*
X140648281Y-100615641D01*
X140649500Y-100631128D01*
X140649500Y-109472388D01*
X140630593Y-109530579D01*
X140620504Y-109542392D01*
X139195406Y-110967489D01*
X139140889Y-110995266D01*
X139096664Y-110992222D01*
X139005934Y-110964699D01*
X139005929Y-110964698D01*
X138800003Y-110944417D01*
X138799997Y-110944417D01*
X138594070Y-110964698D01*
X138594065Y-110964699D01*
X138396045Y-111024768D01*
X138213547Y-111122316D01*
X138053595Y-111253585D01*
X138053585Y-111253595D01*
X137922316Y-111413547D01*
X137824768Y-111596045D01*
X137764699Y-111794065D01*
X137764698Y-111794070D01*
X137744417Y-111999996D01*
X137744417Y-112000003D01*
X137764698Y-112205929D01*
X137764699Y-112205934D01*
X137824768Y-112403954D01*
X137922316Y-112586452D01*
X137988273Y-112666821D01*
X138053590Y-112746410D01*
X138053595Y-112746414D01*
X138213547Y-112877683D01*
X138213548Y-112877683D01*
X138213550Y-112877685D01*
X138396046Y-112975232D01*
X138533997Y-113017078D01*
X138594065Y-113035300D01*
X138594070Y-113035301D01*
X138799997Y-113055583D01*
X138800000Y-113055583D01*
X138800003Y-113055583D01*
X139005929Y-113035301D01*
X139005934Y-113035300D01*
X139203954Y-112975232D01*
X139386450Y-112877685D01*
X139546410Y-112746410D01*
X139677685Y-112586450D01*
X139775232Y-112403954D01*
X139835300Y-112205934D01*
X139835301Y-112205929D01*
X139855583Y-112000003D01*
X139855583Y-111999996D01*
X139835301Y-111794070D01*
X139835300Y-111794065D01*
X139807777Y-111703333D01*
X139808978Y-111642159D01*
X139832508Y-111604593D01*
X140315551Y-111121551D01*
X142895500Y-111121551D01*
X142927230Y-111362563D01*
X142927230Y-111362568D01*
X142990149Y-111597387D01*
X143083178Y-111821979D01*
X143185959Y-112000003D01*
X143204731Y-112032516D01*
X143352722Y-112225380D01*
X143524620Y-112397278D01*
X143717484Y-112545269D01*
X143928016Y-112666819D01*
X143928017Y-112666819D01*
X143928020Y-112666821D01*
X144120165Y-112746410D01*
X144152612Y-112759850D01*
X144387429Y-112822769D01*
X144628450Y-112854500D01*
X144628451Y-112854500D01*
X144871549Y-112854500D01*
X144871550Y-112854500D01*
X145112571Y-112822769D01*
X145347388Y-112759850D01*
X145571984Y-112666819D01*
X145782516Y-112545269D01*
X145975380Y-112397278D01*
X146147278Y-112225380D01*
X146295269Y-112032516D01*
X146416819Y-111821984D01*
X146509850Y-111597388D01*
X146572769Y-111362571D01*
X146604500Y-111121550D01*
X146604500Y-110878450D01*
X146572769Y-110637429D01*
X146509850Y-110402612D01*
X146482956Y-110337685D01*
X146416821Y-110178020D01*
X146388305Y-110128629D01*
X146295269Y-109967484D01*
X146147278Y-109774620D01*
X145975380Y-109602722D01*
X145881362Y-109530579D01*
X145782515Y-109454730D01*
X145571979Y-109333178D01*
X145347387Y-109240149D01*
X145187001Y-109197174D01*
X145112571Y-109177231D01*
X145112568Y-109177230D01*
X145112566Y-109177230D01*
X144871551Y-109145500D01*
X144871550Y-109145500D01*
X144628450Y-109145500D01*
X144628448Y-109145500D01*
X144387436Y-109177230D01*
X144387431Y-109177230D01*
X144152612Y-109240149D01*
X143928020Y-109333178D01*
X143717484Y-109454730D01*
X143524623Y-109602719D01*
X143352719Y-109774623D01*
X143204730Y-109967484D01*
X143083178Y-110178020D01*
X142990149Y-110402612D01*
X142927230Y-110637431D01*
X142927230Y-110637436D01*
X142895500Y-110878448D01*
X142895500Y-111121551D01*
X140315551Y-111121551D01*
X141460489Y-109976614D01*
X141519799Y-109873887D01*
X141522741Y-109862903D01*
X141526287Y-109849672D01*
X141526287Y-109849669D01*
X141550500Y-109759309D01*
X141550500Y-106197866D01*
X144849500Y-106197866D01*
X144849501Y-106197870D01*
X144855908Y-106257480D01*
X144855909Y-106257485D01*
X144906202Y-106392329D01*
X144992450Y-106507541D01*
X144992454Y-106507546D01*
X144992457Y-106507548D01*
X144992458Y-106507549D01*
X145107670Y-106593797D01*
X145242511Y-106644089D01*
X145242512Y-106644089D01*
X145242517Y-106644091D01*
X145302127Y-106650500D01*
X146597872Y-106650499D01*
X146657483Y-106644091D01*
X146724907Y-106618943D01*
X146792329Y-106593797D01*
X146792329Y-106593796D01*
X146792331Y-106593796D01*
X146907546Y-106507546D01*
X146993796Y-106392331D01*
X147044091Y-106257483D01*
X147050500Y-106197873D01*
X147050499Y-105502128D01*
X147044091Y-105442517D01*
X147011536Y-105355232D01*
X146993797Y-105307670D01*
X146907549Y-105192458D01*
X146907548Y-105192457D01*
X146907546Y-105192454D01*
X146907541Y-105192450D01*
X146792329Y-105106202D01*
X146657488Y-105055910D01*
X146657483Y-105055909D01*
X146657481Y-105055908D01*
X146657477Y-105055908D01*
X146626249Y-105052550D01*
X146597873Y-105049500D01*
X146597870Y-105049500D01*
X145302133Y-105049500D01*
X145302129Y-105049500D01*
X145302128Y-105049501D01*
X145294949Y-105050272D01*
X145242519Y-105055908D01*
X145242514Y-105055909D01*
X145107670Y-105106202D01*
X144992458Y-105192450D01*
X144992450Y-105192458D01*
X144906202Y-105307670D01*
X144855910Y-105442511D01*
X144855908Y-105442522D01*
X144849500Y-105502129D01*
X144849500Y-106197866D01*
X141550500Y-106197866D01*
X141550500Y-101697866D01*
X144849500Y-101697866D01*
X144849501Y-101697870D01*
X144855908Y-101757480D01*
X144855909Y-101757485D01*
X144906202Y-101892329D01*
X144930435Y-101924700D01*
X144992454Y-102007546D01*
X144992457Y-102007548D01*
X144992458Y-102007549D01*
X145107670Y-102093797D01*
X145242511Y-102144089D01*
X145242512Y-102144089D01*
X145242517Y-102144091D01*
X145302127Y-102150500D01*
X146597872Y-102150499D01*
X146657483Y-102144091D01*
X146724907Y-102118943D01*
X146792329Y-102093797D01*
X146792329Y-102093796D01*
X146792331Y-102093796D01*
X146907546Y-102007546D01*
X146993796Y-101892331D01*
X147044091Y-101757483D01*
X147050500Y-101697873D01*
X147050499Y-101002128D01*
X147044091Y-100942517D01*
X147024521Y-100890046D01*
X146993797Y-100807670D01*
X146907549Y-100692458D01*
X146907548Y-100692457D01*
X146907546Y-100692454D01*
X146907541Y-100692450D01*
X146792329Y-100606202D01*
X146657488Y-100555910D01*
X146657483Y-100555909D01*
X146657481Y-100555908D01*
X146657477Y-100555908D01*
X146626249Y-100552550D01*
X146597873Y-100549500D01*
X146597870Y-100549500D01*
X145302133Y-100549500D01*
X145302129Y-100549500D01*
X145302128Y-100549501D01*
X145294949Y-100550272D01*
X145242519Y-100555908D01*
X145242514Y-100555909D01*
X145107670Y-100606202D01*
X144992458Y-100692450D01*
X144992450Y-100692458D01*
X144906202Y-100807670D01*
X144855910Y-100942511D01*
X144855908Y-100942522D01*
X144849500Y-101002129D01*
X144849500Y-101697866D01*
X141550500Y-101697866D01*
X141550500Y-100440360D01*
X141551719Y-100424872D01*
X141552492Y-100419996D01*
X141555500Y-100401000D01*
X141555500Y-97197866D01*
X144849500Y-97197866D01*
X144849501Y-97197870D01*
X144855908Y-97257480D01*
X144855909Y-97257485D01*
X144906202Y-97392329D01*
X144983731Y-97495894D01*
X144992454Y-97507546D01*
X144992457Y-97507548D01*
X144992458Y-97507549D01*
X145107670Y-97593797D01*
X145242511Y-97644089D01*
X145242512Y-97644089D01*
X145242517Y-97644091D01*
X145302127Y-97650500D01*
X146597872Y-97650499D01*
X146657483Y-97644091D01*
X146724907Y-97618943D01*
X146792329Y-97593797D01*
X146792329Y-97593796D01*
X146792331Y-97593796D01*
X146907546Y-97507546D01*
X146993796Y-97392331D01*
X146999853Y-97376093D01*
X147044089Y-97257488D01*
X147044090Y-97257485D01*
X147044091Y-97257483D01*
X147050500Y-97197873D01*
X147050499Y-96502128D01*
X147044091Y-96442517D01*
X147044089Y-96442511D01*
X146993797Y-96307670D01*
X146907549Y-96192458D01*
X146907548Y-96192457D01*
X146907546Y-96192454D01*
X146899745Y-96186614D01*
X146792329Y-96106202D01*
X146657488Y-96055910D01*
X146657483Y-96055909D01*
X146657481Y-96055908D01*
X146657477Y-96055908D01*
X146626249Y-96052550D01*
X146597873Y-96049500D01*
X146597870Y-96049500D01*
X145302133Y-96049500D01*
X145302129Y-96049500D01*
X145302128Y-96049501D01*
X145294949Y-96050272D01*
X145242519Y-96055908D01*
X145242514Y-96055909D01*
X145107670Y-96106202D01*
X144992458Y-96192450D01*
X144992450Y-96192458D01*
X144906202Y-96307670D01*
X144855910Y-96442511D01*
X144855908Y-96442522D01*
X144849500Y-96502126D01*
X144849500Y-97197866D01*
X141555500Y-97197866D01*
X141555500Y-92697866D01*
X144849500Y-92697866D01*
X144849501Y-92697870D01*
X144855908Y-92757480D01*
X144855909Y-92757485D01*
X144906202Y-92892329D01*
X144992450Y-93007541D01*
X144992454Y-93007546D01*
X144992457Y-93007548D01*
X144992458Y-93007549D01*
X145107670Y-93093797D01*
X145242511Y-93144089D01*
X145242512Y-93144089D01*
X145242517Y-93144091D01*
X145302127Y-93150500D01*
X146597872Y-93150499D01*
X146657483Y-93144091D01*
X146724907Y-93118943D01*
X146792329Y-93093797D01*
X146792329Y-93093796D01*
X146792331Y-93093796D01*
X146907546Y-93007546D01*
X146993796Y-92892331D01*
X147015550Y-92834007D01*
X147044089Y-92757488D01*
X147044090Y-92757485D01*
X147044091Y-92757483D01*
X147050500Y-92697873D01*
X147050499Y-92002128D01*
X147044091Y-91942517D01*
X147030139Y-91905110D01*
X146993797Y-91807670D01*
X146907549Y-91692458D01*
X146907548Y-91692457D01*
X146907546Y-91692454D01*
X146907541Y-91692450D01*
X146792329Y-91606202D01*
X146657488Y-91555910D01*
X146657483Y-91555909D01*
X146657481Y-91555908D01*
X146657477Y-91555908D01*
X146626249Y-91552550D01*
X146597873Y-91549500D01*
X146597870Y-91549500D01*
X145302133Y-91549500D01*
X145302129Y-91549500D01*
X145302128Y-91549501D01*
X145294949Y-91550272D01*
X145242519Y-91555908D01*
X145242514Y-91555909D01*
X145107670Y-91606202D01*
X144992458Y-91692450D01*
X144992450Y-91692458D01*
X144906202Y-91807670D01*
X144855910Y-91942511D01*
X144855908Y-91942522D01*
X144849500Y-92002129D01*
X144849500Y-92697866D01*
X141555500Y-92697866D01*
X141555500Y-88197866D01*
X144849500Y-88197866D01*
X144849501Y-88197870D01*
X144855908Y-88257480D01*
X144855909Y-88257485D01*
X144906202Y-88392329D01*
X144992450Y-88507541D01*
X144992454Y-88507546D01*
X144992457Y-88507548D01*
X144992458Y-88507549D01*
X145107670Y-88593797D01*
X145242511Y-88644089D01*
X145242512Y-88644089D01*
X145242517Y-88644091D01*
X145302127Y-88650500D01*
X146597872Y-88650499D01*
X146657483Y-88644091D01*
X146724907Y-88618943D01*
X146792329Y-88593797D01*
X146792329Y-88593796D01*
X146792331Y-88593796D01*
X146907546Y-88507546D01*
X146993796Y-88392331D01*
X146997988Y-88381093D01*
X147044089Y-88257488D01*
X147044090Y-88257485D01*
X147044091Y-88257483D01*
X147050500Y-88197873D01*
X147050499Y-87502128D01*
X147044091Y-87442517D01*
X147035443Y-87419331D01*
X146993797Y-87307670D01*
X146907549Y-87192458D01*
X146907548Y-87192457D01*
X146907546Y-87192454D01*
X146907541Y-87192450D01*
X146792329Y-87106202D01*
X146657488Y-87055910D01*
X146657483Y-87055909D01*
X146657481Y-87055908D01*
X146657477Y-87055908D01*
X146626249Y-87052550D01*
X146597873Y-87049500D01*
X146597870Y-87049500D01*
X145302133Y-87049500D01*
X145302129Y-87049500D01*
X145302128Y-87049501D01*
X145294949Y-87050272D01*
X145242519Y-87055908D01*
X145242514Y-87055909D01*
X145107670Y-87106202D01*
X144992458Y-87192450D01*
X144992450Y-87192458D01*
X144906202Y-87307670D01*
X144855910Y-87442511D01*
X144855908Y-87442522D01*
X144849500Y-87502129D01*
X144849500Y-88197866D01*
X141555500Y-88197866D01*
X141555500Y-83697866D01*
X144849500Y-83697866D01*
X144849501Y-83697870D01*
X144855908Y-83757480D01*
X144855909Y-83757485D01*
X144906202Y-83892329D01*
X144982807Y-83994659D01*
X144992454Y-84007546D01*
X144992457Y-84007548D01*
X144992458Y-84007549D01*
X145107670Y-84093797D01*
X145242511Y-84144089D01*
X145242512Y-84144089D01*
X145242517Y-84144091D01*
X145302127Y-84150500D01*
X146597872Y-84150499D01*
X146657483Y-84144091D01*
X146724907Y-84118943D01*
X146792329Y-84093797D01*
X146792329Y-84093796D01*
X146792331Y-84093796D01*
X146907546Y-84007546D01*
X146993796Y-83892331D01*
X147009827Y-83849351D01*
X147044089Y-83757488D01*
X147044090Y-83757485D01*
X147044091Y-83757483D01*
X147050500Y-83697873D01*
X147050499Y-83002128D01*
X147044091Y-82942517D01*
X147044089Y-82942511D01*
X146993797Y-82807670D01*
X146907549Y-82692458D01*
X146907548Y-82692457D01*
X146907546Y-82692454D01*
X146889745Y-82679128D01*
X146792329Y-82606202D01*
X146657488Y-82555910D01*
X146657483Y-82555909D01*
X146657481Y-82555908D01*
X146657477Y-82555908D01*
X146626249Y-82552550D01*
X146597873Y-82549500D01*
X146597870Y-82549500D01*
X145302133Y-82549500D01*
X145302129Y-82549500D01*
X145302128Y-82549501D01*
X145294949Y-82550272D01*
X145242519Y-82555908D01*
X145242514Y-82555909D01*
X145107670Y-82606202D01*
X144992458Y-82692450D01*
X144992450Y-82692458D01*
X144906202Y-82807670D01*
X144855910Y-82942511D01*
X144855908Y-82942522D01*
X144849500Y-83002129D01*
X144849500Y-83697866D01*
X141555500Y-83697866D01*
X141555500Y-78371551D01*
X142895500Y-78371551D01*
X142927230Y-78612563D01*
X142927230Y-78612568D01*
X142990149Y-78847387D01*
X143083178Y-79071979D01*
X143083181Y-79071984D01*
X143204731Y-79282516D01*
X143352722Y-79475380D01*
X143524620Y-79647278D01*
X143717484Y-79795269D01*
X143928016Y-79916819D01*
X143928017Y-79916819D01*
X143928020Y-79916821D01*
X144152612Y-80009850D01*
X144387429Y-80072769D01*
X144628450Y-80104500D01*
X144628451Y-80104500D01*
X144871549Y-80104500D01*
X144871550Y-80104500D01*
X145112571Y-80072769D01*
X145347388Y-80009850D01*
X145571984Y-79916819D01*
X145782516Y-79795269D01*
X145975380Y-79647278D01*
X146147278Y-79475380D01*
X146295269Y-79282516D01*
X146416819Y-79071984D01*
X146509850Y-78847388D01*
X146572769Y-78612571D01*
X146604500Y-78371550D01*
X146604500Y-78128450D01*
X146572769Y-77887429D01*
X146509850Y-77652612D01*
X146416819Y-77428016D01*
X146295269Y-77217484D01*
X146147278Y-77024620D01*
X145975380Y-76852722D01*
X145782516Y-76704731D01*
X145782517Y-76704731D01*
X145782515Y-76704730D01*
X145571979Y-76583178D01*
X145347387Y-76490149D01*
X145187001Y-76447174D01*
X145112571Y-76427231D01*
X145112568Y-76427230D01*
X145112566Y-76427230D01*
X144871551Y-76395500D01*
X144871550Y-76395500D01*
X144628450Y-76395500D01*
X144628448Y-76395500D01*
X144387436Y-76427230D01*
X144387431Y-76427230D01*
X144152612Y-76490149D01*
X143928020Y-76583178D01*
X143717484Y-76704730D01*
X143524623Y-76852719D01*
X143352719Y-77024623D01*
X143204730Y-77217484D01*
X143083178Y-77428020D01*
X142990149Y-77652612D01*
X142927230Y-77887431D01*
X142927230Y-77887436D01*
X142895500Y-78128448D01*
X142895500Y-78371551D01*
X141555500Y-78371551D01*
X141555500Y-68041008D01*
X141554866Y-68024883D01*
X141553647Y-68009396D01*
X141531884Y-67932228D01*
X141504107Y-67877711D01*
X141466314Y-67825694D01*
X139524306Y-65883686D01*
X139524292Y-65883673D01*
X139524285Y-65883666D01*
X139512465Y-65872739D01*
X139512456Y-65872731D01*
X139500643Y-65862642D01*
X139430685Y-65823464D01*
X139372494Y-65804557D01*
X139372491Y-65804556D01*
X139372492Y-65804556D01*
X139308995Y-65794500D01*
X139308992Y-65794500D01*
X125926128Y-65794500D01*
X125867937Y-65775593D01*
X125856125Y-65765504D01*
X125374299Y-65283679D01*
X125362465Y-65272739D01*
X125362456Y-65272731D01*
X125350643Y-65262642D01*
X125280685Y-65223464D01*
X125222494Y-65204557D01*
X125222491Y-65204556D01*
X125222492Y-65204556D01*
X125158995Y-65194500D01*
X125158992Y-65194500D01*
X124952983Y-65194500D01*
X124952974Y-65194500D01*
X124916749Y-65197719D01*
X124916745Y-65197719D01*
X124882413Y-65203868D01*
X124873804Y-65205601D01*
X124873803Y-65205601D01*
X124791232Y-65244902D01*
X124791224Y-65244907D01*
X124743217Y-65282834D01*
X124743209Y-65282842D01*
X124699624Y-65330093D01*
X124699616Y-65330104D01*
X124545646Y-65561059D01*
X124545644Y-65561061D01*
X124519946Y-65615505D01*
X124503317Y-65670425D01*
X124496032Y-65719624D01*
X124494500Y-65729974D01*
X124494500Y-67658992D01*
X124494943Y-67670279D01*
X124495134Y-67675123D01*
X124496353Y-67690602D01*
X124496354Y-67690607D01*
X124518115Y-67767769D01*
X124518117Y-67767775D01*
X124545894Y-67822291D01*
X124583681Y-67874300D01*
X124583683Y-67874302D01*
X124583686Y-67874306D01*
X125125694Y-68416314D01*
X125125707Y-68416326D01*
X125125714Y-68416333D01*
X125137534Y-68427260D01*
X125137544Y-68427269D01*
X125149357Y-68437358D01*
X125219315Y-68476536D01*
X125277506Y-68495443D01*
X125290206Y-68497454D01*
X125341004Y-68505500D01*
X125341008Y-68505500D01*
X137473870Y-68505500D01*
X137532061Y-68524407D01*
X137543874Y-68534496D01*
X138165504Y-69156125D01*
X138193281Y-69210642D01*
X138194500Y-69226129D01*
X138194500Y-84289756D01*
X138175593Y-84347947D01*
X138171554Y-84353134D01*
X137833434Y-84758878D01*
X137781656Y-84791477D01*
X137757380Y-84794500D01*
X134101500Y-84794500D01*
X134043309Y-84775593D01*
X134042100Y-84774700D01*
X133845100Y-84626950D01*
X133809892Y-84576910D01*
X133805500Y-84547750D01*
X133805500Y-84249500D01*
X133805500Y-84249495D01*
X133802969Y-84217348D01*
X133798123Y-84186755D01*
X133797351Y-84182212D01*
X133789607Y-84164093D01*
X133761407Y-84098115D01*
X133761405Y-84098112D01*
X133725449Y-84048624D01*
X133725447Y-84048622D01*
X133725443Y-84048616D01*
X133701205Y-84020873D01*
X133622695Y-83973964D01*
X133622686Y-83973961D01*
X133564505Y-83955056D01*
X133564501Y-83955055D01*
X133501005Y-83944999D01*
X133501001Y-83944999D01*
X133318443Y-83944999D01*
X133307848Y-83944430D01*
X133302497Y-83943854D01*
X133278496Y-83938181D01*
X133220505Y-83916552D01*
X133195772Y-83903047D01*
X133150657Y-83869274D01*
X133130733Y-83849351D01*
X133096948Y-83804221D01*
X133083444Y-83779490D01*
X133061817Y-83721503D01*
X133056144Y-83697494D01*
X133055567Y-83692127D01*
X133055000Y-83681545D01*
X133055000Y-83277346D01*
X133053805Y-83255212D01*
X133051508Y-83234010D01*
X133024510Y-83152257D01*
X132993579Y-83099466D01*
X132952799Y-83049761D01*
X132899218Y-83002133D01*
X132864674Y-82971427D01*
X132856961Y-82964902D01*
X132849380Y-82958802D01*
X132849378Y-82958801D01*
X132849377Y-82958800D01*
X132784058Y-82923466D01*
X132784054Y-82923464D01*
X132725858Y-82904555D01*
X132662364Y-82894500D01*
X132662361Y-82894500D01*
X127835612Y-82894500D01*
X127777421Y-82875593D01*
X127762026Y-82861727D01*
X127480914Y-82549379D01*
X127456040Y-82493478D01*
X127455500Y-82483152D01*
X127455500Y-81094458D01*
X127454305Y-81072324D01*
X127452008Y-81051122D01*
X127425011Y-80969371D01*
X127394080Y-80916579D01*
X127353299Y-80866871D01*
X127300006Y-80819499D01*
X126964676Y-80521427D01*
X126956955Y-80514897D01*
X126956947Y-80514890D01*
X126949366Y-80508791D01*
X126949364Y-80508790D01*
X126949363Y-80508789D01*
X126949356Y-80508785D01*
X126884060Y-80473467D01*
X126884051Y-80473463D01*
X126825866Y-80454557D01*
X126825860Y-80454556D01*
X126762363Y-80444500D01*
X126762360Y-80444500D01*
X125649500Y-80444500D01*
X125649489Y-80444500D01*
X125618899Y-80446791D01*
X125589688Y-80451190D01*
X125586723Y-80451660D01*
X125502090Y-80486322D01*
X125452050Y-80521530D01*
X125405901Y-80566298D01*
X125405900Y-80566298D01*
X125305297Y-80700437D01*
X125304614Y-80701355D01*
X125303606Y-80702718D01*
X125273466Y-80761301D01*
X125273462Y-80761312D01*
X125254556Y-80819499D01*
X125244500Y-80882996D01*
X125244500Y-80883000D01*
X125244500Y-82450500D01*
X125247030Y-82482644D01*
X125247778Y-82487369D01*
X125251883Y-82513293D01*
X125252646Y-82517781D01*
X125252647Y-82517786D01*
X125288591Y-82601882D01*
X125288592Y-82601883D01*
X125324556Y-82651383D01*
X125348797Y-82679128D01*
X125427307Y-82726036D01*
X125485498Y-82744943D01*
X125498198Y-82746954D01*
X125548996Y-82755000D01*
X125549000Y-82755000D01*
X125681546Y-82755000D01*
X125692106Y-82755564D01*
X125697476Y-82756142D01*
X125721492Y-82761814D01*
X125779500Y-82783448D01*
X125804224Y-82796949D01*
X125849348Y-82830729D01*
X125869269Y-82850651D01*
X125903046Y-82895770D01*
X125916551Y-82920502D01*
X125924763Y-82942519D01*
X125938180Y-82978493D01*
X125943852Y-83002486D01*
X125944430Y-83007852D01*
X125944999Y-83018454D01*
X125944999Y-83681557D01*
X125944430Y-83692152D01*
X125943854Y-83697503D01*
X125938181Y-83721504D01*
X125916553Y-83779492D01*
X125903048Y-83804225D01*
X125869270Y-83849346D01*
X125849346Y-83869270D01*
X125804225Y-83903048D01*
X125779492Y-83916554D01*
X125721508Y-83938180D01*
X125697514Y-83943852D01*
X125692148Y-83944430D01*
X125681546Y-83944999D01*
X125548999Y-83944999D01*
X125531690Y-83946361D01*
X125516848Y-83947529D01*
X125486265Y-83952373D01*
X125481714Y-83953146D01*
X125481707Y-83953148D01*
X125397617Y-83989090D01*
X125348118Y-84025054D01*
X125320372Y-84049296D01*
X125273464Y-84127806D01*
X125273462Y-84127809D01*
X125254556Y-84185998D01*
X125244500Y-84249495D01*
X125244500Y-84616678D01*
X125225593Y-84674869D01*
X125212650Y-84689423D01*
X124748094Y-85118245D01*
X124692511Y-85143822D01*
X124680944Y-85144500D01*
X123939452Y-85144500D01*
X123911561Y-85140490D01*
X123910053Y-85140047D01*
X123884032Y-85132406D01*
X123771964Y-85099500D01*
X123771961Y-85099500D01*
X123628039Y-85099500D01*
X123628035Y-85099500D01*
X123510155Y-85134113D01*
X123489947Y-85140047D01*
X123489946Y-85140047D01*
X123488439Y-85140490D01*
X123460548Y-85144500D01*
X122899000Y-85144500D01*
X122866856Y-85147030D01*
X122866851Y-85147030D01*
X122866848Y-85147031D01*
X122858956Y-85148281D01*
X122843471Y-85149500D01*
X119852288Y-85149500D01*
X119816916Y-85141804D01*
X119816847Y-85142042D01*
X119813531Y-85141068D01*
X119811162Y-85140553D01*
X119810056Y-85140048D01*
X119810049Y-85140046D01*
X119793605Y-85135217D01*
X119671964Y-85099500D01*
X119671961Y-85099500D01*
X119528039Y-85099500D01*
X119528035Y-85099500D01*
X119389943Y-85140048D01*
X119388838Y-85140553D01*
X119386468Y-85141068D01*
X119383153Y-85142042D01*
X119383083Y-85141804D01*
X119347712Y-85149500D01*
X115952288Y-85149500D01*
X115916916Y-85141804D01*
X115916847Y-85142042D01*
X115913531Y-85141068D01*
X115911162Y-85140553D01*
X115910056Y-85140048D01*
X115910049Y-85140046D01*
X115893605Y-85135217D01*
X115771964Y-85099500D01*
X115771961Y-85099500D01*
X115628039Y-85099500D01*
X115628035Y-85099500D01*
X115489949Y-85140046D01*
X115489942Y-85140049D01*
X115368873Y-85217855D01*
X115274621Y-85326628D01*
X115230225Y-85423841D01*
X115210176Y-85452718D01*
X112339508Y-88323389D01*
X112339507Y-88323390D01*
X112280200Y-88426112D01*
X112280200Y-88426113D01*
X112280201Y-88426114D01*
X112258381Y-88507549D01*
X112249500Y-88540692D01*
X112249500Y-95682388D01*
X112230593Y-95740579D01*
X112220504Y-95752392D01*
X111564392Y-96408503D01*
X111522281Y-96433488D01*
X111499949Y-96440045D01*
X111498843Y-96440551D01*
X111496469Y-96441067D01*
X111493154Y-96442041D01*
X111493084Y-96441803D01*
X111457712Y-96449500D01*
X103420691Y-96449500D01*
X103363402Y-96464850D01*
X103306112Y-96480201D01*
X103268137Y-96502127D01*
X103268136Y-96502126D01*
X103203385Y-96539511D01*
X102895406Y-96847489D01*
X102840890Y-96875266D01*
X102796665Y-96872222D01*
X102705934Y-96844699D01*
X102705929Y-96844698D01*
X102500003Y-96824417D01*
X102499997Y-96824417D01*
X102294070Y-96844698D01*
X102294065Y-96844699D01*
X102096045Y-96904768D01*
X101913547Y-97002316D01*
X101753595Y-97133585D01*
X101753585Y-97133595D01*
X101622316Y-97293547D01*
X101524768Y-97476045D01*
X101464699Y-97674065D01*
X101464698Y-97674070D01*
X101444417Y-97879996D01*
X101444417Y-97880003D01*
X100250500Y-97880003D01*
X100250500Y-92529900D01*
X103549500Y-92529900D01*
X103590138Y-92786488D01*
X103667789Y-93025471D01*
X103670421Y-93033572D01*
X103726733Y-93144090D01*
X103788074Y-93264479D01*
X103788366Y-93265051D01*
X103941069Y-93475229D01*
X104124771Y-93658931D01*
X104334949Y-93811634D01*
X104566428Y-93929579D01*
X104813507Y-94009860D01*
X104813508Y-94009860D01*
X104813511Y-94009861D01*
X105070100Y-94050500D01*
X105070103Y-94050500D01*
X105329900Y-94050500D01*
X105586488Y-94009861D01*
X105586489Y-94009860D01*
X105586493Y-94009860D01*
X105833572Y-93929579D01*
X106065051Y-93811634D01*
X106275229Y-93658931D01*
X106458931Y-93475229D01*
X106611634Y-93265051D01*
X106729579Y-93033572D01*
X106809860Y-92786493D01*
X106814454Y-92757488D01*
X106850500Y-92529900D01*
X106850500Y-91470099D01*
X106809861Y-91213511D01*
X106792325Y-91159539D01*
X106729579Y-90966428D01*
X106611634Y-90734949D01*
X106458931Y-90524771D01*
X106275229Y-90341069D01*
X106065051Y-90188366D01*
X106065050Y-90188365D01*
X106065048Y-90188364D01*
X105936508Y-90122870D01*
X105833572Y-90070421D01*
X105833569Y-90070420D01*
X105833567Y-90070419D01*
X105586488Y-89990138D01*
X105329900Y-89949500D01*
X105329897Y-89949500D01*
X105070103Y-89949500D01*
X105070100Y-89949500D01*
X104813511Y-89990138D01*
X104566432Y-90070419D01*
X104334951Y-90188364D01*
X104124772Y-90341068D01*
X103941068Y-90524772D01*
X103788364Y-90734951D01*
X103670419Y-90966432D01*
X103590138Y-91213511D01*
X103549500Y-91470099D01*
X103549500Y-92529900D01*
X100250500Y-92529900D01*
X100250500Y-85000003D01*
X112394659Y-85000003D01*
X112413974Y-85196126D01*
X112413975Y-85196129D01*
X112471187Y-85384730D01*
X112471188Y-85384732D01*
X112497788Y-85434496D01*
X112564090Y-85558538D01*
X112564092Y-85558540D01*
X112564093Y-85558542D01*
X112689112Y-85710878D01*
X112689121Y-85710887D01*
X112841457Y-85835906D01*
X112841462Y-85835910D01*
X113015273Y-85928814D01*
X113203868Y-85986024D01*
X113203870Y-85986024D01*
X113203873Y-85986025D01*
X113399997Y-86005341D01*
X113400000Y-86005341D01*
X113400003Y-86005341D01*
X113596126Y-85986025D01*
X113596127Y-85986024D01*
X113596132Y-85986024D01*
X113784727Y-85928814D01*
X113958538Y-85835910D01*
X114110883Y-85710883D01*
X114235910Y-85558538D01*
X114328814Y-85384727D01*
X114386024Y-85196132D01*
X114391110Y-85144500D01*
X114405341Y-85000003D01*
X114405341Y-84999996D01*
X114386025Y-84803873D01*
X114386024Y-84803870D01*
X114386024Y-84803868D01*
X114328814Y-84615273D01*
X114319180Y-84597250D01*
X114292722Y-84547750D01*
X114235910Y-84441462D01*
X114159164Y-84347947D01*
X114110887Y-84289121D01*
X114110878Y-84289112D01*
X113958542Y-84164093D01*
X113958540Y-84164092D01*
X113958538Y-84164090D01*
X113890661Y-84127809D01*
X113784732Y-84071188D01*
X113784730Y-84071187D01*
X113596129Y-84013975D01*
X113596126Y-84013974D01*
X113400003Y-83994659D01*
X113399997Y-83994659D01*
X113203873Y-84013974D01*
X113203870Y-84013975D01*
X113015269Y-84071187D01*
X113015267Y-84071188D01*
X112841467Y-84164087D01*
X112841457Y-84164093D01*
X112689121Y-84289112D01*
X112689112Y-84289121D01*
X112564093Y-84441457D01*
X112564087Y-84441467D01*
X112471188Y-84615267D01*
X112471187Y-84615269D01*
X112413975Y-84803870D01*
X112413974Y-84803873D01*
X112394659Y-84999996D01*
X112394659Y-85000003D01*
X100250500Y-85000003D01*
X100250500Y-78371551D01*
X101395500Y-78371551D01*
X101427230Y-78612563D01*
X101427230Y-78612568D01*
X101490149Y-78847387D01*
X101583178Y-79071979D01*
X101583181Y-79071984D01*
X101704731Y-79282516D01*
X101852722Y-79475380D01*
X102024620Y-79647278D01*
X102217484Y-79795269D01*
X102428016Y-79916819D01*
X102428017Y-79916819D01*
X102428020Y-79916821D01*
X102652612Y-80009850D01*
X102887429Y-80072769D01*
X103128450Y-80104500D01*
X103128451Y-80104500D01*
X103371549Y-80104500D01*
X103371550Y-80104500D01*
X103612571Y-80072769D01*
X103847388Y-80009850D01*
X104071984Y-79916819D01*
X104282516Y-79795269D01*
X104475380Y-79647278D01*
X104647278Y-79475380D01*
X104795269Y-79282516D01*
X104916819Y-79071984D01*
X105009850Y-78847388D01*
X105072769Y-78612571D01*
X105104500Y-78371550D01*
X105104500Y-78128450D01*
X105072769Y-77887429D01*
X105009850Y-77652612D01*
X104916819Y-77428016D01*
X104795269Y-77217484D01*
X104704988Y-77099828D01*
X112249500Y-77099828D01*
X112287634Y-77191894D01*
X112287635Y-77191895D01*
X112287636Y-77191897D01*
X112358103Y-77262364D01*
X112358104Y-77262364D01*
X112358105Y-77262365D01*
X112450171Y-77300500D01*
X112450172Y-77300500D01*
X135549829Y-77300500D01*
X135607885Y-77276451D01*
X135641897Y-77262364D01*
X135712364Y-77191897D01*
X135750500Y-77099828D01*
X135750500Y-74000172D01*
X135712364Y-73908103D01*
X135641897Y-73837636D01*
X135641895Y-73837635D01*
X135641894Y-73837634D01*
X135549829Y-73799500D01*
X135549828Y-73799500D01*
X112549828Y-73799500D01*
X112450172Y-73799500D01*
X112450171Y-73799500D01*
X112358105Y-73837634D01*
X112287634Y-73908105D01*
X112249500Y-74000171D01*
X112249500Y-77099828D01*
X104704988Y-77099828D01*
X104647278Y-77024620D01*
X104475380Y-76852722D01*
X104282516Y-76704731D01*
X104282517Y-76704731D01*
X104282515Y-76704730D01*
X104071979Y-76583178D01*
X103847387Y-76490149D01*
X103687001Y-76447174D01*
X103612571Y-76427231D01*
X103612568Y-76427230D01*
X103612566Y-76427230D01*
X103371551Y-76395500D01*
X103371550Y-76395500D01*
X103128450Y-76395500D01*
X103128448Y-76395500D01*
X102887436Y-76427230D01*
X102887431Y-76427230D01*
X102652612Y-76490149D01*
X102428020Y-76583178D01*
X102217484Y-76704730D01*
X102024623Y-76852719D01*
X101852719Y-77024623D01*
X101704730Y-77217484D01*
X101583178Y-77428020D01*
X101490149Y-77652612D01*
X101427230Y-77887431D01*
X101427230Y-77887436D01*
X101395500Y-78128448D01*
X101395500Y-78371551D01*
X100250500Y-78371551D01*
X100250500Y-53371551D01*
X101395500Y-53371551D01*
X101427230Y-53612563D01*
X101427230Y-53612568D01*
X101490149Y-53847387D01*
X101583178Y-54071979D01*
X101583181Y-54071984D01*
X101704731Y-54282516D01*
X101852722Y-54475380D01*
X102024620Y-54647278D01*
X102217484Y-54795269D01*
X102428016Y-54916819D01*
X102428017Y-54916819D01*
X102428020Y-54916821D01*
X102652612Y-55009850D01*
X102887429Y-55072769D01*
X103128450Y-55104500D01*
X103128451Y-55104500D01*
X103371549Y-55104500D01*
X103371550Y-55104500D01*
X103612571Y-55072769D01*
X103847388Y-55009850D01*
X104071984Y-54916819D01*
X104282516Y-54795269D01*
X104475380Y-54647278D01*
X104647278Y-54475380D01*
X104795269Y-54282516D01*
X104916819Y-54071984D01*
X105009850Y-53847388D01*
X105072769Y-53612571D01*
X105104500Y-53371551D01*
X142895500Y-53371551D01*
X142927230Y-53612563D01*
X142927230Y-53612568D01*
X142990149Y-53847387D01*
X143083178Y-54071979D01*
X143083181Y-54071984D01*
X143204731Y-54282516D01*
X143352722Y-54475380D01*
X143524620Y-54647278D01*
X143717484Y-54795269D01*
X143928016Y-54916819D01*
X143928017Y-54916819D01*
X143928020Y-54916821D01*
X144152612Y-55009850D01*
X144387429Y-55072769D01*
X144628450Y-55104500D01*
X144628451Y-55104500D01*
X144871549Y-55104500D01*
X144871550Y-55104500D01*
X145112571Y-55072769D01*
X145347388Y-55009850D01*
X145571984Y-54916819D01*
X145782516Y-54795269D01*
X145975380Y-54647278D01*
X146147278Y-54475380D01*
X146295269Y-54282516D01*
X146416819Y-54071984D01*
X146509850Y-53847388D01*
X146572769Y-53612571D01*
X146604500Y-53371550D01*
X146604500Y-53128450D01*
X146572769Y-52887429D01*
X146509850Y-52652612D01*
X146416819Y-52428016D01*
X146295269Y-52217484D01*
X146147278Y-52024620D01*
X145975380Y-51852722D01*
X145782516Y-51704731D01*
X145782517Y-51704731D01*
X145782515Y-51704730D01*
X145571979Y-51583178D01*
X145347387Y-51490149D01*
X145187001Y-51447174D01*
X145112571Y-51427231D01*
X145112568Y-51427230D01*
X145112566Y-51427230D01*
X144871551Y-51395500D01*
X144871550Y-51395500D01*
X144628450Y-51395500D01*
X144628448Y-51395500D01*
X144387436Y-51427230D01*
X144387431Y-51427230D01*
X144152612Y-51490149D01*
X143928020Y-51583178D01*
X143717484Y-51704730D01*
X143524623Y-51852719D01*
X143352719Y-52024623D01*
X143204730Y-52217484D01*
X143083178Y-52428020D01*
X142990149Y-52652612D01*
X142927230Y-52887431D01*
X142927230Y-52887436D01*
X142895500Y-53128448D01*
X142895500Y-53371551D01*
X105104500Y-53371551D01*
X105104500Y-53371550D01*
X105104500Y-53128450D01*
X105072769Y-52887429D01*
X105009850Y-52652612D01*
X104916819Y-52428016D01*
X104795269Y-52217484D01*
X104647278Y-52024620D01*
X104475380Y-51852722D01*
X104282516Y-51704731D01*
X104282517Y-51704731D01*
X104282515Y-51704730D01*
X104071979Y-51583178D01*
X103847387Y-51490149D01*
X103687001Y-51447174D01*
X103612571Y-51427231D01*
X103612568Y-51427230D01*
X103612566Y-51427230D01*
X103371551Y-51395500D01*
X103371550Y-51395500D01*
X103128450Y-51395500D01*
X103128448Y-51395500D01*
X102887436Y-51427230D01*
X102887431Y-51427230D01*
X102652612Y-51490149D01*
X102428020Y-51583178D01*
X102217484Y-51704730D01*
X102024623Y-51852719D01*
X101852719Y-52024623D01*
X101704730Y-52217484D01*
X101583178Y-52428020D01*
X101490149Y-52652612D01*
X101427230Y-52887431D01*
X101427230Y-52887436D01*
X101395500Y-53128448D01*
X101395500Y-53371551D01*
X100250500Y-53371551D01*
X100250500Y-50349500D01*
X100269407Y-50291309D01*
X100318907Y-50255345D01*
X100349500Y-50250500D01*
X147650500Y-50250500D01*
X147708691Y-50269407D01*
G37*
%TD.AperFunction*%
%TD*%
%TA.AperFunction,Conductor*%
%TO.N,+3V3*%
G36*
X125217183Y-65418907D02*
G01*
X125228996Y-65428996D01*
X125800000Y-66000000D01*
X139308992Y-66000000D01*
X139367183Y-66018907D01*
X139378996Y-66028996D01*
X141321004Y-67971004D01*
X141348781Y-68025521D01*
X141350000Y-68041008D01*
X141350000Y-100401000D01*
X141331093Y-100459191D01*
X141281593Y-100495155D01*
X141251000Y-100500000D01*
X140891008Y-100500000D01*
X140832817Y-100481093D01*
X140821004Y-100471004D01*
X140751000Y-100401000D01*
X140250000Y-99900000D01*
X140249999Y-99900000D01*
X133133672Y-99900000D01*
X133075481Y-99881093D01*
X133073311Y-99879470D01*
X132488639Y-99429722D01*
X132454043Y-99379256D01*
X132450000Y-99351252D01*
X132450000Y-98041008D01*
X132468907Y-97982817D01*
X132478996Y-97971004D01*
X132771004Y-97678996D01*
X132825521Y-97651219D01*
X132841008Y-97650000D01*
X133292169Y-97650000D01*
X133299478Y-97650391D01*
X133299480Y-97650358D01*
X133302108Y-97650498D01*
X133302127Y-97650500D01*
X134597872Y-97650499D01*
X134597877Y-97650498D01*
X134600514Y-97650357D01*
X134600515Y-97650391D01*
X134607818Y-97650000D01*
X136392169Y-97650000D01*
X136399478Y-97650391D01*
X136399480Y-97650358D01*
X136402108Y-97650498D01*
X136402127Y-97650500D01*
X137697872Y-97650499D01*
X137757483Y-97644091D01*
X137824907Y-97618943D01*
X137892329Y-97593797D01*
X137892329Y-97593796D01*
X137892331Y-97593796D01*
X138007546Y-97507546D01*
X138093796Y-97392331D01*
X138144091Y-97257483D01*
X138150500Y-97197873D01*
X138150499Y-96502128D01*
X138150498Y-96502123D01*
X138150357Y-96499486D01*
X138150391Y-96499484D01*
X138150000Y-96492182D01*
X138150000Y-92707830D01*
X138150391Y-92700521D01*
X138150358Y-92700520D01*
X138150497Y-92697892D01*
X138150500Y-92697873D01*
X138150499Y-92002128D01*
X138150498Y-92002123D01*
X138150357Y-91999486D01*
X138150391Y-91999484D01*
X138150000Y-91992182D01*
X138150000Y-88207830D01*
X138150391Y-88200521D01*
X138150358Y-88200520D01*
X138150497Y-88197892D01*
X138150500Y-88197873D01*
X138150499Y-87502128D01*
X138150498Y-87502123D01*
X138150357Y-87499486D01*
X138150391Y-87499484D01*
X138150000Y-87492182D01*
X138150000Y-87300001D01*
X138150000Y-87300000D01*
X137900000Y-87050000D01*
X137899999Y-87050000D01*
X137707831Y-87050000D01*
X137700521Y-87049608D01*
X137700520Y-87049642D01*
X137697873Y-87049500D01*
X137697872Y-87049500D01*
X136402133Y-87049500D01*
X136399486Y-87049643D01*
X136399484Y-87049608D01*
X136392182Y-87050000D01*
X134607831Y-87050000D01*
X134600521Y-87049608D01*
X134600520Y-87049642D01*
X134597873Y-87049500D01*
X134597872Y-87049500D01*
X133500000Y-87049500D01*
X133500000Y-86650000D01*
X133600000Y-86650000D01*
X133600000Y-84700000D01*
X134000000Y-85000000D01*
X137899999Y-85000000D01*
X137900000Y-85000000D01*
X138400000Y-84400000D01*
X138400000Y-69100000D01*
X137600000Y-68300000D01*
X137599999Y-68300000D01*
X125341008Y-68300000D01*
X125282817Y-68281093D01*
X125271004Y-68271004D01*
X124728996Y-67728996D01*
X124701219Y-67674479D01*
X124700000Y-67658992D01*
X124700000Y-65729974D01*
X124716627Y-65675059D01*
X124870610Y-65444085D01*
X124918620Y-65406155D01*
X124952983Y-65400000D01*
X125158992Y-65400000D01*
X125217183Y-65418907D01*
G37*
%TD.AperFunction*%
%TD*%
%TA.AperFunction,Conductor*%
%TO.N,+3V3*%
G36*
X126820551Y-80668907D02*
G01*
X126828132Y-80675006D01*
X127216772Y-81020464D01*
X127247703Y-81073256D01*
X127250000Y-81094458D01*
X127250000Y-82600000D01*
X127700000Y-83100000D01*
X132662361Y-83100000D01*
X132720552Y-83118907D01*
X132728133Y-83125007D01*
X132816272Y-83203353D01*
X132847203Y-83256144D01*
X132849500Y-83277346D01*
X132849500Y-83697866D01*
X132849501Y-83697870D01*
X132855908Y-83757480D01*
X132855909Y-83757485D01*
X132906202Y-83892329D01*
X132992450Y-84007541D01*
X132992454Y-84007546D01*
X132992457Y-84007548D01*
X132992458Y-84007549D01*
X133107670Y-84093797D01*
X133242511Y-84144089D01*
X133242512Y-84144089D01*
X133242517Y-84144091D01*
X133302127Y-84150500D01*
X133501002Y-84150499D01*
X133559190Y-84169406D01*
X133595154Y-84218906D01*
X133600000Y-84249499D01*
X133600000Y-87049500D01*
X133302133Y-87049500D01*
X133302129Y-87049500D01*
X133302128Y-87049501D01*
X133294949Y-87050272D01*
X133242519Y-87055908D01*
X133242514Y-87055909D01*
X133107670Y-87106202D01*
X132992458Y-87192450D01*
X132992450Y-87192458D01*
X132906202Y-87307670D01*
X132855910Y-87442511D01*
X132855908Y-87442522D01*
X132849500Y-87502129D01*
X132849500Y-88197869D01*
X132849643Y-88200517D01*
X132849608Y-88200518D01*
X132850000Y-88207819D01*
X132850000Y-89264157D01*
X132831093Y-89322348D01*
X132827054Y-89327535D01*
X132629685Y-89564378D01*
X132577907Y-89596977D01*
X132553631Y-89600000D01*
X132091008Y-89600000D01*
X132032817Y-89581093D01*
X132021004Y-89571004D01*
X131778996Y-89328996D01*
X131751219Y-89274479D01*
X131750000Y-89258992D01*
X131750000Y-86199999D01*
X130862587Y-85354845D01*
X130700000Y-85200000D01*
X130699999Y-85200000D01*
X126700001Y-85200000D01*
X126700000Y-85200000D01*
X125500000Y-86400000D01*
X125500000Y-86400001D01*
X125500000Y-86400500D01*
X125481093Y-86458691D01*
X125431593Y-86494655D01*
X125401000Y-86499500D01*
X125278035Y-86499500D01*
X125139949Y-86540046D01*
X125139942Y-86540049D01*
X125018873Y-86617855D01*
X124924622Y-86726628D01*
X124864834Y-86857544D01*
X124849443Y-86964589D01*
X124822447Y-87019497D01*
X124768332Y-87048050D01*
X124751451Y-87049500D01*
X124402133Y-87049500D01*
X124402129Y-87049500D01*
X124402128Y-87049501D01*
X124394949Y-87050272D01*
X124342519Y-87055908D01*
X124342514Y-87055909D01*
X124207670Y-87106202D01*
X124092458Y-87192450D01*
X124092450Y-87192458D01*
X124006202Y-87307670D01*
X123955910Y-87442511D01*
X123955908Y-87442522D01*
X123949500Y-87502129D01*
X123949500Y-88197866D01*
X123949500Y-88197869D01*
X123949501Y-88197872D01*
X123950570Y-88207819D01*
X123955908Y-88257480D01*
X123955909Y-88257485D01*
X124006202Y-88392329D01*
X124011945Y-88400000D01*
X124092454Y-88507546D01*
X124092457Y-88507548D01*
X124092458Y-88507549D01*
X124207670Y-88593797D01*
X124342511Y-88644089D01*
X124342512Y-88644089D01*
X124342517Y-88644091D01*
X124402127Y-88650500D01*
X125401000Y-88650499D01*
X125459191Y-88669406D01*
X125495155Y-88718906D01*
X125500000Y-88749499D01*
X125500000Y-88858992D01*
X125481093Y-88917183D01*
X125471003Y-88928996D01*
X125256919Y-89143079D01*
X125214809Y-89168064D01*
X125139952Y-89190044D01*
X125139942Y-89190049D01*
X125018873Y-89267855D01*
X124967948Y-89326627D01*
X124924623Y-89376627D01*
X124894709Y-89442127D01*
X124853338Y-89487204D01*
X124804657Y-89500000D01*
X124099999Y-89500000D01*
X123660712Y-89939286D01*
X123606196Y-89967063D01*
X123545764Y-89957492D01*
X123531309Y-89948482D01*
X123239600Y-89729700D01*
X123204392Y-89679660D01*
X123200000Y-89650500D01*
X123200000Y-86250000D01*
X123199999Y-86249999D01*
X122828996Y-85878995D01*
X122801219Y-85824479D01*
X122800000Y-85808992D01*
X122800000Y-85449000D01*
X122818907Y-85390809D01*
X122868407Y-85354845D01*
X122899000Y-85350000D01*
X124799999Y-85350000D01*
X124800000Y-85350000D01*
X125450000Y-84750000D01*
X125450000Y-84249499D01*
X125468907Y-84191308D01*
X125518407Y-84155344D01*
X125548999Y-84150499D01*
X125697872Y-84150499D01*
X125757483Y-84144091D01*
X125824907Y-84118943D01*
X125892329Y-84093797D01*
X125892329Y-84093796D01*
X125892331Y-84093796D01*
X126007546Y-84007546D01*
X126093796Y-83892331D01*
X126144091Y-83757483D01*
X126150500Y-83697873D01*
X126150499Y-83002128D01*
X126144091Y-82942517D01*
X126125420Y-82892457D01*
X126093797Y-82807670D01*
X126007549Y-82692458D01*
X126007548Y-82692457D01*
X126007546Y-82692454D01*
X125894120Y-82607543D01*
X125892329Y-82606202D01*
X125757488Y-82555910D01*
X125757483Y-82555909D01*
X125757481Y-82555908D01*
X125757477Y-82555908D01*
X125726249Y-82552550D01*
X125697873Y-82549500D01*
X125697870Y-82549500D01*
X125549000Y-82549500D01*
X125490809Y-82530593D01*
X125454845Y-82481093D01*
X125450000Y-82450500D01*
X125450000Y-80883000D01*
X125468907Y-80824809D01*
X125469800Y-80823600D01*
X125570300Y-80689600D01*
X125620340Y-80654392D01*
X125649500Y-80650000D01*
X126762360Y-80650000D01*
X126820551Y-80668907D01*
G37*
%TD.AperFunction*%
%TD*%
%TA.AperFunction,Conductor*%
%TO.N,/2. MCU/SWDIO*%
G36*
X130175779Y-90789467D02*
G01*
X130181877Y-90795329D01*
X130391523Y-91246132D01*
X130391904Y-91255079D01*
X130389187Y-91259339D01*
X130259339Y-91389187D01*
X130251066Y-91392614D01*
X130246132Y-91391523D01*
X129952736Y-91255079D01*
X129795328Y-91181876D01*
X129789273Y-91175281D01*
X129789439Y-91166825D01*
X129897436Y-90903814D01*
X129903746Y-90897464D01*
X130166825Y-90789440D01*
X130175779Y-90789467D01*
G37*
%TD.AperFunction*%
%TD*%
%TA.AperFunction,Conductor*%
%TO.N,/2. MCU/SWCLK*%
G36*
X129335210Y-90724407D02*
G01*
X129341471Y-90730636D01*
X129536700Y-91191097D01*
X129536774Y-91200051D01*
X129534201Y-91203937D01*
X129404334Y-91333804D01*
X129396061Y-91337231D01*
X129390808Y-91335985D01*
X128954675Y-91116824D01*
X128948821Y-91110048D01*
X128949105Y-91101926D01*
X129057228Y-90838607D01*
X129063538Y-90832256D01*
X129326257Y-90724380D01*
X129335210Y-90724407D01*
G37*
%TD.AperFunction*%
%TD*%
%TA.AperFunction,Conductor*%
%TO.N,/2. MCU/KEY_SEQ*%
G36*
X137316851Y-91310496D02*
G01*
X137323163Y-91316848D01*
X137323330Y-91325305D01*
X137152807Y-91792313D01*
X137146751Y-91798909D01*
X137141817Y-91800000D01*
X136958183Y-91800000D01*
X136949910Y-91796573D01*
X136947193Y-91792313D01*
X136776669Y-91325302D01*
X136777050Y-91316358D01*
X136783147Y-91310496D01*
X137045490Y-91200883D01*
X137054444Y-91200857D01*
X137316851Y-91310496D01*
G37*
%TD.AperFunction*%
%TD*%
%TA.AperFunction,Conductor*%
%TO.N,/2. MCU/KEY_SEQ_EN*%
G36*
X134216851Y-91310496D02*
G01*
X134223163Y-91316848D01*
X134223330Y-91325305D01*
X134052807Y-91792313D01*
X134046751Y-91798909D01*
X134041817Y-91800000D01*
X133858183Y-91800000D01*
X133849910Y-91796573D01*
X133847193Y-91792313D01*
X133676669Y-91325302D01*
X133677050Y-91316358D01*
X133683147Y-91310496D01*
X133945490Y-91200883D01*
X133954444Y-91200857D01*
X134216851Y-91310496D01*
G37*
%TD.AperFunction*%
%TD*%
%TA.AperFunction,Conductor*%
%TO.N,/2. MCU/KEY_MENU*%
G36*
X139333641Y-101077050D02*
G01*
X139339503Y-101083148D01*
X139449115Y-101345489D01*
X139449142Y-101354444D01*
X139449115Y-101354511D01*
X139339503Y-101616851D01*
X139333151Y-101623163D01*
X139324694Y-101623329D01*
X139190947Y-101574493D01*
X138857687Y-101452806D01*
X138851091Y-101446750D01*
X138850000Y-101441816D01*
X138850000Y-101258183D01*
X138853427Y-101249910D01*
X138857687Y-101247193D01*
X139324697Y-101076669D01*
X139333641Y-101077050D01*
G37*
%TD.AperFunction*%
%TD*%
%TA.AperFunction,Conductor*%
%TO.N,/CMD_CLK*%
G36*
X116116851Y-98410496D02*
G01*
X116123163Y-98416848D01*
X116123330Y-98425305D01*
X115952807Y-98892313D01*
X115946751Y-98898909D01*
X115941817Y-98900000D01*
X115758183Y-98900000D01*
X115749910Y-98896573D01*
X115747193Y-98892313D01*
X115576669Y-98425302D01*
X115577050Y-98416358D01*
X115583147Y-98410496D01*
X115845490Y-98300883D01*
X115854444Y-98300857D01*
X116116851Y-98410496D01*
G37*
%TD.AperFunction*%
%TD*%
%TA.AperFunction,Conductor*%
%TO.N,/2. MCU/KEY_MODE*%
G36*
X136492313Y-87697193D02*
G01*
X136498909Y-87703249D01*
X136500000Y-87708183D01*
X136500000Y-87891816D01*
X136496573Y-87900089D01*
X136492313Y-87902806D01*
X136025305Y-88073330D01*
X136016358Y-88072949D01*
X136010496Y-88066851D01*
X135900883Y-87804509D01*
X135900857Y-87795556D01*
X135900862Y-87795542D01*
X136010496Y-87533147D01*
X136016848Y-87526836D01*
X136025302Y-87526669D01*
X136492313Y-87697193D01*
G37*
%TD.AperFunction*%
%TD*%
M02*
