%TF.GenerationSoftware,KiCad,Pcbnew,8.0.1*%
%TF.CreationDate,2024-04-03T11:04:11+02:00*%
%TF.ProjectId,dcload-interface-board,64636c6f-6164-42d6-996e-746572666163,rev?*%
%TF.SameCoordinates,Original*%
%TF.FileFunction,Legend,Top*%
%TF.FilePolarity,Positive*%
%FSLAX46Y46*%
G04 Gerber Fmt 4.6, Leading zero omitted, Abs format (unit mm)*
G04 Created by KiCad (PCBNEW 8.0.1) date 2024-04-03 11:04:11*
%MOMM*%
%LPD*%
G01*
G04 APERTURE LIST*
%ADD10C,0.150000*%
%ADD11C,0.120000*%
%ADD12C,0.160000*%
%ADD13C,0.000000*%
%ADD14C,0.100000*%
G04 APERTURE END LIST*
D10*
X106050000Y-53250000D02*
G75*
G02*
X100450000Y-53250000I-2800000J0D01*
G01*
X100450000Y-53250000D02*
G75*
G02*
X106050000Y-53250000I2800000J0D01*
G01*
X106050000Y-78250000D02*
G75*
G02*
X100450000Y-78250000I-2800000J0D01*
G01*
X100450000Y-78250000D02*
G75*
G02*
X106050000Y-78250000I2800000J0D01*
G01*
X106050000Y-111000000D02*
G75*
G02*
X100450000Y-111000000I-2800000J0D01*
G01*
X100450000Y-111000000D02*
G75*
G02*
X106050000Y-111000000I2800000J0D01*
G01*
X147550000Y-78250000D02*
G75*
G02*
X141950000Y-78250000I-2800000J0D01*
G01*
X141950000Y-78250000D02*
G75*
G02*
X147550000Y-78250000I2800000J0D01*
G01*
X147550000Y-111000000D02*
G75*
G02*
X141950000Y-111000000I-2800000J0D01*
G01*
X141950000Y-111000000D02*
G75*
G02*
X147550000Y-111000000I2800000J0D01*
G01*
X147500000Y-53200000D02*
G75*
G02*
X141900000Y-53200000I-2800000J0D01*
G01*
X141900000Y-53200000D02*
G75*
G02*
X147500000Y-53200000I2800000J0D01*
G01*
X120877503Y-53454819D02*
X120877503Y-52454819D01*
X120877503Y-52454819D02*
X121115598Y-52454819D01*
X121115598Y-52454819D02*
X121258455Y-52502438D01*
X121258455Y-52502438D02*
X121353693Y-52597676D01*
X121353693Y-52597676D02*
X121401312Y-52692914D01*
X121401312Y-52692914D02*
X121448931Y-52883390D01*
X121448931Y-52883390D02*
X121448931Y-53026247D01*
X121448931Y-53026247D02*
X121401312Y-53216723D01*
X121401312Y-53216723D02*
X121353693Y-53311961D01*
X121353693Y-53311961D02*
X121258455Y-53407200D01*
X121258455Y-53407200D02*
X121115598Y-53454819D01*
X121115598Y-53454819D02*
X120877503Y-53454819D01*
X122448931Y-53359580D02*
X122401312Y-53407200D01*
X122401312Y-53407200D02*
X122258455Y-53454819D01*
X122258455Y-53454819D02*
X122163217Y-53454819D01*
X122163217Y-53454819D02*
X122020360Y-53407200D01*
X122020360Y-53407200D02*
X121925122Y-53311961D01*
X121925122Y-53311961D02*
X121877503Y-53216723D01*
X121877503Y-53216723D02*
X121829884Y-53026247D01*
X121829884Y-53026247D02*
X121829884Y-52883390D01*
X121829884Y-52883390D02*
X121877503Y-52692914D01*
X121877503Y-52692914D02*
X121925122Y-52597676D01*
X121925122Y-52597676D02*
X122020360Y-52502438D01*
X122020360Y-52502438D02*
X122163217Y-52454819D01*
X122163217Y-52454819D02*
X122258455Y-52454819D01*
X122258455Y-52454819D02*
X122401312Y-52502438D01*
X122401312Y-52502438D02*
X122448931Y-52550057D01*
X124115598Y-53454819D02*
X123639408Y-53454819D01*
X123639408Y-53454819D02*
X123639408Y-52454819D01*
X124591789Y-53454819D02*
X124496551Y-53407200D01*
X124496551Y-53407200D02*
X124448932Y-53359580D01*
X124448932Y-53359580D02*
X124401313Y-53264342D01*
X124401313Y-53264342D02*
X124401313Y-52978628D01*
X124401313Y-52978628D02*
X124448932Y-52883390D01*
X124448932Y-52883390D02*
X124496551Y-52835771D01*
X124496551Y-52835771D02*
X124591789Y-52788152D01*
X124591789Y-52788152D02*
X124734646Y-52788152D01*
X124734646Y-52788152D02*
X124829884Y-52835771D01*
X124829884Y-52835771D02*
X124877503Y-52883390D01*
X124877503Y-52883390D02*
X124925122Y-52978628D01*
X124925122Y-52978628D02*
X124925122Y-53264342D01*
X124925122Y-53264342D02*
X124877503Y-53359580D01*
X124877503Y-53359580D02*
X124829884Y-53407200D01*
X124829884Y-53407200D02*
X124734646Y-53454819D01*
X124734646Y-53454819D02*
X124591789Y-53454819D01*
X125782265Y-53454819D02*
X125782265Y-52931009D01*
X125782265Y-52931009D02*
X125734646Y-52835771D01*
X125734646Y-52835771D02*
X125639408Y-52788152D01*
X125639408Y-52788152D02*
X125448932Y-52788152D01*
X125448932Y-52788152D02*
X125353694Y-52835771D01*
X125782265Y-53407200D02*
X125687027Y-53454819D01*
X125687027Y-53454819D02*
X125448932Y-53454819D01*
X125448932Y-53454819D02*
X125353694Y-53407200D01*
X125353694Y-53407200D02*
X125306075Y-53311961D01*
X125306075Y-53311961D02*
X125306075Y-53216723D01*
X125306075Y-53216723D02*
X125353694Y-53121485D01*
X125353694Y-53121485D02*
X125448932Y-53073866D01*
X125448932Y-53073866D02*
X125687027Y-53073866D01*
X125687027Y-53073866D02*
X125782265Y-53026247D01*
X126687027Y-53454819D02*
X126687027Y-52454819D01*
X126687027Y-53407200D02*
X126591789Y-53454819D01*
X126591789Y-53454819D02*
X126401313Y-53454819D01*
X126401313Y-53454819D02*
X126306075Y-53407200D01*
X126306075Y-53407200D02*
X126258456Y-53359580D01*
X126258456Y-53359580D02*
X126210837Y-53264342D01*
X126210837Y-53264342D02*
X126210837Y-52978628D01*
X126210837Y-52978628D02*
X126258456Y-52883390D01*
X126258456Y-52883390D02*
X126306075Y-52835771D01*
X126306075Y-52835771D02*
X126401313Y-52788152D01*
X126401313Y-52788152D02*
X126591789Y-52788152D01*
X126591789Y-52788152D02*
X126687027Y-52835771D01*
X127925123Y-53454819D02*
X127925123Y-52454819D01*
X128401313Y-52788152D02*
X128401313Y-53454819D01*
X128401313Y-52883390D02*
X128448932Y-52835771D01*
X128448932Y-52835771D02*
X128544170Y-52788152D01*
X128544170Y-52788152D02*
X128687027Y-52788152D01*
X128687027Y-52788152D02*
X128782265Y-52835771D01*
X128782265Y-52835771D02*
X128829884Y-52931009D01*
X128829884Y-52931009D02*
X128829884Y-53454819D01*
X129163218Y-52788152D02*
X129544170Y-52788152D01*
X129306075Y-52454819D02*
X129306075Y-53311961D01*
X129306075Y-53311961D02*
X129353694Y-53407200D01*
X129353694Y-53407200D02*
X129448932Y-53454819D01*
X129448932Y-53454819D02*
X129544170Y-53454819D01*
X130258456Y-53407200D02*
X130163218Y-53454819D01*
X130163218Y-53454819D02*
X129972742Y-53454819D01*
X129972742Y-53454819D02*
X129877504Y-53407200D01*
X129877504Y-53407200D02*
X129829885Y-53311961D01*
X129829885Y-53311961D02*
X129829885Y-52931009D01*
X129829885Y-52931009D02*
X129877504Y-52835771D01*
X129877504Y-52835771D02*
X129972742Y-52788152D01*
X129972742Y-52788152D02*
X130163218Y-52788152D01*
X130163218Y-52788152D02*
X130258456Y-52835771D01*
X130258456Y-52835771D02*
X130306075Y-52931009D01*
X130306075Y-52931009D02*
X130306075Y-53026247D01*
X130306075Y-53026247D02*
X129829885Y-53121485D01*
X130734647Y-53454819D02*
X130734647Y-52788152D01*
X130734647Y-52978628D02*
X130782266Y-52883390D01*
X130782266Y-52883390D02*
X130829885Y-52835771D01*
X130829885Y-52835771D02*
X130925123Y-52788152D01*
X130925123Y-52788152D02*
X131020361Y-52788152D01*
X131210838Y-52788152D02*
X131591790Y-52788152D01*
X131353695Y-53454819D02*
X131353695Y-52597676D01*
X131353695Y-52597676D02*
X131401314Y-52502438D01*
X131401314Y-52502438D02*
X131496552Y-52454819D01*
X131496552Y-52454819D02*
X131591790Y-52454819D01*
X132353695Y-53454819D02*
X132353695Y-52931009D01*
X132353695Y-52931009D02*
X132306076Y-52835771D01*
X132306076Y-52835771D02*
X132210838Y-52788152D01*
X132210838Y-52788152D02*
X132020362Y-52788152D01*
X132020362Y-52788152D02*
X131925124Y-52835771D01*
X132353695Y-53407200D02*
X132258457Y-53454819D01*
X132258457Y-53454819D02*
X132020362Y-53454819D01*
X132020362Y-53454819D02*
X131925124Y-53407200D01*
X131925124Y-53407200D02*
X131877505Y-53311961D01*
X131877505Y-53311961D02*
X131877505Y-53216723D01*
X131877505Y-53216723D02*
X131925124Y-53121485D01*
X131925124Y-53121485D02*
X132020362Y-53073866D01*
X132020362Y-53073866D02*
X132258457Y-53073866D01*
X132258457Y-53073866D02*
X132353695Y-53026247D01*
X133258457Y-53407200D02*
X133163219Y-53454819D01*
X133163219Y-53454819D02*
X132972743Y-53454819D01*
X132972743Y-53454819D02*
X132877505Y-53407200D01*
X132877505Y-53407200D02*
X132829886Y-53359580D01*
X132829886Y-53359580D02*
X132782267Y-53264342D01*
X132782267Y-53264342D02*
X132782267Y-52978628D01*
X132782267Y-52978628D02*
X132829886Y-52883390D01*
X132829886Y-52883390D02*
X132877505Y-52835771D01*
X132877505Y-52835771D02*
X132972743Y-52788152D01*
X132972743Y-52788152D02*
X133163219Y-52788152D01*
X133163219Y-52788152D02*
X133258457Y-52835771D01*
X134067981Y-53407200D02*
X133972743Y-53454819D01*
X133972743Y-53454819D02*
X133782267Y-53454819D01*
X133782267Y-53454819D02*
X133687029Y-53407200D01*
X133687029Y-53407200D02*
X133639410Y-53311961D01*
X133639410Y-53311961D02*
X133639410Y-52931009D01*
X133639410Y-52931009D02*
X133687029Y-52835771D01*
X133687029Y-52835771D02*
X133782267Y-52788152D01*
X133782267Y-52788152D02*
X133972743Y-52788152D01*
X133972743Y-52788152D02*
X134067981Y-52835771D01*
X134067981Y-52835771D02*
X134115600Y-52931009D01*
X134115600Y-52931009D02*
X134115600Y-53026247D01*
X134115600Y-53026247D02*
X133639410Y-53121485D01*
X135639410Y-52931009D02*
X135782267Y-52978628D01*
X135782267Y-52978628D02*
X135829886Y-53026247D01*
X135829886Y-53026247D02*
X135877505Y-53121485D01*
X135877505Y-53121485D02*
X135877505Y-53264342D01*
X135877505Y-53264342D02*
X135829886Y-53359580D01*
X135829886Y-53359580D02*
X135782267Y-53407200D01*
X135782267Y-53407200D02*
X135687029Y-53454819D01*
X135687029Y-53454819D02*
X135306077Y-53454819D01*
X135306077Y-53454819D02*
X135306077Y-52454819D01*
X135306077Y-52454819D02*
X135639410Y-52454819D01*
X135639410Y-52454819D02*
X135734648Y-52502438D01*
X135734648Y-52502438D02*
X135782267Y-52550057D01*
X135782267Y-52550057D02*
X135829886Y-52645295D01*
X135829886Y-52645295D02*
X135829886Y-52740533D01*
X135829886Y-52740533D02*
X135782267Y-52835771D01*
X135782267Y-52835771D02*
X135734648Y-52883390D01*
X135734648Y-52883390D02*
X135639410Y-52931009D01*
X135639410Y-52931009D02*
X135306077Y-52931009D01*
X136448934Y-53454819D02*
X136353696Y-53407200D01*
X136353696Y-53407200D02*
X136306077Y-53359580D01*
X136306077Y-53359580D02*
X136258458Y-53264342D01*
X136258458Y-53264342D02*
X136258458Y-52978628D01*
X136258458Y-52978628D02*
X136306077Y-52883390D01*
X136306077Y-52883390D02*
X136353696Y-52835771D01*
X136353696Y-52835771D02*
X136448934Y-52788152D01*
X136448934Y-52788152D02*
X136591791Y-52788152D01*
X136591791Y-52788152D02*
X136687029Y-52835771D01*
X136687029Y-52835771D02*
X136734648Y-52883390D01*
X136734648Y-52883390D02*
X136782267Y-52978628D01*
X136782267Y-52978628D02*
X136782267Y-53264342D01*
X136782267Y-53264342D02*
X136734648Y-53359580D01*
X136734648Y-53359580D02*
X136687029Y-53407200D01*
X136687029Y-53407200D02*
X136591791Y-53454819D01*
X136591791Y-53454819D02*
X136448934Y-53454819D01*
X137639410Y-53454819D02*
X137639410Y-52931009D01*
X137639410Y-52931009D02*
X137591791Y-52835771D01*
X137591791Y-52835771D02*
X137496553Y-52788152D01*
X137496553Y-52788152D02*
X137306077Y-52788152D01*
X137306077Y-52788152D02*
X137210839Y-52835771D01*
X137639410Y-53407200D02*
X137544172Y-53454819D01*
X137544172Y-53454819D02*
X137306077Y-53454819D01*
X137306077Y-53454819D02*
X137210839Y-53407200D01*
X137210839Y-53407200D02*
X137163220Y-53311961D01*
X137163220Y-53311961D02*
X137163220Y-53216723D01*
X137163220Y-53216723D02*
X137210839Y-53121485D01*
X137210839Y-53121485D02*
X137306077Y-53073866D01*
X137306077Y-53073866D02*
X137544172Y-53073866D01*
X137544172Y-53073866D02*
X137639410Y-53026247D01*
X138115601Y-53454819D02*
X138115601Y-52788152D01*
X138115601Y-52978628D02*
X138163220Y-52883390D01*
X138163220Y-52883390D02*
X138210839Y-52835771D01*
X138210839Y-52835771D02*
X138306077Y-52788152D01*
X138306077Y-52788152D02*
X138401315Y-52788152D01*
X139163220Y-53454819D02*
X139163220Y-52454819D01*
X139163220Y-53407200D02*
X139067982Y-53454819D01*
X139067982Y-53454819D02*
X138877506Y-53454819D01*
X138877506Y-53454819D02*
X138782268Y-53407200D01*
X138782268Y-53407200D02*
X138734649Y-53359580D01*
X138734649Y-53359580D02*
X138687030Y-53264342D01*
X138687030Y-53264342D02*
X138687030Y-52978628D01*
X138687030Y-52978628D02*
X138734649Y-52883390D01*
X138734649Y-52883390D02*
X138782268Y-52835771D01*
X138782268Y-52835771D02*
X138877506Y-52788152D01*
X138877506Y-52788152D02*
X139067982Y-52788152D01*
X139067982Y-52788152D02*
X139163220Y-52835771D01*
D11*
X104893232Y-97443855D02*
X105388470Y-97443855D01*
X105388470Y-97443855D02*
X105121804Y-97748617D01*
X105121804Y-97748617D02*
X105236089Y-97748617D01*
X105236089Y-97748617D02*
X105312280Y-97786712D01*
X105312280Y-97786712D02*
X105350375Y-97824807D01*
X105350375Y-97824807D02*
X105388470Y-97900998D01*
X105388470Y-97900998D02*
X105388470Y-98091474D01*
X105388470Y-98091474D02*
X105350375Y-98167664D01*
X105350375Y-98167664D02*
X105312280Y-98205760D01*
X105312280Y-98205760D02*
X105236089Y-98243855D01*
X105236089Y-98243855D02*
X105007518Y-98243855D01*
X105007518Y-98243855D02*
X104931327Y-98205760D01*
X104931327Y-98205760D02*
X104893232Y-98167664D01*
X105617042Y-97443855D02*
X105883709Y-98243855D01*
X105883709Y-98243855D02*
X106150375Y-97443855D01*
X106340851Y-97443855D02*
X106836089Y-97443855D01*
X106836089Y-97443855D02*
X106569423Y-97748617D01*
X106569423Y-97748617D02*
X106683708Y-97748617D01*
X106683708Y-97748617D02*
X106759899Y-97786712D01*
X106759899Y-97786712D02*
X106797994Y-97824807D01*
X106797994Y-97824807D02*
X106836089Y-97900998D01*
X106836089Y-97900998D02*
X106836089Y-98091474D01*
X106836089Y-98091474D02*
X106797994Y-98167664D01*
X106797994Y-98167664D02*
X106759899Y-98205760D01*
X106759899Y-98205760D02*
X106683708Y-98243855D01*
X106683708Y-98243855D02*
X106455137Y-98243855D01*
X106455137Y-98243855D02*
X106378946Y-98205760D01*
X106378946Y-98205760D02*
X106340851Y-98167664D01*
X105388470Y-105081950D02*
X105312280Y-105043855D01*
X105312280Y-105043855D02*
X105197994Y-105043855D01*
X105197994Y-105043855D02*
X105083708Y-105081950D01*
X105083708Y-105081950D02*
X105007518Y-105158140D01*
X105007518Y-105158140D02*
X104969423Y-105234331D01*
X104969423Y-105234331D02*
X104931327Y-105386712D01*
X104931327Y-105386712D02*
X104931327Y-105500998D01*
X104931327Y-105500998D02*
X104969423Y-105653379D01*
X104969423Y-105653379D02*
X105007518Y-105729569D01*
X105007518Y-105729569D02*
X105083708Y-105805760D01*
X105083708Y-105805760D02*
X105197994Y-105843855D01*
X105197994Y-105843855D02*
X105274185Y-105843855D01*
X105274185Y-105843855D02*
X105388470Y-105805760D01*
X105388470Y-105805760D02*
X105426566Y-105767664D01*
X105426566Y-105767664D02*
X105426566Y-105500998D01*
X105426566Y-105500998D02*
X105274185Y-105500998D01*
X105769423Y-105843855D02*
X105769423Y-105043855D01*
X105769423Y-105043855D02*
X106226566Y-105843855D01*
X106226566Y-105843855D02*
X106226566Y-105043855D01*
X106607518Y-105843855D02*
X106607518Y-105043855D01*
X106607518Y-105043855D02*
X106797994Y-105043855D01*
X106797994Y-105043855D02*
X106912280Y-105081950D01*
X106912280Y-105081950D02*
X106988470Y-105158140D01*
X106988470Y-105158140D02*
X107026565Y-105234331D01*
X107026565Y-105234331D02*
X107064661Y-105386712D01*
X107064661Y-105386712D02*
X107064661Y-105500998D01*
X107064661Y-105500998D02*
X107026565Y-105653379D01*
X107026565Y-105653379D02*
X106988470Y-105729569D01*
X106988470Y-105729569D02*
X106912280Y-105805760D01*
X106912280Y-105805760D02*
X106797994Y-105843855D01*
X106797994Y-105843855D02*
X106607518Y-105843855D01*
X111616291Y-102163855D02*
X111616291Y-101363855D01*
X111616291Y-101363855D02*
X111882957Y-101935283D01*
X111882957Y-101935283D02*
X112149624Y-101363855D01*
X112149624Y-101363855D02*
X112149624Y-102163855D01*
X112530577Y-102163855D02*
X112530577Y-101363855D01*
X112873433Y-102125760D02*
X112987719Y-102163855D01*
X112987719Y-102163855D02*
X113178195Y-102163855D01*
X113178195Y-102163855D02*
X113254386Y-102125760D01*
X113254386Y-102125760D02*
X113292481Y-102087664D01*
X113292481Y-102087664D02*
X113330576Y-102011474D01*
X113330576Y-102011474D02*
X113330576Y-101935283D01*
X113330576Y-101935283D02*
X113292481Y-101859093D01*
X113292481Y-101859093D02*
X113254386Y-101820998D01*
X113254386Y-101820998D02*
X113178195Y-101782902D01*
X113178195Y-101782902D02*
X113025814Y-101744807D01*
X113025814Y-101744807D02*
X112949624Y-101706712D01*
X112949624Y-101706712D02*
X112911529Y-101668617D01*
X112911529Y-101668617D02*
X112873433Y-101592426D01*
X112873433Y-101592426D02*
X112873433Y-101516236D01*
X112873433Y-101516236D02*
X112911529Y-101440045D01*
X112911529Y-101440045D02*
X112949624Y-101401950D01*
X112949624Y-101401950D02*
X113025814Y-101363855D01*
X113025814Y-101363855D02*
X113216291Y-101363855D01*
X113216291Y-101363855D02*
X113330576Y-101401950D01*
X113825815Y-101363855D02*
X113978196Y-101363855D01*
X113978196Y-101363855D02*
X114054386Y-101401950D01*
X114054386Y-101401950D02*
X114130577Y-101478140D01*
X114130577Y-101478140D02*
X114168672Y-101630521D01*
X114168672Y-101630521D02*
X114168672Y-101897188D01*
X114168672Y-101897188D02*
X114130577Y-102049569D01*
X114130577Y-102049569D02*
X114054386Y-102125760D01*
X114054386Y-102125760D02*
X113978196Y-102163855D01*
X113978196Y-102163855D02*
X113825815Y-102163855D01*
X113825815Y-102163855D02*
X113749624Y-102125760D01*
X113749624Y-102125760D02*
X113673434Y-102049569D01*
X113673434Y-102049569D02*
X113635338Y-101897188D01*
X113635338Y-101897188D02*
X113635338Y-101630521D01*
X113635338Y-101630521D02*
X113673434Y-101478140D01*
X113673434Y-101478140D02*
X113749624Y-101401950D01*
X113749624Y-101401950D02*
X113825815Y-101363855D01*
X131598049Y-107992481D02*
X131636144Y-107916291D01*
X131636144Y-107916291D02*
X131636144Y-107802005D01*
X131636144Y-107802005D02*
X131598049Y-107687719D01*
X131598049Y-107687719D02*
X131521859Y-107611529D01*
X131521859Y-107611529D02*
X131445668Y-107573434D01*
X131445668Y-107573434D02*
X131293287Y-107535338D01*
X131293287Y-107535338D02*
X131179001Y-107535338D01*
X131179001Y-107535338D02*
X131026620Y-107573434D01*
X131026620Y-107573434D02*
X130950430Y-107611529D01*
X130950430Y-107611529D02*
X130874240Y-107687719D01*
X130874240Y-107687719D02*
X130836144Y-107802005D01*
X130836144Y-107802005D02*
X130836144Y-107878196D01*
X130836144Y-107878196D02*
X130874240Y-107992481D01*
X130874240Y-107992481D02*
X130912335Y-108030577D01*
X130912335Y-108030577D02*
X131179001Y-108030577D01*
X131179001Y-108030577D02*
X131179001Y-107878196D01*
X130836144Y-108373434D02*
X131636144Y-108373434D01*
X131636144Y-108373434D02*
X130836144Y-108830577D01*
X130836144Y-108830577D02*
X131636144Y-108830577D01*
X130836144Y-109211529D02*
X131636144Y-109211529D01*
X131636144Y-109211529D02*
X131636144Y-109402005D01*
X131636144Y-109402005D02*
X131598049Y-109516291D01*
X131598049Y-109516291D02*
X131521859Y-109592481D01*
X131521859Y-109592481D02*
X131445668Y-109630576D01*
X131445668Y-109630576D02*
X131293287Y-109668672D01*
X131293287Y-109668672D02*
X131179001Y-109668672D01*
X131179001Y-109668672D02*
X131026620Y-109630576D01*
X131026620Y-109630576D02*
X130950430Y-109592481D01*
X130950430Y-109592481D02*
X130874240Y-109516291D01*
X130874240Y-109516291D02*
X130836144Y-109402005D01*
X130836144Y-109402005D02*
X130836144Y-109211529D01*
X108316291Y-102163855D02*
X108316291Y-101363855D01*
X108316291Y-101363855D02*
X108582957Y-101935283D01*
X108582957Y-101935283D02*
X108849624Y-101363855D01*
X108849624Y-101363855D02*
X108849624Y-102163855D01*
X109382958Y-101363855D02*
X109535339Y-101363855D01*
X109535339Y-101363855D02*
X109611529Y-101401950D01*
X109611529Y-101401950D02*
X109687720Y-101478140D01*
X109687720Y-101478140D02*
X109725815Y-101630521D01*
X109725815Y-101630521D02*
X109725815Y-101897188D01*
X109725815Y-101897188D02*
X109687720Y-102049569D01*
X109687720Y-102049569D02*
X109611529Y-102125760D01*
X109611529Y-102125760D02*
X109535339Y-102163855D01*
X109535339Y-102163855D02*
X109382958Y-102163855D01*
X109382958Y-102163855D02*
X109306767Y-102125760D01*
X109306767Y-102125760D02*
X109230577Y-102049569D01*
X109230577Y-102049569D02*
X109192481Y-101897188D01*
X109192481Y-101897188D02*
X109192481Y-101630521D01*
X109192481Y-101630521D02*
X109230577Y-101478140D01*
X109230577Y-101478140D02*
X109306767Y-101401950D01*
X109306767Y-101401950D02*
X109382958Y-101363855D01*
X110030576Y-102125760D02*
X110144862Y-102163855D01*
X110144862Y-102163855D02*
X110335338Y-102163855D01*
X110335338Y-102163855D02*
X110411529Y-102125760D01*
X110411529Y-102125760D02*
X110449624Y-102087664D01*
X110449624Y-102087664D02*
X110487719Y-102011474D01*
X110487719Y-102011474D02*
X110487719Y-101935283D01*
X110487719Y-101935283D02*
X110449624Y-101859093D01*
X110449624Y-101859093D02*
X110411529Y-101820998D01*
X110411529Y-101820998D02*
X110335338Y-101782902D01*
X110335338Y-101782902D02*
X110182957Y-101744807D01*
X110182957Y-101744807D02*
X110106767Y-101706712D01*
X110106767Y-101706712D02*
X110068672Y-101668617D01*
X110068672Y-101668617D02*
X110030576Y-101592426D01*
X110030576Y-101592426D02*
X110030576Y-101516236D01*
X110030576Y-101516236D02*
X110068672Y-101440045D01*
X110068672Y-101440045D02*
X110106767Y-101401950D01*
X110106767Y-101401950D02*
X110182957Y-101363855D01*
X110182957Y-101363855D02*
X110373434Y-101363855D01*
X110373434Y-101363855D02*
X110487719Y-101401950D01*
X110830577Y-102163855D02*
X110830577Y-101363855D01*
X135974240Y-107192481D02*
X135936144Y-107306767D01*
X135936144Y-107306767D02*
X135936144Y-107497243D01*
X135936144Y-107497243D02*
X135974240Y-107573434D01*
X135974240Y-107573434D02*
X136012335Y-107611529D01*
X136012335Y-107611529D02*
X136088525Y-107649624D01*
X136088525Y-107649624D02*
X136164716Y-107649624D01*
X136164716Y-107649624D02*
X136240906Y-107611529D01*
X136240906Y-107611529D02*
X136279001Y-107573434D01*
X136279001Y-107573434D02*
X136317097Y-107497243D01*
X136317097Y-107497243D02*
X136355192Y-107344862D01*
X136355192Y-107344862D02*
X136393287Y-107268672D01*
X136393287Y-107268672D02*
X136431382Y-107230577D01*
X136431382Y-107230577D02*
X136507573Y-107192481D01*
X136507573Y-107192481D02*
X136583763Y-107192481D01*
X136583763Y-107192481D02*
X136659954Y-107230577D01*
X136659954Y-107230577D02*
X136698049Y-107268672D01*
X136698049Y-107268672D02*
X136736144Y-107344862D01*
X136736144Y-107344862D02*
X136736144Y-107535339D01*
X136736144Y-107535339D02*
X136698049Y-107649624D01*
X135936144Y-107992482D02*
X136736144Y-107992482D01*
X136736144Y-107992482D02*
X136736144Y-108182958D01*
X136736144Y-108182958D02*
X136698049Y-108297244D01*
X136698049Y-108297244D02*
X136621859Y-108373434D01*
X136621859Y-108373434D02*
X136545668Y-108411529D01*
X136545668Y-108411529D02*
X136393287Y-108449625D01*
X136393287Y-108449625D02*
X136279001Y-108449625D01*
X136279001Y-108449625D02*
X136126620Y-108411529D01*
X136126620Y-108411529D02*
X136050430Y-108373434D01*
X136050430Y-108373434D02*
X135974240Y-108297244D01*
X135974240Y-108297244D02*
X135936144Y-108182958D01*
X135936144Y-108182958D02*
X135936144Y-107992482D01*
X135936144Y-108792482D02*
X136736144Y-108792482D01*
X136736144Y-109325815D02*
X136736144Y-109478196D01*
X136736144Y-109478196D02*
X136698049Y-109554386D01*
X136698049Y-109554386D02*
X136621859Y-109630577D01*
X136621859Y-109630577D02*
X136469478Y-109668672D01*
X136469478Y-109668672D02*
X136202811Y-109668672D01*
X136202811Y-109668672D02*
X136050430Y-109630577D01*
X136050430Y-109630577D02*
X135974240Y-109554386D01*
X135974240Y-109554386D02*
X135936144Y-109478196D01*
X135936144Y-109478196D02*
X135936144Y-109325815D01*
X135936144Y-109325815D02*
X135974240Y-109249624D01*
X135974240Y-109249624D02*
X136050430Y-109173434D01*
X136050430Y-109173434D02*
X136202811Y-109135338D01*
X136202811Y-109135338D02*
X136469478Y-109135338D01*
X136469478Y-109135338D02*
X136621859Y-109173434D01*
X136621859Y-109173434D02*
X136698049Y-109249624D01*
X136698049Y-109249624D02*
X136736144Y-109325815D01*
X119992481Y-101401950D02*
X119916291Y-101363855D01*
X119916291Y-101363855D02*
X119802005Y-101363855D01*
X119802005Y-101363855D02*
X119687719Y-101401950D01*
X119687719Y-101401950D02*
X119611529Y-101478140D01*
X119611529Y-101478140D02*
X119573434Y-101554331D01*
X119573434Y-101554331D02*
X119535338Y-101706712D01*
X119535338Y-101706712D02*
X119535338Y-101820998D01*
X119535338Y-101820998D02*
X119573434Y-101973379D01*
X119573434Y-101973379D02*
X119611529Y-102049569D01*
X119611529Y-102049569D02*
X119687719Y-102125760D01*
X119687719Y-102125760D02*
X119802005Y-102163855D01*
X119802005Y-102163855D02*
X119878196Y-102163855D01*
X119878196Y-102163855D02*
X119992481Y-102125760D01*
X119992481Y-102125760D02*
X120030577Y-102087664D01*
X120030577Y-102087664D02*
X120030577Y-101820998D01*
X120030577Y-101820998D02*
X119878196Y-101820998D01*
X120373434Y-102163855D02*
X120373434Y-101363855D01*
X120373434Y-101363855D02*
X120830577Y-102163855D01*
X120830577Y-102163855D02*
X120830577Y-101363855D01*
X121211529Y-102163855D02*
X121211529Y-101363855D01*
X121211529Y-101363855D02*
X121402005Y-101363855D01*
X121402005Y-101363855D02*
X121516291Y-101401950D01*
X121516291Y-101401950D02*
X121592481Y-101478140D01*
X121592481Y-101478140D02*
X121630576Y-101554331D01*
X121630576Y-101554331D02*
X121668672Y-101706712D01*
X121668672Y-101706712D02*
X121668672Y-101820998D01*
X121668672Y-101820998D02*
X121630576Y-101973379D01*
X121630576Y-101973379D02*
X121592481Y-102049569D01*
X121592481Y-102049569D02*
X121516291Y-102125760D01*
X121516291Y-102125760D02*
X121402005Y-102163855D01*
X121402005Y-102163855D02*
X121211529Y-102163855D01*
X124950375Y-107263855D02*
X124569423Y-107263855D01*
X124569423Y-107263855D02*
X124569423Y-106463855D01*
X125178946Y-106540045D02*
X125217042Y-106501950D01*
X125217042Y-106501950D02*
X125293232Y-106463855D01*
X125293232Y-106463855D02*
X125483708Y-106463855D01*
X125483708Y-106463855D02*
X125559899Y-106501950D01*
X125559899Y-106501950D02*
X125597994Y-106540045D01*
X125597994Y-106540045D02*
X125636089Y-106616236D01*
X125636089Y-106616236D02*
X125636089Y-106692426D01*
X125636089Y-106692426D02*
X125597994Y-106806712D01*
X125597994Y-106806712D02*
X125140851Y-107263855D01*
X125140851Y-107263855D02*
X125636089Y-107263855D01*
X105426566Y-103343855D02*
X105159899Y-102962902D01*
X104969423Y-103343855D02*
X104969423Y-102543855D01*
X104969423Y-102543855D02*
X105274185Y-102543855D01*
X105274185Y-102543855D02*
X105350375Y-102581950D01*
X105350375Y-102581950D02*
X105388470Y-102620045D01*
X105388470Y-102620045D02*
X105426566Y-102696236D01*
X105426566Y-102696236D02*
X105426566Y-102810521D01*
X105426566Y-102810521D02*
X105388470Y-102886712D01*
X105388470Y-102886712D02*
X105350375Y-102924807D01*
X105350375Y-102924807D02*
X105274185Y-102962902D01*
X105274185Y-102962902D02*
X104969423Y-102962902D01*
X105693232Y-102543855D02*
X106226566Y-103343855D01*
X106226566Y-102543855D02*
X105693232Y-103343855D01*
X139236144Y-107825814D02*
X139236144Y-108321052D01*
X139236144Y-108321052D02*
X138931382Y-108054386D01*
X138931382Y-108054386D02*
X138931382Y-108168671D01*
X138931382Y-108168671D02*
X138893287Y-108244862D01*
X138893287Y-108244862D02*
X138855192Y-108282957D01*
X138855192Y-108282957D02*
X138779001Y-108321052D01*
X138779001Y-108321052D02*
X138588525Y-108321052D01*
X138588525Y-108321052D02*
X138512335Y-108282957D01*
X138512335Y-108282957D02*
X138474240Y-108244862D01*
X138474240Y-108244862D02*
X138436144Y-108168671D01*
X138436144Y-108168671D02*
X138436144Y-107940100D01*
X138436144Y-107940100D02*
X138474240Y-107863909D01*
X138474240Y-107863909D02*
X138512335Y-107825814D01*
X139236144Y-108549624D02*
X138436144Y-108816291D01*
X138436144Y-108816291D02*
X139236144Y-109082957D01*
X139236144Y-109273433D02*
X139236144Y-109768671D01*
X139236144Y-109768671D02*
X138931382Y-109502005D01*
X138931382Y-109502005D02*
X138931382Y-109616290D01*
X138931382Y-109616290D02*
X138893287Y-109692481D01*
X138893287Y-109692481D02*
X138855192Y-109730576D01*
X138855192Y-109730576D02*
X138779001Y-109768671D01*
X138779001Y-109768671D02*
X138588525Y-109768671D01*
X138588525Y-109768671D02*
X138512335Y-109730576D01*
X138512335Y-109730576D02*
X138474240Y-109692481D01*
X138474240Y-109692481D02*
X138436144Y-109616290D01*
X138436144Y-109616290D02*
X138436144Y-109387719D01*
X138436144Y-109387719D02*
X138474240Y-109311528D01*
X138474240Y-109311528D02*
X138512335Y-109273433D01*
X124950375Y-112363855D02*
X124569423Y-112363855D01*
X124569423Y-112363855D02*
X124569423Y-111563855D01*
X125369423Y-111563855D02*
X125445613Y-111563855D01*
X125445613Y-111563855D02*
X125521804Y-111601950D01*
X125521804Y-111601950D02*
X125559899Y-111640045D01*
X125559899Y-111640045D02*
X125597994Y-111716236D01*
X125597994Y-111716236D02*
X125636089Y-111868617D01*
X125636089Y-111868617D02*
X125636089Y-112059093D01*
X125636089Y-112059093D02*
X125597994Y-112211474D01*
X125597994Y-112211474D02*
X125559899Y-112287664D01*
X125559899Y-112287664D02*
X125521804Y-112325760D01*
X125521804Y-112325760D02*
X125445613Y-112363855D01*
X125445613Y-112363855D02*
X125369423Y-112363855D01*
X125369423Y-112363855D02*
X125293232Y-112325760D01*
X125293232Y-112325760D02*
X125255137Y-112287664D01*
X125255137Y-112287664D02*
X125217042Y-112211474D01*
X125217042Y-112211474D02*
X125178946Y-112059093D01*
X125178946Y-112059093D02*
X125178946Y-111868617D01*
X125178946Y-111868617D02*
X125217042Y-111716236D01*
X125217042Y-111716236D02*
X125255137Y-111640045D01*
X125255137Y-111640045D02*
X125293232Y-111601950D01*
X125293232Y-111601950D02*
X125369423Y-111563855D01*
X104855137Y-100043855D02*
X105312280Y-100043855D01*
X105083708Y-100843855D02*
X105083708Y-100043855D01*
X105502756Y-100043855D02*
X106036090Y-100843855D01*
X106036090Y-100043855D02*
X105502756Y-100843855D01*
X114811528Y-102125760D02*
X114925814Y-102163855D01*
X114925814Y-102163855D02*
X115116290Y-102163855D01*
X115116290Y-102163855D02*
X115192481Y-102125760D01*
X115192481Y-102125760D02*
X115230576Y-102087664D01*
X115230576Y-102087664D02*
X115268671Y-102011474D01*
X115268671Y-102011474D02*
X115268671Y-101935283D01*
X115268671Y-101935283D02*
X115230576Y-101859093D01*
X115230576Y-101859093D02*
X115192481Y-101820998D01*
X115192481Y-101820998D02*
X115116290Y-101782902D01*
X115116290Y-101782902D02*
X114963909Y-101744807D01*
X114963909Y-101744807D02*
X114887719Y-101706712D01*
X114887719Y-101706712D02*
X114849624Y-101668617D01*
X114849624Y-101668617D02*
X114811528Y-101592426D01*
X114811528Y-101592426D02*
X114811528Y-101516236D01*
X114811528Y-101516236D02*
X114849624Y-101440045D01*
X114849624Y-101440045D02*
X114887719Y-101401950D01*
X114887719Y-101401950D02*
X114963909Y-101363855D01*
X114963909Y-101363855D02*
X115154386Y-101363855D01*
X115154386Y-101363855D02*
X115268671Y-101401950D01*
X116068672Y-102087664D02*
X116030576Y-102125760D01*
X116030576Y-102125760D02*
X115916291Y-102163855D01*
X115916291Y-102163855D02*
X115840100Y-102163855D01*
X115840100Y-102163855D02*
X115725814Y-102125760D01*
X115725814Y-102125760D02*
X115649624Y-102049569D01*
X115649624Y-102049569D02*
X115611529Y-101973379D01*
X115611529Y-101973379D02*
X115573433Y-101820998D01*
X115573433Y-101820998D02*
X115573433Y-101706712D01*
X115573433Y-101706712D02*
X115611529Y-101554331D01*
X115611529Y-101554331D02*
X115649624Y-101478140D01*
X115649624Y-101478140D02*
X115725814Y-101401950D01*
X115725814Y-101401950D02*
X115840100Y-101363855D01*
X115840100Y-101363855D02*
X115916291Y-101363855D01*
X115916291Y-101363855D02*
X116030576Y-101401950D01*
X116030576Y-101401950D02*
X116068672Y-101440045D01*
X116411529Y-102163855D02*
X116411529Y-101363855D01*
X116868672Y-102163855D02*
X116525814Y-101706712D01*
X116868672Y-101363855D02*
X116411529Y-101820998D01*
D10*
X125648931Y-55362295D02*
X125648931Y-54562295D01*
X125648931Y-54562295D02*
X125915597Y-55133723D01*
X125915597Y-55133723D02*
X126182264Y-54562295D01*
X126182264Y-54562295D02*
X126182264Y-55362295D01*
X126906074Y-55362295D02*
X126906074Y-54943247D01*
X126906074Y-54943247D02*
X126867979Y-54867057D01*
X126867979Y-54867057D02*
X126791788Y-54828961D01*
X126791788Y-54828961D02*
X126639407Y-54828961D01*
X126639407Y-54828961D02*
X126563217Y-54867057D01*
X126906074Y-55324200D02*
X126829883Y-55362295D01*
X126829883Y-55362295D02*
X126639407Y-55362295D01*
X126639407Y-55362295D02*
X126563217Y-55324200D01*
X126563217Y-55324200D02*
X126525121Y-55248009D01*
X126525121Y-55248009D02*
X126525121Y-55171819D01*
X126525121Y-55171819D02*
X126563217Y-55095628D01*
X126563217Y-55095628D02*
X126639407Y-55057533D01*
X126639407Y-55057533D02*
X126829883Y-55057533D01*
X126829883Y-55057533D02*
X126906074Y-55019438D01*
X127287027Y-55362295D02*
X127287027Y-54828961D01*
X127287027Y-54981342D02*
X127325122Y-54905152D01*
X127325122Y-54905152D02*
X127363217Y-54867057D01*
X127363217Y-54867057D02*
X127439408Y-54828961D01*
X127439408Y-54828961D02*
X127515598Y-54828961D01*
X127667979Y-54828961D02*
X127972741Y-54828961D01*
X127782265Y-54562295D02*
X127782265Y-55248009D01*
X127782265Y-55248009D02*
X127820360Y-55324200D01*
X127820360Y-55324200D02*
X127896550Y-55362295D01*
X127896550Y-55362295D02*
X127972741Y-55362295D01*
X128239408Y-55362295D02*
X128239408Y-54828961D01*
X128239408Y-54562295D02*
X128201312Y-54600390D01*
X128201312Y-54600390D02*
X128239408Y-54638485D01*
X128239408Y-54638485D02*
X128277503Y-54600390D01*
X128277503Y-54600390D02*
X128239408Y-54562295D01*
X128239408Y-54562295D02*
X128239408Y-54638485D01*
X128620360Y-54828961D02*
X128620360Y-55362295D01*
X128620360Y-54905152D02*
X128658455Y-54867057D01*
X128658455Y-54867057D02*
X128734645Y-54828961D01*
X128734645Y-54828961D02*
X128848931Y-54828961D01*
X128848931Y-54828961D02*
X128925122Y-54867057D01*
X128925122Y-54867057D02*
X128963217Y-54943247D01*
X128963217Y-54943247D02*
X128963217Y-55362295D01*
X129953694Y-55362295D02*
X129953694Y-54562295D01*
X130410837Y-55362295D02*
X130067979Y-54905152D01*
X130410837Y-54562295D02*
X129953694Y-55019438D01*
X130867979Y-55362295D02*
X130791789Y-55324200D01*
X130791789Y-55324200D02*
X130753694Y-55286104D01*
X130753694Y-55286104D02*
X130715598Y-55209914D01*
X130715598Y-55209914D02*
X130715598Y-54981342D01*
X130715598Y-54981342D02*
X130753694Y-54905152D01*
X130753694Y-54905152D02*
X130791789Y-54867057D01*
X130791789Y-54867057D02*
X130867979Y-54828961D01*
X130867979Y-54828961D02*
X130982265Y-54828961D01*
X130982265Y-54828961D02*
X131058456Y-54867057D01*
X131058456Y-54867057D02*
X131096551Y-54905152D01*
X131096551Y-54905152D02*
X131134646Y-54981342D01*
X131134646Y-54981342D02*
X131134646Y-55209914D01*
X131134646Y-55209914D02*
X131096551Y-55286104D01*
X131096551Y-55286104D02*
X131058456Y-55324200D01*
X131058456Y-55324200D02*
X130982265Y-55362295D01*
X130982265Y-55362295D02*
X130867979Y-55362295D01*
X131477504Y-54828961D02*
X131477504Y-55628961D01*
X131477504Y-54867057D02*
X131553694Y-54828961D01*
X131553694Y-54828961D02*
X131706075Y-54828961D01*
X131706075Y-54828961D02*
X131782266Y-54867057D01*
X131782266Y-54867057D02*
X131820361Y-54905152D01*
X131820361Y-54905152D02*
X131858456Y-54981342D01*
X131858456Y-54981342D02*
X131858456Y-55209914D01*
X131858456Y-55209914D02*
X131820361Y-55286104D01*
X131820361Y-55286104D02*
X131782266Y-55324200D01*
X131782266Y-55324200D02*
X131706075Y-55362295D01*
X131706075Y-55362295D02*
X131553694Y-55362295D01*
X131553694Y-55362295D02*
X131477504Y-55324200D01*
X132201314Y-55362295D02*
X132201314Y-54562295D01*
X132277504Y-55057533D02*
X132506076Y-55362295D01*
X132506076Y-54828961D02*
X132201314Y-55133723D01*
X133191790Y-55362295D02*
X133191790Y-54943247D01*
X133191790Y-54943247D02*
X133153695Y-54867057D01*
X133153695Y-54867057D02*
X133077504Y-54828961D01*
X133077504Y-54828961D02*
X132925123Y-54828961D01*
X132925123Y-54828961D02*
X132848933Y-54867057D01*
X133191790Y-55324200D02*
X133115599Y-55362295D01*
X133115599Y-55362295D02*
X132925123Y-55362295D01*
X132925123Y-55362295D02*
X132848933Y-55324200D01*
X132848933Y-55324200D02*
X132810837Y-55248009D01*
X132810837Y-55248009D02*
X132810837Y-55171819D01*
X132810837Y-55171819D02*
X132848933Y-55095628D01*
X132848933Y-55095628D02*
X132925123Y-55057533D01*
X132925123Y-55057533D02*
X133115599Y-55057533D01*
X133115599Y-55057533D02*
X133191790Y-55019438D01*
X134334648Y-54562295D02*
X134410838Y-54562295D01*
X134410838Y-54562295D02*
X134487029Y-54600390D01*
X134487029Y-54600390D02*
X134525124Y-54638485D01*
X134525124Y-54638485D02*
X134563219Y-54714676D01*
X134563219Y-54714676D02*
X134601314Y-54867057D01*
X134601314Y-54867057D02*
X134601314Y-55057533D01*
X134601314Y-55057533D02*
X134563219Y-55209914D01*
X134563219Y-55209914D02*
X134525124Y-55286104D01*
X134525124Y-55286104D02*
X134487029Y-55324200D01*
X134487029Y-55324200D02*
X134410838Y-55362295D01*
X134410838Y-55362295D02*
X134334648Y-55362295D01*
X134334648Y-55362295D02*
X134258457Y-55324200D01*
X134258457Y-55324200D02*
X134220362Y-55286104D01*
X134220362Y-55286104D02*
X134182267Y-55209914D01*
X134182267Y-55209914D02*
X134144171Y-55057533D01*
X134144171Y-55057533D02*
X134144171Y-54867057D01*
X134144171Y-54867057D02*
X134182267Y-54714676D01*
X134182267Y-54714676D02*
X134220362Y-54638485D01*
X134220362Y-54638485D02*
X134258457Y-54600390D01*
X134258457Y-54600390D02*
X134334648Y-54562295D01*
X134867981Y-54562295D02*
X135363219Y-54562295D01*
X135363219Y-54562295D02*
X135096553Y-54867057D01*
X135096553Y-54867057D02*
X135210838Y-54867057D01*
X135210838Y-54867057D02*
X135287029Y-54905152D01*
X135287029Y-54905152D02*
X135325124Y-54943247D01*
X135325124Y-54943247D02*
X135363219Y-55019438D01*
X135363219Y-55019438D02*
X135363219Y-55209914D01*
X135363219Y-55209914D02*
X135325124Y-55286104D01*
X135325124Y-55286104D02*
X135287029Y-55324200D01*
X135287029Y-55324200D02*
X135210838Y-55362295D01*
X135210838Y-55362295D02*
X134982267Y-55362295D01*
X134982267Y-55362295D02*
X134906076Y-55324200D01*
X134906076Y-55324200D02*
X134867981Y-55286104D01*
X136277505Y-54524200D02*
X135591791Y-55552771D01*
X136506076Y-54638485D02*
X136544172Y-54600390D01*
X136544172Y-54600390D02*
X136620362Y-54562295D01*
X136620362Y-54562295D02*
X136810838Y-54562295D01*
X136810838Y-54562295D02*
X136887029Y-54600390D01*
X136887029Y-54600390D02*
X136925124Y-54638485D01*
X136925124Y-54638485D02*
X136963219Y-54714676D01*
X136963219Y-54714676D02*
X136963219Y-54790866D01*
X136963219Y-54790866D02*
X136925124Y-54905152D01*
X136925124Y-54905152D02*
X136467981Y-55362295D01*
X136467981Y-55362295D02*
X136963219Y-55362295D01*
X137458458Y-54562295D02*
X137534648Y-54562295D01*
X137534648Y-54562295D02*
X137610839Y-54600390D01*
X137610839Y-54600390D02*
X137648934Y-54638485D01*
X137648934Y-54638485D02*
X137687029Y-54714676D01*
X137687029Y-54714676D02*
X137725124Y-54867057D01*
X137725124Y-54867057D02*
X137725124Y-55057533D01*
X137725124Y-55057533D02*
X137687029Y-55209914D01*
X137687029Y-55209914D02*
X137648934Y-55286104D01*
X137648934Y-55286104D02*
X137610839Y-55324200D01*
X137610839Y-55324200D02*
X137534648Y-55362295D01*
X137534648Y-55362295D02*
X137458458Y-55362295D01*
X137458458Y-55362295D02*
X137382267Y-55324200D01*
X137382267Y-55324200D02*
X137344172Y-55286104D01*
X137344172Y-55286104D02*
X137306077Y-55209914D01*
X137306077Y-55209914D02*
X137267981Y-55057533D01*
X137267981Y-55057533D02*
X137267981Y-54867057D01*
X137267981Y-54867057D02*
X137306077Y-54714676D01*
X137306077Y-54714676D02*
X137344172Y-54638485D01*
X137344172Y-54638485D02*
X137382267Y-54600390D01*
X137382267Y-54600390D02*
X137458458Y-54562295D01*
X138029886Y-54638485D02*
X138067982Y-54600390D01*
X138067982Y-54600390D02*
X138144172Y-54562295D01*
X138144172Y-54562295D02*
X138334648Y-54562295D01*
X138334648Y-54562295D02*
X138410839Y-54600390D01*
X138410839Y-54600390D02*
X138448934Y-54638485D01*
X138448934Y-54638485D02*
X138487029Y-54714676D01*
X138487029Y-54714676D02*
X138487029Y-54790866D01*
X138487029Y-54790866D02*
X138448934Y-54905152D01*
X138448934Y-54905152D02*
X137991791Y-55362295D01*
X137991791Y-55362295D02*
X138487029Y-55362295D01*
X139172744Y-54828961D02*
X139172744Y-55362295D01*
X138982268Y-54524200D02*
X138791791Y-55095628D01*
X138791791Y-55095628D02*
X139287030Y-55095628D01*
D11*
X124950375Y-104763855D02*
X124569423Y-104763855D01*
X124569423Y-104763855D02*
X124569423Y-103963855D01*
X125140851Y-103963855D02*
X125636089Y-103963855D01*
X125636089Y-103963855D02*
X125369423Y-104268617D01*
X125369423Y-104268617D02*
X125483708Y-104268617D01*
X125483708Y-104268617D02*
X125559899Y-104306712D01*
X125559899Y-104306712D02*
X125597994Y-104344807D01*
X125597994Y-104344807D02*
X125636089Y-104420998D01*
X125636089Y-104420998D02*
X125636089Y-104611474D01*
X125636089Y-104611474D02*
X125597994Y-104687664D01*
X125597994Y-104687664D02*
X125559899Y-104725760D01*
X125559899Y-104725760D02*
X125483708Y-104763855D01*
X125483708Y-104763855D02*
X125255137Y-104763855D01*
X125255137Y-104763855D02*
X125178946Y-104725760D01*
X125178946Y-104725760D02*
X125140851Y-104687664D01*
X122821052Y-102163855D02*
X122363909Y-102163855D01*
X122592481Y-102163855D02*
X122592481Y-101363855D01*
X122592481Y-101363855D02*
X122516290Y-101478140D01*
X122516290Y-101478140D02*
X122440100Y-101554331D01*
X122440100Y-101554331D02*
X122363909Y-101592426D01*
X123125814Y-101440045D02*
X123163910Y-101401950D01*
X123163910Y-101401950D02*
X123240100Y-101363855D01*
X123240100Y-101363855D02*
X123430576Y-101363855D01*
X123430576Y-101363855D02*
X123506767Y-101401950D01*
X123506767Y-101401950D02*
X123544862Y-101440045D01*
X123544862Y-101440045D02*
X123582957Y-101516236D01*
X123582957Y-101516236D02*
X123582957Y-101592426D01*
X123582957Y-101592426D02*
X123544862Y-101706712D01*
X123544862Y-101706712D02*
X123087719Y-102163855D01*
X123087719Y-102163855D02*
X123582957Y-102163855D01*
X123811529Y-101363855D02*
X124078196Y-102163855D01*
X124078196Y-102163855D02*
X124344862Y-101363855D01*
X124950375Y-109813855D02*
X124569423Y-109813855D01*
X124569423Y-109813855D02*
X124569423Y-109013855D01*
X125636089Y-109813855D02*
X125178946Y-109813855D01*
X125407518Y-109813855D02*
X125407518Y-109013855D01*
X125407518Y-109013855D02*
X125331327Y-109128140D01*
X125331327Y-109128140D02*
X125255137Y-109204331D01*
X125255137Y-109204331D02*
X125178946Y-109242426D01*
X133374240Y-107063909D02*
X133336144Y-107178195D01*
X133336144Y-107178195D02*
X133336144Y-107368671D01*
X133336144Y-107368671D02*
X133374240Y-107444862D01*
X133374240Y-107444862D02*
X133412335Y-107482957D01*
X133412335Y-107482957D02*
X133488525Y-107521052D01*
X133488525Y-107521052D02*
X133564716Y-107521052D01*
X133564716Y-107521052D02*
X133640906Y-107482957D01*
X133640906Y-107482957D02*
X133679001Y-107444862D01*
X133679001Y-107444862D02*
X133717097Y-107368671D01*
X133717097Y-107368671D02*
X133755192Y-107216290D01*
X133755192Y-107216290D02*
X133793287Y-107140100D01*
X133793287Y-107140100D02*
X133831382Y-107102005D01*
X133831382Y-107102005D02*
X133907573Y-107063909D01*
X133907573Y-107063909D02*
X133983763Y-107063909D01*
X133983763Y-107063909D02*
X134059954Y-107102005D01*
X134059954Y-107102005D02*
X134098049Y-107140100D01*
X134098049Y-107140100D02*
X134136144Y-107216290D01*
X134136144Y-107216290D02*
X134136144Y-107406767D01*
X134136144Y-107406767D02*
X134098049Y-107521052D01*
X133412335Y-108321053D02*
X133374240Y-108282957D01*
X133374240Y-108282957D02*
X133336144Y-108168672D01*
X133336144Y-108168672D02*
X133336144Y-108092481D01*
X133336144Y-108092481D02*
X133374240Y-107978195D01*
X133374240Y-107978195D02*
X133450430Y-107902005D01*
X133450430Y-107902005D02*
X133526620Y-107863910D01*
X133526620Y-107863910D02*
X133679001Y-107825814D01*
X133679001Y-107825814D02*
X133793287Y-107825814D01*
X133793287Y-107825814D02*
X133945668Y-107863910D01*
X133945668Y-107863910D02*
X134021859Y-107902005D01*
X134021859Y-107902005D02*
X134098049Y-107978195D01*
X134098049Y-107978195D02*
X134136144Y-108092481D01*
X134136144Y-108092481D02*
X134136144Y-108168672D01*
X134136144Y-108168672D02*
X134098049Y-108282957D01*
X134098049Y-108282957D02*
X134059954Y-108321053D01*
X133336144Y-109044862D02*
X133336144Y-108663910D01*
X133336144Y-108663910D02*
X134136144Y-108663910D01*
X133336144Y-109311529D02*
X134136144Y-109311529D01*
X133336144Y-109768672D02*
X133793287Y-109425814D01*
X134136144Y-109768672D02*
X133679001Y-109311529D01*
X117649623Y-102125760D02*
X117763909Y-102163855D01*
X117763909Y-102163855D02*
X117954385Y-102163855D01*
X117954385Y-102163855D02*
X118030576Y-102125760D01*
X118030576Y-102125760D02*
X118068671Y-102087664D01*
X118068671Y-102087664D02*
X118106766Y-102011474D01*
X118106766Y-102011474D02*
X118106766Y-101935283D01*
X118106766Y-101935283D02*
X118068671Y-101859093D01*
X118068671Y-101859093D02*
X118030576Y-101820998D01*
X118030576Y-101820998D02*
X117954385Y-101782902D01*
X117954385Y-101782902D02*
X117802004Y-101744807D01*
X117802004Y-101744807D02*
X117725814Y-101706712D01*
X117725814Y-101706712D02*
X117687719Y-101668617D01*
X117687719Y-101668617D02*
X117649623Y-101592426D01*
X117649623Y-101592426D02*
X117649623Y-101516236D01*
X117649623Y-101516236D02*
X117687719Y-101440045D01*
X117687719Y-101440045D02*
X117725814Y-101401950D01*
X117725814Y-101401950D02*
X117802004Y-101363855D01*
X117802004Y-101363855D02*
X117992481Y-101363855D01*
X117992481Y-101363855D02*
X118106766Y-101401950D01*
X118411528Y-102125760D02*
X118525814Y-102163855D01*
X118525814Y-102163855D02*
X118716290Y-102163855D01*
X118716290Y-102163855D02*
X118792481Y-102125760D01*
X118792481Y-102125760D02*
X118830576Y-102087664D01*
X118830576Y-102087664D02*
X118868671Y-102011474D01*
X118868671Y-102011474D02*
X118868671Y-101935283D01*
X118868671Y-101935283D02*
X118830576Y-101859093D01*
X118830576Y-101859093D02*
X118792481Y-101820998D01*
X118792481Y-101820998D02*
X118716290Y-101782902D01*
X118716290Y-101782902D02*
X118563909Y-101744807D01*
X118563909Y-101744807D02*
X118487719Y-101706712D01*
X118487719Y-101706712D02*
X118449624Y-101668617D01*
X118449624Y-101668617D02*
X118411528Y-101592426D01*
X118411528Y-101592426D02*
X118411528Y-101516236D01*
X118411528Y-101516236D02*
X118449624Y-101440045D01*
X118449624Y-101440045D02*
X118487719Y-101401950D01*
X118487719Y-101401950D02*
X118563909Y-101363855D01*
X118563909Y-101363855D02*
X118754386Y-101363855D01*
X118754386Y-101363855D02*
X118868671Y-101401950D01*
%TO.C,D300*%
X126850000Y-66370000D02*
X126850000Y-66970000D01*
X126050000Y-66370000D02*
X126050000Y-66970000D01*
X127210000Y-65870000D02*
G75*
G02*
X127090000Y-65870000I-60000J0D01*
G01*
X127090000Y-65870000D02*
G75*
G02*
X127210000Y-65870000I60000J0D01*
G01*
%TO.C,U300*%
X113000000Y-73050000D02*
X113000000Y-69050000D01*
X135000000Y-73050000D02*
X135000000Y-69050000D01*
X135000000Y-69050000D02*
X134700000Y-69050000D01*
X113000000Y-69050000D02*
X113300000Y-69050000D01*
X113000000Y-73050000D02*
X135000000Y-73050000D01*
%TO.C,D100*%
X132150000Y-101150000D02*
X132150000Y-100550000D01*
X132950000Y-101150000D02*
X132950000Y-100550000D01*
X133410000Y-101550000D02*
G75*
G02*
X133290000Y-101550000I-60000J0D01*
G01*
X133290000Y-101550000D02*
G75*
G02*
X133410000Y-101550000I60000J0D01*
G01*
%TO.C,C204*%
X122657836Y-89970000D02*
X122442164Y-89970000D01*
X122657836Y-89250000D02*
X122442164Y-89250000D01*
%TO.C,C304*%
X133090000Y-66842164D02*
X133090000Y-67057836D01*
X133810000Y-66842164D02*
X133810000Y-67057836D01*
%TO.C,C300*%
X130930000Y-66540580D02*
X130930000Y-66259420D01*
X129910000Y-66540580D02*
X129910000Y-66259420D01*
%TO.C,C200*%
X131260000Y-83007836D02*
X131260000Y-82792164D01*
X130540000Y-83007836D02*
X130540000Y-82792164D01*
%TO.C,C207*%
X133192164Y-84960000D02*
X133407836Y-84960000D01*
X133192164Y-84240000D02*
X133407836Y-84240000D01*
%TO.C,R500*%
X113053641Y-97280000D02*
X112746359Y-97280000D01*
X113053641Y-96520000D02*
X112746359Y-96520000D01*
%TO.C,C209*%
X130260000Y-83007836D02*
X130260000Y-82792164D01*
X129540000Y-83007836D02*
X129540000Y-82792164D01*
%TO.C,C101*%
X128690000Y-106459420D02*
X128690000Y-106740580D01*
X129710000Y-106459420D02*
X129710000Y-106740580D01*
%TO.C,R300*%
X125430000Y-67013641D02*
X125430000Y-66706359D01*
X124670000Y-67013641D02*
X124670000Y-66706359D01*
%TO.C,C203*%
X122807836Y-85240000D02*
X122592164Y-85240000D01*
X122807836Y-85960000D02*
X122592164Y-85960000D01*
%TO.C,C213*%
X122710000Y-96392164D02*
X122710000Y-96607836D01*
X121990000Y-96392164D02*
X121990000Y-96607836D01*
%TO.C,C100*%
X127910000Y-106459420D02*
X127910000Y-106740580D01*
X126890000Y-106459420D02*
X126890000Y-106740580D01*
%TO.C,J100*%
X123830000Y-113330000D02*
X108470000Y-113330000D01*
X123830000Y-110670000D02*
X123830000Y-113330000D01*
X123830000Y-110670000D02*
X108470000Y-110670000D01*
X108470000Y-110670000D02*
X108470000Y-113330000D01*
%TO.C,C201*%
X133192164Y-85950000D02*
X133407836Y-85950000D01*
X133192164Y-85230000D02*
X133407836Y-85230000D01*
%TO.C,U200*%
X131400000Y-91900000D02*
X130900000Y-91900000D01*
X131400000Y-91900000D02*
X131400000Y-91400000D01*
X124400000Y-84900000D02*
X124900000Y-84900000D01*
X131400000Y-84900000D02*
X130900000Y-84900000D01*
X124900000Y-91900000D02*
X124400000Y-91900000D01*
X124400000Y-84900000D02*
X124400000Y-85400000D01*
X124400000Y-91900000D02*
X124900000Y-91900000D01*
X131400000Y-91400000D02*
X131400000Y-91900000D01*
X124400000Y-91900000D02*
X124400000Y-91400000D01*
X131400000Y-84900000D02*
X131400000Y-85400000D01*
X124400000Y-85400000D02*
X124400000Y-84900000D01*
D12*
X125580000Y-86000000D02*
G75*
G02*
X125420000Y-86000000I-80000J0D01*
G01*
X125420000Y-86000000D02*
G75*
G02*
X125580000Y-86000000I80000J0D01*
G01*
D11*
%TO.C,R501*%
X112746359Y-95120000D02*
X113053641Y-95120000D01*
X112746359Y-95880000D02*
X113053641Y-95880000D01*
%TO.C,C303*%
X114420580Y-66210000D02*
X114139420Y-66210000D01*
X114420580Y-65190000D02*
X114139420Y-65190000D01*
%TO.C,C212*%
X126710000Y-97532164D02*
X126710000Y-97747836D01*
X127430000Y-97532164D02*
X127430000Y-97747836D01*
%TO.C,C305*%
X132410000Y-67057836D02*
X132410000Y-66842164D01*
X131690000Y-67057836D02*
X131690000Y-66842164D01*
%TO.C,R502*%
X110366359Y-97280000D02*
X110673641Y-97280000D01*
X110366359Y-96520000D02*
X110673641Y-96520000D01*
%TO.C,R301*%
X116420000Y-66846359D02*
X116420000Y-67153641D01*
X117180000Y-66846359D02*
X117180000Y-67153641D01*
D13*
%TO.C,G\u002A\u002A\u002A*%
G36*
X145468594Y-98200000D02*
G01*
X144641178Y-98200000D01*
X144316477Y-98201695D01*
X144050500Y-98207986D01*
X143835275Y-98220678D01*
X143662828Y-98241579D01*
X143525189Y-98272494D01*
X143414383Y-98315232D01*
X143322440Y-98371598D01*
X143241387Y-98443400D01*
X143163251Y-98532444D01*
X143160796Y-98535490D01*
X143054511Y-98716494D01*
X143006651Y-98912374D01*
X143014438Y-99111398D01*
X143075091Y-99301833D01*
X143185831Y-99471945D01*
X143343878Y-99610000D01*
X143426492Y-99656980D01*
X143616163Y-99750000D01*
X144550722Y-99766667D01*
X145485282Y-99783333D01*
X145495098Y-100025482D01*
X145497240Y-100159386D01*
X145489067Y-100239716D01*
X145468729Y-100279028D01*
X145456727Y-100286098D01*
X145412120Y-100290447D01*
X145309563Y-100293714D01*
X145157851Y-100295834D01*
X144965782Y-100296737D01*
X144742152Y-100296358D01*
X144495756Y-100294630D01*
X144428909Y-100293949D01*
X143449277Y-100283333D01*
X143258424Y-100193998D01*
X143011201Y-100044366D01*
X142809428Y-99851382D01*
X142658415Y-99622328D01*
X142563470Y-99364482D01*
X142536085Y-99203609D01*
X142530507Y-98881086D01*
X142579563Y-98585329D01*
X142680583Y-98321393D01*
X142830898Y-98094334D01*
X143027837Y-97909209D01*
X143268732Y-97771073D01*
X143299080Y-97758450D01*
X143355411Y-97737248D01*
X143412452Y-97720395D01*
X143478681Y-97707277D01*
X143562576Y-97697283D01*
X143672613Y-97689801D01*
X143817270Y-97684219D01*
X144005024Y-97679925D01*
X144244352Y-97676308D01*
X144475624Y-97673524D01*
X145468594Y-97662210D01*
X145468594Y-98200000D01*
G37*
G36*
X145451905Y-88416667D02*
G01*
X144433902Y-88433333D01*
X144101949Y-88439840D01*
X143833838Y-88447515D01*
X143626664Y-88456511D01*
X143477525Y-88466979D01*
X143383515Y-88479073D01*
X143345379Y-88490393D01*
X143258568Y-88557802D01*
X143167102Y-88655227D01*
X143089985Y-88759750D01*
X143046223Y-88848454D01*
X143045161Y-88852419D01*
X143030858Y-89014394D01*
X143057464Y-89187567D01*
X143119050Y-89341298D01*
X143148318Y-89385556D01*
X143201562Y-89451484D01*
X143255122Y-89504487D01*
X143316681Y-89545977D01*
X143393919Y-89577366D01*
X143494519Y-89600067D01*
X143626162Y-89615490D01*
X143796530Y-89625049D01*
X144013304Y-89630156D01*
X144284167Y-89632221D01*
X144492312Y-89632601D01*
X145468594Y-89633333D01*
X145468594Y-90129730D01*
X144456415Y-90139865D01*
X143444237Y-90150000D01*
X143305563Y-90241704D01*
X143160266Y-90375904D01*
X143067217Y-90547069D01*
X143032193Y-90744302D01*
X143032063Y-90757526D01*
X143061418Y-90949852D01*
X143150529Y-91113971D01*
X143296988Y-91250000D01*
X143438187Y-91350000D01*
X144453390Y-91360135D01*
X145468594Y-91370271D01*
X145468594Y-91870087D01*
X144392181Y-91860044D01*
X143315768Y-91850000D01*
X143139398Y-91757195D01*
X142905319Y-91600783D01*
X142723434Y-91407744D01*
X142597185Y-91183473D01*
X142530011Y-90933365D01*
X142519485Y-90785138D01*
X142528300Y-90594013D01*
X142562148Y-90435212D01*
X142629271Y-90284580D01*
X142737911Y-90117960D01*
X142755222Y-90094260D01*
X142839943Y-89968844D01*
X142879481Y-89884413D01*
X142877891Y-89848862D01*
X142842911Y-89802421D01*
X142782366Y-89722102D01*
X142725395Y-89646550D01*
X142594415Y-89422026D01*
X142523991Y-89184112D01*
X142511766Y-88941692D01*
X142555379Y-88703655D01*
X142652470Y-88478886D01*
X142800680Y-88276273D01*
X142997650Y-88104701D01*
X143160109Y-88009377D01*
X143349145Y-87916667D01*
X145451905Y-87916667D01*
X145451905Y-88416667D01*
G37*
G36*
X144231013Y-100594249D02*
G01*
X144503546Y-100656085D01*
X144759943Y-100764516D01*
X144991153Y-100919468D01*
X145188126Y-101120864D01*
X145263268Y-101226760D01*
X145370249Y-101444276D01*
X145444892Y-101699689D01*
X145482928Y-101970408D01*
X145480089Y-102233845D01*
X145469233Y-102316667D01*
X145387396Y-102622425D01*
X145251961Y-102890280D01*
X145066583Y-103116603D01*
X144834921Y-103297769D01*
X144560631Y-103430147D01*
X144269900Y-103506397D01*
X144004693Y-103525726D01*
X143959769Y-103529000D01*
X143659565Y-103492596D01*
X143377680Y-103401311D01*
X143122509Y-103259274D01*
X142902446Y-103070611D01*
X142725884Y-102839451D01*
X142658876Y-102714237D01*
X142606644Y-102593081D01*
X142573021Y-102483579D01*
X142552701Y-102361384D01*
X142540382Y-102202146D01*
X142538257Y-102160530D01*
X142539249Y-102050000D01*
X143015853Y-102050000D01*
X143026203Y-102260107D01*
X143062596Y-102424970D01*
X143133044Y-102563532D01*
X143245562Y-102694739D01*
X143316224Y-102760104D01*
X143503592Y-102891168D01*
X143712803Y-102969341D01*
X143957420Y-102999348D01*
X144004693Y-103000000D01*
X144269244Y-102970799D01*
X144504340Y-102885698D01*
X144703838Y-102748451D01*
X144861594Y-102562813D01*
X144932050Y-102433333D01*
X144981381Y-102265334D01*
X144999951Y-102064765D01*
X144987189Y-101858514D01*
X144947851Y-101688510D01*
X144848437Y-101496584D01*
X144696858Y-101335728D01*
X144502826Y-101212004D01*
X144276053Y-101131473D01*
X144026254Y-101100194D01*
X144004693Y-101100000D01*
X143752515Y-101122095D01*
X143538109Y-101191531D01*
X143347910Y-101313035D01*
X143316224Y-101339896D01*
X143180866Y-101474258D01*
X143091391Y-101606956D01*
X143039787Y-101756937D01*
X143018039Y-101943145D01*
X143015853Y-102050000D01*
X142539249Y-102050000D01*
X142540913Y-101864719D01*
X142582431Y-101609470D01*
X142666636Y-101378597D01*
X142763808Y-101205956D01*
X142943088Y-100986638D01*
X143160538Y-100814366D01*
X143407107Y-100689067D01*
X143673742Y-100610665D01*
X143951395Y-100579084D01*
X144231013Y-100594249D01*
G37*
G36*
X144820216Y-95279867D02*
G01*
X145009082Y-95357507D01*
X145174150Y-95488614D01*
X145239460Y-95572238D01*
X145312276Y-95686491D01*
X145356190Y-95766667D01*
X145402969Y-95869754D01*
X145432570Y-95968820D01*
X145449702Y-96086583D01*
X145459074Y-96245760D01*
X145459829Y-96266667D01*
X145462976Y-96426777D01*
X145457125Y-96543301D01*
X145439077Y-96639067D01*
X145405635Y-96736903D01*
X145387862Y-96780232D01*
X145265721Y-97008903D01*
X145116376Y-97184203D01*
X144944182Y-97302550D01*
X144753493Y-97360365D01*
X144675887Y-97365728D01*
X144534034Y-97366667D01*
X144534034Y-96907420D01*
X144648304Y-96886010D01*
X144776486Y-96830306D01*
X144885935Y-96723589D01*
X144968446Y-96580679D01*
X145015814Y-96416394D01*
X145019835Y-96245555D01*
X145016354Y-96221246D01*
X144967594Y-96044062D01*
X144891440Y-95905998D01*
X144795788Y-95812211D01*
X144688534Y-95767863D01*
X144577575Y-95778110D01*
X144470808Y-95848114D01*
X144460914Y-95858333D01*
X144403633Y-95924385D01*
X144357072Y-95993050D01*
X144314261Y-96078782D01*
X144268228Y-96196036D01*
X144212001Y-96359265D01*
X144195970Y-96407630D01*
X144132167Y-96594424D01*
X144078069Y-96732921D01*
X144025557Y-96839068D01*
X143966512Y-96928815D01*
X143892816Y-97018109D01*
X143875224Y-97037739D01*
X143707821Y-97186307D01*
X143527757Y-97272381D01*
X143327636Y-97300000D01*
X143114855Y-97269524D01*
X142927857Y-97182562D01*
X142771142Y-97045816D01*
X142649208Y-96865987D01*
X142566554Y-96649778D01*
X142527680Y-96403889D01*
X142537083Y-96135023D01*
X142538454Y-96124430D01*
X142593582Y-95894550D01*
X142697404Y-95700488D01*
X142820627Y-95559961D01*
X143003646Y-95422101D01*
X143199599Y-95347225D01*
X143331385Y-95333333D01*
X143465965Y-95333333D01*
X143465965Y-95833333D01*
X143346578Y-95833333D01*
X143219773Y-95862262D01*
X143118633Y-95940603D01*
X143044487Y-96055691D01*
X142998664Y-96194860D01*
X142982493Y-96345443D01*
X142997303Y-96494776D01*
X143044424Y-96630192D01*
X143125184Y-96739026D01*
X143240912Y-96808611D01*
X143244129Y-96809693D01*
X143355312Y-96815029D01*
X143462554Y-96755769D01*
X143566269Y-96631410D01*
X143666871Y-96441448D01*
X143764774Y-96185382D01*
X143768785Y-96173318D01*
X143843256Y-95958101D01*
X143908794Y-95793766D01*
X143972005Y-95666358D01*
X144039493Y-95561925D01*
X144086046Y-95502990D01*
X144240695Y-95367496D01*
X144423173Y-95285031D01*
X144620630Y-95255765D01*
X144820216Y-95279867D01*
G37*
G36*
X143048751Y-87388841D02*
G01*
X143549408Y-87632176D01*
X143056048Y-87632755D01*
X142854749Y-87631646D01*
X142711573Y-87627272D01*
X142617936Y-87618883D01*
X142565254Y-87605730D01*
X142545329Y-87588156D01*
X142537554Y-87532009D01*
X142535407Y-87433522D01*
X142538032Y-87344242D01*
X142548094Y-87145507D01*
X143048751Y-87388841D01*
G37*
G36*
X144100131Y-94466667D02*
G01*
X144178243Y-94466667D01*
X144277620Y-94445984D01*
X144406629Y-94391313D01*
X144545696Y-94313721D01*
X144675249Y-94224274D01*
X144775717Y-94134039D01*
X144784947Y-94123617D01*
X144906820Y-93933693D01*
X144976000Y-93718703D01*
X144990484Y-93494358D01*
X144948268Y-93276372D01*
X144905838Y-93175782D01*
X144839161Y-93074675D01*
X144743491Y-92964212D01*
X144636351Y-92861534D01*
X144535263Y-92783780D01*
X144472138Y-92751540D01*
X144435461Y-92733714D01*
X144413959Y-92698998D01*
X144403666Y-92632190D01*
X144400620Y-92518086D01*
X144400525Y-92476921D01*
X144400525Y-92225000D01*
X144508635Y-92246594D01*
X144684232Y-92309370D01*
X144868364Y-92423104D01*
X145047446Y-92575855D01*
X145207890Y-92755682D01*
X145336111Y-92950643D01*
X145358057Y-92993176D01*
X145402957Y-93093737D01*
X145431576Y-93187594D01*
X145448049Y-93296248D01*
X145456510Y-93441203D01*
X145458626Y-93516249D01*
X145459314Y-93668069D01*
X145454756Y-93802653D01*
X145445849Y-93900828D01*
X145439110Y-93933333D01*
X145349354Y-94141124D01*
X145223239Y-94346434D01*
X145079819Y-94518684D01*
X145065866Y-94532333D01*
X144825876Y-94722421D01*
X144568897Y-94855599D01*
X144301658Y-94934787D01*
X144030884Y-94962905D01*
X143763305Y-94942872D01*
X143602902Y-94902242D01*
X143505649Y-94877608D01*
X143264642Y-94770034D01*
X143047014Y-94623070D01*
X142859491Y-94439634D01*
X142708802Y-94222648D01*
X142601674Y-93975031D01*
X142544835Y-93699703D01*
X142544182Y-93643951D01*
X143012838Y-93643951D01*
X143018000Y-93689203D01*
X143071841Y-93865968D01*
X143173000Y-94044745D01*
X143306723Y-94203018D01*
X143410984Y-94288991D01*
X143502459Y-94345413D01*
X143573402Y-94378086D01*
X143602902Y-94381217D01*
X143613243Y-94342721D01*
X143621414Y-94248874D01*
X143627462Y-94110958D01*
X143631433Y-93940252D01*
X143633373Y-93748038D01*
X143633329Y-93545594D01*
X143631347Y-93344202D01*
X143627474Y-93155141D01*
X143621757Y-92989692D01*
X143614241Y-92859134D01*
X143604973Y-92774749D01*
X143596178Y-92747966D01*
X143545137Y-92751828D01*
X143463875Y-92794888D01*
X143366620Y-92866604D01*
X143267600Y-92956436D01*
X143181043Y-93053841D01*
X143178040Y-93057748D01*
X143080528Y-93232820D01*
X143023073Y-93437641D01*
X143012838Y-93643951D01*
X142544182Y-93643951D01*
X142541756Y-93436854D01*
X142594524Y-93162671D01*
X142704949Y-92906938D01*
X142864832Y-92677213D01*
X143065973Y-92481057D01*
X143300171Y-92326029D01*
X143559227Y-92219688D01*
X143834940Y-92169596D01*
X143919530Y-92166667D01*
X144100131Y-92166667D01*
X144100131Y-94466667D01*
G37*
G36*
X145351774Y-86793674D02*
G01*
X145436355Y-86807901D01*
X145466440Y-86821964D01*
X145437661Y-86831540D01*
X145391826Y-86833333D01*
X145313363Y-86849799D01*
X145275006Y-86873333D01*
X145243766Y-86891404D01*
X145234971Y-86850512D01*
X145234954Y-86846694D01*
X145245103Y-86802799D01*
X145287888Y-86789172D01*
X145351774Y-86793674D01*
G37*
G36*
X145434233Y-86473688D02*
G01*
X145446791Y-86481325D01*
X145402988Y-86496204D01*
X145401839Y-86496524D01*
X145345684Y-86515183D01*
X145350118Y-86530643D01*
X145385151Y-86545582D01*
X145431562Y-86568484D01*
X145420164Y-86593752D01*
X145390777Y-86616373D01*
X145350732Y-86651104D01*
X145368928Y-86667821D01*
X145407466Y-86676120D01*
X145436815Y-86686415D01*
X145399796Y-86693388D01*
X145360118Y-86695461D01*
X145271931Y-86688774D01*
X145237139Y-86665877D01*
X145260697Y-86634838D01*
X145310052Y-86613988D01*
X145385151Y-86590151D01*
X145310052Y-86556648D01*
X145245924Y-86516770D01*
X145245702Y-86486696D01*
X145306745Y-86470999D01*
X145360118Y-86469990D01*
X145434233Y-86473688D01*
G37*
G36*
X143652151Y-87073778D02*
G01*
X143970967Y-87075228D01*
X144133508Y-87076114D01*
X145451905Y-87083333D01*
X145461653Y-87341667D01*
X145471402Y-87600000D01*
X145327940Y-87600000D01*
X145129419Y-87591474D01*
X144882287Y-87567658D01*
X144602229Y-87531193D01*
X144304927Y-87484722D01*
X144006066Y-87430886D01*
X143721328Y-87372330D01*
X143466397Y-87311693D01*
X143256957Y-87251619D01*
X143253666Y-87250548D01*
X143119373Y-87206495D01*
X143014160Y-87170210D01*
X142941633Y-87140979D01*
X142905400Y-87118085D01*
X142909067Y-87100815D01*
X142956241Y-87088452D01*
X143050530Y-87080282D01*
X143195540Y-87075590D01*
X143394878Y-87073660D01*
X143652151Y-87073778D01*
G37*
D11*
%TO.C,C501*%
X110627836Y-94460000D02*
X110412164Y-94460000D01*
X110627836Y-93740000D02*
X110412164Y-93740000D01*
%TO.C,Y200*%
X124800000Y-95000000D02*
X124600000Y-95000000D01*
X123450000Y-96340000D02*
X123450000Y-96860000D01*
X125950000Y-96340000D02*
X125950000Y-96860000D01*
X124800000Y-98200000D02*
X124600000Y-98200000D01*
%TO.C,R200*%
X127450000Y-95486359D02*
X127450000Y-95793641D01*
X126690000Y-95486359D02*
X126690000Y-95793641D01*
%TO.C,C103*%
X135234420Y-97760000D02*
X135515580Y-97760000D01*
X135234420Y-96740000D02*
X135515580Y-96740000D01*
%TO.C,C208*%
X133192164Y-83960000D02*
X133407836Y-83960000D01*
X133192164Y-83240000D02*
X133407836Y-83240000D01*
%TO.C,C302*%
X114420580Y-67910000D02*
X114139420Y-67910000D01*
X114420580Y-66890000D02*
X114139420Y-66890000D01*
%TO.C,C205*%
X127940000Y-93692164D02*
X127940000Y-93907836D01*
X128660000Y-93692164D02*
X128660000Y-93907836D01*
%TO.C,L100*%
X128062742Y-103477500D02*
X128537258Y-103477500D01*
X128062742Y-104522500D02*
X128537258Y-104522500D01*
%TO.C,C214*%
X125642836Y-79990000D02*
X125427164Y-79990000D01*
X125642836Y-80710000D02*
X125427164Y-80710000D01*
%TO.C,R503*%
X110366359Y-95120000D02*
X110673641Y-95120000D01*
X110366359Y-95880000D02*
X110673641Y-95880000D01*
%TO.C,J102*%
X123830000Y-105590000D02*
X108470000Y-105590000D01*
X108470000Y-105590000D02*
X108470000Y-108250000D01*
X123830000Y-105590000D02*
X123830000Y-108250000D01*
%TO.C,C500*%
X112792164Y-94460000D02*
X113007836Y-94460000D01*
X112792164Y-93740000D02*
X113007836Y-93740000D01*
%TO.C,C211*%
X129760000Y-93692164D02*
X129760000Y-93907836D01*
X129040000Y-93692164D02*
X129040000Y-93907836D01*
%TO.C,J200*%
X140130000Y-110670000D02*
X129850000Y-110670000D01*
X140130000Y-113330000D02*
X129850000Y-113330000D01*
X140130000Y-110670000D02*
X140130000Y-113330000D01*
X129850000Y-110670000D02*
X129850000Y-113330000D01*
%TO.C,C306*%
X124210000Y-66977836D02*
X124210000Y-66762164D01*
X123490000Y-66977836D02*
X123490000Y-66762164D01*
%TO.C,C102*%
X135234420Y-104960000D02*
X135515580Y-104960000D01*
X135234420Y-103940000D02*
X135515580Y-103940000D01*
%TO.C,J101*%
X123830000Y-108130000D02*
X123830000Y-110790000D01*
X108470000Y-108130000D02*
X108470000Y-110790000D01*
X123830000Y-108130000D02*
X108470000Y-108130000D01*
%TO.C,U201*%
X122950000Y-81150000D02*
X125750000Y-81150000D01*
X122950000Y-83150000D02*
X125750000Y-83150000D01*
D14*
X123750000Y-81500000D02*
G75*
G02*
X123650000Y-81500000I-50000J0D01*
G01*
X123650000Y-81500000D02*
G75*
G02*
X123750000Y-81500000I50000J0D01*
G01*
D11*
%TO.C,R303*%
X118496359Y-85220000D02*
X118803641Y-85220000D01*
X118496359Y-85980000D02*
X118803641Y-85980000D01*
%TO.C,J103*%
X108470000Y-103050000D02*
X108470000Y-105710000D01*
X123830000Y-103050000D02*
X123830000Y-105710000D01*
X123830000Y-103050000D02*
X108470000Y-103050000D01*
%TO.C,R302*%
X116803641Y-85980000D02*
X116496359Y-85980000D01*
X116803641Y-85220000D02*
X116496359Y-85220000D01*
%TO.C,U100*%
X137716250Y-103210000D02*
X134996250Y-103210000D01*
X134996250Y-98490000D02*
X134996250Y-98720000D01*
X134996250Y-98490000D02*
X137716250Y-98490000D01*
X137716250Y-101900000D02*
X137716250Y-103210000D01*
X134996250Y-103210000D02*
X134996250Y-102980000D01*
X137716250Y-98490000D02*
X137716250Y-99800000D01*
%TO.C,J201*%
X103830000Y-96550000D02*
X103830000Y-106830000D01*
X101170000Y-106830000D02*
X103830000Y-106830000D01*
X101170000Y-96550000D02*
X101170000Y-106830000D01*
X101170000Y-96550000D02*
X103830000Y-96550000D01*
%TO.C,C202*%
X128540000Y-83007836D02*
X128540000Y-82792164D01*
X129260000Y-83007836D02*
X129260000Y-82792164D01*
%TO.C,C210*%
X128260000Y-83007836D02*
X128260000Y-82792164D01*
X127540000Y-83007836D02*
X127540000Y-82792164D01*
D13*
%TO.C,G\u002A\u002A\u002A*%
G36*
X112139242Y-52258024D02*
G01*
X112141890Y-52971745D01*
X112142416Y-53110283D01*
X112142919Y-53229626D01*
X112143448Y-53331207D01*
X112144047Y-53416455D01*
X112144763Y-53486801D01*
X112145643Y-53543677D01*
X112146732Y-53588514D01*
X112148077Y-53622741D01*
X112149724Y-53647791D01*
X112151720Y-53665095D01*
X112154110Y-53676082D01*
X112156940Y-53682184D01*
X112160258Y-53684832D01*
X112164110Y-53685457D01*
X112164955Y-53685465D01*
X112181511Y-53676800D01*
X112209151Y-53650849D01*
X112247810Y-53607677D01*
X112281699Y-53566870D01*
X112344432Y-53489644D01*
X112402264Y-53418474D01*
X112457068Y-53351060D01*
X112510712Y-53285107D01*
X112565069Y-53218315D01*
X112622007Y-53148389D01*
X112683399Y-53073029D01*
X112751114Y-52989939D01*
X112827023Y-52896822D01*
X112912997Y-52791378D01*
X112969257Y-52722386D01*
X113340220Y-52267479D01*
X113745891Y-52267479D01*
X113851485Y-52267602D01*
X113938014Y-52268005D01*
X114007037Y-52268739D01*
X114060111Y-52269853D01*
X114098795Y-52271399D01*
X114124648Y-52273427D01*
X114139229Y-52275987D01*
X114144096Y-52279130D01*
X114143798Y-52280370D01*
X114135327Y-52291530D01*
X114115497Y-52316281D01*
X114086149Y-52352367D01*
X114049125Y-52397532D01*
X114006266Y-52449519D01*
X113964862Y-52499513D01*
X113925890Y-52546504D01*
X113875642Y-52607138D01*
X113815988Y-52679159D01*
X113748791Y-52760312D01*
X113675921Y-52848344D01*
X113599242Y-52940999D01*
X113520622Y-53036022D01*
X113441927Y-53131159D01*
X113392885Y-53190459D01*
X113321148Y-53277202D01*
X113253064Y-53359513D01*
X113189812Y-53435966D01*
X113132573Y-53505135D01*
X113082528Y-53565594D01*
X113040857Y-53615916D01*
X113008741Y-53654675D01*
X112987360Y-53680446D01*
X112977896Y-53691801D01*
X112977786Y-53691931D01*
X112973772Y-53696024D01*
X112970751Y-53699666D01*
X112969752Y-53704568D01*
X112971807Y-53712446D01*
X112977946Y-53725014D01*
X112989197Y-53743986D01*
X113006593Y-53771076D01*
X113031162Y-53807999D01*
X113063936Y-53856468D01*
X113105943Y-53918198D01*
X113158215Y-53994903D01*
X113172224Y-54015469D01*
X113272615Y-54162968D01*
X113372288Y-54309583D01*
X113470572Y-54454320D01*
X113566798Y-54596184D01*
X113660294Y-54734180D01*
X113750390Y-54867312D01*
X113836415Y-54994587D01*
X113917700Y-55115009D01*
X113993574Y-55227583D01*
X114063366Y-55331314D01*
X114126407Y-55425207D01*
X114182024Y-55508268D01*
X114229549Y-55579501D01*
X114268310Y-55637911D01*
X114297638Y-55682505D01*
X114316861Y-55712285D01*
X114325310Y-55726259D01*
X114325660Y-55727160D01*
X114315716Y-55728346D01*
X114287364Y-55729442D01*
X114242818Y-55730416D01*
X114184295Y-55731241D01*
X114114010Y-55731885D01*
X114034180Y-55732319D01*
X113947020Y-55732514D01*
X113925317Y-55732522D01*
X113524974Y-55732522D01*
X113408486Y-55559785D01*
X113372523Y-55506385D01*
X113329318Y-55442110D01*
X113279908Y-55368512D01*
X113225327Y-55287138D01*
X113166612Y-55199537D01*
X113104799Y-55107258D01*
X113040921Y-55011851D01*
X112976017Y-54914864D01*
X112911120Y-54817846D01*
X112847267Y-54722346D01*
X112785493Y-54629913D01*
X112726834Y-54542096D01*
X112672326Y-54460443D01*
X112623003Y-54386504D01*
X112579903Y-54321828D01*
X112544059Y-54267964D01*
X112516509Y-54226460D01*
X112498288Y-54198866D01*
X112490430Y-54186730D01*
X112490279Y-54186471D01*
X112481311Y-54176535D01*
X112468717Y-54182033D01*
X112464044Y-54185783D01*
X112451707Y-54198529D01*
X112428859Y-54224413D01*
X112397934Y-54260513D01*
X112361367Y-54303910D01*
X112321590Y-54351683D01*
X112281038Y-54400912D01*
X112242145Y-54448676D01*
X112207343Y-54492056D01*
X112183211Y-54522764D01*
X112139383Y-54579320D01*
X112139383Y-55031560D01*
X112139212Y-55126044D01*
X112138724Y-55213978D01*
X112137954Y-55293258D01*
X112136938Y-55361779D01*
X112135711Y-55417437D01*
X112134310Y-55458128D01*
X112132770Y-55481747D01*
X112131648Y-55486988D01*
X112119815Y-55487676D01*
X112089865Y-55488138D01*
X112044305Y-55488374D01*
X111985642Y-55488380D01*
X111916384Y-55488154D01*
X111839037Y-55487693D01*
X111791380Y-55487317D01*
X111458847Y-55484459D01*
X111456220Y-54432231D01*
X111453593Y-53380002D01*
X111035932Y-54422285D01*
X110618270Y-55464568D01*
X110391588Y-55461903D01*
X110164906Y-55459237D01*
X109748714Y-54415084D01*
X109672608Y-54224484D01*
X109603873Y-54053051D01*
X109542514Y-53900794D01*
X109488534Y-53767722D01*
X109441937Y-53653843D01*
X109402725Y-53559167D01*
X109370904Y-53483701D01*
X109346475Y-53427456D01*
X109329444Y-53390439D01*
X109319814Y-53372659D01*
X109317966Y-53370930D01*
X109315573Y-53373233D01*
X109313450Y-53380883D01*
X109311581Y-53394993D01*
X109309952Y-53416676D01*
X109308546Y-53447045D01*
X109307349Y-53487212D01*
X109306345Y-53538291D01*
X109305519Y-53601395D01*
X109304854Y-53677636D01*
X109304337Y-53768126D01*
X109303951Y-53873980D01*
X109303681Y-53996310D01*
X109303511Y-54136229D01*
X109303427Y-54294849D01*
X109303410Y-54422818D01*
X109303410Y-55474706D01*
X108643402Y-55474706D01*
X108643402Y-52257166D01*
X109486439Y-52257166D01*
X109663218Y-52687719D01*
X109699851Y-52776960D01*
X109742965Y-52882017D01*
X109791218Y-52999621D01*
X109843268Y-53126502D01*
X109897776Y-53259390D01*
X109953399Y-53395018D01*
X110008797Y-53530115D01*
X110062630Y-53661412D01*
X110106311Y-53767966D01*
X110166146Y-53913455D01*
X110218621Y-54040009D01*
X110263860Y-54147913D01*
X110301986Y-54237454D01*
X110333122Y-54308916D01*
X110357393Y-54362585D01*
X110374922Y-54398745D01*
X110385832Y-54417682D01*
X110389147Y-54420881D01*
X110405706Y-54414624D01*
X110420208Y-54395100D01*
X110425996Y-54381835D01*
X110439075Y-54350742D01*
X110458925Y-54303080D01*
X110485026Y-54240111D01*
X110516858Y-54163095D01*
X110553903Y-54073292D01*
X110595641Y-53971964D01*
X110641551Y-53860370D01*
X110691116Y-53739772D01*
X110743814Y-53611430D01*
X110799126Y-53476605D01*
X110856534Y-53336557D01*
X110866825Y-53311439D01*
X111298904Y-52256780D01*
X112139242Y-52258024D01*
G37*
D11*
%TO.C,C206*%
X133192164Y-88840000D02*
X133407836Y-88840000D01*
X133192164Y-89560000D02*
X133407836Y-89560000D01*
%TO.C,C301*%
X128270000Y-66540580D02*
X128270000Y-66259420D01*
X129290000Y-66540580D02*
X129290000Y-66259420D01*
%TD*%
M02*
