%TF.GenerationSoftware,KiCad,Pcbnew,(6.0.1-0)*%
%TF.CreationDate,2024-02-14T14:00:17+01:00*%
%TF.ProjectId,dcload-control-board,64636c6f-6164-42d6-936f-6e74726f6c2d,rev?*%
%TF.SameCoordinates,Original*%
%TF.FileFunction,Copper,L4,Bot*%
%TF.FilePolarity,Positive*%
%FSLAX46Y46*%
G04 Gerber Fmt 4.6, Leading zero omitted, Abs format (unit mm)*
G04 Created by KiCad (PCBNEW (6.0.1-0)) date 2024-02-14 14:00:17*
%MOMM*%
%LPD*%
G01*
G04 APERTURE LIST*
%TA.AperFunction,ComponentPad*%
%ADD10C,1.700000*%
%TD*%
%TA.AperFunction,ComponentPad*%
%ADD11C,7.500000*%
%TD*%
%TA.AperFunction,ComponentPad*%
%ADD12O,1.700000X1.700000*%
%TD*%
%TA.AperFunction,ComponentPad*%
%ADD13C,1.800000*%
%TD*%
%TA.AperFunction,ViaPad*%
%ADD14C,0.600000*%
%TD*%
%TA.AperFunction,ViaPad*%
%ADD15C,0.800000*%
%TD*%
%TA.AperFunction,Conductor*%
%ADD16C,0.300000*%
%TD*%
%TA.AperFunction,Conductor*%
%ADD17C,1.000000*%
%TD*%
%TA.AperFunction,Conductor*%
%ADD18C,0.200000*%
%TD*%
G04 APERTURE END LIST*
D10*
%TO.P,J300,1,Pin_1*%
%TO.N,/3. Input Protection & Voltage Sense/RSEN-*%
X164775000Y-115000000D03*
%TO.P,J300,2,Pin_2*%
%TO.N,/3. Input Protection & Voltage Sense/RSEN+*%
X164775000Y-117500000D03*
%TD*%
D11*
%TO.P,H301,1,1*%
%TO.N,IN-*%
X163000000Y-136000000D03*
%TD*%
D10*
%TO.P,J202,1,Pin_1*%
%TO.N,+3V3*%
X134000000Y-74500000D03*
D12*
%TO.P,J202,2,Pin_2*%
%TO.N,/2. MCU/TX*%
X134000000Y-71960000D03*
%TO.P,J202,3,Pin_3*%
%TO.N,/2. MCU/RX*%
X134000000Y-69420000D03*
%TO.P,J202,4,Pin_4*%
%TO.N,GND*%
X134000000Y-66880000D03*
%TD*%
D10*
%TO.P,J102,1,Pin_1*%
%TO.N,/~{FAULT}*%
X163625000Y-77975000D03*
D12*
%TO.P,J102,2,Pin_2*%
%TO.N,GND*%
X163625000Y-80515000D03*
%TO.P,J102,3,Pin_3*%
%TO.N,/ISET*%
X163625000Y-83055000D03*
%TD*%
D13*
%TO.P,J104,1,Pin_1*%
%TO.N,VCC*%
X145800000Y-119400000D03*
%TO.P,J104,2,Pin_2*%
%TO.N,GND*%
X145800000Y-116860000D03*
%TD*%
D10*
%TO.P,J201,1,Pin_1*%
%TO.N,+3V3*%
X166000000Y-74500000D03*
D12*
%TO.P,J201,2,Pin_2*%
%TO.N,/2. MCU/SWDIO*%
X166000000Y-71960000D03*
%TO.P,J201,3,Pin_3*%
%TO.N,/2. MCU/SWCLK*%
X166000000Y-69420000D03*
%TO.P,J201,4,Pin_4*%
%TO.N,GND*%
X166000000Y-66880000D03*
%TD*%
D11*
%TO.P,H303,1,1*%
%TO.N,IN-*%
X137000000Y-136000000D03*
%TD*%
%TO.P,H300,1,1*%
%TO.N,IN+*%
X163000000Y-126000000D03*
%TD*%
D10*
%TO.P,J103,1,Pin_1*%
%TO.N,/ISET*%
X136375000Y-83025000D03*
D12*
%TO.P,J103,2,Pin_2*%
%TO.N,GND*%
X136375000Y-80485000D03*
%TO.P,J103,3,Pin_3*%
%TO.N,/~{FAULT}*%
X136375000Y-77945000D03*
%TD*%
D10*
%TO.P,J200,1,Pin_1*%
%TO.N,/2. MCU/CMD_MOSI*%
X143650000Y-59000000D03*
D12*
%TO.P,J200,2,Pin_2*%
%TO.N,/2. MCU/CMD_MISO*%
X146190000Y-59000000D03*
%TO.P,J200,3,Pin_3*%
%TO.N,/2. MCU/CMD_SCK*%
X148730000Y-59000000D03*
%TO.P,J200,4,Pin_4*%
%TO.N,/2. MCU/CMD_SS*%
X151270000Y-59000000D03*
%TO.P,J200,5,Pin_5*%
%TO.N,GND*%
X153810000Y-59000000D03*
%TO.P,J200,6,Pin_6*%
%TO.N,Net-(D200-Pad1)*%
X156350000Y-59000000D03*
%TD*%
D11*
%TO.P,H302,1,1*%
%TO.N,IN+*%
X137000000Y-126000000D03*
%TD*%
D10*
%TO.P,J101,1,Pin_1*%
%TO.N,/NTC_R*%
X129320000Y-87000000D03*
D12*
%TO.P,J101,2,Pin_2*%
%TO.N,GND*%
X129320000Y-89540000D03*
%TO.P,J101,3,Pin_3*%
%TO.N,/EN_R*%
X129320000Y-92080000D03*
%TO.P,J101,4,Pin_4*%
%TO.N,/ISET*%
X129320000Y-94620000D03*
%TO.P,J101,5,Pin_5*%
%TO.N,/ISEN_R2*%
X129320000Y-97160000D03*
%TO.P,J101,6,Pin_6*%
%TO.N,/ISEN_R1*%
X129320000Y-99700000D03*
%TO.P,J101,7,Pin_7*%
%TO.N,GND*%
X129320000Y-102240000D03*
%TO.P,J101,8,Pin_8*%
%TO.N,+12VA*%
X129320000Y-104780000D03*
%TD*%
D10*
%TO.P,J100,1,Pin_1*%
%TO.N,/NTC_L*%
X170680000Y-87000000D03*
D12*
%TO.P,J100,2,Pin_2*%
%TO.N,GND*%
X170680000Y-89540000D03*
%TO.P,J100,3,Pin_3*%
%TO.N,/EN_L*%
X170680000Y-92080000D03*
%TO.P,J100,4,Pin_4*%
%TO.N,/ISET*%
X170680000Y-94620000D03*
%TO.P,J100,5,Pin_5*%
%TO.N,/ISEN_L2*%
X170680000Y-97160000D03*
%TO.P,J100,6,Pin_6*%
%TO.N,/ISEN_L1*%
X170680000Y-99700000D03*
%TO.P,J100,7,Pin_7*%
%TO.N,GND*%
X170680000Y-102240000D03*
%TO.P,J100,8,Pin_8*%
%TO.N,+12VA*%
X170680000Y-104780000D03*
%TD*%
D10*
%TO.P,J500,1,Pin_1*%
%TO.N,/5. Fan Control/FAN1_GND*%
X140000000Y-56190000D03*
D12*
%TO.P,J500,2,Pin_2*%
%TO.N,/5. Fan Control/FAN1_VCC*%
X140000000Y-58730000D03*
%TO.P,J500,3,Pin_3*%
%TO.N,/5. Fan Control/FAN1_TACH_CON*%
X140000000Y-61270000D03*
%TO.P,J500,4,Pin_4*%
%TO.N,/5. Fan Control/FAN1_PWM_CON*%
X140000000Y-63810000D03*
%TD*%
D10*
%TO.P,J501,1,Pin_1*%
%TO.N,/5. Fan Control/FAN2_PWM_CON*%
X160000000Y-63810000D03*
D12*
%TO.P,J501,2,Pin_2*%
%TO.N,/5. Fan Control/FAN2_TACH_CON*%
X160000000Y-61270000D03*
%TO.P,J501,3,Pin_3*%
%TO.N,/5. Fan Control/FAN2_VCC*%
X160000000Y-58730000D03*
%TO.P,J501,4,Pin_4*%
%TO.N,/5. Fan Control/FAN2_GND*%
X160000000Y-56190000D03*
%TD*%
D14*
%TO.N,+12V*%
X164400000Y-59100000D03*
X166200000Y-58100000D03*
D15*
X138500000Y-101500000D03*
D14*
X154700000Y-63100000D03*
X164400000Y-58200000D03*
D15*
X137250000Y-102750000D03*
D14*
X140200000Y-102750000D03*
D15*
X137250000Y-101500000D03*
D14*
X133800000Y-58100000D03*
D15*
X138500000Y-104000000D03*
D14*
X150400000Y-102615000D03*
D15*
X136000000Y-104000000D03*
D14*
X135600000Y-59100000D03*
D15*
X136000000Y-102750000D03*
D14*
X135600000Y-58200000D03*
X154700000Y-62400000D03*
D15*
X137250000Y-104000000D03*
X138500000Y-102750000D03*
D14*
X154000000Y-63100000D03*
X162075000Y-69375000D03*
X154000000Y-62400000D03*
X160350000Y-69375000D03*
X159700000Y-66850000D03*
X165300000Y-58100000D03*
X161225000Y-69375000D03*
D15*
X136000000Y-101500000D03*
D14*
X134700000Y-58100000D03*
D15*
%TO.N,GND*%
X149550000Y-115200000D03*
D14*
X148875000Y-95050000D03*
D15*
X145000000Y-101600000D03*
X149000000Y-80000000D03*
D14*
X135600000Y-56800000D03*
X154500000Y-111500000D03*
X161750000Y-86450000D03*
X160700000Y-101300000D03*
X142400000Y-86225000D03*
D15*
X151000000Y-76000000D03*
D14*
X164500000Y-94350000D03*
X159725000Y-91350000D03*
X142400000Y-82775000D03*
D15*
X150000000Y-78000000D03*
D14*
X161825000Y-103675000D03*
X148100000Y-92750000D03*
X156800000Y-106225000D03*
X140825000Y-79925000D03*
X160375000Y-73350000D03*
X148875000Y-93450000D03*
X159300000Y-90450000D03*
X148750000Y-81225000D03*
X148900000Y-69950000D03*
X135500000Y-92100000D03*
X161050000Y-111000000D03*
X150350000Y-96750000D03*
X161050000Y-87200000D03*
X141700000Y-71050000D03*
X149650000Y-92750000D03*
X147700000Y-78250000D03*
X148000000Y-86800000D03*
D15*
X155500000Y-73000000D03*
D14*
X164650000Y-86950000D03*
X134700000Y-56900000D03*
X139275000Y-79925000D03*
D15*
X147700000Y-106750000D03*
D14*
X160500000Y-90450000D03*
D15*
X155000000Y-80000000D03*
D14*
X161250000Y-67550000D03*
X135600000Y-55900000D03*
X154925000Y-104275000D03*
X158900000Y-73500000D03*
D15*
X150800000Y-114200000D03*
X145500000Y-104000000D03*
X154000000Y-78000000D03*
D14*
X138200000Y-94550000D03*
X147850000Y-96750000D03*
X154500000Y-114500000D03*
X152500000Y-111500000D03*
X145800000Y-86250000D03*
X166200000Y-56900000D03*
X155500000Y-83950000D03*
X164375000Y-64625000D03*
X138200000Y-93200000D03*
X148750000Y-72475000D03*
X156500000Y-111500000D03*
X152500000Y-114500000D03*
X136375000Y-60550000D03*
X164400000Y-56800000D03*
X154500000Y-113000000D03*
X136250000Y-92500000D03*
X153150000Y-87900000D03*
D15*
X143300000Y-104125000D03*
D14*
X137050000Y-98000000D03*
D15*
X151500000Y-80000000D03*
D14*
X152500000Y-113000000D03*
X142050000Y-78150000D03*
X159725000Y-92850000D03*
X163050000Y-86450000D03*
X153075000Y-94150000D03*
X157450000Y-67625000D03*
X150775000Y-66875000D03*
X141550000Y-72000000D03*
X146500000Y-70125000D03*
X163750000Y-108050000D03*
D15*
X150800000Y-111400000D03*
D14*
X162350000Y-87200000D03*
D15*
X150800000Y-112800000D03*
D14*
X133800000Y-56900000D03*
X147300000Y-86250000D03*
D15*
X148900000Y-108350000D03*
D14*
X155250000Y-81225000D03*
X165300000Y-56900000D03*
D15*
X147700000Y-105250000D03*
D14*
X156625000Y-83950000D03*
D15*
X150400000Y-108550000D03*
X153000000Y-75000000D03*
D14*
X159250000Y-67800000D03*
D15*
X150800000Y-110000000D03*
D14*
X143750000Y-73700000D03*
X147975000Y-98725000D03*
X152050000Y-102600000D03*
X140500000Y-72150000D03*
X164400000Y-55900000D03*
X156500000Y-114500000D03*
X164075000Y-91825000D03*
X156500000Y-113000000D03*
D15*
X144100000Y-101100000D03*
D14*
X141850000Y-92250000D03*
X154650000Y-87900000D03*
X141875000Y-75775000D03*
X157050000Y-98250000D03*
X163750000Y-103700000D03*
D15*
X158500000Y-116150000D03*
X153000000Y-73000000D03*
D14*
X160475000Y-93625000D03*
D15*
X144100000Y-102050500D03*
D14*
%TO.N,+3V3*%
X158350000Y-69375000D03*
X158200000Y-72650000D03*
X145900000Y-72650000D03*
X157500000Y-69375000D03*
X146700000Y-92525000D03*
X139750000Y-66825000D03*
X146550000Y-71800000D03*
X160625000Y-78725000D03*
X156500000Y-82575000D03*
X147650000Y-71550000D03*
X148075000Y-83925000D03*
X149075000Y-83900000D03*
X147650000Y-70700000D03*
X157500000Y-71900000D03*
X157600000Y-92100000D03*
D15*
X140275000Y-75000000D03*
D14*
X152275000Y-66900000D03*
X157800000Y-82575000D03*
X156650000Y-69375000D03*
X158550000Y-71900000D03*
X160375000Y-72000000D03*
X157250000Y-72650000D03*
X157600000Y-90400000D03*
X166350000Y-62000000D03*
X157475000Y-68475000D03*
X148100000Y-69950000D03*
X141900000Y-79500000D03*
X146550000Y-94250000D03*
%TO.N,+5VA*%
X134650000Y-95950000D03*
X162200000Y-90400000D03*
X162200000Y-92100000D03*
X134525000Y-92350000D03*
X162200000Y-93625000D03*
X151200000Y-92500000D03*
X158500000Y-107450000D03*
X151200000Y-94250000D03*
X156800000Y-107475000D03*
X143900000Y-95400000D03*
X162875000Y-92800000D03*
X143900000Y-96150000D03*
X134525000Y-91350000D03*
X163200000Y-110200000D03*
X152600000Y-97300000D03*
X155875000Y-98250000D03*
%TO.N,VCC*%
X146650000Y-107415000D03*
X152050000Y-108550000D03*
D15*
%TO.N,+12VA*%
X158100000Y-117700000D03*
D14*
X142025000Y-90650000D03*
X142475000Y-98725000D03*
X154100000Y-105900000D03*
D15*
X158700000Y-119600000D03*
D14*
X156000000Y-104300000D03*
D15*
X158100000Y-118700000D03*
X159300000Y-118700000D03*
D14*
%TO.N,/2. MCU/FAN1_TACH*%
X143775000Y-61925000D03*
X151750000Y-70050000D03*
%TO.N,/2. MCU/FAN2_TACH*%
X163950000Y-61250000D03*
X158925000Y-75150000D03*
%TO.N,/2. MCU/FAN1_PWM*%
X136375000Y-63850000D03*
X149625000Y-72450000D03*
%TO.N,/2. MCU/FAN2_PWM*%
X152763374Y-70113451D03*
X162050000Y-65325000D03*
%TO.N,VREF_ADC*%
X163200000Y-89450000D03*
X144450000Y-91450000D03*
X152350000Y-91550000D03*
D15*
%TO.N,IN-*%
X143000000Y-135200000D03*
X152400000Y-135200000D03*
X157100000Y-135200000D03*
D14*
X166200000Y-105800000D03*
D15*
X147700000Y-135200000D03*
%TO.N,IN+*%
X147700000Y-127500000D03*
X152400000Y-127500000D03*
X143000000Y-127500000D03*
X156300000Y-127500000D03*
D14*
%TO.N,/ISEN_R1*%
X162200000Y-98900000D03*
X140150000Y-83550000D03*
X131950000Y-95900000D03*
%TO.N,/ISEN_L2*%
X166250000Y-102050000D03*
%TO.N,/ISEN_R2*%
X160600000Y-98900000D03*
X139400000Y-86300000D03*
%TO.N,/3. Input Protection & Voltage Sense/RSEN-*%
X150000000Y-100950000D03*
%TO.N,/3. Input Protection & Voltage Sense/RSEN+*%
X147150000Y-101800000D03*
%TO.N,/2. MCU/VSEN_ADC_MISO*%
X155600000Y-77575000D03*
X151650000Y-84050000D03*
%TO.N,/2. MCU/TX*%
X151400000Y-72450000D03*
%TO.N,/2. MCU/RX*%
X150600000Y-72450000D03*
%TO.N,/2. MCU/LED_GRN*%
X140350000Y-69500000D03*
X147550000Y-74200000D03*
%TO.N,/2. MCU/LED_RED*%
X141900000Y-67400000D03*
X147550000Y-73350000D03*
%TO.N,/~{FAULT}*%
X158925000Y-76775000D03*
%TO.N,/EN_R*%
X147900000Y-76550000D03*
X140925000Y-75875000D03*
%TO.N,/2. MCU/VSEN_ADC_SS*%
X153260199Y-86754079D03*
X152200000Y-86150000D03*
%TO.N,/1. Power Supplies/BUCK_SW*%
X145000000Y-105450000D03*
X146600000Y-103400000D03*
%TO.N,/1. Power Supplies/BUCK_EN*%
X149550000Y-105550000D03*
X152050000Y-105550000D03*
%TO.N,/NTC_L*%
X141850000Y-77300000D03*
%TO.N,/NTC_R*%
X139275000Y-76650000D03*
%TO.N,/2. MCU/VSEN_SRC*%
X156050000Y-90250000D03*
X155500000Y-96150000D03*
%TO.N,/2. MCU/ISEN_L1_ADC*%
X146550000Y-83875000D03*
X163800000Y-99850000D03*
%TO.N,/2. MCU/ISEN_L2_ADC*%
X145125000Y-83875000D03*
X163050000Y-102050000D03*
%TD*%
D16*
%TO.N,+12V*%
X150265000Y-102750000D02*
X150400000Y-102615000D01*
X140200000Y-102750000D02*
X150265000Y-102750000D01*
D17*
%TO.N,+3V3*%
X139775000Y-74500000D02*
X140275000Y-75000000D01*
X134000000Y-74500000D02*
X139775000Y-74500000D01*
D16*
%TO.N,VCC*%
X146650000Y-107415000D02*
X146684511Y-107449511D01*
X150949511Y-107449511D02*
X152050000Y-108550000D01*
X146684511Y-107449511D02*
X150949511Y-107449511D01*
D18*
%TO.N,/2. MCU/FAN1_TACH*%
X143775000Y-61925000D02*
X144640000Y-61060000D01*
X150360000Y-61060000D02*
X151500000Y-62200000D01*
X151500000Y-69800000D02*
X151750000Y-70050000D01*
X151500000Y-62200000D02*
X151500000Y-69800000D01*
X144640000Y-61060000D02*
X150360000Y-61060000D01*
%TO.N,/2. MCU/FAN2_TACH*%
X163375000Y-73900000D02*
X163375000Y-61825000D01*
X162125000Y-75150000D02*
X163375000Y-73900000D01*
X163375000Y-61825000D02*
X163950000Y-61250000D01*
X158925000Y-75150000D02*
X162125000Y-75150000D01*
%TO.N,/2. MCU/FAN1_PWM*%
X136375000Y-64675000D02*
X136375000Y-63850000D01*
X149625000Y-69500000D02*
X148900000Y-68775000D01*
X144975000Y-68775000D02*
X141600000Y-65400000D01*
X137100000Y-65400000D02*
X136375000Y-64675000D01*
X149625000Y-72450000D02*
X149625000Y-69500000D01*
X148900000Y-68775000D02*
X144975000Y-68775000D01*
X141600000Y-65400000D02*
X137100000Y-65400000D01*
%TO.N,/2. MCU/FAN2_PWM*%
X152763374Y-70113451D02*
X152763374Y-67836626D01*
X152763374Y-67836626D02*
X155275000Y-65325000D01*
X155275000Y-65325000D02*
X162050000Y-65325000D01*
D16*
%TO.N,VREF_ADC*%
X163200000Y-89450000D02*
X154450000Y-89450000D01*
X154450000Y-89450000D02*
X152350000Y-91550000D01*
X152350000Y-91550000D02*
X144550000Y-91550000D01*
X144550000Y-91550000D02*
X144450000Y-91450000D01*
%TO.N,IN-*%
X157100000Y-130100000D02*
X157100000Y-123600000D01*
X160700000Y-120000000D02*
X165500000Y-120000000D01*
X166650000Y-106250000D02*
X166200000Y-105800000D01*
X157100000Y-123600000D02*
X160700000Y-120000000D01*
X163000000Y-136000000D02*
X157100000Y-130100000D01*
X165500000Y-120000000D02*
X166650000Y-118850000D01*
X166650000Y-118850000D02*
X166650000Y-106250000D01*
%TO.N,/ISET*%
X165850000Y-93500000D02*
X166970000Y-94620000D01*
X163625000Y-83055000D02*
X163655000Y-83055000D01*
X166970000Y-94620000D02*
X170680000Y-94620000D01*
X161095000Y-83055000D02*
X159100000Y-85050000D01*
X163625000Y-83055000D02*
X161095000Y-83055000D01*
X148000000Y-81800000D02*
X137600000Y-81800000D01*
X165850000Y-85250000D02*
X165850000Y-93500000D01*
X163655000Y-83055000D02*
X165850000Y-85250000D01*
X137600000Y-81800000D02*
X136375000Y-83025000D01*
X159100000Y-85050000D02*
X151250000Y-85050000D01*
X151250000Y-85050000D02*
X148000000Y-81800000D01*
%TO.N,/ISEN_R1*%
X136400000Y-85300000D02*
X138400000Y-85300000D01*
X131950000Y-89750000D02*
X136400000Y-85300000D01*
X131950000Y-95900000D02*
X131950000Y-89750000D01*
X129770000Y-100150000D02*
X129320000Y-99700000D01*
X160950000Y-100150000D02*
X162200000Y-98900000D01*
X138400000Y-85300000D02*
X140150000Y-83550000D01*
X160950000Y-100150000D02*
X129770000Y-100150000D01*
%TO.N,/ISEN_L2*%
X167490000Y-97160000D02*
X166250000Y-98400000D01*
X166250000Y-98400000D02*
X166250000Y-102050000D01*
X170680000Y-97160000D02*
X167490000Y-97160000D01*
%TO.N,/ISEN_R2*%
X129320000Y-97160000D02*
X132890000Y-97160000D01*
X132950000Y-97200000D02*
X135074511Y-99324511D01*
X132890000Y-97160000D02*
X132950000Y-97100000D01*
X160175489Y-99324511D02*
X160600000Y-98900000D01*
X132950000Y-97100000D02*
X132950000Y-97200000D01*
X136950000Y-86300000D02*
X132950000Y-90300000D01*
X132950000Y-90300000D02*
X132950000Y-97100000D01*
X135074511Y-99324511D02*
X160175489Y-99324511D01*
X139400000Y-86300000D02*
X136950000Y-86300000D01*
%TO.N,/3. Input Protection & Voltage Sense/RSEN-*%
X164775000Y-107925000D02*
X164775000Y-115000000D01*
X150000000Y-100950000D02*
X157800000Y-100950000D01*
X157800000Y-100950000D02*
X164775000Y-107925000D01*
%TO.N,/3. Input Protection & Voltage Sense/RSEN+*%
X162300000Y-116550000D02*
X163250000Y-117500000D01*
X157400000Y-101800000D02*
X162300000Y-106700000D01*
X147150000Y-101800000D02*
X157400000Y-101800000D01*
X162300000Y-106700000D02*
X162300000Y-116550000D01*
X163250000Y-117500000D02*
X164775000Y-117500000D01*
D18*
%TO.N,/2. MCU/VSEN_ADC_MISO*%
X151650000Y-81500000D02*
X155575000Y-77575000D01*
X151650000Y-84050000D02*
X151650000Y-81500000D01*
X155575000Y-77575000D02*
X155600000Y-77575000D01*
%TO.N,/2. MCU/TX*%
X143200000Y-75700000D02*
X140900000Y-73400000D01*
X151400000Y-73525000D02*
X149225000Y-75700000D01*
X135440000Y-73400000D02*
X134000000Y-71960000D01*
X151400000Y-72450000D02*
X151400000Y-73525000D01*
X149225000Y-75700000D02*
X143200000Y-75700000D01*
X140900000Y-73400000D02*
X135440000Y-73400000D01*
%TO.N,/2. MCU/RX*%
X135700000Y-69950000D02*
X135170000Y-69420000D01*
X141100000Y-72900000D02*
X136150000Y-72900000D01*
X149000000Y-75200000D02*
X143400000Y-75200000D01*
X150600000Y-72450000D02*
X150600000Y-73600000D01*
X135170000Y-69420000D02*
X134000000Y-69420000D01*
X143400000Y-75200000D02*
X141100000Y-72900000D01*
X150600000Y-73600000D02*
X149000000Y-75200000D01*
X136150000Y-72900000D02*
X135700000Y-72450000D01*
X135700000Y-72450000D02*
X135700000Y-69950000D01*
%TO.N,/2. MCU/LED_GRN*%
X145600000Y-74200000D02*
X144000000Y-72600000D01*
X144000000Y-72600000D02*
X144000000Y-70350000D01*
X147550000Y-74200000D02*
X145600000Y-74200000D01*
X144000000Y-70350000D02*
X143150000Y-69500000D01*
X143150000Y-69500000D02*
X140350000Y-69500000D01*
%TO.N,/2. MCU/LED_RED*%
X142850000Y-67400000D02*
X141900000Y-67400000D01*
X144600000Y-72400000D02*
X144600000Y-69150000D01*
X145550000Y-73350000D02*
X144600000Y-72400000D01*
X144600000Y-69150000D02*
X142850000Y-67400000D01*
X147550000Y-73350000D02*
X145550000Y-73350000D01*
%TO.N,/~{FAULT}*%
X137280000Y-78850000D02*
X151650000Y-78850000D01*
X153725000Y-76775000D02*
X158925000Y-76775000D01*
X136375000Y-77945000D02*
X137280000Y-78850000D01*
X151650000Y-78850000D02*
X153725000Y-76775000D01*
%TO.N,/EN_R*%
X141600000Y-76550000D02*
X147900000Y-76550000D01*
X140925000Y-75875000D02*
X141600000Y-76550000D01*
%TO.N,/2. MCU/VSEN_ADC_SS*%
X152200000Y-86150000D02*
X152656120Y-86150000D01*
X152656120Y-86150000D02*
X153260199Y-86754079D01*
D16*
%TO.N,/1. Power Supplies/BUCK_SW*%
X146250000Y-105450000D02*
X145000000Y-105450000D01*
X146600000Y-103400000D02*
X146600000Y-105100000D01*
X146600000Y-105100000D02*
X146250000Y-105450000D01*
%TO.N,/1. Power Supplies/BUCK_EN*%
X149550000Y-105550000D02*
X152050000Y-105550000D01*
D18*
%TO.N,/NTC_L*%
X166825000Y-78050000D02*
X164700000Y-75925000D01*
X151850000Y-77300000D02*
X141850000Y-77300000D01*
X153225000Y-75925000D02*
X151850000Y-77300000D01*
X164700000Y-75925000D02*
X153225000Y-75925000D01*
X166825000Y-85900000D02*
X166825000Y-78050000D01*
X170680000Y-87000000D02*
X167925000Y-87000000D01*
X167925000Y-87000000D02*
X166825000Y-85900000D01*
%TO.N,/NTC_R*%
X133775000Y-77425000D02*
X133775000Y-85825000D01*
X132600000Y-87000000D02*
X129320000Y-87000000D01*
X133775000Y-85825000D02*
X132600000Y-87000000D01*
X134550000Y-76650000D02*
X133775000Y-77425000D01*
X139275000Y-76650000D02*
X134550000Y-76650000D01*
%TO.N,/2. MCU/VSEN_SRC*%
X156050000Y-95600000D02*
X156050000Y-90250000D01*
X155500000Y-96150000D02*
X156050000Y-95600000D01*
D16*
%TO.N,/2. MCU/ISEN_L1_ADC*%
X163800000Y-99850000D02*
X163800000Y-97900000D01*
X154700000Y-96950000D02*
X153650000Y-95900000D01*
X153650000Y-95900000D02*
X146950000Y-95900000D01*
X146550000Y-87200000D02*
X146550000Y-83875000D01*
X146950000Y-95900000D02*
X143700000Y-92650000D01*
X163800000Y-97900000D02*
X162850000Y-96950000D01*
X162850000Y-96950000D02*
X154700000Y-96950000D01*
X143700000Y-92650000D02*
X143700000Y-90050000D01*
X143700000Y-90050000D02*
X146550000Y-87200000D01*
%TO.N,/2. MCU/ISEN_L2_ADC*%
X154850000Y-97650000D02*
X154374511Y-98125489D01*
X163050000Y-102050000D02*
X163050000Y-98200000D01*
X162500000Y-97650000D02*
X154850000Y-97650000D01*
X163050000Y-98200000D02*
X162500000Y-97650000D01*
X145100000Y-87550000D02*
X145100000Y-83900000D01*
X148075489Y-98125489D02*
X142900000Y-92950000D01*
X154374511Y-98125489D02*
X148075489Y-98125489D01*
X145100000Y-83900000D02*
X145125000Y-83875000D01*
X142900000Y-89750000D02*
X145100000Y-87550000D01*
X142900000Y-92950000D02*
X142900000Y-89750000D01*
%TD*%
%TA.AperFunction,Conductor*%
%TO.N,+5VA*%
G36*
X134706818Y-91028465D02*
G01*
X134737677Y-91052144D01*
X134825395Y-91139862D01*
X134863959Y-91206657D01*
X134869036Y-91245221D01*
X134869036Y-92183503D01*
X134876644Y-92192281D01*
X134876644Y-92192282D01*
X135482634Y-92891501D01*
X135516341Y-92960874D01*
X135519036Y-92989086D01*
X135519036Y-94450000D01*
X136100000Y-95050000D01*
X138164589Y-95050000D01*
X138167319Y-95050025D01*
X138262499Y-95051770D01*
X138267581Y-95050385D01*
X138273777Y-95050000D01*
X143988282Y-95050000D01*
X144062782Y-95069962D01*
X144093641Y-95093641D01*
X144206359Y-95206359D01*
X144244923Y-95273154D01*
X144250000Y-95311718D01*
X144250000Y-96238282D01*
X144230038Y-96312782D01*
X144206359Y-96343641D01*
X144093641Y-96456359D01*
X144026846Y-96494923D01*
X143988282Y-96500000D01*
X134535861Y-96500000D01*
X134461361Y-96480038D01*
X134431544Y-96457391D01*
X134213719Y-96243812D01*
X134174500Y-96177400D01*
X134169036Y-96137421D01*
X134169036Y-91245221D01*
X134188998Y-91170721D01*
X134212677Y-91139862D01*
X134300395Y-91052144D01*
X134367190Y-91013580D01*
X134405754Y-91008503D01*
X134632318Y-91008503D01*
X134706818Y-91028465D01*
G37*
%TD.AperFunction*%
%TD*%
M02*
