M48
; DRILL file {KiCad (6.0.1-0)} date Wednesday, 14 February 2024 at 13:59:49
; FORMAT={-:-/ absolute / metric / decimal}
; #@! TF.CreationDate,2024-02-14T13:59:49+01:00
; #@! TF.GenerationSoftware,Kicad,Pcbnew,(6.0.1-0)
; #@! TF.FileFunction,Plated,1,4,PTH
FMAT,2
METRIC
; #@! TA.AperFunction,Plated,PTH,ViaDrill
T1C0.300
; #@! TA.AperFunction,Plated,PTH,ViaDrill
T2C0.400
; #@! TA.AperFunction,Plated,PTH,ComponentDrill
T3C1.000
; #@! TA.AperFunction,Plated,PTH,ComponentDrill
T4C1.200
; #@! TA.AperFunction,Plated,PTH,ComponentDrill
T5C4.300
%
G90
G05
T1
X131.95Y-95.9
X133.8Y-56.9
X133.8Y-58.1
X134.525Y-91.35
X134.525Y-92.35
X134.65Y-95.95
X134.7Y-56.9
X134.7Y-58.1
X135.5Y-92.1
X135.6Y-55.9
X135.6Y-56.8
X135.6Y-58.2
X135.6Y-59.1
X136.25Y-92.5
X136.375Y-60.55
X136.375Y-63.85
X137.05Y-98.0
X138.2Y-93.2
X138.2Y-94.55
X139.275Y-76.65
X139.275Y-79.925
X139.4Y-86.3
X139.75Y-66.825
X140.15Y-83.55
X140.2Y-102.75
X140.35Y-69.5
X140.5Y-72.15
X140.825Y-79.925
X140.925Y-75.875
X141.55Y-72.0
X141.7Y-71.05
X141.85Y-77.3
X141.85Y-92.25
X141.875Y-75.775
X141.9Y-67.4
X141.9Y-79.5
X142.025Y-90.65
X142.05Y-78.15
X142.4Y-82.775
X142.4Y-86.225
X142.475Y-98.725
X143.75Y-73.7
X143.775Y-61.925
X143.9Y-95.4
X143.9Y-96.15
X144.45Y-91.45
X145.0Y-105.45
X145.125Y-83.875
X145.8Y-86.25
X145.9Y-72.65
X146.5Y-70.125
X146.55Y-71.8
X146.55Y-83.875
X146.55Y-94.25
X146.6Y-103.4
X146.65Y-107.415
X146.7Y-92.525
X147.15Y-101.8
X147.3Y-86.25
X147.55Y-73.35
X147.55Y-74.2
X147.65Y-70.7
X147.65Y-71.55
X147.7Y-78.25
X147.85Y-96.75
X147.9Y-76.55
X147.975Y-98.725
X148.0Y-86.8
X148.075Y-83.925
X148.1Y-69.95
X148.1Y-92.75
X148.75Y-72.475
X148.75Y-81.225
X148.875Y-93.45
X148.875Y-95.05
X148.9Y-69.95
X149.075Y-83.9
X149.55Y-105.55
X149.625Y-72.45
X149.65Y-92.75
X150.0Y-100.95
X150.35Y-96.75
X150.4Y-102.615
X150.6Y-72.45
X150.775Y-66.875
X151.2Y-92.5
X151.2Y-94.25
X151.4Y-72.45
X151.65Y-84.05
X151.75Y-70.05
X152.05Y-102.6
X152.05Y-105.55
X152.05Y-108.55
X152.2Y-86.15
X152.275Y-66.9
X152.35Y-91.55
X152.5Y-111.5
X152.5Y-113.0
X152.5Y-114.5
X152.6Y-97.3
X152.763Y-70.113
X153.075Y-94.15
X153.15Y-87.9
X153.26Y-86.754
X154.0Y-62.4
X154.0Y-63.1
X154.1Y-105.9
X154.5Y-111.5
X154.5Y-113.0
X154.5Y-114.5
X154.65Y-87.9
X154.7Y-62.4
X154.7Y-63.1
X154.925Y-104.275
X155.25Y-81.225
X155.5Y-83.95
X155.5Y-96.15
X155.6Y-77.575
X155.875Y-98.25
X156.0Y-104.3
X156.05Y-90.25
X156.5Y-82.575
X156.5Y-111.5
X156.5Y-113.0
X156.5Y-114.5
X156.625Y-83.95
X156.65Y-69.375
X156.8Y-106.225
X156.8Y-107.475
X157.05Y-98.25
X157.25Y-72.65
X157.45Y-67.625
X157.475Y-68.475
X157.5Y-69.375
X157.5Y-71.9
X157.6Y-90.4
X157.6Y-92.1
X157.8Y-82.575
X158.2Y-72.65
X158.35Y-69.375
X158.5Y-107.45
X158.55Y-71.9
X158.9Y-73.5
X158.925Y-75.15
X158.925Y-76.775
X159.25Y-67.8
X159.3Y-90.45
X159.7Y-66.85
X159.725Y-91.35
X159.725Y-92.85
X160.35Y-69.375
X160.375Y-72.0
X160.375Y-73.35
X160.475Y-93.625
X160.5Y-90.45
X160.6Y-98.9
X160.625Y-78.725
X160.7Y-101.3
X161.05Y-87.2
X161.05Y-111.0
X161.225Y-69.375
X161.25Y-67.55
X161.75Y-86.45
X161.825Y-103.675
X162.05Y-65.325
X162.075Y-69.375
X162.2Y-90.4
X162.2Y-92.1
X162.2Y-93.625
X162.2Y-98.9
X162.35Y-87.2
X162.875Y-92.8
X163.05Y-86.45
X163.05Y-102.05
X163.2Y-89.45
X163.2Y-110.2
X163.75Y-103.7
X163.75Y-108.05
X163.8Y-99.85
X163.95Y-61.25
X164.075Y-91.825
X164.375Y-64.625
X164.4Y-55.9
X164.4Y-56.8
X164.4Y-58.2
X164.4Y-59.1
X164.5Y-94.35
X164.65Y-86.95
X165.3Y-56.9
X165.3Y-58.1
X166.2Y-56.9
X166.2Y-58.1
X166.2Y-105.8
X166.25Y-102.05
X166.35Y-62.0
T2
X136.0Y-101.5
X136.0Y-102.75
X136.0Y-104.0
X137.25Y-101.5
X137.25Y-102.75
X137.25Y-104.0
X138.5Y-101.5
X138.5Y-102.75
X138.5Y-104.0
X140.275Y-75.0
X143.0Y-127.5
X143.0Y-135.2
X143.3Y-104.125
X144.1Y-101.1
X144.1Y-102.05
X145.0Y-101.6
X145.5Y-104.0
X147.7Y-105.25
X147.7Y-106.75
X147.7Y-127.5
X147.7Y-135.2
X148.9Y-108.35
X149.0Y-80.0
X149.55Y-115.2
X150.0Y-78.0
X150.4Y-108.55
X150.8Y-110.0
X150.8Y-111.4
X150.8Y-112.8
X150.8Y-114.2
X151.0Y-76.0
X151.5Y-80.0
X152.4Y-127.5
X152.4Y-135.2
X153.0Y-73.0
X153.0Y-75.0
X154.0Y-78.0
X155.0Y-80.0
X155.5Y-73.0
X156.3Y-127.5
X157.1Y-135.2
X158.1Y-117.7
X158.1Y-118.7
X158.5Y-116.15
X158.7Y-119.6
X159.3Y-118.7
T3
X129.32Y-87.0
X129.32Y-89.54
X129.32Y-92.08
X129.32Y-94.62
X129.32Y-97.16
X129.32Y-99.7
X129.32Y-102.24
X129.32Y-104.78
X134.0Y-66.88
X134.0Y-69.42
X134.0Y-71.96
X134.0Y-74.5
X136.375Y-77.945
X136.375Y-80.485
X136.375Y-83.025
X140.0Y-56.19
X140.0Y-58.73
X140.0Y-61.27
X140.0Y-63.81
X143.65Y-59.0
X146.19Y-59.0
X148.73Y-59.0
X151.27Y-59.0
X153.81Y-59.0
X156.35Y-59.0
X160.0Y-56.19
X160.0Y-58.73
X160.0Y-61.27
X160.0Y-63.81
X163.625Y-77.975
X163.625Y-80.515
X163.625Y-83.055
X164.775Y-115.0
X164.775Y-117.5
X166.0Y-66.88
X166.0Y-69.42
X166.0Y-71.96
X166.0Y-74.5
X170.68Y-87.0
X170.68Y-89.54
X170.68Y-92.08
X170.68Y-94.62
X170.68Y-97.16
X170.68Y-99.7
X170.68Y-102.24
X170.68Y-104.78
T4
X145.8Y-116.86
X145.8Y-119.4
T5
X137.0Y-126.0
X137.0Y-136.0
X163.0Y-126.0
X163.0Y-136.0
T0
M30
