%TF.GenerationSoftware,KiCad,Pcbnew,(6.0.1-0)*%
%TF.CreationDate,2024-02-14T14:00:17+01:00*%
%TF.ProjectId,dcload-control-board,64636c6f-6164-42d6-936f-6e74726f6c2d,rev?*%
%TF.SameCoordinates,Original*%
%TF.FileFunction,Copper,L1,Top*%
%TF.FilePolarity,Positive*%
%FSLAX46Y46*%
G04 Gerber Fmt 4.6, Leading zero omitted, Abs format (unit mm)*
G04 Created by KiCad (PCBNEW (6.0.1-0)) date 2024-02-14 14:00:17*
%MOMM*%
%LPD*%
G01*
G04 APERTURE LIST*
G04 Aperture macros list*
%AMRoundRect*
0 Rectangle with rounded corners*
0 $1 Rounding radius*
0 $2 $3 $4 $5 $6 $7 $8 $9 X,Y pos of 4 corners*
0 Add a 4 corners polygon primitive as box body*
4,1,4,$2,$3,$4,$5,$6,$7,$8,$9,$2,$3,0*
0 Add four circle primitives for the rounded corners*
1,1,$1+$1,$2,$3*
1,1,$1+$1,$4,$5*
1,1,$1+$1,$6,$7*
1,1,$1+$1,$8,$9*
0 Add four rect primitives between the rounded corners*
20,1,$1+$1,$2,$3,$4,$5,0*
20,1,$1+$1,$4,$5,$6,$7,0*
20,1,$1+$1,$6,$7,$8,$9,0*
20,1,$1+$1,$8,$9,$2,$3,0*%
G04 Aperture macros list end*
%TA.AperFunction,SMDPad,CuDef*%
%ADD10RoundRect,0.250000X0.650000X-0.325000X0.650000X0.325000X-0.650000X0.325000X-0.650000X-0.325000X0*%
%TD*%
%TA.AperFunction,SMDPad,CuDef*%
%ADD11RoundRect,0.200000X0.275000X-0.200000X0.275000X0.200000X-0.275000X0.200000X-0.275000X-0.200000X0*%
%TD*%
%TA.AperFunction,SMDPad,CuDef*%
%ADD12RoundRect,0.200000X-0.200000X-0.275000X0.200000X-0.275000X0.200000X0.275000X-0.200000X0.275000X0*%
%TD*%
%TA.AperFunction,SMDPad,CuDef*%
%ADD13RoundRect,0.250000X-0.650000X0.325000X-0.650000X-0.325000X0.650000X-0.325000X0.650000X0.325000X0*%
%TD*%
%TA.AperFunction,SMDPad,CuDef*%
%ADD14RoundRect,0.225000X-0.250000X0.225000X-0.250000X-0.225000X0.250000X-0.225000X0.250000X0.225000X0*%
%TD*%
%TA.AperFunction,SMDPad,CuDef*%
%ADD15RoundRect,0.218750X0.256250X-0.218750X0.256250X0.218750X-0.256250X0.218750X-0.256250X-0.218750X0*%
%TD*%
%TA.AperFunction,SMDPad,CuDef*%
%ADD16RoundRect,0.200000X-0.275000X0.200000X-0.275000X-0.200000X0.275000X-0.200000X0.275000X0.200000X0*%
%TD*%
%TA.AperFunction,ComponentPad*%
%ADD17C,1.700000*%
%TD*%
%TA.AperFunction,SMDPad,CuDef*%
%ADD18RoundRect,0.225000X0.250000X-0.225000X0.250000X0.225000X-0.250000X0.225000X-0.250000X-0.225000X0*%
%TD*%
%TA.AperFunction,SMDPad,CuDef*%
%ADD19R,1.200000X2.200000*%
%TD*%
%TA.AperFunction,SMDPad,CuDef*%
%ADD20R,5.800000X6.400000*%
%TD*%
%TA.AperFunction,SMDPad,CuDef*%
%ADD21RoundRect,0.575000X-0.575000X0.675000X-0.575000X-0.675000X0.575000X-0.675000X0.575000X0.675000X0*%
%TD*%
%TA.AperFunction,ComponentPad*%
%ADD22C,7.500000*%
%TD*%
%TA.AperFunction,ComponentPad*%
%ADD23O,1.700000X1.700000*%
%TD*%
%TA.AperFunction,SMDPad,CuDef*%
%ADD24RoundRect,0.075000X-0.700000X-0.075000X0.700000X-0.075000X0.700000X0.075000X-0.700000X0.075000X0*%
%TD*%
%TA.AperFunction,SMDPad,CuDef*%
%ADD25RoundRect,0.075000X-0.075000X-0.700000X0.075000X-0.700000X0.075000X0.700000X-0.075000X0.700000X0*%
%TD*%
%TA.AperFunction,SMDPad,CuDef*%
%ADD26RoundRect,0.075000X0.650000X0.075000X-0.650000X0.075000X-0.650000X-0.075000X0.650000X-0.075000X0*%
%TD*%
%TA.AperFunction,SMDPad,CuDef*%
%ADD27RoundRect,0.225000X0.225000X0.250000X-0.225000X0.250000X-0.225000X-0.250000X0.225000X-0.250000X0*%
%TD*%
%TA.AperFunction,SMDPad,CuDef*%
%ADD28R,1.400000X1.200000*%
%TD*%
%TA.AperFunction,SMDPad,CuDef*%
%ADD29RoundRect,0.150000X0.150000X0.200000X-0.150000X0.200000X-0.150000X-0.200000X0.150000X-0.200000X0*%
%TD*%
%TA.AperFunction,ComponentPad*%
%ADD30C,1.800000*%
%TD*%
%TA.AperFunction,SMDPad,CuDef*%
%ADD31RoundRect,0.150000X-0.350000X-0.150000X0.350000X-0.150000X0.350000X0.150000X-0.350000X0.150000X0*%
%TD*%
%TA.AperFunction,SMDPad,CuDef*%
%ADD32R,1.450000X0.450000*%
%TD*%
%TA.AperFunction,SMDPad,CuDef*%
%ADD33R,0.450000X1.450000*%
%TD*%
%TA.AperFunction,SMDPad,CuDef*%
%ADD34RoundRect,0.200000X0.200000X0.275000X-0.200000X0.275000X-0.200000X-0.275000X0.200000X-0.275000X0*%
%TD*%
%TA.AperFunction,SMDPad,CuDef*%
%ADD35RoundRect,0.150000X-0.150000X0.350000X-0.150000X-0.350000X0.150000X-0.350000X0.150000X0.350000X0*%
%TD*%
%TA.AperFunction,SMDPad,CuDef*%
%ADD36RoundRect,0.150000X0.350000X0.150000X-0.350000X0.150000X-0.350000X-0.150000X0.350000X-0.150000X0*%
%TD*%
%TA.AperFunction,SMDPad,CuDef*%
%ADD37RoundRect,0.225000X-0.225000X-0.250000X0.225000X-0.250000X0.225000X0.250000X-0.225000X0.250000X0*%
%TD*%
%TA.AperFunction,SMDPad,CuDef*%
%ADD38RoundRect,0.250000X-0.625000X0.312500X-0.625000X-0.312500X0.625000X-0.312500X0.625000X0.312500X0*%
%TD*%
%TA.AperFunction,SMDPad,CuDef*%
%ADD39RoundRect,0.150000X0.150000X-0.350000X0.150000X0.350000X-0.150000X0.350000X-0.150000X-0.350000X0*%
%TD*%
%TA.AperFunction,SMDPad,CuDef*%
%ADD40RoundRect,0.250000X-0.325000X-0.650000X0.325000X-0.650000X0.325000X0.650000X-0.325000X0.650000X0*%
%TD*%
%TA.AperFunction,SMDPad,CuDef*%
%ADD41R,2.700000X3.600000*%
%TD*%
%TA.AperFunction,SMDPad,CuDef*%
%ADD42RoundRect,0.300000X0.300000X-0.300000X0.300000X0.300000X-0.300000X0.300000X-0.300000X-0.300000X0*%
%TD*%
%TA.AperFunction,ViaPad*%
%ADD43C,0.600000*%
%TD*%
%TA.AperFunction,ViaPad*%
%ADD44C,0.800000*%
%TD*%
%TA.AperFunction,Conductor*%
%ADD45C,0.300000*%
%TD*%
%TA.AperFunction,Conductor*%
%ADD46C,0.600000*%
%TD*%
%TA.AperFunction,Conductor*%
%ADD47C,0.450000*%
%TD*%
%TA.AperFunction,Conductor*%
%ADD48C,0.500000*%
%TD*%
%TA.AperFunction,Conductor*%
%ADD49C,1.000000*%
%TD*%
%TA.AperFunction,Conductor*%
%ADD50C,0.200000*%
%TD*%
%TA.AperFunction,Conductor*%
%ADD51C,0.350000*%
%TD*%
%TA.AperFunction,Conductor*%
%ADD52C,0.900000*%
%TD*%
G04 APERTURE END LIST*
D10*
%TO.P,C501,1*%
%TO.N,+12V*%
X165850000Y-58975000D03*
%TO.P,C501,2*%
%TO.N,GND*%
X165850000Y-56025000D03*
%TD*%
D11*
%TO.P,R101,1*%
%TO.N,/1. Power Supplies/BUCK_EN*%
X152050000Y-104865000D03*
%TO.P,R101,2*%
%TO.N,GND*%
X152050000Y-103215000D03*
%TD*%
D12*
%TO.P,R502,1*%
%TO.N,GND*%
X136375000Y-61325000D03*
%TO.P,R502,2*%
%TO.N,/5. Fan Control/FAN1_PWM_CON*%
X138025000Y-61325000D03*
%TD*%
D10*
%TO.P,C500,1*%
%TO.N,+12V*%
X134150000Y-58975000D03*
%TO.P,C500,2*%
%TO.N,GND*%
X134150000Y-56025000D03*
%TD*%
D13*
%TO.P,C105,1*%
%TO.N,GND*%
X149550000Y-116575000D03*
%TO.P,C105,2*%
%TO.N,VCC*%
X149550000Y-119525000D03*
%TD*%
D14*
%TO.P,C200,1*%
%TO.N,+3V3*%
X161150000Y-71800000D03*
%TO.P,C200,2*%
%TO.N,GND*%
X161150000Y-73350000D03*
%TD*%
D15*
%TO.P,D201,1,K*%
%TO.N,Net-(D201-Pad1)*%
X138702500Y-68402500D03*
%TO.P,D201,2,A*%
%TO.N,+3V3*%
X138702500Y-66827500D03*
%TD*%
D12*
%TO.P,R303,1*%
%TO.N,/3. Input Protection & Voltage Sense/RSEN+*%
X147125000Y-100500000D03*
%TO.P,R303,2*%
%TO.N,/3. Input Protection & Voltage Sense/RSEN+D*%
X148775000Y-100500000D03*
%TD*%
D16*
%TO.P,R212,1*%
%TO.N,/2. MCU/ISEN_R2_ADC*%
X141650000Y-84625000D03*
%TO.P,R212,2*%
%TO.N,GND*%
X141650000Y-86275000D03*
%TD*%
D14*
%TO.P,C215,1*%
%TO.N,/2. MCU/ISEN_R1_ADC*%
X143150000Y-81175000D03*
%TO.P,C215,2*%
%TO.N,GND*%
X143150000Y-82725000D03*
%TD*%
D17*
%TO.P,J300,1,Pin_1*%
%TO.N,/3. Input Protection & Voltage Sense/RSEN-*%
X164775000Y-115000000D03*
%TO.P,J300,2,Pin_2*%
%TO.N,/3. Input Protection & Voltage Sense/RSEN+*%
X164775000Y-117500000D03*
%TD*%
D18*
%TO.P,C24,1*%
%TO.N,GND*%
X163900000Y-91150000D03*
%TO.P,C24,2*%
%TO.N,VREF_ADC*%
X163900000Y-89600000D03*
%TD*%
D19*
%TO.P,U101,1,VIN*%
%TO.N,VCC*%
X152270000Y-119000000D03*
D20*
%TO.P,U101,2,GND*%
%TO.N,GND*%
X154550000Y-112700000D03*
D19*
%TO.P,U101,3,VOUT*%
%TO.N,+12VA*%
X156830000Y-119000000D03*
%TD*%
D21*
%TO.P,D301,1,G*%
%TO.N,IN+*%
X147650000Y-129200000D03*
%TO.P,D301,2,T/R*%
%TO.N,IN-*%
X147650000Y-133500000D03*
%TD*%
D22*
%TO.P,H301,1,1*%
%TO.N,IN-*%
X163000000Y-136000000D03*
%TD*%
D17*
%TO.P,J202,1,Pin_1*%
%TO.N,+3V3*%
X134000000Y-74500000D03*
D23*
%TO.P,J202,2,Pin_2*%
%TO.N,/2. MCU/TX*%
X134000000Y-71960000D03*
%TO.P,J202,3,Pin_3*%
%TO.N,/2. MCU/RX*%
X134000000Y-69420000D03*
%TO.P,J202,4,Pin_4*%
%TO.N,GND*%
X134000000Y-66880000D03*
%TD*%
D11*
%TO.P,R209,1*%
%TO.N,/ISEN_R1*%
X140150000Y-82775000D03*
%TO.P,R209,2*%
%TO.N,/2. MCU/ISEN_R1_ADC*%
X140150000Y-81125000D03*
%TD*%
D12*
%TO.P,L500,1,1*%
%TO.N,+12V*%
X136375000Y-58750000D03*
%TO.P,L500,2,2*%
%TO.N,/5. Fan Control/FAN1_VCC*%
X138025000Y-58750000D03*
%TD*%
D24*
%TO.P,U200,1,VBAT*%
%TO.N,+3V3*%
X146325000Y-73150000D03*
%TO.P,U200,2,PC13*%
%TO.N,/2. MCU/LED_RED*%
X146325000Y-73650000D03*
%TO.P,U200,3,PC14*%
%TO.N,/2. MCU/LED_GRN*%
X146325000Y-74150000D03*
%TO.P,U200,4,PC15*%
%TO.N,unconnected-(U200-Pad4)*%
X146325000Y-74650000D03*
%TO.P,U200,5,PH0*%
%TO.N,/2. MCU/HSE_IN*%
X146325000Y-75150000D03*
%TO.P,U200,6,PH1*%
%TO.N,/2. MCU/HSE_OUT*%
X146325000Y-75650000D03*
%TO.P,U200,7,NRST*%
%TO.N,/2. MCU/~{RST}*%
X146325000Y-76150000D03*
%TO.P,U200,8,PC0*%
%TO.N,/NTC_R*%
X146325000Y-76650000D03*
%TO.P,U200,9,PC1*%
%TO.N,/NTC_L*%
X146325000Y-77150000D03*
%TO.P,U200,10,PC2*%
%TO.N,/EN_R*%
X146325000Y-77650000D03*
%TO.P,U200,11,PC3*%
%TO.N,unconnected-(U200-Pad11)*%
X146325000Y-78150000D03*
%TO.P,U200,12,VSSA*%
%TO.N,GND*%
X146325000Y-78650000D03*
%TO.P,U200,13,VDDA*%
%TO.N,/2. MCU/VDDA*%
X146325000Y-79150000D03*
%TO.P,U200,14,PA0*%
%TO.N,/2. MCU/ISEN_L2_ADC*%
X146325000Y-79650000D03*
%TO.P,U200,15,PA1*%
%TO.N,/2. MCU/ISEN_R1_ADC*%
X146325000Y-80150000D03*
%TO.P,U200,16,PA2*%
%TO.N,/2. MCU/ISEN_R2_ADC*%
X146325000Y-80650000D03*
D25*
%TO.P,U200,17,PA3*%
%TO.N,/2. MCU/ISEN_L1_ADC*%
X148250000Y-82575000D03*
%TO.P,U200,18,VSS*%
%TO.N,GND*%
X148750000Y-82575000D03*
%TO.P,U200,19,VDD*%
%TO.N,+3V3*%
X149250000Y-82575000D03*
%TO.P,U200,20,PA4*%
%TO.N,/2. MCU/ISET_DAC_SS*%
X149750000Y-82575000D03*
%TO.P,U200,21,PA5*%
%TO.N,/2. MCU/ISET_DAC_CLK*%
X150250000Y-82575000D03*
%TO.P,U200,22,PA6*%
%TO.N,unconnected-(U200-Pad22)*%
X150750000Y-82575000D03*
%TO.P,U200,23,PA7*%
%TO.N,/2. MCU/ISET_DAC_MOSI*%
X151250000Y-82575000D03*
%TO.P,U200,24,PC4*%
%TO.N,unconnected-(U200-Pad24)*%
X151750000Y-82575000D03*
%TO.P,U200,25,PC5*%
%TO.N,/2. MCU/VSEN_ADC_TRIG*%
X152250000Y-82575000D03*
%TO.P,U200,26,PB0*%
%TO.N,/2. MCU/VSEN_ADC_CLK*%
X152750000Y-82575000D03*
%TO.P,U200,27,PB1*%
%TO.N,/2. MCU/VSEN_ADC_SS*%
X153250000Y-82575000D03*
%TO.P,U200,28,PB2*%
%TO.N,/2. MCU/VSEN_SRC*%
X153750000Y-82575000D03*
%TO.P,U200,29,PB10*%
%TO.N,unconnected-(U200-Pad29)*%
X154250000Y-82575000D03*
%TO.P,U200,30,VCAP1*%
%TO.N,/2. MCU/VCAP*%
X154750000Y-82575000D03*
%TO.P,U200,31,VSS*%
%TO.N,GND*%
X155250000Y-82575000D03*
%TO.P,U200,32,VDD*%
%TO.N,+3V3*%
X155750000Y-82575000D03*
D24*
%TO.P,U200,33,PB12*%
%TO.N,/2. MCU/ISEN_ADC_SS*%
X157675000Y-80650000D03*
%TO.P,U200,34,PB13*%
%TO.N,/2. MCU/ISEN_ADC_CLK*%
X157675000Y-80150000D03*
%TO.P,U200,35,PB14*%
%TO.N,/2. MCU/ISEN_ADC_MISO*%
X157675000Y-79650000D03*
%TO.P,U200,36,PB15*%
%TO.N,/2. MCU/ISEN_ADC_TRIG*%
X157675000Y-79150000D03*
%TO.P,U200,37,PC6*%
%TO.N,unconnected-(U200-Pad37)*%
X157675000Y-78650000D03*
%TO.P,U200,38,PC7*%
%TO.N,unconnected-(U200-Pad38)*%
X157675000Y-78150000D03*
%TO.P,U200,39,PC8*%
%TO.N,unconnected-(U200-Pad39)*%
X157675000Y-77650000D03*
%TO.P,U200,40,PC9*%
%TO.N,unconnected-(U200-Pad40)*%
X157675000Y-77150000D03*
%TO.P,U200,41,PA8*%
%TO.N,/~{FAULT}*%
X157675000Y-76650000D03*
%TO.P,U200,42,PA9*%
%TO.N,/EN_L*%
X157675000Y-76150000D03*
%TO.P,U200,43,PA10*%
%TO.N,unconnected-(U200-Pad43)*%
X157675000Y-75650000D03*
%TO.P,U200,44,PA11*%
%TO.N,/2. MCU/FAN2_TACH*%
X157675000Y-75150000D03*
%TO.P,U200,45,PA12*%
%TO.N,/2. MCU/VSEN_ADC_MISO*%
X157675000Y-74650000D03*
%TO.P,U200,46,PA13*%
%TO.N,/2. MCU/SWDIO*%
X157675000Y-74150000D03*
%TO.P,U200,47,VSS*%
%TO.N,GND*%
X157675000Y-73650000D03*
%TO.P,U200,48,VDD*%
%TO.N,+3V3*%
X157675000Y-73150000D03*
D25*
%TO.P,U200,49,PA14*%
%TO.N,/2. MCU/SWCLK*%
X155750000Y-71225000D03*
%TO.P,U200,50,PA15*%
%TO.N,/2. MCU/CMD_SS*%
X155250000Y-71225000D03*
%TO.P,U200,51,PC10*%
%TO.N,/2. MCU/CMD_SCK*%
X154750000Y-71225000D03*
%TO.P,U200,52,PC11*%
%TO.N,/2. MCU/CMD_MISO*%
X154250000Y-71225000D03*
%TO.P,U200,53,PC12*%
%TO.N,/2. MCU/CMD_MOSI*%
X153750000Y-71225000D03*
%TO.P,U200,54,PD2*%
%TO.N,unconnected-(U200-Pad54)*%
X153250000Y-71225000D03*
%TO.P,U200,55,PB3*%
%TO.N,/2. MCU/FAN2_PWM*%
X152750000Y-71225000D03*
%TO.P,U200,56,PB4*%
%TO.N,unconnected-(U200-Pad56)*%
X152250000Y-71225000D03*
%TO.P,U200,57,PB5*%
%TO.N,/2. MCU/FAN1_TACH*%
X151750000Y-71225000D03*
%TO.P,U200,58,PB6*%
%TO.N,/2. MCU/TX*%
X151250000Y-71225000D03*
%TO.P,U200,59,PB7*%
%TO.N,/2. MCU/RX*%
X150750000Y-71225000D03*
%TO.P,U200,60,BOOT0*%
%TO.N,/2. MCU/BOOT0*%
X150250000Y-71225000D03*
%TO.P,U200,61,PB8*%
%TO.N,/2. MCU/FAN1_PWM*%
X149750000Y-71225000D03*
%TO.P,U200,62,PB9*%
%TO.N,unconnected-(U200-Pad62)*%
X149250000Y-71225000D03*
%TO.P,U200,63,VSS*%
%TO.N,GND*%
X148750000Y-71225000D03*
%TO.P,U200,64,VDD*%
%TO.N,+3V3*%
X148250000Y-71225000D03*
%TD*%
D26*
%TO.P,U303,1,VDD*%
%TO.N,+5VA*%
X151225000Y-91900000D03*
%TO.P,U303,2,REF*%
%TO.N,VREF_ADC*%
X151225000Y-91400000D03*
%TO.P,U303,3,VIN*%
%TO.N,Net-(C304-Pad1)*%
X151225000Y-90900000D03*
%TO.P,U303,4,REGCAP*%
%TO.N,Net-(C310-Pad1)*%
X151225000Y-90400000D03*
%TO.P,U303,5,GND*%
%TO.N,GND*%
X151225000Y-89900000D03*
%TO.P,U303,6,~{CONVST}*%
%TO.N,/2. MCU/VSEN_ADC_TRIG*%
X146825000Y-89900000D03*
%TO.P,U303,7,~{CS}*%
%TO.N,/2. MCU/VSEN_ADC_SS*%
X146825000Y-90400000D03*
%TO.P,U303,8,SCLK*%
%TO.N,/2. MCU/VSEN_ADC_CLK*%
X146825000Y-90900000D03*
%TO.P,U303,9,SDO*%
%TO.N,/2. MCU/VSEN_ADC_MISO*%
X146825000Y-91400000D03*
%TO.P,U303,10,VDRIVE*%
%TO.N,+3V3*%
X146825000Y-91900000D03*
%TD*%
D27*
%TO.P,C400,1*%
%TO.N,+5VA*%
X162025000Y-92850000D03*
%TO.P,C400,2*%
%TO.N,GND*%
X160475000Y-92850000D03*
%TD*%
D28*
%TO.P,Y200,1,1*%
%TO.N,/2. MCU/HSE_IN*%
X143750000Y-72000000D03*
%TO.P,Y200,2,2*%
%TO.N,GND*%
X141550000Y-72000000D03*
%TO.P,Y200,3,3*%
%TO.N,/2. MCU/HSE_OUT*%
X141550000Y-73700000D03*
%TO.P,Y200,4,4*%
%TO.N,GND*%
X143750000Y-73700000D03*
%TD*%
D17*
%TO.P,J102,1,Pin_1*%
%TO.N,/~{FAULT}*%
X163625000Y-77975000D03*
D23*
%TO.P,J102,2,Pin_2*%
%TO.N,GND*%
X163625000Y-80515000D03*
%TO.P,J102,3,Pin_3*%
%TO.N,/ISET*%
X163625000Y-83055000D03*
%TD*%
D16*
%TO.P,R500,1*%
%TO.N,+3V3*%
X152275000Y-67550000D03*
%TO.P,R500,2*%
%TO.N,/2. MCU/FAN1_TACH*%
X152275000Y-69200000D03*
%TD*%
D29*
%TO.P,D500,1,K*%
%TO.N,/5. Fan Control/FAN1_TACH_CON*%
X141750000Y-61975000D03*
%TO.P,D500,2,A*%
%TO.N,/2. MCU/FAN1_TACH*%
X143150000Y-61975000D03*
%TD*%
D30*
%TO.P,J104,1,Pin_1*%
%TO.N,VCC*%
X145800000Y-119400000D03*
%TO.P,J104,2,Pin_2*%
%TO.N,GND*%
X145800000Y-116860000D03*
%TD*%
D31*
%TO.P,U100,1,GND*%
%TO.N,GND*%
X146550000Y-104850000D03*
%TO.P,U100,2,SW*%
%TO.N,/1. Power Supplies/BUCK_SW*%
X146550000Y-105800000D03*
%TO.P,U100,3,VCC*%
%TO.N,VCC*%
X146550000Y-106750000D03*
%TO.P,U100,4,FB*%
%TO.N,/1. Power Supplies/BUCK_FB*%
X148850000Y-106750000D03*
%TO.P,U100,5,EN*%
%TO.N,/1. Power Supplies/BUCK_EN*%
X148850000Y-105800000D03*
%TO.P,U100,6,CB*%
%TO.N,Net-(C103-Pad1)*%
X148850000Y-104850000D03*
%TD*%
D32*
%TO.P,U301,1,REF1*%
%TO.N,GND*%
X146900000Y-96775000D03*
%TO.P,U301,2,IN-*%
%TO.N,/3. Input Protection & Voltage Sense/RSEN-*%
X146900000Y-97425000D03*
%TO.P,U301,3,IN+*%
%TO.N,/3. Input Protection & Voltage Sense/RSEN+D*%
X146900000Y-98075000D03*
%TO.P,U301,4,V-*%
%TO.N,GND*%
X146900000Y-98725000D03*
%TO.P,U301,5,SENSE*%
%TO.N,/3. Input Protection & Voltage Sense/VSENSE_REMOTE*%
X151300000Y-98725000D03*
%TO.P,U301,6,OUT*%
X151300000Y-98075000D03*
%TO.P,U301,7,V+*%
%TO.N,+5VA*%
X151300000Y-97425000D03*
%TO.P,U301,8,REF2*%
%TO.N,GND*%
X151300000Y-96775000D03*
%TD*%
D33*
%TO.P,U300,1,REF1*%
%TO.N,GND*%
X163775000Y-104725000D03*
%TO.P,U300,2,IN-*%
%TO.N,IN-*%
X163125000Y-104725000D03*
%TO.P,U300,3,IN+*%
%TO.N,/3. Input Protection & Voltage Sense/INT_VSEN+*%
X162475000Y-104725000D03*
%TO.P,U300,4,V-*%
%TO.N,GND*%
X161825000Y-104725000D03*
%TO.P,U300,5,SENSE*%
%TO.N,/3. Input Protection & Voltage Sense/V_SENSE_INTERNAL*%
X161825000Y-109125000D03*
%TO.P,U300,6,OUT*%
X162475000Y-109125000D03*
%TO.P,U300,7,V+*%
%TO.N,+5VA*%
X163125000Y-109125000D03*
%TO.P,U300,8,REF2*%
%TO.N,GND*%
X163775000Y-109125000D03*
%TD*%
D16*
%TO.P,R103,1*%
%TO.N,/1. Power Supplies/BUCK_FB*%
X150400000Y-106215000D03*
%TO.P,R103,2*%
%TO.N,GND*%
X150400000Y-107865000D03*
%TD*%
D11*
%TO.P,R504,1*%
%TO.N,/2. MCU/FAN2_PWM*%
X162050000Y-64625000D03*
%TO.P,R504,2*%
%TO.N,/5. Fan Control/FAN2_PWM_CON*%
X162050000Y-62975000D03*
%TD*%
D34*
%TO.P,R207,1*%
%TO.N,/ISEN_L2*%
X165475000Y-102050000D03*
%TO.P,R207,2*%
%TO.N,/2. MCU/ISEN_L2_ADC*%
X163825000Y-102050000D03*
%TD*%
D27*
%TO.P,C402,1*%
%TO.N,+5VA*%
X162025000Y-94400000D03*
%TO.P,C402,2*%
%TO.N,GND*%
X160475000Y-94400000D03*
%TD*%
D12*
%TO.P,R501,1*%
%TO.N,/2. MCU/FAN1_PWM*%
X136375000Y-63050000D03*
%TO.P,R501,2*%
%TO.N,/5. Fan Control/FAN1_PWM_CON*%
X138025000Y-63050000D03*
%TD*%
D35*
%TO.P,U103,1,IN*%
%TO.N,+12VA*%
X156000000Y-105150000D03*
%TO.P,U103,2,GND*%
%TO.N,GND*%
X155050000Y-105150000D03*
%TO.P,U103,3,EN*%
%TO.N,+12VA*%
X154100000Y-105150000D03*
%TO.P,U103,4,NC*%
%TO.N,unconnected-(U103-Pad4)*%
X154100000Y-107450000D03*
%TO.P,U103,5,OUT*%
%TO.N,+5VA*%
X156000000Y-107450000D03*
%TD*%
D11*
%TO.P,R404,1*%
%TO.N,/4. Current Sense & DAC/ISEN_SUM*%
X165400000Y-91200000D03*
%TO.P,R404,2*%
%TO.N,Net-(C401-Pad1)*%
X165400000Y-89550000D03*
%TD*%
D27*
%TO.P,C409,1*%
%TO.N,/4. Current Sense & DAC/VREF_DAC*%
X140550000Y-93200000D03*
%TO.P,C409,2*%
%TO.N,GND*%
X139000000Y-93200000D03*
%TD*%
%TO.P,C305,1*%
%TO.N,+5VA*%
X151200000Y-95000000D03*
%TO.P,C305,2*%
%TO.N,GND*%
X149650000Y-95000000D03*
%TD*%
D17*
%TO.P,J201,1,Pin_1*%
%TO.N,+3V3*%
X166000000Y-74500000D03*
D23*
%TO.P,J201,2,Pin_2*%
%TO.N,/2. MCU/SWDIO*%
X166000000Y-71960000D03*
%TO.P,J201,3,Pin_3*%
%TO.N,/2. MCU/SWCLK*%
X166000000Y-69420000D03*
%TO.P,J201,4,Pin_4*%
%TO.N,GND*%
X166000000Y-66880000D03*
%TD*%
D32*
%TO.P,U402,1,REF*%
%TO.N,/4. Current Sense & DAC/VREF_DAC*%
X140275000Y-91625000D03*
%TO.P,U402,2,~{CS}*%
%TO.N,/2. MCU/ISET_DAC_SS*%
X140275000Y-90975000D03*
%TO.P,U402,3,SCLK*%
%TO.N,/2. MCU/ISET_DAC_CLK*%
X140275000Y-90325000D03*
%TO.P,U402,4,DIN*%
%TO.N,/2. MCU/ISET_DAC_MOSI*%
X140275000Y-89675000D03*
%TO.P,U402,5,~{CLR}*%
%TO.N,+5VA*%
X135875000Y-89675000D03*
%TO.P,U402,6,VOUT*%
%TO.N,/4. Current Sense & DAC/ISET_DAC_OUT*%
X135875000Y-90325000D03*
%TO.P,U402,7,VDD*%
%TO.N,+5VA*%
X135875000Y-90975000D03*
%TO.P,U402,8,GND*%
%TO.N,GND*%
X135875000Y-91625000D03*
%TD*%
D36*
%TO.P,U403,1*%
%TO.N,/ISET*%
X136950000Y-96550000D03*
%TO.P,U403,2,VSS*%
%TO.N,GND*%
X136950000Y-95600000D03*
%TO.P,U403,3,+*%
%TO.N,/4. Current Sense & DAC/ISET_DAC_OUT*%
X136950000Y-94650000D03*
%TO.P,U403,4,-*%
%TO.N,/ISET*%
X134650000Y-94650000D03*
%TO.P,U403,5,VDD*%
%TO.N,+5VA*%
X134650000Y-96550000D03*
%TD*%
D14*
%TO.P,C202,1*%
%TO.N,+3V3*%
X157800000Y-83375000D03*
%TO.P,C202,2*%
%TO.N,GND*%
X157800000Y-84925000D03*
%TD*%
D27*
%TO.P,C206,1*%
%TO.N,/2. MCU/VDDA*%
X144225000Y-78000000D03*
%TO.P,C206,2*%
%TO.N,GND*%
X142675000Y-78000000D03*
%TD*%
D34*
%TO.P,R503,1*%
%TO.N,+3V3*%
X166325000Y-61250000D03*
%TO.P,R503,2*%
%TO.N,/2. MCU/FAN2_TACH*%
X164675000Y-61250000D03*
%TD*%
D14*
%TO.P,C110,1*%
%TO.N,GND*%
X157650000Y-105950000D03*
%TO.P,C110,2*%
%TO.N,+5VA*%
X157650000Y-107500000D03*
%TD*%
D12*
%TO.P,R104,1*%
%TO.N,+12VA*%
X142700000Y-90650000D03*
%TO.P,R104,2*%
%TO.N,VREF_ADC*%
X144350000Y-90650000D03*
%TD*%
D37*
%TO.P,C303,1*%
%TO.N,+5VA*%
X155500000Y-98950000D03*
%TO.P,C303,2*%
%TO.N,GND*%
X157050000Y-98950000D03*
%TD*%
D16*
%TO.P,R102,1*%
%TO.N,+12V*%
X150400000Y-103215000D03*
%TO.P,R102,2*%
%TO.N,/1. Power Supplies/BUCK_FB*%
X150400000Y-104865000D03*
%TD*%
D18*
%TO.P,C406,1*%
%TO.N,Net-(C406-Pad1)*%
X163900000Y-88000000D03*
%TO.P,C406,2*%
%TO.N,GND*%
X163900000Y-86450000D03*
%TD*%
D12*
%TO.P,L503,1,1*%
%TO.N,/5. Fan Control/FAN2_GND*%
X161875000Y-56200000D03*
%TO.P,L503,2,2*%
%TO.N,GND*%
X163525000Y-56200000D03*
%TD*%
D22*
%TO.P,H303,1,1*%
%TO.N,IN-*%
X137000000Y-136000000D03*
%TD*%
D10*
%TO.P,C300,1*%
%TO.N,Net-(C300-Pad1)*%
X156700000Y-139575000D03*
%TO.P,C300,2*%
%TO.N,IN-*%
X156700000Y-136625000D03*
%TD*%
D16*
%TO.P,R204,1*%
%TO.N,/2. MCU/LED_RED*%
X141900000Y-66775000D03*
%TO.P,R204,2*%
%TO.N,Net-(D202-Pad1)*%
X141900000Y-68425000D03*
%TD*%
D27*
%TO.P,C403,1*%
%TO.N,+5VA*%
X162025000Y-91350000D03*
%TO.P,C403,2*%
%TO.N,GND*%
X160475000Y-91350000D03*
%TD*%
D11*
%TO.P,R302,1*%
%TO.N,/3. Input Protection & Voltage Sense/INT_VSEN+*%
X165400000Y-107450000D03*
%TO.P,R302,2*%
%TO.N,IN-*%
X165400000Y-105800000D03*
%TD*%
D34*
%TO.P,R208,1*%
%TO.N,/2. MCU/ISEN_L2_ADC*%
X162375000Y-102050000D03*
%TO.P,R208,2*%
%TO.N,GND*%
X160725000Y-102050000D03*
%TD*%
D37*
%TO.P,C203,1*%
%TO.N,+3V3*%
X147725000Y-69300000D03*
%TO.P,C203,2*%
%TO.N,GND*%
X149275000Y-69300000D03*
%TD*%
D35*
%TO.P,U404,1,K*%
%TO.N,/4. Current Sense & DAC/VREF_DAC*%
X140700000Y-96350000D03*
%TO.P,U404,2,A*%
%TO.N,GND*%
X138800000Y-96350000D03*
%TO.P,U404,3,NC*%
%TO.N,unconnected-(U404-Pad3)*%
X139750000Y-98525000D03*
%TD*%
D14*
%TO.P,C204,1*%
%TO.N,+3V3*%
X159600000Y-71800000D03*
%TO.P,C204,2*%
%TO.N,GND*%
X159600000Y-73350000D03*
%TD*%
D38*
%TO.P,R300,1*%
%TO.N,IN+*%
X154075000Y-136637500D03*
%TO.P,R300,2*%
%TO.N,Net-(C300-Pad1)*%
X154075000Y-139562500D03*
%TD*%
D36*
%TO.P,U102,1,IN*%
%TO.N,+12V*%
X160500000Y-68750000D03*
%TO.P,U102,2,GND*%
%TO.N,GND*%
X160500000Y-67800000D03*
%TO.P,U102,3,EN*%
%TO.N,+12V*%
X160500000Y-66850000D03*
%TO.P,U102,4,NC*%
%TO.N,unconnected-(U102-Pad4)*%
X158200000Y-66850000D03*
%TO.P,U102,5,OUT*%
%TO.N,+3V3*%
X158200000Y-68750000D03*
%TD*%
D18*
%TO.P,C401,1*%
%TO.N,Net-(C401-Pad1)*%
X165400000Y-88000000D03*
%TO.P,C401,2*%
%TO.N,GND*%
X165400000Y-86450000D03*
%TD*%
D11*
%TO.P,R402,1*%
%TO.N,/ISEN_R1*%
X162200000Y-98125000D03*
%TO.P,R402,2*%
%TO.N,Net-(R400-Pad2)*%
X162200000Y-96475000D03*
%TD*%
D14*
%TO.P,C201,1*%
%TO.N,+3V3*%
X148075000Y-84675000D03*
%TO.P,C201,2*%
%TO.N,GND*%
X148075000Y-86225000D03*
%TD*%
D16*
%TO.P,R201,1*%
%TO.N,GND*%
X150775000Y-67550000D03*
%TO.P,R201,2*%
%TO.N,/2. MCU/BOOT0*%
X150775000Y-69200000D03*
%TD*%
D14*
%TO.P,C213,1*%
%TO.N,/2. MCU/ISEN_L1_ADC*%
X146550000Y-84675000D03*
%TO.P,C213,2*%
%TO.N,GND*%
X146550000Y-86225000D03*
%TD*%
D39*
%TO.P,U302,1,SEL*%
%TO.N,/2. MCU/VSEN_SRC*%
X155000000Y-97300000D03*
%TO.P,U302,2,VDD*%
%TO.N,+5VA*%
X155950000Y-97300000D03*
%TO.P,U302,3,GND*%
%TO.N,GND*%
X156900000Y-97300000D03*
%TO.P,U302,4,S1*%
%TO.N,/3. Input Protection & Voltage Sense/V_SENSE_INTERNAL*%
X156900000Y-95000000D03*
%TO.P,U302,5,D*%
%TO.N,Net-(R305-Pad1)*%
X155950000Y-95000000D03*
%TO.P,U302,6,S2*%
%TO.N,/3. Input Protection & Voltage Sense/VSENSE_REMOTE*%
X155000000Y-95000000D03*
%TD*%
D34*
%TO.P,L501,1,1*%
%TO.N,/5. Fan Control/FAN1_GND*%
X138125000Y-56200000D03*
%TO.P,L501,2,2*%
%TO.N,GND*%
X136475000Y-56200000D03*
%TD*%
D14*
%TO.P,C216,1*%
%TO.N,/2. MCU/ISEN_R2_ADC*%
X143150000Y-84675000D03*
%TO.P,C216,2*%
%TO.N,GND*%
X143150000Y-86225000D03*
%TD*%
D22*
%TO.P,H300,1,1*%
%TO.N,IN+*%
X163000000Y-126000000D03*
%TD*%
D16*
%TO.P,R210,1*%
%TO.N,/2. MCU/ISEN_R1_ADC*%
X141650000Y-81125000D03*
%TO.P,R210,2*%
%TO.N,GND*%
X141650000Y-82775000D03*
%TD*%
D21*
%TO.P,D300,1,G*%
%TO.N,IN+*%
X142950000Y-129200000D03*
%TO.P,D300,2,T/R*%
%TO.N,IN-*%
X142950000Y-133500000D03*
%TD*%
D11*
%TO.P,R100,1*%
%TO.N,VCC*%
X152050000Y-107865000D03*
%TO.P,R100,2*%
%TO.N,/1. Power Supplies/BUCK_EN*%
X152050000Y-106215000D03*
%TD*%
D27*
%TO.P,C408,1*%
%TO.N,/4. Current Sense & DAC/VREF_DAC*%
X140550000Y-94700000D03*
%TO.P,C408,2*%
%TO.N,GND*%
X139000000Y-94700000D03*
%TD*%
D14*
%TO.P,C212,1*%
%TO.N,/NTC_R*%
X139275000Y-77650000D03*
%TO.P,C212,2*%
%TO.N,GND*%
X139275000Y-79200000D03*
%TD*%
D11*
%TO.P,R305,1*%
%TO.N,Net-(R305-Pad1)*%
X154625000Y-93300000D03*
%TO.P,R305,2*%
%TO.N,Net-(C304-Pad1)*%
X154625000Y-91650000D03*
%TD*%
D37*
%TO.P,C405,1*%
%TO.N,+3V3*%
X157425000Y-91350000D03*
%TO.P,C405,2*%
%TO.N,GND*%
X158975000Y-91350000D03*
%TD*%
D17*
%TO.P,J103,1,Pin_1*%
%TO.N,/ISET*%
X136375000Y-83025000D03*
D23*
%TO.P,J103,2,Pin_2*%
%TO.N,GND*%
X136375000Y-80485000D03*
%TO.P,J103,3,Pin_3*%
%TO.N,/~{FAULT}*%
X136375000Y-77945000D03*
%TD*%
D26*
%TO.P,U401,1,VDD*%
%TO.N,+5VA*%
X162100000Y-89800000D03*
%TO.P,U401,2,REF*%
%TO.N,VREF_ADC*%
X162100000Y-89300000D03*
%TO.P,U401,3,VIN*%
%TO.N,Net-(C401-Pad1)*%
X162100000Y-88800000D03*
%TO.P,U401,4,REGCAP*%
%TO.N,Net-(C406-Pad1)*%
X162100000Y-88300000D03*
%TO.P,U401,5,GND*%
%TO.N,GND*%
X162100000Y-87800000D03*
%TO.P,U401,6,~{CONVST}*%
%TO.N,/2. MCU/ISEN_ADC_TRIG*%
X157700000Y-87800000D03*
%TO.P,U401,7,~{CS}*%
%TO.N,/2. MCU/ISEN_ADC_SS*%
X157700000Y-88300000D03*
%TO.P,U401,8,SCLK*%
%TO.N,/2. MCU/ISEN_ADC_CLK*%
X157700000Y-88800000D03*
%TO.P,U401,9,SDO*%
%TO.N,/2. MCU/ISEN_ADC_MISO*%
X157700000Y-89300000D03*
%TO.P,U401,10,VDRIVE*%
%TO.N,+3V3*%
X157700000Y-89800000D03*
%TD*%
D18*
%TO.P,C205,1*%
%TO.N,+3V3*%
X145700000Y-71675000D03*
%TO.P,C205,2*%
%TO.N,GND*%
X145700000Y-70125000D03*
%TD*%
D11*
%TO.P,R401,1*%
%TO.N,/ISEN_L2*%
X165400000Y-98125000D03*
%TO.P,R401,2*%
%TO.N,Net-(R400-Pad2)*%
X165400000Y-96475000D03*
%TD*%
D14*
%TO.P,C214,1*%
%TO.N,/2. MCU/ISEN_L2_ADC*%
X145000000Y-84675000D03*
%TO.P,C214,2*%
%TO.N,GND*%
X145000000Y-86225000D03*
%TD*%
D39*
%TO.P,U400,1*%
%TO.N,/4. Current Sense & DAC/ISEN_SUM*%
X163550000Y-95050000D03*
%TO.P,U400,2,VSS*%
%TO.N,GND*%
X164500000Y-95050000D03*
%TO.P,U400,3,+*%
%TO.N,Net-(R400-Pad2)*%
X165450000Y-95050000D03*
%TO.P,U400,4,-*%
%TO.N,/4. Current Sense & DAC/ISEN_SUM*%
X165450000Y-92750000D03*
%TO.P,U400,5,VDD*%
%TO.N,+5VA*%
X163550000Y-92750000D03*
%TD*%
D18*
%TO.P,C310,1*%
%TO.N,Net-(C310-Pad1)*%
X153075000Y-90100000D03*
%TO.P,C310,2*%
%TO.N,GND*%
X153075000Y-88550000D03*
%TD*%
D27*
%TO.P,C306,1*%
%TO.N,+5VA*%
X151200000Y-93500000D03*
%TO.P,C306,2*%
%TO.N,GND*%
X149650000Y-93500000D03*
%TD*%
D11*
%TO.P,R301,1*%
%TO.N,IN+*%
X165400000Y-110475000D03*
%TO.P,R301,2*%
%TO.N,/3. Input Protection & Voltage Sense/INT_VSEN+*%
X165400000Y-108825000D03*
%TD*%
D34*
%TO.P,R203,1*%
%TO.N,/2. MCU/LED_GRN*%
X140325000Y-70250000D03*
%TO.P,R203,2*%
%TO.N,Net-(D201-Pad1)*%
X138675000Y-70250000D03*
%TD*%
D40*
%TO.P,C101,1*%
%TO.N,VCC*%
X146475000Y-110465000D03*
%TO.P,C101,2*%
%TO.N,GND*%
X149425000Y-110465000D03*
%TD*%
D27*
%TO.P,C301,1*%
%TO.N,+5VA*%
X163350000Y-111000000D03*
%TO.P,C301,2*%
%TO.N,GND*%
X161800000Y-111000000D03*
%TD*%
D11*
%TO.P,R403,1*%
%TO.N,/ISEN_R2*%
X160600000Y-98125000D03*
%TO.P,R403,2*%
%TO.N,Net-(R400-Pad2)*%
X160600000Y-96475000D03*
%TD*%
D37*
%TO.P,C109,1*%
%TO.N,GND*%
X154300000Y-103500000D03*
%TO.P,C109,2*%
%TO.N,+12VA*%
X155850000Y-103500000D03*
%TD*%
%TO.P,C308,1*%
%TO.N,+3V3*%
X146550000Y-95000000D03*
%TO.P,C308,2*%
%TO.N,GND*%
X148100000Y-95000000D03*
%TD*%
%TO.P,C307,1*%
%TO.N,+3V3*%
X146550000Y-93500000D03*
%TO.P,C307,2*%
%TO.N,GND*%
X148100000Y-93500000D03*
%TD*%
D27*
%TO.P,C103,1*%
%TO.N,Net-(C103-Pad1)*%
X148800000Y-103215000D03*
%TO.P,C103,2*%
%TO.N,/1. Power Supplies/BUCK_SW*%
X147250000Y-103215000D03*
%TD*%
D17*
%TO.P,J200,1,Pin_1*%
%TO.N,/2. MCU/CMD_MOSI*%
X143650000Y-59000000D03*
D23*
%TO.P,J200,2,Pin_2*%
%TO.N,/2. MCU/CMD_MISO*%
X146190000Y-59000000D03*
%TO.P,J200,3,Pin_3*%
%TO.N,/2. MCU/CMD_SCK*%
X148730000Y-59000000D03*
%TO.P,J200,4,Pin_4*%
%TO.N,/2. MCU/CMD_SS*%
X151270000Y-59000000D03*
%TO.P,J200,5,Pin_5*%
%TO.N,GND*%
X153810000Y-59000000D03*
%TO.P,J200,6,Pin_6*%
%TO.N,Net-(D200-Pad1)*%
X156350000Y-59000000D03*
%TD*%
D14*
%TO.P,C106,1*%
%TO.N,GND*%
X159300000Y-116125000D03*
%TO.P,C106,2*%
%TO.N,+12VA*%
X159300000Y-117675000D03*
%TD*%
%TO.P,C107,1*%
%TO.N,GND*%
X161950000Y-67050000D03*
%TO.P,C107,2*%
%TO.N,+12V*%
X161950000Y-68600000D03*
%TD*%
D41*
%TO.P,L100,1,1*%
%TO.N,/1. Power Supplies/BUCK_SW*%
X143050000Y-108750000D03*
%TO.P,L100,2,2*%
%TO.N,+12V*%
X134750000Y-108750000D03*
%TD*%
D11*
%TO.P,R400,1*%
%TO.N,/ISEN_L1*%
X163800000Y-98125000D03*
%TO.P,R400,2*%
%TO.N,Net-(R400-Pad2)*%
X163800000Y-96475000D03*
%TD*%
%TO.P,R505,1*%
%TO.N,GND*%
X163600000Y-64625000D03*
%TO.P,R505,2*%
%TO.N,/5. Fan Control/FAN2_PWM_CON*%
X163600000Y-62975000D03*
%TD*%
D18*
%TO.P,C210,1*%
%TO.N,/2. MCU/HSE_OUT*%
X139650000Y-73700000D03*
%TO.P,C210,2*%
%TO.N,GND*%
X139650000Y-72150000D03*
%TD*%
D37*
%TO.P,C407,1*%
%TO.N,+5VA*%
X134600000Y-93200000D03*
%TO.P,C407,2*%
%TO.N,GND*%
X136150000Y-93200000D03*
%TD*%
D27*
%TO.P,C209,1*%
%TO.N,/2. MCU/HSE_IN*%
X143775000Y-70250000D03*
%TO.P,C209,2*%
%TO.N,GND*%
X142225000Y-70250000D03*
%TD*%
D18*
%TO.P,C309,1*%
%TO.N,GND*%
X153075000Y-93250000D03*
%TO.P,C309,2*%
%TO.N,VREF_ADC*%
X153075000Y-91700000D03*
%TD*%
D11*
%TO.P,R211,1*%
%TO.N,/ISEN_R2*%
X140150000Y-86275000D03*
%TO.P,R211,2*%
%TO.N,/2. MCU/ISEN_R2_ADC*%
X140150000Y-84625000D03*
%TD*%
D37*
%TO.P,C410,1*%
%TO.N,+5VA*%
X134600000Y-98000000D03*
%TO.P,C410,2*%
%TO.N,GND*%
X136150000Y-98000000D03*
%TD*%
%TO.P,C208,1*%
%TO.N,/2. MCU/VCAP*%
X154550000Y-84900000D03*
%TO.P,C208,2*%
%TO.N,GND*%
X156100000Y-84900000D03*
%TD*%
D40*
%TO.P,C100,1*%
%TO.N,VCC*%
X146475000Y-112965000D03*
%TO.P,C100,2*%
%TO.N,GND*%
X149425000Y-112965000D03*
%TD*%
D18*
%TO.P,C304,1*%
%TO.N,Net-(C304-Pad1)*%
X154625000Y-90100000D03*
%TO.P,C304,2*%
%TO.N,GND*%
X154625000Y-88550000D03*
%TD*%
D22*
%TO.P,H302,1,1*%
%TO.N,IN+*%
X137000000Y-126000000D03*
%TD*%
D11*
%TO.P,R202,1*%
%TO.N,+3V3*%
X159850000Y-78725000D03*
%TO.P,R202,2*%
%TO.N,/~{FAULT}*%
X159850000Y-77075000D03*
%TD*%
D34*
%TO.P,L502,1,1*%
%TO.N,+12V*%
X163525000Y-58750000D03*
%TO.P,L502,2,2*%
%TO.N,/5. Fan Control/FAN2_VCC*%
X161875000Y-58750000D03*
%TD*%
D29*
%TO.P,D501,1,K*%
%TO.N,/5. Fan Control/FAN2_TACH_CON*%
X162000000Y-61250000D03*
%TO.P,D501,2,A*%
%TO.N,/2. MCU/FAN2_TACH*%
X163400000Y-61250000D03*
%TD*%
D15*
%TO.P,D202,1,K*%
%TO.N,Net-(D202-Pad1)*%
X140300000Y-68402500D03*
%TO.P,D202,2,A*%
%TO.N,+3V3*%
X140300000Y-66827500D03*
%TD*%
D40*
%TO.P,C104,1*%
%TO.N,+12V*%
X140125000Y-101450000D03*
%TO.P,C104,2*%
%TO.N,GND*%
X143075000Y-101450000D03*
%TD*%
D21*
%TO.P,D302,1,G*%
%TO.N,IN+*%
X152350000Y-129200000D03*
%TO.P,D302,2,T/R*%
%TO.N,IN-*%
X152350000Y-133500000D03*
%TD*%
D37*
%TO.P,C404,1*%
%TO.N,+3V3*%
X157425000Y-92850000D03*
%TO.P,C404,2*%
%TO.N,GND*%
X158975000Y-92850000D03*
%TD*%
D27*
%TO.P,C207,1*%
%TO.N,/2. MCU/~{RST}*%
X144075000Y-75775000D03*
%TO.P,C207,2*%
%TO.N,GND*%
X142525000Y-75775000D03*
%TD*%
D11*
%TO.P,R304,1*%
%TO.N,/3. Input Protection & Voltage Sense/RSEN+D*%
X145000000Y-98575000D03*
%TO.P,R304,2*%
%TO.N,/3. Input Protection & Voltage Sense/RSEN-*%
X145000000Y-96925000D03*
%TD*%
D34*
%TO.P,R200,1*%
%TO.N,/2. MCU/VDDA*%
X144275000Y-79500000D03*
%TO.P,R200,2*%
%TO.N,+3V3*%
X142625000Y-79500000D03*
%TD*%
D35*
%TO.P,U104,1,K*%
%TO.N,VREF_ADC*%
X144450000Y-92262500D03*
%TO.P,U104,2,A*%
%TO.N,GND*%
X142550000Y-92262500D03*
%TO.P,U104,3,NC*%
%TO.N,unconnected-(U104-Pad3)*%
X143500000Y-94437500D03*
%TD*%
D18*
%TO.P,C302,1*%
%TO.N,+5VA*%
X153075000Y-96625000D03*
%TO.P,C302,2*%
%TO.N,GND*%
X153075000Y-95075000D03*
%TD*%
D34*
%TO.P,R206,1*%
%TO.N,/2. MCU/ISEN_L1_ADC*%
X162375000Y-100550000D03*
%TO.P,R206,2*%
%TO.N,GND*%
X160725000Y-100550000D03*
%TD*%
D42*
%TO.P,D200,1,K*%
%TO.N,Net-(D200-Pad1)*%
X156300000Y-62600000D03*
%TO.P,D200,2,A*%
%TO.N,+12V*%
X153100000Y-62600000D03*
%TD*%
D11*
%TO.P,R405,1*%
%TO.N,+12VA*%
X142475000Y-97900000D03*
%TO.P,R405,2*%
%TO.N,/4. Current Sense & DAC/VREF_DAC*%
X142475000Y-96250000D03*
%TD*%
D14*
%TO.P,C108,1*%
%TO.N,GND*%
X156750000Y-67050000D03*
%TO.P,C108,2*%
%TO.N,+3V3*%
X156750000Y-68600000D03*
%TD*%
D37*
%TO.P,C102,1*%
%TO.N,VCC*%
X146600000Y-108365000D03*
%TO.P,C102,2*%
%TO.N,GND*%
X148150000Y-108365000D03*
%TD*%
D21*
%TO.P,D303,1,G*%
%TO.N,IN+*%
X157050000Y-129200000D03*
%TO.P,D303,2,T/R*%
%TO.N,IN-*%
X157050000Y-133500000D03*
%TD*%
D34*
%TO.P,R205,1*%
%TO.N,/ISEN_L1*%
X165475000Y-100550000D03*
%TO.P,R205,2*%
%TO.N,/2. MCU/ISEN_L1_ADC*%
X163825000Y-100550000D03*
%TD*%
D14*
%TO.P,C211,1*%
%TO.N,/NTC_L*%
X140825000Y-77650000D03*
%TO.P,C211,2*%
%TO.N,GND*%
X140825000Y-79200000D03*
%TD*%
D17*
%TO.P,J101,1,Pin_1*%
%TO.N,/NTC_R*%
X129320000Y-87000000D03*
D23*
%TO.P,J101,2,Pin_2*%
%TO.N,GND*%
X129320000Y-89540000D03*
%TO.P,J101,3,Pin_3*%
%TO.N,/EN_R*%
X129320000Y-92080000D03*
%TO.P,J101,4,Pin_4*%
%TO.N,/ISET*%
X129320000Y-94620000D03*
%TO.P,J101,5,Pin_5*%
%TO.N,/ISEN_R2*%
X129320000Y-97160000D03*
%TO.P,J101,6,Pin_6*%
%TO.N,/ISEN_R1*%
X129320000Y-99700000D03*
%TO.P,J101,7,Pin_7*%
%TO.N,GND*%
X129320000Y-102240000D03*
%TO.P,J101,8,Pin_8*%
%TO.N,+12VA*%
X129320000Y-104780000D03*
%TD*%
D17*
%TO.P,J100,1,Pin_1*%
%TO.N,/NTC_L*%
X170680000Y-87000000D03*
D23*
%TO.P,J100,2,Pin_2*%
%TO.N,GND*%
X170680000Y-89540000D03*
%TO.P,J100,3,Pin_3*%
%TO.N,/EN_L*%
X170680000Y-92080000D03*
%TO.P,J100,4,Pin_4*%
%TO.N,/ISET*%
X170680000Y-94620000D03*
%TO.P,J100,5,Pin_5*%
%TO.N,/ISEN_L2*%
X170680000Y-97160000D03*
%TO.P,J100,6,Pin_6*%
%TO.N,/ISEN_L1*%
X170680000Y-99700000D03*
%TO.P,J100,7,Pin_7*%
%TO.N,GND*%
X170680000Y-102240000D03*
%TO.P,J100,8,Pin_8*%
%TO.N,+12VA*%
X170680000Y-104780000D03*
%TD*%
D17*
%TO.P,J500,1,Pin_1*%
%TO.N,/5. Fan Control/FAN1_GND*%
X140000000Y-56190000D03*
D23*
%TO.P,J500,2,Pin_2*%
%TO.N,/5. Fan Control/FAN1_VCC*%
X140000000Y-58730000D03*
%TO.P,J500,3,Pin_3*%
%TO.N,/5. Fan Control/FAN1_TACH_CON*%
X140000000Y-61270000D03*
%TO.P,J500,4,Pin_4*%
%TO.N,/5. Fan Control/FAN1_PWM_CON*%
X140000000Y-63810000D03*
%TD*%
D17*
%TO.P,J501,1,Pin_1*%
%TO.N,/5. Fan Control/FAN2_PWM_CON*%
X160000000Y-63810000D03*
D23*
%TO.P,J501,2,Pin_2*%
%TO.N,/5. Fan Control/FAN2_TACH_CON*%
X160000000Y-61270000D03*
%TO.P,J501,3,Pin_3*%
%TO.N,/5. Fan Control/FAN2_VCC*%
X160000000Y-58730000D03*
%TO.P,J501,4,Pin_4*%
%TO.N,/5. Fan Control/FAN2_GND*%
X160000000Y-56190000D03*
%TD*%
D43*
%TO.N,+12V*%
X164400000Y-59100000D03*
X166200000Y-58100000D03*
D44*
X138500000Y-101500000D03*
D43*
X154700000Y-63100000D03*
X164400000Y-58200000D03*
D44*
X137250000Y-102750000D03*
D43*
X140200000Y-102750000D03*
D44*
X137250000Y-101500000D03*
D43*
X133800000Y-58100000D03*
D44*
X138500000Y-104000000D03*
D43*
X150400000Y-102615000D03*
D44*
X136000000Y-104000000D03*
D43*
X135600000Y-59100000D03*
D44*
X136000000Y-102750000D03*
D43*
X135600000Y-58200000D03*
X154700000Y-62400000D03*
D44*
X137250000Y-104000000D03*
X138500000Y-102750000D03*
D43*
X154000000Y-63100000D03*
X162075000Y-69375000D03*
X154000000Y-62400000D03*
X160350000Y-69375000D03*
X159700000Y-66850000D03*
X165300000Y-58100000D03*
X161225000Y-69375000D03*
D44*
X136000000Y-101500000D03*
D43*
X134700000Y-58100000D03*
D44*
%TO.N,GND*%
X149550000Y-115200000D03*
D43*
X148875000Y-95050000D03*
D44*
X145000000Y-101600000D03*
X149000000Y-80000000D03*
D43*
X135600000Y-56800000D03*
X154500000Y-111500000D03*
X161750000Y-86450000D03*
X160700000Y-101300000D03*
X142400000Y-86225000D03*
D44*
X151000000Y-76000000D03*
D43*
X164500000Y-94350000D03*
X159725000Y-91350000D03*
X142400000Y-82775000D03*
D44*
X150000000Y-78000000D03*
D43*
X161825000Y-103675000D03*
X148100000Y-92750000D03*
X156800000Y-106225000D03*
X140825000Y-79925000D03*
X160375000Y-73350000D03*
X148875000Y-93450000D03*
X159300000Y-90450000D03*
X148750000Y-81225000D03*
X148900000Y-69950000D03*
X135500000Y-92100000D03*
X161050000Y-111000000D03*
X150350000Y-96750000D03*
X161050000Y-87200000D03*
X141700000Y-71050000D03*
X149650000Y-92750000D03*
X147700000Y-78250000D03*
X148000000Y-86800000D03*
D44*
X155500000Y-73000000D03*
D43*
X164650000Y-86950000D03*
X134700000Y-56900000D03*
X139275000Y-79925000D03*
D44*
X147700000Y-106750000D03*
D43*
X160500000Y-90450000D03*
D44*
X155000000Y-80000000D03*
D43*
X161250000Y-67550000D03*
X135600000Y-55900000D03*
X154925000Y-104275000D03*
X158900000Y-73500000D03*
D44*
X150800000Y-114200000D03*
X145500000Y-104000000D03*
X154000000Y-78000000D03*
D43*
X138200000Y-94550000D03*
X147850000Y-96750000D03*
X154500000Y-114500000D03*
X152500000Y-111500000D03*
X145800000Y-86250000D03*
X166200000Y-56900000D03*
X155500000Y-83950000D03*
X164375000Y-64625000D03*
X138200000Y-93200000D03*
X148750000Y-72475000D03*
X156500000Y-111500000D03*
X152500000Y-114500000D03*
X136375000Y-60550000D03*
X164400000Y-56800000D03*
X154500000Y-113000000D03*
X136250000Y-92500000D03*
X153150000Y-87900000D03*
D44*
X143300000Y-104125000D03*
D43*
X137050000Y-98000000D03*
D44*
X151500000Y-80000000D03*
D43*
X152500000Y-113000000D03*
X142050000Y-78150000D03*
X159725000Y-92850000D03*
X163050000Y-86450000D03*
X153075000Y-94150000D03*
X157450000Y-67625000D03*
X150775000Y-66875000D03*
X141550000Y-72000000D03*
X146500000Y-70125000D03*
X163750000Y-108050000D03*
D44*
X150800000Y-111400000D03*
D43*
X162350000Y-87200000D03*
D44*
X150800000Y-112800000D03*
D43*
X133800000Y-56900000D03*
X147300000Y-86250000D03*
D44*
X148900000Y-108350000D03*
D43*
X155250000Y-81225000D03*
X165300000Y-56900000D03*
D44*
X147700000Y-105250000D03*
D43*
X156625000Y-83950000D03*
D44*
X150400000Y-108550000D03*
X153000000Y-75000000D03*
D43*
X159250000Y-67800000D03*
D44*
X150800000Y-110000000D03*
D43*
X143750000Y-73700000D03*
X147975000Y-98725000D03*
X152050000Y-102600000D03*
X140500000Y-72150000D03*
X164400000Y-55900000D03*
X156500000Y-114500000D03*
X164075000Y-91825000D03*
X156500000Y-113000000D03*
D44*
X144100000Y-101100000D03*
D43*
X141850000Y-92250000D03*
X154650000Y-87900000D03*
X141875000Y-75775000D03*
X157050000Y-98250000D03*
X163750000Y-103700000D03*
D44*
X158500000Y-116150000D03*
X153000000Y-73000000D03*
D43*
X160475000Y-93625000D03*
D44*
X144100000Y-102050500D03*
D43*
%TO.N,+3V3*%
X158350000Y-69375000D03*
X158200000Y-72650000D03*
X145900000Y-72650000D03*
X157500000Y-69375000D03*
X146700000Y-92525000D03*
X139750000Y-66825000D03*
X146550000Y-71800000D03*
X160625000Y-78725000D03*
X156500000Y-82575000D03*
X147650000Y-71550000D03*
X148075000Y-83925000D03*
X149075000Y-83900000D03*
X147650000Y-70700000D03*
X157500000Y-71900000D03*
X157600000Y-92100000D03*
D44*
X140275000Y-75000000D03*
D43*
X152275000Y-66900000D03*
X157800000Y-82575000D03*
X156650000Y-69375000D03*
X158550000Y-71900000D03*
X160375000Y-72000000D03*
X157250000Y-72650000D03*
X157600000Y-90400000D03*
X166350000Y-62000000D03*
X157475000Y-68475000D03*
X148100000Y-69950000D03*
X141900000Y-79500000D03*
X146550000Y-94250000D03*
%TO.N,+5VA*%
X134650000Y-95950000D03*
X162200000Y-90400000D03*
X162200000Y-92100000D03*
X134525000Y-92350000D03*
X162200000Y-93625000D03*
X151200000Y-92500000D03*
X158500000Y-107450000D03*
X151200000Y-94250000D03*
X156800000Y-107475000D03*
X143900000Y-95400000D03*
X162875000Y-92800000D03*
X143900000Y-96150000D03*
X134525000Y-91350000D03*
X163200000Y-110200000D03*
X152600000Y-97300000D03*
X155875000Y-98250000D03*
%TO.N,VCC*%
X146650000Y-107415000D03*
X152050000Y-108550000D03*
D44*
%TO.N,+12VA*%
X158100000Y-117700000D03*
D43*
X142025000Y-90650000D03*
X142475000Y-98725000D03*
X154100000Y-105900000D03*
D44*
X158700000Y-119600000D03*
D43*
X156000000Y-104300000D03*
D44*
X158100000Y-118700000D03*
X159300000Y-118700000D03*
D43*
%TO.N,/2. MCU/FAN1_TACH*%
X143775000Y-61925000D03*
X151750000Y-70050000D03*
%TO.N,/2. MCU/FAN2_TACH*%
X163950000Y-61250000D03*
X158925000Y-75150000D03*
%TO.N,/2. MCU/FAN1_PWM*%
X136375000Y-63850000D03*
X149625000Y-72450000D03*
%TO.N,/2. MCU/FAN2_PWM*%
X152763374Y-70113451D03*
X162050000Y-65325000D03*
%TO.N,VREF_ADC*%
X163200000Y-89450000D03*
X144450000Y-91450000D03*
X152350000Y-91550000D03*
D44*
%TO.N,IN-*%
X143000000Y-135200000D03*
X152400000Y-135200000D03*
X157100000Y-135200000D03*
D43*
X166200000Y-105800000D03*
D44*
X147700000Y-135200000D03*
%TO.N,IN+*%
X147700000Y-127500000D03*
X152400000Y-127500000D03*
X143000000Y-127500000D03*
X156300000Y-127500000D03*
D43*
%TO.N,/ISEN_R1*%
X162200000Y-98900000D03*
X140150000Y-83550000D03*
X131950000Y-95900000D03*
%TO.N,/ISEN_L2*%
X166250000Y-102050000D03*
%TO.N,/ISEN_R2*%
X160600000Y-98900000D03*
X139400000Y-86300000D03*
%TO.N,/3. Input Protection & Voltage Sense/RSEN-*%
X150000000Y-100950000D03*
%TO.N,/3. Input Protection & Voltage Sense/RSEN+*%
X147150000Y-101800000D03*
%TO.N,/2. MCU/VSEN_ADC_MISO*%
X155600000Y-77575000D03*
X151650000Y-84050000D03*
%TO.N,/2. MCU/TX*%
X151400000Y-72450000D03*
%TO.N,/2. MCU/RX*%
X150600000Y-72450000D03*
%TO.N,/2. MCU/LED_GRN*%
X140350000Y-69500000D03*
X147550000Y-74200000D03*
%TO.N,/2. MCU/LED_RED*%
X141900000Y-67400000D03*
X147550000Y-73350000D03*
%TO.N,/~{FAULT}*%
X158925000Y-76775000D03*
%TO.N,/EN_R*%
X147900000Y-76550000D03*
X140925000Y-75875000D03*
%TO.N,/2. MCU/VSEN_ADC_SS*%
X153260199Y-86754079D03*
X152200000Y-86150000D03*
%TO.N,/1. Power Supplies/BUCK_SW*%
X145000000Y-105450000D03*
X146600000Y-103400000D03*
%TO.N,/1. Power Supplies/BUCK_EN*%
X149550000Y-105550000D03*
X152050000Y-105550000D03*
%TO.N,/NTC_L*%
X141850000Y-77300000D03*
%TO.N,/NTC_R*%
X139275000Y-76650000D03*
%TO.N,/2. MCU/VSEN_SRC*%
X156050000Y-90250000D03*
X155500000Y-96150000D03*
%TO.N,/2. MCU/ISEN_L1_ADC*%
X146550000Y-83875000D03*
X163800000Y-99850000D03*
%TO.N,/2. MCU/ISEN_L2_ADC*%
X145125000Y-83875000D03*
X163050000Y-102050000D03*
%TD*%
D45*
%TO.N,+12V*%
X160500000Y-66850000D02*
X159700000Y-66850000D01*
D46*
%TO.N,GND*%
X142200000Y-78000000D02*
X142050000Y-78150000D01*
D45*
X147850000Y-96750000D02*
X147825000Y-96775000D01*
X163750000Y-108050000D02*
X163775000Y-108075000D01*
D46*
X161800000Y-111000000D02*
X161050000Y-111000000D01*
X142525000Y-75775000D02*
X141875000Y-75775000D01*
X164075000Y-91325000D02*
X163900000Y-91150000D01*
X141850000Y-92250000D02*
X142537500Y-92250000D01*
X160725000Y-100550000D02*
X160725000Y-101275000D01*
D45*
X147825000Y-96775000D02*
X146900000Y-96775000D01*
D46*
X153075000Y-95075000D02*
X153075000Y-94150000D01*
X163600000Y-64625000D02*
X164375000Y-64625000D01*
X145700000Y-70125000D02*
X146500000Y-70125000D01*
X160725000Y-101275000D02*
X160700000Y-101300000D01*
X142675000Y-78000000D02*
X142200000Y-78000000D01*
D45*
X150350000Y-96750000D02*
X150375000Y-96775000D01*
D46*
X164500000Y-95050000D02*
X164500000Y-94350000D01*
X160725000Y-101325000D02*
X160700000Y-101300000D01*
D47*
X161825000Y-104725000D02*
X161825000Y-103675000D01*
D46*
X141700000Y-86225000D02*
X141650000Y-86275000D01*
X160725000Y-102050000D02*
X160725000Y-101325000D01*
X142537500Y-92250000D02*
X142550000Y-92262500D01*
X152050000Y-103215000D02*
X152050000Y-102600000D01*
D45*
X163775000Y-103725000D02*
X163750000Y-103700000D01*
X150375000Y-96775000D02*
X151300000Y-96775000D01*
D46*
X153075000Y-93250000D02*
X153075000Y-94150000D01*
X164075000Y-91825000D02*
X164075000Y-91325000D01*
X140825000Y-79200000D02*
X140825000Y-79925000D01*
X143150000Y-86225000D02*
X142400000Y-86225000D01*
D45*
X163775000Y-104725000D02*
X163775000Y-103725000D01*
D46*
X136375000Y-61325000D02*
X136375000Y-60550000D01*
D47*
X146900000Y-98725000D02*
X147975000Y-98725000D01*
D45*
X163775000Y-108075000D02*
X163775000Y-109125000D01*
D46*
X150775000Y-67550000D02*
X150775000Y-66875000D01*
X143100000Y-82775000D02*
X143150000Y-82725000D01*
X142400000Y-82775000D02*
X143100000Y-82775000D01*
X139275000Y-79200000D02*
X139275000Y-79925000D01*
X142400000Y-86225000D02*
X141700000Y-86225000D01*
X141650000Y-82775000D02*
X142400000Y-82775000D01*
%TO.N,+3V3*%
X152275000Y-66900000D02*
X152275000Y-67550000D01*
X142600000Y-79500000D02*
X141900000Y-79500000D01*
X139747500Y-66827500D02*
X138702500Y-66827500D01*
X166325000Y-61975000D02*
X166350000Y-62000000D01*
X166325000Y-61250000D02*
X166325000Y-61975000D01*
X139750000Y-66825000D02*
X139752500Y-66827500D01*
X159850000Y-78725000D02*
X160625000Y-78725000D01*
X139750000Y-66825000D02*
X139747500Y-66827500D01*
X139752500Y-66827500D02*
X140300000Y-66827500D01*
D45*
%TO.N,Net-(C103-Pad1)*%
X148850000Y-104850000D02*
X148850000Y-103265000D01*
X148850000Y-103265000D02*
X148800000Y-103215000D01*
D48*
%TO.N,Net-(C300-Pad1)*%
X154075000Y-139562500D02*
X156687500Y-139562500D01*
D45*
%TO.N,Net-(C304-Pad1)*%
X154525000Y-90900000D02*
X154625000Y-91000000D01*
X151225000Y-90900000D02*
X154525000Y-90900000D01*
X154625000Y-90125000D02*
X154625000Y-91000000D01*
X154625000Y-91000000D02*
X154625000Y-91675000D01*
%TO.N,Net-(C310-Pad1)*%
X151225000Y-90400000D02*
X152800000Y-90400000D01*
X152800000Y-90400000D02*
X153075000Y-90125000D01*
%TO.N,+5VA*%
X135875000Y-89675000D02*
X134900000Y-89675000D01*
X134900000Y-89675000D02*
X134700000Y-89875000D01*
X134700000Y-89875000D02*
X134700000Y-90875000D01*
X134700000Y-90875000D02*
X134800000Y-90975000D01*
X134800000Y-90975000D02*
X135875000Y-90975000D01*
X134650000Y-97975000D02*
X134625000Y-98000000D01*
%TO.N,Net-(C401-Pad1)*%
X162100000Y-88800000D02*
X165400000Y-88800000D01*
X165400000Y-89550000D02*
X165400000Y-88800000D01*
X165400000Y-88800000D02*
X165400000Y-88000000D01*
%TO.N,Net-(C406-Pad1)*%
X163600000Y-88300000D02*
X163900000Y-88000000D01*
X162100000Y-88300000D02*
X163600000Y-88300000D01*
D46*
%TO.N,VCC*%
X152050000Y-107865000D02*
X152050000Y-108550000D01*
D49*
%TO.N,Net-(D200-Pad1)*%
X156300000Y-62600000D02*
X156300000Y-59050000D01*
X156300000Y-59050000D02*
X156350000Y-59000000D01*
D50*
%TO.N,Net-(D201-Pad1)*%
X138675000Y-70250000D02*
X138675000Y-68430000D01*
X138675000Y-68430000D02*
X138702500Y-68402500D01*
%TO.N,Net-(D202-Pad1)*%
X141900000Y-68425000D02*
X140322500Y-68425000D01*
X140322500Y-68425000D02*
X140300000Y-68402500D01*
D45*
%TO.N,Net-(R305-Pad1)*%
X155950000Y-95000000D02*
X155950000Y-93750000D01*
X155500000Y-93300000D02*
X154625000Y-93300000D01*
X155950000Y-93750000D02*
X155500000Y-93300000D01*
%TO.N,Net-(R400-Pad2)*%
X165450000Y-95050000D02*
X165450000Y-96425000D01*
D51*
X163800000Y-96475000D02*
X165400000Y-96475000D01*
X160600000Y-96475000D02*
X162200000Y-96475000D01*
X162200000Y-96475000D02*
X163800000Y-96475000D01*
D45*
X165450000Y-96425000D02*
X165400000Y-96475000D01*
D46*
%TO.N,+12VA*%
X142475000Y-98725000D02*
X142475000Y-97900000D01*
X142700000Y-90650000D02*
X142025000Y-90650000D01*
X154100000Y-105150000D02*
X154100000Y-105900000D01*
D50*
%TO.N,/5. Fan Control/FAN1_TACH_CON*%
X140705000Y-61975000D02*
X140000000Y-61270000D01*
X141750000Y-61975000D02*
X140705000Y-61975000D01*
D45*
%TO.N,/5. Fan Control/FAN2_TACH_CON*%
X161980000Y-61270000D02*
X162000000Y-61250000D01*
X160000000Y-61270000D02*
X161980000Y-61270000D01*
D52*
%TO.N,/5. Fan Control/FAN1_GND*%
X140000000Y-56190000D02*
X138235000Y-56190000D01*
X138235000Y-56190000D02*
X138225000Y-56200000D01*
%TO.N,/5. Fan Control/FAN1_VCC*%
X138145000Y-58730000D02*
X138125000Y-58750000D01*
X140000000Y-58730000D02*
X138145000Y-58730000D01*
D45*
%TO.N,/5. Fan Control/FAN1_PWM_CON*%
X139215000Y-63025000D02*
X138050000Y-63025000D01*
X138050000Y-63025000D02*
X138025000Y-63050000D01*
X139215000Y-63025000D02*
X140000000Y-63810000D01*
X138025000Y-61325000D02*
X138025000Y-63050000D01*
%TO.N,/5. Fan Control/FAN2_PWM_CON*%
X162050000Y-62975000D02*
X160835000Y-62975000D01*
X163600000Y-62975000D02*
X162050000Y-62975000D01*
X160835000Y-62975000D02*
X160000000Y-63810000D01*
D50*
%TO.N,/2. MCU/FAN1_TACH*%
X151750000Y-71225000D02*
X151750000Y-70050000D01*
X143725000Y-61975000D02*
X143775000Y-61925000D01*
X143150000Y-61975000D02*
X143725000Y-61975000D01*
X151750000Y-70050000D02*
X151750000Y-69650000D01*
X151750000Y-69650000D02*
X152200000Y-69200000D01*
X152200000Y-69200000D02*
X152275000Y-69200000D01*
%TO.N,/2. MCU/FAN2_TACH*%
X157675000Y-75150000D02*
X158925000Y-75150000D01*
D45*
X163400000Y-61250000D02*
X163950000Y-61250000D01*
X163950000Y-61250000D02*
X164675000Y-61250000D01*
D52*
%TO.N,/5. Fan Control/FAN2_VCC*%
X161755000Y-58730000D02*
X161775000Y-58750000D01*
X160000000Y-58730000D02*
X161755000Y-58730000D01*
%TO.N,/5. Fan Control/FAN2_GND*%
X161765000Y-56190000D02*
X161775000Y-56200000D01*
X160000000Y-56190000D02*
X161765000Y-56190000D01*
D50*
%TO.N,/2. MCU/FAN1_PWM*%
X136375000Y-63850000D02*
X136375000Y-63050000D01*
X149750000Y-72325000D02*
X149625000Y-72450000D01*
X149750000Y-71225000D02*
X149750000Y-72325000D01*
%TO.N,/2. MCU/FAN2_PWM*%
X162050000Y-65325000D02*
X162050000Y-64625000D01*
X152750000Y-71225000D02*
X152750000Y-70126825D01*
X152750000Y-70126825D02*
X152763374Y-70113451D01*
D48*
%TO.N,VREF_ADC*%
X144450000Y-92262500D02*
X144450000Y-91450000D01*
X144450000Y-91450000D02*
X144450000Y-90750000D01*
X144450000Y-90750000D02*
X144350000Y-90650000D01*
D45*
%TO.N,IN-*%
X163450000Y-106050000D02*
X165150000Y-106050000D01*
X166200000Y-105800000D02*
X165400000Y-105800000D01*
X163125000Y-104725000D02*
X163125000Y-105725000D01*
X165150000Y-106050000D02*
X165400000Y-105800000D01*
X163125000Y-105725000D02*
X163450000Y-106050000D01*
D46*
%TO.N,/4. Current Sense & DAC/VREF_DAC*%
X140800000Y-96250000D02*
X140700000Y-96350000D01*
X140700000Y-96350000D02*
X140700000Y-94850000D01*
X140700000Y-94850000D02*
X140550000Y-94700000D01*
X142475000Y-96250000D02*
X140800000Y-96250000D01*
D45*
%TO.N,IN+*%
X166650000Y-113600000D02*
X165400000Y-112350000D01*
X163000000Y-126000000D02*
X166650000Y-122350000D01*
X165400000Y-112350000D02*
X165400000Y-110475000D01*
X166650000Y-122350000D02*
X166650000Y-113600000D01*
X152800000Y-129200000D02*
X152500000Y-129200000D01*
D48*
X154700000Y-136337500D02*
X154400000Y-136637500D01*
X152350000Y-129200000D02*
X154700000Y-131550000D01*
X154700000Y-131550000D02*
X154700000Y-136337500D01*
D45*
%TO.N,/ISET*%
X133650000Y-83875000D02*
X134500000Y-83025000D01*
X134650000Y-94650000D02*
X135550000Y-94650000D01*
X134500000Y-83025000D02*
X136375000Y-83025000D01*
X134650000Y-94650000D02*
X134620000Y-94620000D01*
X133650000Y-94600000D02*
X133650000Y-83875000D01*
X135800000Y-96300000D02*
X136050000Y-96550000D01*
X136050000Y-96550000D02*
X136950000Y-96550000D01*
X134620000Y-94620000D02*
X129320000Y-94620000D01*
X135550000Y-94650000D02*
X135800000Y-94900000D01*
X135800000Y-94900000D02*
X135800000Y-96300000D01*
%TO.N,/ISEN_L1*%
X165500000Y-100550000D02*
X165500000Y-99300000D01*
X165525000Y-99275000D02*
X164275000Y-99275000D01*
X170680000Y-99700000D02*
X170255000Y-99275000D01*
X165500000Y-99300000D02*
X165525000Y-99275000D01*
X164275000Y-99275000D02*
X163800000Y-98800000D01*
X163800000Y-98800000D02*
X163800000Y-98125000D01*
X170255000Y-99275000D02*
X165525000Y-99275000D01*
D51*
%TO.N,/ISEN_R1*%
X162200000Y-98900000D02*
X162200000Y-98125000D01*
D45*
X130900000Y-99700000D02*
X129320000Y-99700000D01*
X140150000Y-83525000D02*
X140150000Y-82775000D01*
X131950000Y-98650000D02*
X130900000Y-99700000D01*
X131950000Y-95900000D02*
X131950000Y-98650000D01*
%TO.N,/ISEN_L2*%
X169715000Y-98125000D02*
X170680000Y-97160000D01*
X166250000Y-102050000D02*
X165475000Y-102050000D01*
X165400000Y-98125000D02*
X169715000Y-98125000D01*
%TO.N,/ISEN_R2*%
X139400000Y-86300000D02*
X140125000Y-86300000D01*
X140125000Y-86300000D02*
X140150000Y-86275000D01*
X160600000Y-98900000D02*
X160600000Y-98125000D01*
%TO.N,/3. Input Protection & Voltage Sense/RSEN-*%
X146900000Y-97425000D02*
X148850000Y-97425000D01*
X149975000Y-98550000D02*
X149975000Y-100925000D01*
X145500000Y-97425000D02*
X145000000Y-96925000D01*
X146900000Y-97425000D02*
X145500000Y-97425000D01*
X149975000Y-100925000D02*
X150000000Y-100950000D01*
X148850000Y-97425000D02*
X149975000Y-98550000D01*
%TO.N,/3. Input Protection & Voltage Sense/RSEN+*%
X147150000Y-100525000D02*
X147125000Y-100500000D01*
X147150000Y-101800000D02*
X147150000Y-100525000D01*
D50*
%TO.N,/2. MCU/ISET_DAC_CLK*%
X139850000Y-87850000D02*
X139150000Y-88550000D01*
X150250000Y-86000000D02*
X148400000Y-87850000D01*
X139375000Y-90325000D02*
X140275000Y-90325000D01*
X150250000Y-82575000D02*
X150250000Y-86000000D01*
X139150000Y-90100000D02*
X139375000Y-90325000D01*
X139150000Y-88550000D02*
X139150000Y-90100000D01*
X148400000Y-87850000D02*
X139850000Y-87850000D01*
%TO.N,/2. MCU/ISET_DAC_MOSI*%
X140050000Y-88300000D02*
X148550000Y-88300000D01*
X150750000Y-84000000D02*
X151250000Y-83500000D01*
X140275000Y-89675000D02*
X139675000Y-89675000D01*
X148550000Y-88300000D02*
X150750000Y-86100000D01*
X150750000Y-86100000D02*
X150750000Y-84000000D01*
X151250000Y-83500000D02*
X151250000Y-82575000D01*
X139675000Y-89675000D02*
X139650000Y-89650000D01*
X139650000Y-88700000D02*
X140050000Y-88300000D01*
X139650000Y-89650000D02*
X139650000Y-88700000D01*
%TO.N,/2. MCU/ISEN_ADC_TRIG*%
X156750000Y-79150000D02*
X157675000Y-79150000D01*
X157700000Y-87800000D02*
X158500000Y-87800000D01*
X158450000Y-81150000D02*
X156750000Y-81150000D01*
X156750000Y-81150000D02*
X156500000Y-80900000D01*
X158700000Y-87600000D02*
X158700000Y-81400000D01*
X158500000Y-87800000D02*
X158700000Y-87600000D01*
X158700000Y-81400000D02*
X158450000Y-81150000D01*
X156500000Y-80900000D02*
X156500000Y-79400000D01*
X156500000Y-79400000D02*
X156750000Y-79150000D01*
%TO.N,/2. MCU/ISEN_ADC_CLK*%
X157700000Y-88800000D02*
X158800000Y-88800000D01*
X159600000Y-88000000D02*
X159600000Y-80950000D01*
X158800000Y-80150000D02*
X157675000Y-80150000D01*
X159600000Y-80950000D02*
X158800000Y-80150000D01*
X158800000Y-88800000D02*
X159600000Y-88000000D01*
%TO.N,/2. MCU/ISEN_ADC_MISO*%
X158950000Y-89300000D02*
X160050000Y-88200000D01*
X160050000Y-80750000D02*
X158950000Y-79650000D01*
X157700000Y-89300000D02*
X158950000Y-89300000D01*
X158950000Y-79650000D02*
X157675000Y-79650000D01*
X160050000Y-88200000D02*
X160050000Y-80750000D01*
%TO.N,/2. MCU/VSEN_ADC_TRIG*%
X152250000Y-84350000D02*
X152250000Y-82575000D01*
X148125000Y-89900000D02*
X151600000Y-86425000D01*
X151600000Y-85000000D02*
X152250000Y-84350000D01*
X151600000Y-86425000D02*
X151600000Y-85000000D01*
X146825000Y-89900000D02*
X148125000Y-89900000D01*
%TO.N,/2. MCU/VSEN_ADC_CLK*%
X152750000Y-82575000D02*
X152750000Y-86400000D01*
X148250000Y-90900000D02*
X146825000Y-90900000D01*
X152750000Y-86400000D02*
X148250000Y-90900000D01*
%TO.N,/2. MCU/VSEN_ADC_MISO*%
X151200000Y-86250000D02*
X151200000Y-84500000D01*
X156075000Y-74650000D02*
X157675000Y-74650000D01*
X148100000Y-89350000D02*
X151200000Y-86250000D01*
X146825000Y-91400000D02*
X145900000Y-91400000D01*
X145700000Y-89700000D02*
X146050000Y-89350000D01*
X155600000Y-77575000D02*
X155600000Y-75125000D01*
X151200000Y-84500000D02*
X151650000Y-84050000D01*
X146050000Y-89350000D02*
X148100000Y-89350000D01*
X145700000Y-91200000D02*
X145700000Y-89700000D01*
X155600000Y-75125000D02*
X156075000Y-74650000D01*
X145900000Y-91400000D02*
X145700000Y-91200000D01*
%TO.N,/2. MCU/~{RST}*%
X144325000Y-76150000D02*
X143975000Y-75800000D01*
X146325000Y-76150000D02*
X144325000Y-76150000D01*
%TO.N,/2. MCU/TX*%
X151400000Y-72450000D02*
X151250000Y-72300000D01*
X151250000Y-72300000D02*
X151250000Y-71225000D01*
%TO.N,/2. MCU/RX*%
X150750000Y-71225000D02*
X150750000Y-72300000D01*
X150750000Y-72300000D02*
X150600000Y-72450000D01*
%TO.N,/2. MCU/SWCLK*%
X164920000Y-70500000D02*
X166000000Y-69420000D01*
X155750000Y-71225000D02*
X156375000Y-71225000D01*
X157100000Y-70500000D02*
X164920000Y-70500000D01*
X156375000Y-71225000D02*
X157100000Y-70500000D01*
%TO.N,/2. MCU/SWDIO*%
X157300000Y-70900000D02*
X164940000Y-70900000D01*
X156500000Y-73925000D02*
X156500000Y-71700000D01*
X156725000Y-74150000D02*
X156500000Y-73925000D01*
X164940000Y-70900000D02*
X166000000Y-71960000D01*
X156500000Y-71700000D02*
X157300000Y-70900000D01*
X157675000Y-74150000D02*
X156725000Y-74150000D01*
%TO.N,/2. MCU/LED_GRN*%
X146325000Y-74150000D02*
X147500000Y-74150000D01*
X140350000Y-69500000D02*
X140350000Y-70225000D01*
X140350000Y-70225000D02*
X140325000Y-70250000D01*
X147500000Y-74150000D02*
X147550000Y-74200000D01*
%TO.N,/2. MCU/LED_RED*%
X141900000Y-67400000D02*
X141900000Y-66775000D01*
X146325000Y-73650000D02*
X147250000Y-73650000D01*
X147250000Y-73650000D02*
X147550000Y-73350000D01*
%TO.N,/2. MCU/CMD_SS*%
X154200000Y-64150000D02*
X155250000Y-65200000D01*
X151270000Y-63420000D02*
X152000000Y-64150000D01*
X152000000Y-64150000D02*
X154200000Y-64150000D01*
X151270000Y-59000000D02*
X151270000Y-63420000D01*
X155250000Y-65200000D02*
X155250000Y-71225000D01*
%TO.N,/2. MCU/CMD_SCK*%
X151850000Y-64650000D02*
X153950000Y-64650000D01*
X148730000Y-59000000D02*
X150850000Y-61120000D01*
X150850000Y-61120000D02*
X150850000Y-63650000D01*
X154750000Y-65450000D02*
X154750000Y-71225000D01*
X153950000Y-64650000D02*
X154750000Y-65450000D01*
X150850000Y-63650000D02*
X151850000Y-64650000D01*
%TO.N,/2. MCU/CMD_MOSI*%
X149900000Y-61450000D02*
X149350000Y-60900000D01*
X145550000Y-60900000D02*
X143650000Y-59000000D01*
X151450000Y-65550000D02*
X149900000Y-64000000D01*
X153750000Y-65850000D02*
X153450000Y-65550000D01*
X153750000Y-71225000D02*
X153750000Y-65850000D01*
X153450000Y-65550000D02*
X151450000Y-65550000D01*
X149900000Y-64000000D02*
X149900000Y-61450000D01*
X149350000Y-60900000D02*
X145550000Y-60900000D01*
%TO.N,/2. MCU/CMD_MISO*%
X146190000Y-59000000D02*
X147640000Y-60450000D01*
X147640000Y-60450000D02*
X149550000Y-60450000D01*
X153700000Y-65100000D02*
X154250000Y-65650000D01*
X150400000Y-61300000D02*
X150400000Y-63850000D01*
X149550000Y-60450000D02*
X150400000Y-61300000D01*
X154250000Y-65650000D02*
X154250000Y-71225000D01*
X151650000Y-65100000D02*
X153700000Y-65100000D01*
X150400000Y-63850000D02*
X151650000Y-65100000D01*
%TO.N,/2. MCU/BOOT0*%
X150250000Y-71225000D02*
X150250000Y-69650000D01*
X150250000Y-69650000D02*
X150700000Y-69200000D01*
X150700000Y-69200000D02*
X150775000Y-69200000D01*
%TO.N,/2. MCU/HSE_IN*%
X144850000Y-73000000D02*
X143850000Y-72000000D01*
X143775000Y-71975000D02*
X143750000Y-72000000D01*
X145400000Y-75150000D02*
X144850000Y-74600000D01*
X143775000Y-70250000D02*
X143775000Y-71975000D01*
X146325000Y-75150000D02*
X145400000Y-75150000D01*
X144850000Y-74600000D02*
X144850000Y-73000000D01*
X143850000Y-72000000D02*
X143750000Y-72000000D01*
%TO.N,/2. MCU/HSE_OUT*%
X141650000Y-73700000D02*
X142850000Y-74900000D01*
X144500000Y-74900000D02*
X145250000Y-75650000D01*
X139650000Y-73725000D02*
X141525000Y-73725000D01*
X142850000Y-74900000D02*
X144500000Y-74900000D01*
X145250000Y-75650000D02*
X146325000Y-75650000D01*
X141550000Y-73700000D02*
X141650000Y-73700000D01*
X141525000Y-73725000D02*
X141550000Y-73700000D01*
D45*
%TO.N,/3. Input Protection & Voltage Sense/INT_VSEN+*%
X163525000Y-107200000D02*
X165150000Y-107200000D01*
X162475000Y-104725000D02*
X162475000Y-106150000D01*
X165400000Y-108825000D02*
X165400000Y-107450000D01*
X162475000Y-106150000D02*
X163525000Y-107200000D01*
X165150000Y-107200000D02*
X165400000Y-107450000D01*
D50*
%TO.N,/~{FAULT}*%
X158925000Y-76775000D02*
X162425000Y-76775000D01*
X158800000Y-76650000D02*
X158925000Y-76775000D01*
X162425000Y-76775000D02*
X163625000Y-77975000D01*
X157675000Y-76650000D02*
X158800000Y-76650000D01*
%TO.N,/EN_L*%
X167025000Y-91550000D02*
X167555000Y-92080000D01*
X167555000Y-92080000D02*
X170680000Y-92080000D01*
X157675000Y-76150000D02*
X166375000Y-76150000D01*
X167025000Y-76800000D02*
X167025000Y-91550000D01*
X166375000Y-76150000D02*
X167025000Y-76800000D01*
%TO.N,/EN_R*%
X131620000Y-92080000D02*
X129320000Y-92080000D01*
X140925000Y-75875000D02*
X140900000Y-75900000D01*
X133050000Y-90650000D02*
X131620000Y-92080000D01*
X147450000Y-77650000D02*
X146325000Y-77650000D01*
X147900000Y-77200000D02*
X147450000Y-77650000D01*
X133050000Y-76750000D02*
X133050000Y-90650000D01*
X147900000Y-76550000D02*
X147900000Y-77200000D01*
X140900000Y-75900000D02*
X133900000Y-75900000D01*
X133900000Y-75900000D02*
X133050000Y-76750000D01*
%TO.N,/2. MCU/ISET_DAC_SS*%
X149750000Y-85900000D02*
X148250000Y-87400000D01*
X138650000Y-90350000D02*
X139275000Y-90975000D01*
X148250000Y-87400000D02*
X139650000Y-87400000D01*
X139275000Y-90975000D02*
X140275000Y-90975000D01*
X139650000Y-87400000D02*
X138650000Y-88400000D01*
X138650000Y-88400000D02*
X138650000Y-90350000D01*
X149750000Y-82575000D02*
X149750000Y-85900000D01*
%TO.N,/2. MCU/ISEN_ADC_SS*%
X158650000Y-88300000D02*
X159150000Y-87800000D01*
X159150000Y-81150000D02*
X158650000Y-80650000D01*
X158650000Y-80650000D02*
X157675000Y-80650000D01*
X159150000Y-87800000D02*
X159150000Y-81150000D01*
X157700000Y-88300000D02*
X158650000Y-88300000D01*
%TO.N,/2. MCU/VSEN_ADC_SS*%
X153260199Y-86754079D02*
X153250000Y-86743880D01*
X153250000Y-86743880D02*
X153250000Y-82575000D01*
X152200000Y-86150000D02*
X152200000Y-86400000D01*
X152200000Y-86400000D02*
X148200000Y-90400000D01*
X148200000Y-90400000D02*
X146825000Y-90400000D01*
D45*
%TO.N,/1. Power Supplies/BUCK_SW*%
X146600000Y-103400000D02*
X146785000Y-103215000D01*
X146785000Y-103215000D02*
X147250000Y-103215000D01*
%TO.N,/1. Power Supplies/BUCK_FB*%
X149865000Y-106750000D02*
X150400000Y-106215000D01*
X150400000Y-104865000D02*
X150400000Y-106215000D01*
X148850000Y-106750000D02*
X149865000Y-106750000D01*
%TO.N,/4. Current Sense & DAC/ISEN_SUM*%
X165450000Y-93400000D02*
X165450000Y-92750000D01*
X163550000Y-95050000D02*
X163550000Y-94000000D01*
X165450000Y-91250000D02*
X165400000Y-91200000D01*
X163550000Y-94000000D02*
X163850000Y-93700000D01*
X165450000Y-92750000D02*
X165450000Y-91250000D01*
X165150000Y-93700000D02*
X165450000Y-93400000D01*
X163850000Y-93700000D02*
X165150000Y-93700000D01*
%TO.N,/3. Input Protection & Voltage Sense/RSEN+D*%
X146900000Y-98075000D02*
X145500000Y-98075000D01*
X145500000Y-98075000D02*
X145000000Y-98575000D01*
X148200000Y-98075000D02*
X146900000Y-98075000D01*
X148775000Y-98650000D02*
X148200000Y-98075000D01*
X148775000Y-100500000D02*
X148775000Y-98650000D01*
%TO.N,/4. Current Sense & DAC/ISET_DAC_OUT*%
X136875000Y-90325000D02*
X135875000Y-90325000D01*
X137275000Y-94650000D02*
X137300000Y-94625000D01*
X137300000Y-94625000D02*
X137300000Y-90750000D01*
X136950000Y-94650000D02*
X137275000Y-94650000D01*
X137300000Y-90750000D02*
X136875000Y-90325000D01*
%TO.N,/3. Input Protection & Voltage Sense/V_SENSE_INTERNAL*%
X161825000Y-109125000D02*
X162475000Y-109125000D01*
X158800000Y-95800000D02*
X158800000Y-105200000D01*
X160300000Y-106700000D02*
X161650000Y-106700000D01*
X162475000Y-107525000D02*
X162475000Y-109125000D01*
X158000000Y-95000000D02*
X158800000Y-95800000D01*
X156900000Y-95000000D02*
X158000000Y-95000000D01*
X161650000Y-106700000D02*
X162475000Y-107525000D01*
X158800000Y-105200000D02*
X160300000Y-106700000D01*
%TO.N,/3. Input Protection & Voltage Sense/VSENSE_REMOTE*%
X151300000Y-98725000D02*
X151300000Y-98075000D01*
X154050000Y-95300000D02*
X154350000Y-95000000D01*
X151300000Y-98075000D02*
X153575000Y-98075000D01*
X154050000Y-97600000D02*
X154050000Y-95300000D01*
X154350000Y-95000000D02*
X155000000Y-95000000D01*
X153575000Y-98075000D02*
X154050000Y-97600000D01*
%TO.N,/1. Power Supplies/BUCK_EN*%
X148850000Y-105800000D02*
X149300000Y-105800000D01*
X152050000Y-104865000D02*
X152050000Y-105550000D01*
X152050000Y-106215000D02*
X152050000Y-105550000D01*
X149300000Y-105800000D02*
X149550000Y-105550000D01*
D50*
%TO.N,/NTC_L*%
X141850000Y-77300000D02*
X141025000Y-77300000D01*
X146325000Y-77150000D02*
X142000000Y-77150000D01*
X142000000Y-77150000D02*
X141850000Y-77300000D01*
X141025000Y-77300000D02*
X140850000Y-77475000D01*
%TO.N,/NTC_R*%
X139275000Y-76650000D02*
X146325000Y-76650000D01*
X139275000Y-77650000D02*
X139275000Y-76650000D01*
%TO.N,/2. MCU/VSEN_SRC*%
X156050000Y-90250000D02*
X156050000Y-87450000D01*
X154150000Y-86550000D02*
X153750000Y-86150000D01*
X155500000Y-96150000D02*
X155000000Y-96650000D01*
X155150000Y-86550000D02*
X154150000Y-86550000D01*
X156050000Y-87450000D02*
X155150000Y-86550000D01*
X155000000Y-96650000D02*
X155000000Y-97300000D01*
X153750000Y-86150000D02*
X153750000Y-82575000D01*
D45*
%TO.N,/2. MCU/ISEN_L1_ADC*%
X146550000Y-83875000D02*
X146550000Y-84675000D01*
D50*
X147175000Y-83250000D02*
X146550000Y-83875000D01*
D45*
X163825000Y-100550000D02*
X163825000Y-99875000D01*
X163825000Y-99875000D02*
X163800000Y-99850000D01*
D50*
X148250000Y-83250000D02*
X147175000Y-83250000D01*
D45*
X162375000Y-100550000D02*
X163825000Y-100550000D01*
D50*
X148250000Y-82575000D02*
X148250000Y-83250000D01*
D45*
%TO.N,/2. MCU/ISEN_L2_ADC*%
X163050000Y-102050000D02*
X163825000Y-102050000D01*
D50*
X147250000Y-79650000D02*
X147450000Y-79850000D01*
X147450000Y-81550000D02*
X145125000Y-83875000D01*
D45*
X145125000Y-84550000D02*
X145000000Y-84675000D01*
D50*
X146325000Y-79650000D02*
X147250000Y-79650000D01*
D45*
X145125000Y-83875000D02*
X145125000Y-84550000D01*
D50*
X147450000Y-79850000D02*
X147450000Y-81550000D01*
D45*
X162375000Y-102050000D02*
X163050000Y-102050000D01*
D50*
%TO.N,/2. MCU/ISEN_R1_ADC*%
X144225000Y-81175000D02*
X145250000Y-80150000D01*
X143150000Y-81175000D02*
X144225000Y-81175000D01*
X143100000Y-81125000D02*
X143150000Y-81175000D01*
X141650000Y-81125000D02*
X143100000Y-81125000D01*
X145250000Y-80150000D02*
X146325000Y-80150000D01*
X140150000Y-81125000D02*
X141650000Y-81125000D01*
%TO.N,/2. MCU/ISEN_R2_ADC*%
X143150000Y-84675000D02*
X143175000Y-84675000D01*
X143175000Y-84675000D02*
X146325000Y-81525000D01*
X140150000Y-84625000D02*
X141650000Y-84625000D01*
X141650000Y-84625000D02*
X143100000Y-84625000D01*
X146325000Y-81525000D02*
X146325000Y-80650000D01*
X143100000Y-84625000D02*
X143150000Y-84675000D01*
%TD*%
%TA.AperFunction,Conductor*%
%TO.N,+3V3*%
G36*
X158322858Y-89670461D02*
G01*
X158341429Y-89683143D01*
X158369082Y-89705266D01*
X158414784Y-89767392D01*
X158425000Y-89821613D01*
X158425000Y-90194016D01*
X158405038Y-90268516D01*
X158388136Y-90292131D01*
X158250000Y-90450000D01*
X158250000Y-93033641D01*
X158230038Y-93108141D01*
X158200676Y-93144392D01*
X158042499Y-93286751D01*
X157973769Y-93321751D01*
X157942823Y-93325000D01*
X157261718Y-93325000D01*
X157187218Y-93305038D01*
X157156359Y-93281359D01*
X157018641Y-93143641D01*
X156980077Y-93076846D01*
X156975000Y-93038282D01*
X156975000Y-89821613D01*
X156994962Y-89747113D01*
X157030920Y-89705264D01*
X157058561Y-89683151D01*
X157129206Y-89652199D01*
X157151641Y-89650500D01*
X157700000Y-89650500D01*
X158248358Y-89650499D01*
X158322858Y-89670461D01*
G37*
%TD.AperFunction*%
%TD*%
%TA.AperFunction,Conductor*%
%TO.N,/1. Power Supplies/BUCK_SW*%
G36*
X145212782Y-105069962D02*
G01*
X145243641Y-105093641D01*
X145650000Y-105500000D01*
X146351000Y-105500000D01*
X146425500Y-105519962D01*
X146480038Y-105574500D01*
X146500000Y-105649000D01*
X146500000Y-105951000D01*
X146480038Y-106025500D01*
X146425500Y-106080038D01*
X146351000Y-106100000D01*
X145650000Y-106100000D01*
X145641536Y-106107524D01*
X145641535Y-106107524D01*
X145441938Y-106284944D01*
X145299318Y-106411718D01*
X145242341Y-106462364D01*
X145173397Y-106496939D01*
X145143351Y-106500000D01*
X144650000Y-106500000D01*
X144400000Y-106750000D01*
X144400000Y-110401000D01*
X144380038Y-110475500D01*
X144325500Y-110530038D01*
X144251000Y-110550000D01*
X141849000Y-110550000D01*
X141774500Y-110530038D01*
X141719962Y-110475500D01*
X141700000Y-110401000D01*
X141700000Y-106411718D01*
X141719962Y-106337218D01*
X141743641Y-106306359D01*
X142956359Y-105093641D01*
X143023154Y-105055077D01*
X143061718Y-105050000D01*
X145138282Y-105050000D01*
X145212782Y-105069962D01*
G37*
%TD.AperFunction*%
%TD*%
%TA.AperFunction,Conductor*%
%TO.N,+12V*%
G36*
X166312782Y-57769962D02*
G01*
X166343641Y-57793641D01*
X166706359Y-58156359D01*
X166744923Y-58223154D01*
X166750000Y-58261718D01*
X166750000Y-59188282D01*
X166730038Y-59262782D01*
X166706359Y-59293641D01*
X166493641Y-59506359D01*
X166426846Y-59544923D01*
X166388282Y-59550000D01*
X163427266Y-59550000D01*
X163352766Y-59530038D01*
X163334186Y-59517349D01*
X163180920Y-59394736D01*
X163135216Y-59332609D01*
X163125000Y-59278387D01*
X163125000Y-58065913D01*
X163144962Y-57991413D01*
X163173772Y-57955662D01*
X163357376Y-57788749D01*
X163425929Y-57753406D01*
X163457604Y-57750000D01*
X166238282Y-57750000D01*
X166312782Y-57769962D01*
G37*
%TD.AperFunction*%
%TD*%
%TA.AperFunction,Conductor*%
%TO.N,/4. Current Sense & DAC/VREF_DAC*%
G36*
X140925500Y-91420462D02*
G01*
X140980038Y-91475000D01*
X141000000Y-91549500D01*
X141000000Y-95026000D01*
X140980038Y-95100500D01*
X140925500Y-95155038D01*
X140851000Y-95175000D01*
X140457959Y-95175000D01*
X140383459Y-95155038D01*
X140357276Y-95135836D01*
X140264405Y-95050705D01*
X140148316Y-94944290D01*
X140106888Y-94879235D01*
X140100000Y-94834455D01*
X140100000Y-92600000D01*
X139593641Y-92093641D01*
X139555077Y-92026846D01*
X139550000Y-91988282D01*
X139550000Y-91549500D01*
X139569962Y-91475000D01*
X139624500Y-91420462D01*
X139699000Y-91400500D01*
X140851000Y-91400500D01*
X140925500Y-91420462D01*
G37*
%TD.AperFunction*%
%TD*%
%TA.AperFunction,Conductor*%
%TO.N,VREF_ADC*%
G36*
X164153287Y-89170462D02*
G01*
X164195136Y-89206420D01*
X164317349Y-89359186D01*
X164348301Y-89429831D01*
X164350000Y-89452266D01*
X164350000Y-89778387D01*
X164330038Y-89852887D01*
X164294080Y-89894736D01*
X164140814Y-90017349D01*
X164070169Y-90048301D01*
X164047734Y-90050000D01*
X163311718Y-90050000D01*
X163237218Y-90030038D01*
X163206359Y-90006359D01*
X163069141Y-89869141D01*
X163030577Y-89802346D01*
X163025500Y-89763784D01*
X163025499Y-89705185D01*
X163025499Y-89697868D01*
X163009515Y-89617505D01*
X162948624Y-89526376D01*
X162936421Y-89518222D01*
X162932691Y-89514492D01*
X162900000Y-89457870D01*
X162900000Y-89450000D01*
X162782211Y-89450000D01*
X162778806Y-89449833D01*
X162777133Y-89449500D01*
X162756265Y-89449500D01*
X161748999Y-89449501D01*
X161674500Y-89429539D01*
X161619962Y-89375001D01*
X161600000Y-89300501D01*
X161600000Y-89299500D01*
X161619962Y-89225000D01*
X161674500Y-89170462D01*
X161749000Y-89150500D01*
X164078787Y-89150500D01*
X164153287Y-89170462D01*
G37*
%TD.AperFunction*%
%TD*%
%TA.AperFunction,Conductor*%
%TO.N,GND*%
G36*
X136647234Y-55469962D02*
G01*
X136665814Y-55482651D01*
X136819080Y-55605264D01*
X136864784Y-55667391D01*
X136875000Y-55721613D01*
X136875000Y-56934087D01*
X136855038Y-57008587D01*
X136826228Y-57044338D01*
X136642624Y-57211251D01*
X136574071Y-57246594D01*
X136542396Y-57250000D01*
X133761718Y-57250000D01*
X133687218Y-57230038D01*
X133656359Y-57206359D01*
X133293641Y-56843641D01*
X133255077Y-56776846D01*
X133250000Y-56738282D01*
X133250000Y-55811718D01*
X133269962Y-55737218D01*
X133293641Y-55706359D01*
X133506359Y-55493641D01*
X133573154Y-55455077D01*
X133611718Y-55450000D01*
X136572734Y-55450000D01*
X136647234Y-55469962D01*
G37*
%TD.AperFunction*%
%TD*%
%TA.AperFunction,Conductor*%
%TO.N,+12V*%
G36*
X140412782Y-100569962D02*
G01*
X140443641Y-100593641D01*
X140656359Y-100806359D01*
X140694923Y-100873154D01*
X140700000Y-100911718D01*
X140700000Y-110401000D01*
X140680038Y-110475500D01*
X140625500Y-110530038D01*
X140551000Y-110550000D01*
X133549000Y-110550000D01*
X133474500Y-110530038D01*
X133419962Y-110475500D01*
X133400000Y-110401000D01*
X133400000Y-102611718D01*
X133419962Y-102537218D01*
X133443641Y-102506359D01*
X135356359Y-100593641D01*
X135423154Y-100555077D01*
X135461718Y-100550000D01*
X140338282Y-100550000D01*
X140412782Y-100569962D01*
G37*
%TD.AperFunction*%
%TD*%
%TA.AperFunction,Conductor*%
%TO.N,+3V3*%
G36*
X146512782Y-71244962D02*
G01*
X146543641Y-71268641D01*
X147056359Y-71781359D01*
X147094923Y-71848154D01*
X147100000Y-71886718D01*
X147100000Y-73097461D01*
X147085874Y-73160785D01*
X147066447Y-73202163D01*
X147065665Y-73201796D01*
X147029627Y-73259471D01*
X146961527Y-73295681D01*
X146928008Y-73299500D01*
X146252847Y-73299501D01*
X145699000Y-73299501D01*
X145624500Y-73279539D01*
X145569962Y-73225001D01*
X145550000Y-73150501D01*
X145550000Y-72625000D01*
X145268641Y-72343641D01*
X145230077Y-72276846D01*
X145225000Y-72238282D01*
X145225000Y-71511718D01*
X145244962Y-71437218D01*
X145268641Y-71406359D01*
X145406359Y-71268641D01*
X145473154Y-71230077D01*
X145511718Y-71225000D01*
X146438282Y-71225000D01*
X146512782Y-71244962D01*
G37*
%TD.AperFunction*%
%TD*%
%TA.AperFunction,Conductor*%
%TO.N,IN-*%
G36*
X153875000Y-132269962D02*
G01*
X153929538Y-132324500D01*
X153949500Y-132399000D01*
X153949500Y-135425500D01*
X153929538Y-135500000D01*
X153875000Y-135554538D01*
X153800500Y-135574500D01*
X153400134Y-135574500D01*
X153396303Y-135574898D01*
X153396294Y-135574898D01*
X153303593Y-135584517D01*
X153303590Y-135584518D01*
X153295481Y-135585359D01*
X153287746Y-135587940D01*
X153287744Y-135587940D01*
X153137680Y-135638005D01*
X153137678Y-135638006D01*
X153129471Y-135640744D01*
X152980655Y-135732834D01*
X152974546Y-135738953D01*
X152974543Y-135738956D01*
X152863130Y-135850564D01*
X152857016Y-135856689D01*
X152765186Y-136005666D01*
X152710090Y-136171772D01*
X152699500Y-136275134D01*
X152699500Y-136999866D01*
X152699898Y-137003697D01*
X152699898Y-137003706D01*
X152709517Y-137096407D01*
X152710359Y-137104519D01*
X152712940Y-137112254D01*
X152712940Y-137112256D01*
X152762605Y-137261119D01*
X152765744Y-137270529D01*
X152857834Y-137419345D01*
X152863953Y-137425454D01*
X152863956Y-137425457D01*
X152974737Y-137536044D01*
X152981689Y-137542984D01*
X153130666Y-137634814D01*
X153138880Y-137637538D01*
X153138881Y-137637539D01*
X153289044Y-137687347D01*
X153289047Y-137687348D01*
X153296772Y-137689910D01*
X153304869Y-137690740D01*
X153304871Y-137690740D01*
X153396345Y-137700112D01*
X153396349Y-137700112D01*
X153400134Y-137700500D01*
X154749866Y-137700500D01*
X154753697Y-137700102D01*
X154753706Y-137700102D01*
X154846407Y-137690483D01*
X154846410Y-137690482D01*
X154854519Y-137689641D01*
X154862254Y-137687060D01*
X154862256Y-137687060D01*
X155012320Y-137636995D01*
X155012322Y-137636994D01*
X155020529Y-137634256D01*
X155169345Y-137542166D01*
X155175454Y-137536047D01*
X155175457Y-137536044D01*
X155286870Y-137424436D01*
X155286871Y-137424434D01*
X155292984Y-137418311D01*
X155384814Y-137269334D01*
X155387539Y-137261119D01*
X155437347Y-137110956D01*
X155437348Y-137110953D01*
X155439910Y-137103228D01*
X155450500Y-136999866D01*
X155450500Y-136423754D01*
X155451005Y-136412426D01*
X155452618Y-136404670D01*
X155450555Y-136328433D01*
X155450500Y-136324402D01*
X155450500Y-132399000D01*
X155470462Y-132324500D01*
X155525000Y-132269962D01*
X155599500Y-132250000D01*
X162987696Y-132250000D01*
X163062196Y-132269962D01*
X163093759Y-132294350D01*
X165330567Y-134561386D01*
X166707064Y-135956484D01*
X166745179Y-136023536D01*
X166750000Y-136061133D01*
X166750000Y-143740008D01*
X166730038Y-143814508D01*
X166675500Y-143869046D01*
X166601000Y-143889008D01*
X166526500Y-143869046D01*
X166472485Y-143815406D01*
X166437134Y-143755152D01*
X166435290Y-143752009D01*
X166199529Y-143427513D01*
X165933228Y-143127571D01*
X165638929Y-142855047D01*
X165319441Y-142612542D01*
X164977813Y-142402371D01*
X164847307Y-142338719D01*
X164620586Y-142228139D01*
X164620581Y-142228137D01*
X164617307Y-142226540D01*
X164241363Y-142086728D01*
X163853570Y-141984269D01*
X163779135Y-141972213D01*
X163461226Y-141920722D01*
X163461217Y-141920721D01*
X163457630Y-141920140D01*
X163454006Y-141919912D01*
X163453997Y-141919911D01*
X163158826Y-141901341D01*
X163129563Y-141899500D01*
X162898894Y-141899500D01*
X162897098Y-141899588D01*
X162897091Y-141899588D01*
X162817228Y-141903494D01*
X162599379Y-141914149D01*
X162595792Y-141914679D01*
X162595789Y-141914679D01*
X162506045Y-141927931D01*
X162202582Y-141972743D01*
X161916054Y-142044182D01*
X161816929Y-142068896D01*
X161816926Y-142068897D01*
X161813396Y-142069777D01*
X161435537Y-142204327D01*
X161432241Y-142205878D01*
X161075916Y-142373551D01*
X161075911Y-142373554D01*
X161072610Y-142375107D01*
X161069480Y-142376973D01*
X161069476Y-142376975D01*
X161023659Y-142404288D01*
X160728081Y-142580488D01*
X160405238Y-142818508D01*
X160107163Y-143086896D01*
X159836700Y-143383091D01*
X159596432Y-143704264D01*
X159388651Y-144047351D01*
X159215342Y-144409076D01*
X159078157Y-144785987D01*
X158978408Y-145174486D01*
X158917045Y-145570864D01*
X158894655Y-145971339D01*
X158911451Y-146372087D01*
X158967274Y-146769284D01*
X159061589Y-147159137D01*
X159193498Y-147537927D01*
X159361740Y-147902036D01*
X159363574Y-147905161D01*
X159363575Y-147905164D01*
X159528097Y-148185585D01*
X159564710Y-148247991D01*
X159566850Y-148250936D01*
X159566851Y-148250938D01*
X159793883Y-148563420D01*
X159821524Y-148635425D01*
X159809458Y-148711604D01*
X159760920Y-148771543D01*
X159688915Y-148799184D01*
X159673340Y-148800000D01*
X133399000Y-148800000D01*
X133324500Y-148780038D01*
X133269962Y-148725500D01*
X133250000Y-148651000D01*
X133250000Y-139924866D01*
X152699500Y-139924866D01*
X152710359Y-140029519D01*
X152765744Y-140195529D01*
X152857834Y-140344345D01*
X152863953Y-140350454D01*
X152863956Y-140350457D01*
X152892927Y-140379377D01*
X152981689Y-140467984D01*
X153130666Y-140559814D01*
X153138880Y-140562538D01*
X153138881Y-140562539D01*
X153289044Y-140612347D01*
X153289047Y-140612348D01*
X153296772Y-140614910D01*
X153304869Y-140615740D01*
X153304871Y-140615740D01*
X153396345Y-140625112D01*
X153396349Y-140625112D01*
X153400134Y-140625500D01*
X154749866Y-140625500D01*
X154753697Y-140625102D01*
X154753706Y-140625102D01*
X154846407Y-140615483D01*
X154846410Y-140615482D01*
X154854519Y-140614641D01*
X154862254Y-140612060D01*
X154862256Y-140612060D01*
X155012320Y-140561995D01*
X155012322Y-140561994D01*
X155020529Y-140559256D01*
X155169345Y-140467166D01*
X155175454Y-140461047D01*
X155175457Y-140461044D01*
X155256981Y-140379377D01*
X155323742Y-140340755D01*
X155400870Y-140340687D01*
X155467699Y-140379193D01*
X155550521Y-140461870D01*
X155581689Y-140492984D01*
X155589058Y-140497526D01*
X155682740Y-140555272D01*
X155730666Y-140584814D01*
X155738880Y-140587538D01*
X155738881Y-140587539D01*
X155889044Y-140637347D01*
X155889047Y-140637348D01*
X155896772Y-140639910D01*
X155904869Y-140640740D01*
X155904871Y-140640740D01*
X155996345Y-140650112D01*
X155996349Y-140650112D01*
X156000134Y-140650500D01*
X157399866Y-140650500D01*
X157403697Y-140650102D01*
X157403706Y-140650102D01*
X157496407Y-140640483D01*
X157496410Y-140640482D01*
X157504519Y-140639641D01*
X157512254Y-140637060D01*
X157512256Y-140637060D01*
X157662320Y-140586995D01*
X157662322Y-140586994D01*
X157670529Y-140584256D01*
X157819345Y-140492166D01*
X157825454Y-140486047D01*
X157825457Y-140486044D01*
X157936870Y-140374436D01*
X157936871Y-140374434D01*
X157942984Y-140368311D01*
X158034814Y-140219334D01*
X158089910Y-140053228D01*
X158091547Y-140037256D01*
X158100112Y-139953655D01*
X158100112Y-139953651D01*
X158100500Y-139949866D01*
X158100500Y-139200134D01*
X158090616Y-139104871D01*
X158090483Y-139103593D01*
X158090482Y-139103590D01*
X158089641Y-139095481D01*
X158087060Y-139087744D01*
X158036995Y-138937680D01*
X158036994Y-138937678D01*
X158034256Y-138929471D01*
X157942166Y-138780655D01*
X157936047Y-138774546D01*
X157936044Y-138774543D01*
X157824436Y-138663130D01*
X157824434Y-138663129D01*
X157818311Y-138657016D01*
X157669334Y-138565186D01*
X157661119Y-138562461D01*
X157510956Y-138512653D01*
X157510953Y-138512652D01*
X157503228Y-138510090D01*
X157495131Y-138509260D01*
X157495129Y-138509260D01*
X157403655Y-138499888D01*
X157403651Y-138499888D01*
X157399866Y-138499500D01*
X156000134Y-138499500D01*
X155996303Y-138499898D01*
X155996294Y-138499898D01*
X155903593Y-138509517D01*
X155903590Y-138509518D01*
X155895481Y-138510359D01*
X155887746Y-138512940D01*
X155887744Y-138512940D01*
X155737680Y-138563005D01*
X155737678Y-138563006D01*
X155729471Y-138565744D01*
X155580655Y-138657834D01*
X155574546Y-138663953D01*
X155574543Y-138663956D01*
X155480519Y-138758145D01*
X155413758Y-138796767D01*
X155336630Y-138796835D01*
X155269801Y-138758329D01*
X155174436Y-138663130D01*
X155174434Y-138663129D01*
X155168311Y-138657016D01*
X155019334Y-138565186D01*
X155011119Y-138562461D01*
X154860956Y-138512653D01*
X154860953Y-138512652D01*
X154853228Y-138510090D01*
X154845131Y-138509260D01*
X154845129Y-138509260D01*
X154753655Y-138499888D01*
X154753651Y-138499888D01*
X154749866Y-138499500D01*
X153400134Y-138499500D01*
X153396303Y-138499898D01*
X153396294Y-138499898D01*
X153303593Y-138509517D01*
X153303590Y-138509518D01*
X153295481Y-138510359D01*
X153287746Y-138512940D01*
X153287744Y-138512940D01*
X153137680Y-138563005D01*
X153137678Y-138563006D01*
X153129471Y-138565744D01*
X152980655Y-138657834D01*
X152974546Y-138663953D01*
X152974543Y-138663956D01*
X152863130Y-138775564D01*
X152857016Y-138781689D01*
X152765186Y-138930666D01*
X152762462Y-138938880D01*
X152762461Y-138938881D01*
X152713085Y-139087744D01*
X152710090Y-139096772D01*
X152699500Y-139200134D01*
X152699500Y-139924866D01*
X133250000Y-139924866D01*
X133250000Y-136061718D01*
X133269962Y-135987218D01*
X133293641Y-135956359D01*
X136956359Y-132293641D01*
X137023154Y-132255077D01*
X137061718Y-132250000D01*
X153800500Y-132250000D01*
X153875000Y-132269962D01*
G37*
%TD.AperFunction*%
%TD*%
%TA.AperFunction,Conductor*%
%TO.N,+5VA*%
G36*
X134894758Y-95594962D02*
G01*
X134944233Y-95641350D01*
X135124975Y-95912463D01*
X135149691Y-95985523D01*
X135150000Y-95995113D01*
X135150000Y-98204888D01*
X135130038Y-98279388D01*
X135124989Y-98287517D01*
X135044233Y-98408651D01*
X134986298Y-98459565D01*
X134920258Y-98475000D01*
X134457177Y-98475000D01*
X134382677Y-98455038D01*
X134357501Y-98436751D01*
X134199324Y-98294392D01*
X134157303Y-98229716D01*
X134150000Y-98183641D01*
X134150000Y-95995113D01*
X134169962Y-95920613D01*
X134175025Y-95912463D01*
X134355767Y-95641350D01*
X134413701Y-95590435D01*
X134479742Y-95575000D01*
X134820258Y-95575000D01*
X134894758Y-95594962D01*
G37*
%TD.AperFunction*%
%TD*%
%TA.AperFunction,Conductor*%
%TO.N,/2. MCU/VCAP*%
G36*
X154825001Y-82594962D02*
G01*
X154879539Y-82649500D01*
X154899501Y-82723999D01*
X154899501Y-83302132D01*
X154899833Y-83303803D01*
X154900000Y-83307199D01*
X154900000Y-84250000D01*
X154956359Y-84306359D01*
X154994923Y-84373154D01*
X155000000Y-84411718D01*
X155000000Y-84955081D01*
X154980038Y-85029581D01*
X154925500Y-85084119D01*
X154855137Y-85104024D01*
X154779887Y-85106114D01*
X154253137Y-85120746D01*
X154178112Y-85102860D01*
X154122081Y-85049857D01*
X154100000Y-84971803D01*
X154100000Y-83753946D01*
X154119962Y-83679446D01*
X154134536Y-83658558D01*
X154179909Y-83604111D01*
X154242938Y-83559658D01*
X154294371Y-83550499D01*
X154352132Y-83550499D01*
X154353802Y-83550167D01*
X154357200Y-83550000D01*
X154500000Y-83550000D01*
X154600000Y-83400000D01*
X154600000Y-83307211D01*
X154600167Y-83303806D01*
X154600500Y-83302133D01*
X154600500Y-82723998D01*
X154620461Y-82649500D01*
X154674999Y-82594962D01*
X154749499Y-82575000D01*
X154750501Y-82575000D01*
X154825001Y-82594962D01*
G37*
%TD.AperFunction*%
%TD*%
%TA.AperFunction,Conductor*%
%TO.N,+5VA*%
G36*
X151863281Y-91770461D02*
G01*
X151894140Y-91794140D01*
X151906359Y-91806359D01*
X151944923Y-91873154D01*
X151950000Y-91911718D01*
X151950000Y-95163282D01*
X151930038Y-95237782D01*
X151906359Y-95268641D01*
X151743641Y-95431359D01*
X151676846Y-95469923D01*
X151638282Y-95475000D01*
X150811718Y-95475000D01*
X150737218Y-95455038D01*
X150706359Y-95431359D01*
X150543641Y-95268641D01*
X150505077Y-95201846D01*
X150500000Y-95163282D01*
X150500000Y-91911718D01*
X150519962Y-91837218D01*
X150543641Y-91806359D01*
X150555859Y-91794141D01*
X150622654Y-91755577D01*
X150661218Y-91750500D01*
X151253097Y-91750499D01*
X151788781Y-91750499D01*
X151863281Y-91770461D01*
G37*
%TD.AperFunction*%
%TD*%
%TA.AperFunction,Conductor*%
%TO.N,IN+*%
G36*
X163012782Y-122269962D02*
G01*
X163043641Y-122293641D01*
X166706359Y-125956359D01*
X166744923Y-126023154D01*
X166750000Y-126061718D01*
X166750000Y-129188282D01*
X166730038Y-129262782D01*
X166706359Y-129293641D01*
X164793641Y-131206359D01*
X164726846Y-131244923D01*
X164688282Y-131250000D01*
X135311718Y-131250000D01*
X135237218Y-131230038D01*
X135206359Y-131206359D01*
X133293641Y-129293641D01*
X133255077Y-129226846D01*
X133250000Y-129188282D01*
X133250000Y-126061718D01*
X133269962Y-125987218D01*
X133293641Y-125956359D01*
X136956359Y-122293641D01*
X137023154Y-122255077D01*
X137061718Y-122250000D01*
X162938282Y-122250000D01*
X163012782Y-122269962D01*
G37*
%TD.AperFunction*%
%TD*%
%TA.AperFunction,Conductor*%
%TO.N,+3V3*%
G36*
X149325001Y-82769962D02*
G01*
X149379539Y-82824500D01*
X149399501Y-82898999D01*
X149399501Y-83302132D01*
X149399833Y-83303802D01*
X149400000Y-83307199D01*
X149400000Y-84563282D01*
X149380038Y-84637782D01*
X149356359Y-84668641D01*
X148943641Y-85081359D01*
X148876846Y-85119923D01*
X148838282Y-85125000D01*
X147911718Y-85125000D01*
X147837218Y-85105038D01*
X147806359Y-85081359D01*
X147643641Y-84918641D01*
X147605077Y-84851846D01*
X147600000Y-84813282D01*
X147600000Y-83857604D01*
X147619962Y-83783104D01*
X147638749Y-83757376D01*
X147782480Y-83599272D01*
X147847365Y-83557574D01*
X147892731Y-83550500D01*
X148200488Y-83550500D01*
X148208602Y-83550897D01*
X148220168Y-83554246D01*
X148233874Y-83553059D01*
X148233875Y-83553059D01*
X148257001Y-83551056D01*
X148269857Y-83550500D01*
X148277948Y-83550500D01*
X148277950Y-83550499D01*
X148352132Y-83550499D01*
X148432495Y-83534515D01*
X148433644Y-83533747D01*
X148477621Y-83525000D01*
X148522378Y-83525000D01*
X148566357Y-83533748D01*
X148567505Y-83534515D01*
X148581901Y-83537379D01*
X148581902Y-83537379D01*
X148637828Y-83548503D01*
X148647867Y-83550500D01*
X148655192Y-83550500D01*
X148750062Y-83550499D01*
X148852132Y-83550499D01*
X148932495Y-83534515D01*
X148949500Y-83523153D01*
X149011421Y-83481778D01*
X149023624Y-83473624D01*
X149084515Y-83382495D01*
X149087378Y-83368102D01*
X149091253Y-83358747D01*
X149100000Y-83350000D01*
X149100000Y-83307211D01*
X149100167Y-83303806D01*
X149100500Y-83302133D01*
X149100500Y-82899000D01*
X149120462Y-82824500D01*
X149175000Y-82769962D01*
X149249500Y-82750000D01*
X149250501Y-82750000D01*
X149325001Y-82769962D01*
G37*
%TD.AperFunction*%
%TD*%
%TA.AperFunction,Conductor*%
%TO.N,GND*%
G36*
X154762782Y-103069962D02*
G01*
X154793641Y-103093641D01*
X155006359Y-103306359D01*
X155044923Y-103373154D01*
X155050000Y-103411718D01*
X155050000Y-103950000D01*
X155306359Y-104206359D01*
X155344923Y-104273154D01*
X155350000Y-104311718D01*
X155350000Y-105650000D01*
X155550000Y-105850000D01*
X155809892Y-105850000D01*
X155814500Y-105850167D01*
X155816782Y-105850500D01*
X156183218Y-105850500D01*
X156185479Y-105850167D01*
X156190047Y-105850000D01*
X156500000Y-105850000D01*
X156806359Y-105543641D01*
X156873154Y-105505077D01*
X156911718Y-105500000D01*
X157741743Y-105500000D01*
X157816243Y-105519962D01*
X157842806Y-105539513D01*
X157970279Y-105657180D01*
X158077064Y-105755751D01*
X158118267Y-105820951D01*
X158125000Y-105865237D01*
X158125000Y-106488282D01*
X158105038Y-106562782D01*
X158081359Y-106593641D01*
X158018641Y-106656359D01*
X157951846Y-106694923D01*
X157913282Y-106700000D01*
X155111718Y-106700000D01*
X155037218Y-106680038D01*
X155006359Y-106656359D01*
X154793641Y-106443641D01*
X154755077Y-106376846D01*
X154750000Y-106338282D01*
X154750000Y-104550000D01*
X154600000Y-104400000D01*
X154211718Y-104400000D01*
X154137218Y-104380038D01*
X154106359Y-104356359D01*
X153893641Y-104143641D01*
X153855077Y-104076846D01*
X153850000Y-104038282D01*
X153850000Y-103361718D01*
X153869962Y-103287218D01*
X153893641Y-103256359D01*
X154056359Y-103093641D01*
X154123154Y-103055077D01*
X154161718Y-103050000D01*
X154688282Y-103050000D01*
X154762782Y-103069962D01*
G37*
%TD.AperFunction*%
%TD*%
%TA.AperFunction,Conductor*%
%TO.N,+12VA*%
G36*
X156058587Y-103044962D02*
G01*
X156094338Y-103073772D01*
X156254546Y-103250000D01*
X156261251Y-103257376D01*
X156296594Y-103325929D01*
X156300000Y-103357604D01*
X156300000Y-105251000D01*
X156280038Y-105325500D01*
X156225500Y-105380038D01*
X156151000Y-105400000D01*
X155849000Y-105400000D01*
X155774500Y-105380038D01*
X155719962Y-105325500D01*
X155700000Y-105251000D01*
X155700000Y-104225000D01*
X155443641Y-103968641D01*
X155405077Y-103901846D01*
X155400000Y-103863282D01*
X155400000Y-103316359D01*
X155419962Y-103241859D01*
X155449324Y-103205608D01*
X155607501Y-103063249D01*
X155676231Y-103028249D01*
X155707177Y-103025000D01*
X155984087Y-103025000D01*
X156058587Y-103044962D01*
G37*
%TD.AperFunction*%
%TD*%
%TA.AperFunction,Conductor*%
%TO.N,+3V3*%
G36*
X158462782Y-68169962D02*
G01*
X158493641Y-68193641D01*
X158656359Y-68356359D01*
X158694923Y-68423154D01*
X158700000Y-68461718D01*
X158700000Y-69438282D01*
X158680038Y-69512782D01*
X158656359Y-69543641D01*
X158543641Y-69656359D01*
X158476846Y-69694923D01*
X158438282Y-69700000D01*
X156536718Y-69700000D01*
X156462218Y-69680038D01*
X156431359Y-69656359D01*
X156318641Y-69543641D01*
X156280077Y-69476846D01*
X156275000Y-69438282D01*
X156275000Y-68416911D01*
X156294962Y-68342411D01*
X156325010Y-68305547D01*
X156457660Y-68187636D01*
X156526604Y-68153061D01*
X156556650Y-68150000D01*
X158388282Y-68150000D01*
X158462782Y-68169962D01*
G37*
%TD.AperFunction*%
%TD*%
%TA.AperFunction,Conductor*%
%TO.N,+3V3*%
G36*
X157687782Y-81819962D02*
G01*
X157718641Y-81843641D01*
X158231359Y-82356359D01*
X158269923Y-82423154D01*
X158275000Y-82461718D01*
X158275000Y-83522734D01*
X158255038Y-83597234D01*
X158242349Y-83615814D01*
X158119736Y-83769080D01*
X158057609Y-83814784D01*
X158003387Y-83825000D01*
X157557177Y-83825000D01*
X157482677Y-83805038D01*
X157457501Y-83786751D01*
X157252910Y-83602619D01*
X157247227Y-83597227D01*
X157000000Y-83350000D01*
X155777266Y-83350000D01*
X155702766Y-83330038D01*
X155684186Y-83317349D01*
X155656420Y-83295136D01*
X155610716Y-83233008D01*
X155600500Y-83178787D01*
X155600499Y-81961219D01*
X155620461Y-81886719D01*
X155644140Y-81855860D01*
X155656359Y-81843641D01*
X155723154Y-81805077D01*
X155761718Y-81800000D01*
X157613282Y-81800000D01*
X157687782Y-81819962D01*
G37*
%TD.AperFunction*%
%TD*%
%TA.AperFunction,Conductor*%
%TO.N,GND*%
G36*
X148825001Y-71819962D02*
G01*
X148879539Y-71874500D01*
X148896487Y-71937752D01*
X148898783Y-71937526D01*
X148899501Y-71944814D01*
X148899501Y-71952132D01*
X148915485Y-72032495D01*
X148976376Y-72123624D01*
X148988579Y-72131778D01*
X149067505Y-72184515D01*
X149065582Y-72187393D01*
X149107587Y-72219623D01*
X149137105Y-72290879D01*
X149136606Y-72333255D01*
X149119391Y-72443823D01*
X149137980Y-72585979D01*
X149195720Y-72717203D01*
X149202551Y-72725330D01*
X149202552Y-72725331D01*
X149242563Y-72772930D01*
X149287970Y-72826948D01*
X149321145Y-72849031D01*
X149384171Y-72890985D01*
X149407313Y-72906390D01*
X149417442Y-72909554D01*
X149417443Y-72909555D01*
X149437731Y-72915893D01*
X149544157Y-72949142D01*
X149554764Y-72949336D01*
X149554767Y-72949337D01*
X149617020Y-72950478D01*
X149687499Y-72951770D01*
X149757109Y-72932792D01*
X149815574Y-72916853D01*
X149815577Y-72916852D01*
X149825817Y-72914060D01*
X149834862Y-72908506D01*
X149834865Y-72908505D01*
X149925346Y-72852949D01*
X149947991Y-72839045D01*
X150001958Y-72779423D01*
X150066751Y-72737587D01*
X150143784Y-72733751D01*
X150212414Y-72768946D01*
X150226481Y-72783539D01*
X150262970Y-72826948D01*
X150296145Y-72849031D01*
X150359171Y-72890985D01*
X150382313Y-72906390D01*
X150392442Y-72909554D01*
X150392443Y-72909555D01*
X150412731Y-72915893D01*
X150519157Y-72949142D01*
X150529764Y-72949336D01*
X150529767Y-72949337D01*
X150592020Y-72950478D01*
X150662499Y-72951770D01*
X150732109Y-72932792D01*
X150790574Y-72916853D01*
X150790577Y-72916852D01*
X150800817Y-72914060D01*
X150809862Y-72908506D01*
X150809865Y-72908505D01*
X150922991Y-72839045D01*
X150924942Y-72842222D01*
X150976807Y-72818387D01*
X151053603Y-72825536D01*
X151084428Y-72841232D01*
X151167843Y-72896758D01*
X151182313Y-72906390D01*
X151192442Y-72909554D01*
X151192443Y-72909555D01*
X151212731Y-72915893D01*
X151319157Y-72949142D01*
X151329764Y-72949336D01*
X151329767Y-72949337D01*
X151392020Y-72950478D01*
X151462499Y-72951770D01*
X151532109Y-72932792D01*
X151590574Y-72916853D01*
X151590577Y-72916852D01*
X151600817Y-72914060D01*
X151609862Y-72908506D01*
X151609865Y-72908505D01*
X151700346Y-72852949D01*
X151722991Y-72839045D01*
X151763173Y-72794652D01*
X151812077Y-72740624D01*
X151812078Y-72740622D01*
X151819200Y-72732754D01*
X151881710Y-72603733D01*
X151905496Y-72462354D01*
X151905647Y-72450000D01*
X151891599Y-72351906D01*
X151900798Y-72275328D01*
X151947054Y-72213610D01*
X152017971Y-72183288D01*
X152068162Y-72184646D01*
X152114289Y-72193821D01*
X152147867Y-72200500D01*
X152155192Y-72200500D01*
X152250062Y-72200499D01*
X152352132Y-72200499D01*
X152407458Y-72189495D01*
X152418101Y-72187378D01*
X152432495Y-72184515D01*
X152443794Y-72176965D01*
X152519452Y-72167006D01*
X152555931Y-72176781D01*
X152567505Y-72184515D01*
X152581896Y-72187378D01*
X152581897Y-72187378D01*
X152614289Y-72193821D01*
X152647867Y-72200500D01*
X152655192Y-72200500D01*
X152750062Y-72200499D01*
X152852132Y-72200499D01*
X152907458Y-72189495D01*
X152918101Y-72187378D01*
X152932495Y-72184515D01*
X152943794Y-72176965D01*
X153019452Y-72167006D01*
X153055931Y-72176781D01*
X153067505Y-72184515D01*
X153081896Y-72187378D01*
X153081897Y-72187378D01*
X153114289Y-72193821D01*
X153147867Y-72200500D01*
X153155192Y-72200500D01*
X153250062Y-72200499D01*
X153352132Y-72200499D01*
X153407458Y-72189495D01*
X153418101Y-72187378D01*
X153432495Y-72184515D01*
X153443794Y-72176965D01*
X153519452Y-72167006D01*
X153555931Y-72176781D01*
X153567505Y-72184515D01*
X153581896Y-72187378D01*
X153581897Y-72187378D01*
X153614289Y-72193821D01*
X153647867Y-72200500D01*
X153655192Y-72200500D01*
X153750062Y-72200499D01*
X153852132Y-72200499D01*
X153907458Y-72189495D01*
X153918101Y-72187378D01*
X153932495Y-72184515D01*
X153943794Y-72176965D01*
X154019452Y-72167006D01*
X154055931Y-72176781D01*
X154067505Y-72184515D01*
X154081896Y-72187378D01*
X154081897Y-72187378D01*
X154114289Y-72193821D01*
X154147867Y-72200500D01*
X154155192Y-72200500D01*
X154250062Y-72200499D01*
X154352132Y-72200499D01*
X154407458Y-72189495D01*
X154418101Y-72187378D01*
X154432495Y-72184515D01*
X154443794Y-72176965D01*
X154519452Y-72167006D01*
X154555931Y-72176781D01*
X154567505Y-72184515D01*
X154581896Y-72187378D01*
X154581897Y-72187378D01*
X154614289Y-72193821D01*
X154647867Y-72200500D01*
X154655192Y-72200500D01*
X154750062Y-72200499D01*
X154852132Y-72200499D01*
X154907458Y-72189495D01*
X154918101Y-72187378D01*
X154932495Y-72184515D01*
X154943794Y-72176965D01*
X155019452Y-72167006D01*
X155055931Y-72176781D01*
X155067505Y-72184515D01*
X155081896Y-72187378D01*
X155081897Y-72187378D01*
X155114289Y-72193821D01*
X155147867Y-72200500D01*
X155155192Y-72200500D01*
X155250062Y-72200499D01*
X155352132Y-72200499D01*
X155407458Y-72189495D01*
X155418101Y-72187378D01*
X155432495Y-72184515D01*
X155443794Y-72176965D01*
X155519452Y-72167006D01*
X155555931Y-72176781D01*
X155567505Y-72184515D01*
X155581896Y-72187378D01*
X155581897Y-72187378D01*
X155614289Y-72193821D01*
X155647867Y-72200500D01*
X155655192Y-72200500D01*
X155750062Y-72200499D01*
X155852132Y-72200499D01*
X155932495Y-72184515D01*
X155944695Y-72176363D01*
X155944698Y-72176362D01*
X155967719Y-72160979D01*
X156040754Y-72136186D01*
X156116400Y-72151232D01*
X156174388Y-72202086D01*
X156199181Y-72275121D01*
X156199500Y-72284867D01*
X156199500Y-73873605D01*
X156199394Y-73875042D01*
X156197575Y-73880342D01*
X156198059Y-73893233D01*
X156199395Y-73928829D01*
X156199500Y-73934418D01*
X156199500Y-73952948D01*
X156200430Y-73957943D01*
X156200566Y-73960047D01*
X156201774Y-73992208D01*
X156207205Y-74004850D01*
X156209127Y-74013377D01*
X156212272Y-74021527D01*
X156214791Y-74035053D01*
X156226844Y-74054607D01*
X156236896Y-74073958D01*
X156245964Y-74095063D01*
X156249978Y-74099949D01*
X156251742Y-74101713D01*
X156258111Y-74112177D01*
X156257025Y-74112838D01*
X156285895Y-74169019D01*
X156282124Y-74246054D01*
X156240341Y-74310884D01*
X156171740Y-74346136D01*
X156140259Y-74349500D01*
X156126395Y-74349500D01*
X156124958Y-74349394D01*
X156119658Y-74347575D01*
X156074508Y-74349270D01*
X156071170Y-74349395D01*
X156065581Y-74349500D01*
X156047052Y-74349500D01*
X156042057Y-74350430D01*
X156039954Y-74350566D01*
X156007791Y-74351774D01*
X155995153Y-74357204D01*
X155986629Y-74359125D01*
X155978473Y-74362272D01*
X155964947Y-74364791D01*
X155945393Y-74376844D01*
X155926042Y-74386896D01*
X155904937Y-74395964D01*
X155900051Y-74399978D01*
X155897479Y-74402550D01*
X155894778Y-74404999D01*
X155894353Y-74404530D01*
X155891379Y-74406881D01*
X155891553Y-74407073D01*
X155881361Y-74416314D01*
X155869652Y-74423532D01*
X155861327Y-74434480D01*
X155861326Y-74434481D01*
X155854037Y-74444067D01*
X155840791Y-74459238D01*
X155423856Y-74876173D01*
X155422766Y-74877114D01*
X155417731Y-74879575D01*
X155408960Y-74889030D01*
X155408959Y-74889031D01*
X155384735Y-74915145D01*
X155380857Y-74919172D01*
X155367752Y-74932277D01*
X155364878Y-74936466D01*
X155363485Y-74938052D01*
X155341599Y-74961646D01*
X155336500Y-74974427D01*
X155331828Y-74981817D01*
X155328289Y-74989803D01*
X155320508Y-75001146D01*
X155315206Y-75023489D01*
X155308627Y-75044292D01*
X155300117Y-75065622D01*
X155299500Y-75071915D01*
X155299500Y-75075552D01*
X155299322Y-75079193D01*
X155298689Y-75079162D01*
X155298248Y-75082927D01*
X155298508Y-75082940D01*
X155297836Y-75096683D01*
X155294660Y-75110066D01*
X155296515Y-75123696D01*
X155298139Y-75135629D01*
X155299500Y-75155722D01*
X155299500Y-77102732D01*
X155279538Y-77177232D01*
X155262181Y-77201365D01*
X155177377Y-77297388D01*
X155116447Y-77427163D01*
X155114814Y-77437651D01*
X155097654Y-77547868D01*
X155094391Y-77568823D01*
X155105071Y-77650496D01*
X155108341Y-77675500D01*
X155112980Y-77710979D01*
X155170720Y-77842203D01*
X155177551Y-77850330D01*
X155177552Y-77850331D01*
X155256141Y-77943824D01*
X155262970Y-77951948D01*
X155382313Y-78031390D01*
X155392442Y-78034554D01*
X155392443Y-78034555D01*
X155415804Y-78041853D01*
X155519157Y-78074142D01*
X155529764Y-78074336D01*
X155529767Y-78074337D01*
X155592020Y-78075478D01*
X155662499Y-78076770D01*
X155741646Y-78055192D01*
X155790574Y-78041853D01*
X155790577Y-78041852D01*
X155800817Y-78039060D01*
X155809862Y-78033506D01*
X155809865Y-78033505D01*
X155913942Y-77969601D01*
X155922991Y-77964045D01*
X155982399Y-77898412D01*
X156012077Y-77865624D01*
X156012078Y-77865622D01*
X156019200Y-77857754D01*
X156081710Y-77728733D01*
X156090666Y-77675500D01*
X156104542Y-77593027D01*
X156104543Y-77593021D01*
X156105496Y-77587354D01*
X156105647Y-77575000D01*
X156101761Y-77547867D01*
X156086828Y-77443590D01*
X156086828Y-77443589D01*
X156085323Y-77433082D01*
X156039589Y-77332495D01*
X156030378Y-77312235D01*
X156030376Y-77312232D01*
X156025984Y-77302572D01*
X156019056Y-77294532D01*
X156019053Y-77294527D01*
X155936623Y-77198863D01*
X155903115Y-77129394D01*
X155900500Y-77101602D01*
X155900500Y-75311189D01*
X155920462Y-75236689D01*
X155944141Y-75205830D01*
X156155830Y-74994141D01*
X156222625Y-74955577D01*
X156261189Y-74950500D01*
X156550500Y-74950500D01*
X156625000Y-74970462D01*
X156679538Y-75025000D01*
X156699500Y-75099499D01*
X156699501Y-75199883D01*
X156699501Y-75252132D01*
X156715485Y-75332495D01*
X156723035Y-75343794D01*
X156732994Y-75419452D01*
X156723219Y-75455931D01*
X156715485Y-75467505D01*
X156699500Y-75547867D01*
X156699501Y-75752132D01*
X156715485Y-75832495D01*
X156723035Y-75843794D01*
X156732994Y-75919452D01*
X156723219Y-75955931D01*
X156715485Y-75967505D01*
X156699500Y-76047867D01*
X156699501Y-76252132D01*
X156715485Y-76332495D01*
X156723035Y-76343794D01*
X156732994Y-76419452D01*
X156723219Y-76455931D01*
X156715485Y-76467505D01*
X156712622Y-76481896D01*
X156712622Y-76481897D01*
X156701509Y-76537769D01*
X156699500Y-76547867D01*
X156699501Y-76752132D01*
X156715485Y-76832495D01*
X156723035Y-76843794D01*
X156732994Y-76919452D01*
X156723219Y-76955931D01*
X156715485Y-76967505D01*
X156699500Y-77047867D01*
X156699501Y-77252132D01*
X156715485Y-77332495D01*
X156723035Y-77343794D01*
X156732994Y-77419452D01*
X156723219Y-77455931D01*
X156715485Y-77467505D01*
X156699500Y-77547867D01*
X156699501Y-77752132D01*
X156715485Y-77832495D01*
X156723035Y-77843794D01*
X156732994Y-77919452D01*
X156723219Y-77955931D01*
X156715485Y-77967505D01*
X156699500Y-78047867D01*
X156699501Y-78252132D01*
X156715485Y-78332495D01*
X156723035Y-78343794D01*
X156732994Y-78419452D01*
X156723219Y-78455931D01*
X156715485Y-78467505D01*
X156712622Y-78481896D01*
X156712622Y-78481897D01*
X156705336Y-78518529D01*
X156699500Y-78547867D01*
X156699500Y-78555192D01*
X156699501Y-78744893D01*
X156679539Y-78819393D01*
X156628688Y-78871731D01*
X156620393Y-78876844D01*
X156601042Y-78886896D01*
X156579937Y-78895964D01*
X156575051Y-78899978D01*
X156572479Y-78902550D01*
X156569778Y-78904999D01*
X156569353Y-78904530D01*
X156566379Y-78906881D01*
X156566553Y-78907073D01*
X156556361Y-78916314D01*
X156544652Y-78923532D01*
X156536327Y-78934480D01*
X156536326Y-78934481D01*
X156529037Y-78944067D01*
X156515791Y-78959238D01*
X156323856Y-79151173D01*
X156322766Y-79152114D01*
X156317731Y-79154575D01*
X156308960Y-79164030D01*
X156308959Y-79164031D01*
X156284735Y-79190145D01*
X156280857Y-79194172D01*
X156267752Y-79207277D01*
X156264878Y-79211466D01*
X156263485Y-79213052D01*
X156241599Y-79236646D01*
X156236500Y-79249427D01*
X156231828Y-79256817D01*
X156228289Y-79264803D01*
X156220508Y-79276146D01*
X156215206Y-79298489D01*
X156208627Y-79319292D01*
X156200117Y-79340622D01*
X156199500Y-79346915D01*
X156199500Y-79350552D01*
X156199322Y-79354193D01*
X156198689Y-79354162D01*
X156198248Y-79357927D01*
X156198508Y-79357940D01*
X156197836Y-79371683D01*
X156194660Y-79385066D01*
X156196515Y-79398696D01*
X156198139Y-79410629D01*
X156199500Y-79430722D01*
X156199500Y-80848605D01*
X156199394Y-80850042D01*
X156197575Y-80855342D01*
X156198059Y-80868233D01*
X156199395Y-80903829D01*
X156199500Y-80909418D01*
X156199500Y-80927948D01*
X156200430Y-80932943D01*
X156200566Y-80935047D01*
X156201774Y-80967208D01*
X156207205Y-80979850D01*
X156209127Y-80988377D01*
X156212272Y-80996527D01*
X156214791Y-81010053D01*
X156226844Y-81029607D01*
X156236896Y-81048958D01*
X156245964Y-81070063D01*
X156249978Y-81074949D01*
X156252550Y-81077521D01*
X156254999Y-81080222D01*
X156254530Y-81080647D01*
X156256881Y-81083621D01*
X156257073Y-81083447D01*
X156266314Y-81093639D01*
X156273532Y-81105348D01*
X156284480Y-81113673D01*
X156284481Y-81113674D01*
X156294067Y-81120963D01*
X156309238Y-81134209D01*
X156501175Y-81326147D01*
X156502114Y-81327235D01*
X156504575Y-81332269D01*
X156514809Y-81341762D01*
X156515224Y-81342422D01*
X156515434Y-81342666D01*
X156522861Y-81352666D01*
X156522044Y-81353273D01*
X156555852Y-81407061D01*
X156558747Y-81484135D01*
X156522717Y-81552330D01*
X156457417Y-81593374D01*
X156413478Y-81600000D01*
X155857210Y-81600000D01*
X155853807Y-81599833D01*
X155852133Y-81599500D01*
X155768190Y-81599500D01*
X155647868Y-81599501D01*
X155567505Y-81615485D01*
X155555305Y-81623637D01*
X155555303Y-81623638D01*
X155498952Y-81661291D01*
X155476376Y-81676376D01*
X155415485Y-81767505D01*
X155412622Y-81781896D01*
X155412622Y-81781897D01*
X155400927Y-81840692D01*
X155399500Y-81847867D01*
X155399500Y-81855181D01*
X155398782Y-81862472D01*
X155396487Y-81862246D01*
X155379538Y-81925500D01*
X155325000Y-81980038D01*
X155250500Y-82000000D01*
X155249499Y-82000000D01*
X155174999Y-81980038D01*
X155120461Y-81925500D01*
X155103513Y-81862248D01*
X155101217Y-81862474D01*
X155100499Y-81855186D01*
X155100499Y-81847868D01*
X155084515Y-81767505D01*
X155051252Y-81717723D01*
X155031778Y-81688579D01*
X155023624Y-81676376D01*
X154932495Y-81615485D01*
X154918104Y-81612622D01*
X154918103Y-81612622D01*
X154859317Y-81600929D01*
X154852133Y-81599500D01*
X154844808Y-81599500D01*
X154749938Y-81599501D01*
X154647868Y-81599501D01*
X154567505Y-81615485D01*
X154556206Y-81623035D01*
X154480548Y-81632994D01*
X154444069Y-81623219D01*
X154432495Y-81615485D01*
X154418104Y-81612622D01*
X154418103Y-81612622D01*
X154359317Y-81600929D01*
X154352133Y-81599500D01*
X154344808Y-81599500D01*
X154249938Y-81599501D01*
X154147868Y-81599501D01*
X154067505Y-81615485D01*
X154056206Y-81623035D01*
X153980548Y-81632994D01*
X153944069Y-81623219D01*
X153932495Y-81615485D01*
X153918104Y-81612622D01*
X153918103Y-81612622D01*
X153859317Y-81600929D01*
X153852133Y-81599500D01*
X153844808Y-81599500D01*
X153749938Y-81599501D01*
X153647868Y-81599501D01*
X153567505Y-81615485D01*
X153556206Y-81623035D01*
X153480548Y-81632994D01*
X153444069Y-81623219D01*
X153432495Y-81615485D01*
X153418104Y-81612622D01*
X153418103Y-81612622D01*
X153359317Y-81600929D01*
X153352133Y-81599500D01*
X153344808Y-81599500D01*
X153249938Y-81599501D01*
X153147868Y-81599501D01*
X153067505Y-81615485D01*
X153056206Y-81623035D01*
X152980548Y-81632994D01*
X152944069Y-81623219D01*
X152932495Y-81615485D01*
X152918104Y-81612622D01*
X152918103Y-81612622D01*
X152859317Y-81600929D01*
X152852133Y-81599500D01*
X152844808Y-81599500D01*
X152749938Y-81599501D01*
X152647868Y-81599501D01*
X152567505Y-81615485D01*
X152556206Y-81623035D01*
X152480548Y-81632994D01*
X152444069Y-81623219D01*
X152432495Y-81615485D01*
X152418104Y-81612622D01*
X152418103Y-81612622D01*
X152359317Y-81600929D01*
X152352133Y-81599500D01*
X152344808Y-81599500D01*
X152249938Y-81599501D01*
X152147868Y-81599501D01*
X152067505Y-81615485D01*
X152056206Y-81623035D01*
X151980548Y-81632994D01*
X151944069Y-81623219D01*
X151932495Y-81615485D01*
X151918104Y-81612622D01*
X151918103Y-81612622D01*
X151859317Y-81600929D01*
X151852133Y-81599500D01*
X151844808Y-81599500D01*
X151749938Y-81599501D01*
X151647868Y-81599501D01*
X151567505Y-81615485D01*
X151556206Y-81623035D01*
X151480548Y-81632994D01*
X151444069Y-81623219D01*
X151432495Y-81615485D01*
X151418104Y-81612622D01*
X151418103Y-81612622D01*
X151359317Y-81600929D01*
X151352133Y-81599500D01*
X151344808Y-81599500D01*
X151249938Y-81599501D01*
X151147868Y-81599501D01*
X151067505Y-81615485D01*
X151056206Y-81623035D01*
X150980548Y-81632994D01*
X150944069Y-81623219D01*
X150932495Y-81615485D01*
X150918104Y-81612622D01*
X150918103Y-81612622D01*
X150859317Y-81600929D01*
X150852133Y-81599500D01*
X150844808Y-81599500D01*
X150749938Y-81599501D01*
X150647868Y-81599501D01*
X150567505Y-81615485D01*
X150556206Y-81623035D01*
X150480548Y-81632994D01*
X150444069Y-81623219D01*
X150432495Y-81615485D01*
X150418104Y-81612622D01*
X150418103Y-81612622D01*
X150359317Y-81600929D01*
X150352133Y-81599500D01*
X150344808Y-81599500D01*
X150249938Y-81599501D01*
X150147868Y-81599501D01*
X150067505Y-81615485D01*
X150056206Y-81623035D01*
X149980548Y-81632994D01*
X149944069Y-81623219D01*
X149932495Y-81615485D01*
X149918104Y-81612622D01*
X149918103Y-81612622D01*
X149859317Y-81600929D01*
X149852133Y-81599500D01*
X149844808Y-81599500D01*
X149749938Y-81599501D01*
X149647868Y-81599501D01*
X149567505Y-81615485D01*
X149556206Y-81623035D01*
X149480548Y-81632994D01*
X149444069Y-81623219D01*
X149432495Y-81615485D01*
X149418104Y-81612622D01*
X149418103Y-81612622D01*
X149359317Y-81600929D01*
X149352133Y-81599500D01*
X149344808Y-81599500D01*
X149249938Y-81599501D01*
X149147868Y-81599501D01*
X149067505Y-81615485D01*
X149055305Y-81623637D01*
X149055303Y-81623638D01*
X148998952Y-81661291D01*
X148976376Y-81676376D01*
X148915485Y-81767505D01*
X148912622Y-81781896D01*
X148912622Y-81781897D01*
X148900927Y-81840692D01*
X148899500Y-81847867D01*
X148899500Y-81855181D01*
X148898782Y-81862472D01*
X148896487Y-81862246D01*
X148879538Y-81925500D01*
X148825000Y-81980038D01*
X148750500Y-82000000D01*
X148749499Y-82000000D01*
X148674999Y-81980038D01*
X148620461Y-81925500D01*
X148603513Y-81862248D01*
X148601217Y-81862474D01*
X148600499Y-81855186D01*
X148600499Y-81847868D01*
X148584515Y-81767505D01*
X148551252Y-81717723D01*
X148531778Y-81688579D01*
X148523624Y-81676376D01*
X148432495Y-81615485D01*
X148418104Y-81612622D01*
X148418103Y-81612622D01*
X148359317Y-81600929D01*
X148352133Y-81599500D01*
X148344808Y-81599500D01*
X148249938Y-81599501D01*
X148147868Y-81599501D01*
X148067505Y-81615485D01*
X148055305Y-81623637D01*
X148055303Y-81623638D01*
X147985689Y-81670153D01*
X147912654Y-81694945D01*
X147837008Y-81679898D01*
X147779020Y-81629044D01*
X147757173Y-81564685D01*
X147755340Y-81564934D01*
X147751861Y-81539371D01*
X147750500Y-81519278D01*
X147750500Y-79901398D01*
X147750606Y-79899959D01*
X147752426Y-79894658D01*
X147750605Y-79846155D01*
X147750500Y-79840566D01*
X147750500Y-79822052D01*
X147749571Y-79817062D01*
X147749434Y-79814957D01*
X147748742Y-79796542D01*
X147748226Y-79782792D01*
X147742794Y-79770150D01*
X147740873Y-79761623D01*
X147737728Y-79753473D01*
X147735209Y-79739947D01*
X147723156Y-79720393D01*
X147713104Y-79701042D01*
X147704036Y-79679937D01*
X147700023Y-79675051D01*
X147697446Y-79672474D01*
X147694998Y-79669774D01*
X147695468Y-79669348D01*
X147693121Y-79666379D01*
X147692928Y-79666554D01*
X147683686Y-79656362D01*
X147676468Y-79644652D01*
X147655936Y-79629039D01*
X147640766Y-79615794D01*
X147498827Y-79473855D01*
X147497886Y-79472765D01*
X147495425Y-79467731D01*
X147459856Y-79434736D01*
X147455829Y-79430858D01*
X147442723Y-79417752D01*
X147438534Y-79414878D01*
X147436942Y-79413480D01*
X147423441Y-79400956D01*
X147413354Y-79391599D01*
X147400575Y-79386501D01*
X147393187Y-79381830D01*
X147389136Y-79380035D01*
X147386856Y-79378195D01*
X147378756Y-79373870D01*
X147373851Y-79370505D01*
X147375089Y-79368701D01*
X147329111Y-79331602D01*
X147301344Y-79259646D01*
X147300500Y-79243811D01*
X147300499Y-79055184D01*
X147300499Y-79047868D01*
X147284515Y-78967505D01*
X147242750Y-78904999D01*
X147231778Y-78888579D01*
X147223624Y-78876376D01*
X147132495Y-78815485D01*
X147118104Y-78812622D01*
X147118103Y-78812622D01*
X147059308Y-78800927D01*
X147059306Y-78800927D01*
X147052133Y-78799500D01*
X147044819Y-78799500D01*
X147037528Y-78798782D01*
X147037754Y-78796487D01*
X146974500Y-78779538D01*
X146919962Y-78725000D01*
X146900000Y-78650500D01*
X146900000Y-78649499D01*
X146919962Y-78574999D01*
X146974500Y-78520461D01*
X147037752Y-78503513D01*
X147037526Y-78501217D01*
X147044814Y-78500499D01*
X147052132Y-78500499D01*
X147132495Y-78484515D01*
X147173646Y-78457019D01*
X147211421Y-78431778D01*
X147223624Y-78423624D01*
X147284515Y-78332495D01*
X147300500Y-78252133D01*
X147300499Y-78099872D01*
X147320461Y-78025373D01*
X147374998Y-77970835D01*
X147443915Y-77950977D01*
X147447663Y-77950836D01*
X147453834Y-77950605D01*
X147459418Y-77950500D01*
X147477948Y-77950500D01*
X147482943Y-77949570D01*
X147485047Y-77949434D01*
X147517208Y-77948226D01*
X147529850Y-77942795D01*
X147538377Y-77940873D01*
X147546527Y-77937728D01*
X147560053Y-77935209D01*
X147579607Y-77923156D01*
X147598958Y-77913104D01*
X147620063Y-77904036D01*
X147624949Y-77900022D01*
X147627521Y-77897450D01*
X147630222Y-77895001D01*
X147630647Y-77895470D01*
X147633621Y-77893119D01*
X147633447Y-77892927D01*
X147643639Y-77883686D01*
X147655348Y-77876468D01*
X147670964Y-77855932D01*
X147684209Y-77840762D01*
X148076144Y-77448827D01*
X148077234Y-77447886D01*
X148082269Y-77445425D01*
X148099210Y-77427163D01*
X148115265Y-77409855D01*
X148119143Y-77405828D01*
X148132248Y-77392723D01*
X148135122Y-77388534D01*
X148136520Y-77386942D01*
X148149044Y-77373441D01*
X148158401Y-77363354D01*
X148163500Y-77350573D01*
X148168172Y-77343183D01*
X148171711Y-77335197D01*
X148179492Y-77323854D01*
X148184794Y-77301509D01*
X148191375Y-77280702D01*
X148193993Y-77274142D01*
X148199883Y-77259378D01*
X148200500Y-77253085D01*
X148200500Y-77249448D01*
X148200678Y-77245807D01*
X148201311Y-77245838D01*
X148201752Y-77242073D01*
X148201492Y-77242060D01*
X148202164Y-77228317D01*
X148205340Y-77214934D01*
X148201861Y-77189370D01*
X148200500Y-77169278D01*
X148200500Y-77021312D01*
X148220462Y-76946812D01*
X148239032Y-76921323D01*
X148312077Y-76840624D01*
X148312078Y-76840622D01*
X148319200Y-76832754D01*
X148381710Y-76703733D01*
X148384697Y-76685979D01*
X148404542Y-76568027D01*
X148404543Y-76568021D01*
X148405496Y-76562354D01*
X148405647Y-76550000D01*
X148385323Y-76408082D01*
X148350956Y-76332495D01*
X148330378Y-76287235D01*
X148330376Y-76287232D01*
X148325984Y-76277572D01*
X148319058Y-76269534D01*
X148319056Y-76269531D01*
X148241765Y-76179832D01*
X148232400Y-76168963D01*
X148223496Y-76163192D01*
X148223493Y-76163189D01*
X148156723Y-76119911D01*
X148112095Y-76090985D01*
X148036255Y-76068304D01*
X147984912Y-76052949D01*
X147984910Y-76052949D01*
X147974739Y-76049907D01*
X147964121Y-76049842D01*
X147964120Y-76049842D01*
X147904650Y-76049479D01*
X147831376Y-76049031D01*
X147821171Y-76051948D01*
X147821168Y-76051948D01*
X147703731Y-76085512D01*
X147703729Y-76085513D01*
X147693529Y-76088428D01*
X147684556Y-76094090D01*
X147684555Y-76094090D01*
X147633561Y-76126265D01*
X147572280Y-76164930D01*
X147565255Y-76172885D01*
X147565252Y-76172887D01*
X147561178Y-76177500D01*
X147496899Y-76220125D01*
X147419919Y-76224899D01*
X147350864Y-76190544D01*
X147308239Y-76126265D01*
X147300499Y-76078865D01*
X147300499Y-76047868D01*
X147284515Y-75967505D01*
X147276965Y-75956206D01*
X147267006Y-75880548D01*
X147276781Y-75844069D01*
X147284515Y-75832495D01*
X147300500Y-75752133D01*
X147300499Y-75547868D01*
X147284515Y-75467505D01*
X147276965Y-75456206D01*
X147267006Y-75380548D01*
X147276781Y-75344069D01*
X147284515Y-75332495D01*
X147300500Y-75252133D01*
X147300500Y-75150000D01*
X147300499Y-75055184D01*
X147300499Y-75047868D01*
X147284515Y-74967505D01*
X147276965Y-74956206D01*
X147267006Y-74880548D01*
X147276781Y-74844069D01*
X147284515Y-74832495D01*
X147288224Y-74813851D01*
X147322337Y-74744679D01*
X147386468Y-74701830D01*
X147458184Y-74695840D01*
X147459022Y-74695976D01*
X147469157Y-74699142D01*
X147479768Y-74699337D01*
X147479771Y-74699337D01*
X147536950Y-74700385D01*
X147612499Y-74701770D01*
X147665543Y-74687308D01*
X147740574Y-74666853D01*
X147740577Y-74666852D01*
X147750817Y-74664060D01*
X147759862Y-74658506D01*
X147759865Y-74658505D01*
X147863942Y-74594601D01*
X147872991Y-74589045D01*
X147911697Y-74546283D01*
X147962077Y-74490624D01*
X147962078Y-74490622D01*
X147969200Y-74482754D01*
X148031710Y-74353733D01*
X148035321Y-74332269D01*
X148054542Y-74218027D01*
X148054543Y-74218021D01*
X148055496Y-74212354D01*
X148055647Y-74200000D01*
X148040619Y-74095063D01*
X148036828Y-74068590D01*
X148036828Y-74068589D01*
X148035323Y-74058082D01*
X147999121Y-73978459D01*
X147980378Y-73937235D01*
X147980376Y-73937232D01*
X147975984Y-73927572D01*
X147969056Y-73919532D01*
X147969053Y-73919527D01*
X147928432Y-73872385D01*
X147894923Y-73802916D01*
X147900638Y-73726000D01*
X147930840Y-73675134D01*
X147962077Y-73640624D01*
X147962078Y-73640622D01*
X147969200Y-73632754D01*
X148031710Y-73503733D01*
X148045188Y-73423624D01*
X148054542Y-73368027D01*
X148054543Y-73368021D01*
X148055496Y-73362354D01*
X148055647Y-73350000D01*
X148035323Y-73208082D01*
X147997308Y-73124471D01*
X147980378Y-73087235D01*
X147980376Y-73087232D01*
X147975984Y-73077572D01*
X147969058Y-73069534D01*
X147969056Y-73069531D01*
X147903421Y-72993359D01*
X147882400Y-72968963D01*
X147873496Y-72963192D01*
X147873493Y-72963189D01*
X147797695Y-72914060D01*
X147762095Y-72890985D01*
X147715284Y-72876986D01*
X147634912Y-72852949D01*
X147634910Y-72852949D01*
X147624739Y-72849907D01*
X147614121Y-72849842D01*
X147614120Y-72849842D01*
X147557598Y-72849497D01*
X147481376Y-72849031D01*
X147471171Y-72851948D01*
X147469219Y-72852215D01*
X147392699Y-72842547D01*
X147331265Y-72795914D01*
X147301378Y-72724812D01*
X147300000Y-72704593D01*
X147300000Y-72308531D01*
X147319962Y-72234031D01*
X147374500Y-72179493D01*
X147449000Y-72159531D01*
X147501482Y-72169080D01*
X147503895Y-72169988D01*
X147510455Y-72173223D01*
X147541724Y-72181601D01*
X147580247Y-72191924D01*
X147580254Y-72191925D01*
X147584955Y-72193185D01*
X147612925Y-72196867D01*
X147631877Y-72199363D01*
X147631882Y-72199363D01*
X147636718Y-72200000D01*
X148142790Y-72200000D01*
X148146193Y-72200167D01*
X148147867Y-72200500D01*
X148231810Y-72200500D01*
X148352132Y-72200499D01*
X148432495Y-72184515D01*
X148446562Y-72175116D01*
X148511421Y-72131778D01*
X148523624Y-72123624D01*
X148584515Y-72032495D01*
X148587379Y-72018100D01*
X148599073Y-71959308D01*
X148599073Y-71959306D01*
X148600500Y-71952133D01*
X148600500Y-71944819D01*
X148601218Y-71937528D01*
X148603513Y-71937754D01*
X148620462Y-71874500D01*
X148675000Y-71819962D01*
X148749500Y-71800000D01*
X148750501Y-71800000D01*
X148825001Y-71819962D01*
G37*
%TD.AperFunction*%
%TA.AperFunction,Conductor*%
G36*
X157025500Y-73520462D02*
G01*
X157080038Y-73575000D01*
X157100000Y-73649500D01*
X157100000Y-73650501D01*
X157080038Y-73725001D01*
X157025500Y-73779539D01*
X156951000Y-73799501D01*
X156949500Y-73799501D01*
X156875000Y-73779539D01*
X156820462Y-73725001D01*
X156800500Y-73650501D01*
X156800500Y-73649500D01*
X156820462Y-73575000D01*
X156875000Y-73520462D01*
X156949500Y-73500500D01*
X156951000Y-73500500D01*
X157025500Y-73520462D01*
G37*
%TD.AperFunction*%
%TD*%
%TA.AperFunction,Conductor*%
%TO.N,GND*%
G36*
X139268516Y-92744962D02*
G01*
X139292131Y-92761864D01*
X139399117Y-92855477D01*
X139442039Y-92919559D01*
X139450000Y-92967611D01*
X139450000Y-97390453D01*
X139430038Y-97464953D01*
X139408960Y-97493144D01*
X139307793Y-97599500D01*
X138519048Y-98428693D01*
X138453238Y-98468914D01*
X138411089Y-98475000D01*
X136099000Y-98475000D01*
X136024500Y-98455038D01*
X135969962Y-98400500D01*
X135950000Y-98326000D01*
X135950000Y-97674000D01*
X135969962Y-97599500D01*
X136024500Y-97544962D01*
X136099000Y-97525000D01*
X137500000Y-97525000D01*
X137775000Y-97300000D01*
X137775000Y-96200000D01*
X137550000Y-95900000D01*
X136799000Y-95900000D01*
X136724500Y-95880038D01*
X136669962Y-95825500D01*
X136650000Y-95751000D01*
X136650000Y-95449000D01*
X136669962Y-95374500D01*
X136724500Y-95319962D01*
X136799000Y-95300000D01*
X137425000Y-95300000D01*
X137825000Y-94925000D01*
X137825000Y-93158730D01*
X137844962Y-93084230D01*
X137865073Y-93057065D01*
X138130821Y-92772335D01*
X138196247Y-92731492D01*
X138239748Y-92725000D01*
X139194016Y-92725000D01*
X139268516Y-92744962D01*
G37*
%TD.AperFunction*%
%TD*%
%TA.AperFunction,Conductor*%
%TO.N,+5VA*%
G36*
X156175500Y-97019962D02*
G01*
X156230038Y-97074500D01*
X156250000Y-97149000D01*
X156250000Y-99113282D01*
X156230038Y-99187782D01*
X156206359Y-99218641D01*
X156043641Y-99381359D01*
X155976846Y-99419923D01*
X155938282Y-99425000D01*
X155382604Y-99425000D01*
X155308104Y-99405038D01*
X155282376Y-99386251D01*
X155098772Y-99219338D01*
X155057074Y-99154453D01*
X155050000Y-99109087D01*
X155050000Y-98236718D01*
X155069962Y-98162218D01*
X155093641Y-98131359D01*
X155203471Y-98021529D01*
X155252806Y-97991731D01*
X155252128Y-97990350D01*
X155252346Y-97990243D01*
X155257096Y-97989140D01*
X155264613Y-97984600D01*
X155273562Y-97981819D01*
X155274576Y-97985082D01*
X155317997Y-97975000D01*
X155500000Y-97975000D01*
X155650000Y-97825000D01*
X155650000Y-97149000D01*
X155669962Y-97074500D01*
X155724500Y-97019962D01*
X155799000Y-97000000D01*
X156101000Y-97000000D01*
X156175500Y-97019962D01*
G37*
%TD.AperFunction*%
%TD*%
%TA.AperFunction,Conductor*%
%TO.N,GND*%
G36*
X157262782Y-96819962D02*
G01*
X157293641Y-96843641D01*
X157456359Y-97006359D01*
X157494923Y-97073154D01*
X157500000Y-97111718D01*
X157500000Y-99138282D01*
X157480038Y-99212782D01*
X157456359Y-99243641D01*
X157318641Y-99381359D01*
X157251846Y-99419923D01*
X157213282Y-99425000D01*
X156886718Y-99425000D01*
X156812218Y-99405038D01*
X156781359Y-99381359D01*
X156643641Y-99243641D01*
X156605077Y-99176846D01*
X156600000Y-99138282D01*
X156600000Y-97036718D01*
X156619962Y-96962218D01*
X156643641Y-96931359D01*
X156731359Y-96843641D01*
X156798154Y-96805077D01*
X156836718Y-96800000D01*
X157188282Y-96800000D01*
X157262782Y-96819962D01*
G37*
%TD.AperFunction*%
%TD*%
%TA.AperFunction,Conductor*%
%TO.N,+12V*%
G36*
X136616896Y-57769962D02*
G01*
X136642624Y-57788749D01*
X136826228Y-57955662D01*
X136867926Y-58020547D01*
X136875000Y-58065913D01*
X136875000Y-59234087D01*
X136855038Y-59308587D01*
X136826228Y-59344338D01*
X136642624Y-59511251D01*
X136574071Y-59546594D01*
X136542396Y-59550000D01*
X133761718Y-59550000D01*
X133687218Y-59530038D01*
X133656359Y-59506359D01*
X133293641Y-59143641D01*
X133255077Y-59076846D01*
X133250000Y-59038282D01*
X133250000Y-58261718D01*
X133269962Y-58187218D01*
X133293641Y-58156359D01*
X133656359Y-57793641D01*
X133723154Y-57755077D01*
X133761718Y-57750000D01*
X136542396Y-57750000D01*
X136616896Y-57769962D01*
G37*
%TD.AperFunction*%
%TD*%
%TA.AperFunction,Conductor*%
%TO.N,GND*%
G36*
X166312782Y-55469962D02*
G01*
X166343641Y-55493641D01*
X166706359Y-55856359D01*
X166744923Y-55923154D01*
X166750000Y-55961718D01*
X166750000Y-56738282D01*
X166730038Y-56812782D01*
X166706359Y-56843641D01*
X166343641Y-57206359D01*
X166276846Y-57244923D01*
X166238282Y-57250000D01*
X163457604Y-57250000D01*
X163383104Y-57230038D01*
X163357376Y-57211251D01*
X163173772Y-57044338D01*
X163132074Y-56979453D01*
X163125000Y-56934087D01*
X163125000Y-55765913D01*
X163144962Y-55691413D01*
X163173772Y-55655662D01*
X163357376Y-55488749D01*
X163425929Y-55453406D01*
X163457604Y-55450000D01*
X166238282Y-55450000D01*
X166312782Y-55469962D01*
G37*
%TD.AperFunction*%
%TD*%
%TA.AperFunction,Conductor*%
%TO.N,GND*%
G36*
X142274059Y-69794962D02*
G01*
X142290069Y-69805641D01*
X142616510Y-70055272D01*
X142663564Y-70116384D01*
X142675000Y-70173631D01*
X142675000Y-72113282D01*
X142655038Y-72187782D01*
X142631359Y-72218641D01*
X142293641Y-72556359D01*
X142226846Y-72594923D01*
X142188282Y-72600000D01*
X139507604Y-72600000D01*
X139433104Y-72580038D01*
X139407376Y-72561251D01*
X139223772Y-72394338D01*
X139182074Y-72329453D01*
X139175000Y-72284087D01*
X139175000Y-71736718D01*
X139194962Y-71662218D01*
X139218641Y-71631359D01*
X139531359Y-71318641D01*
X139598154Y-71280077D01*
X139636718Y-71275000D01*
X140875000Y-71275000D01*
X141325000Y-70825000D01*
X141325000Y-70236718D01*
X141344962Y-70162218D01*
X141368641Y-70131359D01*
X141681359Y-69818641D01*
X141748154Y-69780077D01*
X141786718Y-69775000D01*
X142199559Y-69775000D01*
X142274059Y-69794962D01*
G37*
%TD.AperFunction*%
%TD*%
%TA.AperFunction,Conductor*%
%TO.N,GND*%
G36*
X155325000Y-82369962D02*
G01*
X155379538Y-82424500D01*
X155399500Y-82499000D01*
X155399501Y-82898688D01*
X155399501Y-83302132D01*
X155399833Y-83303802D01*
X155400000Y-83307199D01*
X155400000Y-83350000D01*
X155407180Y-83357180D01*
X155409338Y-83365234D01*
X155413478Y-83372405D01*
X155415485Y-83382495D01*
X155476376Y-83473624D01*
X155567505Y-83534515D01*
X155581898Y-83537378D01*
X155591253Y-83541253D01*
X155600000Y-83550000D01*
X155642790Y-83550000D01*
X155646194Y-83550167D01*
X155647867Y-83550500D01*
X155652971Y-83550500D01*
X155750080Y-83550499D01*
X155852132Y-83550499D01*
X155853802Y-83550167D01*
X155857200Y-83550000D01*
X156838282Y-83550000D01*
X156912782Y-83569962D01*
X156943641Y-83593641D01*
X157196828Y-83846828D01*
X157200267Y-83850854D01*
X157201472Y-83853220D01*
X157296780Y-83948528D01*
X157299146Y-83949733D01*
X157303172Y-83953172D01*
X157450000Y-84100000D01*
X158032389Y-84100000D01*
X158106889Y-84119962D01*
X158144523Y-84150883D01*
X158238134Y-84257867D01*
X158272169Y-84327079D01*
X158275000Y-84355984D01*
X158275000Y-85083641D01*
X158255038Y-85158141D01*
X158225677Y-85194391D01*
X158067499Y-85336751D01*
X157998769Y-85371751D01*
X157967823Y-85375000D01*
X155649667Y-85375000D01*
X155575167Y-85355038D01*
X155560267Y-85345200D01*
X155359600Y-85194700D01*
X155311977Y-85134030D01*
X155300000Y-85075500D01*
X155300000Y-84300000D01*
X155143641Y-84143641D01*
X155105077Y-84076846D01*
X155100000Y-84038282D01*
X155100000Y-83307211D01*
X155100167Y-83303806D01*
X155100500Y-83302133D01*
X155100499Y-82498998D01*
X155120461Y-82424500D01*
X155174999Y-82369962D01*
X155249499Y-82350000D01*
X155250500Y-82350000D01*
X155325000Y-82369962D01*
G37*
%TD.AperFunction*%
%TD*%
%TA.AperFunction,Conductor*%
%TO.N,GND*%
G36*
X154762782Y-87469962D02*
G01*
X154793641Y-87493641D01*
X155056359Y-87756359D01*
X155094923Y-87823154D01*
X155100000Y-87861718D01*
X155100000Y-88688282D01*
X155080038Y-88762782D01*
X155056359Y-88793641D01*
X154893641Y-88956359D01*
X154826846Y-88994923D01*
X154788282Y-89000000D01*
X152100000Y-89000000D01*
X151950000Y-89150000D01*
X151950000Y-89888282D01*
X151930038Y-89962782D01*
X151906359Y-89993641D01*
X151894141Y-90005859D01*
X151827346Y-90044423D01*
X151788782Y-90049500D01*
X151195885Y-90049500D01*
X151195883Y-90049501D01*
X150547868Y-90049501D01*
X150546198Y-90049833D01*
X150542801Y-90050000D01*
X150500000Y-90050000D01*
X150500000Y-89150000D01*
X152156359Y-87493641D01*
X152223154Y-87455077D01*
X152261718Y-87450000D01*
X154688282Y-87450000D01*
X154762782Y-87469962D01*
G37*
%TD.AperFunction*%
%TD*%
%TA.AperFunction,Conductor*%
%TO.N,+5VA*%
G36*
X135128579Y-90750167D02*
G01*
X135130252Y-90750500D01*
X136451000Y-90750500D01*
X136525500Y-90770462D01*
X136580038Y-90825000D01*
X136600000Y-90899500D01*
X136600000Y-91050500D01*
X136580038Y-91125000D01*
X136525500Y-91179538D01*
X136451000Y-91199500D01*
X135130252Y-91199500D01*
X135128579Y-91199833D01*
X135125174Y-91200000D01*
X135075000Y-91200000D01*
X135058329Y-91216671D01*
X135035753Y-91235198D01*
X135005448Y-91255448D01*
X134988816Y-91280340D01*
X134985201Y-91285750D01*
X134966671Y-91308329D01*
X134925000Y-91350000D01*
X134925000Y-92250000D01*
X134932747Y-92259296D01*
X134976152Y-92311382D01*
X134994080Y-92339296D01*
X134994193Y-92339233D01*
X134996578Y-92343471D01*
X134996580Y-92343475D01*
X135016854Y-92379498D01*
X135019800Y-92384733D01*
X135022725Y-92388633D01*
X135025389Y-92392716D01*
X135023639Y-92393858D01*
X135048925Y-92456799D01*
X135050000Y-92474666D01*
X135050000Y-93372734D01*
X135030038Y-93447234D01*
X135017349Y-93465814D01*
X134894736Y-93619080D01*
X134832609Y-93664784D01*
X134778387Y-93675000D01*
X134461718Y-93675000D01*
X134387218Y-93655038D01*
X134356359Y-93631359D01*
X134193641Y-93468641D01*
X134155077Y-93401846D01*
X134150000Y-93363282D01*
X134150000Y-91211718D01*
X134169962Y-91137218D01*
X134193641Y-91106359D01*
X134506359Y-90793641D01*
X134573154Y-90755077D01*
X134611718Y-90750000D01*
X135125174Y-90750000D01*
X135128579Y-90750167D01*
G37*
%TD.AperFunction*%
%TD*%
%TA.AperFunction,Conductor*%
%TO.N,GND*%
G36*
X150500000Y-90055256D02*
G01*
X150484522Y-90059403D01*
X150478775Y-90063244D01*
X150467505Y-90065485D01*
X150455304Y-90073638D01*
X150455303Y-90073638D01*
X150453431Y-90074889D01*
X150447070Y-90077048D01*
X150441745Y-90079254D01*
X150441600Y-90078905D01*
X150380396Y-90099681D01*
X150370651Y-90100000D01*
X150300000Y-90100000D01*
X150100000Y-90300000D01*
X150100000Y-95188282D01*
X150080038Y-95262782D01*
X150056359Y-95293641D01*
X149868641Y-95481359D01*
X149801846Y-95519923D01*
X149763282Y-95525000D01*
X147986718Y-95525000D01*
X147912218Y-95505038D01*
X147881359Y-95481359D01*
X147693641Y-95293641D01*
X147655077Y-95226846D01*
X147650000Y-95188282D01*
X147650000Y-92336718D01*
X147669962Y-92262218D01*
X147693641Y-92231359D01*
X147775000Y-92150000D01*
X147775000Y-91912289D01*
X147794962Y-91837789D01*
X147819332Y-91806244D01*
X149699692Y-89950304D01*
X149700000Y-89950000D01*
X150500000Y-89150000D01*
X150500000Y-90055256D01*
G37*
%TD.AperFunction*%
%TD*%
%TA.AperFunction,Conductor*%
%TO.N,+12V*%
G36*
X154912782Y-62019962D02*
G01*
X154943641Y-62043641D01*
X155156359Y-62256359D01*
X155194923Y-62323154D01*
X155200000Y-62361718D01*
X155200000Y-63138282D01*
X155180038Y-63212782D01*
X155156359Y-63243641D01*
X154943641Y-63456359D01*
X154876846Y-63494923D01*
X154838282Y-63500000D01*
X152861718Y-63500000D01*
X152787218Y-63480038D01*
X152756359Y-63456359D01*
X152543641Y-63243641D01*
X152505077Y-63176846D01*
X152500000Y-63138282D01*
X152500000Y-62361718D01*
X152519962Y-62287218D01*
X152543641Y-62256359D01*
X152756359Y-62043641D01*
X152823154Y-62005077D01*
X152861718Y-62000000D01*
X154838282Y-62000000D01*
X154912782Y-62019962D01*
G37*
%TD.AperFunction*%
%TD*%
%TA.AperFunction,Conductor*%
%TO.N,GND*%
G36*
X149537782Y-68844962D02*
G01*
X149568641Y-68868641D01*
X149681359Y-68981359D01*
X149719923Y-69048154D01*
X149725000Y-69086718D01*
X149725000Y-70044921D01*
X149705038Y-70119421D01*
X149650500Y-70173959D01*
X149570046Y-70193802D01*
X149100000Y-70175000D01*
X148900000Y-70375000D01*
X148900000Y-70492789D01*
X148899833Y-70496194D01*
X148899500Y-70497867D01*
X148899501Y-71196780D01*
X148899501Y-71825000D01*
X148600500Y-71825000D01*
X148600499Y-70502964D01*
X148600499Y-70497868D01*
X148600167Y-70496197D01*
X148600000Y-70492801D01*
X148600000Y-70007468D01*
X148602065Y-69982747D01*
X148604542Y-69968027D01*
X148604543Y-69968021D01*
X148605496Y-69962354D01*
X148605647Y-69950000D01*
X148601505Y-69921076D01*
X148600000Y-69899954D01*
X148600000Y-69086718D01*
X148619962Y-69012218D01*
X148643641Y-68981359D01*
X148756359Y-68868641D01*
X148823154Y-68830077D01*
X148861718Y-68825000D01*
X149463282Y-68825000D01*
X149537782Y-68844962D01*
G37*
%TD.AperFunction*%
%TD*%
%TA.AperFunction,Conductor*%
%TO.N,GND*%
G36*
X157158141Y-66619962D02*
G01*
X157194392Y-66649324D01*
X157336751Y-66807501D01*
X157371751Y-66876231D01*
X157375000Y-66907177D01*
X157375000Y-67100000D01*
X157383547Y-67107770D01*
X157501573Y-67215066D01*
X157650000Y-67350000D01*
X157809892Y-67350000D01*
X157814500Y-67350167D01*
X157816782Y-67350500D01*
X158583218Y-67350500D01*
X158585479Y-67350167D01*
X158590047Y-67350000D01*
X159664589Y-67350000D01*
X159667319Y-67350025D01*
X159762499Y-67351770D01*
X159767581Y-67350385D01*
X159773777Y-67350000D01*
X160109892Y-67350000D01*
X160114500Y-67350167D01*
X160116782Y-67350500D01*
X160883218Y-67350500D01*
X160885479Y-67350167D01*
X160890047Y-67350000D01*
X160975000Y-67350000D01*
X160998528Y-67326472D01*
X161038218Y-67298083D01*
X161045797Y-67294362D01*
X161045801Y-67294359D01*
X161056855Y-67288932D01*
X161139293Y-67206350D01*
X161148111Y-67188309D01*
X161176616Y-67148384D01*
X161200000Y-67125000D01*
X161200000Y-67040108D01*
X161200167Y-67035500D01*
X161200500Y-67033218D01*
X161200500Y-66986218D01*
X161220462Y-66911718D01*
X161244141Y-66880859D01*
X161481359Y-66643641D01*
X161548154Y-66605077D01*
X161586718Y-66600000D01*
X162138282Y-66600000D01*
X162212782Y-66619962D01*
X162243641Y-66643641D01*
X162381359Y-66781359D01*
X162419923Y-66848154D01*
X162425000Y-66886718D01*
X162425000Y-67538282D01*
X162405038Y-67612782D01*
X162381359Y-67643641D01*
X162218641Y-67806359D01*
X162151846Y-67844923D01*
X162113282Y-67850000D01*
X161350000Y-67850000D01*
X160993765Y-68206235D01*
X160926970Y-68244799D01*
X160883218Y-68248956D01*
X160883218Y-68249500D01*
X160116782Y-68249500D01*
X160114521Y-68249833D01*
X160109953Y-68250000D01*
X158915237Y-68250000D01*
X158840737Y-68230038D01*
X158805751Y-68202064D01*
X158563304Y-67939413D01*
X158563305Y-67939413D01*
X158550000Y-67925000D01*
X156640237Y-67925000D01*
X156565737Y-67905038D01*
X156530751Y-67877064D01*
X156501083Y-67844923D01*
X156314514Y-67642807D01*
X156278651Y-67574524D01*
X156275000Y-67541743D01*
X156275000Y-66933516D01*
X156294962Y-66859016D01*
X156307651Y-66840436D01*
X156455264Y-66655920D01*
X156517391Y-66610216D01*
X156571613Y-66600000D01*
X157083641Y-66600000D01*
X157158141Y-66619962D01*
G37*
%TD.AperFunction*%
%TD*%
%TA.AperFunction,Conductor*%
%TO.N,+5VA*%
G36*
X153337782Y-96194962D02*
G01*
X153368641Y-96218641D01*
X153506359Y-96356359D01*
X153544923Y-96423154D01*
X153550000Y-96461718D01*
X153550000Y-97288282D01*
X153530038Y-97362782D01*
X153506359Y-97393641D01*
X153293641Y-97606359D01*
X153226846Y-97644923D01*
X153188282Y-97650000D01*
X152049826Y-97650000D01*
X152046421Y-97649833D01*
X152044748Y-97649500D01*
X150724000Y-97649500D01*
X150649500Y-97629538D01*
X150594962Y-97575000D01*
X150575000Y-97500500D01*
X150575000Y-97349500D01*
X150594962Y-97275000D01*
X150649500Y-97220462D01*
X150724000Y-97200500D01*
X152044748Y-97200500D01*
X152046421Y-97200167D01*
X152049826Y-97200000D01*
X152100000Y-97200000D01*
X152116671Y-97183329D01*
X152139247Y-97164802D01*
X152169552Y-97144552D01*
X152189802Y-97114247D01*
X152208329Y-97091671D01*
X152225000Y-97075000D01*
X152225000Y-97024826D01*
X152225167Y-97021421D01*
X152225500Y-97019748D01*
X152225500Y-96536218D01*
X152245462Y-96461718D01*
X152269141Y-96430859D01*
X152481359Y-96218641D01*
X152548154Y-96180077D01*
X152586718Y-96175000D01*
X153263282Y-96175000D01*
X153337782Y-96194962D01*
G37*
%TD.AperFunction*%
%TD*%
%TA.AperFunction,Conductor*%
%TO.N,GND*%
G36*
X148400000Y-117150000D02*
G01*
X148100000Y-117150000D01*
X147543641Y-117706359D01*
X147476846Y-117744923D01*
X147438282Y-117750000D01*
X145859239Y-117750000D01*
X145784739Y-117730038D01*
X145756932Y-117709325D01*
X145085824Y-117075500D01*
X144946693Y-116944099D01*
X144906237Y-116878433D01*
X144900000Y-116835774D01*
X144900000Y-115811718D01*
X144919962Y-115737218D01*
X144943641Y-115706359D01*
X145456359Y-115193641D01*
X145523154Y-115155077D01*
X145561718Y-115150000D01*
X146850000Y-115150000D01*
X147700000Y-114350000D01*
X148400000Y-114350000D01*
X148400000Y-117150000D01*
G37*
%TD.AperFunction*%
%TD*%
%TA.AperFunction,Conductor*%
%TO.N,GND*%
G36*
X144715579Y-100569962D02*
G01*
X144742984Y-100590298D01*
X145146268Y-100968376D01*
X145452907Y-101255850D01*
X145493605Y-101321367D01*
X145500000Y-101364551D01*
X145500000Y-103100000D01*
X146500000Y-104050000D01*
X147588282Y-104050000D01*
X147662782Y-104069962D01*
X147693641Y-104093641D01*
X148006359Y-104406359D01*
X148044923Y-104473154D01*
X148050000Y-104511718D01*
X148050000Y-107065000D01*
X148500000Y-107470000D01*
X150491799Y-107470000D01*
X150566299Y-107489962D01*
X150592792Y-107509449D01*
X150821993Y-107720744D01*
X150863238Y-107785917D01*
X150870000Y-107830295D01*
X150870000Y-109100000D01*
X150880112Y-109108426D01*
X150880113Y-109108428D01*
X151075035Y-109270862D01*
X151350000Y-109500000D01*
X156550000Y-109500000D01*
X156550000Y-116575000D01*
X151150000Y-116575000D01*
X151141476Y-116582540D01*
X151141477Y-116582540D01*
X150542277Y-117112601D01*
X150473251Y-117147011D01*
X150443554Y-117150000D01*
X147700000Y-117150000D01*
X147700000Y-107900000D01*
X147618678Y-107830295D01*
X147402032Y-107644599D01*
X147358459Y-107580959D01*
X147350000Y-107531470D01*
X147350000Y-105500000D01*
X147000000Y-105150000D01*
X145861718Y-105150000D01*
X145787218Y-105130038D01*
X145756359Y-105106359D01*
X145400000Y-104750000D01*
X143061718Y-104750000D01*
X142987218Y-104730038D01*
X142956359Y-104706359D01*
X142543641Y-104293641D01*
X142505077Y-104226846D01*
X142500000Y-104188282D01*
X142500000Y-100968376D01*
X142519962Y-100893876D01*
X142533891Y-100873766D01*
X142755296Y-100604390D01*
X142818023Y-100559511D01*
X142870405Y-100550000D01*
X144641079Y-100550000D01*
X144715579Y-100569962D01*
G37*
%TD.AperFunction*%
%TD*%
%TA.AperFunction,Conductor*%
%TO.N,+12VA*%
G36*
X159573378Y-117244962D02*
G01*
X159590355Y-117256387D01*
X159717477Y-117355260D01*
X159764028Y-117416756D01*
X159775000Y-117472873D01*
X159775000Y-119339863D01*
X159755038Y-119414363D01*
X159733257Y-119443289D01*
X159143946Y-120054426D01*
X159077863Y-120094198D01*
X159036689Y-120100000D01*
X156374000Y-120100000D01*
X156299500Y-120080038D01*
X156244962Y-120025500D01*
X156225000Y-119951000D01*
X156225000Y-117661718D01*
X156244962Y-117587218D01*
X156268641Y-117556359D01*
X156556359Y-117268641D01*
X156623154Y-117230077D01*
X156661718Y-117225000D01*
X159498878Y-117225000D01*
X159573378Y-117244962D01*
G37*
%TD.AperFunction*%
%TD*%
%TA.AperFunction,Conductor*%
%TO.N,+12V*%
G36*
X162212782Y-68169962D02*
G01*
X162243641Y-68193641D01*
X162381359Y-68331359D01*
X162419923Y-68398154D01*
X162425000Y-68436718D01*
X162425000Y-69438282D01*
X162405038Y-69512782D01*
X162381359Y-69543641D01*
X162268641Y-69656359D01*
X162201846Y-69694923D01*
X162163282Y-69700000D01*
X160261718Y-69700000D01*
X160187218Y-69680038D01*
X160156359Y-69656359D01*
X160043641Y-69543641D01*
X160005077Y-69476846D01*
X160000000Y-69438282D01*
X160000000Y-68686718D01*
X160019962Y-68612218D01*
X160043641Y-68581359D01*
X160131359Y-68493641D01*
X160198154Y-68455077D01*
X160236718Y-68450000D01*
X161150000Y-68450000D01*
X161406359Y-68193641D01*
X161473154Y-68155077D01*
X161511718Y-68150000D01*
X162138282Y-68150000D01*
X162212782Y-68169962D01*
G37*
%TD.AperFunction*%
%TD*%
%TA.AperFunction,Conductor*%
%TO.N,GND*%
G36*
X161376047Y-72919962D02*
G01*
X161389183Y-72928496D01*
X161563638Y-73055373D01*
X161612147Y-73115336D01*
X161625000Y-73175875D01*
X161625000Y-73484087D01*
X161605038Y-73558587D01*
X161576228Y-73594338D01*
X161392624Y-73761251D01*
X161324071Y-73796594D01*
X161292396Y-73800000D01*
X158407211Y-73800000D01*
X158403806Y-73799833D01*
X158402133Y-73799500D01*
X158272449Y-73799500D01*
X157000000Y-73799501D01*
X157000000Y-73500500D01*
X158272636Y-73500499D01*
X158402132Y-73500499D01*
X158403802Y-73500167D01*
X158407199Y-73500000D01*
X158500000Y-73500000D01*
X158650000Y-73350000D01*
X158650000Y-73257210D01*
X158650167Y-73253806D01*
X158650500Y-73252133D01*
X158650500Y-73211218D01*
X158670462Y-73136718D01*
X158694141Y-73105859D01*
X158856359Y-72943641D01*
X158923154Y-72905077D01*
X158961718Y-72900000D01*
X161301547Y-72900000D01*
X161376047Y-72919962D01*
G37*
%TD.AperFunction*%
%TD*%
%TA.AperFunction,Conductor*%
%TO.N,+5VA*%
G36*
X158537782Y-106969962D02*
G01*
X158568641Y-106993641D01*
X158781359Y-107206359D01*
X158819923Y-107273154D01*
X158825000Y-107311718D01*
X158825000Y-107588282D01*
X158805038Y-107662782D01*
X158781359Y-107693641D01*
X158568641Y-107906359D01*
X158501846Y-107944923D01*
X158463282Y-107950000D01*
X155911718Y-107950000D01*
X155837218Y-107930038D01*
X155806359Y-107906359D01*
X155743641Y-107843641D01*
X155705077Y-107776846D01*
X155700000Y-107738282D01*
X155700000Y-107186718D01*
X155719962Y-107112218D01*
X155743641Y-107081359D01*
X155831359Y-106993641D01*
X155898154Y-106955077D01*
X155936718Y-106950000D01*
X158463282Y-106950000D01*
X158537782Y-106969962D01*
G37*
%TD.AperFunction*%
%TD*%
%TA.AperFunction,Conductor*%
%TO.N,+3V3*%
G36*
X148212782Y-68844962D02*
G01*
X148243641Y-68868641D01*
X148356359Y-68981359D01*
X148394923Y-69048154D01*
X148400000Y-69086718D01*
X148400000Y-69896269D01*
X148398226Y-69919192D01*
X148394391Y-69943823D01*
X148395768Y-69954351D01*
X148398742Y-69977097D01*
X148400000Y-69996416D01*
X148400000Y-70492789D01*
X148399833Y-70496194D01*
X148399500Y-70497867D01*
X148399500Y-70502971D01*
X148399501Y-71838781D01*
X148379539Y-71913281D01*
X148355860Y-71944140D01*
X148343641Y-71956359D01*
X148276846Y-71994923D01*
X148238282Y-72000000D01*
X147636718Y-72000000D01*
X147562218Y-71980038D01*
X147531359Y-71956359D01*
X147318641Y-71743641D01*
X147280077Y-71676846D01*
X147275000Y-71638282D01*
X147275000Y-69161718D01*
X147294962Y-69087218D01*
X147318641Y-69056359D01*
X147506359Y-68868641D01*
X147573154Y-68830077D01*
X147611718Y-68825000D01*
X148138282Y-68825000D01*
X148212782Y-68844962D01*
G37*
%TD.AperFunction*%
%TD*%
%TA.AperFunction,Conductor*%
%TO.N,+3V3*%
G36*
X161316243Y-71369962D02*
G01*
X161342807Y-71389514D01*
X161577064Y-71605751D01*
X161618267Y-71670951D01*
X161625000Y-71715237D01*
X161625000Y-72246812D01*
X161605038Y-72321312D01*
X161591320Y-72341164D01*
X161444712Y-72520352D01*
X161382086Y-72565371D01*
X161329392Y-72575000D01*
X158800000Y-72575000D01*
X158450000Y-72925000D01*
X158450000Y-73138282D01*
X158430038Y-73212782D01*
X158406359Y-73243641D01*
X158394141Y-73255859D01*
X158327346Y-73294423D01*
X158288782Y-73299500D01*
X157675001Y-73299501D01*
X157061219Y-73299501D01*
X156986719Y-73279539D01*
X156955860Y-73255860D01*
X156943641Y-73243641D01*
X156905077Y-73176846D01*
X156900000Y-73138282D01*
X156900000Y-71915913D01*
X156919962Y-71841413D01*
X156948772Y-71805662D01*
X157407376Y-71388749D01*
X157475929Y-71353406D01*
X157507604Y-71350000D01*
X161241743Y-71350000D01*
X161316243Y-71369962D01*
G37*
%TD.AperFunction*%
%TD*%
%TA.AperFunction,Conductor*%
%TO.N,VCC*%
G36*
X147050000Y-114038282D02*
G01*
X147030038Y-114112782D01*
X147006359Y-114143641D01*
X146693641Y-114456359D01*
X146626846Y-114494923D01*
X146588282Y-114500000D01*
X145250000Y-114500000D01*
X144300000Y-115450000D01*
X144300000Y-117650000D01*
X144307646Y-117658920D01*
X144307646Y-117658921D01*
X144518637Y-117905077D01*
X144900000Y-118350000D01*
X147800000Y-118350000D01*
X148206359Y-117943641D01*
X148273154Y-117905077D01*
X148311718Y-117900000D01*
X152721000Y-117900000D01*
X152795500Y-117919962D01*
X152850038Y-117974500D01*
X152870000Y-118049000D01*
X152870000Y-119951000D01*
X152850038Y-120025500D01*
X152795500Y-120080038D01*
X152721000Y-120100000D01*
X148550000Y-120100000D01*
X147943641Y-120706359D01*
X147876846Y-120744923D01*
X147838282Y-120750000D01*
X142361718Y-120750000D01*
X142287218Y-120730038D01*
X142256359Y-120706359D01*
X141043641Y-119493641D01*
X141005077Y-119426846D01*
X141000000Y-119388282D01*
X141000000Y-112661718D01*
X141019962Y-112587218D01*
X141043641Y-112556359D01*
X142256359Y-111343641D01*
X142323154Y-111305077D01*
X142361718Y-111300000D01*
X144900000Y-111300000D01*
X145400000Y-110800000D01*
X147050000Y-110800000D01*
X147050000Y-114038282D01*
G37*
%TD.AperFunction*%
%TD*%
%TA.AperFunction,Conductor*%
%TO.N,+5VA*%
G36*
X162722711Y-89670461D02*
G01*
X162770491Y-89716683D01*
X162770720Y-89717203D01*
X162777551Y-89725330D01*
X162777552Y-89725331D01*
X162790057Y-89740207D01*
X162822714Y-89810080D01*
X162825000Y-89836082D01*
X162825000Y-91875000D01*
X163200000Y-92250000D01*
X163600333Y-92250000D01*
X163674833Y-92269962D01*
X163689733Y-92279800D01*
X163790400Y-92355300D01*
X163838023Y-92415970D01*
X163850000Y-92474500D01*
X163850000Y-93019882D01*
X163830038Y-93094382D01*
X163814129Y-93116850D01*
X163744599Y-93197968D01*
X163680959Y-93241541D01*
X163631470Y-93250000D01*
X163200000Y-93250000D01*
X162900000Y-93550000D01*
X162900000Y-94547734D01*
X162880038Y-94622234D01*
X162867350Y-94640812D01*
X162860000Y-94650000D01*
X162744736Y-94794080D01*
X162682609Y-94839784D01*
X162628387Y-94850000D01*
X161718784Y-94850000D01*
X161644284Y-94830038D01*
X161589746Y-94775500D01*
X161569784Y-94701000D01*
X161570935Y-94682518D01*
X161575000Y-94650000D01*
X161575000Y-89799500D01*
X161594962Y-89725000D01*
X161649500Y-89670462D01*
X161724000Y-89650500D01*
X162429849Y-89650499D01*
X162648211Y-89650499D01*
X162722711Y-89670461D01*
G37*
%TD.AperFunction*%
%TD*%
%TA.AperFunction,Conductor*%
%TO.N,GND*%
G36*
X136525500Y-91420462D02*
G01*
X136580038Y-91475000D01*
X136600000Y-91549500D01*
X136600000Y-93378031D01*
X136580038Y-93452531D01*
X136573066Y-93463477D01*
X136469488Y-93611446D01*
X136410411Y-93661031D01*
X136347422Y-93675000D01*
X135599500Y-93675000D01*
X135525000Y-93655038D01*
X135480300Y-93615400D01*
X135404800Y-93514733D01*
X135376070Y-93443155D01*
X135375000Y-93425333D01*
X135375000Y-92525000D01*
X135179800Y-92264733D01*
X135151070Y-92193156D01*
X135150000Y-92175333D01*
X135150000Y-91549500D01*
X135169962Y-91475000D01*
X135224500Y-91420462D01*
X135299000Y-91400500D01*
X136451000Y-91400500D01*
X136525500Y-91420462D01*
G37*
%TD.AperFunction*%
%TD*%
%TA.AperFunction,Conductor*%
%TO.N,VREF_ADC*%
G36*
X153363282Y-91270462D02*
G01*
X153394141Y-91294141D01*
X153506359Y-91406359D01*
X153544923Y-91473154D01*
X153550000Y-91511718D01*
X153550000Y-91847734D01*
X153530038Y-91922234D01*
X153517349Y-91940814D01*
X153394736Y-92094080D01*
X153332609Y-92139784D01*
X153278387Y-92150000D01*
X152861718Y-92150000D01*
X152787218Y-92130038D01*
X152756359Y-92106359D01*
X152643641Y-91993641D01*
X152605077Y-91926846D01*
X152600000Y-91888282D01*
X152600000Y-91850000D01*
X152405118Y-91850000D01*
X152330618Y-91830038D01*
X152308150Y-91814129D01*
X152014893Y-91562765D01*
X152014892Y-91562764D01*
X152000000Y-91550000D01*
X151907211Y-91550000D01*
X151903806Y-91549833D01*
X151902133Y-91549500D01*
X151399000Y-91549500D01*
X151324500Y-91529538D01*
X151269962Y-91475000D01*
X151250000Y-91400500D01*
X151250000Y-91399500D01*
X151269962Y-91325000D01*
X151324500Y-91270462D01*
X151399000Y-91250500D01*
X153288782Y-91250500D01*
X153363282Y-91270462D01*
G37*
%TD.AperFunction*%
%TD*%
%TA.AperFunction,Conductor*%
%TO.N,+5VA*%
G36*
X163275000Y-108419962D02*
G01*
X163329538Y-108474500D01*
X163349500Y-108549000D01*
X163349500Y-109869748D01*
X163361133Y-109928231D01*
X163405448Y-109994552D01*
X163417651Y-110002706D01*
X163450000Y-110024321D01*
X163471769Y-110038867D01*
X163486165Y-110041731D01*
X163486166Y-110041731D01*
X163523077Y-110049073D01*
X163523079Y-110049073D01*
X163530252Y-110050500D01*
X163651000Y-110050500D01*
X163725500Y-110070462D01*
X163780038Y-110125000D01*
X163800000Y-110199500D01*
X163800000Y-111159087D01*
X163780038Y-111233587D01*
X163751228Y-111269338D01*
X163567624Y-111436251D01*
X163499071Y-111471594D01*
X163467396Y-111475000D01*
X163171613Y-111475000D01*
X163097113Y-111455038D01*
X163055264Y-111419080D01*
X162932651Y-111265814D01*
X162901699Y-111195169D01*
X162900000Y-111172734D01*
X162900000Y-109874826D01*
X162900167Y-109871421D01*
X162900500Y-109869748D01*
X162900500Y-108549000D01*
X162920462Y-108474500D01*
X162975000Y-108419962D01*
X163049500Y-108400000D01*
X163200500Y-108400000D01*
X163275000Y-108419962D01*
G37*
%TD.AperFunction*%
%TD*%
%TA.AperFunction,Conductor*%
%TO.N,/2. MCU/VDDA*%
G36*
X144962782Y-77544962D02*
G01*
X144993641Y-77568641D01*
X145306359Y-77881359D01*
X145344923Y-77948154D01*
X145350000Y-77986718D01*
X145350000Y-78042790D01*
X145349833Y-78046194D01*
X145349500Y-78047867D01*
X145349501Y-78252132D01*
X145349833Y-78253802D01*
X145350000Y-78257200D01*
X145350000Y-78542790D01*
X145349833Y-78546194D01*
X145349500Y-78547867D01*
X145349501Y-78752132D01*
X145349833Y-78753802D01*
X145350000Y-78757200D01*
X145350000Y-78825000D01*
X145371199Y-78846199D01*
X145389728Y-78868776D01*
X145426376Y-78923624D01*
X145438578Y-78931777D01*
X145481222Y-78960271D01*
X145503801Y-78978801D01*
X145525000Y-79000000D01*
X145592789Y-79000000D01*
X145596194Y-79000167D01*
X145597867Y-79000500D01*
X146101000Y-79000500D01*
X146175500Y-79020462D01*
X146230038Y-79075000D01*
X146250000Y-79149500D01*
X146250000Y-79150501D01*
X146230038Y-79225001D01*
X146175500Y-79279539D01*
X146101001Y-79299501D01*
X145597868Y-79299501D01*
X145596198Y-79299833D01*
X145592801Y-79300000D01*
X145525000Y-79300000D01*
X145524417Y-79307580D01*
X145502862Y-79325269D01*
X145426376Y-79376376D01*
X145365485Y-79467505D01*
X145362622Y-79481896D01*
X145362622Y-79481897D01*
X145358013Y-79505069D01*
X145323899Y-79574243D01*
X145259770Y-79617093D01*
X145211876Y-79625000D01*
X145150000Y-79625000D01*
X144956115Y-79805959D01*
X144817935Y-79934927D01*
X144749851Y-79971166D01*
X144716270Y-79975000D01*
X144005118Y-79975000D01*
X143930618Y-79955038D01*
X143908150Y-79939129D01*
X143827032Y-79869599D01*
X143783459Y-79805959D01*
X143775000Y-79756470D01*
X143775000Y-77816359D01*
X143794962Y-77741859D01*
X143824324Y-77705608D01*
X143982501Y-77563249D01*
X144051231Y-77528249D01*
X144082177Y-77525000D01*
X144888282Y-77525000D01*
X144962782Y-77544962D01*
G37*
%TD.AperFunction*%
%TD*%
%TA.AperFunction,Conductor*%
%TO.N,GND*%
G36*
X158312047Y-109519962D02*
G01*
X158343787Y-109544529D01*
X158373259Y-109574500D01*
X159732241Y-110956516D01*
X159770242Y-111023633D01*
X159775000Y-111060986D01*
X159775000Y-116242396D01*
X159755038Y-116316896D01*
X159736251Y-116342624D01*
X159569338Y-116526228D01*
X159504453Y-116567926D01*
X159459087Y-116575000D01*
X155950000Y-116575000D01*
X155950000Y-109500000D01*
X158237547Y-109500000D01*
X158312047Y-109519962D01*
G37*
%TD.AperFunction*%
%TD*%
%TA.AperFunction,Conductor*%
%TO.N,VCC*%
G36*
X146874833Y-106484962D02*
G01*
X146889733Y-106494800D01*
X146990400Y-106570300D01*
X147038023Y-106630970D01*
X147050000Y-106689500D01*
X147050000Y-113615000D01*
X146800000Y-113865000D01*
X145400000Y-113865000D01*
X145400000Y-106926718D01*
X145419962Y-106852218D01*
X145443641Y-106821359D01*
X145756359Y-106508641D01*
X145823154Y-106470077D01*
X145861718Y-106465000D01*
X146800333Y-106465000D01*
X146874833Y-106484962D01*
G37*
%TD.AperFunction*%
%TD*%
%TA.AperFunction,Conductor*%
%TO.N,GND*%
G36*
X148287782Y-85794962D02*
G01*
X148318641Y-85818641D01*
X148506359Y-86006359D01*
X148544923Y-86073154D01*
X148550000Y-86111718D01*
X148550000Y-86613311D01*
X148530038Y-86687811D01*
X148506359Y-86718670D01*
X148169170Y-87055859D01*
X148102375Y-87094423D01*
X148063811Y-87099500D01*
X144886218Y-87099500D01*
X144811718Y-87079538D01*
X144780859Y-87055859D01*
X144568641Y-86843641D01*
X144530077Y-86776846D01*
X144525000Y-86738282D01*
X144525000Y-86111718D01*
X144544962Y-86037218D01*
X144568641Y-86006359D01*
X144756359Y-85818641D01*
X144823154Y-85780077D01*
X144861718Y-85775000D01*
X148213282Y-85775000D01*
X148287782Y-85794962D01*
G37*
%TD.AperFunction*%
%TD*%
%TA.AperFunction,Conductor*%
%TO.N,+3V3*%
G36*
X147225500Y-91770461D02*
G01*
X147280038Y-91824999D01*
X147300000Y-91899499D01*
X147300000Y-95163282D01*
X147280038Y-95237782D01*
X147256359Y-95268641D01*
X147093641Y-95431359D01*
X147026846Y-95469923D01*
X146988282Y-95475000D01*
X146407177Y-95475000D01*
X146332677Y-95455038D01*
X146307501Y-95436751D01*
X146149324Y-95294392D01*
X146107303Y-95229716D01*
X146100000Y-95183641D01*
X146100000Y-91911718D01*
X146119962Y-91837218D01*
X146143641Y-91806359D01*
X146155859Y-91794141D01*
X146222654Y-91755577D01*
X146261218Y-91750500D01*
X146478358Y-91750500D01*
X147151001Y-91750499D01*
X147225500Y-91770461D01*
G37*
%TD.AperFunction*%
%TD*%
%TA.AperFunction,Conductor*%
%TO.N,GND*%
G36*
X165626047Y-86019962D02*
G01*
X165639183Y-86028496D01*
X165813638Y-86155373D01*
X165862147Y-86215336D01*
X165875000Y-86275875D01*
X165875000Y-86888282D01*
X165855038Y-86962782D01*
X165831359Y-86993641D01*
X165618641Y-87206359D01*
X165551846Y-87244923D01*
X165513282Y-87250000D01*
X163075000Y-87250000D01*
X162825000Y-87500000D01*
X162825000Y-87778387D01*
X162805038Y-87852887D01*
X162769080Y-87894736D01*
X162741439Y-87916849D01*
X162670794Y-87947801D01*
X162648359Y-87949500D01*
X162070885Y-87949500D01*
X162070883Y-87949501D01*
X161422868Y-87949501D01*
X161342505Y-87965485D01*
X161251376Y-88026376D01*
X161190485Y-88117505D01*
X161174500Y-88197867D01*
X161174501Y-88402132D01*
X161174833Y-88403802D01*
X161175000Y-88407200D01*
X161175000Y-88692790D01*
X161174833Y-88696194D01*
X161174500Y-88697867D01*
X161174501Y-88902132D01*
X161174833Y-88903802D01*
X161175000Y-88907200D01*
X161175000Y-89192790D01*
X161174833Y-89196194D01*
X161174500Y-89197867D01*
X161174501Y-89402132D01*
X161174833Y-89403802D01*
X161175000Y-89407200D01*
X161175000Y-89692790D01*
X161174833Y-89696194D01*
X161174500Y-89697867D01*
X161174500Y-89702971D01*
X161174501Y-89800080D01*
X161174501Y-89902132D01*
X161174833Y-89903802D01*
X161175000Y-89907200D01*
X161175000Y-90138282D01*
X161155038Y-90212782D01*
X161131359Y-90243641D01*
X160925000Y-90450000D01*
X160925000Y-94588282D01*
X160905038Y-94662782D01*
X160881359Y-94693641D01*
X160743641Y-94831359D01*
X160676846Y-94869923D01*
X160638282Y-94875000D01*
X160272873Y-94875000D01*
X160198373Y-94855038D01*
X160155260Y-94817477D01*
X160056387Y-94690355D01*
X160026405Y-94619293D01*
X160025000Y-94598878D01*
X160025000Y-93825000D01*
X159525000Y-93325000D01*
X158811718Y-93325000D01*
X158737218Y-93305038D01*
X158706359Y-93281359D01*
X158568049Y-93143049D01*
X158529485Y-93076254D01*
X158524415Y-93039123D01*
X158500602Y-90562556D01*
X158519847Y-90487867D01*
X158544236Y-90455764D01*
X158800000Y-90200000D01*
X158800000Y-89949000D01*
X158819962Y-89874500D01*
X158874500Y-89819962D01*
X158949000Y-89800000D01*
X159200000Y-89800000D01*
X160550000Y-88450000D01*
X160550000Y-87061718D01*
X160569962Y-86987218D01*
X160593641Y-86956359D01*
X161506359Y-86043641D01*
X161573154Y-86005077D01*
X161611718Y-86000000D01*
X165551547Y-86000000D01*
X165626047Y-86019962D01*
G37*
%TD.AperFunction*%
%TD*%
M02*
