%TF.GenerationSoftware,KiCad,Pcbnew,(6.0.1-0)*%
%TF.CreationDate,2024-02-14T14:00:18+01:00*%
%TF.ProjectId,dcload-control-board,64636c6f-6164-42d6-936f-6e74726f6c2d,rev?*%
%TF.SameCoordinates,Original*%
%TF.FileFunction,Soldermask,Bot*%
%TF.FilePolarity,Negative*%
%FSLAX46Y46*%
G04 Gerber Fmt 4.6, Leading zero omitted, Abs format (unit mm)*
G04 Created by KiCad (PCBNEW (6.0.1-0)) date 2024-02-14 14:00:18*
%MOMM*%
%LPD*%
G01*
G04 APERTURE LIST*
%ADD10C,1.700000*%
%ADD11C,7.500000*%
%ADD12O,1.700000X1.700000*%
%ADD13C,3.200000*%
%ADD14C,1.800000*%
G04 APERTURE END LIST*
D10*
%TO.C,J300*%
X164775000Y-115000000D03*
X164775000Y-117500000D03*
%TD*%
D11*
%TO.C,H301*%
X163000000Y-136000000D03*
%TD*%
D10*
%TO.C,J202*%
X134000000Y-74500000D03*
D12*
X134000000Y-71960000D03*
X134000000Y-69420000D03*
X134000000Y-66880000D03*
%TD*%
D13*
%TO.C,H101*%
X146500000Y-65000000D03*
%TD*%
D10*
%TO.C,J102*%
X163625000Y-77975000D03*
D12*
X163625000Y-80515000D03*
X163625000Y-83055000D03*
%TD*%
D14*
%TO.C,J104*%
X145800000Y-119400000D03*
X145800000Y-116860000D03*
%TD*%
D13*
%TO.C,H100*%
X163000000Y-146000000D03*
%TD*%
D10*
%TO.C,J201*%
X166000000Y-74500000D03*
D12*
X166000000Y-71960000D03*
X166000000Y-69420000D03*
X166000000Y-66880000D03*
%TD*%
D11*
%TO.C,H303*%
X137000000Y-136000000D03*
%TD*%
%TO.C,H300*%
X163000000Y-126000000D03*
%TD*%
D10*
%TO.C,J103*%
X136375000Y-83025000D03*
D12*
X136375000Y-80485000D03*
X136375000Y-77945000D03*
%TD*%
D10*
%TO.C,J200*%
X143650000Y-59000000D03*
D12*
X146190000Y-59000000D03*
X148730000Y-59000000D03*
X151270000Y-59000000D03*
X153810000Y-59000000D03*
X156350000Y-59000000D03*
%TD*%
D11*
%TO.C,H302*%
X137000000Y-126000000D03*
%TD*%
D10*
%TO.C,J101*%
X129320000Y-87000000D03*
D12*
X129320000Y-89540000D03*
X129320000Y-92080000D03*
X129320000Y-94620000D03*
X129320000Y-97160000D03*
X129320000Y-99700000D03*
X129320000Y-102240000D03*
X129320000Y-104780000D03*
%TD*%
D10*
%TO.C,J100*%
X170680000Y-87000000D03*
D12*
X170680000Y-89540000D03*
X170680000Y-92080000D03*
X170680000Y-94620000D03*
X170680000Y-97160000D03*
X170680000Y-99700000D03*
X170680000Y-102240000D03*
X170680000Y-104780000D03*
%TD*%
D10*
%TO.C,J500*%
X140000000Y-56190000D03*
D12*
X140000000Y-58730000D03*
X140000000Y-61270000D03*
X140000000Y-63810000D03*
%TD*%
D10*
%TO.C,J501*%
X160000000Y-63810000D03*
D12*
X160000000Y-61270000D03*
X160000000Y-58730000D03*
X160000000Y-56190000D03*
%TD*%
M02*
