%TF.GenerationSoftware,KiCad,Pcbnew,(6.0.1-0)*%
%TF.CreationDate,2024-02-14T13:59:27+01:00*%
%TF.ProjectId,dcload-power-board,64636c6f-6164-42d7-906f-7765722d626f,rev?*%
%TF.SameCoordinates,Original*%
%TF.FileFunction,Copper,L2,Inr*%
%TF.FilePolarity,Positive*%
%FSLAX46Y46*%
G04 Gerber Fmt 4.6, Leading zero omitted, Abs format (unit mm)*
G04 Created by KiCad (PCBNEW (6.0.1-0)) date 2024-02-14 13:59:27*
%MOMM*%
%LPD*%
G01*
G04 APERTURE LIST*
%TA.AperFunction,ComponentPad*%
%ADD10C,3.000000*%
%TD*%
%TA.AperFunction,ComponentPad*%
%ADD11C,5.600000*%
%TD*%
%TA.AperFunction,ComponentPad*%
%ADD12C,1.700000*%
%TD*%
%TA.AperFunction,ComponentPad*%
%ADD13O,1.700000X1.700000*%
%TD*%
%TA.AperFunction,ViaPad*%
%ADD14C,0.600000*%
%TD*%
%TA.AperFunction,ViaPad*%
%ADD15C,0.800000*%
%TD*%
G04 APERTURE END LIST*
D10*
%TO.N,/2. Current Sink 1/GATE*%
%TO.C,Q200*%
X126920000Y-70650000D03*
%TO.N,IN+*%
X126920000Y-76100000D03*
%TO.N,/2. Current Sink 1/SOURCE*%
X126920000Y-81550000D03*
%TD*%
D11*
%TO.N,IN+*%
%TO.C,H105*%
X124000000Y-134000000D03*
%TD*%
%TO.N,GND*%
%TO.C,H106*%
X114000000Y-134000000D03*
%TD*%
%TO.N,GND*%
%TO.C,H104*%
X114000000Y-56000000D03*
%TD*%
D10*
%TO.N,/3. Current Sink 2/GATE*%
%TO.C,Q300*%
X126920000Y-108450000D03*
%TO.N,IN+*%
X126920000Y-113900000D03*
%TO.N,/3. Current Sink 2/SOURCE*%
X126920000Y-119350000D03*
%TD*%
D11*
%TO.N,IN+*%
%TO.C,H103*%
X124000000Y-56000000D03*
%TD*%
D12*
%TO.N,/NTC*%
%TO.C,J103*%
X162037500Y-93692500D03*
D13*
%TO.N,GND*%
X162037500Y-96232500D03*
%TD*%
D12*
%TO.N,/NTC*%
%TO.C,J100*%
X163000000Y-57700000D03*
D13*
%TO.N,GND*%
X160460000Y-57700000D03*
%TO.N,/EN*%
X157920000Y-57700000D03*
%TO.N,/ISET*%
X155380000Y-57700000D03*
%TO.N,/ISEN2*%
X152840000Y-57700000D03*
%TO.N,/ISEN1*%
X150300000Y-57700000D03*
%TO.N,GND*%
X147760000Y-57700000D03*
%TO.N,+12V*%
X145220000Y-57700000D03*
%TD*%
D12*
%TO.N,+12V*%
%TO.C,J101*%
X145220000Y-132300000D03*
D13*
%TO.N,GND*%
X147760000Y-132300000D03*
%TO.N,/ISEN1*%
X150300000Y-132300000D03*
%TO.N,/ISEN2*%
X152840000Y-132300000D03*
%TO.N,/ISET*%
X155380000Y-132300000D03*
%TO.N,/EN*%
X157920000Y-132300000D03*
%TO.N,GND*%
X160460000Y-132300000D03*
%TO.N,/NTC*%
X163000000Y-132300000D03*
%TD*%
D14*
%TO.N,+5V*%
X136250000Y-93900000D03*
X135350000Y-93100000D03*
X123530000Y-111800000D03*
X123500000Y-74000000D03*
X134400000Y-93900000D03*
%TO.N,+12V*%
X114000000Y-76450000D03*
X143000000Y-132000000D03*
X132700000Y-91500000D03*
X124090000Y-98020000D03*
X142000000Y-59000000D03*
X115612500Y-106850000D03*
X114000000Y-114250000D03*
X143000000Y-58000000D03*
X131800000Y-92300000D03*
X144000000Y-59000000D03*
X142000000Y-131000000D03*
X125260000Y-98700000D03*
X139400000Y-93600000D03*
X138600000Y-93900000D03*
X144000000Y-131000000D03*
X115612500Y-69050000D03*
%TO.N,EA_OFFSET*%
X120600000Y-79600000D03*
X122300000Y-96400000D03*
X119925000Y-116750000D03*
%TO.N,/EN*%
X162900000Y-100100000D03*
%TO.N,/ISET*%
X158600000Y-99900000D03*
%TO.N,/ISEN2*%
X157700000Y-100750000D03*
X119925000Y-113524500D03*
X119925000Y-100700000D03*
%TO.N,/ISEN1*%
X119850000Y-90800000D03*
X119850000Y-77075000D03*
X160200000Y-91200000D03*
%TO.N,/ISET_BUF*%
X119925000Y-75475500D03*
X118950000Y-91650000D03*
X119275000Y-112600000D03*
D15*
%TO.N,GND*%
X112000000Y-90000000D03*
X112000000Y-89100000D03*
D14*
X126600000Y-93700000D03*
X136800000Y-92200000D03*
D15*
X112900000Y-127800000D03*
D14*
X134600000Y-96200000D03*
D15*
X111100000Y-89100000D03*
D14*
X142000000Y-136500000D03*
X115300000Y-79775000D03*
D15*
X112900000Y-126900000D03*
X112000000Y-88200000D03*
D14*
X143000000Y-54500000D03*
X115675000Y-117250000D03*
D15*
X112000000Y-125100000D03*
D14*
X127225000Y-66025000D03*
D15*
X113800000Y-89100000D03*
D14*
X137650000Y-92250000D03*
X127255000Y-103825000D03*
D15*
X112000000Y-126900000D03*
X114700000Y-126900000D03*
D14*
X120525000Y-115800000D03*
D15*
X111100000Y-126900000D03*
D14*
X142000000Y-53500000D03*
X143000000Y-53500000D03*
X125300000Y-96900000D03*
D15*
X123650000Y-66725000D03*
D14*
X135200000Y-91525000D03*
X113325000Y-79600000D03*
D15*
X113800000Y-127800000D03*
D14*
X131120000Y-99490000D03*
D15*
X111100000Y-90000000D03*
X111100000Y-88200000D03*
D14*
X120900000Y-68600000D03*
X128750000Y-94070000D03*
X114275000Y-79775000D03*
X121730000Y-111800000D03*
X129500000Y-91400000D03*
X113100000Y-78850000D03*
X120525000Y-78000000D03*
D15*
X112000000Y-127800000D03*
X112000000Y-126000000D03*
D14*
X157000000Y-95350000D03*
D15*
X111100000Y-87300000D03*
X112000000Y-87300000D03*
X117212500Y-69050000D03*
D14*
X138300000Y-97050000D03*
X113100000Y-116650000D03*
D15*
X117212500Y-106850000D03*
D14*
X134400000Y-98800000D03*
D15*
X112900000Y-90000000D03*
X111100000Y-127800000D03*
D14*
X121400000Y-95300000D03*
D15*
X114700000Y-89100000D03*
D14*
X143000000Y-136500000D03*
X121650000Y-105675000D03*
D15*
X111100000Y-126000000D03*
D14*
X121700000Y-74000000D03*
X143000000Y-135500000D03*
D15*
X113800000Y-126900000D03*
X113800000Y-90000000D03*
D14*
X137400000Y-94250000D03*
D15*
X114700000Y-90000000D03*
X114700000Y-127800000D03*
X123680000Y-104525000D03*
X112900000Y-89100000D03*
X111100000Y-125100000D03*
%TD*%
%TA.AperFunction,Conductor*%
%TO.N,GND*%
G36*
X116800000Y-56000000D02*
G01*
X116800000Y-66150000D01*
X116100000Y-66850000D01*
X114850000Y-66850000D01*
X113350000Y-68350000D01*
X113350000Y-71000000D01*
X112650000Y-71000000D01*
X111600000Y-72050000D01*
X111600000Y-85700000D01*
X112500000Y-86560000D01*
X115400000Y-86560000D01*
X115780000Y-86900000D01*
X115780000Y-91155696D01*
X115614153Y-91164098D01*
X115610383Y-91164289D01*
X115606658Y-91164859D01*
X115228485Y-91222728D01*
X115228481Y-91222729D01*
X115224755Y-91223299D01*
X115221101Y-91224244D01*
X115221096Y-91224245D01*
X115046773Y-91269328D01*
X114847064Y-91320976D01*
X114481177Y-91456321D01*
X114477788Y-91457981D01*
X114477784Y-91457983D01*
X114306009Y-91542135D01*
X114130842Y-91627949D01*
X113799644Y-91834102D01*
X113490974Y-92072669D01*
X113330372Y-92225075D01*
X113210726Y-92338614D01*
X113210721Y-92338619D01*
X113207993Y-92341208D01*
X112953598Y-92636969D01*
X112730395Y-92956924D01*
X112540667Y-93297797D01*
X112386358Y-93656099D01*
X112269048Y-94028160D01*
X112189937Y-94410171D01*
X112149836Y-94798221D01*
X112149829Y-94801984D01*
X112149829Y-94801992D01*
X112149495Y-94993280D01*
X112149155Y-95188338D01*
X112149530Y-95192094D01*
X112149530Y-95192096D01*
X112187527Y-95572779D01*
X112187901Y-95576526D01*
X112265678Y-95958811D01*
X112381689Y-96331279D01*
X112534746Y-96690117D01*
X112723283Y-97031651D01*
X112945368Y-97352383D01*
X113198729Y-97649030D01*
X113480771Y-97918555D01*
X113483755Y-97920878D01*
X113785630Y-98155882D01*
X113785640Y-98155889D01*
X113788606Y-98158198D01*
X114119082Y-98365506D01*
X114468817Y-98538355D01*
X114472344Y-98539674D01*
X114472354Y-98539678D01*
X114830692Y-98673655D01*
X114830700Y-98673657D01*
X114834229Y-98674977D01*
X114837871Y-98675932D01*
X114837879Y-98675935D01*
X114996337Y-98717505D01*
X115211576Y-98773972D01*
X115215294Y-98774554D01*
X115215293Y-98774554D01*
X115593265Y-98833743D01*
X115593270Y-98833744D01*
X115596996Y-98834327D01*
X115704068Y-98840126D01*
X115800000Y-98845322D01*
X115800000Y-103650000D01*
X113400000Y-106050000D01*
X113400000Y-108850000D01*
X112700000Y-108850000D01*
X111650000Y-109900000D01*
X111650000Y-123550000D01*
X112400000Y-124360000D01*
X115350000Y-124360000D01*
X115760000Y-124800000D01*
X115760000Y-127600000D01*
X116800000Y-128500000D01*
X116800000Y-134000000D01*
X114000000Y-136800000D01*
X109500000Y-136800000D01*
X109500000Y-135554454D01*
X109502065Y-135529734D01*
X109504036Y-135518018D01*
X109504991Y-135512342D01*
X109505142Y-135500000D01*
X109504326Y-135494304D01*
X109503952Y-135488558D01*
X109504034Y-135488553D01*
X109503612Y-135483974D01*
X109487310Y-135089821D01*
X109487183Y-135086750D01*
X109436024Y-134676323D01*
X109351146Y-134271523D01*
X109350269Y-134268576D01*
X109234009Y-133878065D01*
X109234006Y-133878055D01*
X109233130Y-133875114D01*
X109082782Y-133489805D01*
X108901129Y-133118228D01*
X108689412Y-132762921D01*
X108449077Y-132426310D01*
X108181765Y-132110696D01*
X107889304Y-131818235D01*
X107573690Y-131550923D01*
X107509517Y-131505104D01*
X107393403Y-131422201D01*
X107237079Y-131310588D01*
X106881772Y-131098871D01*
X106510195Y-130917218D01*
X106507341Y-130916104D01*
X106507331Y-130916100D01*
X106127757Y-130767990D01*
X106127751Y-130767988D01*
X106124886Y-130766870D01*
X106121945Y-130765994D01*
X106121935Y-130765991D01*
X105731424Y-130649731D01*
X105731416Y-130649729D01*
X105728477Y-130648854D01*
X105539217Y-130609170D01*
X105326693Y-130564608D01*
X105326684Y-130564606D01*
X105323677Y-130563976D01*
X105232098Y-130552561D01*
X104916300Y-130513197D01*
X104916296Y-130513197D01*
X104913250Y-130512817D01*
X104910181Y-130512690D01*
X104910180Y-130512690D01*
X104531349Y-130497021D01*
X104523773Y-130496233D01*
X104523751Y-130496478D01*
X104518021Y-130495964D01*
X104512342Y-130495009D01*
X104506145Y-130494933D01*
X104505754Y-130494928D01*
X104505749Y-130494928D01*
X104500000Y-130494858D01*
X104494302Y-130495674D01*
X104474604Y-130498495D01*
X104453481Y-130500000D01*
X101000000Y-130500000D01*
X101000000Y-59500000D01*
X104445546Y-59500000D01*
X104470266Y-59502065D01*
X104487658Y-59504991D01*
X104493822Y-59505066D01*
X104494246Y-59505072D01*
X104494251Y-59505072D01*
X104500000Y-59505142D01*
X104505696Y-59504326D01*
X104511442Y-59503952D01*
X104511447Y-59504034D01*
X104516022Y-59503612D01*
X104913250Y-59487183D01*
X104916296Y-59486803D01*
X104916300Y-59486803D01*
X105320620Y-59436405D01*
X105320619Y-59436405D01*
X105323677Y-59436024D01*
X105326684Y-59435394D01*
X105326693Y-59435392D01*
X105539217Y-59390830D01*
X105728477Y-59351146D01*
X105731416Y-59350271D01*
X105731424Y-59350269D01*
X106121935Y-59234009D01*
X106121945Y-59234006D01*
X106124886Y-59233130D01*
X106127751Y-59232012D01*
X106127757Y-59232010D01*
X106507331Y-59083900D01*
X106507341Y-59083896D01*
X106510195Y-59082782D01*
X106535945Y-59070194D01*
X106878996Y-58902486D01*
X106881772Y-58901129D01*
X107237079Y-58689412D01*
X107504313Y-58498611D01*
X107571175Y-58450873D01*
X107571180Y-58450869D01*
X107573690Y-58449077D01*
X107889304Y-58181765D01*
X108181765Y-57889304D01*
X108449077Y-57573690D01*
X108689412Y-57237079D01*
X108901129Y-56881772D01*
X109082782Y-56510195D01*
X109233130Y-56124886D01*
X109270311Y-56000000D01*
X109350269Y-55731424D01*
X109350271Y-55731416D01*
X109351146Y-55728477D01*
X109436024Y-55323677D01*
X109487183Y-54913250D01*
X109502979Y-54531349D01*
X109503767Y-54523773D01*
X109503522Y-54523751D01*
X109504036Y-54518021D01*
X109504991Y-54512342D01*
X109505142Y-54500000D01*
X109501505Y-54474604D01*
X109500000Y-54453481D01*
X109500000Y-53200000D01*
X114000000Y-53200000D01*
X116800000Y-56000000D01*
G37*
%TD.AperFunction*%
%TD*%
%TA.AperFunction,Conductor*%
%TO.N,GND*%
G36*
X121976224Y-52519962D02*
G01*
X122030762Y-52574500D01*
X122050724Y-52649000D01*
X122030762Y-52723500D01*
X121986550Y-52771497D01*
X121678163Y-52985034D01*
X121385368Y-53235104D01*
X121382761Y-53237832D01*
X121382760Y-53237833D01*
X121121950Y-53510755D01*
X121121942Y-53510765D01*
X121119343Y-53513484D01*
X120882812Y-53817321D01*
X120880810Y-53820512D01*
X120880804Y-53820521D01*
X120755827Y-54019753D01*
X120678196Y-54143507D01*
X120672460Y-54155113D01*
X120514558Y-54474604D01*
X120507591Y-54488700D01*
X120506268Y-54492238D01*
X120506266Y-54492243D01*
X120492137Y-54530034D01*
X120372743Y-54849366D01*
X120371788Y-54853008D01*
X120371785Y-54853016D01*
X120355183Y-54916300D01*
X120275034Y-55221814D01*
X120274452Y-55225531D01*
X120216649Y-55594652D01*
X120215462Y-55602229D01*
X120194639Y-55986717D01*
X120194816Y-55990471D01*
X120194816Y-55990477D01*
X120204408Y-56193861D01*
X120212778Y-56371340D01*
X120269692Y-56752162D01*
X120270622Y-56755812D01*
X120270623Y-56755815D01*
X120363866Y-57121623D01*
X120364799Y-57125283D01*
X120404741Y-57234428D01*
X120495124Y-57481410D01*
X120497126Y-57486882D01*
X120498774Y-57490276D01*
X120498777Y-57490283D01*
X120585924Y-57669754D01*
X120665317Y-57833258D01*
X120667299Y-57836467D01*
X120667300Y-57836469D01*
X120865117Y-58156762D01*
X120867650Y-58160864D01*
X120961587Y-58283285D01*
X121085537Y-58444819D01*
X121102054Y-58466345D01*
X121104633Y-58469082D01*
X121104640Y-58469090D01*
X121268938Y-58643438D01*
X121366129Y-58746575D01*
X121420572Y-58793735D01*
X121654313Y-58996208D01*
X121654319Y-58996213D01*
X121657172Y-58998684D01*
X121660264Y-59000857D01*
X121969114Y-59217921D01*
X121969122Y-59217926D01*
X121972201Y-59220090D01*
X121975489Y-59221935D01*
X121975492Y-59221937D01*
X122304698Y-59406679D01*
X122304706Y-59406683D01*
X122307992Y-59408527D01*
X122661107Y-59562066D01*
X123027931Y-59679134D01*
X123031620Y-59679911D01*
X123031626Y-59679913D01*
X123372429Y-59751731D01*
X123404707Y-59758533D01*
X123408456Y-59758934D01*
X123408458Y-59758934D01*
X123783833Y-59799051D01*
X123783838Y-59799051D01*
X123787578Y-59799451D01*
X123791335Y-59799471D01*
X123791341Y-59799471D01*
X124010972Y-59800621D01*
X124172624Y-59801467D01*
X124176380Y-59801105D01*
X124176387Y-59801105D01*
X124552154Y-59764922D01*
X124552156Y-59764922D01*
X124555902Y-59764561D01*
X124634406Y-59748875D01*
X124929797Y-59689850D01*
X124929802Y-59689849D01*
X124933489Y-59689112D01*
X125208826Y-59604407D01*
X125297917Y-59576999D01*
X125297920Y-59576998D01*
X125301518Y-59575891D01*
X125631729Y-59436405D01*
X125652753Y-59427524D01*
X125652754Y-59427523D01*
X125656221Y-59426059D01*
X125993968Y-59241148D01*
X126311298Y-59023053D01*
X126338482Y-59000000D01*
X141394318Y-59000000D01*
X141395593Y-59009685D01*
X141405364Y-59083900D01*
X141414956Y-59156762D01*
X141475464Y-59302841D01*
X141571718Y-59428282D01*
X141697159Y-59524536D01*
X141706182Y-59528274D01*
X141706183Y-59528274D01*
X141821141Y-59575891D01*
X141843238Y-59585044D01*
X141852919Y-59586319D01*
X141852921Y-59586319D01*
X141990315Y-59604407D01*
X142000000Y-59605682D01*
X142009685Y-59604407D01*
X142147079Y-59586319D01*
X142147081Y-59586319D01*
X142156762Y-59585044D01*
X142178859Y-59575891D01*
X142293817Y-59528274D01*
X142293818Y-59528274D01*
X142302841Y-59524536D01*
X142428282Y-59428282D01*
X142524536Y-59302841D01*
X142585044Y-59156762D01*
X142594637Y-59083900D01*
X142604407Y-59009685D01*
X142605682Y-59000000D01*
X142600388Y-58959785D01*
X142586319Y-58852921D01*
X142586319Y-58852919D01*
X142585044Y-58843238D01*
X142540131Y-58734808D01*
X142530064Y-58658341D01*
X142559579Y-58587084D01*
X142620769Y-58540131D01*
X142697237Y-58530064D01*
X142734808Y-58540131D01*
X142843238Y-58585044D01*
X142852919Y-58586319D01*
X142852921Y-58586319D01*
X142990315Y-58604407D01*
X143000000Y-58605682D01*
X143009685Y-58604407D01*
X143147079Y-58586319D01*
X143147081Y-58586319D01*
X143156762Y-58585044D01*
X143265192Y-58540131D01*
X143341659Y-58530064D01*
X143412916Y-58559579D01*
X143459869Y-58620769D01*
X143469936Y-58697237D01*
X143459869Y-58734808D01*
X143414956Y-58843238D01*
X143413681Y-58852919D01*
X143413681Y-58852921D01*
X143399612Y-58959785D01*
X143394318Y-59000000D01*
X143395593Y-59009685D01*
X143405364Y-59083900D01*
X143414956Y-59156762D01*
X143475464Y-59302841D01*
X143571718Y-59428282D01*
X143697159Y-59524536D01*
X143706182Y-59528274D01*
X143706183Y-59528274D01*
X143821141Y-59575891D01*
X143843238Y-59585044D01*
X143852919Y-59586319D01*
X143852921Y-59586319D01*
X143990315Y-59604407D01*
X144000000Y-59605682D01*
X144009685Y-59604407D01*
X144147079Y-59586319D01*
X144147081Y-59586319D01*
X144156762Y-59585044D01*
X144178859Y-59575891D01*
X144293817Y-59528274D01*
X144293818Y-59528274D01*
X144302841Y-59524536D01*
X144428282Y-59428282D01*
X144524536Y-59302841D01*
X144585044Y-59156762D01*
X144594637Y-59083900D01*
X144604407Y-59009685D01*
X144605682Y-59000000D01*
X144600388Y-58959785D01*
X144596393Y-58929440D01*
X144606460Y-58852971D01*
X144653413Y-58791782D01*
X144724670Y-58762267D01*
X144802934Y-58773092D01*
X144862953Y-58798878D01*
X145069186Y-58845544D01*
X145120544Y-58847562D01*
X145273641Y-58853578D01*
X145273645Y-58853578D01*
X145280470Y-58853846D01*
X145489730Y-58823504D01*
X145496187Y-58821312D01*
X145496192Y-58821311D01*
X145670129Y-58762267D01*
X145689955Y-58755537D01*
X145805210Y-58690991D01*
X145868481Y-58655558D01*
X145868486Y-58655554D01*
X145874442Y-58652219D01*
X146037012Y-58517012D01*
X146172219Y-58354442D01*
X146175554Y-58348486D01*
X146175558Y-58348481D01*
X146262325Y-58193546D01*
X146275537Y-58169955D01*
X146306389Y-58079068D01*
X146341311Y-57976192D01*
X146341312Y-57976187D01*
X146343504Y-57969730D01*
X146373846Y-57760470D01*
X146375429Y-57700000D01*
X146374701Y-57692070D01*
X146372650Y-57669754D01*
X149144967Y-57669754D01*
X149145414Y-57676572D01*
X149158010Y-57868751D01*
X149158796Y-57880749D01*
X149210845Y-58085690D01*
X149213703Y-58091890D01*
X149213705Y-58091895D01*
X149271606Y-58217492D01*
X149299369Y-58277714D01*
X149303305Y-58283284D01*
X149303306Y-58283285D01*
X149394920Y-58412916D01*
X149421405Y-58450391D01*
X149572865Y-58597937D01*
X149748677Y-58715411D01*
X149754945Y-58718104D01*
X149754947Y-58718105D01*
X149793827Y-58734809D01*
X149942953Y-58798878D01*
X150149186Y-58845544D01*
X150200544Y-58847562D01*
X150353641Y-58853578D01*
X150353645Y-58853578D01*
X150360470Y-58853846D01*
X150569730Y-58823504D01*
X150576187Y-58821312D01*
X150576192Y-58821311D01*
X150750129Y-58762267D01*
X150769955Y-58755537D01*
X150885210Y-58690991D01*
X150948481Y-58655558D01*
X150948486Y-58655554D01*
X150954442Y-58652219D01*
X151117012Y-58517012D01*
X151252219Y-58354442D01*
X151255554Y-58348486D01*
X151255558Y-58348481D01*
X151342325Y-58193546D01*
X151355537Y-58169955D01*
X151386389Y-58079068D01*
X151421311Y-57976192D01*
X151421312Y-57976187D01*
X151423504Y-57969730D01*
X151424483Y-57962977D01*
X151426079Y-57956329D01*
X151427585Y-57956691D01*
X151454723Y-57893523D01*
X151516521Y-57847374D01*
X151593114Y-57838306D01*
X151663979Y-57868751D01*
X151710128Y-57930549D01*
X151716152Y-57949088D01*
X151726623Y-57990315D01*
X151750845Y-58085690D01*
X151753703Y-58091890D01*
X151753705Y-58091895D01*
X151811606Y-58217492D01*
X151839369Y-58277714D01*
X151843305Y-58283284D01*
X151843306Y-58283285D01*
X151934920Y-58412916D01*
X151961405Y-58450391D01*
X152112865Y-58597937D01*
X152288677Y-58715411D01*
X152294945Y-58718104D01*
X152294947Y-58718105D01*
X152333827Y-58734809D01*
X152482953Y-58798878D01*
X152689186Y-58845544D01*
X152740544Y-58847562D01*
X152893641Y-58853578D01*
X152893645Y-58853578D01*
X152900470Y-58853846D01*
X153109730Y-58823504D01*
X153116187Y-58821312D01*
X153116192Y-58821311D01*
X153290129Y-58762267D01*
X153309955Y-58755537D01*
X153425210Y-58690991D01*
X153488481Y-58655558D01*
X153488486Y-58655554D01*
X153494442Y-58652219D01*
X153657012Y-58517012D01*
X153792219Y-58354442D01*
X153795554Y-58348486D01*
X153795558Y-58348481D01*
X153882325Y-58193546D01*
X153895537Y-58169955D01*
X153926389Y-58079068D01*
X153961311Y-57976192D01*
X153961312Y-57976187D01*
X153963504Y-57969730D01*
X153964483Y-57962977D01*
X153966079Y-57956329D01*
X153967585Y-57956691D01*
X153994723Y-57893523D01*
X154056521Y-57847374D01*
X154133114Y-57838306D01*
X154203979Y-57868751D01*
X154250128Y-57930549D01*
X154256152Y-57949088D01*
X154266623Y-57990315D01*
X154290845Y-58085690D01*
X154293703Y-58091890D01*
X154293705Y-58091895D01*
X154351606Y-58217492D01*
X154379369Y-58277714D01*
X154383305Y-58283284D01*
X154383306Y-58283285D01*
X154474920Y-58412916D01*
X154501405Y-58450391D01*
X154652865Y-58597937D01*
X154828677Y-58715411D01*
X154834945Y-58718104D01*
X154834947Y-58718105D01*
X154873827Y-58734809D01*
X155022953Y-58798878D01*
X155229186Y-58845544D01*
X155280544Y-58847562D01*
X155433641Y-58853578D01*
X155433645Y-58853578D01*
X155440470Y-58853846D01*
X155649730Y-58823504D01*
X155656187Y-58821312D01*
X155656192Y-58821311D01*
X155830129Y-58762267D01*
X155849955Y-58755537D01*
X155965210Y-58690991D01*
X156028481Y-58655558D01*
X156028486Y-58655554D01*
X156034442Y-58652219D01*
X156197012Y-58517012D01*
X156332219Y-58354442D01*
X156335554Y-58348486D01*
X156335558Y-58348481D01*
X156422325Y-58193546D01*
X156435537Y-58169955D01*
X156466389Y-58079068D01*
X156501311Y-57976192D01*
X156501312Y-57976187D01*
X156503504Y-57969730D01*
X156504483Y-57962977D01*
X156506079Y-57956329D01*
X156507585Y-57956691D01*
X156534723Y-57893523D01*
X156596521Y-57847374D01*
X156673114Y-57838306D01*
X156743979Y-57868751D01*
X156790128Y-57930549D01*
X156796152Y-57949088D01*
X156806623Y-57990315D01*
X156830845Y-58085690D01*
X156833703Y-58091890D01*
X156833705Y-58091895D01*
X156891606Y-58217492D01*
X156919369Y-58277714D01*
X156923305Y-58283284D01*
X156923306Y-58283285D01*
X157014920Y-58412916D01*
X157041405Y-58450391D01*
X157192865Y-58597937D01*
X157368677Y-58715411D01*
X157374945Y-58718104D01*
X157374947Y-58718105D01*
X157413827Y-58734809D01*
X157562953Y-58798878D01*
X157769186Y-58845544D01*
X157820544Y-58847562D01*
X157973641Y-58853578D01*
X157973645Y-58853578D01*
X157980470Y-58853846D01*
X158189730Y-58823504D01*
X158196187Y-58821312D01*
X158196192Y-58821311D01*
X158370129Y-58762267D01*
X158389955Y-58755537D01*
X158505210Y-58690991D01*
X158568481Y-58655558D01*
X158568486Y-58655554D01*
X158574442Y-58652219D01*
X158737012Y-58517012D01*
X158872219Y-58354442D01*
X158875554Y-58348486D01*
X158875558Y-58348481D01*
X158962325Y-58193546D01*
X158975537Y-58169955D01*
X159006389Y-58079068D01*
X159041311Y-57976192D01*
X159041312Y-57976187D01*
X159043504Y-57969730D01*
X159073846Y-57760470D01*
X159075429Y-57700000D01*
X159074701Y-57692070D01*
X159072650Y-57669754D01*
X161844967Y-57669754D01*
X161845414Y-57676572D01*
X161858010Y-57868751D01*
X161858796Y-57880749D01*
X161910845Y-58085690D01*
X161913703Y-58091890D01*
X161913705Y-58091895D01*
X161971606Y-58217492D01*
X161999369Y-58277714D01*
X162003305Y-58283284D01*
X162003306Y-58283285D01*
X162094920Y-58412916D01*
X162121405Y-58450391D01*
X162272865Y-58597937D01*
X162448677Y-58715411D01*
X162454945Y-58718104D01*
X162454947Y-58718105D01*
X162493827Y-58734809D01*
X162642953Y-58798878D01*
X162849186Y-58845544D01*
X162900544Y-58847562D01*
X163053641Y-58853578D01*
X163053645Y-58853578D01*
X163060470Y-58853846D01*
X163269730Y-58823504D01*
X163276187Y-58821312D01*
X163276192Y-58821311D01*
X163450129Y-58762267D01*
X163469955Y-58755537D01*
X163585210Y-58690991D01*
X163648481Y-58655558D01*
X163648486Y-58655554D01*
X163654442Y-58652219D01*
X163817012Y-58517012D01*
X163952219Y-58354442D01*
X163955554Y-58348486D01*
X163955558Y-58348481D01*
X164042325Y-58193546D01*
X164055537Y-58169955D01*
X164086389Y-58079068D01*
X164121311Y-57976192D01*
X164121312Y-57976187D01*
X164123504Y-57969730D01*
X164153846Y-57760470D01*
X164155429Y-57700000D01*
X164154701Y-57692070D01*
X164136706Y-57496242D01*
X164136081Y-57489440D01*
X164078686Y-57285931D01*
X163985165Y-57096290D01*
X163981084Y-57090825D01*
X163981081Y-57090820D01*
X163862739Y-56932341D01*
X163862737Y-56932339D01*
X163858651Y-56926867D01*
X163703381Y-56783337D01*
X163524554Y-56670505D01*
X163518215Y-56667976D01*
X163518209Y-56667973D01*
X163334504Y-56594683D01*
X163328160Y-56592152D01*
X163273713Y-56581322D01*
X163127478Y-56552234D01*
X163127475Y-56552234D01*
X163120775Y-56550901D01*
X163015060Y-56549517D01*
X162916180Y-56548222D01*
X162916175Y-56548222D01*
X162909346Y-56548133D01*
X162902613Y-56549290D01*
X162902612Y-56549290D01*
X162707684Y-56582784D01*
X162707680Y-56582785D01*
X162700953Y-56583941D01*
X162502575Y-56657127D01*
X162496702Y-56660621D01*
X162336695Y-56755815D01*
X162320856Y-56765238D01*
X162291270Y-56791184D01*
X162167022Y-56900146D01*
X162167019Y-56900149D01*
X162161881Y-56904655D01*
X162106189Y-56975300D01*
X162035207Y-57065340D01*
X162035203Y-57065346D01*
X162030976Y-57070708D01*
X162027797Y-57076751D01*
X162027794Y-57076755D01*
X162000397Y-57128829D01*
X161932523Y-57257836D01*
X161921757Y-57292509D01*
X161871844Y-57453253D01*
X161871843Y-57453258D01*
X161869820Y-57459773D01*
X161869018Y-57466550D01*
X161869017Y-57466554D01*
X161855653Y-57579467D01*
X161844967Y-57669754D01*
X159072650Y-57669754D01*
X159056706Y-57496242D01*
X159056081Y-57489440D01*
X158998686Y-57285931D01*
X158905165Y-57096290D01*
X158901084Y-57090825D01*
X158901081Y-57090820D01*
X158782739Y-56932341D01*
X158782737Y-56932339D01*
X158778651Y-56926867D01*
X158623381Y-56783337D01*
X158444554Y-56670505D01*
X158438215Y-56667976D01*
X158438209Y-56667973D01*
X158254504Y-56594683D01*
X158248160Y-56592152D01*
X158193713Y-56581322D01*
X158047478Y-56552234D01*
X158047475Y-56552234D01*
X158040775Y-56550901D01*
X157935060Y-56549517D01*
X157836180Y-56548222D01*
X157836175Y-56548222D01*
X157829346Y-56548133D01*
X157822613Y-56549290D01*
X157822612Y-56549290D01*
X157627684Y-56582784D01*
X157627680Y-56582785D01*
X157620953Y-56583941D01*
X157422575Y-56657127D01*
X157416702Y-56660621D01*
X157256695Y-56755815D01*
X157240856Y-56765238D01*
X157211270Y-56791184D01*
X157087022Y-56900146D01*
X157087019Y-56900149D01*
X157081881Y-56904655D01*
X157026189Y-56975300D01*
X156955207Y-57065340D01*
X156955203Y-57065346D01*
X156950976Y-57070708D01*
X156947797Y-57076751D01*
X156947794Y-57076755D01*
X156920397Y-57128829D01*
X156852523Y-57257836D01*
X156850499Y-57264356D01*
X156850496Y-57264362D01*
X156791153Y-57455480D01*
X156749997Y-57520710D01*
X156681739Y-57556622D01*
X156604671Y-57553594D01*
X156539441Y-57512438D01*
X156505449Y-57451741D01*
X156460541Y-57292509D01*
X156458686Y-57285931D01*
X156365165Y-57096290D01*
X156361084Y-57090825D01*
X156361081Y-57090820D01*
X156242739Y-56932341D01*
X156242737Y-56932339D01*
X156238651Y-56926867D01*
X156083381Y-56783337D01*
X155904554Y-56670505D01*
X155898215Y-56667976D01*
X155898209Y-56667973D01*
X155714504Y-56594683D01*
X155708160Y-56592152D01*
X155653713Y-56581322D01*
X155507478Y-56552234D01*
X155507475Y-56552234D01*
X155500775Y-56550901D01*
X155395060Y-56549517D01*
X155296180Y-56548222D01*
X155296175Y-56548222D01*
X155289346Y-56548133D01*
X155282613Y-56549290D01*
X155282612Y-56549290D01*
X155087684Y-56582784D01*
X155087680Y-56582785D01*
X155080953Y-56583941D01*
X154882575Y-56657127D01*
X154876702Y-56660621D01*
X154716695Y-56755815D01*
X154700856Y-56765238D01*
X154671270Y-56791184D01*
X154547022Y-56900146D01*
X154547019Y-56900149D01*
X154541881Y-56904655D01*
X154486189Y-56975300D01*
X154415207Y-57065340D01*
X154415203Y-57065346D01*
X154410976Y-57070708D01*
X154407797Y-57076751D01*
X154407794Y-57076755D01*
X154380397Y-57128829D01*
X154312523Y-57257836D01*
X154310499Y-57264356D01*
X154310496Y-57264362D01*
X154251153Y-57455480D01*
X154209997Y-57520710D01*
X154141739Y-57556622D01*
X154064671Y-57553594D01*
X153999441Y-57512438D01*
X153965449Y-57451741D01*
X153920541Y-57292509D01*
X153918686Y-57285931D01*
X153825165Y-57096290D01*
X153821084Y-57090825D01*
X153821081Y-57090820D01*
X153702739Y-56932341D01*
X153702737Y-56932339D01*
X153698651Y-56926867D01*
X153543381Y-56783337D01*
X153364554Y-56670505D01*
X153358215Y-56667976D01*
X153358209Y-56667973D01*
X153174504Y-56594683D01*
X153168160Y-56592152D01*
X153113713Y-56581322D01*
X152967478Y-56552234D01*
X152967475Y-56552234D01*
X152960775Y-56550901D01*
X152855060Y-56549517D01*
X152756180Y-56548222D01*
X152756175Y-56548222D01*
X152749346Y-56548133D01*
X152742613Y-56549290D01*
X152742612Y-56549290D01*
X152547684Y-56582784D01*
X152547680Y-56582785D01*
X152540953Y-56583941D01*
X152342575Y-56657127D01*
X152336702Y-56660621D01*
X152176695Y-56755815D01*
X152160856Y-56765238D01*
X152131270Y-56791184D01*
X152007022Y-56900146D01*
X152007019Y-56900149D01*
X152001881Y-56904655D01*
X151946189Y-56975300D01*
X151875207Y-57065340D01*
X151875203Y-57065346D01*
X151870976Y-57070708D01*
X151867797Y-57076751D01*
X151867794Y-57076755D01*
X151840397Y-57128829D01*
X151772523Y-57257836D01*
X151770499Y-57264356D01*
X151770496Y-57264362D01*
X151711153Y-57455480D01*
X151669997Y-57520710D01*
X151601739Y-57556622D01*
X151524671Y-57553594D01*
X151459441Y-57512438D01*
X151425449Y-57451741D01*
X151380541Y-57292509D01*
X151378686Y-57285931D01*
X151285165Y-57096290D01*
X151281084Y-57090825D01*
X151281081Y-57090820D01*
X151162739Y-56932341D01*
X151162737Y-56932339D01*
X151158651Y-56926867D01*
X151003381Y-56783337D01*
X150824554Y-56670505D01*
X150818215Y-56667976D01*
X150818209Y-56667973D01*
X150634504Y-56594683D01*
X150628160Y-56592152D01*
X150573713Y-56581322D01*
X150427478Y-56552234D01*
X150427475Y-56552234D01*
X150420775Y-56550901D01*
X150315060Y-56549517D01*
X150216180Y-56548222D01*
X150216175Y-56548222D01*
X150209346Y-56548133D01*
X150202613Y-56549290D01*
X150202612Y-56549290D01*
X150007684Y-56582784D01*
X150007680Y-56582785D01*
X150000953Y-56583941D01*
X149802575Y-56657127D01*
X149796702Y-56660621D01*
X149636695Y-56755815D01*
X149620856Y-56765238D01*
X149591270Y-56791184D01*
X149467022Y-56900146D01*
X149467019Y-56900149D01*
X149461881Y-56904655D01*
X149406189Y-56975300D01*
X149335207Y-57065340D01*
X149335203Y-57065346D01*
X149330976Y-57070708D01*
X149327797Y-57076751D01*
X149327794Y-57076755D01*
X149300397Y-57128829D01*
X149232523Y-57257836D01*
X149221757Y-57292509D01*
X149171844Y-57453253D01*
X149171843Y-57453258D01*
X149169820Y-57459773D01*
X149169018Y-57466550D01*
X149169017Y-57466554D01*
X149155653Y-57579467D01*
X149144967Y-57669754D01*
X146372650Y-57669754D01*
X146356706Y-57496242D01*
X146356081Y-57489440D01*
X146298686Y-57285931D01*
X146205165Y-57096290D01*
X146201084Y-57090825D01*
X146201081Y-57090820D01*
X146082739Y-56932341D01*
X146082737Y-56932339D01*
X146078651Y-56926867D01*
X145923381Y-56783337D01*
X145744554Y-56670505D01*
X145738215Y-56667976D01*
X145738209Y-56667973D01*
X145554504Y-56594683D01*
X145548160Y-56592152D01*
X145493713Y-56581322D01*
X145347478Y-56552234D01*
X145347475Y-56552234D01*
X145340775Y-56550901D01*
X145235060Y-56549517D01*
X145136180Y-56548222D01*
X145136175Y-56548222D01*
X145129346Y-56548133D01*
X145122613Y-56549290D01*
X145122612Y-56549290D01*
X144927684Y-56582784D01*
X144927680Y-56582785D01*
X144920953Y-56583941D01*
X144722575Y-56657127D01*
X144716702Y-56660621D01*
X144556695Y-56755815D01*
X144540856Y-56765238D01*
X144511270Y-56791184D01*
X144387022Y-56900146D01*
X144387019Y-56900149D01*
X144381881Y-56904655D01*
X144326189Y-56975300D01*
X144255207Y-57065340D01*
X144255203Y-57065346D01*
X144250976Y-57070708D01*
X144247797Y-57076751D01*
X144247794Y-57076755D01*
X144220397Y-57128829D01*
X144152523Y-57257836D01*
X144141757Y-57292509D01*
X144091844Y-57453253D01*
X144091843Y-57453258D01*
X144089820Y-57459773D01*
X144089018Y-57466550D01*
X144089017Y-57466554D01*
X144075653Y-57579467D01*
X144064967Y-57669754D01*
X144065414Y-57676572D01*
X144078010Y-57868751D01*
X144078796Y-57880749D01*
X144130845Y-58085690D01*
X144133703Y-58091890D01*
X144133705Y-58091895D01*
X144177654Y-58187227D01*
X144190716Y-58263241D01*
X144164020Y-58335602D01*
X144104721Y-58384920D01*
X144022893Y-58397332D01*
X144000000Y-58394318D01*
X143990315Y-58395593D01*
X143852921Y-58413681D01*
X143852919Y-58413681D01*
X143843238Y-58414956D01*
X143757691Y-58450391D01*
X143734809Y-58459869D01*
X143658341Y-58469936D01*
X143587084Y-58440421D01*
X143540131Y-58379231D01*
X143530064Y-58302763D01*
X143540131Y-58265191D01*
X143581307Y-58165784D01*
X143585044Y-58156762D01*
X143605682Y-58000000D01*
X143590799Y-57886948D01*
X143586319Y-57852921D01*
X143586319Y-57852919D01*
X143585044Y-57843238D01*
X143524536Y-57697159D01*
X143428282Y-57571718D01*
X143302841Y-57475464D01*
X143281331Y-57466554D01*
X143165784Y-57418693D01*
X143156762Y-57414956D01*
X143147081Y-57413681D01*
X143147079Y-57413681D01*
X143009685Y-57395593D01*
X143000000Y-57394318D01*
X142990315Y-57395593D01*
X142852921Y-57413681D01*
X142852919Y-57413681D01*
X142843238Y-57414956D01*
X142834216Y-57418693D01*
X142718670Y-57466554D01*
X142697159Y-57475464D01*
X142571718Y-57571718D01*
X142475464Y-57697159D01*
X142414956Y-57843238D01*
X142413681Y-57852919D01*
X142413681Y-57852921D01*
X142409201Y-57886948D01*
X142394318Y-58000000D01*
X142414956Y-58156762D01*
X142418693Y-58165784D01*
X142459869Y-58265191D01*
X142469936Y-58341659D01*
X142440421Y-58412916D01*
X142379231Y-58459869D01*
X142302763Y-58469936D01*
X142265191Y-58459869D01*
X142242310Y-58450391D01*
X142156762Y-58414956D01*
X142147081Y-58413681D01*
X142147079Y-58413681D01*
X142009685Y-58395593D01*
X142000000Y-58394318D01*
X141990315Y-58395593D01*
X141852921Y-58413681D01*
X141852919Y-58413681D01*
X141843238Y-58414956D01*
X141834216Y-58418693D01*
X141710505Y-58469936D01*
X141697159Y-58475464D01*
X141571718Y-58571718D01*
X141475464Y-58697159D01*
X141471726Y-58706182D01*
X141471726Y-58706183D01*
X141432706Y-58800386D01*
X141414956Y-58843238D01*
X141413681Y-58852919D01*
X141413681Y-58852921D01*
X141399612Y-58959785D01*
X141394318Y-59000000D01*
X126338482Y-59000000D01*
X126349902Y-58990315D01*
X126602095Y-58776440D01*
X126602096Y-58776439D01*
X126604965Y-58774006D01*
X126622738Y-58755537D01*
X126869344Y-58499276D01*
X126869349Y-58499270D01*
X126871960Y-58496557D01*
X127109550Y-58193546D01*
X127259284Y-57956691D01*
X127313288Y-57871265D01*
X127313291Y-57871260D01*
X127315303Y-57868077D01*
X127327688Y-57843238D01*
X127470589Y-57556622D01*
X127487112Y-57523482D01*
X127623218Y-57163288D01*
X127633331Y-57125283D01*
X127692035Y-56904655D01*
X127722227Y-56791184D01*
X127761143Y-56548222D01*
X127782530Y-56414701D01*
X127782530Y-56414698D01*
X127783126Y-56410979D01*
X127805291Y-56026566D01*
X127805384Y-56000000D01*
X127785903Y-55615442D01*
X127727660Y-55234821D01*
X127725258Y-55225531D01*
X127632196Y-54865688D01*
X127632194Y-54865683D01*
X127631251Y-54862035D01*
X127625257Y-54845829D01*
X127508440Y-54530034D01*
X127497663Y-54500900D01*
X127328264Y-54155113D01*
X127124788Y-53828216D01*
X126889319Y-53523554D01*
X126624267Y-53244248D01*
X126332347Y-52993157D01*
X126329265Y-52991007D01*
X126329256Y-52991000D01*
X126016546Y-52772851D01*
X126017111Y-52772041D01*
X125967607Y-52718966D01*
X125950248Y-52643816D01*
X125972790Y-52570056D01*
X126029192Y-52517449D01*
X126099158Y-52500000D01*
X165351000Y-52500000D01*
X165425500Y-52519962D01*
X165480038Y-52574500D01*
X165500000Y-52649000D01*
X165500000Y-54445546D01*
X165497935Y-54470266D01*
X165495009Y-54487658D01*
X165494939Y-54493411D01*
X165494934Y-54493829D01*
X165494858Y-54500000D01*
X165495674Y-54505696D01*
X165496048Y-54511442D01*
X165495966Y-54511447D01*
X165496388Y-54516022D01*
X165512817Y-54913250D01*
X165563976Y-55323677D01*
X165648854Y-55728477D01*
X165649729Y-55731416D01*
X165649731Y-55731424D01*
X165737599Y-56026566D01*
X165766870Y-56124886D01*
X165767988Y-56127751D01*
X165767990Y-56127757D01*
X165878504Y-56410979D01*
X165917218Y-56510195D01*
X165918568Y-56512957D01*
X165918570Y-56512961D01*
X166037294Y-56755815D01*
X166098871Y-56881772D01*
X166310588Y-57237079D01*
X166440258Y-57418693D01*
X166545270Y-57565772D01*
X166550923Y-57573690D01*
X166818235Y-57889304D01*
X167110696Y-58181765D01*
X167426310Y-58449077D01*
X167428820Y-58450869D01*
X167428825Y-58450873D01*
X167492810Y-58496557D01*
X167762921Y-58689412D01*
X168118228Y-58901129D01*
X168121004Y-58902486D01*
X168464056Y-59070194D01*
X168489805Y-59082782D01*
X168492659Y-59083896D01*
X168492669Y-59083900D01*
X168872243Y-59232010D01*
X168872249Y-59232012D01*
X168875114Y-59233130D01*
X168878055Y-59234006D01*
X168878065Y-59234009D01*
X169268576Y-59350269D01*
X169268584Y-59350271D01*
X169271523Y-59351146D01*
X169460783Y-59390830D01*
X169673307Y-59435392D01*
X169673316Y-59435394D01*
X169676323Y-59436024D01*
X169679381Y-59436405D01*
X169679380Y-59436405D01*
X170083700Y-59486803D01*
X170083704Y-59486803D01*
X170086750Y-59487183D01*
X170089819Y-59487310D01*
X170089820Y-59487310D01*
X170468651Y-59502979D01*
X170476227Y-59503767D01*
X170476249Y-59503522D01*
X170481979Y-59504036D01*
X170487658Y-59504991D01*
X170493855Y-59505067D01*
X170494246Y-59505072D01*
X170494251Y-59505072D01*
X170500000Y-59505142D01*
X170508310Y-59503952D01*
X170525396Y-59501505D01*
X170546519Y-59500000D01*
X174351000Y-59500000D01*
X174425500Y-59519962D01*
X174480038Y-59574500D01*
X174500000Y-59649000D01*
X174500000Y-130351000D01*
X174480038Y-130425500D01*
X174425500Y-130480038D01*
X174351000Y-130500000D01*
X170554454Y-130500000D01*
X170529734Y-130497935D01*
X170522007Y-130496635D01*
X170512342Y-130495009D01*
X170506178Y-130494934D01*
X170505754Y-130494928D01*
X170505749Y-130494928D01*
X170500000Y-130494858D01*
X170494304Y-130495674D01*
X170488558Y-130496048D01*
X170488553Y-130495966D01*
X170483978Y-130496388D01*
X170086750Y-130512817D01*
X170083704Y-130513197D01*
X170083700Y-130513197D01*
X169767902Y-130552561D01*
X169676323Y-130563976D01*
X169673316Y-130564606D01*
X169673307Y-130564608D01*
X169460783Y-130609170D01*
X169271523Y-130648854D01*
X169268584Y-130649729D01*
X169268576Y-130649731D01*
X168878065Y-130765991D01*
X168878055Y-130765994D01*
X168875114Y-130766870D01*
X168872249Y-130767988D01*
X168872243Y-130767990D01*
X168492669Y-130916100D01*
X168492659Y-130916104D01*
X168489805Y-130917218D01*
X168487043Y-130918568D01*
X168487039Y-130918570D01*
X168336932Y-130991953D01*
X168118228Y-131098871D01*
X167762921Y-131310588D01*
X167618530Y-131413681D01*
X167452336Y-131532341D01*
X167426310Y-131550923D01*
X167110696Y-131818235D01*
X166818235Y-132110696D01*
X166550923Y-132426310D01*
X166549131Y-132428820D01*
X166549127Y-132428825D01*
X166480791Y-132524536D01*
X166310588Y-132762921D01*
X166098871Y-133118228D01*
X166097514Y-133121004D01*
X165939593Y-133444037D01*
X165917218Y-133489805D01*
X165916104Y-133492659D01*
X165916100Y-133492669D01*
X165873350Y-133602229D01*
X165766870Y-133875114D01*
X165765994Y-133878055D01*
X165765991Y-133878065D01*
X165649731Y-134268576D01*
X165648854Y-134271523D01*
X165563976Y-134676323D01*
X165512817Y-135086750D01*
X165512690Y-135089819D01*
X165512690Y-135089820D01*
X165497021Y-135468651D01*
X165496233Y-135476227D01*
X165496478Y-135476249D01*
X165495964Y-135481979D01*
X165495009Y-135487658D01*
X165494858Y-135500000D01*
X165495674Y-135505698D01*
X165498495Y-135525396D01*
X165500000Y-135546519D01*
X165500000Y-137351000D01*
X165480038Y-137425500D01*
X165425500Y-137480038D01*
X165351000Y-137500000D01*
X126097195Y-137500000D01*
X126022695Y-137480038D01*
X125968157Y-137425500D01*
X125948195Y-137351000D01*
X125968157Y-137276500D01*
X126012800Y-137228205D01*
X126017423Y-137225028D01*
X126311298Y-137023053D01*
X126604965Y-136774006D01*
X126628978Y-136749053D01*
X126869344Y-136499276D01*
X126869349Y-136499270D01*
X126871960Y-136496557D01*
X127109550Y-136193546D01*
X127315303Y-135868077D01*
X127334358Y-135829860D01*
X127485433Y-135526849D01*
X127487112Y-135523482D01*
X127623218Y-135163288D01*
X127633331Y-135125283D01*
X127721258Y-134794825D01*
X127722227Y-134791184D01*
X127783126Y-134410979D01*
X127805291Y-134026566D01*
X127805384Y-134000000D01*
X127785903Y-133615442D01*
X127727660Y-133234821D01*
X127725258Y-133225531D01*
X127632196Y-132865688D01*
X127632194Y-132865683D01*
X127631251Y-132862035D01*
X127625257Y-132845829D01*
X127520625Y-132562975D01*
X127497663Y-132500900D01*
X127403128Y-132307930D01*
X127329926Y-132158505D01*
X127329924Y-132158501D01*
X127328264Y-132155113D01*
X127124788Y-131828216D01*
X126950646Y-131602902D01*
X126891631Y-131526545D01*
X126891628Y-131526541D01*
X126889319Y-131523554D01*
X126688922Y-131312380D01*
X126626861Y-131246981D01*
X126626856Y-131246976D01*
X126624267Y-131244248D01*
X126340303Y-131000000D01*
X141394318Y-131000000D01*
X141395593Y-131009683D01*
X141395593Y-131009685D01*
X141413007Y-131141954D01*
X141414956Y-131156762D01*
X141418693Y-131165784D01*
X141463581Y-131274152D01*
X141475464Y-131302841D01*
X141571718Y-131428282D01*
X141697159Y-131524536D01*
X141706182Y-131528274D01*
X141706183Y-131528274D01*
X141811066Y-131571718D01*
X141843238Y-131585044D01*
X141852919Y-131586319D01*
X141852921Y-131586319D01*
X141990315Y-131604407D01*
X142000000Y-131605682D01*
X142009685Y-131604407D01*
X142147079Y-131586319D01*
X142147081Y-131586319D01*
X142156762Y-131585044D01*
X142265192Y-131540131D01*
X142341659Y-131530064D01*
X142412916Y-131559579D01*
X142459869Y-131620769D01*
X142469936Y-131697237D01*
X142459869Y-131734808D01*
X142414956Y-131843238D01*
X142413681Y-131852919D01*
X142413681Y-131852921D01*
X142409335Y-131885931D01*
X142394318Y-132000000D01*
X142395593Y-132009685D01*
X142409121Y-132112438D01*
X142414956Y-132156762D01*
X142475464Y-132302841D01*
X142571718Y-132428282D01*
X142697159Y-132524536D01*
X142706182Y-132528274D01*
X142706183Y-132528274D01*
X142773914Y-132556329D01*
X142843238Y-132585044D01*
X142852919Y-132586319D01*
X142852921Y-132586319D01*
X142990315Y-132604407D01*
X143000000Y-132605682D01*
X143009685Y-132604407D01*
X143147079Y-132586319D01*
X143147081Y-132586319D01*
X143156762Y-132585044D01*
X143226086Y-132556329D01*
X143293817Y-132528274D01*
X143293818Y-132528274D01*
X143302841Y-132524536D01*
X143428282Y-132428282D01*
X143524536Y-132302841D01*
X143585044Y-132156762D01*
X143590880Y-132112438D01*
X143604407Y-132009685D01*
X143605682Y-132000000D01*
X143590665Y-131885931D01*
X143586319Y-131852921D01*
X143586319Y-131852919D01*
X143585044Y-131843238D01*
X143540131Y-131734808D01*
X143530064Y-131658341D01*
X143559579Y-131587084D01*
X143620769Y-131540131D01*
X143697237Y-131530064D01*
X143734808Y-131540131D01*
X143843238Y-131585044D01*
X143852919Y-131586319D01*
X143852921Y-131586319D01*
X143990315Y-131604407D01*
X144000000Y-131605682D01*
X144021116Y-131602902D01*
X144097584Y-131612969D01*
X144158774Y-131659921D01*
X144188289Y-131731178D01*
X144178222Y-131807647D01*
X144172428Y-131820002D01*
X144152523Y-131857836D01*
X144141757Y-131892509D01*
X144091844Y-132053253D01*
X144091843Y-132053258D01*
X144089820Y-132059773D01*
X144089018Y-132066550D01*
X144089017Y-132066554D01*
X144065770Y-132262968D01*
X144064967Y-132269754D01*
X144069165Y-132333805D01*
X144078010Y-132468751D01*
X144078796Y-132480749D01*
X144081715Y-132492243D01*
X144110202Y-132604407D01*
X144130845Y-132685690D01*
X144133703Y-132691890D01*
X144133705Y-132691895D01*
X144191606Y-132817492D01*
X144219369Y-132877714D01*
X144341405Y-133050391D01*
X144492865Y-133197937D01*
X144668677Y-133315411D01*
X144862953Y-133398878D01*
X145069186Y-133445544D01*
X145120544Y-133447562D01*
X145273641Y-133453578D01*
X145273645Y-133453578D01*
X145280470Y-133453846D01*
X145489730Y-133423504D01*
X145496187Y-133421312D01*
X145496192Y-133421311D01*
X145632083Y-133375182D01*
X145689955Y-133355537D01*
X145784713Y-133302470D01*
X145868481Y-133255558D01*
X145868486Y-133255554D01*
X145874442Y-133252219D01*
X146037012Y-133117012D01*
X146172219Y-132954442D01*
X146175554Y-132948486D01*
X146175558Y-132948481D01*
X146229020Y-132853016D01*
X146275537Y-132769955D01*
X146338306Y-132585044D01*
X146341311Y-132576192D01*
X146341312Y-132576187D01*
X146343504Y-132569730D01*
X146373846Y-132360470D01*
X146375429Y-132300000D01*
X146372650Y-132269754D01*
X149144967Y-132269754D01*
X149149165Y-132333805D01*
X149158010Y-132468751D01*
X149158796Y-132480749D01*
X149161715Y-132492243D01*
X149190202Y-132604407D01*
X149210845Y-132685690D01*
X149213703Y-132691890D01*
X149213705Y-132691895D01*
X149271606Y-132817492D01*
X149299369Y-132877714D01*
X149421405Y-133050391D01*
X149572865Y-133197937D01*
X149748677Y-133315411D01*
X149942953Y-133398878D01*
X150149186Y-133445544D01*
X150200544Y-133447562D01*
X150353641Y-133453578D01*
X150353645Y-133453578D01*
X150360470Y-133453846D01*
X150569730Y-133423504D01*
X150576187Y-133421312D01*
X150576192Y-133421311D01*
X150712083Y-133375182D01*
X150769955Y-133355537D01*
X150864713Y-133302470D01*
X150948481Y-133255558D01*
X150948486Y-133255554D01*
X150954442Y-133252219D01*
X151117012Y-133117012D01*
X151252219Y-132954442D01*
X151255554Y-132948486D01*
X151255558Y-132948481D01*
X151309020Y-132853016D01*
X151355537Y-132769955D01*
X151418306Y-132585044D01*
X151421311Y-132576192D01*
X151421312Y-132576187D01*
X151423504Y-132569730D01*
X151424483Y-132562977D01*
X151426079Y-132556329D01*
X151427585Y-132556691D01*
X151454723Y-132493523D01*
X151516521Y-132447374D01*
X151593114Y-132438306D01*
X151663979Y-132468751D01*
X151710128Y-132530549D01*
X151716152Y-132549088D01*
X151730202Y-132604407D01*
X151750845Y-132685690D01*
X151753703Y-132691890D01*
X151753705Y-132691895D01*
X151811606Y-132817492D01*
X151839369Y-132877714D01*
X151961405Y-133050391D01*
X152112865Y-133197937D01*
X152288677Y-133315411D01*
X152482953Y-133398878D01*
X152689186Y-133445544D01*
X152740544Y-133447562D01*
X152893641Y-133453578D01*
X152893645Y-133453578D01*
X152900470Y-133453846D01*
X153109730Y-133423504D01*
X153116187Y-133421312D01*
X153116192Y-133421311D01*
X153252083Y-133375182D01*
X153309955Y-133355537D01*
X153404713Y-133302470D01*
X153488481Y-133255558D01*
X153488486Y-133255554D01*
X153494442Y-133252219D01*
X153657012Y-133117012D01*
X153792219Y-132954442D01*
X153795554Y-132948486D01*
X153795558Y-132948481D01*
X153849020Y-132853016D01*
X153895537Y-132769955D01*
X153958306Y-132585044D01*
X153961311Y-132576192D01*
X153961312Y-132576187D01*
X153963504Y-132569730D01*
X153964483Y-132562977D01*
X153966079Y-132556329D01*
X153967585Y-132556691D01*
X153994723Y-132493523D01*
X154056521Y-132447374D01*
X154133114Y-132438306D01*
X154203979Y-132468751D01*
X154250128Y-132530549D01*
X154256152Y-132549088D01*
X154270202Y-132604407D01*
X154290845Y-132685690D01*
X154293703Y-132691890D01*
X154293705Y-132691895D01*
X154351606Y-132817492D01*
X154379369Y-132877714D01*
X154501405Y-133050391D01*
X154652865Y-133197937D01*
X154828677Y-133315411D01*
X155022953Y-133398878D01*
X155229186Y-133445544D01*
X155280544Y-133447562D01*
X155433641Y-133453578D01*
X155433645Y-133453578D01*
X155440470Y-133453846D01*
X155649730Y-133423504D01*
X155656187Y-133421312D01*
X155656192Y-133421311D01*
X155792083Y-133375182D01*
X155849955Y-133355537D01*
X155944713Y-133302470D01*
X156028481Y-133255558D01*
X156028486Y-133255554D01*
X156034442Y-133252219D01*
X156197012Y-133117012D01*
X156332219Y-132954442D01*
X156335554Y-132948486D01*
X156335558Y-132948481D01*
X156389020Y-132853016D01*
X156435537Y-132769955D01*
X156498306Y-132585044D01*
X156501311Y-132576192D01*
X156501312Y-132576187D01*
X156503504Y-132569730D01*
X156504483Y-132562977D01*
X156506079Y-132556329D01*
X156507585Y-132556691D01*
X156534723Y-132493523D01*
X156596521Y-132447374D01*
X156673114Y-132438306D01*
X156743979Y-132468751D01*
X156790128Y-132530549D01*
X156796152Y-132549088D01*
X156810202Y-132604407D01*
X156830845Y-132685690D01*
X156833703Y-132691890D01*
X156833705Y-132691895D01*
X156891606Y-132817492D01*
X156919369Y-132877714D01*
X157041405Y-133050391D01*
X157192865Y-133197937D01*
X157368677Y-133315411D01*
X157562953Y-133398878D01*
X157769186Y-133445544D01*
X157820544Y-133447562D01*
X157973641Y-133453578D01*
X157973645Y-133453578D01*
X157980470Y-133453846D01*
X158189730Y-133423504D01*
X158196187Y-133421312D01*
X158196192Y-133421311D01*
X158332083Y-133375182D01*
X158389955Y-133355537D01*
X158484713Y-133302470D01*
X158568481Y-133255558D01*
X158568486Y-133255554D01*
X158574442Y-133252219D01*
X158737012Y-133117012D01*
X158872219Y-132954442D01*
X158875554Y-132948486D01*
X158875558Y-132948481D01*
X158929020Y-132853016D01*
X158975537Y-132769955D01*
X159038306Y-132585044D01*
X159041311Y-132576192D01*
X159041312Y-132576187D01*
X159043504Y-132569730D01*
X159073846Y-132360470D01*
X159075429Y-132300000D01*
X159072650Y-132269754D01*
X161844967Y-132269754D01*
X161849165Y-132333805D01*
X161858010Y-132468751D01*
X161858796Y-132480749D01*
X161861715Y-132492243D01*
X161890202Y-132604407D01*
X161910845Y-132685690D01*
X161913703Y-132691890D01*
X161913705Y-132691895D01*
X161971606Y-132817492D01*
X161999369Y-132877714D01*
X162121405Y-133050391D01*
X162272865Y-133197937D01*
X162448677Y-133315411D01*
X162642953Y-133398878D01*
X162849186Y-133445544D01*
X162900544Y-133447562D01*
X163053641Y-133453578D01*
X163053645Y-133453578D01*
X163060470Y-133453846D01*
X163269730Y-133423504D01*
X163276187Y-133421312D01*
X163276192Y-133421311D01*
X163412083Y-133375182D01*
X163469955Y-133355537D01*
X163564713Y-133302470D01*
X163648481Y-133255558D01*
X163648486Y-133255554D01*
X163654442Y-133252219D01*
X163817012Y-133117012D01*
X163952219Y-132954442D01*
X163955554Y-132948486D01*
X163955558Y-132948481D01*
X164009020Y-132853016D01*
X164055537Y-132769955D01*
X164118306Y-132585044D01*
X164121311Y-132576192D01*
X164121312Y-132576187D01*
X164123504Y-132569730D01*
X164153846Y-132360470D01*
X164155429Y-132300000D01*
X164136081Y-132089440D01*
X164078686Y-131885931D01*
X163985165Y-131696290D01*
X163981084Y-131690825D01*
X163981081Y-131690820D01*
X163862739Y-131532341D01*
X163862737Y-131532339D01*
X163858651Y-131526867D01*
X163703381Y-131383337D01*
X163524554Y-131270505D01*
X163518215Y-131267976D01*
X163518209Y-131267973D01*
X163334504Y-131194683D01*
X163328160Y-131192152D01*
X163261401Y-131178873D01*
X163127478Y-131152234D01*
X163127475Y-131152234D01*
X163120775Y-131150901D01*
X163015060Y-131149517D01*
X162916180Y-131148222D01*
X162916175Y-131148222D01*
X162909346Y-131148133D01*
X162902613Y-131149290D01*
X162902612Y-131149290D01*
X162707684Y-131182784D01*
X162707680Y-131182785D01*
X162700953Y-131183941D01*
X162502575Y-131257127D01*
X162496702Y-131260621D01*
X162342721Y-131352230D01*
X162320856Y-131365238D01*
X162288641Y-131393489D01*
X162167022Y-131500146D01*
X162167019Y-131500149D01*
X162161881Y-131504655D01*
X162123830Y-131552923D01*
X162035207Y-131665340D01*
X162035203Y-131665346D01*
X162030976Y-131670708D01*
X162027797Y-131676751D01*
X162027794Y-131676755D01*
X162017059Y-131697159D01*
X161932523Y-131857836D01*
X161921757Y-131892509D01*
X161871844Y-132053253D01*
X161871843Y-132053258D01*
X161869820Y-132059773D01*
X161869018Y-132066550D01*
X161869017Y-132066554D01*
X161845770Y-132262968D01*
X161844967Y-132269754D01*
X159072650Y-132269754D01*
X159056081Y-132089440D01*
X158998686Y-131885931D01*
X158905165Y-131696290D01*
X158901084Y-131690825D01*
X158901081Y-131690820D01*
X158782739Y-131532341D01*
X158782737Y-131532339D01*
X158778651Y-131526867D01*
X158623381Y-131383337D01*
X158444554Y-131270505D01*
X158438215Y-131267976D01*
X158438209Y-131267973D01*
X158254504Y-131194683D01*
X158248160Y-131192152D01*
X158181401Y-131178873D01*
X158047478Y-131152234D01*
X158047475Y-131152234D01*
X158040775Y-131150901D01*
X157935060Y-131149517D01*
X157836180Y-131148222D01*
X157836175Y-131148222D01*
X157829346Y-131148133D01*
X157822613Y-131149290D01*
X157822612Y-131149290D01*
X157627684Y-131182784D01*
X157627680Y-131182785D01*
X157620953Y-131183941D01*
X157422575Y-131257127D01*
X157416702Y-131260621D01*
X157262721Y-131352230D01*
X157240856Y-131365238D01*
X157208641Y-131393489D01*
X157087022Y-131500146D01*
X157087019Y-131500149D01*
X157081881Y-131504655D01*
X157043830Y-131552923D01*
X156955207Y-131665340D01*
X156955203Y-131665346D01*
X156950976Y-131670708D01*
X156947797Y-131676751D01*
X156947794Y-131676755D01*
X156937059Y-131697159D01*
X156852523Y-131857836D01*
X156850499Y-131864356D01*
X156850496Y-131864362D01*
X156791153Y-132055480D01*
X156749997Y-132120710D01*
X156681739Y-132156622D01*
X156604671Y-132153594D01*
X156539441Y-132112438D01*
X156505449Y-132051741D01*
X156460541Y-131892509D01*
X156458686Y-131885931D01*
X156365165Y-131696290D01*
X156361084Y-131690825D01*
X156361081Y-131690820D01*
X156242739Y-131532341D01*
X156242737Y-131532339D01*
X156238651Y-131526867D01*
X156083381Y-131383337D01*
X155904554Y-131270505D01*
X155898215Y-131267976D01*
X155898209Y-131267973D01*
X155714504Y-131194683D01*
X155708160Y-131192152D01*
X155641401Y-131178873D01*
X155507478Y-131152234D01*
X155507475Y-131152234D01*
X155500775Y-131150901D01*
X155395060Y-131149517D01*
X155296180Y-131148222D01*
X155296175Y-131148222D01*
X155289346Y-131148133D01*
X155282613Y-131149290D01*
X155282612Y-131149290D01*
X155087684Y-131182784D01*
X155087680Y-131182785D01*
X155080953Y-131183941D01*
X154882575Y-131257127D01*
X154876702Y-131260621D01*
X154722721Y-131352230D01*
X154700856Y-131365238D01*
X154668641Y-131393489D01*
X154547022Y-131500146D01*
X154547019Y-131500149D01*
X154541881Y-131504655D01*
X154503830Y-131552923D01*
X154415207Y-131665340D01*
X154415203Y-131665346D01*
X154410976Y-131670708D01*
X154407797Y-131676751D01*
X154407794Y-131676755D01*
X154397059Y-131697159D01*
X154312523Y-131857836D01*
X154310499Y-131864356D01*
X154310496Y-131864362D01*
X154251153Y-132055480D01*
X154209997Y-132120710D01*
X154141739Y-132156622D01*
X154064671Y-132153594D01*
X153999441Y-132112438D01*
X153965449Y-132051741D01*
X153920541Y-131892509D01*
X153918686Y-131885931D01*
X153825165Y-131696290D01*
X153821084Y-131690825D01*
X153821081Y-131690820D01*
X153702739Y-131532341D01*
X153702737Y-131532339D01*
X153698651Y-131526867D01*
X153543381Y-131383337D01*
X153364554Y-131270505D01*
X153358215Y-131267976D01*
X153358209Y-131267973D01*
X153174504Y-131194683D01*
X153168160Y-131192152D01*
X153101401Y-131178873D01*
X152967478Y-131152234D01*
X152967475Y-131152234D01*
X152960775Y-131150901D01*
X152855060Y-131149517D01*
X152756180Y-131148222D01*
X152756175Y-131148222D01*
X152749346Y-131148133D01*
X152742613Y-131149290D01*
X152742612Y-131149290D01*
X152547684Y-131182784D01*
X152547680Y-131182785D01*
X152540953Y-131183941D01*
X152342575Y-131257127D01*
X152336702Y-131260621D01*
X152182721Y-131352230D01*
X152160856Y-131365238D01*
X152128641Y-131393489D01*
X152007022Y-131500146D01*
X152007019Y-131500149D01*
X152001881Y-131504655D01*
X151963830Y-131552923D01*
X151875207Y-131665340D01*
X151875203Y-131665346D01*
X151870976Y-131670708D01*
X151867797Y-131676751D01*
X151867794Y-131676755D01*
X151857059Y-131697159D01*
X151772523Y-131857836D01*
X151770499Y-131864356D01*
X151770496Y-131864362D01*
X151711153Y-132055480D01*
X151669997Y-132120710D01*
X151601739Y-132156622D01*
X151524671Y-132153594D01*
X151459441Y-132112438D01*
X151425449Y-132051741D01*
X151380541Y-131892509D01*
X151378686Y-131885931D01*
X151285165Y-131696290D01*
X151281084Y-131690825D01*
X151281081Y-131690820D01*
X151162739Y-131532341D01*
X151162737Y-131532339D01*
X151158651Y-131526867D01*
X151003381Y-131383337D01*
X150824554Y-131270505D01*
X150818215Y-131267976D01*
X150818209Y-131267973D01*
X150634504Y-131194683D01*
X150628160Y-131192152D01*
X150561401Y-131178873D01*
X150427478Y-131152234D01*
X150427475Y-131152234D01*
X150420775Y-131150901D01*
X150315060Y-131149517D01*
X150216180Y-131148222D01*
X150216175Y-131148222D01*
X150209346Y-131148133D01*
X150202613Y-131149290D01*
X150202612Y-131149290D01*
X150007684Y-131182784D01*
X150007680Y-131182785D01*
X150000953Y-131183941D01*
X149802575Y-131257127D01*
X149796702Y-131260621D01*
X149642721Y-131352230D01*
X149620856Y-131365238D01*
X149588641Y-131393489D01*
X149467022Y-131500146D01*
X149467019Y-131500149D01*
X149461881Y-131504655D01*
X149423830Y-131552923D01*
X149335207Y-131665340D01*
X149335203Y-131665346D01*
X149330976Y-131670708D01*
X149327797Y-131676751D01*
X149327794Y-131676755D01*
X149317059Y-131697159D01*
X149232523Y-131857836D01*
X149221757Y-131892509D01*
X149171844Y-132053253D01*
X149171843Y-132053258D01*
X149169820Y-132059773D01*
X149169018Y-132066550D01*
X149169017Y-132066554D01*
X149145770Y-132262968D01*
X149144967Y-132269754D01*
X146372650Y-132269754D01*
X146356081Y-132089440D01*
X146298686Y-131885931D01*
X146205165Y-131696290D01*
X146201084Y-131690825D01*
X146201081Y-131690820D01*
X146082739Y-131532341D01*
X146082737Y-131532339D01*
X146078651Y-131526867D01*
X145923381Y-131383337D01*
X145744554Y-131270505D01*
X145738215Y-131267976D01*
X145738209Y-131267973D01*
X145554504Y-131194683D01*
X145548160Y-131192152D01*
X145481401Y-131178873D01*
X145347478Y-131152234D01*
X145347475Y-131152234D01*
X145340775Y-131150901D01*
X145235060Y-131149517D01*
X145136180Y-131148222D01*
X145136175Y-131148222D01*
X145129346Y-131148133D01*
X145122613Y-131149290D01*
X145122612Y-131149290D01*
X144927684Y-131182784D01*
X144927680Y-131182785D01*
X144920953Y-131183941D01*
X144795639Y-131230172D01*
X144718836Y-131237230D01*
X144648792Y-131204940D01*
X144604278Y-131141954D01*
X144596343Y-131070935D01*
X144605682Y-131000000D01*
X144603430Y-130982892D01*
X144586319Y-130852921D01*
X144586319Y-130852919D01*
X144585044Y-130843238D01*
X144524536Y-130697159D01*
X144428282Y-130571718D01*
X144302841Y-130475464D01*
X144204605Y-130434773D01*
X144165784Y-130418693D01*
X144156762Y-130414956D01*
X144147081Y-130413681D01*
X144147079Y-130413681D01*
X144009685Y-130395593D01*
X144000000Y-130394318D01*
X143990315Y-130395593D01*
X143852921Y-130413681D01*
X143852919Y-130413681D01*
X143843238Y-130414956D01*
X143834216Y-130418693D01*
X143795396Y-130434773D01*
X143697159Y-130475464D01*
X143571718Y-130571718D01*
X143475464Y-130697159D01*
X143414956Y-130843238D01*
X143413681Y-130852919D01*
X143413681Y-130852921D01*
X143396570Y-130982892D01*
X143394318Y-131000000D01*
X143395593Y-131009683D01*
X143395593Y-131009685D01*
X143413007Y-131141954D01*
X143414956Y-131156762D01*
X143445364Y-131230172D01*
X143459869Y-131265191D01*
X143469936Y-131341659D01*
X143440421Y-131412916D01*
X143379231Y-131459869D01*
X143302763Y-131469936D01*
X143265191Y-131459869D01*
X143165784Y-131418693D01*
X143156762Y-131414956D01*
X143147081Y-131413681D01*
X143147079Y-131413681D01*
X143009685Y-131395593D01*
X143000000Y-131394318D01*
X142990315Y-131395593D01*
X142852921Y-131413681D01*
X142852919Y-131413681D01*
X142843238Y-131414956D01*
X142834216Y-131418693D01*
X142734809Y-131459869D01*
X142658341Y-131469936D01*
X142587084Y-131440421D01*
X142540131Y-131379231D01*
X142530064Y-131302763D01*
X142540131Y-131265191D01*
X142554637Y-131230172D01*
X142585044Y-131156762D01*
X142586994Y-131141954D01*
X142604407Y-131009685D01*
X142604407Y-131009683D01*
X142605682Y-131000000D01*
X142603430Y-130982892D01*
X142586319Y-130852921D01*
X142586319Y-130852919D01*
X142585044Y-130843238D01*
X142524536Y-130697159D01*
X142428282Y-130571718D01*
X142302841Y-130475464D01*
X142204605Y-130434773D01*
X142165784Y-130418693D01*
X142156762Y-130414956D01*
X142147081Y-130413681D01*
X142147079Y-130413681D01*
X142009685Y-130395593D01*
X142000000Y-130394318D01*
X141990315Y-130395593D01*
X141852921Y-130413681D01*
X141852919Y-130413681D01*
X141843238Y-130414956D01*
X141834216Y-130418693D01*
X141795396Y-130434773D01*
X141697159Y-130475464D01*
X141571718Y-130571718D01*
X141475464Y-130697159D01*
X141414956Y-130843238D01*
X141413681Y-130852919D01*
X141413681Y-130852921D01*
X141396570Y-130982892D01*
X141394318Y-131000000D01*
X126340303Y-131000000D01*
X126332347Y-130993157D01*
X126329265Y-130991007D01*
X126329256Y-130991000D01*
X126019639Y-130775009D01*
X126016546Y-130772851D01*
X125680099Y-130585587D01*
X125326450Y-130433282D01*
X124959221Y-130317495D01*
X124800343Y-130284593D01*
X124585861Y-130240176D01*
X124585854Y-130240175D01*
X124582170Y-130239412D01*
X124578428Y-130239025D01*
X124578426Y-130239025D01*
X124518178Y-130232799D01*
X124199158Y-130199831D01*
X124195395Y-130199824D01*
X124195387Y-130199824D01*
X124006633Y-130199495D01*
X123814108Y-130199159D01*
X123810352Y-130199534D01*
X123810350Y-130199534D01*
X123434708Y-130237028D01*
X123430961Y-130237402D01*
X123053639Y-130314169D01*
X123050053Y-130315286D01*
X123050045Y-130315288D01*
X122796312Y-130394318D01*
X122686008Y-130428674D01*
X122682529Y-130430158D01*
X122335298Y-130578264D01*
X122335292Y-130578267D01*
X122331829Y-130579744D01*
X121994731Y-130765832D01*
X121991633Y-130767977D01*
X121991630Y-130767979D01*
X121874739Y-130848918D01*
X121678163Y-130985034D01*
X121385368Y-131235104D01*
X121382761Y-131237832D01*
X121382760Y-131237833D01*
X121121950Y-131510755D01*
X121121942Y-131510765D01*
X121119343Y-131513484D01*
X120882812Y-131817321D01*
X120880810Y-131820512D01*
X120880804Y-131820521D01*
X120818812Y-131919346D01*
X120678196Y-132143507D01*
X120671645Y-132156762D01*
X120511521Y-132480749D01*
X120507591Y-132488700D01*
X120506268Y-132492238D01*
X120506266Y-132492243D01*
X120389250Y-132805217D01*
X120372743Y-132849366D01*
X120371788Y-132853008D01*
X120371785Y-132853016D01*
X120346741Y-132948481D01*
X120275034Y-133221814D01*
X120274452Y-133225531D01*
X120243297Y-133424483D01*
X120215462Y-133602229D01*
X120194639Y-133986717D01*
X120194816Y-133990471D01*
X120194816Y-133990477D01*
X120195265Y-134000000D01*
X120212778Y-134371340D01*
X120213334Y-134375063D01*
X120213335Y-134375069D01*
X120218139Y-134407213D01*
X120269692Y-134752162D01*
X120270622Y-134755812D01*
X120270623Y-134755815D01*
X120354200Y-135083700D01*
X120364799Y-135125283D01*
X120441760Y-135335589D01*
X120493873Y-135477992D01*
X120497126Y-135486882D01*
X120498774Y-135490276D01*
X120498777Y-135490283D01*
X120526084Y-135546519D01*
X120665317Y-135833258D01*
X120667299Y-135836467D01*
X120667300Y-135836469D01*
X120688791Y-135871265D01*
X120867650Y-136160864D01*
X121102054Y-136466345D01*
X121104633Y-136469082D01*
X121104640Y-136469090D01*
X121281446Y-136656712D01*
X121366129Y-136746575D01*
X121368990Y-136749053D01*
X121654313Y-136996208D01*
X121654319Y-136996213D01*
X121657172Y-136998684D01*
X121660264Y-137000857D01*
X121969114Y-137217921D01*
X121969122Y-137217926D01*
X121972201Y-137220090D01*
X121975489Y-137221935D01*
X121978681Y-137223945D01*
X121977999Y-137225028D01*
X122029135Y-137274932D01*
X122050004Y-137349183D01*
X122030952Y-137423921D01*
X121977083Y-137479120D01*
X121901015Y-137500000D01*
X109649000Y-137500000D01*
X109574500Y-137480038D01*
X109519962Y-137425500D01*
X109500000Y-137351000D01*
X109500000Y-136800000D01*
X114000000Y-136800000D01*
X116800000Y-134000000D01*
X116800000Y-128500000D01*
X115760000Y-127600000D01*
X115760000Y-124800000D01*
X115350000Y-124360000D01*
X112400000Y-124360000D01*
X111650000Y-123550000D01*
X111650000Y-119302736D01*
X125115070Y-119302736D01*
X125127909Y-119570041D01*
X125180118Y-119832512D01*
X125270549Y-120084383D01*
X125397215Y-120320121D01*
X125557335Y-120534547D01*
X125747390Y-120722950D01*
X125751843Y-120726215D01*
X125751850Y-120726221D01*
X125958743Y-120877921D01*
X125958749Y-120877925D01*
X125963205Y-120881192D01*
X125968098Y-120883766D01*
X125968099Y-120883767D01*
X126195142Y-121003221D01*
X126195147Y-121003223D01*
X126200039Y-121005797D01*
X126205260Y-121007620D01*
X126205264Y-121007622D01*
X126306421Y-121042947D01*
X126452690Y-121094026D01*
X126518669Y-121106553D01*
X126710178Y-121142913D01*
X126710185Y-121142914D01*
X126715606Y-121143943D01*
X126721127Y-121144160D01*
X126721128Y-121144160D01*
X126977488Y-121154232D01*
X126977489Y-121154232D01*
X126983013Y-121154449D01*
X126988509Y-121153847D01*
X126988511Y-121153847D01*
X127243532Y-121125918D01*
X127243536Y-121125917D01*
X127249035Y-121125315D01*
X127254380Y-121123908D01*
X127254384Y-121123907D01*
X127502490Y-121058586D01*
X127502494Y-121058584D01*
X127507829Y-121057180D01*
X127753710Y-120951542D01*
X127981275Y-120810720D01*
X127985496Y-120807147D01*
X128181305Y-120641383D01*
X128181310Y-120641378D01*
X128185526Y-120637809D01*
X128238976Y-120576861D01*
X128303106Y-120534011D01*
X128380069Y-120528967D01*
X128449243Y-120563080D01*
X128492093Y-120627210D01*
X128500000Y-120675104D01*
X128500000Y-125891534D01*
X128499997Y-125892444D01*
X128499532Y-125968556D01*
X128502448Y-125978759D01*
X128507051Y-125994866D01*
X128511281Y-126014680D01*
X128515162Y-126041777D01*
X128524841Y-126063066D01*
X128532464Y-126083785D01*
X128538889Y-126106265D01*
X128544554Y-126115243D01*
X128544556Y-126115248D01*
X128553495Y-126129416D01*
X128563116Y-126147246D01*
X128574442Y-126172156D01*
X128581371Y-126180197D01*
X128581372Y-126180199D01*
X128589703Y-126189868D01*
X128602841Y-126207623D01*
X128609648Y-126218412D01*
X128609650Y-126218415D01*
X128615315Y-126227393D01*
X128623275Y-126234423D01*
X128635821Y-126245504D01*
X128650063Y-126259920D01*
X128661001Y-126272614D01*
X128661004Y-126272617D01*
X128667932Y-126280657D01*
X128687563Y-126293381D01*
X128705145Y-126306727D01*
X128714711Y-126315176D01*
X128714713Y-126315177D01*
X128722666Y-126322201D01*
X128747434Y-126333830D01*
X128765146Y-126343668D01*
X128788117Y-126358557D01*
X128798286Y-126361598D01*
X128798288Y-126361599D01*
X128810520Y-126365257D01*
X128831146Y-126373133D01*
X128852311Y-126383070D01*
X128871091Y-126385994D01*
X128879355Y-126387281D01*
X128899119Y-126391753D01*
X128915162Y-126396551D01*
X128915164Y-126396551D01*
X128925335Y-126399593D01*
X128935952Y-126399658D01*
X128935954Y-126399658D01*
X128947134Y-126399726D01*
X128959349Y-126399800D01*
X128959921Y-126399824D01*
X128961047Y-126400000D01*
X128991534Y-126400000D01*
X128992444Y-126400003D01*
X129068556Y-126400468D01*
X129069929Y-126400076D01*
X129071042Y-126400000D01*
X159991534Y-126400000D01*
X159992444Y-126400003D01*
X160068556Y-126400468D01*
X160094866Y-126392949D01*
X160114680Y-126388719D01*
X160122119Y-126387653D01*
X160141777Y-126384838D01*
X160163066Y-126375159D01*
X160183787Y-126367535D01*
X160196058Y-126364028D01*
X160196057Y-126364028D01*
X160206265Y-126361111D01*
X160215243Y-126355446D01*
X160215248Y-126355444D01*
X160229416Y-126346505D01*
X160247246Y-126336884D01*
X160272156Y-126325558D01*
X160280197Y-126318629D01*
X160280199Y-126318628D01*
X160289868Y-126310297D01*
X160307623Y-126297159D01*
X160318412Y-126290352D01*
X160318415Y-126290350D01*
X160327393Y-126284685D01*
X160338054Y-126272614D01*
X160345504Y-126264179D01*
X160359920Y-126249937D01*
X160372614Y-126238999D01*
X160372617Y-126238996D01*
X160380657Y-126232068D01*
X160393381Y-126212437D01*
X160406727Y-126194855D01*
X160415176Y-126185289D01*
X160415177Y-126185287D01*
X160422201Y-126177334D01*
X160433830Y-126152566D01*
X160443668Y-126134854D01*
X160452784Y-126120790D01*
X160452785Y-126120789D01*
X160458557Y-126111883D01*
X160465257Y-126089480D01*
X160473133Y-126068854D01*
X160483070Y-126047689D01*
X160487281Y-126020645D01*
X160491753Y-126000881D01*
X160496551Y-125984838D01*
X160496551Y-125984836D01*
X160499593Y-125974665D01*
X160499800Y-125940651D01*
X160499824Y-125940079D01*
X160500000Y-125938953D01*
X160500000Y-125908466D01*
X160500003Y-125907556D01*
X160500379Y-125845979D01*
X160500468Y-125831444D01*
X160500076Y-125830071D01*
X160500000Y-125828958D01*
X160500000Y-125043233D01*
X167094906Y-125043233D01*
X167121102Y-125317792D01*
X167186657Y-125585694D01*
X167188678Y-125590682D01*
X167188679Y-125590687D01*
X167285189Y-125828958D01*
X167290199Y-125841326D01*
X167429558Y-126079335D01*
X167601816Y-126294732D01*
X167605764Y-126298420D01*
X167706957Y-126392949D01*
X167803364Y-126483008D01*
X168029979Y-126640216D01*
X168276914Y-126763065D01*
X168411207Y-126807088D01*
X168533860Y-126847296D01*
X168533864Y-126847297D01*
X168538998Y-126848980D01*
X168810738Y-126896162D01*
X168897876Y-126900500D01*
X169070070Y-126900500D01*
X169072751Y-126900305D01*
X169072764Y-126900305D01*
X169182744Y-126892325D01*
X169275083Y-126885625D01*
X169544403Y-126826164D01*
X169549452Y-126824251D01*
X169549459Y-126824249D01*
X169797270Y-126730362D01*
X169797271Y-126730361D01*
X169802319Y-126728449D01*
X169807037Y-126725828D01*
X169807040Y-126725827D01*
X169956835Y-126642623D01*
X170043428Y-126594525D01*
X170262678Y-126427198D01*
X170392172Y-126294732D01*
X170451701Y-126233837D01*
X170451703Y-126233835D01*
X170455477Y-126229974D01*
X170471746Y-126207623D01*
X170614606Y-126011355D01*
X170614609Y-126011350D01*
X170617787Y-126006984D01*
X170669840Y-125908047D01*
X170743693Y-125767676D01*
X170743694Y-125767673D01*
X170746206Y-125762899D01*
X170838045Y-125502832D01*
X170891380Y-125232232D01*
X170905094Y-124956767D01*
X170878898Y-124682208D01*
X170813343Y-124414306D01*
X170739633Y-124232324D01*
X170711825Y-124163671D01*
X170709801Y-124158674D01*
X170570442Y-123920665D01*
X170398184Y-123705268D01*
X170196636Y-123516992D01*
X169970021Y-123359784D01*
X169723086Y-123236935D01*
X169536444Y-123175751D01*
X169466140Y-123152704D01*
X169466136Y-123152703D01*
X169461002Y-123151020D01*
X169189262Y-123103838D01*
X169102124Y-123099500D01*
X168929930Y-123099500D01*
X168927249Y-123099695D01*
X168927236Y-123099695D01*
X168817256Y-123107675D01*
X168724917Y-123114375D01*
X168455597Y-123173836D01*
X168450548Y-123175749D01*
X168450541Y-123175751D01*
X168282698Y-123239341D01*
X168197681Y-123271551D01*
X168192963Y-123274172D01*
X168192960Y-123274173D01*
X168077126Y-123338513D01*
X167956572Y-123405475D01*
X167737322Y-123572802D01*
X167544523Y-123770026D01*
X167541347Y-123774390D01*
X167541344Y-123774393D01*
X167385394Y-123988645D01*
X167385391Y-123988650D01*
X167382213Y-123993016D01*
X167253794Y-124237101D01*
X167161955Y-124497168D01*
X167108620Y-124767768D01*
X167094906Y-125043233D01*
X160500000Y-125043233D01*
X160500000Y-101908466D01*
X160500003Y-101907556D01*
X160500295Y-101859785D01*
X160500468Y-101831444D01*
X160492949Y-101805134D01*
X160488719Y-101785320D01*
X160486342Y-101768725D01*
X160484838Y-101758223D01*
X160475159Y-101736934D01*
X160467535Y-101716213D01*
X160464028Y-101703942D01*
X160461111Y-101693735D01*
X160455446Y-101684757D01*
X160455444Y-101684752D01*
X160446505Y-101670584D01*
X160436881Y-101652749D01*
X160425558Y-101627844D01*
X160414242Y-101614711D01*
X160410297Y-101610132D01*
X160397159Y-101592377D01*
X160390352Y-101581588D01*
X160390350Y-101581585D01*
X160384685Y-101572607D01*
X160376725Y-101565577D01*
X160364179Y-101554496D01*
X160349937Y-101540080D01*
X160338999Y-101527386D01*
X160338996Y-101527383D01*
X160332068Y-101519343D01*
X160312437Y-101506619D01*
X160294855Y-101493273D01*
X160285289Y-101484824D01*
X160285287Y-101484823D01*
X160277334Y-101477799D01*
X160252566Y-101466170D01*
X160234854Y-101456332D01*
X160220790Y-101447216D01*
X160220789Y-101447215D01*
X160211883Y-101441443D01*
X160201714Y-101438402D01*
X160201712Y-101438401D01*
X160189480Y-101434743D01*
X160168854Y-101426867D01*
X160147689Y-101416930D01*
X160126675Y-101413658D01*
X160120645Y-101412719D01*
X160100881Y-101408247D01*
X160084838Y-101403449D01*
X160084836Y-101403449D01*
X160074665Y-101400407D01*
X160064048Y-101400342D01*
X160064046Y-101400342D01*
X160052866Y-101400274D01*
X160040651Y-101400200D01*
X160040079Y-101400176D01*
X160038953Y-101400000D01*
X160008466Y-101400000D01*
X160007556Y-101399997D01*
X160007509Y-101399997D01*
X159931444Y-101399532D01*
X159930071Y-101399924D01*
X159928958Y-101400000D01*
X158260294Y-101400000D01*
X158185794Y-101380038D01*
X158131256Y-101325500D01*
X158111294Y-101251000D01*
X158131256Y-101176500D01*
X158142084Y-101160295D01*
X158218590Y-101060590D01*
X158224536Y-101052841D01*
X158285044Y-100906762D01*
X158292902Y-100847079D01*
X158304407Y-100759685D01*
X158305682Y-100750000D01*
X158293104Y-100654460D01*
X158303171Y-100577992D01*
X158350124Y-100516802D01*
X158421381Y-100487287D01*
X158460275Y-100487287D01*
X158600000Y-100505682D01*
X158609685Y-100504407D01*
X158747079Y-100486319D01*
X158747081Y-100486319D01*
X158756762Y-100485044D01*
X158826439Y-100456183D01*
X158893817Y-100428274D01*
X158893818Y-100428274D01*
X158902841Y-100424536D01*
X159028282Y-100328282D01*
X159124536Y-100202841D01*
X159167134Y-100100000D01*
X162294318Y-100100000D01*
X162295593Y-100109685D01*
X162310836Y-100225464D01*
X162314956Y-100256762D01*
X162318693Y-100265784D01*
X162347044Y-100334228D01*
X162375464Y-100402841D01*
X162471718Y-100528282D01*
X162597159Y-100624536D01*
X162743238Y-100685044D01*
X162752919Y-100686319D01*
X162752921Y-100686319D01*
X162890315Y-100704407D01*
X162900000Y-100705682D01*
X162909685Y-100704407D01*
X163047079Y-100686319D01*
X163047081Y-100686319D01*
X163056762Y-100685044D01*
X163202841Y-100624536D01*
X163328282Y-100528282D01*
X163424536Y-100402841D01*
X163452957Y-100334228D01*
X163481307Y-100265784D01*
X163485044Y-100256762D01*
X163489165Y-100225464D01*
X163504407Y-100109685D01*
X163505682Y-100100000D01*
X163485044Y-99943238D01*
X163424536Y-99797159D01*
X163328282Y-99671718D01*
X163202841Y-99575464D01*
X163056762Y-99514956D01*
X163047081Y-99513681D01*
X163047079Y-99513681D01*
X162909685Y-99495593D01*
X162900000Y-99494318D01*
X162890315Y-99495593D01*
X162752921Y-99513681D01*
X162752919Y-99513681D01*
X162743238Y-99514956D01*
X162597159Y-99575464D01*
X162471718Y-99671718D01*
X162375464Y-99797159D01*
X162314956Y-99943238D01*
X162294318Y-100100000D01*
X159167134Y-100100000D01*
X159185044Y-100056762D01*
X159205682Y-99900000D01*
X159185044Y-99743238D01*
X159155419Y-99671718D01*
X159128274Y-99606183D01*
X159128274Y-99606182D01*
X159124536Y-99597159D01*
X159028282Y-99471718D01*
X158902841Y-99375464D01*
X158756762Y-99314956D01*
X158747081Y-99313681D01*
X158747079Y-99313681D01*
X158609685Y-99295593D01*
X158600000Y-99294318D01*
X158590315Y-99295593D01*
X158452921Y-99313681D01*
X158452919Y-99313681D01*
X158443238Y-99314956D01*
X158297159Y-99375464D01*
X158171718Y-99471718D01*
X158075464Y-99597159D01*
X158071726Y-99606182D01*
X158071726Y-99606183D01*
X158044581Y-99671718D01*
X158014956Y-99743238D01*
X157994318Y-99900000D01*
X157995593Y-99909685D01*
X158006896Y-99995540D01*
X157996829Y-100072008D01*
X157949876Y-100133198D01*
X157878619Y-100162713D01*
X157839725Y-100162713D01*
X157700000Y-100144318D01*
X157690315Y-100145593D01*
X157552921Y-100163681D01*
X157552919Y-100163681D01*
X157543238Y-100164956D01*
X157534216Y-100168693D01*
X157451776Y-100202841D01*
X157397159Y-100225464D01*
X157271718Y-100321718D01*
X157175464Y-100447159D01*
X157114956Y-100593238D01*
X157113681Y-100602919D01*
X157113681Y-100602921D01*
X157095593Y-100740315D01*
X157094318Y-100750000D01*
X157095593Y-100759685D01*
X157107099Y-100847079D01*
X157114956Y-100906762D01*
X157175464Y-101052841D01*
X157181410Y-101060590D01*
X157257916Y-101160295D01*
X157287431Y-101231552D01*
X157277364Y-101308020D01*
X157230411Y-101369210D01*
X157159154Y-101398725D01*
X157139706Y-101400000D01*
X129008466Y-101400000D01*
X129007556Y-101399997D01*
X129007449Y-101399996D01*
X128931444Y-101399532D01*
X128921240Y-101402448D01*
X128921241Y-101402448D01*
X128905134Y-101407051D01*
X128885320Y-101411281D01*
X128877881Y-101412347D01*
X128858223Y-101415162D01*
X128836934Y-101424841D01*
X128816215Y-101432464D01*
X128793735Y-101438889D01*
X128784757Y-101444554D01*
X128784752Y-101444556D01*
X128770584Y-101453495D01*
X128752754Y-101463116D01*
X128727844Y-101474442D01*
X128719803Y-101481371D01*
X128719801Y-101481372D01*
X128710132Y-101489703D01*
X128692377Y-101502841D01*
X128681588Y-101509648D01*
X128681585Y-101509650D01*
X128672607Y-101515315D01*
X128665577Y-101523275D01*
X128654496Y-101535821D01*
X128640080Y-101550063D01*
X128627386Y-101561001D01*
X128627383Y-101561004D01*
X128619343Y-101567932D01*
X128606619Y-101587563D01*
X128593275Y-101605142D01*
X128577799Y-101622666D01*
X128570833Y-101637503D01*
X128566173Y-101647429D01*
X128556332Y-101665146D01*
X128541443Y-101688117D01*
X128538402Y-101698286D01*
X128538401Y-101698288D01*
X128534743Y-101710520D01*
X128526867Y-101731146D01*
X128516930Y-101752311D01*
X128515297Y-101762800D01*
X128512719Y-101779355D01*
X128508247Y-101799118D01*
X128500407Y-101825335D01*
X128500342Y-101835952D01*
X128500342Y-101835954D01*
X128500200Y-101859341D01*
X128500176Y-101859921D01*
X128500000Y-101861047D01*
X128500000Y-101891534D01*
X128499997Y-101892444D01*
X128499532Y-101968556D01*
X128499924Y-101969929D01*
X128500000Y-101971042D01*
X128500000Y-107119515D01*
X128480038Y-107194015D01*
X128425500Y-107248553D01*
X128351000Y-107268515D01*
X128276500Y-107248553D01*
X128248908Y-107228042D01*
X128060299Y-107050616D01*
X128056269Y-107046825D01*
X128051731Y-107043677D01*
X128051725Y-107043672D01*
X127932814Y-106961181D01*
X127836385Y-106894286D01*
X127724393Y-106839057D01*
X127601328Y-106778368D01*
X127601322Y-106778366D01*
X127596371Y-106775924D01*
X127591112Y-106774240D01*
X127591108Y-106774239D01*
X127346764Y-106696024D01*
X127341497Y-106694338D01*
X127336047Y-106693450D01*
X127336041Y-106693449D01*
X127082811Y-106652209D01*
X127082810Y-106652209D01*
X127077364Y-106651322D01*
X126956144Y-106649735D01*
X126815302Y-106647891D01*
X126815297Y-106647891D01*
X126809774Y-106647819D01*
X126804302Y-106648564D01*
X126804297Y-106648564D01*
X126588491Y-106677934D01*
X126544605Y-106683907D01*
X126539301Y-106685453D01*
X126539296Y-106685454D01*
X126292985Y-106757246D01*
X126292977Y-106757249D01*
X126287683Y-106758792D01*
X126147603Y-106823370D01*
X126068830Y-106859685D01*
X126044652Y-106870831D01*
X126004062Y-106897443D01*
X125825481Y-107014526D01*
X125825477Y-107014529D01*
X125820851Y-107017562D01*
X125621197Y-107195760D01*
X125450075Y-107401512D01*
X125417204Y-107455682D01*
X125314113Y-107625569D01*
X125314110Y-107625576D01*
X125311244Y-107630298D01*
X125207755Y-107877091D01*
X125141881Y-108136470D01*
X125115070Y-108402736D01*
X125127909Y-108670041D01*
X125180118Y-108932512D01*
X125270549Y-109184383D01*
X125397215Y-109420121D01*
X125557335Y-109634547D01*
X125747390Y-109822950D01*
X125751843Y-109826215D01*
X125751850Y-109826221D01*
X125958743Y-109977921D01*
X125958749Y-109977925D01*
X125963205Y-109981192D01*
X125968098Y-109983766D01*
X125968099Y-109983767D01*
X126195142Y-110103221D01*
X126195147Y-110103223D01*
X126200039Y-110105797D01*
X126205260Y-110107620D01*
X126205264Y-110107622D01*
X126306421Y-110142947D01*
X126452690Y-110194026D01*
X126518669Y-110206553D01*
X126710178Y-110242913D01*
X126710185Y-110242914D01*
X126715606Y-110243943D01*
X126721127Y-110244160D01*
X126721128Y-110244160D01*
X126977488Y-110254232D01*
X126977489Y-110254232D01*
X126983013Y-110254449D01*
X126988509Y-110253847D01*
X126988511Y-110253847D01*
X127243532Y-110225918D01*
X127243536Y-110225917D01*
X127249035Y-110225315D01*
X127254380Y-110223908D01*
X127254384Y-110223907D01*
X127502490Y-110158586D01*
X127502494Y-110158584D01*
X127507829Y-110157180D01*
X127753710Y-110051542D01*
X127981275Y-109910720D01*
X127985496Y-109907147D01*
X128181305Y-109741383D01*
X128181310Y-109741378D01*
X128185526Y-109737809D01*
X128238976Y-109676861D01*
X128303106Y-109634011D01*
X128380069Y-109628967D01*
X128449243Y-109663080D01*
X128492093Y-109727210D01*
X128500000Y-109775104D01*
X128500000Y-112569515D01*
X128480038Y-112644015D01*
X128425500Y-112698553D01*
X128351000Y-112718515D01*
X128276500Y-112698553D01*
X128248908Y-112678042D01*
X128060299Y-112500616D01*
X128056269Y-112496825D01*
X128051731Y-112493677D01*
X128051725Y-112493672D01*
X127895137Y-112385044D01*
X127836385Y-112344286D01*
X127724393Y-112289057D01*
X127601328Y-112228368D01*
X127601322Y-112228366D01*
X127596371Y-112225924D01*
X127591112Y-112224240D01*
X127591108Y-112224239D01*
X127346764Y-112146024D01*
X127341497Y-112144338D01*
X127336047Y-112143450D01*
X127336041Y-112143449D01*
X127082811Y-112102209D01*
X127082810Y-112102209D01*
X127077364Y-112101322D01*
X126956144Y-112099735D01*
X126815302Y-112097891D01*
X126815297Y-112097891D01*
X126809774Y-112097819D01*
X126804302Y-112098564D01*
X126804297Y-112098564D01*
X126588491Y-112127934D01*
X126544605Y-112133907D01*
X126539301Y-112135453D01*
X126539296Y-112135454D01*
X126292985Y-112207246D01*
X126292977Y-112207249D01*
X126287683Y-112208792D01*
X126044652Y-112320831D01*
X126004062Y-112347443D01*
X125825481Y-112464526D01*
X125825477Y-112464529D01*
X125820851Y-112467562D01*
X125621197Y-112645760D01*
X125450075Y-112851512D01*
X125424404Y-112893817D01*
X125314113Y-113075569D01*
X125314110Y-113075576D01*
X125311244Y-113080298D01*
X125309107Y-113085394D01*
X125309105Y-113085398D01*
X125251966Y-113221659D01*
X125207755Y-113327091D01*
X125206395Y-113332446D01*
X125206393Y-113332452D01*
X125143242Y-113581110D01*
X125141881Y-113586470D01*
X125141327Y-113591970D01*
X125141327Y-113591971D01*
X125116847Y-113835090D01*
X125115070Y-113852736D01*
X125115336Y-113858264D01*
X125127405Y-114109544D01*
X125127909Y-114120041D01*
X125128988Y-114125463D01*
X125128988Y-114125467D01*
X125155686Y-114259685D01*
X125180118Y-114382512D01*
X125181983Y-114387707D01*
X125181984Y-114387710D01*
X125244055Y-114560590D01*
X125270549Y-114634383D01*
X125273164Y-114639250D01*
X125273165Y-114639252D01*
X125379053Y-114836319D01*
X125397215Y-114870121D01*
X125557335Y-115084547D01*
X125747390Y-115272950D01*
X125751843Y-115276215D01*
X125751850Y-115276221D01*
X125958743Y-115427921D01*
X125958749Y-115427925D01*
X125963205Y-115431192D01*
X125968098Y-115433766D01*
X125968099Y-115433767D01*
X126195142Y-115553221D01*
X126195147Y-115553223D01*
X126200039Y-115555797D01*
X126205260Y-115557620D01*
X126205264Y-115557622D01*
X126306421Y-115592947D01*
X126452690Y-115644026D01*
X126518669Y-115656553D01*
X126710178Y-115692913D01*
X126710185Y-115692914D01*
X126715606Y-115693943D01*
X126721127Y-115694160D01*
X126721128Y-115694160D01*
X126977488Y-115704232D01*
X126977489Y-115704232D01*
X126983013Y-115704449D01*
X126988509Y-115703847D01*
X126988511Y-115703847D01*
X127243532Y-115675918D01*
X127243536Y-115675917D01*
X127249035Y-115675315D01*
X127254380Y-115673908D01*
X127254384Y-115673907D01*
X127502490Y-115608586D01*
X127502494Y-115608584D01*
X127507829Y-115607180D01*
X127753710Y-115501542D01*
X127981275Y-115360720D01*
X127985496Y-115357147D01*
X128181305Y-115191383D01*
X128181310Y-115191378D01*
X128185526Y-115187809D01*
X128238976Y-115126861D01*
X128303106Y-115084011D01*
X128380069Y-115078967D01*
X128449243Y-115113080D01*
X128492093Y-115177210D01*
X128500000Y-115225104D01*
X128500000Y-118019515D01*
X128480038Y-118094015D01*
X128425500Y-118148553D01*
X128351000Y-118168515D01*
X128276500Y-118148553D01*
X128248908Y-118128042D01*
X128060299Y-117950616D01*
X128056269Y-117946825D01*
X128051731Y-117943677D01*
X128051725Y-117943672D01*
X127932814Y-117861181D01*
X127836385Y-117794286D01*
X127724393Y-117739057D01*
X127601328Y-117678368D01*
X127601322Y-117678366D01*
X127596371Y-117675924D01*
X127591112Y-117674240D01*
X127591108Y-117674239D01*
X127346764Y-117596024D01*
X127341497Y-117594338D01*
X127336047Y-117593450D01*
X127336041Y-117593449D01*
X127082811Y-117552209D01*
X127082810Y-117552209D01*
X127077364Y-117551322D01*
X126956144Y-117549735D01*
X126815302Y-117547891D01*
X126815297Y-117547891D01*
X126809774Y-117547819D01*
X126804302Y-117548564D01*
X126804297Y-117548564D01*
X126588491Y-117577934D01*
X126544605Y-117583907D01*
X126539301Y-117585453D01*
X126539296Y-117585454D01*
X126292985Y-117657246D01*
X126292977Y-117657249D01*
X126287683Y-117658792D01*
X126044652Y-117770831D01*
X126004062Y-117797443D01*
X125825481Y-117914526D01*
X125825477Y-117914529D01*
X125820851Y-117917562D01*
X125621197Y-118095760D01*
X125450075Y-118301512D01*
X125410653Y-118366477D01*
X125314113Y-118525569D01*
X125314110Y-118525576D01*
X125311244Y-118530298D01*
X125207755Y-118777091D01*
X125141881Y-119036470D01*
X125115070Y-119302736D01*
X111650000Y-119302736D01*
X111650000Y-116750000D01*
X119319318Y-116750000D01*
X119339956Y-116906762D01*
X119400464Y-117052841D01*
X119496718Y-117178282D01*
X119622159Y-117274536D01*
X119768238Y-117335044D01*
X119777919Y-117336319D01*
X119777921Y-117336319D01*
X119915315Y-117354407D01*
X119925000Y-117355682D01*
X119934685Y-117354407D01*
X120072079Y-117336319D01*
X120072081Y-117336319D01*
X120081762Y-117335044D01*
X120227841Y-117274536D01*
X120353282Y-117178282D01*
X120449536Y-117052841D01*
X120510044Y-116906762D01*
X120530682Y-116750000D01*
X120510044Y-116593238D01*
X120449536Y-116447159D01*
X120353282Y-116321718D01*
X120227841Y-116225464D01*
X120081762Y-116164956D01*
X120072081Y-116163681D01*
X120072079Y-116163681D01*
X119934685Y-116145593D01*
X119925000Y-116144318D01*
X119915315Y-116145593D01*
X119777921Y-116163681D01*
X119777919Y-116163681D01*
X119768238Y-116164956D01*
X119622159Y-116225464D01*
X119496718Y-116321718D01*
X119400464Y-116447159D01*
X119339956Y-116593238D01*
X119319318Y-116750000D01*
X111650000Y-116750000D01*
X111650000Y-114250000D01*
X113394318Y-114250000D01*
X113395593Y-114259685D01*
X113411051Y-114377097D01*
X113414956Y-114406762D01*
X113475464Y-114552841D01*
X113571718Y-114678282D01*
X113697159Y-114774536D01*
X113843238Y-114835044D01*
X113852919Y-114836319D01*
X113852921Y-114836319D01*
X113990315Y-114854407D01*
X114000000Y-114855682D01*
X114009685Y-114854407D01*
X114147079Y-114836319D01*
X114147081Y-114836319D01*
X114156762Y-114835044D01*
X114302841Y-114774536D01*
X114428282Y-114678282D01*
X114524536Y-114552841D01*
X114585044Y-114406762D01*
X114588950Y-114377097D01*
X114604407Y-114259685D01*
X114605682Y-114250000D01*
X114585044Y-114093238D01*
X114524536Y-113947159D01*
X114428282Y-113821718D01*
X114302841Y-113725464D01*
X114156762Y-113664956D01*
X114147081Y-113663681D01*
X114147079Y-113663681D01*
X114009685Y-113645593D01*
X114000000Y-113644318D01*
X113990315Y-113645593D01*
X113852921Y-113663681D01*
X113852919Y-113663681D01*
X113843238Y-113664956D01*
X113697159Y-113725464D01*
X113571718Y-113821718D01*
X113475464Y-113947159D01*
X113414956Y-114093238D01*
X113394318Y-114250000D01*
X111650000Y-114250000D01*
X111650000Y-112600000D01*
X118669318Y-112600000D01*
X118689956Y-112756762D01*
X118750464Y-112902841D01*
X118846718Y-113028282D01*
X118972159Y-113124536D01*
X119118238Y-113185044D01*
X119127919Y-113186319D01*
X119127921Y-113186319D01*
X119160621Y-113190624D01*
X119212513Y-113197456D01*
X119283769Y-113226970D01*
X119330722Y-113288160D01*
X119340789Y-113364628D01*
X119340369Y-113366742D01*
X119339956Y-113367738D01*
X119319318Y-113524500D01*
X119339956Y-113681262D01*
X119400464Y-113827341D01*
X119496718Y-113952782D01*
X119622159Y-114049036D01*
X119768238Y-114109544D01*
X119777919Y-114110819D01*
X119777921Y-114110819D01*
X119915315Y-114128907D01*
X119925000Y-114130182D01*
X119934685Y-114128907D01*
X120072079Y-114110819D01*
X120072081Y-114110819D01*
X120081762Y-114109544D01*
X120227841Y-114049036D01*
X120353282Y-113952782D01*
X120449536Y-113827341D01*
X120510044Y-113681262D01*
X120530682Y-113524500D01*
X120510044Y-113367738D01*
X120449536Y-113221659D01*
X120353282Y-113096218D01*
X120227841Y-112999964D01*
X120081762Y-112939456D01*
X120072081Y-112938181D01*
X120072079Y-112938181D01*
X120039379Y-112933876D01*
X119987487Y-112927044D01*
X119916231Y-112897530D01*
X119869278Y-112836340D01*
X119859211Y-112759872D01*
X119859631Y-112757758D01*
X119860044Y-112756762D01*
X119865080Y-112718515D01*
X119879407Y-112609685D01*
X119880682Y-112600000D01*
X119866684Y-112493672D01*
X119861319Y-112452921D01*
X119861319Y-112452919D01*
X119860044Y-112443238D01*
X119799536Y-112297159D01*
X119703282Y-112171718D01*
X119577841Y-112075464D01*
X119431762Y-112014956D01*
X119422081Y-112013681D01*
X119422079Y-112013681D01*
X119284685Y-111995593D01*
X119275000Y-111994318D01*
X119265315Y-111995593D01*
X119127921Y-112013681D01*
X119127919Y-112013681D01*
X119118238Y-112014956D01*
X118972159Y-112075464D01*
X118846718Y-112171718D01*
X118750464Y-112297159D01*
X118689956Y-112443238D01*
X118688681Y-112452919D01*
X118688681Y-112452921D01*
X118683316Y-112493672D01*
X118669318Y-112600000D01*
X111650000Y-112600000D01*
X111650000Y-111800000D01*
X122924318Y-111800000D01*
X122944956Y-111956762D01*
X123005464Y-112102841D01*
X123101718Y-112228282D01*
X123227159Y-112324536D01*
X123236182Y-112328274D01*
X123236183Y-112328274D01*
X123282461Y-112347443D01*
X123373238Y-112385044D01*
X123382919Y-112386319D01*
X123382921Y-112386319D01*
X123520315Y-112404407D01*
X123530000Y-112405682D01*
X123539685Y-112404407D01*
X123677079Y-112386319D01*
X123677081Y-112386319D01*
X123686762Y-112385044D01*
X123777539Y-112347443D01*
X123823817Y-112328274D01*
X123823818Y-112328274D01*
X123832841Y-112324536D01*
X123958282Y-112228282D01*
X124054536Y-112102841D01*
X124115044Y-111956762D01*
X124135682Y-111800000D01*
X124115044Y-111643238D01*
X124054536Y-111497159D01*
X123958282Y-111371718D01*
X123832841Y-111275464D01*
X123686762Y-111214956D01*
X123677081Y-111213681D01*
X123677079Y-111213681D01*
X123539685Y-111195593D01*
X123530000Y-111194318D01*
X123520315Y-111195593D01*
X123382921Y-111213681D01*
X123382919Y-111213681D01*
X123373238Y-111214956D01*
X123227159Y-111275464D01*
X123101718Y-111371718D01*
X123005464Y-111497159D01*
X122944956Y-111643238D01*
X122924318Y-111800000D01*
X111650000Y-111800000D01*
X111650000Y-109900000D01*
X112700000Y-108850000D01*
X113400000Y-108850000D01*
X113400000Y-106850000D01*
X115006818Y-106850000D01*
X115027456Y-107006762D01*
X115031193Y-107015784D01*
X115031930Y-107017562D01*
X115087964Y-107152841D01*
X115184218Y-107278282D01*
X115309659Y-107374536D01*
X115455738Y-107435044D01*
X115465419Y-107436319D01*
X115465421Y-107436319D01*
X115602815Y-107454407D01*
X115612500Y-107455682D01*
X115622185Y-107454407D01*
X115759579Y-107436319D01*
X115759581Y-107436319D01*
X115769262Y-107435044D01*
X115915341Y-107374536D01*
X116040782Y-107278282D01*
X116137036Y-107152841D01*
X116193071Y-107017562D01*
X116193807Y-107015784D01*
X116197544Y-107006762D01*
X116218182Y-106850000D01*
X116197544Y-106693238D01*
X116137036Y-106547159D01*
X116040782Y-106421718D01*
X115915341Y-106325464D01*
X115769262Y-106264956D01*
X115759581Y-106263681D01*
X115759579Y-106263681D01*
X115622185Y-106245593D01*
X115612500Y-106244318D01*
X115602815Y-106245593D01*
X115465421Y-106263681D01*
X115465419Y-106263681D01*
X115455738Y-106264956D01*
X115309659Y-106325464D01*
X115184218Y-106421718D01*
X115087964Y-106547159D01*
X115027456Y-106693238D01*
X115006818Y-106850000D01*
X113400000Y-106850000D01*
X113400000Y-106050000D01*
X115800000Y-103650000D01*
X115800000Y-100700000D01*
X119319318Y-100700000D01*
X119320593Y-100709685D01*
X119325901Y-100750000D01*
X119339956Y-100856762D01*
X119400464Y-101002841D01*
X119496718Y-101128282D01*
X119622159Y-101224536D01*
X119631182Y-101228274D01*
X119631183Y-101228274D01*
X119742869Y-101274536D01*
X119768238Y-101285044D01*
X119777919Y-101286319D01*
X119777921Y-101286319D01*
X119915315Y-101304407D01*
X119925000Y-101305682D01*
X119934685Y-101304407D01*
X120072079Y-101286319D01*
X120072081Y-101286319D01*
X120081762Y-101285044D01*
X120107131Y-101274536D01*
X120218817Y-101228274D01*
X120218818Y-101228274D01*
X120227841Y-101224536D01*
X120353282Y-101128282D01*
X120449536Y-101002841D01*
X120510044Y-100856762D01*
X120524100Y-100750000D01*
X120529407Y-100709685D01*
X120530682Y-100700000D01*
X120519964Y-100618590D01*
X120511319Y-100552921D01*
X120511319Y-100552919D01*
X120510044Y-100543238D01*
X120449536Y-100397159D01*
X120353282Y-100271718D01*
X120227841Y-100175464D01*
X120211495Y-100168693D01*
X120090784Y-100118693D01*
X120081762Y-100114956D01*
X120072081Y-100113681D01*
X120072079Y-100113681D01*
X119934685Y-100095593D01*
X119925000Y-100094318D01*
X119915315Y-100095593D01*
X119777921Y-100113681D01*
X119777919Y-100113681D01*
X119768238Y-100114956D01*
X119759216Y-100118693D01*
X119638506Y-100168693D01*
X119622159Y-100175464D01*
X119496718Y-100271718D01*
X119400464Y-100397159D01*
X119339956Y-100543238D01*
X119338681Y-100552919D01*
X119338681Y-100552921D01*
X119330036Y-100618590D01*
X119319318Y-100700000D01*
X115800000Y-100700000D01*
X115800000Y-98845322D01*
X115895609Y-98850500D01*
X116097676Y-98850500D01*
X116099546Y-98850405D01*
X116099557Y-98850405D01*
X116385847Y-98835902D01*
X116389617Y-98835711D01*
X116402478Y-98833743D01*
X116771515Y-98777272D01*
X116771519Y-98777271D01*
X116775245Y-98776701D01*
X116778899Y-98775756D01*
X116778904Y-98775755D01*
X117071827Y-98700000D01*
X117152936Y-98679024D01*
X117518823Y-98543679D01*
X117538140Y-98534216D01*
X117693990Y-98457865D01*
X117869158Y-98372051D01*
X118200356Y-98165898D01*
X118389126Y-98020000D01*
X123484318Y-98020000D01*
X123504956Y-98176762D01*
X123565464Y-98322841D01*
X123661718Y-98448282D01*
X123787159Y-98544536D01*
X123933238Y-98605044D01*
X123942919Y-98606319D01*
X123942921Y-98606319D01*
X124080315Y-98624407D01*
X124090000Y-98625682D01*
X124099685Y-98624407D01*
X124237079Y-98606319D01*
X124237081Y-98606319D01*
X124246762Y-98605044D01*
X124392841Y-98544536D01*
X124421084Y-98522865D01*
X124492340Y-98493348D01*
X124568808Y-98503414D01*
X124629998Y-98550366D01*
X124659515Y-98621623D01*
X124659516Y-98660517D01*
X124654318Y-98700000D01*
X124655593Y-98709685D01*
X124672185Y-98835711D01*
X124674956Y-98856762D01*
X124735464Y-99002841D01*
X124831718Y-99128282D01*
X124957159Y-99224536D01*
X125103238Y-99285044D01*
X125112919Y-99286319D01*
X125112921Y-99286319D01*
X125250315Y-99304407D01*
X125260000Y-99305682D01*
X125269685Y-99304407D01*
X125407079Y-99286319D01*
X125407081Y-99286319D01*
X125416762Y-99285044D01*
X125562841Y-99224536D01*
X125688282Y-99128282D01*
X125784536Y-99002841D01*
X125845044Y-98856762D01*
X125847816Y-98835711D01*
X125864407Y-98709685D01*
X125865682Y-98700000D01*
X125863045Y-98679971D01*
X125846319Y-98552921D01*
X125846319Y-98552919D01*
X125845044Y-98543238D01*
X125784536Y-98397159D01*
X125688282Y-98271718D01*
X125562841Y-98175464D01*
X125521158Y-98158198D01*
X125425784Y-98118693D01*
X125416762Y-98114956D01*
X125407081Y-98113681D01*
X125407079Y-98113681D01*
X125269685Y-98095593D01*
X125260000Y-98094318D01*
X125250315Y-98095593D01*
X125112921Y-98113681D01*
X125112919Y-98113681D01*
X125103238Y-98114956D01*
X125094216Y-98118693D01*
X124998843Y-98158198D01*
X124957159Y-98175464D01*
X124949409Y-98181411D01*
X124928917Y-98197135D01*
X124857660Y-98226652D01*
X124781192Y-98216586D01*
X124720002Y-98169634D01*
X124690485Y-98098377D01*
X124690484Y-98059480D01*
X124695682Y-98020000D01*
X124683140Y-97924734D01*
X124676319Y-97872921D01*
X124676319Y-97872919D01*
X124675044Y-97863238D01*
X124614536Y-97717159D01*
X124518282Y-97591718D01*
X124392841Y-97495464D01*
X124246762Y-97434956D01*
X124237081Y-97433681D01*
X124237079Y-97433681D01*
X124099685Y-97415593D01*
X124090000Y-97414318D01*
X124080315Y-97415593D01*
X123942921Y-97433681D01*
X123942919Y-97433681D01*
X123933238Y-97434956D01*
X123787159Y-97495464D01*
X123661718Y-97591718D01*
X123565464Y-97717159D01*
X123504956Y-97863238D01*
X123503681Y-97872919D01*
X123503681Y-97872921D01*
X123496860Y-97924734D01*
X123484318Y-98020000D01*
X118389126Y-98020000D01*
X118509026Y-97927331D01*
X118738667Y-97709410D01*
X118789274Y-97661386D01*
X118789279Y-97661381D01*
X118792007Y-97658792D01*
X119046402Y-97363031D01*
X119269605Y-97043076D01*
X119459333Y-96702203D01*
X119589482Y-96400000D01*
X121694318Y-96400000D01*
X121714956Y-96556762D01*
X121718693Y-96565784D01*
X121770194Y-96690117D01*
X121775464Y-96702841D01*
X121871718Y-96828282D01*
X121997159Y-96924536D01*
X122143238Y-96985044D01*
X122152919Y-96986319D01*
X122152921Y-96986319D01*
X122290315Y-97004407D01*
X122300000Y-97005682D01*
X122309685Y-97004407D01*
X122447079Y-96986319D01*
X122447081Y-96986319D01*
X122456762Y-96985044D01*
X122602841Y-96924536D01*
X122728282Y-96828282D01*
X122824536Y-96702841D01*
X122829807Y-96690117D01*
X122881307Y-96565784D01*
X122885044Y-96556762D01*
X122905682Y-96400000D01*
X122898752Y-96347362D01*
X122886319Y-96252921D01*
X122886319Y-96252919D01*
X122885044Y-96243238D01*
X122824536Y-96097159D01*
X122728282Y-95971718D01*
X122602841Y-95875464D01*
X122456762Y-95814956D01*
X122447081Y-95813681D01*
X122447079Y-95813681D01*
X122309685Y-95795593D01*
X122300000Y-95794318D01*
X122290315Y-95795593D01*
X122152921Y-95813681D01*
X122152919Y-95813681D01*
X122143238Y-95814956D01*
X121997159Y-95875464D01*
X121871718Y-95971718D01*
X121775464Y-96097159D01*
X121714956Y-96243238D01*
X121713681Y-96252919D01*
X121713681Y-96252921D01*
X121701248Y-96347362D01*
X121694318Y-96400000D01*
X119589482Y-96400000D01*
X119613642Y-96343901D01*
X119730952Y-95971840D01*
X119810063Y-95589829D01*
X119850164Y-95201779D01*
X119850188Y-95188338D01*
X119850799Y-94838044D01*
X119850845Y-94811662D01*
X119849504Y-94798221D01*
X119812473Y-94427221D01*
X119812099Y-94423474D01*
X119734322Y-94041189D01*
X119727889Y-94020533D01*
X119690347Y-93900000D01*
X133794318Y-93900000D01*
X133795593Y-93909685D01*
X133813391Y-94044872D01*
X133814956Y-94056762D01*
X133818693Y-94065784D01*
X133871237Y-94192635D01*
X133875464Y-94202841D01*
X133971718Y-94328282D01*
X134097159Y-94424536D01*
X134243238Y-94485044D01*
X134252919Y-94486319D01*
X134252921Y-94486319D01*
X134390315Y-94504407D01*
X134400000Y-94505682D01*
X134409685Y-94504407D01*
X134547079Y-94486319D01*
X134547081Y-94486319D01*
X134556762Y-94485044D01*
X134702841Y-94424536D01*
X134828282Y-94328282D01*
X134924536Y-94202841D01*
X134928764Y-94192635D01*
X134981307Y-94065784D01*
X134985044Y-94056762D01*
X134986610Y-94044872D01*
X135004407Y-93909685D01*
X135005682Y-93900000D01*
X134998416Y-93844809D01*
X135008483Y-93768341D01*
X135055436Y-93707151D01*
X135126693Y-93677636D01*
X135184498Y-93681424D01*
X135193238Y-93685044D01*
X135350000Y-93705682D01*
X135483025Y-93688169D01*
X135559492Y-93698236D01*
X135620682Y-93745188D01*
X135650197Y-93816446D01*
X135650197Y-93855341D01*
X135644318Y-93900000D01*
X135645593Y-93909685D01*
X135663391Y-94044872D01*
X135664956Y-94056762D01*
X135668693Y-94065784D01*
X135721237Y-94192635D01*
X135725464Y-94202841D01*
X135821718Y-94328282D01*
X135947159Y-94424536D01*
X136093238Y-94485044D01*
X136102919Y-94486319D01*
X136102921Y-94486319D01*
X136240315Y-94504407D01*
X136250000Y-94505682D01*
X136259685Y-94504407D01*
X136397079Y-94486319D01*
X136397081Y-94486319D01*
X136406762Y-94485044D01*
X136552841Y-94424536D01*
X136678282Y-94328282D01*
X136774536Y-94202841D01*
X136778764Y-94192635D01*
X136831307Y-94065784D01*
X136835044Y-94056762D01*
X136836610Y-94044872D01*
X136854407Y-93909685D01*
X136855682Y-93900000D01*
X137994318Y-93900000D01*
X137995593Y-93909685D01*
X138013391Y-94044872D01*
X138014956Y-94056762D01*
X138018693Y-94065784D01*
X138071237Y-94192635D01*
X138075464Y-94202841D01*
X138171718Y-94328282D01*
X138297159Y-94424536D01*
X138443238Y-94485044D01*
X138452919Y-94486319D01*
X138452921Y-94486319D01*
X138590315Y-94504407D01*
X138600000Y-94505682D01*
X138609685Y-94504407D01*
X138747079Y-94486319D01*
X138747081Y-94486319D01*
X138756762Y-94485044D01*
X138902841Y-94424536D01*
X139028282Y-94328282D01*
X139096339Y-94239588D01*
X139157529Y-94192635D01*
X139233997Y-94182568D01*
X139240276Y-94183817D01*
X139243238Y-94185044D01*
X139252713Y-94186291D01*
X139252721Y-94186293D01*
X139390315Y-94204407D01*
X139400000Y-94205682D01*
X139409685Y-94204407D01*
X139547079Y-94186319D01*
X139547081Y-94186319D01*
X139556762Y-94185044D01*
X139702841Y-94124536D01*
X139828282Y-94028282D01*
X139924536Y-93902841D01*
X139929725Y-93890315D01*
X139981307Y-93765784D01*
X139985044Y-93756762D01*
X139986825Y-93743238D01*
X139997486Y-93662254D01*
X160882467Y-93662254D01*
X160883475Y-93677636D01*
X160889253Y-93765784D01*
X160896296Y-93873249D01*
X160948345Y-94078190D01*
X160951203Y-94084390D01*
X160951205Y-94084395D01*
X160989935Y-94168407D01*
X161036869Y-94270214D01*
X161040805Y-94275784D01*
X161040806Y-94275785D01*
X161148575Y-94428274D01*
X161158905Y-94442891D01*
X161310365Y-94590437D01*
X161486177Y-94707911D01*
X161680453Y-94791378D01*
X161886686Y-94838044D01*
X161938044Y-94840062D01*
X162091141Y-94846078D01*
X162091145Y-94846078D01*
X162097970Y-94846346D01*
X162307230Y-94816004D01*
X162313687Y-94813812D01*
X162313692Y-94813811D01*
X162449583Y-94767682D01*
X162507455Y-94748037D01*
X162602213Y-94694970D01*
X162685981Y-94648058D01*
X162685986Y-94648054D01*
X162691942Y-94644719D01*
X162854512Y-94509512D01*
X162989719Y-94346942D01*
X162993054Y-94340986D01*
X162993058Y-94340981D01*
X163066080Y-94210590D01*
X163093037Y-94162455D01*
X163137366Y-94031865D01*
X163158811Y-93968692D01*
X163158812Y-93968687D01*
X163161004Y-93962230D01*
X163191346Y-93752970D01*
X163192929Y-93692500D01*
X163191913Y-93681437D01*
X163174206Y-93488742D01*
X163173581Y-93481940D01*
X163116186Y-93278431D01*
X163022665Y-93088790D01*
X163018584Y-93083325D01*
X163018581Y-93083320D01*
X162900239Y-92924841D01*
X162900237Y-92924839D01*
X162896151Y-92919367D01*
X162740881Y-92775837D01*
X162562054Y-92663005D01*
X162555715Y-92660476D01*
X162555709Y-92660473D01*
X162372004Y-92587183D01*
X162365660Y-92584652D01*
X162300676Y-92571726D01*
X162164978Y-92544734D01*
X162164975Y-92544734D01*
X162158275Y-92543401D01*
X162052561Y-92542017D01*
X161953680Y-92540722D01*
X161953675Y-92540722D01*
X161946846Y-92540633D01*
X161940113Y-92541790D01*
X161940112Y-92541790D01*
X161745184Y-92575284D01*
X161745180Y-92575285D01*
X161738453Y-92576441D01*
X161540075Y-92649627D01*
X161534202Y-92653121D01*
X161512938Y-92665772D01*
X161358356Y-92757738D01*
X161326141Y-92785989D01*
X161204522Y-92892646D01*
X161204519Y-92892649D01*
X161199381Y-92897155D01*
X161143689Y-92967800D01*
X161072707Y-93057840D01*
X161072703Y-93057846D01*
X161068476Y-93063208D01*
X161065297Y-93069251D01*
X161065294Y-93069255D01*
X161025622Y-93144659D01*
X160970023Y-93250336D01*
X160955484Y-93297159D01*
X160909344Y-93445753D01*
X160909343Y-93445758D01*
X160907320Y-93452273D01*
X160906518Y-93459050D01*
X160906517Y-93459054D01*
X160889835Y-93600000D01*
X160882467Y-93662254D01*
X139997486Y-93662254D01*
X140004407Y-93609685D01*
X140005682Y-93600000D01*
X139989274Y-93475366D01*
X139986319Y-93452921D01*
X139986319Y-93452919D01*
X139985044Y-93443238D01*
X139931908Y-93314956D01*
X139928274Y-93306183D01*
X139928274Y-93306182D01*
X139924536Y-93297159D01*
X139828282Y-93171718D01*
X139734817Y-93100000D01*
X139710590Y-93081410D01*
X139702841Y-93075464D01*
X139673253Y-93063208D01*
X139565784Y-93018693D01*
X139556762Y-93014956D01*
X139547081Y-93013681D01*
X139547079Y-93013681D01*
X139409685Y-92995593D01*
X139400000Y-92994318D01*
X139390315Y-92995593D01*
X139252921Y-93013681D01*
X139252919Y-93013681D01*
X139243238Y-93014956D01*
X139234216Y-93018693D01*
X139126748Y-93063208D01*
X139097159Y-93075464D01*
X139089410Y-93081410D01*
X139065183Y-93100000D01*
X138971718Y-93171718D01*
X138911393Y-93250336D01*
X138903661Y-93260412D01*
X138842471Y-93307365D01*
X138766003Y-93317432D01*
X138759724Y-93316183D01*
X138756762Y-93314956D01*
X138747287Y-93313709D01*
X138747279Y-93313707D01*
X138609685Y-93295593D01*
X138600000Y-93294318D01*
X138590315Y-93295593D01*
X138452921Y-93313681D01*
X138452919Y-93313681D01*
X138443238Y-93314956D01*
X138434216Y-93318693D01*
X138425354Y-93322364D01*
X138297159Y-93375464D01*
X138171718Y-93471718D01*
X138075464Y-93597159D01*
X138071726Y-93606182D01*
X138071726Y-93606183D01*
X138051050Y-93656099D01*
X138014956Y-93743238D01*
X138013681Y-93752919D01*
X138013681Y-93752921D01*
X138013103Y-93757314D01*
X137994318Y-93900000D01*
X136855682Y-93900000D01*
X136836897Y-93757314D01*
X136836319Y-93752921D01*
X136836319Y-93752919D01*
X136835044Y-93743238D01*
X136798950Y-93656099D01*
X136778274Y-93606183D01*
X136778274Y-93606182D01*
X136774536Y-93597159D01*
X136678282Y-93471718D01*
X136552841Y-93375464D01*
X136424647Y-93322364D01*
X136415784Y-93318693D01*
X136406762Y-93314956D01*
X136397081Y-93313681D01*
X136397079Y-93313681D01*
X136259685Y-93295593D01*
X136250000Y-93294318D01*
X136116975Y-93311831D01*
X136040508Y-93301764D01*
X135979318Y-93254812D01*
X135949803Y-93183554D01*
X135949803Y-93144659D01*
X135954407Y-93109686D01*
X135954407Y-93109685D01*
X135955682Y-93100000D01*
X135941769Y-92994318D01*
X135936319Y-92952921D01*
X135936319Y-92952919D01*
X135935044Y-92943238D01*
X135874536Y-92797159D01*
X135778282Y-92671718D01*
X135652841Y-92575464D01*
X135578653Y-92544734D01*
X135515784Y-92518693D01*
X135506762Y-92514956D01*
X135497081Y-92513681D01*
X135497079Y-92513681D01*
X135359685Y-92495593D01*
X135350000Y-92494318D01*
X135340315Y-92495593D01*
X135202921Y-92513681D01*
X135202919Y-92513681D01*
X135193238Y-92514956D01*
X135184216Y-92518693D01*
X135121348Y-92544734D01*
X135047159Y-92575464D01*
X134921718Y-92671718D01*
X134825464Y-92797159D01*
X134764956Y-92943238D01*
X134763681Y-92952919D01*
X134763681Y-92952921D01*
X134758231Y-92994318D01*
X134744318Y-93100000D01*
X134745593Y-93109685D01*
X134751584Y-93155191D01*
X134741517Y-93231659D01*
X134694564Y-93292849D01*
X134623307Y-93322364D01*
X134565502Y-93318576D01*
X134556762Y-93314956D01*
X134400000Y-93294318D01*
X134390315Y-93295593D01*
X134252921Y-93313681D01*
X134252919Y-93313681D01*
X134243238Y-93314956D01*
X134234216Y-93318693D01*
X134225354Y-93322364D01*
X134097159Y-93375464D01*
X133971718Y-93471718D01*
X133875464Y-93597159D01*
X133871726Y-93606182D01*
X133871726Y-93606183D01*
X133851050Y-93656099D01*
X133814956Y-93743238D01*
X133813681Y-93752919D01*
X133813681Y-93752921D01*
X133813103Y-93757314D01*
X133794318Y-93900000D01*
X119690347Y-93900000D01*
X119619435Y-93672330D01*
X119618311Y-93668721D01*
X119526265Y-93452921D01*
X119466734Y-93313352D01*
X119466731Y-93313346D01*
X119465254Y-93309883D01*
X119276717Y-92968349D01*
X119054632Y-92647617D01*
X118921370Y-92491587D01*
X118888166Y-92421973D01*
X118894217Y-92345083D01*
X118925201Y-92300000D01*
X131194318Y-92300000D01*
X131214956Y-92456762D01*
X131218693Y-92465784D01*
X131249697Y-92540633D01*
X131275464Y-92602841D01*
X131371718Y-92728282D01*
X131497159Y-92824536D01*
X131643238Y-92885044D01*
X131652919Y-92886319D01*
X131652921Y-92886319D01*
X131790315Y-92904407D01*
X131800000Y-92905682D01*
X131809685Y-92904407D01*
X131947079Y-92886319D01*
X131947081Y-92886319D01*
X131956762Y-92885044D01*
X132102841Y-92824536D01*
X132228282Y-92728282D01*
X132324536Y-92602841D01*
X132350304Y-92540633D01*
X132381307Y-92465784D01*
X132385044Y-92456762D01*
X132405682Y-92300000D01*
X132403249Y-92281519D01*
X132399803Y-92255341D01*
X132409870Y-92178873D01*
X132456823Y-92117684D01*
X132528081Y-92088169D01*
X132566975Y-92088169D01*
X132700000Y-92105682D01*
X132709685Y-92104407D01*
X132847079Y-92086319D01*
X132847081Y-92086319D01*
X132856762Y-92085044D01*
X132891795Y-92070533D01*
X132993817Y-92028274D01*
X132993818Y-92028274D01*
X133002841Y-92024536D01*
X133128282Y-91928282D01*
X133224536Y-91802841D01*
X133232818Y-91782848D01*
X133281307Y-91665784D01*
X133285044Y-91656762D01*
X133287713Y-91636493D01*
X133304407Y-91509685D01*
X133305682Y-91500000D01*
X133300853Y-91463317D01*
X133286319Y-91352921D01*
X133286319Y-91352919D01*
X133285044Y-91343238D01*
X133239891Y-91234228D01*
X133228274Y-91206183D01*
X133228274Y-91206182D01*
X133225713Y-91200000D01*
X159594318Y-91200000D01*
X159595593Y-91209685D01*
X159613176Y-91343238D01*
X159614956Y-91356762D01*
X159618693Y-91365784D01*
X159670276Y-91490315D01*
X159675464Y-91502841D01*
X159771718Y-91628282D01*
X159897159Y-91724536D01*
X159906182Y-91728274D01*
X159906183Y-91728274D01*
X160020110Y-91775464D01*
X160043238Y-91785044D01*
X160052919Y-91786319D01*
X160052921Y-91786319D01*
X160190315Y-91804407D01*
X160200000Y-91805682D01*
X160209685Y-91804407D01*
X160347079Y-91786319D01*
X160347081Y-91786319D01*
X160356762Y-91785044D01*
X160379890Y-91775464D01*
X160493817Y-91728274D01*
X160493818Y-91728274D01*
X160502841Y-91724536D01*
X160628282Y-91628282D01*
X160724536Y-91502841D01*
X160729725Y-91490315D01*
X160781307Y-91365784D01*
X160785044Y-91356762D01*
X160786825Y-91343238D01*
X160804407Y-91209685D01*
X160805682Y-91200000D01*
X160800981Y-91164289D01*
X160786319Y-91052921D01*
X160786319Y-91052919D01*
X160785044Y-91043238D01*
X160755423Y-90971726D01*
X160728274Y-90906183D01*
X160728274Y-90906182D01*
X160724536Y-90897159D01*
X160628282Y-90771718D01*
X160502841Y-90675464D01*
X160448418Y-90652921D01*
X160365784Y-90618693D01*
X160356762Y-90614956D01*
X160347081Y-90613681D01*
X160347079Y-90613681D01*
X160209685Y-90595593D01*
X160200000Y-90594318D01*
X160190315Y-90595593D01*
X160052921Y-90613681D01*
X160052919Y-90613681D01*
X160043238Y-90614956D01*
X160034216Y-90618693D01*
X159951583Y-90652921D01*
X159897159Y-90675464D01*
X159771718Y-90771718D01*
X159675464Y-90897159D01*
X159671726Y-90906182D01*
X159671726Y-90906183D01*
X159644577Y-90971726D01*
X159614956Y-91043238D01*
X159613681Y-91052919D01*
X159613681Y-91052921D01*
X159599019Y-91164289D01*
X159594318Y-91200000D01*
X133225713Y-91200000D01*
X133224536Y-91197159D01*
X133128282Y-91071718D01*
X133002841Y-90975464D01*
X132979472Y-90965784D01*
X132865784Y-90918693D01*
X132856762Y-90914956D01*
X132847081Y-90913681D01*
X132847079Y-90913681D01*
X132709685Y-90895593D01*
X132700000Y-90894318D01*
X132690315Y-90895593D01*
X132552921Y-90913681D01*
X132552919Y-90913681D01*
X132543238Y-90914956D01*
X132534216Y-90918693D01*
X132420529Y-90965784D01*
X132397159Y-90975464D01*
X132271718Y-91071718D01*
X132175464Y-91197159D01*
X132171726Y-91206182D01*
X132171726Y-91206183D01*
X132160109Y-91234228D01*
X132114956Y-91343238D01*
X132113681Y-91352919D01*
X132113681Y-91352921D01*
X132099147Y-91463317D01*
X132094318Y-91500000D01*
X132095593Y-91509685D01*
X132095593Y-91509686D01*
X132100197Y-91544659D01*
X132090130Y-91621127D01*
X132043177Y-91682316D01*
X131971919Y-91711831D01*
X131933025Y-91711831D01*
X131800000Y-91694318D01*
X131790315Y-91695593D01*
X131652921Y-91713681D01*
X131652919Y-91713681D01*
X131643238Y-91714956D01*
X131634216Y-91718693D01*
X131611086Y-91728274D01*
X131497159Y-91775464D01*
X131371718Y-91871718D01*
X131275464Y-91997159D01*
X131271726Y-92006182D01*
X131271726Y-92006183D01*
X131239399Y-92084228D01*
X131214956Y-92143238D01*
X131213681Y-92152919D01*
X131213681Y-92152921D01*
X131196751Y-92281519D01*
X131194318Y-92300000D01*
X118925201Y-92300000D01*
X118937903Y-92281519D01*
X119007518Y-92248315D01*
X119015213Y-92247097D01*
X119061066Y-92241060D01*
X119097079Y-92236319D01*
X119097081Y-92236319D01*
X119106762Y-92235044D01*
X119252841Y-92174536D01*
X119378282Y-92078282D01*
X119474536Y-91952841D01*
X119487919Y-91920533D01*
X119531307Y-91815784D01*
X119535044Y-91806762D01*
X119537736Y-91786319D01*
X119554407Y-91659685D01*
X119555682Y-91650000D01*
X119543104Y-91554460D01*
X119553171Y-91477992D01*
X119600124Y-91416802D01*
X119671381Y-91387287D01*
X119710275Y-91387287D01*
X119850000Y-91405682D01*
X119859685Y-91404407D01*
X119997079Y-91386319D01*
X119997081Y-91386319D01*
X120006762Y-91385044D01*
X120084314Y-91352921D01*
X120143817Y-91328274D01*
X120143818Y-91328274D01*
X120152841Y-91324536D01*
X120278282Y-91228282D01*
X120374536Y-91102841D01*
X120399225Y-91043238D01*
X120431307Y-90965784D01*
X120435044Y-90956762D01*
X120455682Y-90800000D01*
X120451176Y-90765772D01*
X120436319Y-90652921D01*
X120436319Y-90652919D01*
X120435044Y-90643238D01*
X120374536Y-90497159D01*
X120278282Y-90371718D01*
X120152841Y-90275464D01*
X120006762Y-90214956D01*
X119997081Y-90213681D01*
X119997079Y-90213681D01*
X119859685Y-90195593D01*
X119850000Y-90194318D01*
X119840315Y-90195593D01*
X119702921Y-90213681D01*
X119702919Y-90213681D01*
X119693238Y-90214956D01*
X119547159Y-90275464D01*
X119421718Y-90371718D01*
X119325464Y-90497159D01*
X119264956Y-90643238D01*
X119263681Y-90652919D01*
X119263681Y-90652921D01*
X119248824Y-90765772D01*
X119244318Y-90800000D01*
X119245593Y-90809685D01*
X119256896Y-90895540D01*
X119246829Y-90972008D01*
X119199876Y-91033198D01*
X119128619Y-91062713D01*
X119089725Y-91062713D01*
X118950000Y-91044318D01*
X118940315Y-91045593D01*
X118802921Y-91063681D01*
X118802919Y-91063681D01*
X118793238Y-91064956D01*
X118784216Y-91068693D01*
X118701776Y-91102841D01*
X118647159Y-91125464D01*
X118521718Y-91221718D01*
X118425464Y-91347159D01*
X118421726Y-91356182D01*
X118421726Y-91356183D01*
X118379559Y-91457983D01*
X118364956Y-91493238D01*
X118363681Y-91502919D01*
X118363681Y-91502921D01*
X118358186Y-91544659D01*
X118344318Y-91650000D01*
X118345323Y-91657634D01*
X118325631Y-91731127D01*
X118271093Y-91785665D01*
X118196593Y-91805627D01*
X118117414Y-91782848D01*
X117976285Y-91694318D01*
X117880918Y-91634494D01*
X117531183Y-91461645D01*
X117527656Y-91460326D01*
X117527646Y-91460322D01*
X117169308Y-91326345D01*
X117169300Y-91326343D01*
X117165771Y-91325023D01*
X117162129Y-91324068D01*
X117162121Y-91324065D01*
X117003663Y-91282495D01*
X116788424Y-91226028D01*
X116661696Y-91206183D01*
X116406735Y-91166257D01*
X116406730Y-91166256D01*
X116403004Y-91165673D01*
X116104391Y-91149500D01*
X115902324Y-91149500D01*
X115900454Y-91149595D01*
X115900443Y-91149595D01*
X115780000Y-91155696D01*
X115780000Y-86900000D01*
X115400000Y-86560000D01*
X112500000Y-86560000D01*
X111600000Y-85700000D01*
X111600000Y-81502736D01*
X125115070Y-81502736D01*
X125127909Y-81770041D01*
X125180118Y-82032512D01*
X125270549Y-82284383D01*
X125397215Y-82520121D01*
X125557335Y-82734547D01*
X125747390Y-82922950D01*
X125751843Y-82926215D01*
X125751850Y-82926221D01*
X125958743Y-83077921D01*
X125958749Y-83077925D01*
X125963205Y-83081192D01*
X125968098Y-83083766D01*
X125968099Y-83083767D01*
X126195142Y-83203221D01*
X126195147Y-83203223D01*
X126200039Y-83205797D01*
X126205260Y-83207620D01*
X126205264Y-83207622D01*
X126306421Y-83242947D01*
X126452690Y-83294026D01*
X126518669Y-83306553D01*
X126710178Y-83342913D01*
X126710185Y-83342914D01*
X126715606Y-83343943D01*
X126721127Y-83344160D01*
X126721128Y-83344160D01*
X126977488Y-83354232D01*
X126977489Y-83354232D01*
X126983013Y-83354449D01*
X126988509Y-83353847D01*
X126988511Y-83353847D01*
X127243532Y-83325918D01*
X127243536Y-83325917D01*
X127249035Y-83325315D01*
X127254380Y-83323908D01*
X127254384Y-83323907D01*
X127502490Y-83258586D01*
X127502494Y-83258584D01*
X127507829Y-83257180D01*
X127753710Y-83151542D01*
X127981275Y-83010720D01*
X127985496Y-83007147D01*
X128181305Y-82841383D01*
X128181310Y-82841378D01*
X128185526Y-82837809D01*
X128238976Y-82776861D01*
X128303106Y-82734011D01*
X128380069Y-82728967D01*
X128449243Y-82763080D01*
X128492093Y-82827210D01*
X128500000Y-82875104D01*
X128500000Y-88091534D01*
X128499997Y-88092444D01*
X128499532Y-88168556D01*
X128502448Y-88178759D01*
X128507051Y-88194866D01*
X128511281Y-88214680D01*
X128515162Y-88241777D01*
X128524841Y-88263066D01*
X128532464Y-88283785D01*
X128538889Y-88306265D01*
X128544554Y-88315243D01*
X128544556Y-88315248D01*
X128553495Y-88329416D01*
X128563116Y-88347246D01*
X128574442Y-88372156D01*
X128581371Y-88380197D01*
X128581372Y-88380199D01*
X128589703Y-88389868D01*
X128602841Y-88407623D01*
X128609648Y-88418412D01*
X128609650Y-88418415D01*
X128615315Y-88427393D01*
X128623275Y-88434423D01*
X128635821Y-88445504D01*
X128650063Y-88459920D01*
X128661001Y-88472614D01*
X128661004Y-88472617D01*
X128667932Y-88480657D01*
X128687563Y-88493381D01*
X128705145Y-88506727D01*
X128714711Y-88515176D01*
X128714713Y-88515177D01*
X128722666Y-88522201D01*
X128747434Y-88533830D01*
X128765146Y-88543668D01*
X128788117Y-88558557D01*
X128798286Y-88561598D01*
X128798288Y-88561599D01*
X128810520Y-88565257D01*
X128831146Y-88573133D01*
X128852311Y-88583070D01*
X128871091Y-88585994D01*
X128879355Y-88587281D01*
X128899119Y-88591753D01*
X128915162Y-88596551D01*
X128915164Y-88596551D01*
X128925335Y-88599593D01*
X128935952Y-88599658D01*
X128935954Y-88599658D01*
X128947134Y-88599726D01*
X128959349Y-88599800D01*
X128959921Y-88599824D01*
X128961047Y-88600000D01*
X128991534Y-88600000D01*
X128992444Y-88600003D01*
X129068556Y-88600468D01*
X129069929Y-88600076D01*
X129071042Y-88600000D01*
X159991534Y-88600000D01*
X159992444Y-88600003D01*
X160068556Y-88600468D01*
X160094866Y-88592949D01*
X160114680Y-88588719D01*
X160122119Y-88587653D01*
X160141777Y-88584838D01*
X160163066Y-88575159D01*
X160183787Y-88567535D01*
X160196058Y-88564028D01*
X160196057Y-88564028D01*
X160206265Y-88561111D01*
X160215243Y-88555446D01*
X160215248Y-88555444D01*
X160229416Y-88546505D01*
X160247246Y-88536884D01*
X160272156Y-88525558D01*
X160280197Y-88518629D01*
X160280199Y-88518628D01*
X160289868Y-88510297D01*
X160307623Y-88497159D01*
X160318412Y-88490352D01*
X160318415Y-88490350D01*
X160327393Y-88484685D01*
X160338054Y-88472614D01*
X160345504Y-88464179D01*
X160359920Y-88449937D01*
X160372614Y-88438999D01*
X160372617Y-88438996D01*
X160380657Y-88432068D01*
X160393381Y-88412437D01*
X160406727Y-88394855D01*
X160415176Y-88385289D01*
X160415177Y-88385287D01*
X160422201Y-88377334D01*
X160433830Y-88352566D01*
X160443668Y-88334854D01*
X160452784Y-88320790D01*
X160452785Y-88320789D01*
X160458557Y-88311883D01*
X160465257Y-88289480D01*
X160473133Y-88268854D01*
X160483070Y-88247689D01*
X160487281Y-88220645D01*
X160491753Y-88200881D01*
X160496551Y-88184838D01*
X160496551Y-88184836D01*
X160499593Y-88174665D01*
X160499800Y-88140651D01*
X160499824Y-88140079D01*
X160500000Y-88138953D01*
X160500000Y-88108466D01*
X160500003Y-88107556D01*
X160500443Y-88035467D01*
X160500468Y-88031444D01*
X160500076Y-88030071D01*
X160500000Y-88028958D01*
X160500000Y-65043233D01*
X167094906Y-65043233D01*
X167121102Y-65317792D01*
X167186657Y-65585694D01*
X167188678Y-65590682D01*
X167188679Y-65590687D01*
X167287965Y-65835810D01*
X167290199Y-65841326D01*
X167429558Y-66079335D01*
X167601816Y-66294732D01*
X167803364Y-66483008D01*
X168029979Y-66640216D01*
X168276914Y-66763065D01*
X168411207Y-66807088D01*
X168533860Y-66847296D01*
X168533864Y-66847297D01*
X168538998Y-66848980D01*
X168810738Y-66896162D01*
X168897876Y-66900500D01*
X169070070Y-66900500D01*
X169072751Y-66900305D01*
X169072764Y-66900305D01*
X169182744Y-66892325D01*
X169275083Y-66885625D01*
X169544403Y-66826164D01*
X169549452Y-66824251D01*
X169549459Y-66824249D01*
X169797270Y-66730362D01*
X169797271Y-66730361D01*
X169802319Y-66728449D01*
X169807037Y-66725828D01*
X169807040Y-66725827D01*
X169956835Y-66642623D01*
X170043428Y-66594525D01*
X170262678Y-66427198D01*
X170455477Y-66229974D01*
X170562054Y-66083553D01*
X170614606Y-66011355D01*
X170614609Y-66011350D01*
X170617787Y-66006984D01*
X170746206Y-65762899D01*
X170838045Y-65502832D01*
X170891380Y-65232232D01*
X170905094Y-64956767D01*
X170878898Y-64682208D01*
X170813343Y-64414306D01*
X170739633Y-64232324D01*
X170711825Y-64163671D01*
X170709801Y-64158674D01*
X170570442Y-63920665D01*
X170398184Y-63705268D01*
X170294324Y-63608247D01*
X170200583Y-63520679D01*
X170200582Y-63520678D01*
X170196636Y-63516992D01*
X169970021Y-63359784D01*
X169723086Y-63236935D01*
X169536444Y-63175751D01*
X169466140Y-63152704D01*
X169466136Y-63152703D01*
X169461002Y-63151020D01*
X169189262Y-63103838D01*
X169102124Y-63099500D01*
X168929930Y-63099500D01*
X168927249Y-63099695D01*
X168927236Y-63099695D01*
X168817256Y-63107675D01*
X168724917Y-63114375D01*
X168455597Y-63173836D01*
X168450548Y-63175749D01*
X168450541Y-63175751D01*
X168282698Y-63239341D01*
X168197681Y-63271551D01*
X168192963Y-63274172D01*
X168192960Y-63274173D01*
X168077126Y-63338513D01*
X167956572Y-63405475D01*
X167737322Y-63572802D01*
X167655666Y-63656332D01*
X167553346Y-63761001D01*
X167544523Y-63770026D01*
X167541347Y-63774390D01*
X167541344Y-63774393D01*
X167385394Y-63988645D01*
X167385391Y-63988650D01*
X167382213Y-63993016D01*
X167379695Y-63997802D01*
X167329902Y-64092444D01*
X167253794Y-64237101D01*
X167161955Y-64497168D01*
X167108620Y-64767768D01*
X167094906Y-65043233D01*
X160500000Y-65043233D01*
X160500000Y-64108466D01*
X160500003Y-64107556D01*
X160500295Y-64059785D01*
X160500468Y-64031444D01*
X160492949Y-64005134D01*
X160488719Y-63985320D01*
X160486342Y-63968725D01*
X160484838Y-63958223D01*
X160475159Y-63936934D01*
X160467535Y-63916213D01*
X160464028Y-63903942D01*
X160461111Y-63893735D01*
X160455446Y-63884757D01*
X160455444Y-63884752D01*
X160446505Y-63870584D01*
X160436881Y-63852749D01*
X160425558Y-63827844D01*
X160414242Y-63814711D01*
X160410297Y-63810132D01*
X160397159Y-63792377D01*
X160390352Y-63781588D01*
X160390350Y-63781585D01*
X160384685Y-63772607D01*
X160376725Y-63765577D01*
X160364179Y-63754496D01*
X160349937Y-63740080D01*
X160338999Y-63727386D01*
X160338996Y-63727383D01*
X160332068Y-63719343D01*
X160312437Y-63706619D01*
X160294855Y-63693273D01*
X160285289Y-63684824D01*
X160285287Y-63684823D01*
X160277334Y-63677799D01*
X160252566Y-63666170D01*
X160234854Y-63656332D01*
X160220790Y-63647216D01*
X160220789Y-63647215D01*
X160211883Y-63641443D01*
X160201714Y-63638402D01*
X160201712Y-63638401D01*
X160189480Y-63634743D01*
X160168854Y-63626867D01*
X160147689Y-63616930D01*
X160126675Y-63613658D01*
X160120645Y-63612719D01*
X160100881Y-63608247D01*
X160084838Y-63603449D01*
X160084836Y-63603449D01*
X160074665Y-63600407D01*
X160064048Y-63600342D01*
X160064046Y-63600342D01*
X160052866Y-63600274D01*
X160040651Y-63600200D01*
X160040079Y-63600176D01*
X160038953Y-63600000D01*
X160008466Y-63600000D01*
X160007556Y-63599997D01*
X160007509Y-63599997D01*
X159931444Y-63599532D01*
X159930071Y-63599924D01*
X159928958Y-63600000D01*
X129008466Y-63600000D01*
X129007556Y-63599997D01*
X129007449Y-63599996D01*
X128931444Y-63599532D01*
X128921240Y-63602448D01*
X128921241Y-63602448D01*
X128905134Y-63607051D01*
X128885320Y-63611281D01*
X128877881Y-63612347D01*
X128858223Y-63615162D01*
X128836934Y-63624841D01*
X128816215Y-63632464D01*
X128793735Y-63638889D01*
X128784757Y-63644554D01*
X128784752Y-63644556D01*
X128770584Y-63653495D01*
X128752754Y-63663116D01*
X128727844Y-63674442D01*
X128719803Y-63681371D01*
X128719801Y-63681372D01*
X128710132Y-63689703D01*
X128692377Y-63702841D01*
X128681588Y-63709648D01*
X128681585Y-63709650D01*
X128672607Y-63715315D01*
X128665577Y-63723275D01*
X128654496Y-63735821D01*
X128640080Y-63750063D01*
X128627386Y-63761001D01*
X128627383Y-63761004D01*
X128619343Y-63767932D01*
X128606619Y-63787563D01*
X128593275Y-63805142D01*
X128577799Y-63822666D01*
X128570833Y-63837503D01*
X128566173Y-63847429D01*
X128556332Y-63865146D01*
X128541443Y-63888117D01*
X128538402Y-63898286D01*
X128538401Y-63898288D01*
X128534743Y-63910520D01*
X128526867Y-63931146D01*
X128516930Y-63952311D01*
X128515297Y-63962800D01*
X128512719Y-63979355D01*
X128508247Y-63999118D01*
X128500407Y-64025335D01*
X128500342Y-64035952D01*
X128500342Y-64035954D01*
X128500200Y-64059341D01*
X128500176Y-64059921D01*
X128500000Y-64061047D01*
X128500000Y-64091534D01*
X128499997Y-64092444D01*
X128499532Y-64168556D01*
X128499924Y-64169929D01*
X128500000Y-64171042D01*
X128500000Y-69319515D01*
X128480038Y-69394015D01*
X128425500Y-69448553D01*
X128351000Y-69468515D01*
X128276500Y-69448553D01*
X128248908Y-69428042D01*
X128060299Y-69250616D01*
X128056269Y-69246825D01*
X128051731Y-69243677D01*
X128051725Y-69243672D01*
X127932814Y-69161181D01*
X127836385Y-69094286D01*
X127724393Y-69039057D01*
X127601328Y-68978368D01*
X127601322Y-68978366D01*
X127596371Y-68975924D01*
X127591112Y-68974240D01*
X127591108Y-68974239D01*
X127346764Y-68896024D01*
X127341497Y-68894338D01*
X127336047Y-68893450D01*
X127336041Y-68893449D01*
X127082811Y-68852209D01*
X127082810Y-68852209D01*
X127077364Y-68851322D01*
X126956144Y-68849735D01*
X126815302Y-68847891D01*
X126815297Y-68847891D01*
X126809774Y-68847819D01*
X126804302Y-68848564D01*
X126804297Y-68848564D01*
X126588491Y-68877934D01*
X126544605Y-68883907D01*
X126539301Y-68885453D01*
X126539296Y-68885454D01*
X126292985Y-68957246D01*
X126292977Y-68957249D01*
X126287683Y-68958792D01*
X126147603Y-69023370D01*
X126068830Y-69059685D01*
X126044652Y-69070831D01*
X126004062Y-69097443D01*
X125825481Y-69214526D01*
X125825477Y-69214529D01*
X125820851Y-69217562D01*
X125621197Y-69395760D01*
X125450075Y-69601512D01*
X125417204Y-69655682D01*
X125314113Y-69825569D01*
X125314110Y-69825576D01*
X125311244Y-69830298D01*
X125207755Y-70077091D01*
X125141881Y-70336470D01*
X125115070Y-70602736D01*
X125127909Y-70870041D01*
X125180118Y-71132512D01*
X125270549Y-71384383D01*
X125397215Y-71620121D01*
X125557335Y-71834547D01*
X125747390Y-72022950D01*
X125751843Y-72026215D01*
X125751850Y-72026221D01*
X125958743Y-72177921D01*
X125958749Y-72177925D01*
X125963205Y-72181192D01*
X125968098Y-72183766D01*
X125968099Y-72183767D01*
X126195142Y-72303221D01*
X126195147Y-72303223D01*
X126200039Y-72305797D01*
X126205260Y-72307620D01*
X126205264Y-72307622D01*
X126306421Y-72342947D01*
X126452690Y-72394026D01*
X126518669Y-72406553D01*
X126710178Y-72442913D01*
X126710185Y-72442914D01*
X126715606Y-72443943D01*
X126721127Y-72444160D01*
X126721128Y-72444160D01*
X126977488Y-72454232D01*
X126977489Y-72454232D01*
X126983013Y-72454449D01*
X126988509Y-72453847D01*
X126988511Y-72453847D01*
X127243532Y-72425918D01*
X127243536Y-72425917D01*
X127249035Y-72425315D01*
X127254380Y-72423908D01*
X127254384Y-72423907D01*
X127502490Y-72358586D01*
X127502494Y-72358584D01*
X127507829Y-72357180D01*
X127753710Y-72251542D01*
X127981275Y-72110720D01*
X127985496Y-72107147D01*
X128181305Y-71941383D01*
X128181310Y-71941378D01*
X128185526Y-71937809D01*
X128238976Y-71876861D01*
X128303106Y-71834011D01*
X128380069Y-71828967D01*
X128449243Y-71863080D01*
X128492093Y-71927210D01*
X128500000Y-71975104D01*
X128500000Y-74769515D01*
X128480038Y-74844015D01*
X128425500Y-74898553D01*
X128351000Y-74918515D01*
X128276500Y-74898553D01*
X128248908Y-74878042D01*
X128060299Y-74700616D01*
X128056269Y-74696825D01*
X128051731Y-74693677D01*
X128051725Y-74693672D01*
X127895137Y-74585044D01*
X127836385Y-74544286D01*
X127724393Y-74489057D01*
X127601328Y-74428368D01*
X127601322Y-74428366D01*
X127596371Y-74425924D01*
X127591112Y-74424240D01*
X127591108Y-74424239D01*
X127346764Y-74346024D01*
X127341497Y-74344338D01*
X127336047Y-74343450D01*
X127336041Y-74343449D01*
X127082811Y-74302209D01*
X127082810Y-74302209D01*
X127077364Y-74301322D01*
X126956144Y-74299735D01*
X126815302Y-74297891D01*
X126815297Y-74297891D01*
X126809774Y-74297819D01*
X126804302Y-74298564D01*
X126804297Y-74298564D01*
X126588491Y-74327934D01*
X126544605Y-74333907D01*
X126539301Y-74335453D01*
X126539296Y-74335454D01*
X126292985Y-74407246D01*
X126292977Y-74407249D01*
X126287683Y-74408792D01*
X126044652Y-74520831D01*
X126004062Y-74547443D01*
X125825481Y-74664526D01*
X125825477Y-74664529D01*
X125820851Y-74667562D01*
X125621197Y-74845760D01*
X125450075Y-75051512D01*
X125410653Y-75116477D01*
X125314113Y-75275569D01*
X125314110Y-75275576D01*
X125311244Y-75280298D01*
X125309107Y-75285394D01*
X125309105Y-75285398D01*
X125209893Y-75521992D01*
X125207755Y-75527091D01*
X125206395Y-75532446D01*
X125206393Y-75532452D01*
X125143242Y-75781110D01*
X125141881Y-75786470D01*
X125141327Y-75791970D01*
X125141327Y-75791971D01*
X125127287Y-75931410D01*
X125115070Y-76052736D01*
X125119233Y-76139410D01*
X125127087Y-76302921D01*
X125127909Y-76320041D01*
X125128988Y-76325463D01*
X125128988Y-76325467D01*
X125155686Y-76459685D01*
X125180118Y-76582512D01*
X125181983Y-76587707D01*
X125181984Y-76587710D01*
X125244055Y-76760590D01*
X125270549Y-76834383D01*
X125273164Y-76839250D01*
X125273165Y-76839252D01*
X125379053Y-77036319D01*
X125397215Y-77070121D01*
X125505826Y-77215568D01*
X125524656Y-77240784D01*
X125557335Y-77284547D01*
X125747390Y-77472950D01*
X125751843Y-77476215D01*
X125751850Y-77476221D01*
X125958743Y-77627921D01*
X125958749Y-77627925D01*
X125963205Y-77631192D01*
X125968098Y-77633766D01*
X125968099Y-77633767D01*
X126195142Y-77753221D01*
X126195147Y-77753223D01*
X126200039Y-77755797D01*
X126205260Y-77757620D01*
X126205264Y-77757622D01*
X126306421Y-77792947D01*
X126452690Y-77844026D01*
X126518669Y-77856553D01*
X126710178Y-77892913D01*
X126710185Y-77892914D01*
X126715606Y-77893943D01*
X126721127Y-77894160D01*
X126721128Y-77894160D01*
X126977488Y-77904232D01*
X126977489Y-77904232D01*
X126983013Y-77904449D01*
X126988509Y-77903847D01*
X126988511Y-77903847D01*
X127243532Y-77875918D01*
X127243536Y-77875917D01*
X127249035Y-77875315D01*
X127254380Y-77873908D01*
X127254384Y-77873907D01*
X127502490Y-77808586D01*
X127502494Y-77808584D01*
X127507829Y-77807180D01*
X127753710Y-77701542D01*
X127818710Y-77661319D01*
X127976571Y-77563631D01*
X127976572Y-77563631D01*
X127981275Y-77560720D01*
X128049124Y-77503282D01*
X128181305Y-77391383D01*
X128181310Y-77391378D01*
X128185526Y-77387809D01*
X128238976Y-77326861D01*
X128303106Y-77284011D01*
X128380069Y-77278967D01*
X128449243Y-77313080D01*
X128492093Y-77377210D01*
X128500000Y-77425104D01*
X128500000Y-80219515D01*
X128480038Y-80294015D01*
X128425500Y-80348553D01*
X128351000Y-80368515D01*
X128276500Y-80348553D01*
X128248908Y-80328042D01*
X128060299Y-80150616D01*
X128056269Y-80146825D01*
X128051731Y-80143677D01*
X128051725Y-80143672D01*
X127885390Y-80028282D01*
X127836385Y-79994286D01*
X127666667Y-79910590D01*
X127601328Y-79878368D01*
X127601322Y-79878366D01*
X127596371Y-79875924D01*
X127591112Y-79874240D01*
X127591108Y-79874239D01*
X127346764Y-79796024D01*
X127341497Y-79794338D01*
X127336047Y-79793450D01*
X127336041Y-79793449D01*
X127082811Y-79752209D01*
X127082810Y-79752209D01*
X127077364Y-79751322D01*
X126956144Y-79749735D01*
X126815302Y-79747891D01*
X126815297Y-79747891D01*
X126809774Y-79747819D01*
X126804302Y-79748564D01*
X126804297Y-79748564D01*
X126588491Y-79777934D01*
X126544605Y-79783907D01*
X126539301Y-79785453D01*
X126539296Y-79785454D01*
X126292985Y-79857246D01*
X126292977Y-79857249D01*
X126287683Y-79858792D01*
X126044652Y-79970831D01*
X126004062Y-79997443D01*
X125825481Y-80114526D01*
X125825477Y-80114529D01*
X125820851Y-80117562D01*
X125621197Y-80295760D01*
X125450075Y-80501512D01*
X125410653Y-80566477D01*
X125314113Y-80725569D01*
X125314110Y-80725576D01*
X125311244Y-80730298D01*
X125207755Y-80977091D01*
X125141881Y-81236470D01*
X125115070Y-81502736D01*
X111600000Y-81502736D01*
X111600000Y-79600000D01*
X119994318Y-79600000D01*
X120014956Y-79756762D01*
X120018693Y-79765784D01*
X120064315Y-79875924D01*
X120075464Y-79902841D01*
X120171718Y-80028282D01*
X120297159Y-80124536D01*
X120306182Y-80128274D01*
X120306183Y-80128274D01*
X120434216Y-80181307D01*
X120443238Y-80185044D01*
X120452919Y-80186319D01*
X120452921Y-80186319D01*
X120590315Y-80204407D01*
X120600000Y-80205682D01*
X120609685Y-80204407D01*
X120747079Y-80186319D01*
X120747081Y-80186319D01*
X120756762Y-80185044D01*
X120765784Y-80181307D01*
X120893817Y-80128274D01*
X120893818Y-80128274D01*
X120902841Y-80124536D01*
X121028282Y-80028282D01*
X121124536Y-79902841D01*
X121135686Y-79875924D01*
X121181307Y-79765784D01*
X121185044Y-79756762D01*
X121205682Y-79600000D01*
X121185044Y-79443238D01*
X121124536Y-79297159D01*
X121028282Y-79171718D01*
X120902841Y-79075464D01*
X120756762Y-79014956D01*
X120747081Y-79013681D01*
X120747079Y-79013681D01*
X120609685Y-78995593D01*
X120600000Y-78994318D01*
X120590315Y-78995593D01*
X120452921Y-79013681D01*
X120452919Y-79013681D01*
X120443238Y-79014956D01*
X120297159Y-79075464D01*
X120171718Y-79171718D01*
X120075464Y-79297159D01*
X120014956Y-79443238D01*
X119994318Y-79600000D01*
X111600000Y-79600000D01*
X111600000Y-77075000D01*
X119244318Y-77075000D01*
X119264956Y-77231762D01*
X119325464Y-77377841D01*
X119421718Y-77503282D01*
X119547159Y-77599536D01*
X119693238Y-77660044D01*
X119702919Y-77661319D01*
X119702921Y-77661319D01*
X119840315Y-77679407D01*
X119850000Y-77680682D01*
X119859685Y-77679407D01*
X119997079Y-77661319D01*
X119997081Y-77661319D01*
X120006762Y-77660044D01*
X120152841Y-77599536D01*
X120278282Y-77503282D01*
X120374536Y-77377841D01*
X120435044Y-77231762D01*
X120455682Y-77075000D01*
X120435044Y-76918238D01*
X120374536Y-76772159D01*
X120278282Y-76646718D01*
X120152841Y-76550464D01*
X120006762Y-76489956D01*
X119997081Y-76488681D01*
X119997079Y-76488681D01*
X119859685Y-76470593D01*
X119850000Y-76469318D01*
X119840315Y-76470593D01*
X119702921Y-76488681D01*
X119702919Y-76488681D01*
X119693238Y-76489956D01*
X119547159Y-76550464D01*
X119421718Y-76646718D01*
X119325464Y-76772159D01*
X119264956Y-76918238D01*
X119244318Y-77075000D01*
X111600000Y-77075000D01*
X111600000Y-76450000D01*
X113394318Y-76450000D01*
X113395593Y-76459685D01*
X113411051Y-76577097D01*
X113414956Y-76606762D01*
X113475464Y-76752841D01*
X113571718Y-76878282D01*
X113697159Y-76974536D01*
X113843238Y-77035044D01*
X113852919Y-77036319D01*
X113852921Y-77036319D01*
X113990315Y-77054407D01*
X114000000Y-77055682D01*
X114009685Y-77054407D01*
X114147079Y-77036319D01*
X114147081Y-77036319D01*
X114156762Y-77035044D01*
X114302841Y-76974536D01*
X114428282Y-76878282D01*
X114524536Y-76752841D01*
X114585044Y-76606762D01*
X114588950Y-76577097D01*
X114604407Y-76459685D01*
X114605682Y-76450000D01*
X114585044Y-76293238D01*
X114524536Y-76147159D01*
X114428282Y-76021718D01*
X114302841Y-75925464D01*
X114231789Y-75896033D01*
X114165784Y-75868693D01*
X114156762Y-75864956D01*
X114147081Y-75863681D01*
X114147079Y-75863681D01*
X114009685Y-75845593D01*
X114000000Y-75844318D01*
X113990315Y-75845593D01*
X113852921Y-75863681D01*
X113852919Y-75863681D01*
X113843238Y-75864956D01*
X113834216Y-75868693D01*
X113768212Y-75896033D01*
X113697159Y-75925464D01*
X113571718Y-76021718D01*
X113475464Y-76147159D01*
X113414956Y-76293238D01*
X113394318Y-76450000D01*
X111600000Y-76450000D01*
X111600000Y-75475500D01*
X119319318Y-75475500D01*
X119339956Y-75632262D01*
X119400464Y-75778341D01*
X119496718Y-75903782D01*
X119622159Y-76000036D01*
X119631182Y-76003774D01*
X119631183Y-76003774D01*
X119736095Y-76047230D01*
X119768238Y-76060544D01*
X119777919Y-76061819D01*
X119777921Y-76061819D01*
X119915315Y-76079907D01*
X119925000Y-76081182D01*
X119934685Y-76079907D01*
X120072079Y-76061819D01*
X120072081Y-76061819D01*
X120081762Y-76060544D01*
X120113905Y-76047230D01*
X120218817Y-76003774D01*
X120218818Y-76003774D01*
X120227841Y-76000036D01*
X120353282Y-75903782D01*
X120449536Y-75778341D01*
X120510044Y-75632262D01*
X120530682Y-75475500D01*
X120510044Y-75318738D01*
X120449536Y-75172659D01*
X120353282Y-75047218D01*
X120227841Y-74950964D01*
X120149503Y-74918515D01*
X120090784Y-74894193D01*
X120081762Y-74890456D01*
X120072081Y-74889181D01*
X120072079Y-74889181D01*
X119934685Y-74871093D01*
X119925000Y-74869818D01*
X119915315Y-74871093D01*
X119777921Y-74889181D01*
X119777919Y-74889181D01*
X119768238Y-74890456D01*
X119759216Y-74894193D01*
X119700498Y-74918515D01*
X119622159Y-74950964D01*
X119496718Y-75047218D01*
X119400464Y-75172659D01*
X119339956Y-75318738D01*
X119319318Y-75475500D01*
X111600000Y-75475500D01*
X111600000Y-74000000D01*
X122894318Y-74000000D01*
X122914956Y-74156762D01*
X122975464Y-74302841D01*
X123071718Y-74428282D01*
X123197159Y-74524536D01*
X123206182Y-74528274D01*
X123206183Y-74528274D01*
X123252461Y-74547443D01*
X123343238Y-74585044D01*
X123352919Y-74586319D01*
X123352921Y-74586319D01*
X123490315Y-74604407D01*
X123500000Y-74605682D01*
X123509685Y-74604407D01*
X123647079Y-74586319D01*
X123647081Y-74586319D01*
X123656762Y-74585044D01*
X123747539Y-74547443D01*
X123793817Y-74528274D01*
X123793818Y-74528274D01*
X123802841Y-74524536D01*
X123928282Y-74428282D01*
X124024536Y-74302841D01*
X124085044Y-74156762D01*
X124105682Y-74000000D01*
X124085044Y-73843238D01*
X124024536Y-73697159D01*
X123928282Y-73571718D01*
X123802841Y-73475464D01*
X123656762Y-73414956D01*
X123647081Y-73413681D01*
X123647079Y-73413681D01*
X123509685Y-73395593D01*
X123500000Y-73394318D01*
X123490315Y-73395593D01*
X123352921Y-73413681D01*
X123352919Y-73413681D01*
X123343238Y-73414956D01*
X123197159Y-73475464D01*
X123071718Y-73571718D01*
X122975464Y-73697159D01*
X122914956Y-73843238D01*
X122894318Y-74000000D01*
X111600000Y-74000000D01*
X111600000Y-72050000D01*
X112650000Y-71000000D01*
X113350000Y-71000000D01*
X113350000Y-69050000D01*
X115006818Y-69050000D01*
X115027456Y-69206762D01*
X115031193Y-69215784D01*
X115031930Y-69217562D01*
X115087964Y-69352841D01*
X115184218Y-69478282D01*
X115309659Y-69574536D01*
X115455738Y-69635044D01*
X115465419Y-69636319D01*
X115465421Y-69636319D01*
X115602815Y-69654407D01*
X115612500Y-69655682D01*
X115622185Y-69654407D01*
X115759579Y-69636319D01*
X115759581Y-69636319D01*
X115769262Y-69635044D01*
X115915341Y-69574536D01*
X116040782Y-69478282D01*
X116137036Y-69352841D01*
X116193071Y-69217562D01*
X116193807Y-69215784D01*
X116197544Y-69206762D01*
X116218182Y-69050000D01*
X116197544Y-68893238D01*
X116137036Y-68747159D01*
X116040782Y-68621718D01*
X115915341Y-68525464D01*
X115769262Y-68464956D01*
X115759581Y-68463681D01*
X115759579Y-68463681D01*
X115622185Y-68445593D01*
X115612500Y-68444318D01*
X115602815Y-68445593D01*
X115465421Y-68463681D01*
X115465419Y-68463681D01*
X115455738Y-68464956D01*
X115309659Y-68525464D01*
X115184218Y-68621718D01*
X115087964Y-68747159D01*
X115027456Y-68893238D01*
X115006818Y-69050000D01*
X113350000Y-69050000D01*
X113350000Y-68350000D01*
X114850000Y-66850000D01*
X116100000Y-66850000D01*
X116800000Y-66150000D01*
X116800000Y-56000000D01*
X114000000Y-53200000D01*
X109500000Y-53200000D01*
X109500000Y-52649000D01*
X109519962Y-52574500D01*
X109574500Y-52519962D01*
X109649000Y-52500000D01*
X121901724Y-52500000D01*
X121976224Y-52519962D01*
G37*
%TD.AperFunction*%
%TA.AperFunction,Conductor*%
G36*
X101000000Y-130500000D02*
G01*
X100649000Y-130500000D01*
X100574500Y-130480038D01*
X100519962Y-130425500D01*
X100500000Y-130351000D01*
X100500000Y-59649000D01*
X100519962Y-59574500D01*
X100574500Y-59519962D01*
X100649000Y-59500000D01*
X101000000Y-59500000D01*
X101000000Y-130500000D01*
G37*
%TD.AperFunction*%
%TD*%
M02*
