%TF.GenerationSoftware,KiCad,Pcbnew,(6.0.1-0)*%
%TF.CreationDate,2024-02-14T13:59:27+01:00*%
%TF.ProjectId,dcload-power-board,64636c6f-6164-42d7-906f-7765722d626f,rev?*%
%TF.SameCoordinates,Original*%
%TF.FileFunction,Legend,Top*%
%TF.FilePolarity,Positive*%
%FSLAX46Y46*%
G04 Gerber Fmt 4.6, Leading zero omitted, Abs format (unit mm)*
G04 Created by KiCad (PCBNEW (6.0.1-0)) date 2024-02-14 13:59:27*
%MOMM*%
%LPD*%
G01*
G04 APERTURE LIST*
%ADD10C,0.150000*%
%ADD11C,0.100000*%
%ADD12C,0.200000*%
%ADD13C,0.120000*%
G04 APERTURE END LIST*
D10*
X172000000Y-125000000D02*
G75*
G03*
X172000000Y-125000000I-3000000J0D01*
G01*
X119000000Y-95000000D02*
G75*
G03*
X119000000Y-95000000I-3000000J0D01*
G01*
X172000000Y-65000000D02*
G75*
G03*
X172000000Y-65000000I-3000000J0D01*
G01*
X160000000Y-55383214D02*
X159952380Y-55478452D01*
X159952380Y-55621309D01*
X160000000Y-55764166D01*
X160095238Y-55859404D01*
X160190476Y-55907023D01*
X160380952Y-55954642D01*
X160523809Y-55954642D01*
X160714285Y-55907023D01*
X160809523Y-55859404D01*
X160904761Y-55764166D01*
X160952380Y-55621309D01*
X160952380Y-55526071D01*
X160904761Y-55383214D01*
X160857142Y-55335595D01*
X160523809Y-55335595D01*
X160523809Y-55526071D01*
X160952380Y-54907023D02*
X159952380Y-54907023D01*
X160952380Y-54335595D01*
X159952380Y-54335595D01*
X160952380Y-53859404D02*
X159952380Y-53859404D01*
X159952380Y-53621309D01*
X160000000Y-53478452D01*
X160095238Y-53383214D01*
X160190476Y-53335595D01*
X160380952Y-53287976D01*
X160523809Y-53287976D01*
X160714285Y-53335595D01*
X160809523Y-53383214D01*
X160904761Y-53478452D01*
X160952380Y-53621309D01*
X160952380Y-53859404D01*
X147250000Y-136140595D02*
X147202380Y-136235833D01*
X147202380Y-136378690D01*
X147250000Y-136521547D01*
X147345238Y-136616785D01*
X147440476Y-136664404D01*
X147630952Y-136712023D01*
X147773809Y-136712023D01*
X147964285Y-136664404D01*
X148059523Y-136616785D01*
X148154761Y-136521547D01*
X148202380Y-136378690D01*
X148202380Y-136283452D01*
X148154761Y-136140595D01*
X148107142Y-136092976D01*
X147773809Y-136092976D01*
X147773809Y-136283452D01*
X148202380Y-135664404D02*
X147202380Y-135664404D01*
X148202380Y-135092976D01*
X147202380Y-135092976D01*
X148202380Y-134616785D02*
X147202380Y-134616785D01*
X147202380Y-134378690D01*
X147250000Y-134235833D01*
X147345238Y-134140595D01*
X147440476Y-134092976D01*
X147630952Y-134045357D01*
X147773809Y-134045357D01*
X147964285Y-134092976D01*
X148059523Y-134140595D01*
X148154761Y-134235833D01*
X148202380Y-134378690D01*
X148202380Y-134616785D01*
X153452380Y-136664404D02*
X152452380Y-136664404D01*
X152547619Y-136235833D02*
X152500000Y-136188214D01*
X152452380Y-136092976D01*
X152452380Y-135854880D01*
X152500000Y-135759642D01*
X152547619Y-135712023D01*
X152642857Y-135664404D01*
X152738095Y-135664404D01*
X152880952Y-135712023D01*
X153452380Y-136283452D01*
X153452380Y-135664404D01*
D11*
X127414285Y-90721428D02*
X127414285Y-90121428D01*
X127671428Y-90692857D02*
X127757142Y-90721428D01*
X127900000Y-90721428D01*
X127957142Y-90692857D01*
X127985714Y-90664285D01*
X128014285Y-90607142D01*
X128014285Y-90550000D01*
X127985714Y-90492857D01*
X127957142Y-90464285D01*
X127900000Y-90435714D01*
X127785714Y-90407142D01*
X127728571Y-90378571D01*
X127700000Y-90350000D01*
X127671428Y-90292857D01*
X127671428Y-90235714D01*
X127700000Y-90178571D01*
X127728571Y-90150000D01*
X127785714Y-90121428D01*
X127928571Y-90121428D01*
X128014285Y-90150000D01*
X128271428Y-90407142D02*
X128471428Y-90407142D01*
X128557142Y-90721428D02*
X128271428Y-90721428D01*
X128271428Y-90121428D01*
X128557142Y-90121428D01*
X128728571Y-90121428D02*
X129071428Y-90121428D01*
X128900000Y-90721428D02*
X128900000Y-90121428D01*
D10*
X155952380Y-136664404D02*
X154952380Y-136664404D01*
X155904761Y-136235833D02*
X155952380Y-136092976D01*
X155952380Y-135854880D01*
X155904761Y-135759642D01*
X155857142Y-135712023D01*
X155761904Y-135664404D01*
X155666666Y-135664404D01*
X155571428Y-135712023D01*
X155523809Y-135759642D01*
X155476190Y-135854880D01*
X155428571Y-136045357D01*
X155380952Y-136140595D01*
X155333333Y-136188214D01*
X155238095Y-136235833D01*
X155142857Y-136235833D01*
X155047619Y-136188214D01*
X155000000Y-136140595D01*
X154952380Y-136045357D01*
X154952380Y-135807261D01*
X155000000Y-135664404D01*
X155428571Y-135235833D02*
X155428571Y-134902500D01*
X155952380Y-134759642D02*
X155952380Y-135235833D01*
X154952380Y-135235833D01*
X154952380Y-134759642D01*
X154952380Y-134473928D02*
X154952380Y-133902500D01*
X155952380Y-134188214D02*
X154952380Y-134188214D01*
X163452380Y-136664404D02*
X162452380Y-136664404D01*
X163452380Y-136092976D01*
X162452380Y-136092976D01*
X162452380Y-135759642D02*
X162452380Y-135188214D01*
X163452380Y-135473928D02*
X162452380Y-135473928D01*
X163357142Y-134283452D02*
X163404761Y-134331071D01*
X163452380Y-134473928D01*
X163452380Y-134569166D01*
X163404761Y-134712023D01*
X163309523Y-134807261D01*
X163214285Y-134854880D01*
X163023809Y-134902500D01*
X162880952Y-134902500D01*
X162690476Y-134854880D01*
X162595238Y-134807261D01*
X162500000Y-134712023D01*
X162452380Y-134569166D01*
X162452380Y-134473928D01*
X162500000Y-134331071D01*
X162547619Y-134283452D01*
D11*
X119387857Y-102557142D02*
X119587857Y-102557142D01*
X119673571Y-102871428D02*
X119387857Y-102871428D01*
X119387857Y-102271428D01*
X119673571Y-102271428D01*
X119902142Y-102700000D02*
X120187857Y-102700000D01*
X119845000Y-102871428D02*
X120045000Y-102271428D01*
X120245000Y-102871428D01*
D10*
X157928571Y-136664404D02*
X157928571Y-136331071D01*
X158452380Y-136188214D02*
X158452380Y-136664404D01*
X157452380Y-136664404D01*
X157452380Y-136188214D01*
X158452380Y-135759642D02*
X157452380Y-135759642D01*
X158452380Y-135188214D01*
X157452380Y-135188214D01*
D11*
X126607857Y-116657142D02*
X126407857Y-116657142D01*
X126407857Y-116971428D02*
X126407857Y-116371428D01*
X126693571Y-116371428D01*
X127122142Y-116657142D02*
X127207857Y-116685714D01*
X127236428Y-116714285D01*
X127265000Y-116771428D01*
X127265000Y-116857142D01*
X127236428Y-116914285D01*
X127207857Y-116942857D01*
X127150714Y-116971428D01*
X126922142Y-116971428D01*
X126922142Y-116371428D01*
X127122142Y-116371428D01*
X127179285Y-116400000D01*
X127207857Y-116428571D01*
X127236428Y-116485714D01*
X127236428Y-116542857D01*
X127207857Y-116600000D01*
X127179285Y-116628571D01*
X127122142Y-116657142D01*
X126922142Y-116657142D01*
D10*
X127678571Y-84071428D02*
X127678571Y-84928571D01*
X127678571Y-84500000D02*
X126178571Y-84500000D01*
X126392857Y-84642857D01*
X126535714Y-84785714D01*
X126607142Y-84928571D01*
X160000000Y-136140595D02*
X159952380Y-136235833D01*
X159952380Y-136378690D01*
X160000000Y-136521547D01*
X160095238Y-136616785D01*
X160190476Y-136664404D01*
X160380952Y-136712023D01*
X160523809Y-136712023D01*
X160714285Y-136664404D01*
X160809523Y-136616785D01*
X160904761Y-136521547D01*
X160952380Y-136378690D01*
X160952380Y-136283452D01*
X160904761Y-136140595D01*
X160857142Y-136092976D01*
X160523809Y-136092976D01*
X160523809Y-136283452D01*
X160952380Y-135664404D02*
X159952380Y-135664404D01*
X160952380Y-135092976D01*
X159952380Y-135092976D01*
X160952380Y-134616785D02*
X159952380Y-134616785D01*
X159952380Y-134378690D01*
X160000000Y-134235833D01*
X160095238Y-134140595D01*
X160190476Y-134092976D01*
X160380952Y-134045357D01*
X160523809Y-134045357D01*
X160714285Y-134092976D01*
X160809523Y-134140595D01*
X160904761Y-134235833D01*
X160952380Y-134378690D01*
X160952380Y-134616785D01*
X155952380Y-55954642D02*
X154952380Y-55954642D01*
X155904761Y-55526071D02*
X155952380Y-55383214D01*
X155952380Y-55145119D01*
X155904761Y-55049880D01*
X155857142Y-55002261D01*
X155761904Y-54954642D01*
X155666666Y-54954642D01*
X155571428Y-55002261D01*
X155523809Y-55049880D01*
X155476190Y-55145119D01*
X155428571Y-55335595D01*
X155380952Y-55430833D01*
X155333333Y-55478452D01*
X155238095Y-55526071D01*
X155142857Y-55526071D01*
X155047619Y-55478452D01*
X155000000Y-55430833D01*
X154952380Y-55335595D01*
X154952380Y-55097500D01*
X155000000Y-54954642D01*
X155428571Y-54526071D02*
X155428571Y-54192738D01*
X155952380Y-54049880D02*
X155952380Y-54526071D01*
X154952380Y-54526071D01*
X154952380Y-54049880D01*
X154952380Y-53764166D02*
X154952380Y-53192738D01*
X155952380Y-53478452D02*
X154952380Y-53478452D01*
X153202380Y-54287976D02*
X152202380Y-54287976D01*
X152297619Y-53859404D02*
X152250000Y-53811785D01*
X152202380Y-53716547D01*
X152202380Y-53478452D01*
X152250000Y-53383214D01*
X152297619Y-53335595D01*
X152392857Y-53287976D01*
X152488095Y-53287976D01*
X152630952Y-53335595D01*
X153202380Y-53907023D01*
X153202380Y-53287976D01*
X150702380Y-54287976D02*
X149702380Y-54287976D01*
X150702380Y-53287976D02*
X150702380Y-53859404D01*
X150702380Y-53573690D02*
X149702380Y-53573690D01*
X149845238Y-53668928D01*
X149940476Y-53764166D01*
X149988095Y-53859404D01*
X163452380Y-55668928D02*
X162452380Y-55668928D01*
X163452380Y-55097500D01*
X162452380Y-55097500D01*
X162452380Y-54764166D02*
X162452380Y-54192738D01*
X163452380Y-54478452D02*
X162452380Y-54478452D01*
X163357142Y-53287976D02*
X163404761Y-53335595D01*
X163452380Y-53478452D01*
X163452380Y-53573690D01*
X163404761Y-53716547D01*
X163309523Y-53811785D01*
X163214285Y-53859404D01*
X163023809Y-53907023D01*
X162880952Y-53907023D01*
X162690476Y-53859404D01*
X162595238Y-53811785D01*
X162500000Y-53716547D01*
X162452380Y-53573690D01*
X162452380Y-53478452D01*
X162500000Y-53335595D01*
X162547619Y-53287976D01*
X126321428Y-123928571D02*
X126250000Y-123857142D01*
X126178571Y-123714285D01*
X126178571Y-123357142D01*
X126250000Y-123214285D01*
X126321428Y-123142857D01*
X126464285Y-123071428D01*
X126607142Y-123071428D01*
X126821428Y-123142857D01*
X127678571Y-124000000D01*
X127678571Y-123071428D01*
X145702380Y-136140595D02*
X145702380Y-136712023D01*
X145702380Y-136426309D02*
X144702380Y-136426309D01*
X144845238Y-136521547D01*
X144940476Y-136616785D01*
X144988095Y-136712023D01*
X144797619Y-135759642D02*
X144750000Y-135712023D01*
X144702380Y-135616785D01*
X144702380Y-135378690D01*
X144750000Y-135283452D01*
X144797619Y-135235833D01*
X144892857Y-135188214D01*
X144988095Y-135188214D01*
X145130952Y-135235833D01*
X145702380Y-135807261D01*
X145702380Y-135188214D01*
X144702380Y-134902500D02*
X145702380Y-134569166D01*
X144702380Y-134235833D01*
D12*
X113107142Y-60607142D02*
X114250000Y-60607142D01*
X116107142Y-61178571D02*
X116107142Y-59678571D01*
X116821428Y-61178571D02*
X116821428Y-59678571D01*
X117678571Y-61178571D01*
X117678571Y-59678571D01*
X118392857Y-61178571D02*
X118392857Y-59678571D01*
X118964285Y-59678571D01*
X119107142Y-59750000D01*
X119178571Y-59821428D01*
X119250000Y-59964285D01*
X119250000Y-60178571D01*
X119178571Y-60321428D01*
X119107142Y-60392857D01*
X118964285Y-60464285D01*
X118392857Y-60464285D01*
X119892857Y-59678571D02*
X119892857Y-60892857D01*
X119964285Y-61035714D01*
X120035714Y-61107142D01*
X120178571Y-61178571D01*
X120464285Y-61178571D01*
X120607142Y-61107142D01*
X120678571Y-61035714D01*
X120750000Y-60892857D01*
X120750000Y-59678571D01*
X121250000Y-59678571D02*
X122107142Y-59678571D01*
X121678571Y-61178571D02*
X121678571Y-59678571D01*
X123750000Y-60607142D02*
X124892857Y-60607142D01*
X124321428Y-61178571D02*
X124321428Y-60035714D01*
D10*
X150952380Y-136664404D02*
X149952380Y-136664404D01*
X150952380Y-135664404D02*
X150952380Y-136235833D01*
X150952380Y-135950119D02*
X149952380Y-135950119D01*
X150095238Y-136045357D01*
X150190476Y-136140595D01*
X150238095Y-136235833D01*
X157928571Y-54811785D02*
X157928571Y-54478452D01*
X158452380Y-54335595D02*
X158452380Y-54811785D01*
X157452380Y-54811785D01*
X157452380Y-54335595D01*
X158452380Y-53907023D02*
X157452380Y-53907023D01*
X158452380Y-53335595D01*
X157452380Y-53335595D01*
D11*
X119357857Y-64757142D02*
X119557857Y-64757142D01*
X119643571Y-65071428D02*
X119357857Y-65071428D01*
X119357857Y-64471428D01*
X119643571Y-64471428D01*
X119872142Y-64900000D02*
X120157857Y-64900000D01*
X119815000Y-65071428D02*
X120015000Y-64471428D01*
X120215000Y-65071428D01*
X119313571Y-98421428D02*
X119427857Y-98421428D01*
X119485000Y-98450000D01*
X119542142Y-98507142D01*
X119570714Y-98621428D01*
X119570714Y-98821428D01*
X119542142Y-98935714D01*
X119485000Y-98992857D01*
X119427857Y-99021428D01*
X119313571Y-99021428D01*
X119256428Y-98992857D01*
X119199285Y-98935714D01*
X119170714Y-98821428D01*
X119170714Y-98621428D01*
X119199285Y-98507142D01*
X119256428Y-98450000D01*
X119313571Y-98421428D01*
X120027857Y-98707142D02*
X119827857Y-98707142D01*
X119827857Y-99021428D02*
X119827857Y-98421428D01*
X120113571Y-98421428D01*
X120542142Y-98707142D02*
X120342142Y-98707142D01*
X120342142Y-99021428D02*
X120342142Y-98421428D01*
X120627857Y-98421428D01*
X120827857Y-98992857D02*
X120913571Y-99021428D01*
X121056428Y-99021428D01*
X121113571Y-98992857D01*
X121142142Y-98964285D01*
X121170714Y-98907142D01*
X121170714Y-98850000D01*
X121142142Y-98792857D01*
X121113571Y-98764285D01*
X121056428Y-98735714D01*
X120942142Y-98707142D01*
X120885000Y-98678571D01*
X120856428Y-98650000D01*
X120827857Y-98592857D01*
X120827857Y-98535714D01*
X120856428Y-98478571D01*
X120885000Y-98450000D01*
X120942142Y-98421428D01*
X121085000Y-98421428D01*
X121170714Y-98450000D01*
X121427857Y-98707142D02*
X121627857Y-98707142D01*
X121713571Y-99021428D02*
X121427857Y-99021428D01*
X121427857Y-98421428D01*
X121713571Y-98421428D01*
X121885000Y-98421428D02*
X122227857Y-98421428D01*
X122056428Y-99021428D02*
X122056428Y-98421428D01*
D10*
X145702380Y-55097500D02*
X145702380Y-55668928D01*
X145702380Y-55383214D02*
X144702380Y-55383214D01*
X144845238Y-55478452D01*
X144940476Y-55573690D01*
X144988095Y-55668928D01*
X144797619Y-54716547D02*
X144750000Y-54668928D01*
X144702380Y-54573690D01*
X144702380Y-54335595D01*
X144750000Y-54240357D01*
X144797619Y-54192738D01*
X144892857Y-54145119D01*
X144988095Y-54145119D01*
X145130952Y-54192738D01*
X145702380Y-54764166D01*
X145702380Y-54145119D01*
X144702380Y-53859404D02*
X145702380Y-53526071D01*
X144702380Y-53192738D01*
D11*
X126607857Y-78857142D02*
X126407857Y-78857142D01*
X126407857Y-79171428D02*
X126407857Y-78571428D01*
X126693571Y-78571428D01*
X127122142Y-78857142D02*
X127207857Y-78885714D01*
X127236428Y-78914285D01*
X127265000Y-78971428D01*
X127265000Y-79057142D01*
X127236428Y-79114285D01*
X127207857Y-79142857D01*
X127150714Y-79171428D01*
X126922142Y-79171428D01*
X126922142Y-78571428D01*
X127122142Y-78571428D01*
X127179285Y-78600000D01*
X127207857Y-78628571D01*
X127236428Y-78685714D01*
X127236428Y-78742857D01*
X127207857Y-78800000D01*
X127179285Y-78828571D01*
X127122142Y-78857142D01*
X126922142Y-78857142D01*
D10*
X147250000Y-55383214D02*
X147202380Y-55478452D01*
X147202380Y-55621309D01*
X147250000Y-55764166D01*
X147345238Y-55859404D01*
X147440476Y-55907023D01*
X147630952Y-55954642D01*
X147773809Y-55954642D01*
X147964285Y-55907023D01*
X148059523Y-55859404D01*
X148154761Y-55764166D01*
X148202380Y-55621309D01*
X148202380Y-55526071D01*
X148154761Y-55383214D01*
X148107142Y-55335595D01*
X147773809Y-55335595D01*
X147773809Y-55526071D01*
X148202380Y-54907023D02*
X147202380Y-54907023D01*
X148202380Y-54335595D01*
X147202380Y-54335595D01*
X148202380Y-53859404D02*
X147202380Y-53859404D01*
X147202380Y-53621309D01*
X147250000Y-53478452D01*
X147345238Y-53383214D01*
X147440476Y-53335595D01*
X147630952Y-53287976D01*
X147773809Y-53287976D01*
X147964285Y-53335595D01*
X148059523Y-53383214D01*
X148154761Y-53478452D01*
X148202380Y-53621309D01*
X148202380Y-53859404D01*
X103452380Y-121664404D02*
X102452380Y-121664404D01*
X102452380Y-121426309D01*
X102500000Y-121283452D01*
X102595238Y-121188214D01*
X102690476Y-121140595D01*
X102880952Y-121092976D01*
X103023809Y-121092976D01*
X103214285Y-121140595D01*
X103309523Y-121188214D01*
X103404761Y-121283452D01*
X103452380Y-121426309D01*
X103452380Y-121664404D01*
X103357142Y-120092976D02*
X103404761Y-120140595D01*
X103452380Y-120283452D01*
X103452380Y-120378690D01*
X103404761Y-120521547D01*
X103309523Y-120616785D01*
X103214285Y-120664404D01*
X103023809Y-120712023D01*
X102880952Y-120712023D01*
X102690476Y-120664404D01*
X102595238Y-120616785D01*
X102500000Y-120521547D01*
X102452380Y-120378690D01*
X102452380Y-120283452D01*
X102500000Y-120140595D01*
X102547619Y-120092976D01*
X103452380Y-118426309D02*
X103452380Y-118902500D01*
X102452380Y-118902500D01*
X103452380Y-117950119D02*
X103404761Y-118045357D01*
X103357142Y-118092976D01*
X103261904Y-118140595D01*
X102976190Y-118140595D01*
X102880952Y-118092976D01*
X102833333Y-118045357D01*
X102785714Y-117950119D01*
X102785714Y-117807261D01*
X102833333Y-117712023D01*
X102880952Y-117664404D01*
X102976190Y-117616785D01*
X103261904Y-117616785D01*
X103357142Y-117664404D01*
X103404761Y-117712023D01*
X103452380Y-117807261D01*
X103452380Y-117950119D01*
X103452380Y-116759642D02*
X102928571Y-116759642D01*
X102833333Y-116807261D01*
X102785714Y-116902500D01*
X102785714Y-117092976D01*
X102833333Y-117188214D01*
X103404761Y-116759642D02*
X103452380Y-116854880D01*
X103452380Y-117092976D01*
X103404761Y-117188214D01*
X103309523Y-117235833D01*
X103214285Y-117235833D01*
X103119047Y-117188214D01*
X103071428Y-117092976D01*
X103071428Y-116854880D01*
X103023809Y-116759642D01*
X103452380Y-115854880D02*
X102452380Y-115854880D01*
X103404761Y-115854880D02*
X103452380Y-115950119D01*
X103452380Y-116140595D01*
X103404761Y-116235833D01*
X103357142Y-116283452D01*
X103261904Y-116331071D01*
X102976190Y-116331071D01*
X102880952Y-116283452D01*
X102833333Y-116235833D01*
X102785714Y-116140595D01*
X102785714Y-115950119D01*
X102833333Y-115854880D01*
X103452380Y-114616785D02*
X102452380Y-114616785D01*
X102452380Y-114235833D01*
X102500000Y-114140595D01*
X102547619Y-114092976D01*
X102642857Y-114045357D01*
X102785714Y-114045357D01*
X102880952Y-114092976D01*
X102928571Y-114140595D01*
X102976190Y-114235833D01*
X102976190Y-114616785D01*
X103452380Y-113473928D02*
X103404761Y-113569166D01*
X103357142Y-113616785D01*
X103261904Y-113664404D01*
X102976190Y-113664404D01*
X102880952Y-113616785D01*
X102833333Y-113569166D01*
X102785714Y-113473928D01*
X102785714Y-113331071D01*
X102833333Y-113235833D01*
X102880952Y-113188214D01*
X102976190Y-113140595D01*
X103261904Y-113140595D01*
X103357142Y-113188214D01*
X103404761Y-113235833D01*
X103452380Y-113331071D01*
X103452380Y-113473928D01*
X102785714Y-112807261D02*
X103452380Y-112616785D01*
X102976190Y-112426309D01*
X103452380Y-112235833D01*
X102785714Y-112045357D01*
X103404761Y-111283452D02*
X103452380Y-111378690D01*
X103452380Y-111569166D01*
X103404761Y-111664404D01*
X103309523Y-111712023D01*
X102928571Y-111712023D01*
X102833333Y-111664404D01*
X102785714Y-111569166D01*
X102785714Y-111378690D01*
X102833333Y-111283452D01*
X102928571Y-111235833D01*
X103023809Y-111235833D01*
X103119047Y-111712023D01*
X103452380Y-110807261D02*
X102785714Y-110807261D01*
X102976190Y-110807261D02*
X102880952Y-110759642D01*
X102833333Y-110712023D01*
X102785714Y-110616785D01*
X102785714Y-110521547D01*
X103452380Y-109426309D02*
X102452380Y-109426309D01*
X103166666Y-109092976D01*
X102452380Y-108759642D01*
X103452380Y-108759642D01*
X103452380Y-108140595D02*
X103404761Y-108235833D01*
X103357142Y-108283452D01*
X103261904Y-108331071D01*
X102976190Y-108331071D01*
X102880952Y-108283452D01*
X102833333Y-108235833D01*
X102785714Y-108140595D01*
X102785714Y-107997738D01*
X102833333Y-107902500D01*
X102880952Y-107854880D01*
X102976190Y-107807261D01*
X103261904Y-107807261D01*
X103357142Y-107854880D01*
X103404761Y-107902500D01*
X103452380Y-107997738D01*
X103452380Y-108140595D01*
X103452380Y-106950119D02*
X102452380Y-106950119D01*
X103404761Y-106950119D02*
X103452380Y-107045357D01*
X103452380Y-107235833D01*
X103404761Y-107331071D01*
X103357142Y-107378690D01*
X103261904Y-107426309D01*
X102976190Y-107426309D01*
X102880952Y-107378690D01*
X102833333Y-107331071D01*
X102785714Y-107235833D01*
X102785714Y-107045357D01*
X102833333Y-106950119D01*
X102785714Y-106045357D02*
X103452380Y-106045357D01*
X102785714Y-106473928D02*
X103309523Y-106473928D01*
X103404761Y-106426309D01*
X103452380Y-106331071D01*
X103452380Y-106188214D01*
X103404761Y-106092976D01*
X103357142Y-106045357D01*
X103452380Y-105426309D02*
X103404761Y-105521547D01*
X103309523Y-105569166D01*
X102452380Y-105569166D01*
X103404761Y-104664404D02*
X103452380Y-104759642D01*
X103452380Y-104950119D01*
X103404761Y-105045357D01*
X103309523Y-105092976D01*
X102928571Y-105092976D01*
X102833333Y-105045357D01*
X102785714Y-104950119D01*
X102785714Y-104759642D01*
X102833333Y-104664404D01*
X102928571Y-104616785D01*
X103023809Y-104616785D01*
X103119047Y-105092976D01*
X105361904Y-121712023D02*
X104561904Y-121712023D01*
X105133333Y-121445357D01*
X104561904Y-121178690D01*
X105361904Y-121178690D01*
X105361904Y-120454880D02*
X104942857Y-120454880D01*
X104866666Y-120492976D01*
X104828571Y-120569166D01*
X104828571Y-120721547D01*
X104866666Y-120797738D01*
X105323809Y-120454880D02*
X105361904Y-120531071D01*
X105361904Y-120721547D01*
X105323809Y-120797738D01*
X105247619Y-120835833D01*
X105171428Y-120835833D01*
X105095238Y-120797738D01*
X105057142Y-120721547D01*
X105057142Y-120531071D01*
X105019047Y-120454880D01*
X105361904Y-120073928D02*
X104828571Y-120073928D01*
X104980952Y-120073928D02*
X104904761Y-120035833D01*
X104866666Y-119997738D01*
X104828571Y-119921547D01*
X104828571Y-119845357D01*
X104828571Y-119692976D02*
X104828571Y-119388214D01*
X104561904Y-119578690D02*
X105247619Y-119578690D01*
X105323809Y-119540595D01*
X105361904Y-119464404D01*
X105361904Y-119388214D01*
X105361904Y-119121547D02*
X104828571Y-119121547D01*
X104561904Y-119121547D02*
X104600000Y-119159642D01*
X104638095Y-119121547D01*
X104600000Y-119083452D01*
X104561904Y-119121547D01*
X104638095Y-119121547D01*
X104828571Y-118740595D02*
X105361904Y-118740595D01*
X104904761Y-118740595D02*
X104866666Y-118702500D01*
X104828571Y-118626309D01*
X104828571Y-118512023D01*
X104866666Y-118435833D01*
X104942857Y-118397738D01*
X105361904Y-118397738D01*
X105361904Y-117407261D02*
X104561904Y-117407261D01*
X105361904Y-116950119D02*
X104904761Y-117292976D01*
X104561904Y-116950119D02*
X105019047Y-117407261D01*
X105361904Y-116492976D02*
X105323809Y-116569166D01*
X105285714Y-116607261D01*
X105209523Y-116645357D01*
X104980952Y-116645357D01*
X104904761Y-116607261D01*
X104866666Y-116569166D01*
X104828571Y-116492976D01*
X104828571Y-116378690D01*
X104866666Y-116302500D01*
X104904761Y-116264404D01*
X104980952Y-116226309D01*
X105209523Y-116226309D01*
X105285714Y-116264404D01*
X105323809Y-116302500D01*
X105361904Y-116378690D01*
X105361904Y-116492976D01*
X104828571Y-115883452D02*
X105628571Y-115883452D01*
X104866666Y-115883452D02*
X104828571Y-115807261D01*
X104828571Y-115654880D01*
X104866666Y-115578690D01*
X104904761Y-115540595D01*
X104980952Y-115502500D01*
X105209523Y-115502500D01*
X105285714Y-115540595D01*
X105323809Y-115578690D01*
X105361904Y-115654880D01*
X105361904Y-115807261D01*
X105323809Y-115883452D01*
X105361904Y-115159642D02*
X104561904Y-115159642D01*
X105057142Y-115083452D02*
X105361904Y-114854880D01*
X104828571Y-114854880D02*
X105133333Y-115159642D01*
X105361904Y-114169166D02*
X104942857Y-114169166D01*
X104866666Y-114207261D01*
X104828571Y-114283452D01*
X104828571Y-114435833D01*
X104866666Y-114512023D01*
X105323809Y-114169166D02*
X105361904Y-114245357D01*
X105361904Y-114435833D01*
X105323809Y-114512023D01*
X105247619Y-114550119D01*
X105171428Y-114550119D01*
X105095238Y-114512023D01*
X105057142Y-114435833D01*
X105057142Y-114245357D01*
X105019047Y-114169166D01*
X104561904Y-113026309D02*
X104561904Y-112950119D01*
X104600000Y-112873928D01*
X104638095Y-112835833D01*
X104714285Y-112797738D01*
X104866666Y-112759642D01*
X105057142Y-112759642D01*
X105209523Y-112797738D01*
X105285714Y-112835833D01*
X105323809Y-112873928D01*
X105361904Y-112950119D01*
X105361904Y-113026309D01*
X105323809Y-113102500D01*
X105285714Y-113140595D01*
X105209523Y-113178690D01*
X105057142Y-113216785D01*
X104866666Y-113216785D01*
X104714285Y-113178690D01*
X104638095Y-113140595D01*
X104600000Y-113102500D01*
X104561904Y-113026309D01*
X105361904Y-111997738D02*
X105361904Y-112454880D01*
X105361904Y-112226309D02*
X104561904Y-112226309D01*
X104676190Y-112302500D01*
X104752380Y-112378690D01*
X104790476Y-112454880D01*
X104523809Y-111083452D02*
X105552380Y-111769166D01*
X104638095Y-110854880D02*
X104600000Y-110816785D01*
X104561904Y-110740595D01*
X104561904Y-110550119D01*
X104600000Y-110473928D01*
X104638095Y-110435833D01*
X104714285Y-110397738D01*
X104790476Y-110397738D01*
X104904761Y-110435833D01*
X105361904Y-110892976D01*
X105361904Y-110397738D01*
X104561904Y-109902500D02*
X104561904Y-109826309D01*
X104600000Y-109750119D01*
X104638095Y-109712023D01*
X104714285Y-109673928D01*
X104866666Y-109635833D01*
X105057142Y-109635833D01*
X105209523Y-109673928D01*
X105285714Y-109712023D01*
X105323809Y-109750119D01*
X105361904Y-109826309D01*
X105361904Y-109902500D01*
X105323809Y-109978690D01*
X105285714Y-110016785D01*
X105209523Y-110054880D01*
X105057142Y-110092976D01*
X104866666Y-110092976D01*
X104714285Y-110054880D01*
X104638095Y-110016785D01*
X104600000Y-109978690D01*
X104561904Y-109902500D01*
X104638095Y-109331071D02*
X104600000Y-109292976D01*
X104561904Y-109216785D01*
X104561904Y-109026309D01*
X104600000Y-108950119D01*
X104638095Y-108912023D01*
X104714285Y-108873928D01*
X104790476Y-108873928D01*
X104904761Y-108912023D01*
X105361904Y-109369166D01*
X105361904Y-108873928D01*
X104828571Y-108188214D02*
X105361904Y-108188214D01*
X104523809Y-108378690D02*
X105095238Y-108569166D01*
X105095238Y-108073928D01*
D12*
X124892857Y-129392857D02*
X123750000Y-129392857D01*
X124321428Y-128821428D02*
X124321428Y-129964285D01*
X121892857Y-128821428D02*
X121892857Y-130321428D01*
X121178571Y-128821428D02*
X121178571Y-130321428D01*
X120321428Y-128821428D01*
X120321428Y-130321428D01*
X119607142Y-128821428D02*
X119607142Y-130321428D01*
X119035714Y-130321428D01*
X118892857Y-130250000D01*
X118821428Y-130178571D01*
X118750000Y-130035714D01*
X118750000Y-129821428D01*
X118821428Y-129678571D01*
X118892857Y-129607142D01*
X119035714Y-129535714D01*
X119607142Y-129535714D01*
X118107142Y-130321428D02*
X118107142Y-129107142D01*
X118035714Y-128964285D01*
X117964285Y-128892857D01*
X117821428Y-128821428D01*
X117535714Y-128821428D01*
X117392857Y-128892857D01*
X117321428Y-128964285D01*
X117250000Y-129107142D01*
X117250000Y-130321428D01*
X116750000Y-130321428D02*
X115892857Y-130321428D01*
X116321428Y-128821428D02*
X116321428Y-130321428D01*
X114250000Y-129392857D02*
X113107142Y-129392857D01*
D13*
%TO.C,U200*%
X114275000Y-77600000D02*
X114275000Y-78300000D01*
X115375000Y-76900000D02*
X116075000Y-76900000D01*
X117175000Y-77650000D02*
X117175000Y-76900000D01*
X117175000Y-77650000D02*
X117175000Y-78300000D01*
X114275000Y-77600000D02*
X114275000Y-76900000D01*
X114735000Y-77900000D02*
G75*
G03*
X114735000Y-77900000I-60000J0D01*
G01*
%TO.C,R100*%
X122777500Y-96962742D02*
X122777500Y-97437258D01*
X123822500Y-96962742D02*
X123822500Y-97437258D01*
%TO.C,R306*%
X118862742Y-113122500D02*
X119337258Y-113122500D01*
X118862742Y-112077500D02*
X119337258Y-112077500D01*
%TO.C,R302*%
X125957500Y-104412742D02*
X125957500Y-104887258D01*
X127002500Y-104412742D02*
X127002500Y-104887258D01*
%TO.C,R308*%
X113227500Y-111562742D02*
X113227500Y-112037258D01*
X114272500Y-111562742D02*
X114272500Y-112037258D01*
%TO.C,R105*%
X126662742Y-98177500D02*
X127137258Y-98177500D01*
X126662742Y-99222500D02*
X127137258Y-99222500D01*
%TO.C,R201*%
X124722500Y-70212742D02*
X124722500Y-70687258D01*
X123677500Y-70212742D02*
X123677500Y-70687258D01*
%TO.C,TP100*%
X121700000Y-97200000D02*
G75*
G03*
X121700000Y-97200000I-700000J0D01*
G01*
%TO.C,R106*%
X130062742Y-99222500D02*
X130537258Y-99222500D01*
X130062742Y-98177500D02*
X130537258Y-98177500D01*
%TO.C,R200*%
X123172500Y-70212742D02*
X123172500Y-70687258D01*
X122127500Y-70212742D02*
X122127500Y-70687258D01*
%TO.C,U201*%
X121100000Y-78600000D02*
X121100000Y-76100000D01*
X124100000Y-78600000D02*
X124100000Y-76000000D01*
D10*
X123575000Y-76400000D02*
G75*
G03*
X123575000Y-76400000I-75000J0D01*
G01*
D13*
%TO.C,R311*%
X120407500Y-105087258D02*
X120407500Y-104612742D01*
X121452500Y-105087258D02*
X121452500Y-104612742D01*
%TO.C,TP301*%
X118880000Y-102600000D02*
G75*
G03*
X118880000Y-102600000I-700000J0D01*
G01*
%TO.C,C102*%
X138259420Y-95610000D02*
X138540580Y-95610000D01*
X138259420Y-94590000D02*
X138540580Y-94590000D01*
%TO.C,TP300*%
X125900000Y-116600000D02*
G75*
G03*
X125900000Y-116600000I-700000J0D01*
G01*
%TO.C,R210*%
X119337258Y-72677500D02*
X118862742Y-72677500D01*
X119337258Y-73722500D02*
X118862742Y-73722500D01*
%TO.C,C305*%
X116690000Y-108209420D02*
X116690000Y-108490580D01*
X117710000Y-108209420D02*
X117710000Y-108490580D01*
%TO.C,R202*%
X125927500Y-66612742D02*
X125927500Y-67087258D01*
X126972500Y-66612742D02*
X126972500Y-67087258D01*
%TO.C,D300*%
X118280000Y-106250000D02*
X118880000Y-106250000D01*
X118280000Y-105450000D02*
X118880000Y-105450000D01*
X117940000Y-106650000D02*
G75*
G03*
X117940000Y-106650000I-60000J0D01*
G01*
%TO.C,R305*%
X119337258Y-114722500D02*
X118862742Y-114722500D01*
X119337258Y-113677500D02*
X118862742Y-113677500D01*
%TO.C,C203*%
X116190580Y-74290000D02*
X115909420Y-74290000D01*
X116190580Y-75310000D02*
X115909420Y-75310000D01*
%TO.C,Q302*%
X125167500Y-104806250D02*
X125167500Y-105456250D01*
X122167500Y-104756250D02*
X122167500Y-105456250D01*
X122167500Y-104056250D02*
X123117500Y-104056250D01*
X125167500Y-104806250D02*
X125167500Y-104056250D01*
X122167500Y-104756250D02*
X122167500Y-104056250D01*
X124067500Y-105456250D02*
X123267500Y-105456250D01*
X125167500Y-104056250D02*
X124217500Y-104056250D01*
%TO.C,C302*%
X119240580Y-115290000D02*
X118959420Y-115290000D01*
X119240580Y-116310000D02*
X118959420Y-116310000D01*
%TO.C,R304*%
X123207064Y-127335000D02*
X118852936Y-127335000D01*
X123207064Y-123915000D02*
X118852936Y-123915000D01*
%TO.C,C100*%
X140590000Y-55238748D02*
X140590000Y-56661252D01*
X142410000Y-55238748D02*
X142410000Y-56661252D01*
%TO.C,C105*%
X126799420Y-96390000D02*
X127080580Y-96390000D01*
X126799420Y-97410000D02*
X127080580Y-97410000D01*
%TO.C,R211*%
X121422500Y-67287258D02*
X121422500Y-66812742D01*
X120377500Y-67287258D02*
X120377500Y-66812742D01*
%TO.C,C304*%
X116190580Y-110490000D02*
X115909420Y-110490000D01*
X116190580Y-111510000D02*
X115909420Y-111510000D01*
%TO.C,U301*%
X124130000Y-116400000D02*
X124130000Y-113800000D01*
X121130000Y-116400000D02*
X121130000Y-113900000D01*
D10*
X123605000Y-114200000D02*
G75*
G03*
X123605000Y-114200000I-75000J0D01*
G01*
D13*
%TO.C,C103*%
X134910000Y-92184420D02*
X134910000Y-92465580D01*
X133890000Y-92184420D02*
X133890000Y-92465580D01*
%TO.C,R307*%
X118862742Y-116877500D02*
X119337258Y-116877500D01*
X118862742Y-117922500D02*
X119337258Y-117922500D01*
%TO.C,C204*%
X116190580Y-72690000D02*
X115909420Y-72690000D01*
X116190580Y-73710000D02*
X115909420Y-73710000D01*
%TO.C,C300*%
X112590000Y-115240580D02*
X112590000Y-114959420D01*
X113610000Y-115240580D02*
X113610000Y-114959420D01*
%TO.C,TP200*%
X125900000Y-78800000D02*
G75*
G03*
X125900000Y-78800000I-700000J0D01*
G01*
%TO.C,R205*%
X119337258Y-76922500D02*
X118862742Y-76922500D01*
X119337258Y-75877500D02*
X118862742Y-75877500D01*
%TO.C,C301*%
X122489420Y-110490000D02*
X122770580Y-110490000D01*
X122489420Y-111510000D02*
X122770580Y-111510000D01*
%TO.C,U300*%
X114275000Y-115400000D02*
X114275000Y-116100000D01*
X114275000Y-115400000D02*
X114275000Y-114700000D01*
X117175000Y-115450000D02*
X117175000Y-116100000D01*
X115375000Y-114700000D02*
X116075000Y-114700000D01*
X117175000Y-115450000D02*
X117175000Y-114700000D01*
X114735000Y-115700000D02*
G75*
G03*
X114735000Y-115700000I-60000J0D01*
G01*
%TO.C,U103*%
X131370000Y-93720000D02*
X131370000Y-94420000D01*
X130620000Y-95520000D02*
X131370000Y-95520000D01*
X130620000Y-95520000D02*
X129970000Y-95520000D01*
X130670000Y-92620000D02*
X131370000Y-92620000D01*
X130670000Y-92620000D02*
X129970000Y-92620000D01*
X130430000Y-93020000D02*
G75*
G03*
X130430000Y-93020000I-60000J0D01*
G01*
%TO.C,R107*%
X158915000Y-94762258D02*
X158915000Y-94287742D01*
X159960000Y-94762258D02*
X159960000Y-94287742D01*
%TO.C,C104*%
X134859420Y-95610000D02*
X135140580Y-95610000D01*
X134859420Y-94590000D02*
X135140580Y-94590000D01*
%TO.C,R101*%
X123822500Y-93937258D02*
X123822500Y-93462742D01*
X122777500Y-93937258D02*
X122777500Y-93462742D01*
%TO.C,C106*%
X130859420Y-90890000D02*
X131140580Y-90890000D01*
X130859420Y-91910000D02*
X131140580Y-91910000D01*
%TO.C,R310*%
X119367258Y-110477500D02*
X118892742Y-110477500D01*
X119367258Y-111522500D02*
X118892742Y-111522500D01*
%TO.C,D201*%
X118850000Y-65997500D02*
X118250000Y-65997500D01*
X118850000Y-66797500D02*
X118250000Y-66797500D01*
X119310000Y-65597500D02*
G75*
G03*
X119310000Y-65597500I-60000J0D01*
G01*
%TO.C,G\u002A\u002A\u002A*%
G36*
X105728346Y-123184284D02*
G01*
X105729442Y-123212636D01*
X105730416Y-123257182D01*
X105731241Y-123315705D01*
X105731885Y-123385990D01*
X105732319Y-123465820D01*
X105732514Y-123552980D01*
X105732522Y-123574683D01*
X105732522Y-123975026D01*
X105559785Y-124091514D01*
X105506385Y-124127477D01*
X105442110Y-124170682D01*
X105368512Y-124220092D01*
X105287138Y-124274673D01*
X105199537Y-124333388D01*
X105107258Y-124395201D01*
X105011851Y-124459079D01*
X104914864Y-124523983D01*
X104817846Y-124588880D01*
X104722346Y-124652733D01*
X104629913Y-124714507D01*
X104542096Y-124773166D01*
X104460443Y-124827674D01*
X104386504Y-124876997D01*
X104321828Y-124920097D01*
X104267964Y-124955941D01*
X104226460Y-124983491D01*
X104198866Y-125001712D01*
X104186730Y-125009570D01*
X104186471Y-125009721D01*
X104176535Y-125018689D01*
X104182033Y-125031283D01*
X104185783Y-125035956D01*
X104198529Y-125048293D01*
X104224413Y-125071141D01*
X104260513Y-125102066D01*
X104303910Y-125138633D01*
X104351683Y-125178410D01*
X104400912Y-125218962D01*
X104448676Y-125257855D01*
X104492056Y-125292657D01*
X104522764Y-125316789D01*
X104579320Y-125360617D01*
X105031560Y-125360617D01*
X105126044Y-125360788D01*
X105213978Y-125361276D01*
X105293258Y-125362046D01*
X105361779Y-125363062D01*
X105417437Y-125364289D01*
X105458128Y-125365690D01*
X105481747Y-125367230D01*
X105486988Y-125368352D01*
X105487676Y-125380185D01*
X105488138Y-125410135D01*
X105488374Y-125455695D01*
X105488380Y-125514358D01*
X105488154Y-125583616D01*
X105487693Y-125660963D01*
X105487317Y-125708620D01*
X105484459Y-126041153D01*
X104432231Y-126043780D01*
X103380002Y-126046407D01*
X104422285Y-126464068D01*
X105464568Y-126881730D01*
X105461903Y-127108412D01*
X105459237Y-127335094D01*
X104415084Y-127751286D01*
X104224484Y-127827392D01*
X104053051Y-127896127D01*
X103900794Y-127957486D01*
X103767722Y-128011466D01*
X103653843Y-128058063D01*
X103559167Y-128097275D01*
X103483701Y-128129096D01*
X103427456Y-128153525D01*
X103390439Y-128170556D01*
X103372659Y-128180186D01*
X103370930Y-128182034D01*
X103373233Y-128184427D01*
X103380883Y-128186550D01*
X103394993Y-128188419D01*
X103416676Y-128190048D01*
X103447045Y-128191454D01*
X103487212Y-128192651D01*
X103538291Y-128193655D01*
X103601395Y-128194481D01*
X103677636Y-128195146D01*
X103768126Y-128195663D01*
X103873980Y-128196049D01*
X103996310Y-128196319D01*
X104136229Y-128196489D01*
X104294849Y-128196573D01*
X104422818Y-128196590D01*
X105474706Y-128196590D01*
X105474706Y-128856598D01*
X102257166Y-128856598D01*
X102257166Y-128013561D01*
X102687719Y-127836782D01*
X102776960Y-127800149D01*
X102882017Y-127757035D01*
X102999621Y-127708782D01*
X103126502Y-127656732D01*
X103259390Y-127602224D01*
X103395018Y-127546601D01*
X103530115Y-127491203D01*
X103661412Y-127437370D01*
X103767966Y-127393689D01*
X103913455Y-127333854D01*
X104040009Y-127281379D01*
X104147913Y-127236140D01*
X104237454Y-127198014D01*
X104308916Y-127166878D01*
X104362585Y-127142607D01*
X104398745Y-127125078D01*
X104417682Y-127114168D01*
X104420881Y-127110853D01*
X104414624Y-127094294D01*
X104395100Y-127079792D01*
X104381835Y-127074004D01*
X104350742Y-127060925D01*
X104303080Y-127041075D01*
X104240111Y-127014974D01*
X104163095Y-126983142D01*
X104073292Y-126946097D01*
X103971964Y-126904359D01*
X103860370Y-126858449D01*
X103739772Y-126808884D01*
X103611430Y-126756186D01*
X103476605Y-126700874D01*
X103336557Y-126643466D01*
X103311439Y-126633175D01*
X102256780Y-126201096D01*
X102258024Y-125360758D01*
X102971745Y-125358110D01*
X103110283Y-125357584D01*
X103229626Y-125357081D01*
X103331207Y-125356552D01*
X103416455Y-125355953D01*
X103486801Y-125355237D01*
X103543677Y-125354357D01*
X103588514Y-125353268D01*
X103622741Y-125351923D01*
X103647791Y-125350276D01*
X103665095Y-125348280D01*
X103676082Y-125345890D01*
X103682184Y-125343060D01*
X103684832Y-125339742D01*
X103685457Y-125335890D01*
X103685465Y-125335045D01*
X103676800Y-125318489D01*
X103650849Y-125290849D01*
X103607677Y-125252190D01*
X103566870Y-125218301D01*
X103489644Y-125155568D01*
X103418474Y-125097736D01*
X103351060Y-125042932D01*
X103285107Y-124989288D01*
X103218315Y-124934931D01*
X103148389Y-124877993D01*
X103073029Y-124816601D01*
X102989939Y-124748886D01*
X102896822Y-124672977D01*
X102791378Y-124587003D01*
X102722386Y-124530743D01*
X102267479Y-124159780D01*
X102267479Y-123754109D01*
X102267602Y-123648515D01*
X102268005Y-123561986D01*
X102268739Y-123492963D01*
X102269853Y-123439889D01*
X102271399Y-123401205D01*
X102273427Y-123375352D01*
X102275987Y-123360771D01*
X102279130Y-123355904D01*
X102280370Y-123356202D01*
X102291530Y-123364673D01*
X102316281Y-123384503D01*
X102352367Y-123413851D01*
X102397532Y-123450875D01*
X102449519Y-123493734D01*
X102499513Y-123535138D01*
X102546504Y-123574110D01*
X102607138Y-123624358D01*
X102679159Y-123684012D01*
X102760312Y-123751209D01*
X102848344Y-123824079D01*
X102940999Y-123900758D01*
X103036022Y-123979378D01*
X103131159Y-124058073D01*
X103190459Y-124107115D01*
X103277202Y-124178852D01*
X103359513Y-124246936D01*
X103435966Y-124310188D01*
X103505135Y-124367427D01*
X103565594Y-124417472D01*
X103615916Y-124459143D01*
X103654675Y-124491259D01*
X103680446Y-124512640D01*
X103691801Y-124522104D01*
X103691931Y-124522214D01*
X103696024Y-124526228D01*
X103699666Y-124529249D01*
X103704568Y-124530248D01*
X103712446Y-124528193D01*
X103725014Y-124522054D01*
X103743986Y-124510803D01*
X103771076Y-124493407D01*
X103807999Y-124468838D01*
X103856468Y-124436064D01*
X103918198Y-124394057D01*
X103994903Y-124341785D01*
X104015469Y-124327776D01*
X104162968Y-124227385D01*
X104309583Y-124127712D01*
X104454320Y-124029428D01*
X104596184Y-123933202D01*
X104734180Y-123839706D01*
X104867312Y-123749610D01*
X104994587Y-123663585D01*
X105115009Y-123582300D01*
X105227583Y-123506426D01*
X105331314Y-123436634D01*
X105425207Y-123373593D01*
X105508268Y-123317976D01*
X105579501Y-123270451D01*
X105637911Y-123231690D01*
X105682505Y-123202362D01*
X105712285Y-123183139D01*
X105726259Y-123174690D01*
X105727160Y-123174340D01*
X105728346Y-123184284D01*
G37*
%TO.C,U102*%
X134630000Y-99350000D02*
X135380000Y-99350000D01*
X134680000Y-96450000D02*
X135380000Y-96450000D01*
X134680000Y-96450000D02*
X133980000Y-96450000D01*
X135380000Y-97550000D02*
X135380000Y-98250000D01*
X134630000Y-99350000D02*
X133980000Y-99350000D01*
X134440000Y-96850000D02*
G75*
G03*
X134440000Y-96850000I-60000J0D01*
G01*
%TO.C,F300*%
X115530000Y-121680000D02*
X115530000Y-124080000D01*
X112930000Y-121680000D02*
X112930000Y-124080000D01*
%TO.C,Q201*%
X119350000Y-72050000D02*
X119350000Y-71100000D01*
X120050000Y-72050000D02*
X119350000Y-72050000D01*
X120100000Y-69050000D02*
X120750000Y-69050000D01*
X120100000Y-69050000D02*
X119350000Y-69050000D01*
X120750000Y-70150000D02*
X120750000Y-70950000D01*
X119350000Y-69050000D02*
X119350000Y-70000000D01*
X120050000Y-72050000D02*
X120750000Y-72050000D01*
%TO.C,C200*%
X113610000Y-77440580D02*
X113610000Y-77159420D01*
X112590000Y-77440580D02*
X112590000Y-77159420D01*
%TO.C,R209*%
X116122500Y-70787258D02*
X116122500Y-70312742D01*
X115077500Y-70787258D02*
X115077500Y-70312742D01*
%TO.C,R309*%
X116122500Y-108587258D02*
X116122500Y-108112742D01*
X115077500Y-108587258D02*
X115077500Y-108112742D01*
%TO.C,R207*%
X118862742Y-79077500D02*
X119337258Y-79077500D01*
X118862742Y-80122500D02*
X119337258Y-80122500D01*
%TO.C,TP101*%
X128900000Y-91850000D02*
G75*
G03*
X128900000Y-91850000I-700000J0D01*
G01*
%TO.C,F200*%
X112900000Y-83880000D02*
X112900000Y-86280000D01*
X115500000Y-83880000D02*
X115500000Y-86280000D01*
%TO.C,C101*%
X142410000Y-134761252D02*
X142410000Y-133338748D01*
X140590000Y-134761252D02*
X140590000Y-133338748D01*
%TO.C,R206*%
X118862742Y-75322500D02*
X119337258Y-75322500D01*
X118862742Y-74277500D02*
X119337258Y-74277500D01*
%TO.C,R208*%
X114272500Y-73762742D02*
X114272500Y-74237258D01*
X113227500Y-73762742D02*
X113227500Y-74237258D01*
%TO.C,C303*%
X116190580Y-113110000D02*
X115909420Y-113110000D01*
X116190580Y-112090000D02*
X115909420Y-112090000D01*
%TO.C,R301*%
X123707500Y-108012742D02*
X123707500Y-108487258D01*
X124752500Y-108012742D02*
X124752500Y-108487258D01*
%TO.C,R102*%
X121922500Y-93462742D02*
X121922500Y-93937258D01*
X120877500Y-93462742D02*
X120877500Y-93937258D01*
%TO.C,C202*%
X119240580Y-78510000D02*
X118959420Y-78510000D01*
X119240580Y-77490000D02*
X118959420Y-77490000D01*
%TO.C,R204*%
X123177064Y-89535000D02*
X118822936Y-89535000D01*
X123177064Y-86115000D02*
X118822936Y-86115000D01*
%TO.C,Q301*%
X120130000Y-106850000D02*
X119380000Y-106850000D01*
X120080000Y-109850000D02*
X119380000Y-109850000D01*
X119380000Y-106850000D02*
X119380000Y-107800000D01*
X120130000Y-106850000D02*
X120780000Y-106850000D01*
X120780000Y-107950000D02*
X120780000Y-108750000D01*
X120080000Y-109850000D02*
X120780000Y-109850000D01*
X119380000Y-109850000D02*
X119380000Y-108900000D01*
%TO.C,R300*%
X123202500Y-108012742D02*
X123202500Y-108487258D01*
X122157500Y-108012742D02*
X122157500Y-108487258D01*
%TO.C,C205*%
X116690000Y-70409420D02*
X116690000Y-70690580D01*
X117710000Y-70409420D02*
X117710000Y-70690580D01*
%TO.C,U100*%
X137400000Y-93750000D02*
X136700000Y-93750000D01*
X137400000Y-93750000D02*
X138100000Y-93750000D01*
X136700000Y-92650000D02*
X136700000Y-91950000D01*
X137450000Y-90850000D02*
X138100000Y-90850000D01*
X137450000Y-90850000D02*
X136700000Y-90850000D01*
X137760000Y-93350000D02*
G75*
G03*
X137760000Y-93350000I-60000J0D01*
G01*
%TO.C,R303*%
X123207064Y-122835000D02*
X118852936Y-122835000D01*
X123207064Y-119415000D02*
X118852936Y-119415000D01*
%TO.C,D301*%
X118880000Y-104597500D02*
X118280000Y-104597500D01*
X118880000Y-103797500D02*
X118280000Y-103797500D01*
X119340000Y-103397500D02*
G75*
G03*
X119340000Y-103397500I-60000J0D01*
G01*
%TO.C,R103*%
X137992500Y-98117258D02*
X137992500Y-97642742D01*
X136947500Y-98117258D02*
X136947500Y-97642742D01*
%TO.C,R104*%
X130537258Y-97422500D02*
X130062742Y-97422500D01*
X130537258Y-96377500D02*
X130062742Y-96377500D01*
%TO.C,R108*%
X158322500Y-94287742D02*
X158322500Y-94762258D01*
X157277500Y-94287742D02*
X157277500Y-94762258D01*
%TO.C,U101*%
X127100000Y-92200000D02*
X127100000Y-93150000D01*
X126400000Y-92200000D02*
X125700000Y-92200000D01*
X126400000Y-92200000D02*
X127100000Y-92200000D01*
X126350000Y-95200000D02*
X125700000Y-95200000D01*
X126350000Y-95200000D02*
X127100000Y-95200000D01*
X125700000Y-94100000D02*
X125700000Y-93300000D01*
X127100000Y-95200000D02*
X127100000Y-94250000D01*
%TO.C,Q202*%
X122137500Y-66256250D02*
X123087500Y-66256250D01*
X124037500Y-67656250D02*
X123237500Y-67656250D01*
X122137500Y-66956250D02*
X122137500Y-67656250D01*
X122137500Y-66956250D02*
X122137500Y-66256250D01*
X125137500Y-67006250D02*
X125137500Y-66256250D01*
X125137500Y-67006250D02*
X125137500Y-67656250D01*
X125137500Y-66256250D02*
X124187500Y-66256250D01*
%TO.C,G\u002A\u002A\u002A*%
G36*
X104820216Y-70279867D02*
G01*
X105009082Y-70357507D01*
X105174150Y-70488614D01*
X105239460Y-70572238D01*
X105312276Y-70686491D01*
X105356190Y-70766667D01*
X105402969Y-70869754D01*
X105432570Y-70968820D01*
X105449702Y-71086583D01*
X105459074Y-71245760D01*
X105459829Y-71266667D01*
X105462976Y-71426777D01*
X105457125Y-71543301D01*
X105439077Y-71639067D01*
X105405635Y-71736903D01*
X105387862Y-71780232D01*
X105265721Y-72008903D01*
X105116376Y-72184203D01*
X104944182Y-72302550D01*
X104753493Y-72360365D01*
X104675887Y-72365728D01*
X104534034Y-72366667D01*
X104534034Y-71907420D01*
X104648304Y-71886010D01*
X104776486Y-71830306D01*
X104885935Y-71723589D01*
X104968446Y-71580679D01*
X105015814Y-71416394D01*
X105019835Y-71245555D01*
X105016354Y-71221246D01*
X104967594Y-71044062D01*
X104891440Y-70905998D01*
X104795788Y-70812211D01*
X104688534Y-70767863D01*
X104577575Y-70778110D01*
X104470808Y-70848114D01*
X104460914Y-70858333D01*
X104403633Y-70924385D01*
X104357072Y-70993050D01*
X104314261Y-71078782D01*
X104268228Y-71196036D01*
X104212001Y-71359265D01*
X104195970Y-71407630D01*
X104132167Y-71594424D01*
X104078069Y-71732921D01*
X104025557Y-71839068D01*
X103966512Y-71928815D01*
X103892816Y-72018109D01*
X103875224Y-72037739D01*
X103707821Y-72186307D01*
X103527757Y-72272381D01*
X103327636Y-72300000D01*
X103114855Y-72269524D01*
X102927857Y-72182562D01*
X102771142Y-72045816D01*
X102649208Y-71865987D01*
X102566554Y-71649778D01*
X102527680Y-71403889D01*
X102537083Y-71135023D01*
X102538454Y-71124430D01*
X102593582Y-70894550D01*
X102697404Y-70700488D01*
X102820627Y-70559961D01*
X103003646Y-70422101D01*
X103199599Y-70347225D01*
X103331385Y-70333333D01*
X103465965Y-70333333D01*
X103465965Y-70833333D01*
X103346578Y-70833333D01*
X103219773Y-70862262D01*
X103118633Y-70940603D01*
X103044487Y-71055691D01*
X102998664Y-71194860D01*
X102982493Y-71345443D01*
X102997303Y-71494776D01*
X103044424Y-71630192D01*
X103125184Y-71739026D01*
X103240912Y-71808611D01*
X103244129Y-71809693D01*
X103355312Y-71815029D01*
X103462554Y-71755769D01*
X103566269Y-71631410D01*
X103666871Y-71441448D01*
X103764774Y-71185382D01*
X103768785Y-71173318D01*
X103843256Y-70958101D01*
X103908794Y-70793766D01*
X103972005Y-70666358D01*
X104039493Y-70561925D01*
X104086046Y-70502990D01*
X104240695Y-70367496D01*
X104423173Y-70285031D01*
X104620630Y-70255765D01*
X104820216Y-70279867D01*
G37*
G36*
X105434233Y-61473688D02*
G01*
X105446791Y-61481325D01*
X105402988Y-61496204D01*
X105401839Y-61496524D01*
X105345684Y-61515183D01*
X105350118Y-61530643D01*
X105385151Y-61545582D01*
X105431562Y-61568484D01*
X105420164Y-61593752D01*
X105390777Y-61616373D01*
X105350732Y-61651104D01*
X105368928Y-61667821D01*
X105407466Y-61676120D01*
X105436815Y-61686415D01*
X105399796Y-61693388D01*
X105360118Y-61695461D01*
X105271931Y-61688774D01*
X105237139Y-61665877D01*
X105260697Y-61634838D01*
X105310052Y-61613988D01*
X105385151Y-61590151D01*
X105310052Y-61556648D01*
X105245924Y-61516770D01*
X105245702Y-61486696D01*
X105306745Y-61470999D01*
X105360118Y-61469990D01*
X105434233Y-61473688D01*
G37*
G36*
X103959769Y-78529000D02*
G01*
X103659565Y-78492596D01*
X103377680Y-78401311D01*
X103122509Y-78259274D01*
X102902446Y-78070611D01*
X102725884Y-77839451D01*
X102658876Y-77714237D01*
X102606644Y-77593081D01*
X102573021Y-77483579D01*
X102552701Y-77361384D01*
X102540382Y-77202146D01*
X102538257Y-77160530D01*
X102539249Y-77050000D01*
X103015853Y-77050000D01*
X103026203Y-77260107D01*
X103062596Y-77424970D01*
X103133044Y-77563532D01*
X103245562Y-77694739D01*
X103316224Y-77760104D01*
X103503592Y-77891168D01*
X103712803Y-77969341D01*
X103957420Y-77999348D01*
X104004693Y-78000000D01*
X104269244Y-77970799D01*
X104504340Y-77885698D01*
X104703838Y-77748451D01*
X104861594Y-77562813D01*
X104932050Y-77433333D01*
X104981381Y-77265334D01*
X104999951Y-77064765D01*
X104987189Y-76858514D01*
X104947851Y-76688510D01*
X104848437Y-76496584D01*
X104696858Y-76335728D01*
X104502826Y-76212004D01*
X104276053Y-76131473D01*
X104026254Y-76100194D01*
X104004693Y-76100000D01*
X103752515Y-76122095D01*
X103538109Y-76191531D01*
X103347910Y-76313035D01*
X103316224Y-76339896D01*
X103180866Y-76474258D01*
X103091391Y-76606956D01*
X103039787Y-76756937D01*
X103018039Y-76943145D01*
X103015853Y-77050000D01*
X102539249Y-77050000D01*
X102540913Y-76864719D01*
X102582431Y-76609470D01*
X102666636Y-76378597D01*
X102763808Y-76205956D01*
X102943088Y-75986638D01*
X103160538Y-75814366D01*
X103407107Y-75689067D01*
X103673742Y-75610665D01*
X103951395Y-75579084D01*
X104231013Y-75594249D01*
X104503546Y-75656085D01*
X104759943Y-75764516D01*
X104991153Y-75919468D01*
X105188126Y-76120864D01*
X105263268Y-76226760D01*
X105370249Y-76444276D01*
X105444892Y-76699689D01*
X105482928Y-76970408D01*
X105480089Y-77233845D01*
X105469233Y-77316667D01*
X105387396Y-77622425D01*
X105251961Y-77890280D01*
X105066583Y-78116603D01*
X104834921Y-78297769D01*
X104560631Y-78430147D01*
X104269900Y-78506397D01*
X104004693Y-78525726D01*
X103959769Y-78529000D01*
G37*
G36*
X103048751Y-62388841D02*
G01*
X103549408Y-62632176D01*
X103056048Y-62632755D01*
X102854749Y-62631646D01*
X102711573Y-62627272D01*
X102617936Y-62618883D01*
X102565254Y-62605730D01*
X102545329Y-62588156D01*
X102537554Y-62532009D01*
X102535407Y-62433522D01*
X102538032Y-62344242D01*
X102548094Y-62145507D01*
X103048751Y-62388841D01*
G37*
G36*
X103264642Y-69770034D02*
G01*
X103047014Y-69623070D01*
X102859491Y-69439634D01*
X102708802Y-69222648D01*
X102601674Y-68975031D01*
X102544835Y-68699703D01*
X102544182Y-68643951D01*
X103012838Y-68643951D01*
X103018000Y-68689203D01*
X103071841Y-68865968D01*
X103173000Y-69044745D01*
X103306723Y-69203018D01*
X103410984Y-69288991D01*
X103502459Y-69345413D01*
X103573402Y-69378086D01*
X103602902Y-69381217D01*
X103613243Y-69342721D01*
X103621414Y-69248874D01*
X103627462Y-69110958D01*
X103631433Y-68940252D01*
X103633373Y-68748038D01*
X103633329Y-68545594D01*
X103631347Y-68344202D01*
X103627474Y-68155141D01*
X103621757Y-67989692D01*
X103614241Y-67859134D01*
X103604973Y-67774749D01*
X103596178Y-67747966D01*
X103545137Y-67751828D01*
X103463875Y-67794888D01*
X103366620Y-67866604D01*
X103267600Y-67956436D01*
X103181043Y-68053841D01*
X103178040Y-68057748D01*
X103080528Y-68232820D01*
X103023073Y-68437641D01*
X103012838Y-68643951D01*
X102544182Y-68643951D01*
X102541756Y-68436854D01*
X102594524Y-68162671D01*
X102704949Y-67906938D01*
X102864832Y-67677213D01*
X103065973Y-67481057D01*
X103300171Y-67326029D01*
X103559227Y-67219688D01*
X103834940Y-67169596D01*
X103919530Y-67166667D01*
X104100131Y-67166667D01*
X104100131Y-69466667D01*
X104178243Y-69466667D01*
X104277620Y-69445984D01*
X104406629Y-69391313D01*
X104545696Y-69313721D01*
X104675249Y-69224274D01*
X104775717Y-69134039D01*
X104784947Y-69123617D01*
X104906820Y-68933693D01*
X104976000Y-68718703D01*
X104990484Y-68494358D01*
X104948268Y-68276372D01*
X104905838Y-68175782D01*
X104839161Y-68074675D01*
X104743491Y-67964212D01*
X104636351Y-67861534D01*
X104535263Y-67783780D01*
X104472138Y-67751540D01*
X104435461Y-67733714D01*
X104413959Y-67698998D01*
X104403666Y-67632190D01*
X104400620Y-67518086D01*
X104400525Y-67476921D01*
X104400525Y-67225000D01*
X104508635Y-67246594D01*
X104684232Y-67309370D01*
X104868364Y-67423104D01*
X105047446Y-67575855D01*
X105207890Y-67755682D01*
X105336111Y-67950643D01*
X105358057Y-67993176D01*
X105402957Y-68093737D01*
X105431576Y-68187594D01*
X105448049Y-68296248D01*
X105456510Y-68441203D01*
X105458626Y-68516249D01*
X105459314Y-68668069D01*
X105454756Y-68802653D01*
X105445849Y-68900828D01*
X105439110Y-68933333D01*
X105349354Y-69141124D01*
X105223239Y-69346434D01*
X105079819Y-69518684D01*
X105065866Y-69532333D01*
X104825876Y-69722421D01*
X104568897Y-69855599D01*
X104301658Y-69934787D01*
X104030884Y-69962905D01*
X103763305Y-69942872D01*
X103602902Y-69902242D01*
X103505649Y-69877608D01*
X103264642Y-69770034D01*
G37*
G36*
X105451905Y-63416667D02*
G01*
X104433902Y-63433333D01*
X104101949Y-63439840D01*
X103833838Y-63447515D01*
X103626664Y-63456511D01*
X103477525Y-63466979D01*
X103383515Y-63479073D01*
X103345379Y-63490393D01*
X103258568Y-63557802D01*
X103167102Y-63655227D01*
X103089985Y-63759750D01*
X103046223Y-63848454D01*
X103045161Y-63852419D01*
X103030858Y-64014394D01*
X103057464Y-64187567D01*
X103119050Y-64341298D01*
X103148318Y-64385556D01*
X103201562Y-64451484D01*
X103255122Y-64504487D01*
X103316681Y-64545977D01*
X103393919Y-64577366D01*
X103494519Y-64600067D01*
X103626162Y-64615490D01*
X103796530Y-64625049D01*
X104013304Y-64630156D01*
X104284167Y-64632221D01*
X104492312Y-64632601D01*
X105468594Y-64633333D01*
X105468594Y-65129730D01*
X104456415Y-65139865D01*
X103444237Y-65150000D01*
X103305563Y-65241704D01*
X103160266Y-65375904D01*
X103067217Y-65547069D01*
X103032193Y-65744302D01*
X103032063Y-65757526D01*
X103061418Y-65949852D01*
X103150529Y-66113971D01*
X103296988Y-66250000D01*
X103438187Y-66350000D01*
X104453390Y-66360135D01*
X105468594Y-66370271D01*
X105468594Y-66870087D01*
X104392181Y-66860044D01*
X103315768Y-66850000D01*
X103139398Y-66757195D01*
X102905319Y-66600783D01*
X102723434Y-66407744D01*
X102597185Y-66183473D01*
X102530011Y-65933365D01*
X102519485Y-65785138D01*
X102528300Y-65594013D01*
X102562148Y-65435212D01*
X102629271Y-65284580D01*
X102737911Y-65117960D01*
X102755222Y-65094260D01*
X102839943Y-64968844D01*
X102879481Y-64884413D01*
X102877891Y-64848862D01*
X102842911Y-64802421D01*
X102782366Y-64722102D01*
X102725395Y-64646550D01*
X102594415Y-64422026D01*
X102523991Y-64184112D01*
X102511766Y-63941692D01*
X102555379Y-63703655D01*
X102652470Y-63478886D01*
X102800680Y-63276273D01*
X102997650Y-63104701D01*
X103160109Y-63009377D01*
X103349145Y-62916667D01*
X105451905Y-62916667D01*
X105451905Y-63416667D01*
G37*
G36*
X103652151Y-62073778D02*
G01*
X103970967Y-62075228D01*
X104133508Y-62076114D01*
X105451905Y-62083333D01*
X105461653Y-62341667D01*
X105471402Y-62600000D01*
X105327940Y-62600000D01*
X105129419Y-62591474D01*
X104882287Y-62567658D01*
X104602229Y-62531193D01*
X104304927Y-62484722D01*
X104006066Y-62430886D01*
X103721328Y-62372330D01*
X103466397Y-62311693D01*
X103256957Y-62251619D01*
X103253666Y-62250548D01*
X103119373Y-62206495D01*
X103014160Y-62170210D01*
X102941633Y-62140979D01*
X102905400Y-62118085D01*
X102909067Y-62100815D01*
X102956241Y-62088452D01*
X103050530Y-62080282D01*
X103195540Y-62075590D01*
X103394878Y-62073660D01*
X103652151Y-62073778D01*
G37*
G36*
X105468594Y-73200000D02*
G01*
X104641178Y-73200000D01*
X104316477Y-73201695D01*
X104050500Y-73207986D01*
X103835275Y-73220678D01*
X103662828Y-73241579D01*
X103525189Y-73272494D01*
X103414383Y-73315232D01*
X103322440Y-73371598D01*
X103241387Y-73443400D01*
X103163251Y-73532444D01*
X103160796Y-73535490D01*
X103054511Y-73716494D01*
X103006651Y-73912374D01*
X103014438Y-74111398D01*
X103075091Y-74301833D01*
X103185831Y-74471945D01*
X103343878Y-74610000D01*
X103426492Y-74656980D01*
X103616163Y-74750000D01*
X104550722Y-74766667D01*
X105485282Y-74783333D01*
X105495098Y-75025482D01*
X105497240Y-75159386D01*
X105489067Y-75239716D01*
X105468729Y-75279028D01*
X105456727Y-75286098D01*
X105412120Y-75290447D01*
X105309563Y-75293714D01*
X105157851Y-75295834D01*
X104965782Y-75296737D01*
X104742152Y-75296358D01*
X104495756Y-75294630D01*
X104428909Y-75293949D01*
X103449277Y-75283333D01*
X103258424Y-75193998D01*
X103011201Y-75044366D01*
X102809428Y-74851382D01*
X102658415Y-74622328D01*
X102563470Y-74364482D01*
X102536085Y-74203609D01*
X102530507Y-73881086D01*
X102579563Y-73585329D01*
X102680583Y-73321393D01*
X102830898Y-73094334D01*
X103027837Y-72909209D01*
X103268732Y-72771073D01*
X103299080Y-72758450D01*
X103355411Y-72737248D01*
X103412452Y-72720395D01*
X103478681Y-72707277D01*
X103562576Y-72697283D01*
X103672613Y-72689801D01*
X103817270Y-72684219D01*
X104005024Y-72679925D01*
X104244352Y-72676308D01*
X104475624Y-72673524D01*
X105468594Y-72662210D01*
X105468594Y-73200000D01*
G37*
G36*
X105351774Y-61793674D02*
G01*
X105436355Y-61807901D01*
X105466440Y-61821964D01*
X105437661Y-61831540D01*
X105391826Y-61833333D01*
X105313363Y-61849799D01*
X105275006Y-61873333D01*
X105243766Y-61891404D01*
X105234971Y-61850512D01*
X105234954Y-61846694D01*
X105245103Y-61802799D01*
X105287888Y-61789172D01*
X105351774Y-61793674D01*
G37*
%TO.C,C201*%
X122459420Y-72690000D02*
X122740580Y-72690000D01*
X122459420Y-73710000D02*
X122740580Y-73710000D01*
%TO.C,TP201*%
X118850000Y-64800000D02*
G75*
G03*
X118850000Y-64800000I-700000J0D01*
G01*
%TO.C,R203*%
X123177064Y-85035000D02*
X118822936Y-85035000D01*
X123177064Y-81615000D02*
X118822936Y-81615000D01*
%TO.C,D200*%
X118250000Y-67650000D02*
X118850000Y-67650000D01*
X118250000Y-68450000D02*
X118850000Y-68450000D01*
X117910000Y-68850000D02*
G75*
G03*
X117910000Y-68850000I-60000J0D01*
G01*
%TD*%
M02*
