M48
; DRILL file {KiCad (6.0.1-0)} date Wednesday, 14 February 2024 at 13:59:18
; FORMAT={-:-/ absolute / metric / decimal}
; #@! TF.CreationDate,2024-02-14T13:59:18+01:00
; #@! TF.GenerationSoftware,Kicad,Pcbnew,(6.0.1-0)
; #@! TF.FileFunction,Plated,1,4,PTH
FMAT,2
METRIC
; #@! TA.AperFunction,Plated,PTH,ViaDrill
T1C0.300
; #@! TA.AperFunction,Plated,PTH,ViaDrill
T2C0.400
; #@! TA.AperFunction,Plated,PTH,ComponentDrill
T3C1.000
; #@! TA.AperFunction,Plated,PTH,ComponentDrill
T4C1.500
; #@! TA.AperFunction,Plated,PTH,ComponentDrill
T5C3.200
%
G90
G05
T1
X113.1Y-78.85
X113.1Y-116.65
X113.325Y-79.6
X114.0Y-76.45
X114.0Y-114.25
X114.275Y-79.775
X115.3Y-79.775
X115.612Y-69.05
X115.612Y-106.85
X115.675Y-117.25
X118.95Y-91.65
X119.275Y-112.6
X119.85Y-77.075
X119.85Y-90.8
X119.925Y-75.475
X119.925Y-100.7
X119.925Y-113.524
X119.925Y-116.75
X120.525Y-78.0
X120.525Y-115.8
X120.6Y-79.6
X120.9Y-68.6
X121.4Y-95.3
X121.65Y-105.675
X121.7Y-74.0
X121.73Y-111.8
X122.3Y-96.4
X123.5Y-74.0
X123.53Y-111.8
X124.09Y-98.02
X125.26Y-98.7
X125.3Y-96.9
X126.6Y-93.7
X127.225Y-66.025
X127.255Y-103.825
X128.75Y-94.07
X129.5Y-91.4
X131.12Y-99.49
X131.8Y-92.3
X132.7Y-91.5
X134.4Y-93.9
X134.4Y-98.8
X134.6Y-96.2
X135.2Y-91.525
X135.35Y-93.1
X136.25Y-93.9
X136.8Y-92.2
X137.4Y-94.25
X137.65Y-92.25
X138.3Y-97.05
X138.6Y-93.9
X139.4Y-93.6
X142.0Y-53.5
X142.0Y-59.0
X142.0Y-131.0
X142.0Y-136.5
X143.0Y-53.5
X143.0Y-54.5
X143.0Y-58.0
X143.0Y-132.0
X143.0Y-135.5
X143.0Y-136.5
X144.0Y-59.0
X144.0Y-131.0
X157.0Y-95.35
X157.7Y-100.75
X158.6Y-99.9
X160.2Y-91.2
X162.9Y-100.1
T2
X111.1Y-87.3
X111.1Y-88.2
X111.1Y-89.1
X111.1Y-90.0
X111.1Y-125.1
X111.1Y-126.0
X111.1Y-126.9
X111.1Y-127.8
X112.0Y-87.3
X112.0Y-88.2
X112.0Y-89.1
X112.0Y-90.0
X112.0Y-125.1
X112.0Y-126.0
X112.0Y-126.9
X112.0Y-127.8
X112.9Y-89.1
X112.9Y-90.0
X112.9Y-126.9
X112.9Y-127.8
X113.8Y-89.1
X113.8Y-90.0
X113.8Y-126.9
X113.8Y-127.8
X114.7Y-89.1
X114.7Y-90.0
X114.7Y-126.9
X114.7Y-127.8
X117.212Y-69.05
X117.212Y-106.85
X123.65Y-66.725
X123.68Y-104.525
T3
X145.22Y-57.7
X145.22Y-132.3
X147.76Y-57.7
X147.76Y-132.3
X150.3Y-57.7
X150.3Y-132.3
X152.84Y-57.7
X152.84Y-132.3
X155.38Y-57.7
X155.38Y-132.3
X157.92Y-57.7
X157.92Y-132.3
X160.46Y-57.7
X160.46Y-132.3
X162.037Y-93.692
X162.037Y-96.233
X163.0Y-57.7
X163.0Y-132.3
T4
X126.92Y-70.65
X126.92Y-76.1
X126.92Y-81.55
X126.92Y-108.45
X126.92Y-113.9
X126.92Y-119.35
T5
X114.0Y-56.0
X114.0Y-134.0
X124.0Y-56.0
X124.0Y-134.0
T0
M30
