%TF.GenerationSoftware,KiCad,Pcbnew,(6.0.1-0)*%
%TF.CreationDate,2024-02-14T13:59:27+01:00*%
%TF.ProjectId,dcload-power-board,64636c6f-6164-42d7-906f-7765722d626f,rev?*%
%TF.SameCoordinates,Original*%
%TF.FileFunction,Copper,L1,Top*%
%TF.FilePolarity,Positive*%
%FSLAX46Y46*%
G04 Gerber Fmt 4.6, Leading zero omitted, Abs format (unit mm)*
G04 Created by KiCad (PCBNEW (6.0.1-0)) date 2024-02-14 13:59:27*
%MOMM*%
%LPD*%
G01*
G04 APERTURE LIST*
G04 Aperture macros list*
%AMRoundRect*
0 Rectangle with rounded corners*
0 $1 Rounding radius*
0 $2 $3 $4 $5 $6 $7 $8 $9 X,Y pos of 4 corners*
0 Add a 4 corners polygon primitive as box body*
4,1,4,$2,$3,$4,$5,$6,$7,$8,$9,$2,$3,0*
0 Add four circle primitives for the rounded corners*
1,1,$1+$1,$2,$3*
1,1,$1+$1,$4,$5*
1,1,$1+$1,$6,$7*
1,1,$1+$1,$8,$9*
0 Add four rect primitives between the rounded corners*
20,1,$1+$1,$2,$3,$4,$5,0*
20,1,$1+$1,$4,$5,$6,$7,0*
20,1,$1+$1,$6,$7,$8,$9,0*
20,1,$1+$1,$8,$9,$2,$3,0*%
G04 Aperture macros list end*
%TA.AperFunction,ComponentPad*%
%ADD10C,3.000000*%
%TD*%
%TA.AperFunction,SMDPad,CuDef*%
%ADD11RoundRect,0.150000X0.150000X-0.350000X0.150000X0.350000X-0.150000X0.350000X-0.150000X-0.350000X0*%
%TD*%
%TA.AperFunction,SMDPad,CuDef*%
%ADD12RoundRect,0.200000X-0.275000X0.200000X-0.275000X-0.200000X0.275000X-0.200000X0.275000X0.200000X0*%
%TD*%
%TA.AperFunction,SMDPad,CuDef*%
%ADD13RoundRect,0.200000X-0.200000X-0.275000X0.200000X-0.275000X0.200000X0.275000X-0.200000X0.275000X0*%
%TD*%
%TA.AperFunction,SMDPad,CuDef*%
%ADD14C,1.000000*%
%TD*%
%TA.AperFunction,SMDPad,CuDef*%
%ADD15R,0.450000X1.450000*%
%TD*%
%TA.AperFunction,SMDPad,CuDef*%
%ADD16RoundRect,0.200000X0.275000X-0.200000X0.275000X0.200000X-0.275000X0.200000X-0.275000X-0.200000X0*%
%TD*%
%TA.AperFunction,SMDPad,CuDef*%
%ADD17RoundRect,0.225000X-0.225000X-0.250000X0.225000X-0.250000X0.225000X0.250000X-0.225000X0.250000X0*%
%TD*%
%TA.AperFunction,SMDPad,CuDef*%
%ADD18RoundRect,0.200000X0.200000X0.275000X-0.200000X0.275000X-0.200000X-0.275000X0.200000X-0.275000X0*%
%TD*%
%TA.AperFunction,SMDPad,CuDef*%
%ADD19RoundRect,0.225000X-0.250000X0.225000X-0.250000X-0.225000X0.250000X-0.225000X0.250000X0.225000X0*%
%TD*%
%TA.AperFunction,SMDPad,CuDef*%
%ADD20RoundRect,0.150000X0.150000X0.200000X-0.150000X0.200000X-0.150000X-0.200000X0.150000X-0.200000X0*%
%TD*%
%TA.AperFunction,SMDPad,CuDef*%
%ADD21RoundRect,0.225000X0.225000X0.250000X-0.225000X0.250000X-0.225000X-0.250000X0.225000X-0.250000X0*%
%TD*%
%TA.AperFunction,SMDPad,CuDef*%
%ADD22RoundRect,0.250000X0.362500X1.425000X-0.362500X1.425000X-0.362500X-1.425000X0.362500X-1.425000X0*%
%TD*%
%TA.AperFunction,SMDPad,CuDef*%
%ADD23RoundRect,0.250000X-0.650000X0.325000X-0.650000X-0.325000X0.650000X-0.325000X0.650000X0.325000X0*%
%TD*%
%TA.AperFunction,SMDPad,CuDef*%
%ADD24RoundRect,0.225000X0.250000X-0.225000X0.250000X0.225000X-0.250000X0.225000X-0.250000X-0.225000X0*%
%TD*%
%TA.AperFunction,SMDPad,CuDef*%
%ADD25RoundRect,0.150000X-0.350000X-0.150000X0.350000X-0.150000X0.350000X0.150000X-0.350000X0.150000X0*%
%TD*%
%TA.AperFunction,ComponentPad*%
%ADD26C,5.600000*%
%TD*%
%TA.AperFunction,SMDPad,CuDef*%
%ADD27RoundRect,0.150000X-0.150000X-0.200000X0.150000X-0.200000X0.150000X0.200000X-0.150000X0.200000X0*%
%TD*%
%TA.AperFunction,SMDPad,CuDef*%
%ADD28RoundRect,0.362963X-1.212037X0.617037X-1.212037X-0.617037X1.212037X-0.617037X1.212037X0.617037X0*%
%TD*%
%TA.AperFunction,SMDPad,CuDef*%
%ADD29RoundRect,0.150000X0.350000X0.150000X-0.350000X0.150000X-0.350000X-0.150000X0.350000X-0.150000X0*%
%TD*%
%TA.AperFunction,SMDPad,CuDef*%
%ADD30RoundRect,0.250000X0.650000X-0.325000X0.650000X0.325000X-0.650000X0.325000X-0.650000X-0.325000X0*%
%TD*%
%TA.AperFunction,ComponentPad*%
%ADD31C,1.700000*%
%TD*%
%TA.AperFunction,ComponentPad*%
%ADD32O,1.700000X1.700000*%
%TD*%
%TA.AperFunction,ViaPad*%
%ADD33C,0.600000*%
%TD*%
%TA.AperFunction,ViaPad*%
%ADD34C,0.800000*%
%TD*%
%TA.AperFunction,Conductor*%
%ADD35C,0.300000*%
%TD*%
%TA.AperFunction,Conductor*%
%ADD36C,0.250000*%
%TD*%
%TA.AperFunction,Conductor*%
%ADD37C,0.900000*%
%TD*%
%TA.AperFunction,Conductor*%
%ADD38C,0.500000*%
%TD*%
%TA.AperFunction,Conductor*%
%ADD39C,0.600000*%
%TD*%
%TA.AperFunction,Conductor*%
%ADD40C,0.350000*%
%TD*%
%TA.AperFunction,Conductor*%
%ADD41C,0.800000*%
%TD*%
G04 APERTURE END LIST*
D10*
%TO.P,Q200,1,G*%
%TO.N,/2. Current Sink 1/GATE*%
X126920000Y-70650000D03*
%TO.P,Q200,2,D*%
%TO.N,IN+*%
X126920000Y-76100000D03*
%TO.P,Q200,3,S*%
%TO.N,/2. Current Sink 1/SOURCE*%
X126920000Y-81550000D03*
%TD*%
D11*
%TO.P,U200,1*%
%TO.N,/2. Current Sink 1/EA_OUT*%
X114775000Y-78750000D03*
%TO.P,U200,2,VSS*%
%TO.N,GND*%
X115725000Y-78750000D03*
%TO.P,U200,3,+*%
%TO.N,/2. Current Sink 1/EA+*%
X116675000Y-78750000D03*
%TO.P,U200,4,-*%
%TO.N,/2. Current Sink 1/EA_FB*%
X116675000Y-76450000D03*
%TO.P,U200,5,VDD*%
%TO.N,+12V*%
X114775000Y-76450000D03*
%TD*%
D12*
%TO.P,R100,1*%
%TO.N,EA_OFFSET*%
X123300000Y-96375000D03*
%TO.P,R100,2*%
%TO.N,+12V*%
X123300000Y-98025000D03*
%TD*%
D13*
%TO.P,R306,1*%
%TO.N,/3. Current Sink 2/EA_FB*%
X118275000Y-112600000D03*
%TO.P,R306,2*%
%TO.N,/ISET_BUF*%
X119925000Y-112600000D03*
%TD*%
D12*
%TO.P,R302,1*%
%TO.N,GND*%
X126480000Y-103825000D03*
%TO.P,R302,2*%
%TO.N,/3. Current Sink 2/GATE*%
X126480000Y-105475000D03*
%TD*%
%TO.P,R308,1*%
%TO.N,Net-(C304-Pad2)*%
X113750000Y-110975000D03*
%TO.P,R308,2*%
%TO.N,/3. Current Sink 2/EA_OUT*%
X113750000Y-112625000D03*
%TD*%
D13*
%TO.P,R105,1*%
%TO.N,+12V*%
X126075000Y-98700000D03*
%TO.P,R105,2*%
%TO.N,/ISET_FILT*%
X127725000Y-98700000D03*
%TD*%
D12*
%TO.P,R201,1*%
%TO.N,/2. Current Sink 1/DRV_OUT_L*%
X124200000Y-69625000D03*
%TO.P,R201,2*%
%TO.N,/2. Current Sink 1/GATE*%
X124200000Y-71275000D03*
%TD*%
D14*
%TO.P,TP100,1,1*%
%TO.N,EA_OFFSET*%
X121000000Y-97200000D03*
%TD*%
D13*
%TO.P,R106,1*%
%TO.N,/ISET_FILT*%
X129475000Y-98700000D03*
%TO.P,R106,2*%
%TO.N,GND*%
X131125000Y-98700000D03*
%TD*%
D12*
%TO.P,R200,1*%
%TO.N,/2. Current Sink 1/DRV_OUT_U*%
X122650000Y-69625000D03*
%TO.P,R200,2*%
%TO.N,/2. Current Sink 1/GATE*%
X122650000Y-71275000D03*
%TD*%
D15*
%TO.P,U201,1,Vs*%
%TO.N,+5V*%
X123575000Y-75100000D03*
%TO.P,U201,2,OUT*%
%TO.N,/ISEN1*%
X122925000Y-75100000D03*
%TO.P,U201,3,CMP_IN*%
%TO.N,GND*%
X122275000Y-75100000D03*
%TO.P,U201,4,GND*%
X121625000Y-75100000D03*
%TO.P,U201,5,~{RESET}*%
%TO.N,unconnected-(U201-Pad5)*%
X121625000Y-79500000D03*
%TO.P,U201,6,CMP_OUT*%
%TO.N,unconnected-(U201-Pad6)*%
X122275000Y-79500000D03*
%TO.P,U201,7,IN-*%
%TO.N,/2. Current Sink 1/SOURCE-F*%
X122925000Y-79500000D03*
%TO.P,U201,8,IN+*%
%TO.N,/2. Current Sink 1/SOURCE*%
X123575000Y-79500000D03*
%TD*%
D16*
%TO.P,R311,1*%
%TO.N,GND*%
X120930000Y-105675000D03*
%TO.P,R311,2*%
%TO.N,Net-(D301-Pad1)*%
X120930000Y-104025000D03*
%TD*%
D14*
%TO.P,TP301,1,1*%
%TO.N,/3. Current Sink 2/EA_OUT*%
X118180000Y-102600000D03*
%TD*%
D17*
%TO.P,C102,1*%
%TO.N,GND*%
X137625000Y-95100000D03*
%TO.P,C102,2*%
%TO.N,+12V*%
X139175000Y-95100000D03*
%TD*%
D14*
%TO.P,TP300,1,1*%
%TO.N,/ISEN2*%
X125200000Y-116600000D03*
%TD*%
D18*
%TO.P,R210,1*%
%TO.N,Net-(D200-Pad2)*%
X119925000Y-73200000D03*
%TO.P,R210,2*%
%TO.N,/2. Current Sink 1/DRV_VCC*%
X118275000Y-73200000D03*
%TD*%
D19*
%TO.P,C305,1*%
%TO.N,GND*%
X117200000Y-107575000D03*
%TO.P,C305,2*%
%TO.N,/3. Current Sink 2/DRV_VCC*%
X117200000Y-109125000D03*
%TD*%
D12*
%TO.P,R202,1*%
%TO.N,GND*%
X126450000Y-66025000D03*
%TO.P,R202,2*%
%TO.N,/2. Current Sink 1/GATE*%
X126450000Y-67675000D03*
%TD*%
D20*
%TO.P,D300,1,K*%
%TO.N,/3. Current Sink 2/EA_OUT*%
X117880000Y-105850000D03*
%TO.P,D300,2,A*%
%TO.N,Net-(D300-Pad2)*%
X119280000Y-105850000D03*
%TD*%
D18*
%TO.P,R305,1*%
%TO.N,/ISEN2*%
X119925000Y-114200000D03*
%TO.P,R305,2*%
%TO.N,/3. Current Sink 2/EA_FB*%
X118275000Y-114200000D03*
%TD*%
D21*
%TO.P,C203,1*%
%TO.N,/2. Current Sink 1/EA_FB*%
X116825000Y-74800000D03*
%TO.P,C203,2*%
%TO.N,/2. Current Sink 1/EA_OUT*%
X115275000Y-74800000D03*
%TD*%
D11*
%TO.P,Q302,1,B*%
%TO.N,Net-(D301-Pad1)*%
X122717500Y-105843750D03*
%TO.P,Q302,2,E*%
%TO.N,/3. Current Sink 2/DRV_OUT_L*%
X124617500Y-105843750D03*
%TO.P,Q302,3,C*%
%TO.N,GND*%
X123667500Y-103668750D03*
%TD*%
D21*
%TO.P,C302,1*%
%TO.N,GND*%
X119875000Y-115800000D03*
%TO.P,C302,2*%
%TO.N,/3. Current Sink 2/EA+*%
X118325000Y-115800000D03*
%TD*%
D22*
%TO.P,R304,1*%
%TO.N,/3. Current Sink 2/SOURCE*%
X123992500Y-125625000D03*
%TO.P,R304,2*%
%TO.N,/3. Current Sink 2/SOURCE-F*%
X118067500Y-125625000D03*
%TD*%
D23*
%TO.P,C100,1*%
%TO.N,GND*%
X141500000Y-54475000D03*
%TO.P,C100,2*%
%TO.N,+12V*%
X141500000Y-57425000D03*
%TD*%
D17*
%TO.P,C105,1*%
%TO.N,GND*%
X126165000Y-96900000D03*
%TO.P,C105,2*%
%TO.N,/ISET_FILT*%
X127715000Y-96900000D03*
%TD*%
D16*
%TO.P,R211,1*%
%TO.N,GND*%
X120900000Y-67875000D03*
%TO.P,R211,2*%
%TO.N,Net-(D201-Pad1)*%
X120900000Y-66225000D03*
%TD*%
D21*
%TO.P,C304,1*%
%TO.N,/3. Current Sink 2/EA_FB*%
X116825000Y-111000000D03*
%TO.P,C304,2*%
%TO.N,Net-(C304-Pad2)*%
X115275000Y-111000000D03*
%TD*%
D15*
%TO.P,U301,1,Vs*%
%TO.N,+5V*%
X123605000Y-112900000D03*
%TO.P,U301,2,OUT*%
%TO.N,/ISEN2*%
X122955000Y-112900000D03*
%TO.P,U301,3,CMP_IN*%
%TO.N,GND*%
X122305000Y-112900000D03*
%TO.P,U301,4,GND*%
X121655000Y-112900000D03*
%TO.P,U301,5,~{RESET}*%
%TO.N,unconnected-(U301-Pad5)*%
X121655000Y-117300000D03*
%TO.P,U301,6,CMP_OUT*%
%TO.N,unconnected-(U301-Pad6)*%
X122305000Y-117300000D03*
%TO.P,U301,7,IN-*%
%TO.N,/3. Current Sink 2/SOURCE-F*%
X122955000Y-117300000D03*
%TO.P,U301,8,IN+*%
%TO.N,/3. Current Sink 2/SOURCE*%
X123605000Y-117300000D03*
%TD*%
D19*
%TO.P,C103,1*%
%TO.N,GND*%
X134400000Y-91550000D03*
%TO.P,C103,2*%
%TO.N,+5V*%
X134400000Y-93100000D03*
%TD*%
D13*
%TO.P,R307,1*%
%TO.N,/3. Current Sink 2/EA+*%
X118275000Y-117400000D03*
%TO.P,R307,2*%
%TO.N,EA_OFFSET*%
X119925000Y-117400000D03*
%TD*%
D21*
%TO.P,C204,1*%
%TO.N,/2. Current Sink 1/EA_FB*%
X116825000Y-73200000D03*
%TO.P,C204,2*%
%TO.N,Net-(C204-Pad2)*%
X115275000Y-73200000D03*
%TD*%
D24*
%TO.P,C300,1*%
%TO.N,GND*%
X113100000Y-115875000D03*
%TO.P,C300,2*%
%TO.N,+12V*%
X113100000Y-114325000D03*
%TD*%
D14*
%TO.P,TP200,1,1*%
%TO.N,/ISEN1*%
X125200000Y-78800000D03*
%TD*%
D18*
%TO.P,R205,1*%
%TO.N,/ISEN1*%
X119925000Y-76400000D03*
%TO.P,R205,2*%
%TO.N,/2. Current Sink 1/EA_FB*%
X118275000Y-76400000D03*
%TD*%
D17*
%TO.P,C301,1*%
%TO.N,GND*%
X121855000Y-111000000D03*
%TO.P,C301,2*%
%TO.N,+5V*%
X123405000Y-111000000D03*
%TD*%
D11*
%TO.P,U300,1*%
%TO.N,/3. Current Sink 2/EA_OUT*%
X114775000Y-116550000D03*
%TO.P,U300,2,VSS*%
%TO.N,GND*%
X115725000Y-116550000D03*
%TO.P,U300,3,+*%
%TO.N,/3. Current Sink 2/EA+*%
X116675000Y-116550000D03*
%TO.P,U300,4,-*%
%TO.N,/3. Current Sink 2/EA_FB*%
X116675000Y-114250000D03*
%TO.P,U300,5,VDD*%
%TO.N,+12V*%
X114775000Y-114250000D03*
%TD*%
D25*
%TO.P,U103,1*%
%TO.N,/ISET_BUF*%
X129520000Y-93120000D03*
%TO.P,U103,2,VSS*%
%TO.N,GND*%
X129520000Y-94070000D03*
%TO.P,U103,3,+*%
%TO.N,/ISET_FILT*%
X129520000Y-95020000D03*
%TO.P,U103,4,-*%
%TO.N,/ISET_BUF*%
X131820000Y-95020000D03*
%TO.P,U103,5,VDD*%
%TO.N,+12V*%
X131820000Y-93120000D03*
%TD*%
D26*
%TO.P,H105,1,1*%
%TO.N,IN+*%
X124000000Y-134000000D03*
%TD*%
D16*
%TO.P,R107,1*%
%TO.N,+5V*%
X159437500Y-95350000D03*
%TO.P,R107,2*%
%TO.N,/NTC*%
X159437500Y-93700000D03*
%TD*%
D17*
%TO.P,C104,1*%
%TO.N,GND*%
X134225000Y-95100000D03*
%TO.P,C104,2*%
%TO.N,+5V*%
X135775000Y-95100000D03*
%TD*%
D16*
%TO.P,R101,1*%
%TO.N,EA_OFFSET*%
X123300000Y-94525000D03*
%TO.P,R101,2*%
%TO.N,Net-(R101-Pad2)*%
X123300000Y-92875000D03*
%TD*%
D17*
%TO.P,C106,1*%
%TO.N,GND*%
X130225000Y-91400000D03*
%TO.P,C106,2*%
%TO.N,+12V*%
X131775000Y-91400000D03*
%TD*%
D18*
%TO.P,R310,1*%
%TO.N,Net-(D300-Pad2)*%
X119955000Y-111000000D03*
%TO.P,R310,2*%
%TO.N,/3. Current Sink 2/DRV_VCC*%
X118305000Y-111000000D03*
%TD*%
D26*
%TO.P,H106,1,1*%
%TO.N,GND*%
X114000000Y-134000000D03*
%TD*%
D27*
%TO.P,D201,1,K*%
%TO.N,Net-(D201-Pad1)*%
X119250000Y-66397500D03*
%TO.P,D201,2,A*%
%TO.N,/2. Current Sink 1/EA_OUT*%
X117850000Y-66397500D03*
%TD*%
D25*
%TO.P,U102,1,D*%
%TO.N,Net-(R104-Pad1)*%
X133530000Y-96950000D03*
%TO.P,U102,2,S*%
%TO.N,/ISET*%
X133530000Y-97900000D03*
%TO.P,U102,3,GND*%
%TO.N,GND*%
X133530000Y-98850000D03*
%TO.P,U102,4,SEL*%
%TO.N,/EN*%
X135830000Y-98850000D03*
%TO.P,U102,5,VDD*%
%TO.N,+5V*%
X135830000Y-96950000D03*
%TD*%
D28*
%TO.P,F300,1*%
%TO.N,/3. Current Sink 2/SOURCE-F*%
X114230000Y-120425000D03*
%TO.P,F300,2*%
%TO.N,GND*%
X114230000Y-125335000D03*
%TD*%
D29*
%TO.P,Q201,1,B*%
%TO.N,Net-(D200-Pad2)*%
X121137500Y-71500000D03*
%TO.P,Q201,2,E*%
%TO.N,/2. Current Sink 1/DRV_OUT_U*%
X121137500Y-69600000D03*
%TO.P,Q201,3,C*%
%TO.N,/2. Current Sink 1/DRV_VCC*%
X118962500Y-70550000D03*
%TD*%
D24*
%TO.P,C200,1*%
%TO.N,GND*%
X113100000Y-78075000D03*
%TO.P,C200,2*%
%TO.N,+12V*%
X113100000Y-76525000D03*
%TD*%
D16*
%TO.P,R209,1*%
%TO.N,/2. Current Sink 1/DRV_VCC*%
X115600000Y-71375000D03*
%TO.P,R209,2*%
%TO.N,+12V*%
X115600000Y-69725000D03*
%TD*%
%TO.P,R309,1*%
%TO.N,/3. Current Sink 2/DRV_VCC*%
X115600000Y-109175000D03*
%TO.P,R309,2*%
%TO.N,+12V*%
X115600000Y-107525000D03*
%TD*%
D13*
%TO.P,R207,1*%
%TO.N,/2. Current Sink 1/EA+*%
X118275000Y-79600000D03*
%TO.P,R207,2*%
%TO.N,EA_OFFSET*%
X119925000Y-79600000D03*
%TD*%
D14*
%TO.P,TP101,1,1*%
%TO.N,/ISET_BUF*%
X128200000Y-91850000D03*
%TD*%
D28*
%TO.P,F200,1*%
%TO.N,/2. Current Sink 1/SOURCE-F*%
X114200000Y-82625000D03*
%TO.P,F200,2*%
%TO.N,GND*%
X114200000Y-87535000D03*
%TD*%
D30*
%TO.P,C101,1*%
%TO.N,GND*%
X141500000Y-135525000D03*
%TO.P,C101,2*%
%TO.N,+12V*%
X141500000Y-132575000D03*
%TD*%
D13*
%TO.P,R206,1*%
%TO.N,/2. Current Sink 1/EA_FB*%
X118275000Y-74800000D03*
%TO.P,R206,2*%
%TO.N,/ISET_BUF*%
X119925000Y-74800000D03*
%TD*%
D12*
%TO.P,R208,1*%
%TO.N,Net-(C204-Pad2)*%
X113750000Y-73175000D03*
%TO.P,R208,2*%
%TO.N,/2. Current Sink 1/EA_OUT*%
X113750000Y-74825000D03*
%TD*%
D21*
%TO.P,C303,1*%
%TO.N,/3. Current Sink 2/EA_FB*%
X116825000Y-112600000D03*
%TO.P,C303,2*%
%TO.N,/3. Current Sink 2/EA_OUT*%
X115275000Y-112600000D03*
%TD*%
D12*
%TO.P,R301,1*%
%TO.N,/3. Current Sink 2/DRV_OUT_L*%
X124230000Y-107425000D03*
%TO.P,R301,2*%
%TO.N,/3. Current Sink 2/GATE*%
X124230000Y-109075000D03*
%TD*%
%TO.P,R102,1*%
%TO.N,Net-(R101-Pad2)*%
X121400000Y-92875000D03*
%TO.P,R102,2*%
%TO.N,GND*%
X121400000Y-94525000D03*
%TD*%
D21*
%TO.P,C202,1*%
%TO.N,GND*%
X119875000Y-78000000D03*
%TO.P,C202,2*%
%TO.N,/2. Current Sink 1/EA+*%
X118325000Y-78000000D03*
%TD*%
D26*
%TO.P,H104,1,1*%
%TO.N,GND*%
X114000000Y-56000000D03*
%TD*%
D22*
%TO.P,R204,1*%
%TO.N,/2. Current Sink 1/SOURCE*%
X123962500Y-87825000D03*
%TO.P,R204,2*%
%TO.N,/2. Current Sink 1/SOURCE-F*%
X118037500Y-87825000D03*
%TD*%
D29*
%TO.P,Q301,1,B*%
%TO.N,Net-(D300-Pad2)*%
X121167500Y-109300000D03*
%TO.P,Q301,2,E*%
%TO.N,/3. Current Sink 2/DRV_OUT_U*%
X121167500Y-107400000D03*
%TO.P,Q301,3,C*%
%TO.N,/3. Current Sink 2/DRV_VCC*%
X118992500Y-108350000D03*
%TD*%
D12*
%TO.P,R300,1*%
%TO.N,/3. Current Sink 2/DRV_OUT_U*%
X122680000Y-107425000D03*
%TO.P,R300,2*%
%TO.N,/3. Current Sink 2/GATE*%
X122680000Y-109075000D03*
%TD*%
D19*
%TO.P,C205,1*%
%TO.N,GND*%
X117200000Y-69775000D03*
%TO.P,C205,2*%
%TO.N,/2. Current Sink 1/DRV_VCC*%
X117200000Y-71325000D03*
%TD*%
D29*
%TO.P,U100,1,IN*%
%TO.N,+12V*%
X138550000Y-93250000D03*
%TO.P,U100,2,GND*%
%TO.N,GND*%
X138550000Y-92300000D03*
%TO.P,U100,3,EN*%
%TO.N,+12V*%
X138550000Y-91350000D03*
%TO.P,U100,4,NC*%
%TO.N,unconnected-(U100-Pad4)*%
X136250000Y-91350000D03*
%TO.P,U100,5,OUT*%
%TO.N,+5V*%
X136250000Y-93250000D03*
%TD*%
D22*
%TO.P,R303,1*%
%TO.N,/3. Current Sink 2/SOURCE*%
X123992500Y-121125000D03*
%TO.P,R303,2*%
%TO.N,/3. Current Sink 2/SOURCE-F*%
X118067500Y-121125000D03*
%TD*%
D27*
%TO.P,D301,1,K*%
%TO.N,Net-(D301-Pad1)*%
X119280000Y-104197500D03*
%TO.P,D301,2,A*%
%TO.N,/3. Current Sink 2/EA_OUT*%
X117880000Y-104197500D03*
%TD*%
D16*
%TO.P,R103,1*%
%TO.N,/EN*%
X137470000Y-98705000D03*
%TO.P,R103,2*%
%TO.N,GND*%
X137470000Y-97055000D03*
%TD*%
D18*
%TO.P,R104,1*%
%TO.N,Net-(R104-Pad1)*%
X131125000Y-96900000D03*
%TO.P,R104,2*%
%TO.N,/ISET_FILT*%
X129475000Y-96900000D03*
%TD*%
D12*
%TO.P,R108,1*%
%TO.N,/NTC*%
X157800000Y-93700000D03*
%TO.P,R108,2*%
%TO.N,GND*%
X157800000Y-95350000D03*
%TD*%
D10*
%TO.P,Q300,1,G*%
%TO.N,/3. Current Sink 2/GATE*%
X126920000Y-108450000D03*
%TO.P,Q300,2,D*%
%TO.N,IN+*%
X126920000Y-113900000D03*
%TO.P,Q300,3,S*%
%TO.N,/3. Current Sink 2/SOURCE*%
X126920000Y-119350000D03*
%TD*%
D25*
%TO.P,U101,1,REF*%
%TO.N,Net-(R101-Pad2)*%
X125312500Y-92750000D03*
%TO.P,U101,2,K*%
%TO.N,EA_OFFSET*%
X125312500Y-94650000D03*
%TO.P,U101,3,A*%
%TO.N,GND*%
X127487500Y-93700000D03*
%TD*%
D11*
%TO.P,Q202,1,B*%
%TO.N,Net-(D201-Pad1)*%
X122687500Y-68043750D03*
%TO.P,Q202,2,E*%
%TO.N,/2. Current Sink 1/DRV_OUT_L*%
X124587500Y-68043750D03*
%TO.P,Q202,3,C*%
%TO.N,GND*%
X123637500Y-65868750D03*
%TD*%
D17*
%TO.P,C201,1*%
%TO.N,GND*%
X121825000Y-73200000D03*
%TO.P,C201,2*%
%TO.N,+5V*%
X123375000Y-73200000D03*
%TD*%
D14*
%TO.P,TP201,1,1*%
%TO.N,/2. Current Sink 1/EA_OUT*%
X118150000Y-64800000D03*
%TD*%
D22*
%TO.P,R203,1*%
%TO.N,/2. Current Sink 1/SOURCE*%
X123962500Y-83325000D03*
%TO.P,R203,2*%
%TO.N,/2. Current Sink 1/SOURCE-F*%
X118037500Y-83325000D03*
%TD*%
D20*
%TO.P,D200,1,K*%
%TO.N,/2. Current Sink 1/EA_OUT*%
X117850000Y-68050000D03*
%TO.P,D200,2,A*%
%TO.N,Net-(D200-Pad2)*%
X119250000Y-68050000D03*
%TD*%
D26*
%TO.P,H103,1,1*%
%TO.N,IN+*%
X124000000Y-56000000D03*
%TD*%
D31*
%TO.P,J103,1,Pin_1*%
%TO.N,/NTC*%
X162037500Y-93692500D03*
D32*
%TO.P,J103,2,Pin_2*%
%TO.N,GND*%
X162037500Y-96232500D03*
%TD*%
D31*
%TO.P,J100,1,Pin_1*%
%TO.N,/NTC*%
X163000000Y-57700000D03*
D32*
%TO.P,J100,2,Pin_2*%
%TO.N,GND*%
X160460000Y-57700000D03*
%TO.P,J100,3,Pin_3*%
%TO.N,/EN*%
X157920000Y-57700000D03*
%TO.P,J100,4,Pin_4*%
%TO.N,/ISET*%
X155380000Y-57700000D03*
%TO.P,J100,5,Pin_5*%
%TO.N,/ISEN2*%
X152840000Y-57700000D03*
%TO.P,J100,6,Pin_6*%
%TO.N,/ISEN1*%
X150300000Y-57700000D03*
%TO.P,J100,7,Pin_7*%
%TO.N,GND*%
X147760000Y-57700000D03*
%TO.P,J100,8,Pin_8*%
%TO.N,+12V*%
X145220000Y-57700000D03*
%TD*%
D31*
%TO.P,J101,1,Pin_1*%
%TO.N,+12V*%
X145220000Y-132300000D03*
D32*
%TO.P,J101,2,Pin_2*%
%TO.N,GND*%
X147760000Y-132300000D03*
%TO.P,J101,3,Pin_3*%
%TO.N,/ISEN1*%
X150300000Y-132300000D03*
%TO.P,J101,4,Pin_4*%
%TO.N,/ISEN2*%
X152840000Y-132300000D03*
%TO.P,J101,5,Pin_5*%
%TO.N,/ISET*%
X155380000Y-132300000D03*
%TO.P,J101,6,Pin_6*%
%TO.N,/EN*%
X157920000Y-132300000D03*
%TO.P,J101,7,Pin_7*%
%TO.N,GND*%
X160460000Y-132300000D03*
%TO.P,J101,8,Pin_8*%
%TO.N,/NTC*%
X163000000Y-132300000D03*
%TD*%
D33*
%TO.N,+5V*%
X136250000Y-93900000D03*
X135350000Y-93100000D03*
X123530000Y-111800000D03*
X123500000Y-74000000D03*
X134400000Y-93900000D03*
%TO.N,+12V*%
X114000000Y-76450000D03*
X143000000Y-132000000D03*
X132700000Y-91500000D03*
X124090000Y-98020000D03*
X142000000Y-59000000D03*
X115612500Y-106850000D03*
X114000000Y-114250000D03*
X143000000Y-58000000D03*
X131800000Y-92300000D03*
X144000000Y-59000000D03*
X142000000Y-131000000D03*
X125260000Y-98700000D03*
X139400000Y-93600000D03*
X138600000Y-93900000D03*
X144000000Y-131000000D03*
X115612500Y-69050000D03*
%TO.N,EA_OFFSET*%
X120600000Y-79600000D03*
X122300000Y-96400000D03*
X119925000Y-116750000D03*
%TO.N,/EN*%
X162900000Y-100100000D03*
%TO.N,/ISET*%
X158600000Y-99900000D03*
%TO.N,/ISEN2*%
X157700000Y-100750000D03*
X119925000Y-113524500D03*
X119925000Y-100700000D03*
%TO.N,/ISEN1*%
X119850000Y-90800000D03*
X119850000Y-77075000D03*
X160200000Y-91200000D03*
%TO.N,/ISET_BUF*%
X119925000Y-75475500D03*
X118950000Y-91650000D03*
X119275000Y-112600000D03*
D34*
%TO.N,GND*%
X112000000Y-90000000D03*
X112000000Y-89100000D03*
D33*
X126600000Y-93700000D03*
X136800000Y-92200000D03*
D34*
X112900000Y-127800000D03*
D33*
X134600000Y-96200000D03*
D34*
X111100000Y-89100000D03*
D33*
X142000000Y-136500000D03*
X115300000Y-79775000D03*
D34*
X112900000Y-126900000D03*
X112000000Y-88200000D03*
D33*
X143000000Y-54500000D03*
X115675000Y-117250000D03*
D34*
X112000000Y-125100000D03*
D33*
X127225000Y-66025000D03*
D34*
X113800000Y-89100000D03*
D33*
X137650000Y-92250000D03*
X127255000Y-103825000D03*
D34*
X112000000Y-126900000D03*
X114700000Y-126900000D03*
D33*
X120525000Y-115800000D03*
D34*
X111100000Y-126900000D03*
D33*
X142000000Y-53500000D03*
X143000000Y-53500000D03*
X125300000Y-96900000D03*
D34*
X123650000Y-66725000D03*
D33*
X135200000Y-91525000D03*
X113325000Y-79600000D03*
D34*
X113800000Y-127800000D03*
D33*
X131120000Y-99490000D03*
D34*
X111100000Y-90000000D03*
X111100000Y-88200000D03*
D33*
X120900000Y-68600000D03*
X128750000Y-94070000D03*
X114275000Y-79775000D03*
X121730000Y-111800000D03*
X129500000Y-91400000D03*
X113100000Y-78850000D03*
X120525000Y-78000000D03*
D34*
X112000000Y-127800000D03*
X112000000Y-126000000D03*
D33*
X157000000Y-95350000D03*
D34*
X111100000Y-87300000D03*
X112000000Y-87300000D03*
X117212500Y-69050000D03*
D33*
X138300000Y-97050000D03*
X113100000Y-116650000D03*
D34*
X117212500Y-106850000D03*
D33*
X134400000Y-98800000D03*
D34*
X112900000Y-90000000D03*
X111100000Y-127800000D03*
D33*
X121400000Y-95300000D03*
D34*
X114700000Y-89100000D03*
D33*
X143000000Y-136500000D03*
X121650000Y-105675000D03*
D34*
X111100000Y-126000000D03*
D33*
X121700000Y-74000000D03*
X143000000Y-135500000D03*
D34*
X113800000Y-126900000D03*
X113800000Y-90000000D03*
D33*
X137400000Y-94250000D03*
D34*
X114700000Y-90000000D03*
X114700000Y-127800000D03*
X123680000Y-104525000D03*
X112900000Y-89100000D03*
X111100000Y-125100000D03*
%TD*%
D35*
%TO.N,/2. Current Sink 1/EA+*%
X118275000Y-79600000D02*
X118275000Y-78050000D01*
X118275000Y-78050000D02*
X118325000Y-78000000D01*
X118325000Y-78000000D02*
X117200000Y-78000000D01*
X117200000Y-78000000D02*
X116675000Y-78525000D01*
X116675000Y-78525000D02*
X116675000Y-78750000D01*
%TO.N,/ISET_FILT*%
X129475000Y-98700000D02*
X129475000Y-96900000D01*
X129475000Y-96900000D02*
X129475000Y-95065000D01*
X127715000Y-98700000D02*
X129495000Y-98700000D01*
X129475000Y-95065000D02*
X129520000Y-95020000D01*
X127765000Y-96900000D02*
X129475000Y-96900000D01*
%TO.N,/2. Current Sink 1/EA_FB*%
X118275000Y-76400000D02*
X116725000Y-76400000D01*
X116675000Y-76450000D02*
X116675000Y-74950000D01*
X116825000Y-73200000D02*
X116825000Y-74800000D01*
X118275000Y-74800000D02*
X118275000Y-76400000D01*
X116675000Y-74950000D02*
X116825000Y-74800000D01*
X116725000Y-76400000D02*
X116675000Y-76450000D01*
%TO.N,/2. Current Sink 1/EA_OUT*%
X113750000Y-74825000D02*
X115250000Y-74825000D01*
X113750000Y-74825000D02*
X113125000Y-74825000D01*
X113125000Y-74825000D02*
X112800000Y-74500000D01*
X114775000Y-78750000D02*
X114775000Y-77975000D01*
X115200000Y-68050000D02*
X117850000Y-68050000D01*
X115250000Y-74825000D02*
X115275000Y-74800000D01*
X113150000Y-72200000D02*
X114200000Y-72200000D01*
X114200000Y-72200000D02*
X114500000Y-71900000D01*
X114500000Y-71900000D02*
X114500000Y-68750000D01*
X112800000Y-72550000D02*
X113150000Y-72200000D01*
X112800000Y-74500000D02*
X112800000Y-72550000D01*
X117850000Y-66397500D02*
X117850000Y-64950000D01*
X115575000Y-77175000D02*
X115575000Y-75100000D01*
X117850000Y-68050000D02*
X117850000Y-66397500D01*
X115575000Y-75100000D02*
X115275000Y-74800000D01*
X114775000Y-77975000D02*
X115575000Y-77175000D01*
X114500000Y-68750000D02*
X115200000Y-68050000D01*
X117850000Y-64950000D02*
X117900000Y-64900000D01*
D36*
%TO.N,+5V*%
X135825000Y-96945000D02*
X135830000Y-96950000D01*
X159382500Y-95417500D02*
X158675000Y-96125000D01*
X159437500Y-95417500D02*
X159382500Y-95417500D01*
X135825000Y-96125000D02*
X135825000Y-96945000D01*
D37*
X135775000Y-95100000D02*
X135775000Y-93725000D01*
D38*
X135775000Y-93725000D02*
X136250000Y-93250000D01*
D36*
X158675000Y-96125000D02*
X135825000Y-96125000D01*
D39*
%TO.N,+12V*%
X115612500Y-69712500D02*
X115600000Y-69725000D01*
X124090000Y-98020000D02*
X124085000Y-98025000D01*
X115612500Y-69050000D02*
X115612500Y-69712500D01*
X124085000Y-98025000D02*
X123300000Y-98025000D01*
X115612500Y-106850000D02*
X115612500Y-107512500D01*
X126075000Y-98700000D02*
X125260000Y-98700000D01*
D35*
X139250000Y-91350000D02*
X139400000Y-91500000D01*
D39*
X115612500Y-107512500D02*
X115600000Y-107525000D01*
D35*
X138550000Y-91350000D02*
X139250000Y-91350000D01*
X139400000Y-91500000D02*
X139400000Y-93600000D01*
D39*
%TO.N,/2. Current Sink 1/DRV_VCC*%
X118187500Y-71325000D02*
X118287500Y-71225000D01*
X115650000Y-71325000D02*
X115600000Y-71375000D01*
X117200000Y-71325000D02*
X115650000Y-71325000D01*
X118287500Y-71225000D02*
X118287500Y-73187500D01*
X117200000Y-71325000D02*
X118187500Y-71325000D01*
X118287500Y-71225000D02*
X118962500Y-70550000D01*
D35*
%TO.N,Net-(C204-Pad2)*%
X115275000Y-73200000D02*
X113775000Y-73200000D01*
X113775000Y-73200000D02*
X113750000Y-73175000D01*
%TO.N,/3. Current Sink 2/EA+*%
X118325000Y-115800000D02*
X117200000Y-115800000D01*
X118275000Y-117400000D02*
X118275000Y-115850000D01*
X117200000Y-115800000D02*
X116675000Y-116325000D01*
X118275000Y-115850000D02*
X118325000Y-115800000D01*
X116675000Y-116325000D02*
X116675000Y-116550000D01*
%TO.N,/3. Current Sink 2/EA_FB*%
X116825000Y-111000000D02*
X116825000Y-112600000D01*
X116675000Y-112750000D02*
X116825000Y-112600000D01*
X118275000Y-112600000D02*
X118275000Y-114200000D01*
X116725000Y-114200000D02*
X116675000Y-114250000D01*
X118275000Y-114200000D02*
X116725000Y-114200000D01*
X116675000Y-114250000D02*
X116675000Y-112750000D01*
%TO.N,/3. Current Sink 2/EA_OUT*%
X115250000Y-112625000D02*
X115275000Y-112600000D01*
X117880000Y-102750000D02*
X117930000Y-102700000D01*
X113150000Y-110000000D02*
X114200000Y-110000000D01*
X113125000Y-112625000D02*
X112800000Y-112300000D01*
X117880000Y-105850000D02*
X117880000Y-104197500D01*
X114200000Y-110000000D02*
X114500000Y-109700000D01*
X113750000Y-112625000D02*
X115250000Y-112625000D01*
X114775000Y-115775000D02*
X115575000Y-114975000D01*
X115575000Y-112900000D02*
X115275000Y-112600000D01*
X117880000Y-104197500D02*
X117880000Y-102750000D01*
X114775000Y-116550000D02*
X114775000Y-115775000D01*
X112800000Y-110350000D02*
X113150000Y-110000000D01*
X112800000Y-112300000D02*
X112800000Y-110350000D01*
X114500000Y-106550000D02*
X115200000Y-105850000D01*
X115575000Y-114975000D02*
X115575000Y-112900000D01*
X113750000Y-112625000D02*
X113125000Y-112625000D01*
X114500000Y-109700000D02*
X114500000Y-106550000D01*
X115200000Y-105850000D02*
X117850000Y-105850000D01*
%TO.N,Net-(C304-Pad2)*%
X113775000Y-111000000D02*
X113750000Y-110975000D01*
X115275000Y-111000000D02*
X113775000Y-111000000D01*
%TO.N,/2. Current Sink 1/SOURCE-F*%
X118037500Y-85512500D02*
X118125000Y-85600000D01*
X120725000Y-82575000D02*
X122925000Y-80375000D01*
X120725000Y-85300000D02*
X120725000Y-82575000D01*
X120425000Y-85600000D02*
X120725000Y-85300000D01*
X122925000Y-80375000D02*
X122925000Y-79200000D01*
X118125000Y-85600000D02*
X120425000Y-85600000D01*
X118037500Y-83325000D02*
X118037500Y-85512500D01*
%TO.N,Net-(D200-Pad2)*%
X120050000Y-69900000D02*
X120050000Y-71500000D01*
X120050000Y-73075000D02*
X119925000Y-73200000D01*
X120050000Y-71500000D02*
X120050000Y-73075000D01*
X119250000Y-68050000D02*
X119250000Y-69100000D01*
D40*
X119925000Y-73200000D02*
X120100000Y-73025000D01*
D35*
X119250000Y-69100000D02*
X120050000Y-69900000D01*
X121137500Y-71500000D02*
X120050000Y-71500000D01*
%TO.N,/3. Current Sink 2/SOURCE-F*%
X118155000Y-123400000D02*
X120455000Y-123400000D01*
X118067500Y-123312500D02*
X118155000Y-123400000D01*
X120755000Y-120375000D02*
X122955000Y-118175000D01*
X118067500Y-121125000D02*
X118067500Y-123312500D01*
X120755000Y-123100000D02*
X120755000Y-120375000D01*
X120455000Y-123400000D02*
X120755000Y-123100000D01*
X122955000Y-118175000D02*
X122955000Y-117000000D01*
%TO.N,Net-(R101-Pad2)*%
X125187500Y-92875000D02*
X125312500Y-92750000D01*
X123300000Y-92875000D02*
X125187500Y-92875000D01*
X121400000Y-92875000D02*
X123300000Y-92875000D01*
%TO.N,/2. Current Sink 1/GATE*%
X126450000Y-67675000D02*
X126450000Y-70180000D01*
D39*
X124200000Y-71275000D02*
X122650000Y-71275000D01*
X124200000Y-71275000D02*
X126295000Y-71275000D01*
D35*
X126450000Y-70180000D02*
X126920000Y-70650000D01*
D39*
X126295000Y-71275000D02*
X126920000Y-70650000D01*
%TO.N,/3. Current Sink 2/DRV_VCC*%
X117200000Y-109125000D02*
X115650000Y-109125000D01*
X118287500Y-109025000D02*
X118287500Y-110987500D01*
X117200000Y-109125000D02*
X118187500Y-109125000D01*
X115650000Y-109125000D02*
X115600000Y-109175000D01*
X118287500Y-109025000D02*
X118962500Y-108350000D01*
D35*
%TO.N,EA_OFFSET*%
X122325000Y-96375000D02*
X123300000Y-96375000D01*
X125187500Y-94525000D02*
X125312500Y-94650000D01*
X119925000Y-117400000D02*
X119925000Y-116750000D01*
X119925000Y-79600000D02*
X120600000Y-79600000D01*
X122300000Y-96400000D02*
X122325000Y-96375000D01*
X121000000Y-97200000D02*
X121800000Y-96400000D01*
X123300000Y-94525000D02*
X123300000Y-96375000D01*
X123300000Y-94525000D02*
X125187500Y-94525000D01*
X121800000Y-96400000D02*
X122300000Y-96400000D01*
%TO.N,Net-(R104-Pad1)*%
X131175000Y-96950000D02*
X131125000Y-96900000D01*
X133530000Y-96950000D02*
X131175000Y-96950000D01*
%TO.N,Net-(D201-Pad1)*%
X119250000Y-66397500D02*
X120727500Y-66397500D01*
X120900000Y-66225000D02*
X122275000Y-66225000D01*
X122687500Y-66637500D02*
X122687500Y-68043750D01*
X120727500Y-66397500D02*
X120900000Y-66225000D01*
X122275000Y-66225000D02*
X122687500Y-66637500D01*
%TO.N,/EN*%
X157920000Y-129080000D02*
X157920000Y-132300000D01*
X162900000Y-100100000D02*
X162900000Y-126750000D01*
X135830000Y-98850000D02*
X137325000Y-98850000D01*
X137470000Y-98705000D02*
X161505000Y-98705000D01*
X161200000Y-128450000D02*
X158550000Y-128450000D01*
X137325000Y-98850000D02*
X137470000Y-98705000D01*
X162900000Y-126750000D02*
X161200000Y-128450000D01*
X161505000Y-98705000D02*
X162900000Y-100100000D01*
X158550000Y-128450000D02*
X157920000Y-129080000D01*
D36*
%TO.N,/NTC*%
X163800000Y-94200000D02*
X163800000Y-127000000D01*
X162037500Y-93692500D02*
X163292500Y-93692500D01*
X159445000Y-93692500D02*
X159437500Y-93700000D01*
X163000000Y-61500000D02*
X163000000Y-57700000D01*
X162037500Y-93692500D02*
X162037500Y-62462500D01*
X159437500Y-93700000D02*
X157900000Y-93700000D01*
X163800000Y-127000000D02*
X163000000Y-127800000D01*
X162037500Y-62462500D02*
X163000000Y-61500000D01*
X163000000Y-127800000D02*
X163000000Y-132300000D01*
X162037500Y-93692500D02*
X159445000Y-93692500D01*
X163292500Y-93692500D02*
X163800000Y-94200000D01*
D35*
%TO.N,Net-(D300-Pad2)*%
X120080000Y-110875000D02*
X119955000Y-111000000D01*
X120080000Y-107700000D02*
X120080000Y-109300000D01*
X120080000Y-109300000D02*
X120080000Y-110875000D01*
X119280000Y-106900000D02*
X120080000Y-107700000D01*
D40*
X119955000Y-111000000D02*
X120130000Y-110825000D01*
D35*
X121167500Y-109300000D02*
X120080000Y-109300000D01*
X119280000Y-105850000D02*
X119280000Y-106900000D01*
%TO.N,Net-(D301-Pad1)*%
X120930000Y-104025000D02*
X122305000Y-104025000D01*
X122717500Y-104437500D02*
X122717500Y-105843750D01*
X120757500Y-104197500D02*
X120930000Y-104025000D01*
X119280000Y-104197500D02*
X120757500Y-104197500D01*
X122305000Y-104025000D02*
X122717500Y-104437500D01*
D39*
%TO.N,/3. Current Sink 2/GATE*%
X124230000Y-109075000D02*
X126325000Y-109075000D01*
X126325000Y-109075000D02*
X126950000Y-108450000D01*
X126275000Y-109075000D02*
X126900000Y-108450000D01*
D35*
X126480000Y-107980000D02*
X126950000Y-108450000D01*
D39*
X124230000Y-109075000D02*
X122680000Y-109075000D01*
D35*
X126480000Y-105475000D02*
X126480000Y-107980000D01*
D38*
X126170000Y-107700000D02*
X126920000Y-108450000D01*
D35*
%TO.N,/3. Current Sink 2/SOURCE*%
X121355000Y-120675000D02*
X123605000Y-118425000D01*
X121355000Y-123100000D02*
X121355000Y-120675000D01*
X121655000Y-123400000D02*
X121355000Y-123100000D01*
X123992500Y-121125000D02*
X124055000Y-121187500D01*
X124055000Y-123400000D02*
X121655000Y-123400000D01*
X123605000Y-118425000D02*
X123605000Y-117000000D01*
X124055000Y-121187500D02*
X124055000Y-123400000D01*
D39*
%TO.N,/2. Current Sink 1/DRV_OUT_U*%
X121137500Y-69600000D02*
X122625000Y-69600000D01*
D35*
%TO.N,/ISET*%
X156100000Y-127700000D02*
X155380000Y-128420000D01*
X155380000Y-128420000D02*
X155380000Y-132300000D01*
X132750000Y-99900000D02*
X132350000Y-99500000D01*
X158600000Y-99900000D02*
X160800000Y-99900000D01*
X162000000Y-126400000D02*
X160700000Y-127700000D01*
X132700000Y-97900000D02*
X133530000Y-97900000D01*
X160700000Y-127700000D02*
X156100000Y-127700000D01*
X132350000Y-99500000D02*
X132350000Y-98250000D01*
X160800000Y-99900000D02*
X162000000Y-101100000D01*
X158600000Y-99900000D02*
X132750000Y-99900000D01*
X162000000Y-101100000D02*
X162000000Y-126400000D01*
X132350000Y-98250000D02*
X132700000Y-97900000D01*
%TO.N,/ISEN2*%
X160450000Y-100750000D02*
X161100000Y-101400000D01*
X160300000Y-126900000D02*
X153500000Y-126900000D01*
X157700000Y-100750000D02*
X157650000Y-100700000D01*
X125200000Y-116600000D02*
X122925000Y-114325000D01*
X122800000Y-114200000D02*
X119925000Y-114200000D01*
X157700000Y-100750000D02*
X160450000Y-100750000D01*
X161100000Y-101400000D02*
X161100000Y-126100000D01*
X157650000Y-100700000D02*
X119925000Y-100700000D01*
X122925000Y-114325000D02*
X122925000Y-112900000D01*
X161100000Y-126100000D02*
X160300000Y-126900000D01*
X152840000Y-127560000D02*
X152840000Y-132300000D01*
X122925000Y-114325000D02*
X122800000Y-114200000D01*
X119925000Y-113524500D02*
X119925000Y-114200000D01*
X153500000Y-126900000D02*
X152840000Y-127560000D01*
%TO.N,/ISEN1*%
X150300000Y-62200000D02*
X150300000Y-57700000D01*
X140400000Y-90000000D02*
X128400000Y-90000000D01*
X160200000Y-91200000D02*
X161100000Y-90300000D01*
X122925000Y-76525000D02*
X122800000Y-76400000D01*
X161100000Y-90300000D02*
X161100000Y-63900000D01*
X161100000Y-63900000D02*
X160300000Y-63100000D01*
X160200000Y-91200000D02*
X141600000Y-91200000D01*
X122925000Y-76525000D02*
X122925000Y-75100000D01*
X119850000Y-77075000D02*
X119850000Y-76475000D01*
X127600000Y-90800000D02*
X119850000Y-90800000D01*
X119850000Y-76475000D02*
X119925000Y-76400000D01*
X141600000Y-91200000D02*
X140400000Y-90000000D01*
X122800000Y-76400000D02*
X119925000Y-76400000D01*
X125200000Y-78800000D02*
X122925000Y-76525000D01*
X151200000Y-63100000D02*
X150300000Y-62200000D01*
X160300000Y-63100000D02*
X151200000Y-63100000D01*
X128400000Y-90000000D02*
X127600000Y-90800000D01*
D39*
%TO.N,/2. Current Sink 1/DRV_OUT_L*%
X124200000Y-69625000D02*
X124200000Y-68431250D01*
X124200000Y-68431250D02*
X124587500Y-68043750D01*
D35*
%TO.N,/ISET_BUF*%
X128310000Y-92860000D02*
X128310000Y-92280000D01*
X130700000Y-94700000D02*
X130700000Y-93500000D01*
X119925000Y-74800000D02*
X119925000Y-75475500D01*
X129520000Y-93120000D02*
X128570000Y-93120000D01*
X131000000Y-95000000D02*
X130700000Y-94700000D01*
X128570000Y-93120000D02*
X128310000Y-92860000D01*
X119925000Y-112600000D02*
X119275000Y-112600000D01*
X130320000Y-93120000D02*
X129520000Y-93120000D01*
X131800000Y-95000000D02*
X131000000Y-95000000D01*
X130700000Y-93500000D02*
X130320000Y-93120000D01*
X128310000Y-92280000D02*
X127680000Y-91650000D01*
X131820000Y-95020000D02*
X131800000Y-95000000D01*
X127680000Y-91650000D02*
X118950000Y-91650000D01*
%TO.N,/2. Current Sink 1/SOURCE*%
X123962500Y-83325000D02*
X124025000Y-83387500D01*
X123575000Y-80625000D02*
X123575000Y-79200000D01*
X121625000Y-85600000D02*
X121325000Y-85300000D01*
X121325000Y-82875000D02*
X123575000Y-80625000D01*
X124025000Y-83387500D02*
X124025000Y-85600000D01*
X124025000Y-85600000D02*
X121625000Y-85600000D01*
X121325000Y-85300000D02*
X121325000Y-82875000D01*
D39*
%TO.N,GND*%
X126480000Y-103825000D02*
X127255000Y-103825000D01*
X119875000Y-78000000D02*
X120525000Y-78000000D01*
X157800000Y-95350000D02*
X157000000Y-95350000D01*
X117212500Y-69762500D02*
X117200000Y-69775000D01*
X129500000Y-91400000D02*
X130225000Y-91400000D01*
X123650000Y-66725000D02*
X123650000Y-65881250D01*
X123680000Y-103681250D02*
X123667500Y-103668750D01*
X120900000Y-67875000D02*
X120900000Y-68600000D01*
D35*
X122305000Y-112125000D02*
X121980000Y-111800000D01*
D39*
X138295000Y-97055000D02*
X138300000Y-97050000D01*
D35*
X122305000Y-112900000D02*
X122305000Y-112125000D01*
D39*
X121650000Y-105675000D02*
X120930000Y-105675000D01*
X123680000Y-104525000D02*
X123680000Y-103681250D01*
D35*
X121950000Y-74000000D02*
X121700000Y-74000000D01*
D39*
X137470000Y-97055000D02*
X138295000Y-97055000D01*
X133530000Y-98850000D02*
X134350000Y-98850000D01*
X121400000Y-94525000D02*
X121400000Y-95300000D01*
D35*
X122275000Y-74325000D02*
X121950000Y-74000000D01*
D41*
X117212500Y-106850000D02*
X117212500Y-107562500D01*
D39*
X117212500Y-107562500D02*
X117200000Y-107575000D01*
X126165000Y-96900000D02*
X125300000Y-96900000D01*
X131120000Y-99490000D02*
X131125000Y-99485000D01*
D35*
X121980000Y-111800000D02*
X121730000Y-111800000D01*
D39*
X126450000Y-66025000D02*
X127225000Y-66025000D01*
D35*
X122275000Y-75100000D02*
X122275000Y-74325000D01*
D39*
X128750000Y-94070000D02*
X129520000Y-94070000D01*
X123650000Y-65881250D02*
X123637500Y-65868750D01*
X131125000Y-99485000D02*
X131125000Y-98700000D01*
X127487500Y-93700000D02*
X126600000Y-93700000D01*
X134350000Y-98850000D02*
X134400000Y-98800000D01*
D41*
X117212500Y-69050000D02*
X117212500Y-69762500D01*
D39*
X119875000Y-115800000D02*
X120525000Y-115800000D01*
%TO.N,/3. Current Sink 2/DRV_OUT_U*%
X121167500Y-107400000D02*
X122655000Y-107400000D01*
%TO.N,/3. Current Sink 2/DRV_OUT_L*%
X124230000Y-106231250D02*
X124617500Y-105843750D01*
X124230000Y-107425000D02*
X124230000Y-106231250D01*
%TD*%
%TA.AperFunction,Conductor*%
%TO.N,GND*%
G36*
X114111189Y-53219962D02*
G01*
X114143946Y-53245574D01*
X116758257Y-55956711D01*
X116795600Y-56024196D01*
X116800000Y-56060137D01*
X116800000Y-62000000D01*
X101000000Y-62000000D01*
X101000000Y-60149000D01*
X101019962Y-60074500D01*
X101074500Y-60019962D01*
X101149000Y-60000000D01*
X104427368Y-60000000D01*
X104446042Y-60001175D01*
X104471943Y-60004447D01*
X104483332Y-60004606D01*
X104495825Y-60004781D01*
X104495831Y-60004781D01*
X104500000Y-60004839D01*
X104502417Y-60004602D01*
X104954574Y-59985901D01*
X104957620Y-59985521D01*
X104957624Y-59985521D01*
X105402987Y-59930006D01*
X105402986Y-59930006D01*
X105406044Y-59929625D01*
X105409051Y-59928995D01*
X105409060Y-59928993D01*
X105738966Y-59859819D01*
X105851324Y-59836260D01*
X105854263Y-59835385D01*
X105854271Y-59835383D01*
X106284423Y-59707322D01*
X106284433Y-59707319D01*
X106287374Y-59706443D01*
X106290239Y-59705325D01*
X106290245Y-59705323D01*
X106708350Y-59542178D01*
X106708360Y-59542174D01*
X106711214Y-59541060D01*
X107119949Y-59341242D01*
X107510787Y-59108353D01*
X107881058Y-58843984D01*
X108228234Y-58549941D01*
X108549941Y-58228234D01*
X108843984Y-57881058D01*
X109108353Y-57510787D01*
X109341242Y-57119949D01*
X109412165Y-56974874D01*
X109539708Y-56713980D01*
X109539710Y-56713976D01*
X109541060Y-56711214D01*
X109706443Y-56287374D01*
X109836260Y-55851324D01*
X109859819Y-55738966D01*
X109928993Y-55409060D01*
X109928995Y-55409051D01*
X109929625Y-55406044D01*
X109985901Y-54954574D01*
X110002842Y-54544984D01*
X110003888Y-54532484D01*
X110003925Y-54532194D01*
X110003926Y-54532184D01*
X110004447Y-54528057D01*
X110004839Y-54500000D01*
X110000711Y-54457899D01*
X110000000Y-54443359D01*
X110000000Y-53349000D01*
X110019962Y-53274500D01*
X110074500Y-53219962D01*
X110149000Y-53200000D01*
X114036689Y-53200000D01*
X114111189Y-53219962D01*
G37*
%TD.AperFunction*%
%TD*%
%TA.AperFunction,Conductor*%
%TO.N,+12V*%
G36*
X114937782Y-113769962D02*
G01*
X114968641Y-113793641D01*
X115031359Y-113856359D01*
X115069923Y-113923154D01*
X115075000Y-113961718D01*
X115075000Y-114538282D01*
X115055038Y-114612782D01*
X115031359Y-114643641D01*
X114968641Y-114706359D01*
X114901846Y-114744923D01*
X114863282Y-114750000D01*
X112802266Y-114750000D01*
X112727766Y-114730038D01*
X112709186Y-114717349D01*
X112680920Y-114694736D01*
X112635216Y-114632608D01*
X112625000Y-114578387D01*
X112625000Y-114057177D01*
X112644962Y-113982677D01*
X112663249Y-113957501D01*
X112805608Y-113799324D01*
X112870284Y-113757303D01*
X112916359Y-113750000D01*
X114863282Y-113750000D01*
X114937782Y-113769962D01*
G37*
%TD.AperFunction*%
%TD*%
%TA.AperFunction,Conductor*%
%TO.N,+12V*%
G36*
X132716154Y-90949962D02*
G01*
X132742831Y-90969619D01*
X133052177Y-91255764D01*
X133093312Y-91321007D01*
X133100000Y-91365145D01*
X133100000Y-92940399D01*
X133080038Y-93014899D01*
X133058897Y-93043158D01*
X132744039Y-93373759D01*
X132678204Y-93413940D01*
X132636142Y-93420000D01*
X131570608Y-93420000D01*
X131496108Y-93400038D01*
X131455288Y-93365352D01*
X131353680Y-93241164D01*
X131321954Y-93170864D01*
X131320000Y-93146812D01*
X131320000Y-91263311D01*
X131339962Y-91188811D01*
X131365574Y-91156054D01*
X131556711Y-90971743D01*
X131624196Y-90934400D01*
X131660137Y-90930000D01*
X132641654Y-90930000D01*
X132716154Y-90949962D01*
G37*
%TD.AperFunction*%
%TD*%
%TA.AperFunction,Conductor*%
%TO.N,+5V*%
G36*
X123624833Y-72769962D02*
G01*
X123639733Y-72779800D01*
X123740400Y-72855300D01*
X123788023Y-72915970D01*
X123800000Y-72974500D01*
X123800000Y-75651000D01*
X123780038Y-75725500D01*
X123725500Y-75780038D01*
X123651000Y-75800000D01*
X123499500Y-75800000D01*
X123425000Y-75780038D01*
X123370462Y-75725500D01*
X123350500Y-75651000D01*
X123350500Y-74355252D01*
X123350167Y-74353579D01*
X123350000Y-74350174D01*
X123350000Y-74300000D01*
X123339134Y-74291307D01*
X123330065Y-74280753D01*
X123331143Y-74279827D01*
X123317911Y-74265406D01*
X123302707Y-74242652D01*
X123302706Y-74242651D01*
X123294552Y-74230448D01*
X123228231Y-74186133D01*
X123213835Y-74183269D01*
X123213834Y-74183269D01*
X123176923Y-74175927D01*
X123176921Y-74175927D01*
X123169748Y-74174500D01*
X123074000Y-74174500D01*
X122999500Y-74154538D01*
X122944962Y-74100000D01*
X122925000Y-74025500D01*
X122925000Y-72968530D01*
X122944962Y-72894030D01*
X122977033Y-72855400D01*
X123058152Y-72785870D01*
X123127708Y-72752543D01*
X123155119Y-72750000D01*
X123550333Y-72750000D01*
X123624833Y-72769962D01*
G37*
%TD.AperFunction*%
%TD*%
%TA.AperFunction,Conductor*%
%TO.N,/3. Current Sink 2/SOURCE-F*%
G36*
X118442782Y-119469962D02*
G01*
X118473641Y-119493641D01*
X118636359Y-119656359D01*
X118674923Y-119723154D01*
X118680000Y-119761718D01*
X118680000Y-127028387D01*
X118660038Y-127102887D01*
X118624080Y-127144736D01*
X118470814Y-127267349D01*
X118400169Y-127298301D01*
X118377734Y-127300000D01*
X116785583Y-127300000D01*
X116711083Y-127280038D01*
X116687998Y-127263598D01*
X116406415Y-127019560D01*
X116363190Y-126955682D01*
X116355000Y-126906962D01*
X116355000Y-124200000D01*
X116030000Y-123850000D01*
X113315607Y-123850000D01*
X113241107Y-123830038D01*
X113205701Y-123801606D01*
X112694094Y-123242708D01*
X112658515Y-123174277D01*
X112655000Y-123142102D01*
X112655000Y-119886133D01*
X112674962Y-119811633D01*
X112697936Y-119781484D01*
X112981240Y-119494351D01*
X113047775Y-119455339D01*
X113087304Y-119450000D01*
X118368282Y-119450000D01*
X118442782Y-119469962D01*
G37*
%TD.AperFunction*%
%TD*%
%TA.AperFunction,Conductor*%
%TO.N,+5V*%
G36*
X136151904Y-94639962D02*
G01*
X136194742Y-94677170D01*
X136298338Y-94809543D01*
X136328533Y-94880515D01*
X136330000Y-94901373D01*
X136330000Y-97044417D01*
X136310038Y-97118917D01*
X136293598Y-97142001D01*
X136244560Y-97198584D01*
X136180683Y-97241809D01*
X136131962Y-97250000D01*
X135594293Y-97250000D01*
X135519793Y-97230038D01*
X135512899Y-97225804D01*
X135387606Y-97144091D01*
X135336109Y-97086673D01*
X135320000Y-97019287D01*
X135320000Y-94911718D01*
X135339962Y-94837218D01*
X135363641Y-94806359D01*
X135506359Y-94663641D01*
X135573154Y-94625077D01*
X135611718Y-94620000D01*
X136077404Y-94620000D01*
X136151904Y-94639962D01*
G37*
%TD.AperFunction*%
%TD*%
%TA.AperFunction,Conductor*%
%TO.N,GND*%
G36*
X122082589Y-72744962D02*
G01*
X122119453Y-72775010D01*
X122237364Y-72907660D01*
X122271939Y-72976604D01*
X122275000Y-73006650D01*
X122275000Y-74051000D01*
X122255038Y-74125500D01*
X122200500Y-74180038D01*
X122126000Y-74200000D01*
X121950000Y-74200000D01*
X121850000Y-74300000D01*
X121850000Y-75551000D01*
X121830038Y-75625500D01*
X121775500Y-75680038D01*
X121701000Y-75700000D01*
X121549000Y-75700000D01*
X121474500Y-75680038D01*
X121419962Y-75625500D01*
X121400000Y-75551000D01*
X121400000Y-72967611D01*
X121419962Y-72893111D01*
X121450883Y-72855477D01*
X121557868Y-72761866D01*
X121627079Y-72727831D01*
X121655984Y-72725000D01*
X122008089Y-72725000D01*
X122082589Y-72744962D01*
G37*
%TD.AperFunction*%
%TD*%
%TA.AperFunction,Conductor*%
%TO.N,GND*%
G36*
X134412782Y-94644962D02*
G01*
X134443641Y-94668641D01*
X134631359Y-94856359D01*
X134669923Y-94923154D01*
X134675000Y-94961718D01*
X134675000Y-95700000D01*
X134682359Y-95707849D01*
X134682359Y-95707850D01*
X135009701Y-96057014D01*
X135046091Y-96125017D01*
X135050000Y-96158921D01*
X135050000Y-98796055D01*
X135030038Y-98870555D01*
X135015465Y-98891442D01*
X134862084Y-99075500D01*
X134844678Y-99096387D01*
X134781649Y-99140840D01*
X134730213Y-99150000D01*
X134149000Y-99150000D01*
X134074500Y-99130038D01*
X134019962Y-99075500D01*
X134000000Y-99001000D01*
X134000000Y-98661718D01*
X134019962Y-98587218D01*
X134043641Y-98556359D01*
X134250000Y-98350000D01*
X134250000Y-96550000D01*
X133996798Y-96310125D01*
X133821526Y-96144077D01*
X133781171Y-96078348D01*
X133775000Y-96035910D01*
X133775000Y-94953188D01*
X133794962Y-94878688D01*
X133808680Y-94858836D01*
X133955288Y-94679648D01*
X134017914Y-94634629D01*
X134070608Y-94625000D01*
X134338282Y-94625000D01*
X134412782Y-94644962D01*
G37*
%TD.AperFunction*%
%TD*%
%TA.AperFunction,Conductor*%
%TO.N,+12V*%
G36*
X114937782Y-75969962D02*
G01*
X114968641Y-75993641D01*
X115031359Y-76056359D01*
X115069923Y-76123154D01*
X115075000Y-76161718D01*
X115075000Y-76738282D01*
X115055038Y-76812782D01*
X115031359Y-76843641D01*
X114968641Y-76906359D01*
X114901846Y-76944923D01*
X114863282Y-76950000D01*
X112802266Y-76950000D01*
X112727766Y-76930038D01*
X112709186Y-76917349D01*
X112680920Y-76894736D01*
X112635216Y-76832608D01*
X112625000Y-76778387D01*
X112625000Y-76257177D01*
X112644962Y-76182677D01*
X112663249Y-76157501D01*
X112805608Y-75999324D01*
X112870284Y-75957303D01*
X112916359Y-75950000D01*
X114863282Y-75950000D01*
X114937782Y-75969962D01*
G37*
%TD.AperFunction*%
%TD*%
%TA.AperFunction,Conductor*%
%TO.N,GND*%
G36*
X135312782Y-91119962D02*
G01*
X135343641Y-91143641D01*
X135505859Y-91305859D01*
X135544423Y-91372654D01*
X135549500Y-91411218D01*
X135549500Y-91533218D01*
X135549833Y-91535479D01*
X135550000Y-91540047D01*
X135550000Y-91675000D01*
X135725000Y-91850000D01*
X135859892Y-91850000D01*
X135864500Y-91850167D01*
X135866782Y-91850500D01*
X136633218Y-91850500D01*
X136635479Y-91850167D01*
X136640047Y-91850000D01*
X137639825Y-91850000D01*
X137706460Y-91865730D01*
X137959485Y-91992243D01*
X137959487Y-91992243D01*
X137975000Y-92000000D01*
X138476000Y-92000000D01*
X138550500Y-92019962D01*
X138605038Y-92074500D01*
X138625000Y-92149000D01*
X138625000Y-92451000D01*
X138605038Y-92525500D01*
X138550500Y-92580038D01*
X138476000Y-92600000D01*
X136755984Y-92600000D01*
X136681484Y-92580038D01*
X136657867Y-92563134D01*
X136514763Y-92437918D01*
X136514764Y-92437918D01*
X136500000Y-92425000D01*
X134236718Y-92425000D01*
X134162218Y-92405038D01*
X134131359Y-92381359D01*
X133968641Y-92218641D01*
X133930077Y-92151846D01*
X133925000Y-92113282D01*
X133925000Y-91366911D01*
X133944962Y-91292411D01*
X133975010Y-91255547D01*
X134107660Y-91137636D01*
X134176604Y-91103061D01*
X134206650Y-91100000D01*
X135238282Y-91100000D01*
X135312782Y-91119962D01*
G37*
%TD.AperFunction*%
%TD*%
%TA.AperFunction,Conductor*%
%TO.N,/2. Current Sink 1/SOURCE*%
G36*
X126914971Y-80069962D02*
G01*
X126943141Y-80091019D01*
X128378622Y-81455903D01*
X128418857Y-81521705D01*
X128424952Y-81563995D01*
X128424803Y-81761849D01*
X128420045Y-88079645D01*
X128400027Y-88154130D01*
X128377965Y-88183308D01*
X127143895Y-89454775D01*
X127077683Y-89494331D01*
X127036975Y-89500000D01*
X123668904Y-89500000D01*
X123594404Y-89480038D01*
X123555375Y-89447500D01*
X123380471Y-89241731D01*
X123347431Y-89172038D01*
X123345000Y-89145231D01*
X123345000Y-81761849D01*
X123364962Y-81687349D01*
X123388801Y-81656331D01*
X123589837Y-81455903D01*
X124956387Y-80093482D01*
X125023239Y-80055019D01*
X125061585Y-80050000D01*
X126840471Y-80050000D01*
X126914971Y-80069962D01*
G37*
%TD.AperFunction*%
%TD*%
%TA.AperFunction,Conductor*%
%TO.N,+5V*%
G36*
X136400722Y-92669962D02*
G01*
X136414335Y-92678846D01*
X136689113Y-92880350D01*
X136737385Y-92940504D01*
X136750000Y-93000504D01*
X136750000Y-93867041D01*
X136730038Y-93941541D01*
X136710836Y-93967724D01*
X136524146Y-94171387D01*
X136519291Y-94176683D01*
X136454235Y-94218112D01*
X136409455Y-94225000D01*
X134244787Y-94225000D01*
X134170287Y-94205038D01*
X134130322Y-94171387D01*
X133959535Y-93966442D01*
X133927177Y-93896430D01*
X133925000Y-93871055D01*
X133925000Y-92936718D01*
X133944962Y-92862218D01*
X133968641Y-92831359D01*
X134106359Y-92693641D01*
X134173154Y-92655077D01*
X134211718Y-92650000D01*
X136326222Y-92650000D01*
X136400722Y-92669962D01*
G37*
%TD.AperFunction*%
%TD*%
%TA.AperFunction,Conductor*%
%TO.N,GND*%
G36*
X147172586Y-52869962D02*
G01*
X147190674Y-52882259D01*
X148543589Y-53955260D01*
X148589554Y-54017193D01*
X148600000Y-54072000D01*
X148600000Y-57501000D01*
X148580038Y-57575500D01*
X148525500Y-57630038D01*
X148451000Y-57650000D01*
X147049000Y-57650000D01*
X146974500Y-57630038D01*
X146919962Y-57575500D01*
X146900000Y-57501000D01*
X146900000Y-55850000D01*
X146100000Y-55050000D01*
X140974500Y-55050000D01*
X140900000Y-55030038D01*
X140855300Y-54990400D01*
X140629800Y-54689733D01*
X140601070Y-54618156D01*
X140600000Y-54600333D01*
X140600000Y-53564974D01*
X140619962Y-53490474D01*
X140647613Y-53455788D01*
X141257123Y-52889814D01*
X141325299Y-52853748D01*
X141358510Y-52850000D01*
X147098086Y-52850000D01*
X147172586Y-52869962D01*
G37*
%TD.AperFunction*%
%TD*%
%TA.AperFunction,Conductor*%
%TO.N,GND*%
G36*
X116800000Y-134036689D02*
G01*
X116780038Y-134111189D01*
X116754426Y-134143946D01*
X114043289Y-136758257D01*
X113975804Y-136795600D01*
X113939863Y-136800000D01*
X110149000Y-136800000D01*
X110074500Y-136780038D01*
X110019962Y-136725500D01*
X110000000Y-136651000D01*
X110000000Y-135572632D01*
X110001175Y-135553958D01*
X110003925Y-135532187D01*
X110004447Y-135528057D01*
X110004839Y-135500000D01*
X110004602Y-135497583D01*
X109985901Y-135045426D01*
X109929625Y-134593956D01*
X109906571Y-134484003D01*
X109836891Y-134151686D01*
X109836260Y-134148676D01*
X109825100Y-134111189D01*
X109707322Y-133715577D01*
X109707319Y-133715567D01*
X109706443Y-133712626D01*
X109541060Y-133288786D01*
X109536581Y-133279623D01*
X109342599Y-132882827D01*
X109341242Y-132880051D01*
X109108353Y-132489213D01*
X108843984Y-132118942D01*
X108549941Y-131771766D01*
X108228234Y-131450059D01*
X107881058Y-131156016D01*
X107510787Y-130891647D01*
X107119949Y-130658758D01*
X106711214Y-130458940D01*
X106708360Y-130457826D01*
X106708350Y-130457822D01*
X106290245Y-130294677D01*
X106290239Y-130294675D01*
X106287374Y-130293557D01*
X106284433Y-130292681D01*
X106284423Y-130292678D01*
X105854271Y-130164617D01*
X105854263Y-130164615D01*
X105851324Y-130163740D01*
X105738966Y-130140181D01*
X105409060Y-130071007D01*
X105409051Y-130071005D01*
X105406044Y-130070375D01*
X105298002Y-130056907D01*
X104957624Y-130014479D01*
X104957620Y-130014479D01*
X104954574Y-130014099D01*
X104951505Y-130013972D01*
X104951504Y-130013972D01*
X104544984Y-129997158D01*
X104532484Y-129996112D01*
X104532194Y-129996075D01*
X104532184Y-129996074D01*
X104528057Y-129995553D01*
X104516033Y-129995385D01*
X104504175Y-129995219D01*
X104504169Y-129995219D01*
X104500000Y-129995161D01*
X104495849Y-129995568D01*
X104457899Y-129999289D01*
X104443359Y-130000000D01*
X101149000Y-130000000D01*
X101074500Y-129980038D01*
X101019962Y-129925500D01*
X101000000Y-129851000D01*
X101000000Y-129100000D01*
X116800000Y-129100000D01*
X116800000Y-134036689D01*
G37*
%TD.AperFunction*%
%TD*%
%TA.AperFunction,Conductor*%
%TO.N,GND*%
G36*
X148086237Y-131922648D02*
G01*
X148539970Y-132206231D01*
X148592566Y-132262644D01*
X148610000Y-132332583D01*
X148610000Y-135926186D01*
X148590038Y-136000686D01*
X148551277Y-136044723D01*
X147139999Y-137119537D01*
X147068635Y-137148795D01*
X147049722Y-137150000D01*
X141358510Y-137150000D01*
X141284010Y-137130038D01*
X141257123Y-137110186D01*
X140647613Y-136544212D01*
X140606603Y-136478890D01*
X140600000Y-136435026D01*
X140600000Y-135561718D01*
X140619962Y-135487218D01*
X140643641Y-135456359D01*
X141106359Y-134993641D01*
X141173154Y-134955077D01*
X141211718Y-134950000D01*
X146100000Y-134950000D01*
X146910000Y-134150000D01*
X146910000Y-132410740D01*
X146929962Y-132336240D01*
X146952464Y-132306572D01*
X147306165Y-131944832D01*
X147372522Y-131905519D01*
X147412701Y-131900000D01*
X148007267Y-131900000D01*
X148086237Y-131922648D01*
G37*
%TD.AperFunction*%
%TD*%
%TA.AperFunction,Conductor*%
%TO.N,+12V*%
G36*
X145564899Y-130019962D02*
G01*
X145593158Y-130041103D01*
X146028759Y-130455961D01*
X146068940Y-130521796D01*
X146075000Y-130563858D01*
X146075000Y-132237013D01*
X146055038Y-132311513D01*
X146029821Y-132343888D01*
X145243364Y-133107875D01*
X145176017Y-133145467D01*
X145139543Y-133150000D01*
X140995944Y-133150000D01*
X140921444Y-133130038D01*
X140866906Y-133075500D01*
X140860299Y-133062657D01*
X140613355Y-132519381D01*
X140600000Y-132457724D01*
X140600000Y-131261718D01*
X140619962Y-131187218D01*
X140643641Y-131156359D01*
X141756359Y-130043641D01*
X141823154Y-130005077D01*
X141861718Y-130000000D01*
X145490399Y-130000000D01*
X145564899Y-130019962D01*
G37*
%TD.AperFunction*%
%TD*%
%TA.AperFunction,Conductor*%
%TO.N,/3. Current Sink 2/SOURCE*%
G36*
X126944971Y-117869962D02*
G01*
X126973141Y-117891019D01*
X128408622Y-119255903D01*
X128448857Y-119321705D01*
X128454952Y-119363995D01*
X128454803Y-119561849D01*
X128450045Y-125879645D01*
X128430027Y-125954130D01*
X128407965Y-125983308D01*
X127173895Y-127254775D01*
X127107683Y-127294331D01*
X127066975Y-127300000D01*
X123698904Y-127300000D01*
X123624404Y-127280038D01*
X123585375Y-127247500D01*
X123410471Y-127041731D01*
X123377431Y-126972038D01*
X123375000Y-126945231D01*
X123375000Y-119561849D01*
X123394962Y-119487349D01*
X123418801Y-119456331D01*
X123619837Y-119255903D01*
X124986387Y-117893482D01*
X125053239Y-117855019D01*
X125091585Y-117850000D01*
X126870471Y-117850000D01*
X126944971Y-117869962D01*
G37*
%TD.AperFunction*%
%TD*%
%TA.AperFunction,Conductor*%
%TO.N,GND*%
G36*
X113500500Y-115719962D02*
G01*
X113555038Y-115774500D01*
X113575000Y-115849000D01*
X113575000Y-116975000D01*
X113850000Y-117275000D01*
X115300000Y-117275000D01*
X115425000Y-117100000D01*
X115425000Y-116349000D01*
X115444962Y-116274500D01*
X115499500Y-116219962D01*
X115574000Y-116200000D01*
X115876000Y-116200000D01*
X115950500Y-116219962D01*
X116005038Y-116274500D01*
X116025000Y-116349000D01*
X116025000Y-117242211D01*
X116005038Y-117316711D01*
X115986034Y-117342677D01*
X115544314Y-117826466D01*
X115479340Y-117868023D01*
X115434280Y-117875000D01*
X113161718Y-117875000D01*
X113087218Y-117855038D01*
X113056359Y-117831359D01*
X112668641Y-117443641D01*
X112630077Y-117376846D01*
X112625000Y-117338282D01*
X112625000Y-115849000D01*
X112644962Y-115774500D01*
X112699500Y-115719962D01*
X112774000Y-115700000D01*
X113426000Y-115700000D01*
X113500500Y-115719962D01*
G37*
%TD.AperFunction*%
%TD*%
%TA.AperFunction,Conductor*%
%TO.N,GND*%
G36*
X116800000Y-66088282D02*
G01*
X116780038Y-66162782D01*
X116756359Y-66193641D01*
X116143641Y-66806359D01*
X116076846Y-66844923D01*
X116038282Y-66850000D01*
X114850000Y-66850000D01*
X113350000Y-68350000D01*
X113350000Y-70851000D01*
X113330038Y-70925500D01*
X113275500Y-70980038D01*
X113201000Y-71000000D01*
X112650000Y-71000000D01*
X111600000Y-72050000D01*
X111600000Y-85700000D01*
X112500000Y-86560000D01*
X115343073Y-86560000D01*
X115417573Y-86579962D01*
X115442425Y-86597959D01*
X115730352Y-86855578D01*
X115772562Y-86920131D01*
X115780000Y-86966619D01*
X115780000Y-91014054D01*
X115760038Y-91088554D01*
X115705500Y-91143092D01*
X115638538Y-91162863D01*
X115610383Y-91164289D01*
X115606658Y-91164859D01*
X115228485Y-91222728D01*
X115228481Y-91222729D01*
X115224755Y-91223299D01*
X115221101Y-91224244D01*
X115221096Y-91224245D01*
X115046773Y-91269328D01*
X114847064Y-91320976D01*
X114481177Y-91456321D01*
X114130842Y-91627949D01*
X113799644Y-91834102D01*
X113490974Y-92072669D01*
X113330906Y-92224568D01*
X113210726Y-92338614D01*
X113210721Y-92338619D01*
X113207993Y-92341208D01*
X112953598Y-92636969D01*
X112730395Y-92956924D01*
X112540667Y-93297797D01*
X112386358Y-93656099D01*
X112269048Y-94028160D01*
X112189937Y-94410171D01*
X112149836Y-94798221D01*
X112149829Y-94801984D01*
X112149829Y-94801992D01*
X112149495Y-94993280D01*
X112149155Y-95188338D01*
X112149530Y-95192094D01*
X112149530Y-95192096D01*
X112187527Y-95572779D01*
X112187901Y-95576526D01*
X112265678Y-95958811D01*
X112381689Y-96331279D01*
X112534746Y-96690117D01*
X112723283Y-97031651D01*
X112945368Y-97352383D01*
X113198729Y-97649030D01*
X113480771Y-97918555D01*
X113483755Y-97920878D01*
X113785630Y-98155882D01*
X113785640Y-98155889D01*
X113788606Y-98158198D01*
X114119082Y-98365506D01*
X114468817Y-98538355D01*
X114472344Y-98539674D01*
X114472354Y-98539678D01*
X114830692Y-98673655D01*
X114830700Y-98673657D01*
X114834229Y-98674977D01*
X114837871Y-98675932D01*
X114837879Y-98675935D01*
X114996337Y-98717505D01*
X115211576Y-98773972D01*
X115215294Y-98774554D01*
X115215293Y-98774554D01*
X115593265Y-98833743D01*
X115593270Y-98833744D01*
X115596996Y-98834327D01*
X115659058Y-98837688D01*
X115732369Y-98861650D01*
X115783878Y-98919057D01*
X115800000Y-98986470D01*
X115800000Y-103588282D01*
X115780038Y-103662782D01*
X115756359Y-103693641D01*
X113400000Y-106050000D01*
X113400000Y-108701000D01*
X113380038Y-108775500D01*
X113325500Y-108830038D01*
X113251000Y-108850000D01*
X112700000Y-108850000D01*
X111650000Y-109900000D01*
X111650000Y-123550000D01*
X112400000Y-124360000D01*
X115285180Y-124360000D01*
X115359680Y-124379962D01*
X115394190Y-124407423D01*
X115720010Y-124757084D01*
X115756194Y-124825198D01*
X115760000Y-124858661D01*
X115760000Y-127600000D01*
X115769425Y-127608156D01*
X116748502Y-128455434D01*
X116791774Y-128519280D01*
X116800000Y-128568103D01*
X116800000Y-129100000D01*
X101000000Y-129100000D01*
X101000000Y-62000000D01*
X116800000Y-62000000D01*
X116800000Y-66088282D01*
G37*
%TD.AperFunction*%
%TD*%
%TA.AperFunction,Conductor*%
%TO.N,+12V*%
G36*
X139318162Y-92969962D02*
G01*
X139342244Y-92987274D01*
X139674582Y-93280514D01*
X139717237Y-93344774D01*
X139725000Y-93392240D01*
X139725000Y-95288282D01*
X139705038Y-95362782D01*
X139681359Y-95393641D01*
X139543641Y-95531359D01*
X139476846Y-95569923D01*
X139438282Y-95575000D01*
X138857177Y-95575000D01*
X138782677Y-95555038D01*
X138757501Y-95536751D01*
X138599324Y-95394392D01*
X138557303Y-95329716D01*
X138550000Y-95283641D01*
X138550000Y-94375000D01*
X138099323Y-93969391D01*
X138057303Y-93904716D01*
X138050000Y-93858641D01*
X138050000Y-93161718D01*
X138069962Y-93087218D01*
X138093641Y-93056359D01*
X138156359Y-92993641D01*
X138223154Y-92955077D01*
X138261718Y-92950000D01*
X139243662Y-92950000D01*
X139318162Y-92969962D01*
G37*
%TD.AperFunction*%
%TD*%
%TA.AperFunction,Conductor*%
%TO.N,GND*%
G36*
X137775000Y-94100000D02*
G01*
X138021388Y-94305323D01*
X138065841Y-94368352D01*
X138075000Y-94419788D01*
X138075000Y-95271931D01*
X138055038Y-95346431D01*
X138010812Y-95394438D01*
X137788268Y-95548507D01*
X137715652Y-95574500D01*
X137703456Y-95575000D01*
X137211718Y-95575000D01*
X137137218Y-95555038D01*
X137106359Y-95531359D01*
X137068641Y-95493641D01*
X137030077Y-95426846D01*
X137025000Y-95388282D01*
X137025000Y-92600000D01*
X137775000Y-92600000D01*
X137775000Y-94100000D01*
G37*
%TD.AperFunction*%
%TD*%
%TA.AperFunction,Conductor*%
%TO.N,+12V*%
G36*
X145216652Y-56869962D02*
G01*
X145242693Y-56889034D01*
X146026541Y-57605695D01*
X146068054Y-57670698D01*
X146075000Y-57715661D01*
X146075000Y-59436142D01*
X146055038Y-59510642D01*
X146028759Y-59544039D01*
X145593158Y-59958897D01*
X145525442Y-59995820D01*
X145490399Y-60000000D01*
X141861718Y-60000000D01*
X141787218Y-59980038D01*
X141756359Y-59956359D01*
X140643641Y-58843641D01*
X140605077Y-58776846D01*
X140600000Y-58738282D01*
X140600000Y-57111718D01*
X140619962Y-57037218D01*
X140643641Y-57006359D01*
X140756359Y-56893641D01*
X140823154Y-56855077D01*
X140861718Y-56850000D01*
X145142152Y-56850000D01*
X145216652Y-56869962D01*
G37*
%TD.AperFunction*%
%TD*%
%TA.AperFunction,Conductor*%
%TO.N,GND*%
G36*
X113500500Y-77919962D02*
G01*
X113555038Y-77974500D01*
X113575000Y-78049000D01*
X113575000Y-79175000D01*
X113850000Y-79475000D01*
X115275000Y-79475000D01*
X115283228Y-79465401D01*
X115412235Y-79314893D01*
X115412236Y-79314892D01*
X115425000Y-79300000D01*
X115425000Y-78549000D01*
X115444962Y-78474500D01*
X115499500Y-78419962D01*
X115574000Y-78400000D01*
X115876000Y-78400000D01*
X115950500Y-78419962D01*
X116005038Y-78474500D01*
X116025000Y-78549000D01*
X116025000Y-79442211D01*
X116005038Y-79516711D01*
X115986034Y-79542677D01*
X115544314Y-80026466D01*
X115479340Y-80068023D01*
X115434280Y-80075000D01*
X113161718Y-80075000D01*
X113087218Y-80055038D01*
X113056359Y-80031359D01*
X112668641Y-79643641D01*
X112630077Y-79576846D01*
X112625000Y-79538282D01*
X112625000Y-78049000D01*
X112644962Y-77974500D01*
X112699500Y-77919962D01*
X112774000Y-77900000D01*
X113426000Y-77900000D01*
X113500500Y-77919962D01*
G37*
%TD.AperFunction*%
%TD*%
%TA.AperFunction,Conductor*%
%TO.N,/2. Current Sink 1/SOURCE-F*%
G36*
X118412782Y-81669962D02*
G01*
X118443641Y-81693641D01*
X118606359Y-81856359D01*
X118644923Y-81923154D01*
X118650000Y-81961718D01*
X118650000Y-89228387D01*
X118630038Y-89302887D01*
X118594080Y-89344736D01*
X118440814Y-89467349D01*
X118370169Y-89498301D01*
X118347734Y-89500000D01*
X116755583Y-89500000D01*
X116681083Y-89480038D01*
X116657998Y-89463598D01*
X116376415Y-89219560D01*
X116333190Y-89155682D01*
X116325000Y-89106962D01*
X116325000Y-86400000D01*
X116000000Y-86050000D01*
X113186718Y-86050000D01*
X113112218Y-86030038D01*
X113081359Y-86006359D01*
X112668641Y-85593641D01*
X112630077Y-85526846D01*
X112625000Y-85488282D01*
X112625000Y-82089551D01*
X112644962Y-82015051D01*
X112672093Y-81980850D01*
X112982015Y-81690299D01*
X113050017Y-81653909D01*
X113083921Y-81650000D01*
X118338282Y-81650000D01*
X118412782Y-81669962D01*
G37*
%TD.AperFunction*%
%TD*%
%TA.AperFunction,Conductor*%
%TO.N,+5V*%
G36*
X123654833Y-110569962D02*
G01*
X123669733Y-110579800D01*
X123770400Y-110655300D01*
X123818023Y-110715970D01*
X123830000Y-110774500D01*
X123830000Y-113451000D01*
X123810038Y-113525500D01*
X123755500Y-113580038D01*
X123681000Y-113600000D01*
X123529500Y-113600000D01*
X123455000Y-113580038D01*
X123400462Y-113525500D01*
X123380500Y-113451000D01*
X123380500Y-112155252D01*
X123380167Y-112153579D01*
X123380000Y-112150174D01*
X123380000Y-112100000D01*
X123369134Y-112091307D01*
X123360065Y-112080753D01*
X123361143Y-112079827D01*
X123347911Y-112065406D01*
X123332707Y-112042652D01*
X123332706Y-112042651D01*
X123324552Y-112030448D01*
X123258231Y-111986133D01*
X123243835Y-111983269D01*
X123243834Y-111983269D01*
X123206923Y-111975927D01*
X123206921Y-111975927D01*
X123199748Y-111974500D01*
X123104000Y-111974500D01*
X123029500Y-111954538D01*
X122974962Y-111900000D01*
X122955000Y-111825500D01*
X122955000Y-110768530D01*
X122974962Y-110694030D01*
X123007033Y-110655400D01*
X123088152Y-110585870D01*
X123157708Y-110552543D01*
X123185119Y-110550000D01*
X123580333Y-110550000D01*
X123654833Y-110569962D01*
G37*
%TD.AperFunction*%
%TD*%
%TA.AperFunction,Conductor*%
%TO.N,GND*%
G36*
X122112589Y-110544962D02*
G01*
X122149453Y-110575010D01*
X122267364Y-110707660D01*
X122301939Y-110776604D01*
X122305000Y-110806650D01*
X122305000Y-111851000D01*
X122285038Y-111925500D01*
X122230500Y-111980038D01*
X122156000Y-112000000D01*
X121980000Y-112000000D01*
X121880000Y-112100000D01*
X121880000Y-113351000D01*
X121860038Y-113425500D01*
X121805500Y-113480038D01*
X121731000Y-113500000D01*
X121579000Y-113500000D01*
X121504500Y-113480038D01*
X121449962Y-113425500D01*
X121430000Y-113351000D01*
X121430000Y-110767611D01*
X121449962Y-110693111D01*
X121480883Y-110655477D01*
X121587868Y-110561866D01*
X121657079Y-110527831D01*
X121685984Y-110525000D01*
X122038089Y-110525000D01*
X122112589Y-110544962D01*
G37*
%TD.AperFunction*%
%TD*%
M02*
