%TF.GenerationSoftware,KiCad,Pcbnew,(6.0.1-0)*%
%TF.CreationDate,2024-02-14T13:59:27+01:00*%
%TF.ProjectId,dcload-power-board,64636c6f-6164-42d7-906f-7765722d626f,rev?*%
%TF.SameCoordinates,Original*%
%TF.FileFunction,Copper,L4,Bot*%
%TF.FilePolarity,Positive*%
%FSLAX46Y46*%
G04 Gerber Fmt 4.6, Leading zero omitted, Abs format (unit mm)*
G04 Created by KiCad (PCBNEW (6.0.1-0)) date 2024-02-14 13:59:27*
%MOMM*%
%LPD*%
G01*
G04 APERTURE LIST*
%TA.AperFunction,ComponentPad*%
%ADD10C,3.000000*%
%TD*%
%TA.AperFunction,ComponentPad*%
%ADD11C,5.600000*%
%TD*%
%TA.AperFunction,ComponentPad*%
%ADD12C,1.700000*%
%TD*%
%TA.AperFunction,ComponentPad*%
%ADD13O,1.700000X1.700000*%
%TD*%
%TA.AperFunction,ViaPad*%
%ADD14C,0.600000*%
%TD*%
%TA.AperFunction,ViaPad*%
%ADD15C,0.800000*%
%TD*%
%TA.AperFunction,Conductor*%
%ADD16C,0.300000*%
%TD*%
G04 APERTURE END LIST*
D10*
%TO.P,Q200,1,G*%
%TO.N,/2. Current Sink 1/GATE*%
X126920000Y-70650000D03*
%TO.P,Q200,2,D*%
%TO.N,IN+*%
X126920000Y-76100000D03*
%TO.P,Q200,3,S*%
%TO.N,/2. Current Sink 1/SOURCE*%
X126920000Y-81550000D03*
%TD*%
D11*
%TO.P,H105,1,1*%
%TO.N,IN+*%
X124000000Y-134000000D03*
%TD*%
%TO.P,H106,1,1*%
%TO.N,GND*%
X114000000Y-134000000D03*
%TD*%
%TO.P,H104,1,1*%
%TO.N,GND*%
X114000000Y-56000000D03*
%TD*%
D10*
%TO.P,Q300,1,G*%
%TO.N,/3. Current Sink 2/GATE*%
X126920000Y-108450000D03*
%TO.P,Q300,2,D*%
%TO.N,IN+*%
X126920000Y-113900000D03*
%TO.P,Q300,3,S*%
%TO.N,/3. Current Sink 2/SOURCE*%
X126920000Y-119350000D03*
%TD*%
D11*
%TO.P,H103,1,1*%
%TO.N,IN+*%
X124000000Y-56000000D03*
%TD*%
D12*
%TO.P,J103,1,Pin_1*%
%TO.N,/NTC*%
X162037500Y-93692500D03*
D13*
%TO.P,J103,2,Pin_2*%
%TO.N,GND*%
X162037500Y-96232500D03*
%TD*%
D12*
%TO.P,J100,1,Pin_1*%
%TO.N,/NTC*%
X163000000Y-57700000D03*
D13*
%TO.P,J100,2,Pin_2*%
%TO.N,GND*%
X160460000Y-57700000D03*
%TO.P,J100,3,Pin_3*%
%TO.N,/EN*%
X157920000Y-57700000D03*
%TO.P,J100,4,Pin_4*%
%TO.N,/ISET*%
X155380000Y-57700000D03*
%TO.P,J100,5,Pin_5*%
%TO.N,/ISEN2*%
X152840000Y-57700000D03*
%TO.P,J100,6,Pin_6*%
%TO.N,/ISEN1*%
X150300000Y-57700000D03*
%TO.P,J100,7,Pin_7*%
%TO.N,GND*%
X147760000Y-57700000D03*
%TO.P,J100,8,Pin_8*%
%TO.N,+12V*%
X145220000Y-57700000D03*
%TD*%
D12*
%TO.P,J101,1,Pin_1*%
%TO.N,+12V*%
X145220000Y-132300000D03*
D13*
%TO.P,J101,2,Pin_2*%
%TO.N,GND*%
X147760000Y-132300000D03*
%TO.P,J101,3,Pin_3*%
%TO.N,/ISEN1*%
X150300000Y-132300000D03*
%TO.P,J101,4,Pin_4*%
%TO.N,/ISEN2*%
X152840000Y-132300000D03*
%TO.P,J101,5,Pin_5*%
%TO.N,/ISET*%
X155380000Y-132300000D03*
%TO.P,J101,6,Pin_6*%
%TO.N,/EN*%
X157920000Y-132300000D03*
%TO.P,J101,7,Pin_7*%
%TO.N,GND*%
X160460000Y-132300000D03*
%TO.P,J101,8,Pin_8*%
%TO.N,/NTC*%
X163000000Y-132300000D03*
%TD*%
D14*
%TO.N,+5V*%
X136250000Y-93900000D03*
X135350000Y-93100000D03*
X123530000Y-111800000D03*
X123500000Y-74000000D03*
X134400000Y-93900000D03*
%TO.N,+12V*%
X114000000Y-76450000D03*
X143000000Y-132000000D03*
X132700000Y-91500000D03*
X124090000Y-98020000D03*
X142000000Y-59000000D03*
X115612500Y-106850000D03*
X114000000Y-114250000D03*
X143000000Y-58000000D03*
X131800000Y-92300000D03*
X144000000Y-59000000D03*
X142000000Y-131000000D03*
X125260000Y-98700000D03*
X139400000Y-93600000D03*
X138600000Y-93900000D03*
X144000000Y-131000000D03*
X115612500Y-69050000D03*
%TO.N,EA_OFFSET*%
X120600000Y-79600000D03*
X122300000Y-96400000D03*
X119925000Y-116750000D03*
%TO.N,/EN*%
X162900000Y-100100000D03*
%TO.N,/ISET*%
X158600000Y-99900000D03*
%TO.N,/ISEN2*%
X157700000Y-100750000D03*
X119925000Y-113524500D03*
X119925000Y-100700000D03*
%TO.N,/ISEN1*%
X119850000Y-90800000D03*
X119850000Y-77075000D03*
X160200000Y-91200000D03*
%TO.N,/ISET_BUF*%
X119925000Y-75475500D03*
X118950000Y-91650000D03*
X119275000Y-112600000D03*
D15*
%TO.N,GND*%
X112000000Y-90000000D03*
X112000000Y-89100000D03*
D14*
X126600000Y-93700000D03*
X136800000Y-92200000D03*
D15*
X112900000Y-127800000D03*
D14*
X134600000Y-96200000D03*
D15*
X111100000Y-89100000D03*
D14*
X142000000Y-136500000D03*
X115300000Y-79775000D03*
D15*
X112900000Y-126900000D03*
X112000000Y-88200000D03*
D14*
X143000000Y-54500000D03*
X115675000Y-117250000D03*
D15*
X112000000Y-125100000D03*
D14*
X127225000Y-66025000D03*
D15*
X113800000Y-89100000D03*
D14*
X137650000Y-92250000D03*
X127255000Y-103825000D03*
D15*
X112000000Y-126900000D03*
X114700000Y-126900000D03*
D14*
X120525000Y-115800000D03*
D15*
X111100000Y-126900000D03*
D14*
X142000000Y-53500000D03*
X143000000Y-53500000D03*
X125300000Y-96900000D03*
D15*
X123650000Y-66725000D03*
D14*
X135200000Y-91525000D03*
X113325000Y-79600000D03*
D15*
X113800000Y-127800000D03*
D14*
X131120000Y-99490000D03*
D15*
X111100000Y-90000000D03*
X111100000Y-88200000D03*
D14*
X120900000Y-68600000D03*
X128750000Y-94070000D03*
X114275000Y-79775000D03*
X121730000Y-111800000D03*
X129500000Y-91400000D03*
X113100000Y-78850000D03*
X120525000Y-78000000D03*
D15*
X112000000Y-127800000D03*
X112000000Y-126000000D03*
D14*
X157000000Y-95350000D03*
D15*
X111100000Y-87300000D03*
X112000000Y-87300000D03*
X117212500Y-69050000D03*
D14*
X138300000Y-97050000D03*
X113100000Y-116650000D03*
D15*
X117212500Y-106850000D03*
D14*
X134400000Y-98800000D03*
D15*
X112900000Y-90000000D03*
X111100000Y-127800000D03*
D14*
X121400000Y-95300000D03*
D15*
X114700000Y-89100000D03*
D14*
X143000000Y-136500000D03*
X121650000Y-105675000D03*
D15*
X111100000Y-126000000D03*
D14*
X121700000Y-74000000D03*
X143000000Y-135500000D03*
D15*
X113800000Y-126900000D03*
X113800000Y-90000000D03*
D14*
X137400000Y-94250000D03*
D15*
X114700000Y-90000000D03*
X114700000Y-127800000D03*
X123680000Y-104525000D03*
X112900000Y-89100000D03*
X111100000Y-125100000D03*
%TD*%
D16*
%TO.N,EA_OFFSET*%
X120600000Y-114750000D02*
X119925000Y-115425000D01*
X122300000Y-96400000D02*
X122300000Y-101350000D01*
X122300000Y-81300000D02*
X120600000Y-79600000D01*
X120600000Y-103050000D02*
X120600000Y-114750000D01*
X119925000Y-115425000D02*
X119925000Y-116750000D01*
X122300000Y-96400000D02*
X122300000Y-81300000D01*
X122300000Y-101350000D02*
X120600000Y-103050000D01*
%TO.N,/EN*%
X164500000Y-98500000D02*
X164500000Y-62800000D01*
X158400000Y-61300000D02*
X157920000Y-60820000D01*
X162900000Y-100100000D02*
X164500000Y-98500000D01*
X163000000Y-61300000D02*
X158400000Y-61300000D01*
X157920000Y-60820000D02*
X157920000Y-57700000D01*
X164500000Y-62800000D02*
X163000000Y-61300000D01*
%TO.N,/ISET*%
X162100000Y-88500000D02*
X162100000Y-63600000D01*
X160600000Y-90000000D02*
X162100000Y-88500000D01*
X158600000Y-90500000D02*
X159100000Y-90000000D01*
X159100000Y-90000000D02*
X160600000Y-90000000D01*
X158600000Y-99900000D02*
X158600000Y-90500000D01*
X162100000Y-63600000D02*
X160700000Y-62200000D01*
X155380000Y-61380000D02*
X155380000Y-57700000D01*
X156200000Y-62200000D02*
X155380000Y-61380000D01*
X160700000Y-62200000D02*
X156200000Y-62200000D01*
%TO.N,/ISEN2*%
X157700000Y-100750000D02*
X157700000Y-90150000D01*
X119925000Y-100700000D02*
X119925000Y-113524500D01*
X161100000Y-63900000D02*
X160300000Y-63100000D01*
X161100000Y-88300000D02*
X161100000Y-63900000D01*
X157700000Y-90150000D02*
X158750000Y-89100000D01*
X160300000Y-89100000D02*
X161100000Y-88300000D01*
X153900000Y-63100000D02*
X152840000Y-62040000D01*
X160300000Y-63100000D02*
X153900000Y-63100000D01*
X158750000Y-89100000D02*
X160300000Y-89100000D01*
X152840000Y-62040000D02*
X152840000Y-57700000D01*
%TO.N,/ISEN1*%
X160300000Y-126900000D02*
X151100000Y-126900000D01*
X119850000Y-77075000D02*
X119850000Y-90800000D01*
X161100000Y-101400000D02*
X161100000Y-126100000D01*
X150300000Y-127700000D02*
X150300000Y-132300000D01*
X161100000Y-126100000D02*
X160300000Y-126900000D01*
X151100000Y-126900000D02*
X150300000Y-127700000D01*
X160200000Y-100500000D02*
X161100000Y-101400000D01*
X160200000Y-91200000D02*
X160200000Y-100500000D01*
%TO.N,/ISET_BUF*%
X120400000Y-99275000D02*
X120400000Y-93100000D01*
X119925000Y-75475500D02*
X118950000Y-76450500D01*
X119275000Y-100400000D02*
X120400000Y-99275000D01*
X119275000Y-112600000D02*
X119275000Y-100400000D01*
X120400000Y-93100000D02*
X118950000Y-91650000D01*
X118950000Y-76450500D02*
X118950000Y-91650000D01*
%TD*%
%TA.AperFunction,Conductor*%
%TO.N,IN+*%
G36*
X126800000Y-65541862D02*
G01*
X126780038Y-65616362D01*
X126769210Y-65632567D01*
X126700464Y-65722159D01*
X126639956Y-65868238D01*
X126619318Y-66025000D01*
X126620593Y-66034685D01*
X126635977Y-66151535D01*
X126639956Y-66181762D01*
X126700464Y-66327841D01*
X126706410Y-66335590D01*
X126769210Y-66417433D01*
X126798725Y-66488690D01*
X126800000Y-66508138D01*
X126800000Y-68719054D01*
X126780038Y-68793554D01*
X126725500Y-68848092D01*
X126671093Y-68866693D01*
X126544605Y-68883907D01*
X126539301Y-68885453D01*
X126539296Y-68885454D01*
X126292985Y-68957246D01*
X126292977Y-68957249D01*
X126287683Y-68958792D01*
X126250521Y-68975924D01*
X126068357Y-69059903D01*
X126044652Y-69070831D01*
X125971808Y-69118590D01*
X125825481Y-69214526D01*
X125825477Y-69214529D01*
X125820851Y-69217562D01*
X125621197Y-69395760D01*
X125450075Y-69601512D01*
X125417204Y-69655682D01*
X125314113Y-69825569D01*
X125314110Y-69825576D01*
X125311244Y-69830298D01*
X125207755Y-70077091D01*
X125141881Y-70336470D01*
X125115070Y-70602736D01*
X125127909Y-70870041D01*
X125180118Y-71132512D01*
X125270549Y-71384383D01*
X125397215Y-71620121D01*
X125557335Y-71834547D01*
X125747390Y-72022950D01*
X125751843Y-72026215D01*
X125751850Y-72026221D01*
X125958743Y-72177921D01*
X125958749Y-72177925D01*
X125963205Y-72181192D01*
X125968098Y-72183766D01*
X125968099Y-72183767D01*
X126195142Y-72303221D01*
X126195147Y-72303223D01*
X126200039Y-72305797D01*
X126205260Y-72307620D01*
X126205264Y-72307622D01*
X126306421Y-72342947D01*
X126452690Y-72394026D01*
X126542473Y-72411072D01*
X126678793Y-72436954D01*
X126748262Y-72470462D01*
X126791669Y-72534216D01*
X126800000Y-72583339D01*
X126800000Y-77451000D01*
X126780038Y-77525500D01*
X126725500Y-77580038D01*
X126651000Y-77600000D01*
X121964748Y-77600000D01*
X121890248Y-77580038D01*
X121855821Y-77552665D01*
X120540073Y-76142935D01*
X120503834Y-76074851D01*
X120500000Y-76041270D01*
X120500000Y-75684438D01*
X120505077Y-75645876D01*
X120506308Y-75641282D01*
X120510044Y-75632262D01*
X120530682Y-75475500D01*
X120510044Y-75318738D01*
X120449536Y-75172659D01*
X120353282Y-75047218D01*
X120227841Y-74950964D01*
X120081762Y-74890456D01*
X120072081Y-74889181D01*
X120072079Y-74889181D01*
X120051091Y-74886418D01*
X120037599Y-74884642D01*
X119961658Y-74851382D01*
X119915069Y-74812557D01*
X119915068Y-74812556D01*
X119900000Y-74800000D01*
X113300000Y-74800000D01*
X113292367Y-74807301D01*
X113146082Y-74947226D01*
X111500000Y-76521739D01*
X111500000Y-74000000D01*
X121094318Y-74000000D01*
X121114956Y-74156762D01*
X121175464Y-74302841D01*
X121271718Y-74428282D01*
X121397159Y-74524536D01*
X121543238Y-74585044D01*
X121552919Y-74586319D01*
X121552921Y-74586319D01*
X121690315Y-74604407D01*
X121700000Y-74605682D01*
X121709685Y-74604407D01*
X121847079Y-74586319D01*
X121847081Y-74586319D01*
X121856762Y-74585044D01*
X122002841Y-74524536D01*
X122128282Y-74428282D01*
X122224536Y-74302841D01*
X122285044Y-74156762D01*
X122305682Y-74000000D01*
X122894318Y-74000000D01*
X122914956Y-74156762D01*
X122975464Y-74302841D01*
X123071718Y-74428282D01*
X123197159Y-74524536D01*
X123343238Y-74585044D01*
X123352919Y-74586319D01*
X123352921Y-74586319D01*
X123490315Y-74604407D01*
X123500000Y-74605682D01*
X123509685Y-74604407D01*
X123647079Y-74586319D01*
X123647081Y-74586319D01*
X123656762Y-74585044D01*
X123802841Y-74524536D01*
X123928282Y-74428282D01*
X124024536Y-74302841D01*
X124085044Y-74156762D01*
X124105682Y-74000000D01*
X124085044Y-73843238D01*
X124024536Y-73697159D01*
X123928282Y-73571718D01*
X123802841Y-73475464D01*
X123656762Y-73414956D01*
X123647081Y-73413681D01*
X123647079Y-73413681D01*
X123509685Y-73395593D01*
X123500000Y-73394318D01*
X123490315Y-73395593D01*
X123352921Y-73413681D01*
X123352919Y-73413681D01*
X123343238Y-73414956D01*
X123197159Y-73475464D01*
X123071718Y-73571718D01*
X122975464Y-73697159D01*
X122914956Y-73843238D01*
X122894318Y-74000000D01*
X122305682Y-74000000D01*
X122285044Y-73843238D01*
X122224536Y-73697159D01*
X122128282Y-73571718D01*
X122002841Y-73475464D01*
X121856762Y-73414956D01*
X121847081Y-73413681D01*
X121847079Y-73413681D01*
X121709685Y-73395593D01*
X121700000Y-73394318D01*
X121690315Y-73395593D01*
X121552921Y-73413681D01*
X121552919Y-73413681D01*
X121543238Y-73414956D01*
X121397159Y-73475464D01*
X121271718Y-73571718D01*
X121175464Y-73697159D01*
X121114956Y-73843238D01*
X121094318Y-74000000D01*
X111500000Y-74000000D01*
X111500000Y-69050000D01*
X115006818Y-69050000D01*
X115008093Y-69059685D01*
X115024765Y-69186319D01*
X115027456Y-69206762D01*
X115031193Y-69215784D01*
X115038173Y-69232634D01*
X115087964Y-69352841D01*
X115184218Y-69478282D01*
X115309659Y-69574536D01*
X115455738Y-69635044D01*
X115465419Y-69636319D01*
X115465421Y-69636319D01*
X115602815Y-69654407D01*
X115612500Y-69655682D01*
X115622185Y-69654407D01*
X115759579Y-69636319D01*
X115759581Y-69636319D01*
X115769262Y-69635044D01*
X115915341Y-69574536D01*
X116040782Y-69478282D01*
X116137036Y-69352841D01*
X116186828Y-69232634D01*
X116193807Y-69215784D01*
X116197544Y-69206762D01*
X116200236Y-69186319D01*
X116214943Y-69074603D01*
X116223336Y-69054340D01*
X116219774Y-69041044D01*
X116501356Y-69041044D01*
X116510768Y-69077700D01*
X116525499Y-69211135D01*
X116528587Y-69219572D01*
X116528587Y-69219574D01*
X116536417Y-69240969D01*
X116583766Y-69370356D01*
X116588775Y-69377811D01*
X116588776Y-69377812D01*
X116656289Y-69478282D01*
X116678330Y-69511083D01*
X116684972Y-69517126D01*
X116684973Y-69517128D01*
X116773033Y-69597256D01*
X116803733Y-69625191D01*
X116811628Y-69629478D01*
X116811630Y-69629479D01*
X116944844Y-69701808D01*
X116944847Y-69701809D01*
X116952735Y-69706092D01*
X116990243Y-69715932D01*
X117108049Y-69746838D01*
X117108051Y-69746838D01*
X117116733Y-69749116D01*
X117125709Y-69749257D01*
X117277281Y-69751638D01*
X117286260Y-69751779D01*
X117451529Y-69713928D01*
X117602998Y-69637747D01*
X117624779Y-69619144D01*
X117725094Y-69533467D01*
X117725096Y-69533465D01*
X117731923Y-69527634D01*
X117772954Y-69470533D01*
X117825624Y-69397236D01*
X117825626Y-69397232D01*
X117830861Y-69389947D01*
X117849405Y-69343817D01*
X117890751Y-69240969D01*
X117890752Y-69240964D01*
X117894101Y-69232634D01*
X117917990Y-69064778D01*
X117918145Y-69050000D01*
X117897776Y-68881680D01*
X117837845Y-68723077D01*
X117753256Y-68600000D01*
X120294318Y-68600000D01*
X120295593Y-68609685D01*
X120312672Y-68739410D01*
X120314956Y-68756762D01*
X120375464Y-68902841D01*
X120471718Y-69028282D01*
X120597159Y-69124536D01*
X120743238Y-69185044D01*
X120752919Y-69186319D01*
X120752921Y-69186319D01*
X120890315Y-69204407D01*
X120900000Y-69205682D01*
X120909685Y-69204407D01*
X121047079Y-69186319D01*
X121047081Y-69186319D01*
X121056762Y-69185044D01*
X121202841Y-69124536D01*
X121328282Y-69028282D01*
X121424536Y-68902841D01*
X121485044Y-68756762D01*
X121487329Y-68739410D01*
X121504407Y-68609685D01*
X121505682Y-68600000D01*
X121488090Y-68466375D01*
X121486319Y-68452921D01*
X121486319Y-68452919D01*
X121485044Y-68443238D01*
X121446390Y-68349919D01*
X121428274Y-68306183D01*
X121428274Y-68306182D01*
X121424536Y-68297159D01*
X121328282Y-68171718D01*
X121202841Y-68075464D01*
X121056762Y-68014956D01*
X121047081Y-68013681D01*
X121047079Y-68013681D01*
X120909685Y-67995593D01*
X120900000Y-67994318D01*
X120890315Y-67995593D01*
X120752921Y-68013681D01*
X120752919Y-68013681D01*
X120743238Y-68014956D01*
X120597159Y-68075464D01*
X120471718Y-68171718D01*
X120375464Y-68297159D01*
X120371726Y-68306182D01*
X120371726Y-68306183D01*
X120353610Y-68349919D01*
X120314956Y-68443238D01*
X120313681Y-68452919D01*
X120313681Y-68452921D01*
X120311910Y-68466375D01*
X120294318Y-68600000D01*
X117753256Y-68600000D01*
X117741812Y-68583349D01*
X117735104Y-68577372D01*
X117621928Y-68476535D01*
X117621924Y-68476532D01*
X117615221Y-68470560D01*
X117607283Y-68466357D01*
X117607280Y-68466355D01*
X117473323Y-68395429D01*
X117465381Y-68391224D01*
X117456668Y-68389035D01*
X117456667Y-68389035D01*
X117384191Y-68370830D01*
X117300941Y-68349919D01*
X117196502Y-68349372D01*
X117140373Y-68349078D01*
X117131395Y-68349031D01*
X117122664Y-68351127D01*
X117122665Y-68351127D01*
X116975265Y-68386515D01*
X116975262Y-68386516D01*
X116966532Y-68388612D01*
X116958553Y-68392730D01*
X116958551Y-68392731D01*
X116823853Y-68462254D01*
X116815869Y-68466375D01*
X116809102Y-68472279D01*
X116809098Y-68472281D01*
X116694873Y-68571926D01*
X116688104Y-68577831D01*
X116590613Y-68716547D01*
X116529024Y-68874513D01*
X116509776Y-69020716D01*
X116501356Y-69041044D01*
X116219774Y-69041044D01*
X116214327Y-69020716D01*
X116198819Y-68902920D01*
X116198818Y-68902917D01*
X116197544Y-68893238D01*
X116189788Y-68874513D01*
X116140774Y-68756183D01*
X116140774Y-68756182D01*
X116137036Y-68747159D01*
X116040782Y-68621718D01*
X115915341Y-68525464D01*
X115769262Y-68464956D01*
X115759581Y-68463681D01*
X115759579Y-68463681D01*
X115622185Y-68445593D01*
X115612500Y-68444318D01*
X115602815Y-68445593D01*
X115465421Y-68463681D01*
X115465419Y-68463681D01*
X115455738Y-68464956D01*
X115309659Y-68525464D01*
X115184218Y-68621718D01*
X115087964Y-68747159D01*
X115084226Y-68756182D01*
X115084226Y-68756183D01*
X115035212Y-68874513D01*
X115027456Y-68893238D01*
X115026181Y-68902919D01*
X115026181Y-68902921D01*
X115019029Y-68957246D01*
X115006818Y-69050000D01*
X111500000Y-69050000D01*
X111500000Y-66717611D01*
X122944394Y-66717611D01*
X122962999Y-66886135D01*
X122966087Y-66894572D01*
X122966087Y-66894574D01*
X122973917Y-66915969D01*
X123021266Y-67045356D01*
X123026275Y-67052811D01*
X123026276Y-67052812D01*
X123034431Y-67064947D01*
X123115830Y-67186083D01*
X123122472Y-67192126D01*
X123122473Y-67192128D01*
X123140430Y-67208467D01*
X123241233Y-67300191D01*
X123249128Y-67304478D01*
X123249130Y-67304479D01*
X123382344Y-67376808D01*
X123382347Y-67376809D01*
X123390235Y-67381092D01*
X123427743Y-67390932D01*
X123545549Y-67421838D01*
X123545551Y-67421838D01*
X123554233Y-67424116D01*
X123563209Y-67424257D01*
X123714781Y-67426638D01*
X123723760Y-67426779D01*
X123889029Y-67388928D01*
X124040498Y-67312747D01*
X124062279Y-67294144D01*
X124162594Y-67208467D01*
X124162596Y-67208465D01*
X124169423Y-67202634D01*
X124186866Y-67178360D01*
X124263124Y-67072236D01*
X124263126Y-67072232D01*
X124268361Y-67064947D01*
X124279628Y-67036920D01*
X124328251Y-66915969D01*
X124328252Y-66915964D01*
X124331601Y-66907634D01*
X124355490Y-66739778D01*
X124355645Y-66725000D01*
X124335276Y-66556680D01*
X124275345Y-66398077D01*
X124179312Y-66258349D01*
X124172604Y-66252372D01*
X124059428Y-66151535D01*
X124059424Y-66151532D01*
X124052721Y-66145560D01*
X124044783Y-66141357D01*
X124044780Y-66141355D01*
X123910823Y-66070429D01*
X123902881Y-66066224D01*
X123894168Y-66064035D01*
X123894167Y-66064035D01*
X123821691Y-66045830D01*
X123738441Y-66024919D01*
X123634002Y-66024372D01*
X123577873Y-66024078D01*
X123568895Y-66024031D01*
X123560164Y-66026127D01*
X123560165Y-66026127D01*
X123412765Y-66061515D01*
X123412762Y-66061516D01*
X123404032Y-66063612D01*
X123396053Y-66067730D01*
X123396051Y-66067731D01*
X123390824Y-66070429D01*
X123253369Y-66141375D01*
X123246602Y-66147279D01*
X123246598Y-66147281D01*
X123241722Y-66151535D01*
X123125604Y-66252831D01*
X123028113Y-66391547D01*
X122966524Y-66549513D01*
X122944394Y-66717611D01*
X111500000Y-66717611D01*
X111500000Y-66500000D01*
X113500000Y-64500000D01*
X125000000Y-64500000D01*
X126800000Y-63000000D01*
X126800000Y-65541862D01*
G37*
%TD.AperFunction*%
%TD*%
%TA.AperFunction,Conductor*%
%TO.N,IN+*%
G36*
X124012782Y-53219962D02*
G01*
X124043641Y-53243641D01*
X126756359Y-55956359D01*
X126794923Y-56023154D01*
X126800000Y-56061718D01*
X126800000Y-63000000D01*
X125000000Y-64500000D01*
X113500000Y-64500000D01*
X111500000Y-66500000D01*
X111500000Y-86280405D01*
X111480038Y-86354905D01*
X111425500Y-86409443D01*
X111351000Y-86429405D01*
X111320021Y-86426149D01*
X111202287Y-86401124D01*
X111202286Y-86401124D01*
X111194646Y-86399500D01*
X111005354Y-86399500D01*
X110997714Y-86401124D01*
X110997713Y-86401124D01*
X110827836Y-86437232D01*
X110827833Y-86437233D01*
X110820197Y-86438856D01*
X110647270Y-86515849D01*
X110494129Y-86627112D01*
X110438403Y-86689002D01*
X110372693Y-86761979D01*
X110372689Y-86761984D01*
X110367467Y-86767784D01*
X110272821Y-86931716D01*
X110214326Y-87111744D01*
X110194540Y-87300000D01*
X110214326Y-87488256D01*
X110272821Y-87668284D01*
X110276725Y-87675046D01*
X110276726Y-87675048D01*
X110276988Y-87675502D01*
X110277079Y-87675841D01*
X110279902Y-87682182D01*
X110278898Y-87682629D01*
X110296949Y-87750002D01*
X110278898Y-87817371D01*
X110279902Y-87817818D01*
X110277079Y-87824159D01*
X110276988Y-87824498D01*
X110272821Y-87831716D01*
X110214326Y-88011744D01*
X110194540Y-88200000D01*
X110195356Y-88207764D01*
X110205709Y-88306265D01*
X110214326Y-88388256D01*
X110272821Y-88568284D01*
X110276725Y-88575046D01*
X110276726Y-88575048D01*
X110276988Y-88575502D01*
X110277079Y-88575841D01*
X110279902Y-88582182D01*
X110278898Y-88582629D01*
X110296949Y-88650002D01*
X110278898Y-88717371D01*
X110279902Y-88717818D01*
X110277079Y-88724159D01*
X110276988Y-88724498D01*
X110272821Y-88731716D01*
X110214326Y-88911744D01*
X110194540Y-89100000D01*
X110214326Y-89288256D01*
X110272821Y-89468284D01*
X110276725Y-89475046D01*
X110276726Y-89475048D01*
X110276988Y-89475502D01*
X110277079Y-89475841D01*
X110279902Y-89482182D01*
X110278898Y-89482629D01*
X110296949Y-89550002D01*
X110278898Y-89617371D01*
X110279902Y-89617818D01*
X110277079Y-89624159D01*
X110276988Y-89624498D01*
X110272821Y-89631716D01*
X110214326Y-89811744D01*
X110194540Y-90000000D01*
X110214326Y-90188256D01*
X110272821Y-90368284D01*
X110367467Y-90532216D01*
X110372689Y-90538016D01*
X110372693Y-90538021D01*
X110438403Y-90610998D01*
X110494129Y-90672888D01*
X110647270Y-90784151D01*
X110820197Y-90861144D01*
X110827833Y-90862767D01*
X110827836Y-90862768D01*
X110997713Y-90898876D01*
X110997714Y-90898876D01*
X111005354Y-90900500D01*
X111194646Y-90900500D01*
X111202286Y-90898876D01*
X111202287Y-90898876D01*
X111320021Y-90873851D01*
X111397044Y-90877888D01*
X111461729Y-90919895D01*
X111496744Y-90988616D01*
X111500000Y-91019595D01*
X111500000Y-115650000D01*
X112264685Y-116414685D01*
X112303249Y-116481480D01*
X112307151Y-116538718D01*
X112294514Y-116638753D01*
X112295326Y-116647035D01*
X112295326Y-116647039D01*
X112307627Y-116772493D01*
X112312039Y-116817486D01*
X112314667Y-116825385D01*
X112314667Y-116825387D01*
X112336765Y-116891817D01*
X112368726Y-116987896D01*
X112461759Y-117141512D01*
X112586514Y-117270699D01*
X112736789Y-117369036D01*
X112905116Y-117431636D01*
X112913371Y-117432737D01*
X112913373Y-117432738D01*
X113074875Y-117454287D01*
X113074879Y-117454287D01*
X113083130Y-117455388D01*
X113124392Y-117451633D01*
X113217341Y-117443175D01*
X113293343Y-117456304D01*
X113336203Y-117486203D01*
X113600000Y-117750000D01*
X114981710Y-117750000D01*
X115056210Y-117769962D01*
X115088891Y-117795496D01*
X115161514Y-117870699D01*
X115311789Y-117969036D01*
X115319599Y-117971941D01*
X115319600Y-117971941D01*
X115372028Y-117991439D01*
X115480116Y-118031636D01*
X115488371Y-118032737D01*
X115488373Y-118032738D01*
X115649875Y-118054287D01*
X115649879Y-118054287D01*
X115658130Y-118055388D01*
X115747555Y-118047250D01*
X115828688Y-118039867D01*
X115828691Y-118039866D01*
X115836981Y-118039112D01*
X115868927Y-118028732D01*
X115999855Y-117986191D01*
X115999858Y-117986190D01*
X116007782Y-117983615D01*
X116162044Y-117891657D01*
X116267640Y-117791099D01*
X116335357Y-117754178D01*
X116370393Y-117750000D01*
X120500000Y-117750000D01*
X126800000Y-124500000D01*
X126800000Y-133938282D01*
X126780038Y-134012782D01*
X126756359Y-134043641D01*
X124043641Y-136756359D01*
X123976846Y-136794923D01*
X123938282Y-136800000D01*
X120063757Y-136800000D01*
X119989257Y-136780038D01*
X119955977Y-136753881D01*
X117900000Y-134600000D01*
X117899916Y-134599912D01*
X117885514Y-134584855D01*
X117824302Y-134520861D01*
X117787232Y-134453228D01*
X117783223Y-134409293D01*
X117783451Y-134405348D01*
X117805291Y-134026566D01*
X117805384Y-134000000D01*
X117785903Y-133615442D01*
X117727660Y-133234821D01*
X117724297Y-133221814D01*
X117632196Y-132865688D01*
X117632194Y-132865683D01*
X117631251Y-132862035D01*
X117610234Y-132805217D01*
X117498974Y-132504445D01*
X117497663Y-132500900D01*
X117328264Y-132155113D01*
X117124788Y-131828216D01*
X116989132Y-131652697D01*
X116891631Y-131526545D01*
X116891628Y-131526541D01*
X116889319Y-131523554D01*
X116703169Y-131327393D01*
X116626861Y-131246981D01*
X116626856Y-131246976D01*
X116624267Y-131244248D01*
X116332347Y-130993157D01*
X116329265Y-130991007D01*
X116329256Y-130991000D01*
X116019639Y-130775009D01*
X116016546Y-130772851D01*
X115680099Y-130585587D01*
X115326450Y-130433282D01*
X114959221Y-130317495D01*
X114800343Y-130284593D01*
X114585861Y-130240176D01*
X114585854Y-130240175D01*
X114582170Y-130239412D01*
X114578428Y-130239025D01*
X114578426Y-130239025D01*
X114518178Y-130232799D01*
X114199158Y-130199831D01*
X114195395Y-130199824D01*
X114195387Y-130199824D01*
X114005844Y-130199494D01*
X113814108Y-130199159D01*
X113773543Y-130203208D01*
X113697428Y-130190744D01*
X113651071Y-130157937D01*
X113513561Y-130014177D01*
X113513560Y-130014176D01*
X113500000Y-130000000D01*
X101149000Y-130000000D01*
X101074500Y-129980038D01*
X101019962Y-129925500D01*
X101000000Y-129851000D01*
X101000000Y-127800000D01*
X110194540Y-127800000D01*
X110214326Y-127988256D01*
X110272821Y-128168284D01*
X110367467Y-128332216D01*
X110372689Y-128338016D01*
X110372693Y-128338021D01*
X110438403Y-128410998D01*
X110494129Y-128472888D01*
X110647270Y-128584151D01*
X110820197Y-128661144D01*
X110827833Y-128662767D01*
X110827836Y-128662768D01*
X110997713Y-128698876D01*
X110997714Y-128698876D01*
X111005354Y-128700500D01*
X111194646Y-128700500D01*
X111202286Y-128698876D01*
X111202287Y-128698876D01*
X111287224Y-128680822D01*
X111379803Y-128661144D01*
X111386935Y-128657969D01*
X111386943Y-128657966D01*
X111489396Y-128612350D01*
X111565574Y-128600284D01*
X111610604Y-128612350D01*
X111713057Y-128657966D01*
X111713065Y-128657969D01*
X111720197Y-128661144D01*
X111812776Y-128680822D01*
X111897713Y-128698876D01*
X111897714Y-128698876D01*
X111905354Y-128700500D01*
X112094646Y-128700500D01*
X112102286Y-128698876D01*
X112102287Y-128698876D01*
X112187224Y-128680822D01*
X112279803Y-128661144D01*
X112286935Y-128657969D01*
X112286943Y-128657966D01*
X112389396Y-128612350D01*
X112465574Y-128600284D01*
X112510604Y-128612350D01*
X112613057Y-128657966D01*
X112613065Y-128657969D01*
X112620197Y-128661144D01*
X112712776Y-128680822D01*
X112797713Y-128698876D01*
X112797714Y-128698876D01*
X112805354Y-128700500D01*
X112994646Y-128700500D01*
X113002286Y-128698876D01*
X113002287Y-128698876D01*
X113087224Y-128680822D01*
X113179803Y-128661144D01*
X113186935Y-128657969D01*
X113186943Y-128657966D01*
X113289396Y-128612350D01*
X113365574Y-128600284D01*
X113410604Y-128612350D01*
X113513057Y-128657966D01*
X113513065Y-128657969D01*
X113520197Y-128661144D01*
X113612776Y-128680822D01*
X113697713Y-128698876D01*
X113697714Y-128698876D01*
X113705354Y-128700500D01*
X113894646Y-128700500D01*
X113902286Y-128698876D01*
X113902287Y-128698876D01*
X113987224Y-128680822D01*
X114079803Y-128661144D01*
X114086935Y-128657969D01*
X114086943Y-128657966D01*
X114189396Y-128612350D01*
X114265574Y-128600284D01*
X114310604Y-128612350D01*
X114413057Y-128657966D01*
X114413065Y-128657969D01*
X114420197Y-128661144D01*
X114512776Y-128680822D01*
X114597713Y-128698876D01*
X114597714Y-128698876D01*
X114605354Y-128700500D01*
X114794646Y-128700500D01*
X114802286Y-128698876D01*
X114802287Y-128698876D01*
X114972164Y-128662768D01*
X114972167Y-128662767D01*
X114979803Y-128661144D01*
X115152730Y-128584151D01*
X115305871Y-128472888D01*
X115361597Y-128410998D01*
X115427307Y-128338021D01*
X115427311Y-128338016D01*
X115432533Y-128332216D01*
X115527179Y-128168284D01*
X115585674Y-127988256D01*
X115605460Y-127800000D01*
X115585674Y-127611744D01*
X115527179Y-127431716D01*
X115523012Y-127424498D01*
X115522921Y-127424159D01*
X115520098Y-127417818D01*
X115521102Y-127417371D01*
X115503051Y-127349998D01*
X115521102Y-127282629D01*
X115520098Y-127282182D01*
X115522921Y-127275841D01*
X115523012Y-127275502D01*
X115523274Y-127275048D01*
X115523275Y-127275046D01*
X115527179Y-127268284D01*
X115585674Y-127088256D01*
X115605460Y-126900000D01*
X115585674Y-126711744D01*
X115527179Y-126531716D01*
X115450898Y-126399593D01*
X115436438Y-126374547D01*
X115436436Y-126374544D01*
X115432533Y-126367784D01*
X115427311Y-126361984D01*
X115427307Y-126361979D01*
X115328487Y-126252230D01*
X115305871Y-126227112D01*
X115152730Y-126115849D01*
X114979803Y-126038856D01*
X114972167Y-126037233D01*
X114972164Y-126037232D01*
X114802287Y-126001124D01*
X114802286Y-126001124D01*
X114794646Y-125999500D01*
X114605354Y-125999500D01*
X114597714Y-126001124D01*
X114597713Y-126001124D01*
X114512775Y-126019178D01*
X114420197Y-126038856D01*
X114413065Y-126042031D01*
X114413057Y-126042034D01*
X114310604Y-126087650D01*
X114234426Y-126099716D01*
X114189396Y-126087650D01*
X114086943Y-126042034D01*
X114086935Y-126042031D01*
X114079803Y-126038856D01*
X113987225Y-126019178D01*
X113902287Y-126001124D01*
X113902286Y-126001124D01*
X113894646Y-125999500D01*
X113705354Y-125999500D01*
X113697714Y-126001124D01*
X113697713Y-126001124D01*
X113612775Y-126019178D01*
X113520197Y-126038856D01*
X113513065Y-126042031D01*
X113513057Y-126042034D01*
X113410604Y-126087650D01*
X113334426Y-126099716D01*
X113289396Y-126087650D01*
X113186943Y-126042034D01*
X113186935Y-126042031D01*
X113179803Y-126038856D01*
X113172164Y-126037232D01*
X113172160Y-126037231D01*
X113009259Y-126002606D01*
X112940537Y-125967591D01*
X112898530Y-125902906D01*
X112892053Y-125872437D01*
X112886491Y-125819514D01*
X112886490Y-125819510D01*
X112885674Y-125811744D01*
X112827179Y-125631716D01*
X112823012Y-125624498D01*
X112822921Y-125624159D01*
X112820098Y-125617818D01*
X112821102Y-125617371D01*
X112803051Y-125549998D01*
X112821102Y-125482629D01*
X112820098Y-125482182D01*
X112822921Y-125475841D01*
X112823012Y-125475502D01*
X112823274Y-125475048D01*
X112823275Y-125475046D01*
X112827179Y-125468284D01*
X112885674Y-125288256D01*
X112905460Y-125100000D01*
X112885674Y-124911744D01*
X112827179Y-124731716D01*
X112732533Y-124567784D01*
X112727311Y-124561984D01*
X112727307Y-124561979D01*
X112661597Y-124489002D01*
X112605871Y-124427112D01*
X112452730Y-124315849D01*
X112279803Y-124238856D01*
X112272167Y-124237233D01*
X112272164Y-124237232D01*
X112102287Y-124201124D01*
X112102286Y-124201124D01*
X112094646Y-124199500D01*
X111905354Y-124199500D01*
X111897714Y-124201124D01*
X111897713Y-124201124D01*
X111812776Y-124219178D01*
X111720197Y-124238856D01*
X111713065Y-124242031D01*
X111713057Y-124242034D01*
X111610604Y-124287650D01*
X111534426Y-124299716D01*
X111489396Y-124287650D01*
X111386943Y-124242034D01*
X111386935Y-124242031D01*
X111379803Y-124238856D01*
X111287224Y-124219178D01*
X111202287Y-124201124D01*
X111202286Y-124201124D01*
X111194646Y-124199500D01*
X111005354Y-124199500D01*
X110997714Y-124201124D01*
X110997713Y-124201124D01*
X110827836Y-124237232D01*
X110827833Y-124237233D01*
X110820197Y-124238856D01*
X110647270Y-124315849D01*
X110494129Y-124427112D01*
X110438403Y-124489002D01*
X110372693Y-124561979D01*
X110372689Y-124561984D01*
X110367467Y-124567784D01*
X110272821Y-124731716D01*
X110214326Y-124911744D01*
X110194540Y-125100000D01*
X110214326Y-125288256D01*
X110272821Y-125468284D01*
X110276725Y-125475046D01*
X110276726Y-125475048D01*
X110276988Y-125475502D01*
X110277079Y-125475841D01*
X110279902Y-125482182D01*
X110278898Y-125482629D01*
X110296949Y-125550002D01*
X110278898Y-125617371D01*
X110279902Y-125617818D01*
X110277079Y-125624159D01*
X110276988Y-125624498D01*
X110272821Y-125631716D01*
X110214326Y-125811744D01*
X110194540Y-126000000D01*
X110195356Y-126007764D01*
X110205709Y-126106265D01*
X110214326Y-126188256D01*
X110272821Y-126368284D01*
X110276725Y-126375046D01*
X110276726Y-126375048D01*
X110276988Y-126375502D01*
X110277079Y-126375841D01*
X110279902Y-126382182D01*
X110278898Y-126382629D01*
X110296949Y-126450002D01*
X110278898Y-126517371D01*
X110279902Y-126517818D01*
X110277079Y-126524159D01*
X110276988Y-126524498D01*
X110272821Y-126531716D01*
X110214326Y-126711744D01*
X110194540Y-126900000D01*
X110214326Y-127088256D01*
X110272821Y-127268284D01*
X110276725Y-127275046D01*
X110276726Y-127275048D01*
X110276988Y-127275502D01*
X110277079Y-127275841D01*
X110279902Y-127282182D01*
X110278898Y-127282629D01*
X110296949Y-127350002D01*
X110278898Y-127417371D01*
X110279902Y-127417818D01*
X110277079Y-127424159D01*
X110276988Y-127424498D01*
X110272821Y-127431716D01*
X110214326Y-127611744D01*
X110194540Y-127800000D01*
X101000000Y-127800000D01*
X101000000Y-60149000D01*
X101019962Y-60074500D01*
X101074500Y-60019962D01*
X101149000Y-60000000D01*
X114300000Y-60000000D01*
X114446868Y-59819562D01*
X114509379Y-59774385D01*
X114548140Y-59765308D01*
X114555902Y-59764561D01*
X114794683Y-59716848D01*
X114929797Y-59689850D01*
X114929802Y-59689849D01*
X114933489Y-59689112D01*
X115148903Y-59622842D01*
X115297917Y-59576999D01*
X115297920Y-59576998D01*
X115301518Y-59575891D01*
X115612565Y-59444500D01*
X115652753Y-59427524D01*
X115652754Y-59427523D01*
X115656221Y-59426059D01*
X115993968Y-59241148D01*
X116311298Y-59023053D01*
X116426524Y-58925335D01*
X116602095Y-58776440D01*
X116602096Y-58776439D01*
X116604965Y-58774006D01*
X116621691Y-58756625D01*
X116869344Y-58499276D01*
X116869349Y-58499270D01*
X116871960Y-58496557D01*
X117109550Y-58193546D01*
X117315303Y-57868077D01*
X117487112Y-57523482D01*
X117623218Y-57163288D01*
X117633331Y-57125283D01*
X117721258Y-56794825D01*
X117722227Y-56791184D01*
X117783126Y-56410979D01*
X117805291Y-56026566D01*
X117805384Y-56000000D01*
X117802596Y-55944967D01*
X117793786Y-55771042D01*
X117809953Y-55695628D01*
X117830739Y-55665070D01*
X119955502Y-53250566D01*
X120019704Y-53207826D01*
X120067358Y-53200000D01*
X123938282Y-53200000D01*
X124012782Y-53219962D01*
G37*
%TD.AperFunction*%
%TD*%
%TA.AperFunction,Conductor*%
%TO.N,IN+*%
G36*
X123496524Y-112401275D02*
G01*
X123530000Y-112405682D01*
X123563476Y-112401275D01*
X123582922Y-112400000D01*
X126935252Y-112400000D01*
X127009752Y-112419962D01*
X127044179Y-112447335D01*
X128298560Y-113791315D01*
X128334799Y-113859399D01*
X128332141Y-113936481D01*
X128291540Y-114001681D01*
X126800000Y-115400000D01*
X126800000Y-117419054D01*
X126780038Y-117493554D01*
X126725500Y-117548092D01*
X126671093Y-117566693D01*
X126544605Y-117583907D01*
X126539301Y-117585453D01*
X126539296Y-117585454D01*
X126292985Y-117657246D01*
X126292977Y-117657249D01*
X126287683Y-117658792D01*
X126044652Y-117770831D01*
X125946916Y-117834910D01*
X125825481Y-117914526D01*
X125825477Y-117914529D01*
X125820851Y-117917562D01*
X125621197Y-118095760D01*
X125450075Y-118301512D01*
X125410653Y-118366477D01*
X125314113Y-118525569D01*
X125314110Y-118525576D01*
X125311244Y-118530298D01*
X125207755Y-118777091D01*
X125141881Y-119036470D01*
X125115070Y-119302736D01*
X125127909Y-119570041D01*
X125180118Y-119832512D01*
X125270549Y-120084383D01*
X125397215Y-120320121D01*
X125557335Y-120534547D01*
X125747390Y-120722950D01*
X125751843Y-120726215D01*
X125751850Y-120726221D01*
X125958743Y-120877921D01*
X125958749Y-120877925D01*
X125963205Y-120881192D01*
X125968098Y-120883766D01*
X125968099Y-120883767D01*
X126195142Y-121003221D01*
X126195147Y-121003223D01*
X126200039Y-121005797D01*
X126205260Y-121007620D01*
X126205264Y-121007622D01*
X126306421Y-121042947D01*
X126452690Y-121094026D01*
X126542473Y-121111072D01*
X126678793Y-121136954D01*
X126748262Y-121170462D01*
X126791669Y-121234216D01*
X126800000Y-121283339D01*
X126800000Y-124500000D01*
X120500000Y-117750000D01*
X121150000Y-117100000D01*
X121150000Y-113563666D01*
X121169962Y-113489166D01*
X121196008Y-113455992D01*
X122256796Y-112441326D01*
X122324431Y-112404256D01*
X122359788Y-112400000D01*
X123477078Y-112400000D01*
X123496524Y-112401275D01*
G37*
%TD.AperFunction*%
%TD*%
M02*
